<svg height="86" viewBox="0 0 15 86" width="15" xmlns="http://www.w3.org/2000/svg"><path d="m0 0h15v43h-15z" fill="none"/><path d="m13.98 26.593-3.5-3.5a5.436 5.436 0 1 0 -.778.777l3.5 3.5a.55.55 0 1 0 .778-.778zm-12.021-6.925a4.319 4.319 0 1 1 4.319 4.32 4.323 4.323 0 0 1 -4.319-4.32z" fill="#6e6e73"/><path d="m0 43h15v43h-15z" fill="none"/><path d="m13.931 69.593-3.5-3.5a5.428 5.428 0 1 0 -.777.777l3.5 3.5a.55.55 0 1 0 .777-.778zm-12.021-6.925a4.319 4.319 0 1 1 4.319 4.32 4.324 4.324 0 0 1 -4.319-4.32z" fill="#2997ff"/></svg>