<?xml version="1.0" encoding="UTF-8" standalone="no"?>
<svg width="51px" height="60px" viewBox="0 0 51 60" version="1.1" xmlns="http://www.w3.org/2000/svg" xmlns:xlink="http://www.w3.org/1999/xlink">
    <!-- Generator: Sketch 3.6 (26304) - http://www.bohemiancoding.com/sketch -->
    <title>pp_fc_mg</title>
    <desc>Created with Sketch.</desc>
    <defs></defs>
    <g id="Page-1" stroke="none" stroke-width="1" fill="none" fill-rule="evenodd">
        <g id="pp_fc_mg">
            <g id="pp_m_rgb">
                <g id="Group-5">
                    <path d="M47.7156522,35.4779348 C48.8726087,33.5377174 49.7227174,31.2006522 50.2425,28.5322826 C50.7013043,26.1769565 50.7877174,24.0684783 50.4988043,22.2648913 C50.193587,20.3605435 49.4602174,18.735 48.318587,17.433913 C47.6269565,16.6457609 46.7409783,15.9626087 45.686087,15.4036957 L45.6423913,15.3792391 L45.6502174,15.3671739 L45.6544565,15.3401087 C46.0222826,12.9942391 46.0082609,11.0338043 45.6120652,9.34630435 C45.213913,7.65456522 44.4068478,6.13336957 43.1452174,4.69532609 C40.5293478,1.71456522 35.7701087,0.202826087 28.9998913,0.202826087 L10.3956522,0.202826087 C9.10826087,0.202826087 8.02793478,1.12630435 7.82706522,2.39836957 L0.0798913043,51.5220652 C0.0101086957,51.9668478 0.137608696,52.4175 0.429782609,52.758913 C0.721956522,53.1009783 1.14782609,53.2972826 1.5975,53.2972826 L13.1540217,53.2972826 L13.1426087,53.3677174 L12.3498913,58.3946739 C12.2892391,58.781087 12.4001087,59.1733696 12.6541304,59.4707609 C12.9088043,59.7681522 13.278913,59.9390217 13.6698913,59.9390217 L23.3504348,59.9390217 C24.4731522,59.9390217 25.4152174,59.133913 25.5903261,58.0248913 L25.6852174,57.5308696 L27.5090217,45.9681522 L27.626413,45.3273913 C27.8109783,44.16 28.803587,43.3118478 29.9869565,43.3118478 L31.4347826,43.3118478 C36.4186957,43.3118478 40.4931522,42.2113043 43.5456522,40.0408696 C45.2158696,38.853587 46.6183696,37.3183696 47.7156522,35.4779348" id="Fill-1" fill="#27346A"></path>
                    <path d="M19.0669565,15.4115217 C19.1895652,14.6331522 19.6891304,13.9959783 20.3615217,13.6734783 C20.6673913,13.5270652 21.0088043,13.4455435 21.3668478,13.4455435 L35.9501087,13.4455435 C37.6777174,13.4455435 39.2882609,13.5586957 40.7611957,13.796087 C41.1818478,13.863587 41.591413,13.9415217 41.9892391,14.0298913 C42.3870652,14.1182609 42.7731522,14.2167391 43.1471739,14.3263043 C43.3340217,14.3807609 43.5179348,14.4381522 43.698587,14.4981522 C44.4218478,14.7381522 45.0952174,15.0211957 45.7147826,15.3495652 C46.4448913,10.6933696 45.7095652,7.52478261 43.1911957,4.65521739 C40.4184783,1.49543478 35.4088043,0.141847826 28.9998913,0.141847826 L10.3959783,0.141847826 C9.08608696,0.141847826 7.97086957,1.095 7.76673913,2.38891304 L0.0198913043,51.5126087 C-0.133043478,52.4820652 0.616304348,53.3582609 1.5975,53.3582609 L13.0826087,53.3582609 L19.0669565,15.4115217" id="Fill-3" fill="#27346A"></path>
                    <path d="M45.7147826,15.3495652 L45.7147826,15.3495652 C45.6590217,15.7046739 45.5970652,16.0663043 45.5243478,16.4390217 C43.0715217,29.0354348 34.6773913,33.3906522 23.9566304,33.3906522 L18.4979348,33.3906522 C17.1880435,33.3906522 16.0822826,34.3438043 15.8781522,35.6377174 L12.2898913,58.3852174 C12.1561957,59.2330435 12.8113043,60 13.6698913,60 L23.3504348,60 C24.4963043,60 25.4719565,59.1661957 25.6503261,58.0343478 L25.7455435,57.5422826 L27.5693478,45.9779348 L27.6867391,45.3391304 C27.8654348,44.2069565 28.8407609,43.3731522 29.9866304,43.3731522 L31.4347826,43.3731522 C40.8133696,43.3731522 48.1568478,39.5628261 50.3025,28.5436957 C51.1992391,23.9393478 50.7358696,20.0957609 48.3645652,17.3938043 C47.6475,16.5766304 46.755,15.9006522 45.7147826,15.3495652" id="Fill-4" fill="#2790C3"></path>
                </g>
                <path d="M43.1471739,14.3263043 C42.7731522,14.2167391 42.3870652,14.1182609 41.9892391,14.0298913 C41.591413,13.9415217 41.1818478,13.863587 40.7611957,13.796087 C39.2882609,13.5586957 37.6777174,13.4455435 35.9501087,13.4455435 L21.3668478,13.4455435 C21.0088043,13.4455435 20.6673913,13.5270652 20.3615217,13.6734783 C19.6891304,13.9959783 19.1895652,14.6331522 19.0669565,15.4115217 L15.9675,35.0638043 L15.8781522,35.6377174 C16.0822826,34.3438043 17.1880435,33.3906522 18.4979348,33.3906522 L23.9566304,33.3906522 C34.6773913,33.3906522 43.0715217,29.0354348 45.5243478,16.4390217 C45.5970652,16.0663043 45.6590217,15.7046739 45.7147826,15.3495652 C45.0952174,15.0211957 44.4218478,14.7381522 43.698587,14.4981522 C43.5179348,14.4381522 43.3340217,14.3807609 43.1471739,14.3263043" id="Fill-6" fill="#1F264F"></path>
            </g>
        </g>
    </g>
</svg>