<?xml version="1.0" encoding="UTF-8"?>
<svg width="103px" height="31px" viewBox="0 0 103 31" version="1.1" xmlns="http://www.w3.org/2000/svg" xmlns:xlink="http://www.w3.org/1999/xlink">
    <!-- Generator: Sketch 52.1 (67048) - http://www.bohemiancoding.com/sketch -->
    <title>Logotype 40px Copy</title>
    <desc>Created with Sketch.</desc>
    <g id="Page-1" stroke="none" stroke-width="1" fill="none" fill-rule="evenodd">
        <g id="Logotype" transform="translate(-477.000000, -373.000000)" fill="#323B43">
            <g id="Logotype-40px-Copy" transform="translate(477.000000, 373.000000)">
                <path d="M69.7964134,20.5651674 C67.2691625,20.5651674 65.6366139,18.5888946 65.6366139,15.5316176 C65.6366139,12.9953064 66.9231732,10.435212 69.7964134,10.435212 C72.7925336,10.435212 73.8599474,13.0677886 73.8599474,15.5316176 C73.8599474,17.9648681 72.7925336,20.5651674 69.7964134,20.5651674 Z M65.6366139,8.85872391 C66.7917992,7.43059783 68.5676134,6.64971525 70.6882843,6.64971525 C75.2167238,6.64971525 78.3798928,10.2760909 78.3798928,15.4681956 C78.3798928,20.697674 75.2167238,24.3500979 70.6882843,24.3500979 C68.579505,24.3500979 66.8025583,23.5584563 65.6366139,22.1105108 L65.6366139,23.9718314 L61.3075006,23.9718314 L61.3075006,0.139340316 L65.6366139,0.139340316 L65.6366139,8.85872391 Z M79.5013717,23.9723976 L79.5013717,0.139340316 L83.830485,0.139340316 L83.830485,23.9723976 L79.5013717,23.9723976 Z M42.601475,14.9904209 L42.5992099,16.6150418 L30.6260545,16.6150418 C30.7155248,19.0341356 32.3565673,20.5290812 34.9410112,20.5290812 C36.680018,20.5290812 38.1511804,19.8382351 39.194811,18.5295914 L39.2905102,18.4095428 L42.0805091,21.0375892 L41.9944365,21.1400836 C40.1880438,23.2879354 37.7395041,24.3768674 34.7184682,24.3768674 C29.4261342,24.3768674 26.006446,20.9282996 26.006446,15.590098 C26.006446,10.2586915 29.4051823,6.67705097 34.4630816,6.67705097 C39.3307152,6.67705097 42.601475,10.0180279 42.601475,14.9904209 Z M30.7636575,13.4150653 L38.4399767,13.4150653 C38.0503848,11.5622388 36.6432106,10.4614152 34.6448534,10.4614152 C32.6629179,10.4614152 31.1900567,11.5877208 30.7636575,13.4150653 Z M60.0578531,14.9904209 L60.055588,16.6150418 L48.0824326,16.6150418 C48.1719029,19.0341356 49.8129454,20.5290812 52.3973893,20.5290812 C54.1363961,20.5290812 55.6075585,19.8382351 56.6511891,18.5295914 L56.7468883,18.4095428 L59.5368872,21.0375892 L59.4508146,21.1400836 C57.6444219,23.2879354 55.1958822,24.3768674 52.1748463,24.3768674 C46.8825123,24.3768674 43.4628241,20.9282996 43.4628241,15.590098 C43.4628241,10.2586915 46.8615604,6.67705097 51.9194597,6.67705097 C56.7870933,6.67705097 60.0578531,10.0180279 60.0578531,14.9904209 Z M48.2200356,13.4150653 L55.8963548,13.4150653 C55.5067629,11.5622388 54.0995888,10.4614152 52.1012315,10.4614152 C50.119296,10.4614152 48.6464348,11.5877208 48.2200356,13.4150653 Z M21.6726893,7.05452474 L26.2713459,7.05452474 L21.638147,23.9989406 L16.7201156,23.9989406 L13.6079107,13.1039581 L10.4339826,23.9989406 L5.4989632,23.9989406 L5.47064984,23.8941811 L0.897475276,7.05452474 L5.52727657,7.05452474 L8.1054915,17.8447478 L11.2346845,7.05452474 L15.9975586,7.05452474 L19.1261853,17.8413502 L21.6726893,7.05452474 Z M97.6368031,7.07611451 L102.275098,7.07611451 L93.2017977,30.8485812 L89.0493597,30.8485812 L91.6247433,23.9735302 L84.9127773,7.07611451 L89.7775795,7.07611451 L93.7221973,18.3674841 L97.6368031,7.07611451 Z" id="Combined-Shape"></path>
            </g>
        </g>
    </g>
</svg>