<svg xmlns="http://www.w3.org/2000/svg" width="16" height="16" viewBox="0 0 16 16"><path d="M8.766 9.848a2 2 0 0 1-1.531-3.696 2.003 2.003 0 0 1 2.613 1.082 2.003 2.003 0 0 1-1.082 2.614m7.078.013l-1.79-.742c.135-.73.142-1.486.002-2.239l1.788-.74a.253.253 0 0 0 .137-.33l-.788-1.905a.253.253 0 0 0-.33-.136l-1.789.741a6.124 6.124 0 0 0-1.585-1.581l.742-1.791a.253.253 0 0 0-.137-.33L10.191.019a.254.254 0 0 0-.33.137l-.742 1.791a6.144 6.144 0 0 0-2.238-.003L6.139.156a.254.254 0 0 0-.33-.137L3.906.808a.253.253 0 0 0-.137.33l.74 1.79c-.63.432-1.16.972-1.58 1.583l-1.79-.742a.254.254 0 0 0-.33.136L.02 5.81a.253.253 0 0 0 .137.33l1.79.742a6.138 6.138 0 0 0-.002 2.237l-1.79.742a.252.252 0 0 0-.136.33l.79 1.904c.053.128.201.19.33.137l1.788-.742a6.116 6.116 0 0 0 1.584 1.58l-.741 1.792a.253.253 0 0 0 .136.33l1.904.789a.252.252 0 0 0 .33-.137l.742-1.791a6.127 6.127 0 0 0 2.239.003l.74 1.788c.054.129.203.19.33.137l1.904-.79c.129-.052.19-.2.137-.329l-.741-1.789a6.132 6.132 0 0 0 1.58-1.584l1.792.742a.253.253 0 0 0 .33-.136l.788-1.904a.252.252 0 0 0-.137-.33" fill="#006DEF" fill-rule="evenodd"/></svg>