<?xml version="1.0"?>
<svg version="1.1" xmlns="http://www.w3.org/2000/svg" width="210.029296875px" height="9.9921875px"><path fill="#999" d="M0.732421875,7.9921875l0-7.158203125l2.685546875,0q0.8203125,0,1.31591796875,0.21728515625t0.7763671875,0.6689453125t0.28076171875,0.94482421875q0,0.458984375-0.2490234375,0.8642578125t-0.751953125,0.654296875q0.6494140625,0.1904296875,0.99853515625,0.6494140625t0.34912109375,1.083984375q0,0.5029296875-0.21240234375,0.93505859375t-0.52490234375,0.66650390625t-0.78369140625,0.35400390625t-1.15478515625,0.11962890625l-2.7294921875,0z M1.6796875,7.1474609375l1.7822265625,0q0.458984375,0,0.64453125-0.0341796875q0.3271484375-0.05859375,0.546875-0.1953125t0.361328125-0.39794921875t0.1416015625-0.60302734375q0-0.400390625-0.205078125-0.69580078125t-0.56884765625-0.4150390625t-1.04736328125-0.11962890625l-1.6552734375,0l0,2.4609375z M1.6796875,3.841796875l1.5478515625,0q0.6298828125,0,0.9033203125-0.0830078125q0.361328125-0.107421875,0.54443359375-0.3564453125t0.18310546875-0.625q0-0.3564453125-0.1708984375-0.62744140625t-0.48828125-0.37109375t-1.0888671875-0.10009765625l-1.4306640625,0l0,2.1630859375z M7.431640625,7.9921875l0-7.158203125l0.9716796875,0l3.759765625,5.6201171875l0-5.6201171875l0.908203125,0l0,7.158203125l-0.9716796875,0l-3.759765625-5.625l0,5.625l-0.908203125,0z M14.3896484375,4.359375q0-1.1181640625,0.42724609375-1.95068359375t1.2158203125-1.2646484375t1.73583984375-0.43212890625q1.07421875,0,1.806640625,0.546875t1.0205078125,1.5380859375l-0.9326171875,0.2197265625q-0.2490234375-0.78125-0.72265625-1.1376953125t-1.19140625-0.3564453125q-0.8251953125,0-1.37939453125,0.3955078125t-0.77880859375,1.06201171875t-0.224609375,1.37451171875q0,0.9130859375,0.26611328125,1.59423828125t0.82763671875,1.01806640625t1.2158203125,0.3369140625q0.7958984375,0,1.34765625-0.458984375t0.7470703125-1.3623046875l0.947265625,0.2392578125q-0.2978515625,1.1669921875-1.07177734375,1.77978515625t-1.89208984375,0.61279296875q-1.1572265625,0-1.88232421875-0.47119140625t-1.103515625-1.36474609375t-0.37841796875-1.9189453125z M24.1259765625,1.6787109375l0-0.8447265625l5.673828125,0l0,0.8447265625l-2.3681640625,0l0,6.3134765625l-0.947265625,0l0-6.3134765625l-2.3583984375,0z M30.791015625,7.9921875l0-7.158203125l5.17578125,0l0,0.8447265625l-4.228515625,0l0,2.1923828125l3.9599609375,0l0,0.83984375l-3.9599609375,0l0,2.4365234375l4.39453125,0l0,0.8447265625l-5.341796875,0z M37.16796875,4.359375q0-1.1181640625,0.42724609375-1.95068359375t1.2158203125-1.2646484375t1.73583984375-0.43212890625q1.07421875,0,1.806640625,0.546875t1.0205078125,1.5380859375l-0.9326171875,0.2197265625q-0.2490234375-0.78125-0.72265625-1.1376953125t-1.19140625-0.3564453125q-0.8251953125,0-1.37939453125,0.3955078125t-0.77880859375,1.06201171875t-0.224609375,1.37451171875q0,0.9130859375,0.26611328125,1.59423828125t0.82763671875,1.01806640625t1.2158203125,0.3369140625q0.7958984375,0,1.34765625-0.458984375t0.7470703125-1.3623046875l0.947265625,0.2392578125q-0.2978515625,1.1669921875-1.07177734375,1.77978515625t-1.89208984375,0.61279296875q-1.1572265625,0-1.88232421875-0.47119140625t-1.103515625-1.36474609375t-0.37841796875-1.9189453125z M44.6923828125,7.9921875l0-7.158203125l0.947265625,0l0,2.939453125l3.720703125,0l0-2.939453125l0.947265625,0l0,7.158203125l-0.947265625,0l0-3.3740234375l-3.720703125,0l0,3.3740234375l-0.947265625,0z M51.875,7.9921875l0-7.158203125l0.9716796875,0l3.759765625,5.6201171875l0-5.6201171875l0.908203125,0l0,7.158203125l-0.9716796875,0l-3.759765625-5.625l0,5.625l-0.908203125,0z M58.818359375,4.505859375q0-1.7822265625,0.95703125-2.79052734375t2.470703125-1.00830078125q0.9912109375,0,1.787109375,0.4736328125t1.21337890625,1.32080078125t0.41748046875,1.92138671875q0,1.0888671875-0.439453125,1.9482421875t-1.2451171875,1.30126953125t-1.73828125,0.44189453125q-1.0107421875,0-1.806640625-0.48828125t-1.2060546875-1.3330078125t-0.41015625-1.787109375z M59.794921875,4.5205078125q0,1.2939453125,0.69580078125,2.03857421875t1.74560546875,0.74462890625q1.0693359375,0,1.76025390625-0.751953125t0.69091796875-2.1337890625q0-0.8740234375-0.29541015625-1.52587890625t-0.8642578125-1.0107421875t-1.27685546875-0.35888671875q-1.005859375,0-1.73095703125,0.69091796875t-0.72509765625,2.30712890625z M66.845703125,7.9921875l0-7.158203125l0.947265625,0l0,6.3134765625l3.525390625,0l0,0.8447265625l-4.47265625,0z M72.158203125,4.505859375q0-1.7822265625,0.95703125-2.79052734375t2.470703125-1.00830078125q0.9912109375,0,1.787109375,0.4736328125t1.21337890625,1.32080078125t0.41748046875,1.92138671875q0,1.0888671875-0.439453125,1.9482421875t-1.2451171875,1.30126953125t-1.73828125,0.44189453125q-1.0107421875,0-1.806640625-0.48828125t-1.2060546875-1.3330078125t-0.41015625-1.787109375z M73.134765625,4.5205078125q0,1.2939453125,0.69580078125,2.03857421875t1.74560546875,0.74462890625q1.0693359375,0,1.76025390625-0.751953125t0.69091796875-2.1337890625q0-0.8740234375-0.29541015625-1.52587890625t-0.8642578125-1.0107421875t-1.27685546875-0.35888671875q-1.005859375,0-1.73095703125,0.69091796875t-0.72509765625,2.30712890625z M79.9853515625,4.447265625q0-1.044921875,0.43701171875-1.95068359375t1.25732421875-1.34521484375t1.8896484375-0.439453125q0.7763671875,0,1.40380859375,0.25146484375t0.98388671875,0.70068359375t0.5419921875,1.171875l-0.8544921875,0.234375q-0.1611328125-0.546875-0.400390625-0.859375t-0.68359375-0.50048828125t-0.986328125-0.18798828125q-0.6494140625,0-1.123046875,0.19775390625t-0.76416015625,0.52001953125t-0.45166015625,0.7080078125q-0.2734375,0.6640625-0.2734375,1.4404296875q0,0.95703125,0.32958984375,1.6015625t0.95947265625,0.95703125t1.337890625,0.3125q0.615234375,0,1.201171875-0.23681640625t0.888671875-0.50537109375l0-1.3330078125l-2.1044921875,0l0-0.83984375l3.0322265625-0.0048828125l0,2.65625q-0.6982421875,0.556640625-1.4404296875,0.83740234375t-1.5234375,0.28076171875q-1.0546875,0-1.91650390625-0.45166015625t-1.30126953125-1.30615234375t-0.439453125-1.9091796875z M87.2607421875,0.833984375l1.15234375,0l1.4111328125,2.158203125q0.390625,0.60546875,0.7275390625,1.2109375q0.322265625-0.5615234375,0.78125-1.2646484375l1.38671875-2.1044921875l1.103515625,0l-2.8564453125,4.1259765625l0,3.0322265625l-0.947265625,0l0-3.0322265625z M96.6650390625,7.9921875l2.7490234375-7.158203125l1.0205078125,0l2.9296875,7.158203125l-1.0791015625,0l-0.8349609375-2.16796875l-2.9931640625,0l-0.7861328125,2.16796875l-1.005859375,0z M98.73046875,5.052734375l2.4267578125,0l-0.7470703125-1.982421875q-0.341796875-0.9033203125-0.5078125-1.484375q-0.13671875,0.6884765625-0.3857421875,1.3671875z M104.111328125,7.9921875l0-7.158203125l0.9716796875,0l3.759765625,5.6201171875l0-5.6201171875l0.908203125,0l0,7.158203125l-0.9716796875,0l-3.759765625-5.625l0,5.625l-0.908203125,0z M111.3427734375,7.9921875l0-7.158203125l2.4658203125,0q0.8349609375,0,1.2744140625,0.1025390625q0.615234375,0.1416015625,1.0498046875,0.5126953125q0.56640625,0.478515625,0.84716796875,1.22314453125t0.28076171875,1.70166015625q0,0.8154296875-0.1904296875,1.4453125t-0.48828125,1.04248046875t-0.65185546875,0.6494140625t-0.8544921875,0.35888671875t-1.14990234375,0.1220703125l-2.5830078125,0z M112.2900390625,7.1474609375l1.5283203125,0q0.7080078125,0,1.11083984375-0.1318359375t0.64208984375-0.37109375q0.3369140625-0.3369140625,0.52490234375-0.90576171875t0.18798828125-1.37939453125q0-1.123046875-0.36865234375-1.72607421875t-0.89599609375-0.80810546875q-0.380859375-0.146484375-1.2255859375-0.146484375l-1.50390625,0l0,5.46875z M120.556640625,7.9921875l2.7490234375-7.158203125l1.0205078125,0l2.9296875,7.158203125l-1.0791015625,0l-0.8349609375-2.16796875l-2.9931640625,0l-0.7861328125,2.16796875l-1.005859375,0z M122.6220703125,5.052734375l2.4267578125,0l-0.7470703125-1.982421875q-0.341796875-0.9033203125-0.5078125-1.484375q-0.13671875,0.6884765625-0.3857421875,1.3671875z M128.0126953125,7.9921875l0-7.158203125l2.4658203125,0q0.8349609375,0,1.2744140625,0.1025390625q0.615234375,0.1416015625,1.0498046875,0.5126953125q0.56640625,0.478515625,0.84716796875,1.22314453125t0.28076171875,1.70166015625q0,0.8154296875-0.1904296875,1.4453125t-0.48828125,1.04248046875t-0.65185546875,0.6494140625t-0.8544921875,0.35888671875t-1.14990234375,0.1220703125l-2.5830078125,0z M128.9599609375,7.1474609375l1.5283203125,0q0.7080078125,0,1.11083984375-0.1318359375t0.64208984375-0.37109375q0.3369140625-0.3369140625,0.52490234375-0.90576171875t0.18798828125-1.37939453125q0-1.123046875-0.36865234375-1.72607421875t-0.89599609375-0.80810546875q-0.380859375-0.146484375-1.2255859375-0.146484375l-1.50390625,0l0,5.46875z M134.5068359375,0.833984375l1.025390625,0l1.8603515625,5.2001953125q0.224609375,0.625,0.3759765625,1.171875q0.166015625-0.5859375,0.3857421875-1.171875l1.93359375-5.2001953125l0.966796875,0l-2.802734375,7.158203125l-0.9716796875,0z M141.923828125,7.9921875l0-7.158203125l5.17578125,0l0,0.8447265625l-4.228515625,0l0,2.1923828125l3.9599609375,0l0,0.83984375l-3.9599609375,0l0,2.4365234375l4.39453125,0l0,0.8447265625l-5.341796875,0z M148.5888671875,7.9921875l0-7.158203125l3.173828125,0q0.95703125,0,1.455078125,0.19287109375t0.7958984375,0.68115234375t0.2978515625,1.0791015625q0,0.76171875-0.4931640625,1.2841796875t-1.5234375,0.6640625q0.3759765625,0.1806640625,0.5712890625,0.3564453125q0.4150390625,0.380859375,0.7861328125,0.9521484375l1.2451171875,1.9482421875l-1.19140625,0l-0.947265625-1.4892578125q-0.4150390625-0.64453125-0.68359375-0.986328125t-0.48095703125-0.478515625t-0.43212890625-0.1904296875q-0.1611328125-0.0341796875-0.52734375-0.0341796875l-1.0986328125,0l0,3.1787109375l-0.947265625,0z M149.5361328125,3.9931640625l2.0361328125,0q0.6494140625,0,1.015625-0.13427734375t0.556640625-0.4296875t0.1904296875-0.64208984375q0-0.5078125-0.36865234375-0.8349609375t-1.16455078125-0.3271484375l-2.265625,0l0,2.3681640625z M155.2587890625,1.6787109375l0-0.8447265625l5.673828125,0l0,0.8447265625l-2.3681640625,0l0,6.3134765625l-0.947265625,0l0-6.3134765625l-2.3583984375,0z M162.0654296875,7.9921875l0-7.158203125l0.947265625,0l0,7.158203125l-0.947265625,0z M164.3603515625,5.6923828125l0.8935546875-0.078125q0.0634765625,0.537109375,0.29541015625,0.88134765625t0.72021484375,0.556640625t1.0986328125,0.21240234375q0.5419921875,0,0.95703125-0.1611328125t0.61767578125-0.44189453125t0.20263671875-0.61279296875q0-0.3369140625-0.1953125-0.58837890625t-0.64453125-0.42236328125q-0.2880859375-0.1123046875-1.2744140625-0.34912109375t-1.3818359375-0.44677734375q-0.5126953125-0.2685546875-0.76416015625-0.66650390625t-0.25146484375-0.89111328125q0-0.5419921875,0.3076171875-1.01318359375t0.8984375-0.71533203125t1.3134765625-0.244140625q0.7958984375,0,1.40380859375,0.25634765625t0.93505859375,0.75439453125t0.3515625,1.1279296875l-0.908203125,0.068359375q-0.0732421875-0.6787109375-0.49560546875-1.025390625t-1.24755859375-0.3466796875q-0.859375,0-1.25244140625,0.31494140625t-0.39306640625,0.75927734375q0,0.3857421875,0.2783203125,0.634765625q0.2734375,0.2490234375,1.42822265625,0.51025390625t1.58447265625,0.45654296875q0.625,0.2880859375,0.9228515625,0.72998046875t0.2978515625,1.01806640625q0,0.5712890625-0.3271484375,1.07666015625t-0.93994140625,0.7861328125t-1.37939453125,0.28076171875q-0.9716796875,0-1.62841796875-0.283203125t-1.0302734375-0.85205078125t-0.39306640625-1.28662109375z M171.513671875,7.9921875l0-7.158203125l0.947265625,0l0,7.158203125l-0.947265625,0z M174.12109375,7.9921875l0-7.158203125l0.9716796875,0l3.759765625,5.6201171875l0-5.6201171875l0.908203125,0l0,7.158203125l-0.9716796875,0l-3.759765625-5.625l0,5.625l-0.908203125,0z M181.11328125,4.447265625q0-1.044921875,0.43701171875-1.95068359375t1.25732421875-1.34521484375t1.8896484375-0.439453125q0.7763671875,0,1.40380859375,0.25146484375t0.98388671875,0.70068359375t0.5419921875,1.171875l-0.8544921875,0.234375q-0.1611328125-0.546875-0.400390625-0.859375t-0.68359375-0.50048828125t-0.986328125-0.18798828125q-0.6494140625,0-1.123046875,0.19775390625t-0.76416015625,0.52001953125t-0.45166015625,0.7080078125q-0.2734375,0.6640625-0.2734375,1.4404296875q0,0.95703125,0.32958984375,1.6015625t0.95947265625,0.95703125t1.337890625,0.3125q0.615234375,0,1.201171875-0.23681640625t0.888671875-0.50537109375l0-1.3330078125l-2.1044921875,0l0-0.83984375l3.0322265625-0.0048828125l0,2.65625q-0.6982421875,0.556640625-1.4404296875,0.83740234375t-1.5234375,0.28076171875q-1.0546875,0-1.91650390625-0.45166015625t-1.30126953125-1.30615234375t-0.439453125-1.9091796875z M191.8701171875,7.9921875l0-7.158203125l0.947265625,0l0,6.3134765625l3.525390625,0l0,0.8447265625l-4.47265625,0z M196.93359375,1.6787109375l0-0.8447265625l5.673828125,0l0,0.8447265625l-2.3681640625,0l0,6.3134765625l-0.947265625,0l0-6.3134765625l-2.3583984375,0z M203.5791015625,7.9921875l0-7.158203125l2.4658203125,0q0.8349609375,0,1.2744140625,0.1025390625q0.615234375,0.1416015625,1.0498046875,0.5126953125q0.56640625,0.478515625,0.84716796875,1.22314453125t0.28076171875,1.70166015625q0,0.8154296875-0.1904296875,1.4453125t-0.48828125,1.04248046875t-0.65185546875,0.6494140625t-0.8544921875,0.35888671875t-1.14990234375,0.1220703125l-2.5830078125,0z M204.5263671875,7.1474609375l1.5283203125,0q0.7080078125,0,1.11083984375-0.1318359375t0.64208984375-0.37109375q0.3369140625-0.3369140625,0.52490234375-0.90576171875t0.18798828125-1.37939453125q0-1.123046875-0.36865234375-1.72607421875t-0.89599609375-0.80810546875q-0.380859375-0.146484375-1.2255859375-0.146484375l-1.50390625,0l0,5.46875z"/></svg>
