<?xml version="1.0"?>
<svg version="1.1" xmlns="http://www.w3.org/2000/svg" width="121.7236328125px" height="9.9921875px"><path fill="#999" d="M0.771484375,7.9921875l0-7.158203125l2.4658203125,0q0.8349609375,0,1.2744140625,0.1025390625q0.615234375,0.1416015625,1.0498046875,0.5126953125q0.56640625,0.478515625,0.84716796875,1.22314453125t0.28076171875,1.70166015625q0,0.8154296875-0.1904296875,1.4453125t-0.48828125,1.04248046875t-0.65185546875,0.6494140625t-0.8544921875,0.35888671875t-1.14990234375,0.1220703125l-2.5830078125,0z M1.71875,7.1474609375l1.5283203125,0q0.7080078125,0,1.11083984375-0.1318359375t0.64208984375-0.37109375q0.3369140625-0.3369140625,0.52490234375-0.90576171875t0.18798828125-1.37939453125q0-1.123046875-0.36865234375-1.72607421875t-0.89599609375-0.80810546875q-0.380859375-0.146484375-1.2255859375-0.146484375l-1.50390625,0l0,5.46875z M7.8857421875,7.9921875l0-5.185546875l0.87890625,0l0,5.185546875l-0.87890625,0z M7.8857421875,1.8447265625l0-1.0107421875l0.87890625,0l0,1.0107421875l-0.87890625,0z M9.765625,5.3701171875q0-0.7421875,0.2685546875-1.36962890625t0.77880859375-0.96923828125t1.19873046875-0.341796875q0.91796875,0,1.513671875,0.7421875l0-0.625l0.810546875,0l0,4.482421875q0,1.2109375-0.24658203125,1.71630859375t-0.78125,0.79833984375t-1.31591796875,0.29296875q-0.927734375,0-1.4990234375-0.4150390625q-0.5517578125-0.4052734375-0.5517578125-1.2060546875l0-0.0537109375l0.8544921875,0.126953125q0.0537109375,0.3955078125,0.2978515625,0.576171875q0.3271484375,0.244140625,0.8935546875,0.244140625q0.6103515625,0,0.9423828125-0.244140625t0.44921875-0.68359375q0.0634765625-0.2490234375,0.0634765625-1.015625l0-0.1123046875q-0.576171875,0.6787109375-1.435546875,0.6787109375q-1.0693359375,0-1.6552734375-0.771484375t-0.5859375-1.8505859375z M10.6689453125,5.306640625q0,1.0205078125,0.4052734375,1.4892578125t1.015625,0.46875q0.60546875,0,1.015625-0.46630859375t0.41015625-1.46240234375q0-0.9521484375-0.42236328125-1.435546875t-1.01806640625-0.4833984375q-0.5859375,0-0.99609375,0.47607421875t-0.41015625,1.41357421875z M15.37109375,5.443359375q0-1.30859375,0.673828125-2.03125t1.748046875-0.72265625q1.0400390625,0,1.69921875,0.7080078125t0.6591796875,1.9921875q0,0.078125-0.0048828125,0.234375l-3.8671875,0q0.048828125,0.8544921875,0.4833984375,1.30859375t1.083984375,0.4541015625q0.4833984375,0,0.8251953125-0.25390625t0.5419921875-0.810546875l0.908203125,0.1123046875q-0.21484375,0.7958984375-0.7958984375,1.2353515625t-1.484375,0.439453125q-1.1376953125,0-1.80419921875-0.70068359375t-0.66650390625-1.96533203125z M16.328125,4.9013671875l2.8955078125,0q-0.05859375-0.654296875-0.33203125-0.9814453125q-0.419921875-0.5078125-1.0888671875-0.5078125q-0.60546875,0-1.01806640625,0.4052734375t-0.45654296875,1.083984375z M21.2255859375,7.9921875l0-5.185546875l0.791015625,0l0,0.7373046875q0.5712890625-0.8544921875,1.650390625-0.8544921875q0.46875,0,0.86181640625,0.16845703125t0.58837890625,0.44189453125t0.2734375,0.6494140625q0.048828125,0.244140625,0.048828125,0.8544921875l0,3.1884765625l-0.87890625,0l0-3.154296875q0-0.537109375-0.1025390625-0.80322265625t-0.36376953125-0.4248046875t-0.61279296875-0.15869140625q-0.5615234375,0-0.96923828125,0.3564453125t-0.40771484375,1.3525390625l0,2.83203125l-0.87890625,0z M26.7919921875,7.9921875l0-5.185546875l0.87890625,0l0,5.185546875l-0.87890625,0z M26.7919921875,1.8447265625l0-1.0107421875l0.87890625,0l0,1.0107421875l-0.87890625,0z M31.11328125,7.9921875l2.7490234375-7.158203125l1.0205078125,0l2.9296875,7.158203125l-1.0791015625,0l-0.8349609375-2.16796875l-2.9931640625,0l-0.7861328125,2.16796875l-1.005859375,0z M33.1787109375,5.052734375l2.4267578125,0l-0.7470703125-1.982421875q-0.341796875-0.9033203125-0.5078125-1.484375q-0.13671875,0.6884765625-0.3857421875,1.3671875z M38.4619140625,7.9921875l0-7.158203125l0.87890625,0l0,4.08203125l2.080078125-2.109375l1.1376953125,0l-1.982421875,1.923828125l2.1826171875,3.26171875l-1.083984375,0l-1.7138671875-2.6513671875l-0.6201171875,0.595703125l0,2.0556640625l-0.87890625,0z M43.447265625,7.9921875l0-5.185546875l0.791015625,0l0,0.7861328125q0.302734375-0.5517578125,0.55908203125-0.7275390625t0.56396484375-0.17578125q0.4443359375,0,0.9033203125,0.283203125l-0.302734375,0.8154296875q-0.322265625-0.1904296875-0.64453125-0.1904296875q-0.2880859375,0-0.517578125,0.17333984375t-0.3271484375,0.48095703125q-0.146484375,0.46875-0.146484375,1.025390625l0,2.71484375l-0.87890625,0z M46.7919921875,7.9921875l0-5.185546875l0.87890625,0l0,5.185546875l-0.87890625,0z M46.7919921875,1.8447265625l0-1.0107421875l0.87890625,0l0,1.0107421875l-0.87890625,0z M48.525390625,3.490234375l0-0.68359375l0.64453125,0l0-1.2841796875l0.8740234375-0.52734375l0,1.8115234375l0.8837890625,0l0,0.68359375l-0.8837890625,0l0,3.0322265625q0,0.3759765625,0.04638671875,0.4833984375t0.1513671875,0.1708984375t0.30029296875,0.0634765625q0.146484375,0,0.3857421875-0.0341796875l0.126953125,0.7763671875q-0.37109375,0.078125-0.6640625,0.078125q-0.478515625,0-0.7421875-0.1513671875t-0.37109375-0.39794921875t-0.107421875-1.03759765625l0-2.9833984375l-0.64453125,0z M51.4892578125,6.625q0-0.380859375,0.17333984375-0.69580078125t0.4541015625-0.50537109375t0.63232421875-0.2880859375q0.2587890625-0.068359375,0.78125-0.1318359375q1.064453125-0.126953125,1.5673828125-0.302734375q0.0048828125-0.1806640625,0.0048828125-0.2294921875q0-0.537109375-0.2490234375-0.7568359375q-0.3369140625-0.2978515625-1.0009765625-0.2978515625q-0.6201171875,0-0.91552734375,0.21728515625t-0.43701171875,0.76904296875l-0.859375-0.1171875q0.1171875-0.5517578125,0.3857421875-0.89111328125t0.7763671875-0.5224609375t1.1767578125-0.18310546875q0.6640625,0,1.0791015625,0.15625t0.6103515625,0.39306640625t0.2734375,0.59814453125q0.0439453125,0.224609375,0.0439453125,0.810546875l0,1.171875q0,1.2255859375,0.05615234375,1.55029296875t0.22216796875,0.62255859375l-0.91796875,0q-0.13671875-0.2734375-0.17578125-0.6396484375q-0.48828125,0.4150390625-0.93994140625,0.5859375t-0.96923828125,0.1708984375q-0.8544921875,0-1.3134765625-0.41748046875t-0.458984375-1.06689453125z M52.4267578125,6.6005859375q0,0.3515625,0.26611328125,0.5859375t0.77880859375,0.234375q0.5078125,0,0.9033203125-0.22216796875t0.5810546875-0.60791015625q0.1416015625-0.2978515625,0.1416015625-0.87890625l0-0.322265625q-0.478515625,0.1953125-1.435546875,0.33203125q-0.5419921875,0.078125-0.7666015625,0.17578125t-0.3466796875,0.28564453125t-0.1220703125,0.41748046875z M57.51953125,9.0322265625q0.2783203125-0.1220703125,0.41015625-0.35888671875t0.146484375-0.68115234375l-0.498046875,0l0-1.0009765625l1.0009765625,0l0,1.0009765625q0,0.5517578125-0.1953125,0.89111328125t-0.6201171875,0.52490234375z M62.6513671875,5.921875q0-0.6982421875,0.35400390625-1.16943359375t1.00830078125-0.64208984375q-0.546875-0.2001953125-0.810546875-0.5712890625t-0.263671875-0.888671875q0-0.78125,0.5615234375-1.3134765625t1.494140625-0.5322265625q0.9375,0,1.5087890625,0.54443359375t0.5712890625,1.32568359375q0,0.498046875-0.26123046875,0.86669921875t-0.79345703125,0.56884765625q0.6591796875,0.21484375,1.00341796875,0.693359375t0.34423828125,1.142578125q0,0.91796875-0.6494140625,1.54296875t-1.708984375,0.625t-1.708984375-0.62744140625t-0.6494140625-1.56494140625z M63.5546875,5.9267578125q0,0.3759765625,0.17822265625,0.7275390625t0.52978515625,0.54443359375t0.7568359375,0.19287109375q0.6298828125,0,1.0400390625-0.4052734375t0.41015625-1.0302734375q0-0.634765625-0.42236328125-1.0498046875t-1.05712890625-0.4150390625q-0.6201171875,0-1.02783203125,0.41015625t-0.40771484375,1.025390625z M63.837890625,2.62109375q0,0.5078125,0.3271484375,0.830078125t0.849609375,0.322265625q0.5078125,0,0.83251953125-0.31982421875t0.32470703125-0.78369140625q0-0.4833984375-0.33447265625-0.81298828125t-0.83251953125-0.32958984375q-0.5029296875,0-0.8349609375,0.322265625t-0.33203125,0.771484375z M68.6376953125,9.0322265625q0.2783203125-0.1220703125,0.41015625-0.35888671875t0.146484375-0.68115234375l-0.498046875,0l0-1.0009765625l1.0009765625,0l0,1.0009765625q0,0.5517578125-0.1953125,0.89111328125t-0.6201171875,0.52490234375z M73.84765625,4.505859375q0-1.7822265625,0.95703125-2.79052734375t2.470703125-1.00830078125q0.9912109375,0,1.787109375,0.4736328125t1.21337890625,1.32080078125t0.41748046875,1.92138671875q0,1.0888671875-0.439453125,1.9482421875t-1.2451171875,1.30126953125t-1.73828125,0.44189453125q-1.0107421875,0-1.806640625-0.48828125t-1.2060546875-1.3330078125t-0.41015625-1.787109375z M74.82421875,4.5205078125q0,1.2939453125,0.69580078125,2.03857421875t1.74560546875,0.74462890625q1.0693359375,0,1.76025390625-0.751953125t0.69091796875-2.1337890625q0-0.8740234375-0.29541015625-1.52587890625t-0.8642578125-1.0107421875t-1.27685546875-0.35888671875q-1.005859375,0-1.73095703125,0.69091796875t-0.72509765625,2.30712890625z M81.2353515625,3.490234375l0-0.68359375l0.7763671875,0l0-0.5517578125q0-0.5224609375,0.0927734375-0.7763671875q0.126953125-0.341796875,0.44677734375-0.55419921875t0.89599609375-0.21240234375q0.37109375,0,0.8203125,0.087890625l-0.1318359375,0.7666015625q-0.2734375-0.048828125-0.517578125-0.048828125q-0.400390625,0-0.56640625,0.1708984375t-0.166015625,0.6396484375l0,0.478515625l1.0107421875,0l0,0.68359375l-1.0107421875,0l0,4.501953125l-0.8740234375,0l0-4.501953125l-0.7763671875,0z M84.013671875,3.490234375l0-0.68359375l0.7763671875,0l0-0.5517578125q0-0.5224609375,0.0927734375-0.7763671875q0.126953125-0.341796875,0.44677734375-0.55419921875t0.89599609375-0.21240234375q0.37109375,0,0.8203125,0.087890625l-0.1318359375,0.7666015625q-0.2734375-0.048828125-0.517578125-0.048828125q-0.400390625,0-0.56640625,0.1708984375t-0.166015625,0.6396484375l0,0.478515625l1.0107421875,0l0,0.68359375l-1.0107421875,0l0,4.501953125l-0.8740234375,0l0-4.501953125l-0.7763671875,0z M87.36328125,7.9921875l0-5.185546875l0.87890625,0l0,5.185546875l-0.87890625,0z M87.36328125,1.8447265625l0-1.0107421875l0.87890625,0l0,1.0107421875l-0.87890625,0z M89.3115234375,5.4189453125q0-0.83984375,0.2783203125-1.4697265625t0.84716796875-0.94482421875t1.23779296875-0.31494140625q0.8447265625,0,1.3818359375,0.42724609375t0.6884765625,1.21337890625l-0.8544921875,0.1318359375q-0.1220703125-0.5224609375-0.43212890625-0.7861328125t-0.74951171875-0.263671875q-0.6640625,0-1.0791015625,0.47607421875t-0.4150390625,1.50634765625q0,1.044921875,0.400390625,1.5185546875t1.044921875,0.4736328125q0.517578125,0,0.8642578125-0.3173828125t0.439453125-0.9765625l0.8642578125,0.1123046875q-0.1416015625,0.8935546875-0.72509765625,1.39892578125t-1.43310546875,0.50537109375q-1.064453125,0-1.71142578125-0.69580078125t-0.64697265625-1.99462890625z M94.287109375,5.443359375q0-1.30859375,0.673828125-2.03125t1.748046875-0.72265625q1.0400390625,0,1.69921875,0.7080078125t0.6591796875,1.9921875q0,0.078125-0.0048828125,0.234375l-3.8671875,0q0.048828125,0.8544921875,0.4833984375,1.30859375t1.083984375,0.4541015625q0.4833984375,0,0.8251953125-0.25390625t0.5419921875-0.810546875l0.908203125,0.1123046875q-0.21484375,0.7958984375-0.7958984375,1.2353515625t-1.484375,0.439453125q-1.1376953125,0-1.80419921875-0.70068359375t-0.66650390625-1.96533203125z M95.244140625,4.9013671875l2.8955078125,0q-0.05859375-0.654296875-0.33203125-0.9814453125q-0.419921875-0.5078125-1.0888671875-0.5078125q-0.60546875,0-1.01806640625,0.4052734375t-0.45654296875,1.083984375z M102.5634765625,7.9921875q-0.009765625-0.3173828125,0.1025390625-0.6103515625q0.1806640625-0.4833984375,0.57861328125-0.9521484375t1.14990234375-1.083984375q1.1669921875-0.95703125,1.5771484375-1.51611328125t0.41015625-1.05712890625q0-0.5224609375-0.37353515625-0.88134765625t-0.97412109375-0.35888671875q-0.634765625,0-1.015625,0.380859375t-0.3857421875,1.0546875l-0.9033203125-0.0927734375q0.0927734375-1.0107421875,0.6982421875-1.54052734375t1.6259765625-0.52978515625q1.0302734375,0,1.630859375,0.5712890625t0.6005859375,1.416015625q0,0.4296875-0.17578125,0.8447265625t-0.58349609375,0.8740234375t-1.35498046875,1.259765625q-0.791015625,0.6640625-1.015625,0.90087890625t-0.37109375,0.47607421875l3.5107421875,0l0,0.8447265625l-4.7314453125,0z M108.2373046875,4.4619140625q0-1.26953125,0.26123046875-2.04345703125t0.7763671875-1.19384765625t1.29638671875-0.419921875q0.576171875,0,1.0107421875,0.23193359375t0.7177734375,0.6689453125t0.4443359375,1.064453125t0.1611328125,1.69189453125q0,1.259765625-0.2587890625,2.03369140625t-0.77392578125,1.1962890625t-1.30126953125,0.42236328125q-1.03515625,0-1.6259765625-0.7421875q-0.7080078125-0.8935546875-0.7080078125-2.91015625z M109.140625,4.4619140625q0,1.7626953125,0.41259765625,2.34619140625t1.01806640625,0.58349609375t1.01806640625-0.5859375t0.41259765625-2.34375q0-1.767578125-0.41259765625-2.3486328125t-1.02783203125-0.5810546875q-0.60546875,0-0.966796875,0.5126953125q-0.4541015625,0.654296875-0.4541015625,2.4169921875z M113.6865234375,7.9921875q-0.009765625-0.3173828125,0.1025390625-0.6103515625q0.1806640625-0.4833984375,0.57861328125-0.9521484375t1.14990234375-1.083984375q1.1669921875-0.95703125,1.5771484375-1.51611328125t0.41015625-1.05712890625q0-0.5224609375-0.37353515625-0.88134765625t-0.97412109375-0.35888671875q-0.634765625,0-1.015625,0.380859375t-0.3857421875,1.0546875l-0.9033203125-0.0927734375q0.0927734375-1.0107421875,0.6982421875-1.54052734375t1.6259765625-0.52978515625q1.0302734375,0,1.630859375,0.5712890625t0.6005859375,1.416015625q0,0.4296875-0.17578125,0.8447265625t-0.58349609375,0.8740234375t-1.35498046875,1.259765625q-0.791015625,0.6640625-1.015625,0.90087890625t-0.37109375,0.47607421875l3.5107421875,0l0,0.8447265625l-4.7314453125,0z M119.775390625,9.0322265625q0.2783203125-0.1220703125,0.41015625-0.35888671875t0.146484375-0.68115234375l-0.498046875,0l0-1.0009765625l1.0009765625,0l0,1.0009765625q0,0.5517578125-0.1953125,0.89111328125t-0.6201171875,0.52490234375z"/></svg>
