<?xml version="1.0" encoding="UTF-8" standalone="no"?>
<svg width="15px" height="12px" viewBox="0 0 15 12" version="1.1" xmlns="http://www.w3.org/2000/svg" xmlns:xlink="http://www.w3.org/1999/xlink" xmlns:sketch="http://www.bohemiancoding.com/sketch/ns">
    <!-- Generator: Sketch 3.3.3 (12081) - http://www.bohemiancoding.com/sketch -->
    <title>Slice 1</title>
    <desc>Created with Sketch.</desc>
    <defs/>
    <g id="Page-1" stroke="none" stroke-width="1" fill="none" fill-rule="evenodd" sketch:type="MSPage">
        <g id="camera" sketch:type="MSLayerGroup" fill="rgb(34, 34, 34)">
            <g id="Page-1" sketch:type="MSShapeGroup">
                <g id="camera">
                    <g id="Page-1">
                        <path d="M2.59873724,2 L1.99188419,2 C0.893397331,2 0,2.89525812 0,3.99961498 L0,10.000385 C0,11.1125667 0.891796927,12 1.99188419,12 L13.0081158,12 C14.1066027,12 15,11.1047419 15,10.000385 L15,3.99961498 C15,2.88743329 14.1082031,2 13.0081158,2 L12.4157839,2 L12.4078386,1.96178176 C12.18106,0.870933533 11.1057373,0 10.0026083,0 L4.9973917,0 C3.89585781,0 2.82378152,0.878319609 2.60640502,1.96178176 L2.59873724,2 Z M7.5,10 C9.43299662,10 11,8.43299662 11,6.5 C11,4.56700338 9.43299662,3 7.5,3 C5.56700338,3 4,4.56700338 4,6.5 C4,8.43299662 5.56700338,10 7.5,10 Z M7.5,9 C6.11928813,9 5,7.88071187 5,6.5 C5,5.11928813 6.11928813,4 7.5,4 C8.88071187,4 10,5.11928813 10,6.5 C10,7.88071187 8.88071187,9 7.5,9 L7.5,9 Z" id="Rectangle-2"/>
                    </g>
                </g>
            </g>
        </g>
    </g>
</svg>