<?xml version="1.0" encoding="UTF-8" standalone="no"?>
<svg width="16px" height="16px" viewBox="0 0 653 361" fill="none" xmlns="http://www.w3.org/2000/svg">
    <rect width="653" height="361" fill="rgb(34, 34, 34)" fill-opacity="0.04"/>
    <path fill-rule="evenodd" clip-rule="evenodd" d="M158.5 146.502L489 146.5C508.054 146.5 523.5 161.946 523.5 181C523.5 200.054 508.054 215.5 489 215.5L158.5 215.502C139.446 215.502 124 200.056 124 181.002C124 161.948 139.446 146.502 158.5 146.502Z" fill="rgb(34, 34, 34)"/>
    <path fill-rule="evenodd" clip-rule="evenodd" d="M123 48C123 31.4315 136.431 18 153 18H270C286.569 18 300 31.4315 300 48C300 64.5685 286.569 78 270 78H153C136.431 78 123 64.5685 123 48Z" fill="rgb(34, 34, 34)"/>
    <path fill-rule="evenodd" clip-rule="evenodd" d="M520 313C520 329.569 506.569 343 490 343L373 343C356.431 343 343 329.569 343 313C343 296.431 356.431 283 373 283L490 283C506.569 283 520 296.431 520 313Z" fill="rgb(34, 34, 34)"/>
    <path fill-rule="evenodd" clip-rule="evenodd" d="M123 313C123 296.431 136.431 283 153 283H270C286.569 283 300 296.431 300 313C300 329.569 286.569 343 270 343H153C136.431 343 123 329.569 123 313Z" fill="rgb(34, 34, 34)"/>
    <path fill-rule="evenodd" clip-rule="evenodd" d="M520 48C520 64.5685 506.569 78 490 78L373 78C356.431 78 343 64.5685 343 48C343 31.4314 356.431 18 373 18L490 18C506.569 18 520 31.4315 520 48Z" fill="rgb(34, 34, 34)"/>
    <path fill-rule="evenodd" clip-rule="evenodd" d="M162.5 78C105.891 78 60 123.891 60 180.5C60 237.109 105.891 283 162.5 283C179.069 283 192.5 296.431 192.5 313C192.5 329.569 179.069 343 162.5 343C72.7537 343 0 270.246 0 180.5C0 90.7537 72.7537 18 162.5 18C179.069 18 192.5 31.4315 192.5 48C192.5 64.5685 179.069 78 162.5 78Z" fill="rgb(34, 34, 34)"/>
    <path fill-rule="evenodd" clip-rule="evenodd" d="M486.5 283C543.109 283 589 237.109 589 180.5C589 123.891 543.109 78 486.5 78C469.931 78 456.5 64.5685 456.5 48C456.5 31.4314 469.931 18 486.5 18C576.246 18 649 90.7537 649 180.5C649 270.246 576.246 343 486.5 343C469.931 343 456.5 329.569 456.5 313C456.5 296.431 469.931 283 486.5 283Z" fill="rgb(34, 34, 34)"/>
</svg>