<?xml version="1.0" encoding="UTF-8"?>
<svg width="16px" height="16px" viewBox="0 0 16 16" version="1.1" xmlns="http://www.w3.org/2000/svg" xmlns:xlink="http://www.w3.org/1999/xlink">
    <!-- Generator: Sketch 43.1 (39012) - http://www.bohemiancoding.com/sketch -->
    <title>Rectangle 8</title>
    <desc>Created with Sketch.</desc>
    <defs/>
    <g id="Page-1" stroke="none" stroke-width="1" fill="none" fill-rule="evenodd">
        <path d="M15.9784369,13.3248936 C15.9982325,13.2486451 15.991202,13.0825119 16,13 L16,3 C16,2.9174881 16.008798,3.0091364 15.9784369,2.69337917 L8.00879801,11.0091364 L0.00879801485,2.69337917 C-0.0109975186,2.76962773 -6.15479889e-15,2.9174881 -6.15479889e-15,3 L-5.20417043e-18,13 C-4.77048956e-18,13.0825119 0.0193635617,13.2486451 0.0391590951,13.3248936 L5.02878703,8.1091425 L5.65640103,8.80913945 L0.667698457,13.9776076 C0.741122999,14.0091364 0.920544098,14 1,14 L15,14 C15.0794559,14 15.276473,13.9981645 15.3498976,13.9776076 L10.361195,8.79703184 L11.008798,8.14431789 L15.9784369,13.3248936 Z M1.00879801,2.0091364 L15.008798,2.0091364 C15.0882539,2.0091364 15.276473,1.9885795 15.3498976,2.0091364 L8,9.69999695 L0.667698457,2.0091364 C0.741122999,1.9885795 0.929342113,2.0091364 1.00879801,2.0091364 Z" id="Fill-1" fill="rgb(34, 34, 34)" fill-rule="nonzero"/>
    </g>
</svg>