<svg width="52" height="20" xmlns="http://www.w3.org/2000/svg"><g fill-rule="nonzero" fill="none"><rect fill="transparent" width="52" height="20" rx="5"/><path d="M25.146 14v-2.725h1.16c2.29 0 3.434-.963 3.434-2.888 0-1.86-1.092-2.79-3.275-2.79H22.85V14h2.296zm1.22-4.617h-1.22V7.496h1.26c.68 0 1.02.309 1.02.926 0 .316-.082.556-.246.718-.164.162-.436.243-.815.243zM33.295 14v-2.83h.933l1.37 2.83h2.602l-1.681-3.205c1.011-.465 1.517-1.285 1.517-2.461 0-.898-.271-1.58-.814-2.042-.543-.463-1.366-.694-2.467-.694H31V14h2.297zm1.366-4.67h-1.365V7.496h1.4c.324 0 .575.074.753.223.178.148.267.375.267.68 0 .3-.081.53-.243.69-.162.161-.433.241-.812.241zm8.461 4.805c.777 0 1.462-.175 2.054-.525a3.454 3.454 0 001.365-1.508c.318-.657.478-1.428.478-2.315s-.158-1.656-.472-2.308c-.315-.653-.765-1.15-1.35-1.495-.587-.343-1.27-.515-2.052-.515-.777 0-1.462.174-2.056.521a3.43 3.43 0 00-1.368 1.506c-.319.656-.478 1.428-.478 2.315 0 .886.158 1.657.475 2.311.316.654.767 1.153 1.353 1.497.586.344 1.27.516 2.051.516zm.023-2.033c-.472 0-.838-.196-1.098-.586-.26-.391-.39-.967-.39-1.729 0-.762.126-1.334.378-1.717s.614-.574 1.087-.574c.469 0 .833.195 1.093.586.26.39.39.967.39 1.729 0 .761-.127 1.334-.378 1.716-.252.383-.613.575-1.082.575z" fill="#333"/><path d="M10 16a6 6 0 100-12 6 6 0 000 12z" fill="#F50"/><path d="M10 12.207l-2.193 1.288c-.24.14-.385.043-.323-.232l.56-2.462L6.13 9.135c-.21-.182-.16-.35.123-.375l2.54-.234L9.8 6.208c.11-.253.287-.258.4 0l1.008 2.318 2.54.234c.277.025.337.19.123.375l-1.916 1.666.56 2.462c.062.269-.077.376-.322.232L10 12.207z" fill="#FFF"/></g></svg>
