<svg viewBox="0 0 143 64" xmlns="http://www.w3.org/2000/svg">
  <path fill="rgb(255, 255, 255)" fill-rule="nonzero" d="M142.984 44.993c-.601 10.71-9.54 19.042-20.265 18.893h-48.71a4.08 4.08 0 01-4.042-4.061V7.378a4.461 4.461 0 012.688-4.27S77.135 0 86.572 0a31.915 31.915 0 0116.377 4.5A32.41 32.41 0 01118.2 25.622c1.681-.476 3.42-.713 5.167-.706a19.503 19.503 0 0119.617 20.076zM63.885 10.695c1.468 17.788 2.536 34.012 0 51.742a1.582 1.582 0 01-3.146 0c-2.364-17.578-1.334-34.107 0-51.742a1.582 1.582 0 113.146 0zm-9.856 51.76a1.659 1.659 0 01-3.28 0 197.7 197.7 0 010-45.66 1.659 1.659 0 013.299 0 177.682 177.682 0 01-.02 45.66zm-9.876-47.203c1.602 16.3 2.326 30.903-.019 47.166a1.582 1.582 0 01-3.165 0c-2.268-16.053-1.506-31.076 0-47.166a1.601 1.601 0 013.184 0zM34.26 62.475a1.62 1.62 0 01-3.222 0 167.025 167.025 0 010-42.629 1.64 1.64 0 013.279 0 155.72 155.72 0 01-.057 42.629zm-9.876-31.972c2.498 11.058 1.373 20.819-.095 32.086a1.544 1.544 0 01-3.05 0c-1.335-11.115-2.44-21.104-.096-32.086a1.62 1.62 0 013.241 0zm-9.856-1.677c2.288 11.324 1.544 20.914-.057 32.276-.191 1.678-3.07 1.697-3.222 0-1.45-11.19-2.136-21.066-.057-32.276a1.678 1.678 0 013.336 0zm-9.952 5.49c2.402 7.512 1.582 13.612-.095 21.315a1.563 1.563 0 01-3.108 0c-1.449-7.55-2.04-13.784-.133-21.315a1.678 1.678 0 013.336 0z"/>
</svg>
