<svg width="16" height="16" viewBox="0 0 16 16" xmlns="http://www.w3.org/2000/svg"><title>sh-soundkick-gray</title><defs><path id="a" d="M8 16H0V0h16v16H8z"/></defs><path d="M5.3 11.396c-.926 0-1.714-.17-2.326-.8l.952-.952c.314.314.866.425 1.35.425.587 0 .867-.196.867-.544a.507.507 0 0 0-.119-.358c-.076-.076-.204-.136-.4-.161l-.73-.102c-.535-.076-.943-.255-1.215-.535-.28-.29-.575-.825-.575-1.343C3.104 5.922 4.124 5 5.5 5c.867 0 1.493.446 2.01.964l-.934.935C6.194 6.516 5.763 6.5 5.5 6.5c-.518 0-.801.34-.801.603 0 .076.025.187.119.28.076.077.203.153.416.179l.73.102c.544.076.935.246 1.19.5.323.315.45.765.45 1.327 0 1.232-1.03 1.905-2.304 1.905zM9.5 2v5.569l1.656-2.265H13l-2.113 2.855s.47.752.752 1.2c.289.45.564.641.982.641H13v1.336l-.531.001c-.902 0-1.446-.164-1.854-.788-.253-.403-1.115-1.71-1.115-1.71V11.3H8V2.025c-1.922-.001-3.26.462-4.409 1.322C1.934 4.587 2.001 6.231 2.001 8c0 1.77-.067 3.437 1.59 4.677C4.74 13.537 6.078 14 8 14c1.922 0 3.236-.463 4.385-1.323C14.04 11.437 14 9.77 14 8c0-1.77.041-3.413-1.615-4.653C11.57 2.738 10.639 2.187 9.5 2z" fill="#999" fill-rule="evenodd"/></svg>