<svg width="32" height="32" viewBox="0 0 32 32" xmlns="http://www.w3.org/2000/svg"><title>ic_weibo-32</title><g fill="none" fill-rule="evenodd"><path fill="#E6162D" d="M0 0h32v32H0z"/><g fill-rule="nonzero" fill="#FFF"><path d="M5.755 20.535c-.28-2.89 2.85-5.569 7.15-6.005 4.304-.437 8.019 1.554 8.295 4.44.283 2.89-2.9 5.597-7.2 6.03-4.303.423-7.966-1.58-8.245-4.465zm16.342-5.815c.416-1.067.451-2.02 0-2.68-.843-1.232-3.146-1.133-5.792 0 0 0-.832.37-.617-.3.405-1.339.39-2.546-.242-3.195-1.434-1.47-5.299.144-8.573 3.491C4.423 14.541 3 17.2 3 19.498c0 4.393 5.52 7.401 10.91 7.401 7.07 0 11.762-4.534 11.762-7.867.004-2.016-1.657-3.16-3.149-3.633-.365-.114-.617-.187-.426-.679zM27.218 7.358a6.782 6.782 0 0 0-6.549-2.167c-.538.117-.878.66-.764 1.206a.993.993 0 0 0 1.18.781 4.822 4.822 0 0 1 4.655 1.54 5.083 5.083 0 0 1 1.022 4.891 1.02 1.02 0 0 0 .642 1.28.99.99 0 0 0 1.252-.653v-.003c.731-2.307.269-4.943-1.438-6.875"/><path d="M21.408 8.725c-.463.1-.757.569-.66 1.042.1.473.201.773.66.67h.315a1.689 1.689 0 0 1 1.6.514c.405.462.516 1.154.34 1.704-.143.458.101.888.553 1.039a.854.854 0 0 0 1.08-.565 3.482 3.482 0 0 0-.7-3.351 3.296 3.296 0 0 0-3.188-1.053zM14.157 19.758c-.15.264-.484.389-.743.279-.258-.106-.337-.403-.19-.66.15-.257.47-.381.725-.279.258.096.351.393.208.66m-1.374 1.797c-.416.678-1.309.975-1.98.664-.66-.308-.857-1.097-.44-1.76.412-.66 1.273-.954 1.94-.668.674.297.889 1.078.48 1.764m1.564-4.803c-2.048-.547-4.361.498-5.25 2.343-.908 1.88-.03 3.97 2.037 4.653 2.144.707 4.669-.378 5.547-2.406.868-1.987-.215-4.03-2.334-4.59"/></g></g></svg>