<svg width="16" height="12" viewBox="0 0 16 12" fill="none" xmlns="http://www.w3.org/2000/svg"><path d="M6.70988 1.90966C7.10161 1.5182 7.10033 0.882647 6.70735 0.492436C6.31643 0.104265 5.68492 0.105115 5.29537 0.494666L0.497115 5.29295C0.106593 5.68347 0.106593 6.31663 0.497115 6.70716L5.29537 11.5054C5.68492 11.895 6.31646 11.8958 6.70738 11.5076C7.10034 11.1174 7.10168 10.4819 6.71 10.0904L5.29665 8.67784C4.76501 8.14648 4.17515 7.67675 3.53825 7.27755L2.7909 6.80914L2.83748 6.76255L3.79645 6.89955C4.26488 6.96646 4.73747 7.00005 5.21066 7.00005H15C15.5523 7.00005 16 6.55233 16 6.00005C16 5.44777 15.5523 5.00005 15 5.00005H5.21066C4.73747 5.00005 4.26488 5.03364 3.79645 5.10055L2.83748 5.23755L2.79062 5.19069L3.54101 4.72012C4.17694 4.32134 4.76594 3.85223 5.2969 3.32165L6.70988 1.90966Z" fill="white"/></svg>
