<svg xmlns="http://www.w3.org/2000/svg" width="159.836" height="135.232" viewBox="0 0 159.836 135.232">
  <g id="Group_61" data-name="Group 61" transform="translate(-243.35 -1179.35)">
    <g id="Group_51" data-name="Group 51" transform="translate(-256.026 886.099)" opacity="0.5">
      <path id="Path_221" data-name="Path 221" d="M658.562,406.027c0,5.581-3.688,11.161-11.062,15.419-14.75,8.516-38.663,8.516-53.412,0-7.375-4.258-11.062-9.838-11.062-15.418" fill="none" stroke="#fff" stroke-miterlimit="10" stroke-width="1.3"/>
      <ellipse id="Ellipse_1" data-name="Ellipse 1" cx="37.768" cy="21.805" rx="37.768" ry="21.805" transform="translate(583.026 293.901)" fill="none" stroke="#fff" stroke-miterlimit="10" stroke-width="1.3"/>
      <line id="Line_1" data-name="Line 1" y1="90.321" transform="translate(583.026 315.706)" fill="#fff" stroke="#fff" stroke-miterlimit="10" stroke-width="1.3"/>
      <line id="Line_2" data-name="Line 2" y2="90.321" transform="translate(658.562 315.706)" fill="#fff" stroke="#fff" stroke-miterlimit="10" stroke-width="1.3"/>
      <path id="Path_222" data-name="Path 222" d="M583.026,328.122c0,5.58,3.687,11.161,11.062,15.418,14.749,8.516,38.662,8.516,53.412,0,7.374-4.257,11.062-9.838,11.062-15.418" fill="none" stroke="#fff" stroke-miterlimit="10" stroke-width="1.3"/>
      <path id="Path_223" data-name="Path 223" d="M583.026,339.024c0,5.581,3.687,11.161,11.062,15.419,14.749,8.515,38.662,8.515,53.412,0,7.374-4.258,11.062-9.838,11.062-15.419" fill="none" stroke="#fff" stroke-miterlimit="10" stroke-width="1.3"/>
      <path id="Path_224" data-name="Path 224" d="M583.026,349.964c0,5.58,3.687,11.161,11.062,15.419,14.749,8.515,38.662,8.515,53.412,0,7.374-4.258,11.062-9.839,11.062-15.419" fill="none" stroke="#fff" stroke-miterlimit="10" stroke-width="1.3"/>
      <path id="Path_225" data-name="Path 225" d="M583.026,360.867c0,5.58,3.687,11.161,11.062,15.418,14.749,8.516,38.662,8.516,53.412,0,7.374-4.257,11.062-9.838,11.062-15.418" fill="none" stroke="#fff" stroke-miterlimit="10" stroke-width="1.3"/>
      <path id="Path_226" data-name="Path 226" d="M583.026,371.769c0,5.581,3.687,11.161,11.062,15.419,14.749,8.515,38.662,8.516,53.412,0,7.374-4.258,11.062-9.838,11.062-15.419" fill="none" stroke="#fff" stroke-miterlimit="10" stroke-width="1.3"/>
      <path id="Path_227" data-name="Path 227" d="M583.026,383.447c0,5.58,3.687,11.161,11.062,15.419,14.749,8.515,38.662,8.515,53.412,0,7.374-4.258,11.062-9.838,11.062-15.419" fill="none" stroke="#fff" stroke-miterlimit="10" stroke-width="1.3"/>
      <path id="Path_228" data-name="Path 228" d="M583.026,395.125c0,5.58,3.687,11.161,11.062,15.418,14.749,8.516,38.662,8.516,53.412,0,7.374-4.257,11.062-9.838,11.062-15.418" fill="none" stroke="#fff" stroke-miterlimit="10" stroke-width="1.3"/>
    </g>
    <g id="Group_52" data-name="Group 52" transform="translate(-449.998 921.489)" opacity="0.5">
      <ellipse id="Ellipse_2" data-name="Ellipse 2" cx="37.768" cy="21.805" rx="37.768" ry="21.805" transform="translate(693.998 337.511)" fill="none" stroke="#fff" stroke-miterlimit="10" stroke-width="1.3"/>
      <line id="Line_3" data-name="Line 3" y1="10.903" transform="translate(693.998 359.317)" fill="#fff" stroke="#fff" stroke-miterlimit="10" stroke-width="1.3"/>
      <line id="Line_4" data-name="Line 4" y1="10.903" transform="translate(769.534 359.317)" fill="#fff" stroke="#fff" stroke-miterlimit="10" stroke-width="1.3"/>
      <path id="Path_229" data-name="Path 229" d="M694,370.219c0,5.581,3.687,11.161,11.062,15.419,14.749,8.515,38.663,8.515,53.412,0,7.375-4.258,11.062-9.838,11.062-15.419" fill="none" stroke="#fff" stroke-miterlimit="10" stroke-width="1.3"/>
    </g>
  </g>
</svg>
