<svg xmlns="http://www.w3.org/2000/svg" width="243.698" height="178.158" viewBox="0 0 243.698 178.158">
  <g id="Group_108" data-name="Group 108" transform="translate(-1219.38 -601.135)">
    <g id="Group_105" data-name="Group 105">
      <g id="Group_65" data-name="Group 65" transform="translate(1245 601.785)" opacity="0.5">
        <g id="Group_95" data-name="Group 95" transform="translate(0)">
          <ellipse id="Ellipse_11" data-name="Ellipse 11" cx="13.837" cy="13.837" rx="13.837" ry="13.837" transform="translate(7.356)" fill="none" stroke="#fff" stroke-miterlimit="10" stroke-width="1.3"/>
          <path id="Path_230" data-name="Path 230" d="M92.762,406.408a22.217,22.217,0,0,1,42.385,0" transform="translate(-92.762 -359.094)" fill="none" stroke="#fff" stroke-miterlimit="10" stroke-width="1.3"/>
        </g>
      </g>
      <g id="Group_96" data-name="Group 96" transform="translate(1295.024 601.785)" opacity="0.5">
        <g id="Group_95-2" data-name="Group 95" transform="translate(0)">
          <ellipse id="Ellipse_11-2" data-name="Ellipse 11" cx="13.837" cy="13.837" rx="13.837" ry="13.837" transform="translate(7.356)" fill="none" stroke="#fff" stroke-miterlimit="10" stroke-width="1.3"/>
          <path id="Path_230-2" data-name="Path 230" d="M92.762,406.408a22.217,22.217,0,0,1,42.385,0" transform="translate(-92.762 -359.094)" fill="none" stroke="#fff" stroke-miterlimit="10" stroke-width="1.3"/>
        </g>
      </g>
      <g id="Group_97" data-name="Group 97" transform="translate(1345.048 601.785)" opacity="0.5">
        <g id="Group_95-3" data-name="Group 95" transform="translate(0)">
          <ellipse id="Ellipse_11-3" data-name="Ellipse 11" cx="13.837" cy="13.837" rx="13.837" ry="13.837" transform="translate(7.356)" fill="none" stroke="#fff" stroke-miterlimit="10" stroke-width="1.3"/>
          <path id="Path_230-3" data-name="Path 230" d="M92.762,406.408a22.217,22.217,0,0,1,42.385,0" transform="translate(-92.762 -359.094)" fill="none" stroke="#fff" stroke-miterlimit="10" stroke-width="1.3"/>
        </g>
      </g>
      <g id="Group_98" data-name="Group 98" transform="translate(1395.072 601.785)" opacity="0.5">
        <g id="Group_95-4" data-name="Group 95" transform="translate(0)">
          <ellipse id="Ellipse_11-4" data-name="Ellipse 11" cx="13.837" cy="13.837" rx="13.837" ry="13.837" transform="translate(7.356)" fill="none" stroke="#fff" stroke-miterlimit="10" stroke-width="1.3"/>
          <path id="Path_230-4" data-name="Path 230" d="M92.762,406.408a22.217,22.217,0,0,1,42.385,0" transform="translate(-92.762 -359.094)" fill="none" stroke="#fff" stroke-miterlimit="10" stroke-width="1.3"/>
        </g>
      </g>
    </g>
    <g id="Group_106" data-name="Group 106" transform="translate(0 130)">
      <g id="Group_65-2" data-name="Group 65" transform="translate(1245 601.785)" opacity="0.5">
        <g id="Group_95-5" data-name="Group 95" transform="translate(0)">
          <ellipse id="Ellipse_11-5" data-name="Ellipse 11" cx="13.837" cy="13.837" rx="13.837" ry="13.837" transform="translate(7.356)" fill="none" stroke="#fff" stroke-miterlimit="10" stroke-width="1.3"/>
          <path id="Path_230-5" data-name="Path 230" d="M92.762,406.408a22.217,22.217,0,0,1,42.385,0" transform="translate(-92.762 -359.094)" fill="none" stroke="#fff" stroke-miterlimit="10" stroke-width="1.3"/>
        </g>
      </g>
      <g id="Group_96-2" data-name="Group 96" transform="translate(1295.024 601.785)" opacity="0.5">
        <g id="Group_95-6" data-name="Group 95" transform="translate(0)">
          <ellipse id="Ellipse_11-6" data-name="Ellipse 11" cx="13.837" cy="13.837" rx="13.837" ry="13.837" transform="translate(7.356)" fill="none" stroke="#fff" stroke-miterlimit="10" stroke-width="1.3"/>
          <path id="Path_230-6" data-name="Path 230" d="M92.762,406.408a22.217,22.217,0,0,1,42.385,0" transform="translate(-92.762 -359.094)" fill="none" stroke="#fff" stroke-miterlimit="10" stroke-width="1.3"/>
        </g>
      </g>
      <g id="Group_97-2" data-name="Group 97" transform="translate(1345.048 601.785)" opacity="0.5">
        <g id="Group_95-7" data-name="Group 95" transform="translate(0)">
          <ellipse id="Ellipse_11-7" data-name="Ellipse 11" cx="13.837" cy="13.837" rx="13.837" ry="13.837" transform="translate(7.356)" fill="none" stroke="#fff" stroke-miterlimit="10" stroke-width="1.3"/>
          <path id="Path_230-7" data-name="Path 230" d="M92.762,406.408a22.217,22.217,0,0,1,42.385,0" transform="translate(-92.762 -359.094)" fill="none" stroke="#fff" stroke-miterlimit="10" stroke-width="1.3"/>
        </g>
      </g>
      <g id="Group_98-2" data-name="Group 98" transform="translate(1395.072 601.785)" opacity="0.5">
        <g id="Group_95-8" data-name="Group 95" transform="translate(0)">
          <ellipse id="Ellipse_11-8" data-name="Ellipse 11" cx="13.837" cy="13.837" rx="13.837" ry="13.837" transform="translate(7.356)" fill="none" stroke="#fff" stroke-miterlimit="10" stroke-width="1.3"/>
          <path id="Path_230-8" data-name="Path 230" d="M92.762,406.408a22.217,22.217,0,0,1,42.385,0" transform="translate(-92.762 -359.094)" fill="none" stroke="#fff" stroke-miterlimit="10" stroke-width="1.3"/>
        </g>
      </g>
    </g>
    <g id="Group_104" data-name="Group 104">
      <g id="Group_102" data-name="Group 102" transform="translate(1220 666.785)" opacity="0.5">
        <g id="Group_95-9" data-name="Group 95" transform="translate(0)">
          <ellipse id="Ellipse_11-9" data-name="Ellipse 11" cx="13.837" cy="13.837" rx="13.837" ry="13.837" transform="translate(7.356)" fill="none" stroke="#fff" stroke-miterlimit="10" stroke-width="1.3"/>
          <path id="Path_230-9" data-name="Path 230" d="M92.762,406.408a22.217,22.217,0,0,1,42.385,0" transform="translate(-92.762 -359.094)" fill="none" stroke="#fff" stroke-miterlimit="10" stroke-width="1.3"/>
        </g>
      </g>
      <g id="Group_101" data-name="Group 101" transform="translate(1270.024 666.785)" opacity="0.5">
        <g id="Group_95-10" data-name="Group 95" transform="translate(0)">
          <ellipse id="Ellipse_11-10" data-name="Ellipse 11" cx="13.837" cy="13.837" rx="13.837" ry="13.837" transform="translate(7.356)" fill="none" stroke="#fff" stroke-miterlimit="10" stroke-width="1.3"/>
          <path id="Path_230-10" data-name="Path 230" d="M92.762,406.408a22.217,22.217,0,0,1,42.385,0" transform="translate(-92.762 -359.094)" fill="none" stroke="#fff" stroke-miterlimit="10" stroke-width="1.3"/>
        </g>
      </g>
      <g id="Group_100" data-name="Group 100" transform="translate(1320.048 666.785)" opacity="0.5">
        <g id="Group_95-11" data-name="Group 95" transform="translate(0)">
          <ellipse id="Ellipse_11-11" data-name="Ellipse 11" cx="13.837" cy="13.837" rx="13.837" ry="13.837" transform="translate(7.356)" fill="none" stroke="#fff" stroke-miterlimit="10" stroke-width="1.3"/>
          <path id="Path_230-11" data-name="Path 230" d="M92.762,406.408a22.217,22.217,0,0,1,42.385,0" transform="translate(-92.762 -359.094)" fill="none" stroke="#fff" stroke-miterlimit="10" stroke-width="1.3"/>
        </g>
      </g>
      <g id="Group_99" data-name="Group 99" transform="translate(1370.072 666.785)" opacity="0.5">
        <g id="Group_95-12" data-name="Group 95" transform="translate(0)">
          <ellipse id="Ellipse_11-12" data-name="Ellipse 11" cx="13.837" cy="13.837" rx="13.837" ry="13.837" transform="translate(7.356)" fill="none" stroke="#fff" stroke-miterlimit="10" stroke-width="1.3"/>
          <path id="Path_230-12" data-name="Path 230" d="M92.762,406.408a22.217,22.217,0,0,1,42.385,0" transform="translate(-92.762 -359.094)" fill="none" stroke="#fff" stroke-miterlimit="10" stroke-width="1.3"/>
        </g>
      </g>
      <g id="Group_103" data-name="Group 103" transform="translate(1420.072 666.785)" opacity="0.5">
        <g id="Group_95-13" data-name="Group 95" transform="translate(0)">
          <ellipse id="Ellipse_11-13" data-name="Ellipse 11" cx="13.837" cy="13.837" rx="13.837" ry="13.837" transform="translate(7.356)" fill="none" stroke="#fff" stroke-miterlimit="10" stroke-width="1.3"/>
          <path id="Path_230-13" data-name="Path 230" d="M92.762,406.408a22.217,22.217,0,0,1,42.385,0" transform="translate(-92.762 -359.094)" fill="none" stroke="#fff" stroke-miterlimit="10" stroke-width="1.3"/>
        </g>
      </g>
    </g>
  </g>
</svg>
