<svg xmlns="http://www.w3.org/2000/svg" width="159.026" height="159.03" viewBox="0 0 159.026 159.03">
  <g id="Group_75" data-name="Group 75" transform="translate(-555.492 -339.062)" opacity="0.5">
    <path id="Path_246" data-name="Path 246" d="M635.005,497.442a78.865,78.865,0,1,1,78.863-78.865A78.953,78.953,0,0,1,635.005,497.442Z" transform="translate(0 0)" fill="none" stroke="#fff" stroke-miterlimit="10" stroke-width="1.3"/>
    <path id="Path_247" data-name="Path 247" d="M624.726,465.546a57.247,57.247,0,1,1,57.245-57.25A57.312,57.312,0,0,1,624.726,465.546Z" transform="translate(10.279 10.28)" fill="none" stroke="#fff" stroke-miterlimit="10" stroke-width="1.3"/>
    <path id="Path_248" data-name="Path 248" d="M614.447,433.648a35.629,35.629,0,1,1,35.626-35.632A35.671,35.671,0,0,1,614.447,433.648Z" transform="translate(20.558 20.559)" fill="none" stroke="#fff" stroke-miterlimit="10" stroke-width="1.3"/>
    <path id="Path_249" data-name="Path 249" d="M604.167,401.75a14.01,14.01,0,1,1,14.01-14.013A14.027,14.027,0,0,1,604.167,401.75Z" transform="translate(30.838 30.839)" fill="none" stroke="#fff" stroke-miterlimit="10" stroke-width="1.3"/>
  </g>
</svg>
