<svg xmlns="http://www.w3.org/2000/svg" viewBox="0 0 21 21"><rect width="21" height="21" fill="none"/><path d="M17.7773,10.1221,17.123,9.868a6.5933,6.5933,0,0,0-.1787-1.023l.5274-.46a.4175.4175,0,0,0-.2656-.7321l-.6988-.0147c-.0742-.1559-.1489-.3117-.2368-.4639V7.1743c-.0879-.1522-.1851-.2953-.2827-.4378l.3374-.6116a.4177.4177,0,0,0-.5-.5969l-.6616.2255a6.586,6.586,0,0,0-.7959-.6673l.1084-.6936a.4174.4174,0,0,0-.6743-.39l-.5489.4421a6.7357,6.7357,0,0,0-.97-.3559l-.1357-.6918A.4175.4175,0,0,0,11.38,3.262l-.3643.6029a6.6677,6.6677,0,0,0-1.0278.0041L9.62,3.259a.4177.4177,0,0,0-.7676.135l-.1367.6982a6.58,6.58,0,0,0-.9673.3451L7.2,3.9935a.4173.4173,0,0,0-.6748.389l.1089.6969a6.5584,6.5584,0,0,0-.7842.6639l-.6724-.2312a.4176.4176,0,0,0-.5014.5963l.3432.6231A6.6544,6.6544,0,0,0,4.5,7.62l-.7036.0126a.4176.4176,0,0,0-.2676.7316l.5308.4642a6.6389,6.6389,0,0,0-.1783,1.0176l-.6577.2531a.4175.4175,0,0,0-.0009.779l.6543.254a6.5946,6.5946,0,0,0,.1787,1.0231l-.5274.4594a.4176.4176,0,0,0,.2656.7322l.6988.0147c.0742.1561.1489.3121.2368.4644s.19.2871.2876.4289l-.3423.62a.4176.4176,0,0,0,.5.5969l.6543-.223a6.5871,6.5871,0,0,0,.8037.6621l-.1089.6964a.4174.4174,0,0,0,.6743.39l.5542-.4461a6.6757,6.6757,0,0,0,.9639.3564l.1362.6953a.4175.4175,0,0,0,.7671.1353l.3706-.6134c.1734.0136.3462.0337.521.0337.166,0,.3321-.0194.4981-.0319l.37.6147a.4177.4177,0,0,0,.7676-.135l.1362-.6944a6.6363,6.6363,0,0,0,.96-.3558l.5571.4507a.4173.4173,0,0,0,.6748-.3891l-.1089-.6968a6.5677,6.5677,0,0,0,.7842-.6639l.6724.2312a.4176.4176,0,0,0,.5014-.5964l-.3432-.623A6.667,6.667,0,0,0,16.5,13.38l.7036-.0126a.4176.4176,0,0,0,.2676-.7317l-.5308-.4641a6.641,6.641,0,0,0,.1783-1.0176l.6577-.2532A.4174.4174,0,0,0,17.7773,10.1221ZM10.49,4.9414a5.5376,5.5376,0,0,1,5.541,5.063l-3.644-.0031a1.9186,1.9186,0,0,0-.189-.48,1.9579,1.9579,0,0,0-2.207-.9065L8.1738,5.462A5.52,5.52,0,0,1,10.49,4.9414Zm-.2138,6.3894A.86.86,0,0,1,10.499,9.64a.8667.8667,0,0,1,.2246.03.8607.8607,0,0,1,.2061,1.576A.8626.8626,0,0,1,10.2764,11.3308ZM7.3027,5.9547l1.8213,3.16a1.9476,1.9476,0,0,0-.0053,2.7745L7.2979,15.0379a5.5444,5.5444,0,0,1,.0048-9.0832Zm5.9737,9.3622a5.5585,5.5585,0,0,1-5.1128.2215l1.8218-3.15a1.9527,1.9527,0,0,0,2.4082-1.3866l3.6372.0031A5.5522,5.5522,0,0,1,13.2764,15.3169Z" fill="#06c"/></svg>