<svg xmlns="http://www.w3.org/2000/svg" viewBox="0 0 21 21">
  <title>bag_tiny@1x</title>
  <g>
    <rect width="21" height="21" fill="none"/>
    <path d="M14.934,5.017H13.828A3.413,3.413,0,0,0,10.5,2,3.413,3.413,0,0,0,7.172,5.017H6.066A2.058,2.058,0,0,0,4.011,7.072v7.865a2.058,2.058,0,0,0,2.056,2.055h8.867a2.058,2.058,0,0,0,2.056-2.055V7.072A2.058,2.058,0,0,0,14.934,5.017ZM10.5,3a2.413,2.413,0,0,1,2.328,2.017H8.172A2.413,2.413,0,0,1,10.5,3Zm5.511,11.938a1.079,1.079,0,0,1-1.077,1.078H6.066a1.079,1.079,0,0,1-1.077-1.078V7.072A1.079,1.079,0,0,1,6.066,5.995h8.867a1.079,1.079,0,0,1,1.077,1.078Z" fill="#06c"/>
  </g>
</svg>
