<?xml version="1.0" encoding="utf-8"?>
<!-- Generator: Adobe Illustrator 26.0.2, SVG Export Plug-In . SVG Version: 6.00 Build 0)  -->
<svg version="1.1" id="Layer_1" xmlns="http://www.w3.org/2000/svg" xmlns:xlink="http://www.w3.org/1999/xlink" x="0px" y="0px"
	 width="21px" height="21px" viewBox="0 0 21 21" style="enable-background:new 0 0 21 21;" xml:space="preserve">
<style type="text/css">
	.st0{fill-rule:evenodd;clip-rule:evenodd;fill:#0066CC;}
</style>
<g id="Page-1">
	<g id="Opt-1---Cookied-state---Empty-bag" transform="translate(-1085.000000, -183.000000)">
		<g id="Saved-Pre-order" transform="translate(1080.000000, 169.000000)">
			<g id="Group" transform="translate(-2.000000, 10.000000)">
				<g id="Group-5" transform="translate(7.000000, 4.000000)">
					<path id="Fill-1" class="st0" d="M14.75,16.75c0,0.689-0.561,1.25-1.25,1.25h-6c-0.689,0-1.25-0.561-1.25-1.25V4.25
						C6.25,3.561,6.811,3,7.5,3H8v0.498C8,3.775,8.225,4,8.503,4h3.994C12.775,4,13,3.775,13,3.498V3h0.5
						c0.689,0,1.25,0.561,1.25,1.25V16.75z M13.5,2h-6C6.26,2,5.25,3.009,5.25,4.25v12.5C5.25,17.991,6.26,19,7.5,19h6
						c1.24,0,2.25-1.009,2.25-2.25V4.25C15.75,3.009,14.74,2,13.5,2L13.5,2z"/>
					<path id="Fill-3" class="st0" d="M12.625,16h-4.25C8.168,16,8,16.168,8,16.375s0.168,0.375,0.375,0.375h4.25
						c0.207,0,0.375-0.168,0.375-0.375S12.832,16,12.625,16"/>
				</g>
			</g>
		</g>
	</g>
</g>
</svg>
