<svg xmlns="http://www.w3.org/2000/svg" viewBox="0 0 21 21"><rect width="21" height="21" fill="none"/><path d="M12.8,4.25A1.2016,1.2016,0,0,1,14,5.45L14,16.2679l-2.7378-2.71a1.0845,1.0845,0,0,0-1.5244.001L7,16.2686V5.45a1.2016,1.2016,0,0,1,1.2-1.2h4.6m0-1H8.2A2.2,2.2,0,0,0,6,5.45V17.0381a.7679.7679,0,0,0,.1655.5218.5726.5726,0,0,0,.4556.19.6443.6443,0,0,0,.38-.1279,5.0078,5.0078,0,0,0,.5244-.4665L10.4409,14.27a.0843.0843,0,0,1,.1182,0l2.9155,2.8859a6.364,6.364,0,0,0,.521.4631.6285.6285,0,0,0,.3833.1313.5726.5726,0,0,0,.4556-.19A.7679.7679,0,0,0,15,17.0381V5.45a2.2,2.2,0,0,0-2.2-2.2Z" fill="#06c"/></svg>