<svg width="24" height="24" viewBox="0 0 24 24" fill="none" xmlns="http://www.w3.org/2000/svg">
    <rect width="24" height="24" rx="5" fill="#212121" fill-opacity=".5"/>
    <path d="M13.604 5c.76.005 1.371.395 1.727 1.096.163.32.434.892.655 1.36.055.117.113.154.177.154 1.87 0 3.393 1.52 3.393 3.389v4.612A3.395 3.395 0 0 1 16.163 19h-5.49a.583.583 0 1 1 0-1.165h5.49a2.228 2.228 0 0 0 2.226-2.224v-4.612a2.227 2.227 0 0 0-2.226-2.224c-.513 0-.986-.299-1.204-.761a71.783 71.783 0 0 0-.668-1.392c-.16-.313-.373-.454-.692-.457H9.952c-.314.003-.528.144-.687.458-.096.19-.232.472-.372.766l-.168.355-.082.173-.046.097a1.337 1.337 0 0 1-1.204.761A2.228 2.228 0 0 0 5.167 11v4.612c0 1.226.998 2.224 2.226 2.224h.58a.583.583 0 1 1 0 1.165h-.58A3.395 3.395 0 0 1 4 15.61V11a3.395 3.395 0 0 1 3.393-3.39.164.164 0 0 0 .15-.093l.046-.097c.217-.46.477-1.012.635-1.323.356-.701.968-1.09 1.723-1.096h3.657zm-1.826 4.975c.813 0 1.58.318 2.158.896.58.579.898 1.347.898 2.161a2.997 2.997 0 0 1-.887 2.149 3.04 3.04 0 0 1-2.169.906c-.819-.001-1.585-.32-2.163-.9a3.035 3.035 0 0 1-.892-2.16c0-.315.049-.624.143-.923a.583.583 0 0 1 1.113.353 1.875 1.875 0 0 0 .464 1.907 1.882 1.882 0 0 0 2.677-.005c.356-.36.55-.829.547-1.323 0-.508-.197-.982-.556-1.34a1.874 1.874 0 0 0-1.745-.511.581.581 0 1 1-.254-1.136c.217-.05.44-.074.665-.074h.001zm4.021.107a.622.622 0 0 1 .443 0 .64.64 0 0 1 .187.125.662.662 0 0 1 .132.194.558.558 0 0 1-.132.629.629.629 0 0 1-.187.131.553.553 0 0 1-.225.04.581.581 0 0 1-.583-.583c0-.07.015-.148.046-.217a.83.83 0 0 1 .124-.194.81.81 0 0 1 .195-.126z" fill="#fff"/>
</svg>
