<svg width="167" height="30" viewBox="0 0 167 30" fill="none" xmlns="http://www.w3.org/2000/svg">
    <path fill-rule="evenodd" clip-rule="evenodd" d="M117 16.5c.938-2-.1-4.6 1.5-7 1.6-2.4.667-3.667 0-4 1.31.328 3.618 1.75 2.56 4.834l.127-.064c1.665-2.112 4.011-6.573 1.313-9.27 2.5.833 7.6 4.3 8 11.5.5-.667 1.4-2.4 1-4 .5 1.5-.562 5.5.5 8a.69.69 0 0 1-.014.046 7.5 7.5 0 1 1-14.968-.067L117 16.5zm11 .5a3.5 3.5 0 1 1-7 0 3.5 3.5 0 0 1 7 0z" fill="url(#nsyn8rs24a)"/>
    <path d="M8.754 4.938V22H5.836V4.937h2.918zm5.355 0V7.28H.527V4.938H14.11zm3.961 6.796V22h-2.824V9.32h2.695l.13 2.414zm3.88-2.496-.024 2.625a5.503 5.503 0 0 0-.563-.07 7.31 7.31 0 0 0-.586-.023c-.484 0-.91.07-1.277.21a2.408 2.408 0 0 0-.926.586c-.242.25-.43.555-.562.914-.133.36-.211.762-.235 1.207l-.644.047c0-.796.078-1.535.234-2.214.156-.68.39-1.278.703-1.793.32-.516.72-.918 1.196-1.207.484-.29 1.043-.434 1.675-.434.172 0 .356.016.551.047.203.031.356.066.457.105zm7.124 12.996c-.937 0-1.785-.152-2.543-.457a5.615 5.615 0 0 1-1.922-1.3 5.767 5.767 0 0 1-1.207-1.957 6.854 6.854 0 0 1-.422-2.426v-.469c0-.992.145-1.89.434-2.695.29-.805.691-1.492 1.207-2.063a5.187 5.187 0 0 1 1.828-1.324 5.685 5.685 0 0 1 2.285-.457c.907 0 1.7.152 2.38.457.679.305 1.241.734 1.687 1.289.453.547.789 1.2 1.008 1.957.226.758.34 1.594.34 2.508v1.207h-9.797v-2.027h7.007v-.223a3.965 3.965 0 0 0-.304-1.43 2.43 2.43 0 0 0-.832-1.078c-.375-.273-.875-.41-1.5-.41-.47 0-.887.101-1.254.305-.36.195-.66.48-.903.855-.242.375-.43.828-.562 1.36a7.638 7.638 0 0 0-.188 1.769v.469c0 .554.075 1.07.223 1.547.156.468.383.879.68 1.23.297.352.656.629 1.078.832.422.195.902.293 1.441.293.68 0 1.285-.137 1.817-.41.53-.273.992-.66 1.383-1.16l1.488 1.441a5.806 5.806 0 0 1-1.067 1.149c-.437.359-.972.652-1.605.879-.625.226-1.352.34-2.18.34zm10.078-10.207V22h-2.824V9.32h2.66l.164 2.707zm-.504 3.164-.914-.011c.008-.899.133-1.723.375-2.473.25-.75.594-1.395 1.032-1.934a4.551 4.551 0 0 1 1.593-1.242c.618-.297 1.305-.445 2.063-.445.61 0 1.16.086 1.652.258.5.164.926.433 1.278.808.359.375.632.864.82 1.465.187.594.281 1.324.281 2.192V22h-2.836v-8.203c0-.61-.09-1.09-.27-1.442a1.507 1.507 0 0 0-.761-.761c-.328-.156-.738-.235-1.23-.235-.485 0-.919.102-1.301.305-.383.203-.707.48-.973.832a4.03 4.03 0 0 0-.598 1.219c-.14.46-.21.953-.21 1.476zm18.797 4.184V4h2.836v18h-2.566l-.27-2.625zm-8.25-3.574v-.246c0-.961.114-1.836.34-2.625.227-.797.555-1.48.985-2.051.43-.578.953-1.02 1.57-1.324.617-.313 1.312-.47 2.086-.47.765 0 1.437.15 2.015.446a4.19 4.19 0 0 1 1.477 1.278c.406.546.73 1.203.973 1.968.242.758.414 1.602.515 2.532v.785a12.674 12.674 0 0 1-.515 2.484c-.243.75-.567 1.399-.973 1.945a4.204 4.204 0 0 1-1.488 1.266c-.578.297-1.254.445-2.028.445-.765 0-1.457-.16-2.074-.48a4.586 4.586 0 0 1-1.559-1.348c-.43-.578-.757-1.258-.984-2.039a9.266 9.266 0 0 1-.34-2.566zm2.825-.246v.246c0 .578.05 1.117.152 1.617.11.5.277.941.504 1.324.226.375.52.672.879.89.367.212.804.317 1.312.317.64 0 1.168-.14 1.582-.422a2.88 2.88 0 0 0 .973-1.136 5.285 5.285 0 0 0 .492-1.618v-2.12a5.181 5.181 0 0 0-.293-1.29 3.448 3.448 0 0 0-.574-1.043 2.418 2.418 0 0 0-.902-.703c-.352-.172-.77-.258-1.254-.258-.516 0-.953.11-1.313.329-.36.218-.656.519-.89.902a4.443 4.443 0 0 0-.504 1.336 7.725 7.725 0 0 0-.164 1.629zM66.257 9.32V22h-2.836V9.32h2.836zm-3.024-3.328c0-.43.141-.785.422-1.066.29-.29.688-.434 1.196-.434.5 0 .894.145 1.183.434.29.281.434.636.434 1.066 0 .422-.145.774-.434 1.055-.289.281-.683.422-1.183.422-.508 0-.907-.14-1.196-.422a1.431 1.431 0 0 1-.422-1.055zm8.918 6.035V22h-2.824V9.32h2.66l.164 2.707zm-.504 3.164-.914-.011c.008-.899.133-1.723.375-2.473.25-.75.594-1.395 1.032-1.934a4.551 4.551 0 0 1 1.593-1.242c.618-.297 1.305-.445 2.063-.445.61 0 1.16.086 1.652.258.5.164.926.433 1.278.808.359.375.632.864.82 1.465.187.594.281 1.324.281 2.192V22h-2.836v-8.203c0-.61-.09-1.09-.27-1.442a1.507 1.507 0 0 0-.761-.761c-.328-.156-.738-.235-1.23-.235-.485 0-.918.102-1.301.305-.383.203-.707.48-.973.832a4.03 4.03 0 0 0-.598 1.219c-.14.46-.21.953-.21 1.476zm19.184-5.87h2.566v12.327c0 1.141-.242 2.11-.726 2.907a4.67 4.67 0 0 1-2.028 1.816c-.867.422-1.87.633-3.011.633-.485 0-1.024-.07-1.617-.211a6.63 6.63 0 0 1-1.711-.68 4.242 4.242 0 0 1-1.371-1.207l1.324-1.664c.453.54.953.934 1.5 1.184.547.25 1.12.375 1.723.375.648 0 1.199-.121 1.652-.363a2.454 2.454 0 0 0 1.066-1.043c.25-.461.375-1.024.375-1.688v-9.516l.258-2.87zm-8.613 6.48v-.246c0-.961.117-1.836.351-2.625.235-.797.57-1.48 1.008-2.051a4.397 4.397 0 0 1 1.594-1.324c.625-.313 1.332-.47 2.121-.47.82 0 1.52.15 2.098.446a3.962 3.962 0 0 1 1.465 1.278c.39.546.695 1.203.913 1.968.227.758.395 1.602.504 2.532v.785a12.674 12.674 0 0 1-.515 2.484c-.242.75-.563 1.399-.961 1.945-.399.547-.89.97-1.477 1.266-.578.297-1.261.445-2.05.445-.774 0-1.473-.16-2.098-.48a4.773 4.773 0 0 1-1.594-1.348 6.383 6.383 0 0 1-1.008-2.039 8.977 8.977 0 0 1-.351-2.566zm2.824-.246v.246c0 .578.055 1.117.164 1.617.117.5.293.941.527 1.324.243.375.547.672.914.89.375.212.817.317 1.325.317.664 0 1.207-.14 1.629-.422.43-.28.757-.66.984-1.136a5.75 5.75 0 0 0 .492-1.618v-2.12a5.181 5.181 0 0 0-.293-1.29 3.45 3.45 0 0 0-.574-1.043 2.395 2.395 0 0 0-.914-.703c-.367-.172-.8-.258-1.3-.258-.509 0-.95.11-1.325.329a2.69 2.69 0 0 0-.926.902 4.46 4.46 0 0 0-.527 1.336 7.23 7.23 0 0 0-.176 1.629zm24-10.617V22h-2.918V4.937h2.918zm5.355 0V7.28h-13.582V4.938h13.582z" fill="#212121"/>
    <path fill="#2C72AE" d="M0 28h20v2H0z"/>
    <path d="M138.289 11.758v15.117h-2.824V9.32h2.601l.223 2.438zm8.262 3.785v.246c0 .922-.11 1.777-.328 2.566a6.27 6.27 0 0 1-.95 2.051 4.365 4.365 0 0 1-1.535 1.348c-.609.32-1.312.48-2.109.48-.789 0-1.481-.144-2.074-.433a4.26 4.26 0 0 1-1.489-1.254 6.815 6.815 0 0 1-.984-1.899 12.23 12.23 0 0 1-.516-2.414v-.949c.102-.93.274-1.773.516-2.531.25-.758.578-1.41.984-1.957a4.211 4.211 0 0 1 1.489-1.266c.586-.297 1.269-.445 2.05-.445.797 0 1.504.156 2.122.469a4.269 4.269 0 0 1 1.558 1.312c.422.563.738 1.242.949 2.04.211.788.317 1.667.317 2.636zm-2.824.246v-.246c0-.586-.055-1.129-.165-1.629a4.252 4.252 0 0 0-.515-1.336 2.53 2.53 0 0 0-.902-.89c-.36-.22-.793-.329-1.301-.329-.5 0-.93.086-1.289.258-.36.164-.66.395-.903.692a3.271 3.271 0 0 0-.562 1.043c-.133.39-.227.816-.281 1.277v2.273a5.64 5.64 0 0 0 .48 1.547c.227.469.547.844.961 1.125.422.274.961.41 1.617.41.508 0 .942-.109 1.301-.328.359-.218.652-.52.879-.902.234-.39.406-.84.515-1.348.11-.508.165-1.047.165-1.617zm8.25-6.469V22h-2.836V9.32h2.836zm-3.024-3.328c0-.43.141-.785.422-1.066.289-.29.687-.434 1.195-.434.5 0 .895.145 1.184.434.289.281.434.636.434 1.066 0 .422-.145.774-.434 1.055-.289.281-.684.422-1.184.422-.508 0-.906-.14-1.195-.422a1.432 1.432 0 0 1-.422-1.055zm11.297 13.992c.461 0 .875-.09 1.242-.27.375-.187.676-.444.903-.773a2.11 2.11 0 0 0 .386-1.136h2.66a3.954 3.954 0 0 1-.726 2.238 5.046 5.046 0 0 1-1.863 1.605c-.774.391-1.629.586-2.567.586-.969 0-1.812-.164-2.531-.492a5.008 5.008 0 0 1-1.793-1.383 6.075 6.075 0 0 1-1.078-2.027 8.345 8.345 0 0 1-.352-2.46v-.411c0-.875.117-1.695.352-2.461a6.058 6.058 0 0 1 1.078-2.04 4.893 4.893 0 0 1 1.793-1.37c.719-.336 1.558-.504 2.519-.504 1.016 0 1.907.203 2.672.61a4.502 4.502 0 0 1 1.805 1.675c.445.711.676 1.54.691 2.484h-2.66a2.826 2.826 0 0 0-.351-1.265 2.316 2.316 0 0 0-.868-.914c-.367-.227-.808-.34-1.324-.34-.57 0-1.043.117-1.418.351-.375.227-.668.54-.879.938-.211.39-.363.832-.457 1.324a8.635 8.635 0 0 0-.129 1.512v.41c0 .524.043 1.031.129 1.524.086.492.235.933.446 1.324.218.383.515.691.89.925.375.227.852.34 1.43.34z" fill="#212121"/>
    <defs>
        <linearGradient id="nsyn8rs24a" x1="122" y1="1.5" x2="124.639" y2="24.5" gradientUnits="userSpaceOnUse">
            <stop stop-color="#F2C31D"/>
            <stop offset="1" stop-color="#CA3404"/>
        </linearGradient>
    </defs>
</svg>
