<svg width="20" height="20" viewBox="0 0 20 20" fill="none" xmlns="http://www.w3.org/2000/svg">
    <g clip-path="url(#uhbqytvqna)">
        <rect x="9.368" y="2.174" width="6.365" height="1.212" rx=".606" transform="rotate(15.273 9.368 2.174)" fill="#00B1FF"/>
        <rect x="8.804" y="4.242" width="4.415" height="1.212" rx=".606" transform="rotate(15.273 8.804 4.242)" fill="#00B1FF"/>
        <rect x="8.198" y="6.061" width="4.415" height="1.212" rx=".606" transform="rotate(15.273 8.198 6.06)" fill="#00B1FF"/>
        <rect x="7.592" y="7.879" width="4.415" height="1.212" rx=".606" transform="rotate(15.273 7.592 7.879)" fill="#00B1FF"/>
        <path d="M3.706 12.799 6.5 1.474.853 1.455c-.323-.001-.587.283-.588.633L.224 14.536c-.002.351.26.637.583.638l3.621.012a2.375 2.375 0 0 1-.444-.525 2.475 2.475 0 0 1-.278-1.862z" fill="#00B1FF"/>
        <path d="M6.096 13.37 9.069 1.322l7.962 1.965-.364.955c.434.164.803.458 1.046.86.026.042.036.09.058.133l.537-1.653c.084-.34.03-.703-.147-.996a1.208 1.208 0 0 0-.748-.554L9.315.033C8.658-.127 7.969.307 7.8.99L4.819 13.074c-.084.339-.03.702.146.995.17.282.437.479.75.556l2.955.73-.417-1.453-2.157-.532z" fill="#0096D1"/>
        <path d="M19.285 8.472a.769.769 0 0 0-.992.44l-.9 2.41a.042.042 0 0 1-.078.004.042.042 0 0 1-.002-.033l1.423-4.214a.767.767 0 0 0-.481-.972.816.816 0 0 0-.242-.037.765.765 0 0 0-.73.518l-1.46 4.32a.066.066 0 0 1-.078.043.067.067 0 0 1-.049-.08l1.316-5.336a.766.766 0 1 0-1.489-.368l-1.315 5.33a.072.072 0 0 1-.07.056.085.085 0 0 1-.018-.003.072.072 0 0 1-.053-.08l.606-4.005a.773.773 0 0 0-.76-.882.767.767 0 0 0-.757.653l-1.344 7.277a.331.331 0 0 1-.306.27h-.02a.332.332 0 0 1-.315-.232l-.733-2.344a.766.766 0 0 0-.961-.504.768.768 0 0 0-.504.961l1.498 5.212c.098.336.285.64.483.894l.002.001a.623.623 0 0 1 .137.366c.007.15-.002.31-.035.474a.41.41 0 0 0 .303.478l3.648.9a.41.41 0 0 0 .496-.3l.17-.688a1.91 1.91 0 0 1 .521-.908l.164-.159a1.9 1.9 0 0 0 .46-.71l1.697-4.63 1.208-3.13a.767.767 0 0 0-.44-.992z" fill="#00B1FF"/>
    </g>
    <defs>
        <clipPath id="uhbqytvqna">
            <path fill="#fff" d="M0 0h20v20H0z"/>
        </clipPath>
    </defs>
</svg>
