<svg width="20" height="20" viewBox="0 0 20 20" fill="none" xmlns="http://www.w3.org/2000/svg">
    <path d="m15.303 4.53 2.934-2.905a.28.28 0 0 1 .429.042l.677 1.002a.28.28 0 0 1-.102.404l-3.61 1.904a.28.28 0 0 1-.328-.446zm.486 2.496a.222.222 0 0 0 .238.177l3.234-.302a.223.223 0 0 0 .197-.266l-.192-.943a.223.223 0 0 0-.303-.16l-3.04 1.243a.222.222 0 0 0-.134.251zm-2.415-3.431a.223.223 0 0 0 .294-.044l2.073-2.5a.222.222 0 0 0-.048-.328l-.803-.53a.223.223 0 0 0-.328.1l-1.27 3.03a.222.222 0 0 0 .082.272zM8.531 18.743l-.624.366a1.065 1.065 0 0 1-1.457-.382l-1.656-2.832a1.065 1.065 0 0 1 .382-1.456l.624-.366a1.065 1.065 0 0 1 1.457.382l1.656 2.832c.297.507.126 1.16-.382 1.456z" fill="#B9B9B9"/>
    <path d="m1.298 10.458.004-.004 5.25-3.9 3.848 6.025-5.801 3.158a1.545 1.545 0 0 1-.244.059c-.173.027-.422.04-.717-.018-.583-.115-1.39-.517-2.17-1.738-.779-1.22-.797-2.123-.645-2.706.077-.296.2-.52.304-.67a1.59 1.59 0 0 1 .17-.206zm.006-.006c.003-.003.003-.002 0 0z" stroke="#B9B9B9" stroke-width=".5"/>
    <path d="M13.74 6.215c.889 1.391 1.596 2.832 1.986 3.969.196.572.303 1.041.324 1.377.01.165-.002.272-.02.334a1.078 1.078 0 0 1-.31-.123c-.297-.16-.677-.454-1.114-.873-.868-.832-1.877-2.08-2.765-3.47-.889-1.392-1.596-2.832-1.986-3.969-.196-.572-.303-1.041-.324-1.377-.01-.165.002-.272.02-.334.063.01.165.044.31.123.296.16.677.454 1.114.873.867.832 1.877 2.08 2.765 3.47l.421-.269-.42.27zm2.275 5.722v-.002.002zm.058-.038h.002-.002zM9.506 1.745h.002-.002z" stroke="#B9B9B9"/>
    <path d="M13.31 9.88c.627-.402.447-1.804-.402-3.133-.849-1.33-2.046-2.082-2.673-1.681-.627.4-.448 1.803.401 3.132.85 1.329 2.046 2.082 2.673 1.681z" fill="#B9B9B9"/>
    <path d="M16.278 12.356c-.662.422-2.908-1.913-4.718-4.747-1.81-2.834-2.984-5.855-2.323-6.277a.359.359 0 0 1 .128-.05c-.313-.007-.618.156-.8.502-.796 1.525-2.83 4.907-2.83 4.907s-1.01 1.36.764 4.138c1.775 2.779 3.488 2.431 3.488 2.431s3.893-.398 5.603-.48c.405-.019.687-.243.804-.547a.371.371 0 0 1-.116.123zM2.174 12.126a.551.551 0 0 1-.379-.987l2.137-1.624a.55.55 0 0 1 .666.876l-2.137 1.624a.547.547 0 0 1-.287.11z" fill="#B9B9B9"/>
</svg>
