<svg id="Group_9878" data-name="Group 9878" xmlns="http://www.w3.org/2000/svg" width="24" height="22.038" viewBox="0 0 24 22.038">
  <path id="Subtraction_1" data-name="Subtraction 1" d="M1.289,16.862h0A10.748,10.748,0,0,0,0,14.874a18.334,18.334,0,0,0,6.963-3.168A20.019,20.019,0,0,1,3.15,5.262H.34V3.186H7.894a13.852,13.852,0,0,0-1-2.524L9.165,0a15.326,15.326,0,0,1,1.217,2.7l-1.539.483h7.786V5.262H13.89A18.744,18.744,0,0,1,10.2,11.67a15.586,15.586,0,0,0,2.938,1.787l-.752,2.185a16.619,16.619,0,0,1-3.85-2.4A19.774,19.774,0,0,1,1.29,16.861Zm4.064-11.6A15.422,15.422,0,0,0,8.574,10.22a14.334,14.334,0,0,0,2.917-4.958Z" fill="#008dc9"/>
  <path id="Path_343" data-name="Path 343" d="M9.3,24.273l-.917-3H3.793l-.917,3H0L4.446,11.622H7.71l4.464,12.651Zm-1.553-5.24L6.828,16.1q-.088-.3-.229-.759t-.282-.935q-.141-.476-.229-.829-.088.353-.238.873t-.282.988q-.132.468-.2.662l-.9,2.929Z" transform="translate(11.826 -2.234)" fill="#008dc9"/>
</svg>
