<?xml version="1.0" encoding="utf-8"?>
<!-- Generator: Adobe Illustrator 18.1.1, SVG Export Plug-In . SVG Version: 6.00 Build 0)  -->
<svg version="1.1" id="Layer_1" xmlns="http://www.w3.org/2000/svg" xmlns:xlink="http://www.w3.org/1999/xlink" x="0px" y="0px"
	 width="229.3px" height="32px" viewBox="-106 235 229.3 32" enable-background="new -106 235 229.3 32" xml:space="preserve">
<title>Artboard 2</title>
<desc>Created with Sketch.</desc>
<g id="Page-1">
	<g id="Artboard-2">
		
			<g id="BrandGuidelines-aaaa" transform="translate(143.500000, 16.000000) rotate(-90.000000) translate(-143.500000, -16.000000) translate(129.000000, -99.000000)">
			<g id="Group-71" transform="translate(4.511111, 115.000000)">
				<path id="Fill-69" fill="#FFFFFF" d="M-219.7-120.9l-3.5-0.5c1.2-1,1.7-2.4,1.7-4.1c0-1-0.3-2-0.8-2.9c-0.5-0.9-1.2-1.5-2.1-2
					c-0.9-0.5-1.9-0.7-2.9-0.7c-0.8,0-1.5,0.2-2.2,0.5c-0.6,0.3-1.1,0.7-1.5,1.3c-0.4,0.5-0.5,1.2-0.5,1.8c0,1.1,0.2,2,0.7,2.6
					l2.3,0.3v-2.3l3,0.5v5.4l-7-1.1c-0.7-0.8-1.1-1.7-1.5-2.8c-0.3-1-0.5-2.1-0.5-3.1c0-1.3,0.3-2.4,0.8-3.4c0.6-1,1.3-1.8,2.4-2.3
					c1-0.5,2.2-0.8,3.6-0.8c1.8,0,3.4,0.4,4.8,1.2c1.4,0.8,2.5,1.9,3.3,3.3c0.8,1.4,1.2,2.9,1.2,4.5
					C-218.4-123.7-218.8-122.2-219.7-120.9"/>
				<path id="Fill-70" fill="#FFFFFF" d="M-234-117.7v-3.1l11,1.7v3.1L-234-117.7z M-221.3-118.4c0.3-0.3,0.7-0.4,1.1-0.4
					c0.5,0,1,0.2,1.4,0.6c0.4,0.4,0.6,0.9,0.6,1.4c0,0.4-0.1,0.8-0.4,1.1c-0.3,0.3-0.7,0.4-1.1,0.4c-0.5,0-1-0.2-1.4-0.6
					c-0.4-0.4-0.6-0.9-0.6-1.4C-221.8-117.8-221.6-118.1-221.3-118.4z"/>
			</g>
			<polygon id="Fill-72" fill="#FFFFFF" points="-229.5,5.1 -229.5,2.3 -218.4,-0.2 -218.4,2.8 -225.6,4.2 -218.4,7.8 -218.4,11 			
				"/>
			<g id="Group-78" transform="translate(0.000000, 144.861878)">
				<path id="Fill-74" fill="#FFFFFF" d="M-229.5-131.7v-3.1l11,1.7v3.1L-229.5-131.7z M-216.8-132.5c0.3-0.3,0.7-0.4,1.1-0.4
					c0.5,0,1,0.2,1.4,0.6c0.4,0.4,0.6,0.9,0.6,1.4c0,0.4-0.1,0.8-0.4,1.1c-0.3,0.3-0.7,0.4-1.1,0.4c-0.5,0-1-0.2-1.4-0.6
					c-0.4-0.4-0.6-0.9-0.6-1.4C-217.3-131.8-217.1-132.2-216.8-132.5z"/>
				<path id="Fill-76" fill="#FFFFFF" d="M-219.1-118.8c-0.7,0.6-1.6,1-2.8,1c-0.4,0-0.8,0-1.3-0.1l-6.3-1v-3.1l6.1,1
					c0.1,0,0.4,0,0.6,0c0.6,0,1.1-0.2,1.4-0.5c0.3-0.3,0.5-0.8,0.5-1.4c0-0.8-0.3-1.4-0.8-2c-0.5-0.5-1.2-0.9-2.1-1l-5.8-0.9v-3.1
					l11,1.7v3l-1.6-0.3c0.6,0.5,1.1,1.1,1.4,1.7c0.3,0.7,0.5,1.4,0.5,2.2C-218.1-120.3-218.4-119.4-219.1-118.8"/>
				<path id="Fill-77" fill="#FFFFFF" d="M-219.9-107.6l1.4,0.2v3l-9.7-1.5c-2.2-0.3-3.8-1.1-4.8-2.4c-1-1.2-1.6-2.8-1.6-4.8
					c0-1.9,0.4-3.2,1.1-3.9l2.7,0.4c-0.4,0.5-0.7,1.1-0.9,1.6c-0.2,0.6-0.3,1.2-0.3,1.9c0,1.1,0.2,2,0.7,2.7
					c0.5,0.7,1.2,1.1,2.1,1.2l0.8,0.1c-0.5-0.4-0.9-0.9-1.2-1.6c-0.3-0.7-0.5-1.4-0.5-2.1c0-0.9,0.2-1.6,0.7-2.3
					c0.4-0.7,1-1.2,1.8-1.5c0.8-0.4,1.6-0.5,2.5-0.5c1.2,0,2.4,0.3,3.4,0.9c1,0.6,1.8,1.3,2.4,2.3c0.6,0.9,0.9,2,0.9,3
					C-218.1-109.4-218.7-108.3-219.9-107.6 M-221.3-112.2c-0.3-0.5-0.8-0.9-1.3-1.2c-0.6-0.3-1.2-0.4-1.9-0.4
					c-0.8,0-1.4,0.2-1.9,0.6c-0.5,0.4-0.7,0.9-0.7,1.6c0,0.6,0.2,1.2,0.5,1.7c0.3,0.5,0.8,0.9,1.3,1.2c0.6,0.3,1.1,0.4,1.8,0.4
					c0.8,0,1.4-0.2,1.9-0.6c0.5-0.4,0.7-0.9,0.7-1.7C-220.9-111.1-221-111.7-221.3-112.2"/>
			</g>
			<polygon id="Fill-79" fill="#FFFFFF" points="-220.7,50.8 -220.7,55.5 -223.3,55.1 -223.3,50.4 -229.5,49.5 -229.5,46.1 
				-214.2,48.5 -214.2,57.9 -217.1,57.5 -217.1,51.4 			"/>
			<g id="Group-91">
				<path id="Fill-81" fill="#FFFFFF" d="M-227.9,64.2c-0.6-0.5-1.1-1-1.5-1.7c-0.3-0.7-0.5-1.4-0.5-2.2c0-1.2,0.3-2.1,1-2.7
					c0.7-0.6,1.6-1,2.8-1c0.4,0,0.8,0,1.3,0.1l6.3,1v3.1l-6.1-0.9c-0.3,0-0.5,0-0.6,0c-0.6,0-1.1,0.2-1.4,0.5
					c-0.3,0.3-0.5,0.8-0.5,1.4c0,0.8,0.3,1.4,0.8,1.9c0.5,0.5,1.2,0.9,2.1,1l5.8,0.9v3.1l-11-1.7v-3L-227.9,64.2z"/>
				<path id="Fill-83" fill="#FFFFFF" d="M-219.1,79.8c-0.7,0.6-1.6,1-2.8,1c-0.4,0-0.8,0-1.3-0.1l-6.3-1v-3.1l6.1,1
					c0.1,0,0.4,0,0.6,0c0.6,0,1.1-0.2,1.4-0.5c0.3-0.3,0.5-0.8,0.5-1.4c0-0.8-0.3-1.4-0.8-2c-0.5-0.5-1.2-0.9-2.1-1l-5.8-0.9v-3.1
					l11,1.7v3l-1.6-0.3c0.6,0.5,1.1,1.1,1.4,1.7s0.5,1.4,0.5,2.2C-218.1,78.3-218.4,79.2-219.1,79.8"/>
				<path id="Fill-84" fill="#FFFFFF" d="M-229.5,89.5l1.4,0.2c-1.2-1-1.7-2.2-1.7-3.6c0-0.8,0.2-1.6,0.6-2.3c0.4-0.7,1-1.2,1.8-1.6
					c0.7-0.4,1.6-0.6,2.5-0.6c1.2,0,2.3,0.3,3.4,0.8c1.1,0.6,1.9,1.3,2.5,2.2c0.6,0.9,0.9,1.8,0.9,2.8c0,0.9-0.2,1.6-0.5,2.2
					c-0.3,0.6-0.7,1-1.2,1.2l5.5,0.9v3.1l-15.3-2.4V89.5z M-226.3,85.5c-0.5,0.4-0.7,1-0.7,1.7c0,0.6,0.2,1.1,0.5,1.6
					c0.3,0.5,0.7,0.9,1.3,1.1c0.6,0.3,1.2,0.4,1.9,0.4c0.8,0,1.4-0.2,1.8-0.6c0.5-0.4,0.7-0.9,0.7-1.6c0-0.6-0.2-1.2-0.5-1.7
					c-0.3-0.5-0.8-0.9-1.3-1.2c-0.5-0.3-1.1-0.4-1.8-0.4C-225.2,84.9-225.8,85.1-226.3,85.5z"/>
				<path id="Fill-85" fill="#FFFFFF" d="M-206.6-63.8V-72c0-0.6-0.4-1-1-1.1l-21.2-3.3c-0.4-0.1-0.8,0.3-0.8,0.7v4.2
					c0,0.4,0.3,0.7,0.7,0.8l6,0.9c0.6,0.1,1,0.6,1,1.1v2.6c0,5.4,2.6,8.5,7.9,9.3c2.3,0.4,4.1,0,5.3-1
					C-207.3-59.1-206.6-61.1-206.6-63.8 M-214.3-62.9c-3-0.4-3-2.7-3-4.8V-69l5.5,0.9c0.3,0.1,0.6,0.3,0.6,0.7v0.6
					c0,1.5,0,2.9-0.8,3.6C-212.5-62.9-213.3-62.7-214.3-62.9"/>
				<path id="Fill-86" fill="#FFFFFF" d="M-206.6-121.9v-8.1c0-0.6-0.4-1-1-1.1l-21.2-3.3c-0.4-0.1-0.8,0.3-0.8,0.7v3.9
					c0,0.6,0.4,1,1,1.1l5.7,0.9c0.6,0.1,1,0.6,1,1.1v2.6c0,5.4,2.6,8.5,7.9,9.3c2.3,0.4,4.1,0,5.3-1
					C-207.3-117.2-206.6-119.2-206.6-121.9 M-214.3-121c-3-0.4-3-2.7-3-4.8v-1.2l5.5,0.9c0.3,0.1,0.6,0.3,0.6,0.7v0.6
					c0,1.5,0,2.9-0.8,3.6C-212.5-121-213.3-120.8-214.3-121"/>
				<path id="Fill-87" fill="#FFFFFF" d="M-214.2-97.6v-3.9c0-0.3-0.2-0.6-0.6-0.7l-1.1-0.2l0.4-0.3c1.2-0.8,1.7-2.7,1.7-4.6
					c0-4.3-3.3-8-8-8.7c-2.3-0.4-4.5,0.2-6.1,1.5c-1.4,1.2-2,2.9-2,4.9c0,3.5,2.3,5.4,2.3,5.4l-1.1-0.2c-0.4-0.1-0.8,0.3-0.8,0.7
					v3.5c0,0.6,0.4,1,1,1.1l13.5,2.1C-214.6-96.9-214.2-97.2-214.2-97.6 M-221.9-103c-2.3-0.4-3.8-2.1-3.8-4.4c0-1.1,0.4-2,1.1-2.6
					c0.7-0.6,1.7-0.8,2.8-0.6c2.2,0.4,3.8,2.1,3.8,4.4c0,1.1-0.4,2-1.1,2.6C-219.8-103.1-220.8-102.9-221.9-103"/>
				<path id="Fill-88" fill="#FFFFFF" d="M-214.2-39.5v-3.9c0-0.3-0.2-0.6-0.6-0.7l-1.1-0.2l0.4-0.3c1.2-0.8,1.7-2.7,1.7-4.6
					c0-4.3-3.3-8-8-8.7c-2.3-0.4-4.5,0.2-6.1,1.5c-1.4,1.2-2,2.9-2,4.9c0,3.5,2.3,5.4,2.3,5.4l-1.1-0.2c-0.4-0.1-0.8,0.3-0.8,0.7
					v3.5c0,0.6,0.4,1,1,1.1l13.5,2.1C-214.6-38.8-214.2-39.1-214.2-39.5 M-221.9-44.9c-2.3-0.4-3.8-2.1-3.8-4.4c0-1.1,0.4-2,1.1-2.6
					c0.7-0.6,1.7-0.8,2.8-0.6c2.2,0.4,3.8,2.1,3.8,4.4c0,1.1-0.4,2-1.1,2.6C-219.8-45-220.8-44.8-221.9-44.9"/>
				<path id="Fill-89" fill="#FFFFFF" d="M-214.2-76.8v-3.9c0-0.4-0.2-0.7-0.5-0.9l-8.1-5.4l7.8-2.3c0.5-0.1,0.8-0.6,0.8-1.1v-3.9
					c0-0.5-0.5-0.8-0.9-0.6l-12.9,4.3l-5.8-4.1c-0.5-0.3-1.1,0-1.1,0.6v3.9c0,0.4,0.2,0.7,0.5,0.9l19.1,13
					C-214.8-76-214.2-76.3-214.2-76.8"/>
				<path id="Fill-90" fill="#FFFFFF" d="M-207.2-34.9l-21.6-3.3c-0.4-0.1-0.8,0.3-0.8,0.7v3.4c0,0.6,0.4,1,1,1.1l21.2,3.3
					c0.4,0.1,0.8-0.3,0.8-0.7v-3.8C-206.6-34.6-206.8-34.9-207.2-34.9"/>
			</g>
		</g>
	</g>
</g>
</svg>
