<?xml version="1.0" encoding="utf-8"?>
<!-- Generator: Adobe Illustrator 21.0.0, SVG Export Plug-In . SVG Version: 6.00 Build 0)  -->
<svg version="1.1" id="Layer_1" xmlns="http://www.w3.org/2000/svg" xmlns:xlink="http://www.w3.org/1999/xlink" x="0px" y="0px"
	 width="303px" height="100px" viewBox="0 0 303 100" style="enable-background:new 0 0 303 100;" xml:space="preserve">
<style type="text/css">
	.st0{fill:#FFFFFF;}
	.st1{opacity:0.68;fill:#FFFFFF;}
	.st2{opacity:0.7;fill:#FFFFFF;}
	.st3{opacity:0.68;}
</style>
<g>
	<g>
		<g>
			<g>
				<path class="st0" d="M233.1,16.9h-16.6c-1.1,0-2.1,0.8-2.3,1.9l-6.7,42.6c-0.1,0.8,0.5,1.6,1.4,1.6h8.5c0.8,0,1.5-0.6,1.6-1.4
					l1.9-12.1c0.2-1.1,1.1-1.9,2.3-1.9h5.3c10.9,0,17.3-5.3,18.9-15.8c0.7-4.6,0-8.2-2.1-10.7C242.8,18.4,238.6,16.9,233.1,16.9z
					 M235,32.4c-0.9,6-5.5,6-9.9,6h-2.5l1.8-11.1c0.1-0.7,0.7-1.2,1.4-1.2h1.1c3,0,5.8,0,7.3,1.7C235.1,28.8,235.3,30.3,235,32.4z"
					/>
				<path class="st0" d="M114.6,16.9H98c-1.1,0-2.1,0.8-2.3,1.9L89,61.4c-0.1,0.8,0.5,1.6,1.4,1.6h7.9c1.1,0,2.1-0.8,2.3-1.9
					l1.8-11.5c0.2-1.1,1.1-1.9,2.3-1.9h5.3c10.9,0,17.3-5.3,18.9-15.8c0.7-4.6,0-8.2-2.1-10.7C124.4,18.4,120.2,16.9,114.6,16.9z
					 M116.6,32.4c-0.9,6-5.5,6-9.9,6h-2.5l1.8-11.1c0.1-0.7,0.7-1.2,1.4-1.2h1.1c3,0,5.8,0,7.3,1.7
					C116.6,28.8,116.9,30.3,116.6,32.4z"/>
				<path class="st0" d="M164.3,32.2h-8c-0.7,0-1.3,0.5-1.4,1.2l-0.3,2.2l-0.6-0.8c-1.7-2.5-5.6-3.3-9.4-3.3
					c-8.8,0-16.3,6.7-17.7,16c-0.8,4.7,0.3,9.1,3,12.2c2.4,2.9,5.9,4,10,4c7.1,0,11-4.5,11-4.5l-0.4,2.2c-0.1,0.8,0.5,1.6,1.4,1.6
					h7.2c1.1,0,2.1-0.8,2.3-1.9l4.3-27.2C165.8,33,165.1,32.2,164.3,32.2z M153.2,47.7c-0.8,4.5-4.4,7.6-9,7.6
					c-2.3,0-4.2-0.7-5.3-2.1c-1.2-1.4-1.6-3.4-1.2-5.6c0.7-4.5,4.4-7.7,8.9-7.7c2.3,0,4.1,0.7,5.3,2.2
					C153.1,43.5,153.5,45.5,153.2,47.7z"/>
				<path class="st0" d="M282.7,32.2h-8c-0.7,0-1.3,0.5-1.4,1.2l-0.3,2.2l-0.6-0.8c-1.7-2.5-5.6-3.3-9.4-3.3
					c-8.8,0-16.3,6.7-17.7,16c-0.8,4.7,0.3,9.1,3,12.2c2.4,2.9,5.9,4,10,4c7.1,0,11-4.5,11-4.5l-0.4,2.2c-0.1,0.8,0.5,1.6,1.4,1.6
					h7.2c1.1,0,2.1-0.8,2.3-1.9l4.3-27.2C284.2,33,283.6,32.2,282.7,32.2z M271.6,47.7c-0.8,4.5-4.4,7.6-9,7.6
					c-2.3,0-4.2-0.7-5.3-2.1c-1.2-1.4-1.6-3.4-1.2-5.6c0.7-4.5,4.4-7.7,8.9-7.7c2.3,0,4.1,0.7,5.3,2.2
					C271.5,43.5,272,45.5,271.6,47.7z"/>
				<path class="st0" d="M206.6,32.2h-8c-0.8,0-1.5,0.4-1.9,1l-11,16.2L181,33.9c-0.3-1-1.2-1.6-2.2-1.6H171c-0.9,0-1.6,0.9-1.3,1.8
					l8.8,25.8l-8.3,11.7c-0.6,0.9,0,2.2,1.1,2.2h8c0.8,0,1.5-0.4,1.9-1l26.6-38.4C208.4,33.5,207.7,32.2,206.6,32.2z"/>
				<path class="st0" d="M292.1,18.1l-6.8,43.4c-0.1,0.8,0.5,1.6,1.4,1.6h6.9c1.1,0,2.1-0.8,2.3-1.9l6.7-42.6
					c0.1-0.8-0.5-1.6-1.4-1.6h-7.7C292.8,16.9,292.2,17.4,292.1,18.1z"/>
			</g>
		</g>
	</g>
	<g>
		<path class="st1" d="M56.5,19.1c0.9-5.7,0-9.6-3.1-13.1C50,2.2,43.8,0.5,36,0.5H13.2c-1.6,0-3,1.2-3.2,2.8L0.5,63.4
			c-0.2,1.2,0.7,2.3,1.9,2.3h14.1l-1,6.2c-0.2,1,0.6,2,1.7,2h11.8c1.4,0,2.6-1,2.8-2.4l0.1-0.6l2.2-14.2l0.1-0.8
			c0.2-1.4,1.4-2.4,2.8-2.4H39c11.5,0,20.5-4.7,23.1-18.2c1.1-5.6,0.5-10.3-2.4-13.6C58.8,20.6,57.7,19.8,56.5,19.1L56.5,19.1"/>
		<path class="st2" d="M56.5,19.1c0.9-5.7,0-9.6-3.1-13.1C50,2.2,43.8,0.5,36,0.5H13.2c-1.6,0-3,1.2-3.2,2.8L0.5,63.4
			c-0.2,1.2,0.7,2.3,1.9,2.3h14.1L20,43.2l-0.1,0.7c0.2-1.6,1.6-2.8,3.2-2.8h6.7c13.1,0,23.4-5.3,26.4-20.8
			C56.3,20,56.4,19.6,56.5,19.1"/>
		<path class="st0" d="M23.8,19.2c0.2-1,0.8-1.7,1.6-2.1c0.4-0.2,0.8-0.3,1.2-0.3h17.9c2.1,0,4.1,0.1,5.9,0.4c0.5,0.1,1,0.2,1.5,0.3
			c0.5,0.1,1,0.2,1.4,0.4c0.2,0.1,0.5,0.1,0.7,0.2c0.9,0.3,1.7,0.6,2.5,1c0.9-5.7,0-9.6-3.1-13.1C50,2.2,43.8,0.5,36,0.5H13.2
			c-1.6,0-3,1.2-3.2,2.8L0.5,63.4c-0.2,1.2,0.7,2.3,1.9,2.3h14.1L20,43.2L23.8,19.2z"/>
	</g>
	<g class="st3">
		<path class="st0" d="M205.8,81.6c0.9,0,1.8-0.8,2-1.7c0.1-0.9-0.5-1.7-1.4-1.7s-1.8,0.8-2,1.7C204.2,80.9,204.9,81.6,205.8,81.6
			 M206.7,76c2.2,0,3.7,1.8,3.3,3.9c-0.3,2.2-2.4,3.9-4.6,3.9c-2.2,0-3.6-1.7-3.3-3.9C202.5,77.7,204.5,76,206.7,76 M185.2,87
			c1.5-1.3,4-3.9,6.5-6.4c2.2-2.2,4-2.4,6.2-0.2c1.8,1.8,3.5,3.9,5,5.9c1.5,1.9,3.9,5,5.6,7.4c0.2,0.3,0.2,0.7-0.1,1l-3.1,2.9
			c-0.5,0.4-1.2,0.3-1.5-0.2c-1.4-2.2-3.1-4.9-4.2-6.6c-1.4-2.1-3.5-4.8-4.3-5.7c-0.8-0.8-1.4-0.8-2.2,0.1c-1.2,1.3-3.6,4.1-4.9,5.6
			c-0.6,0.7-1.1,1.4-1.7,2c-0.4,0.5-1.2,0.5-1.6,0l-2.2-2.7c-0.3-0.3-0.2-0.8,0.1-1.1C183.6,88.3,184.3,87.7,185.2,87"/>
		<path class="st0" d="M227.3,95.3c-0.2,1-0.3,2.3-0.4,3.3c0,0.5-0.5,1-1,1h-3.6c-0.5,0-0.9-0.5-0.7-0.9c0.2-1,0.5-2.3,0.7-3.3
			l1.4-8.8c-2.9,1.3-6.2,2.6-9.3,3.4c-0.5,0.1-1-0.1-1.2-0.6l-1.1-2.6c-0.2-0.4,0.1-0.9,0.5-1c5.1-1.1,9.9-3.1,13.3-5.1
			c2.9-1.6,5.9-3.9,7.9-5.9c0.4-0.4,1.1-0.4,1.4,0l2,2.1c0.3,0.3,0.3,0.8-0.1,1.1c-2.5,2.1-5.2,4.1-8,5.7L227.3,95.3z"/>
		<path class="st0" d="M262.8,78.2c0.8,0,1.7-0.7,1.8-1.5c0.1-0.8-0.5-1.5-1.3-1.5c-0.8,0-1.7,0.7-1.8,1.5
			C261.4,77.5,262,78.2,262.8,78.2 M263.6,73c2,0,3.4,1.6,3,3.6c-0.3,2-2.2,3.6-4.2,3.6c-2,0-3.4-1.6-3-3.6
			C259.8,74.6,261.7,73,263.6,73 M253.7,78.4l3.3-1c0.5-0.2,1.1,0.1,1.3,0.6c0.9,2.5,1.9,6.5,2.5,8.8c0.5,2.3,1.3,6.6,1.6,9.7
			c0,0.4-0.2,0.7-0.5,0.8l-3.7,1.2c-0.6,0.2-1.3-0.2-1.3-0.9c-0.2-3.3-0.6-6.4-1.1-9.2c-0.5-2.8-1.6-6.7-2.4-9.1
			C253,78.9,253.2,78.5,253.7,78.4 M246.5,77.7l3.2,0.7c0.5,0.1,0.7,0.6,0.5,1c-0.4,0.9-0.8,2-1,2.5c-0.8,2.2-2.4,6-3.8,8.6
			c-1.3,2.7-3.4,5.8-5.1,7.9c-0.3,0.4-0.8,0.5-1.2,0.3l-3-1.4c-0.5-0.2-0.6-0.8-0.3-1.2c2-2.3,3.9-5.1,5.2-7.4
			c1.7-3.1,3.3-6.7,4.3-10.3C245.5,77.9,246,77.6,246.5,77.7"/>
		<path class="st0" d="M278,97.7c-0.2-0.2-0.3-0.5-0.2-0.8c0.2-0.6,0.4-1.3,0.5-2l2.7-16.7c0.1-0.6,0.1-1.3,0.2-1.7c0-0.5,0.5-1,1-1
			h3.2c0.5,0,0.9,0.5,0.7,1c-0.1,0.5-0.3,1.1-0.4,1.8l-2.3,14.4c2.1-0.8,4.6-2.6,6.6-4.8c0.4-0.4,1-0.3,1.2,0.2l1.2,2.3
			c0.2,0.4,0.1,0.9-0.2,1.2c-2.9,2.8-7.3,5.8-10.6,7.4c-0.4,0.2-0.6,0.3-0.9,0.5c-0.4,0.3-0.9,0.2-1.3-0.1L278,97.7z M265,97.4
			c-0.4-0.3-0.4-0.9,0-1.2c2.5-1.8,4.1-4.2,5.1-6.3c1.2-2.4,2.1-7.8,2.7-11.4c0.1-0.8,0.2-1.5,0.2-2c0-0.6,0.5-1,1-1h3.1
			c0.5,0,0.9,0.5,0.7,0.9c-0.1,0.6-0.3,1.3-0.4,2c-0.6,3.6-1.6,9.7-2.8,12.6c-1.3,3.1-3.4,5.8-6,8.1c-0.4,0.3-0.9,0.3-1.3,0
			L265,97.4z"/>
	</g>
</g>
</svg>
