<svg width="28" height="28" viewBox="0 0 28 28" fill="none" xmlns="http://www.w3.org/2000/svg">
    <rect width="28" height="28" rx="3" fill="#000"/>
    <path d="M11.766 11.934v-.824a5.577 5.577 0 0 0-.8-.061c-3.268-.005-5.926 2.871-5.926 6.41 0 2.17 1 4.09 2.532 5.253-.987-1.143-1.592-2.683-1.592-4.368 0-3.487 2.584-6.33 5.786-6.41z" fill="#3EC1D3"/>
    <path d="M11.91 21.27c1.457 0 2.65-1.256 2.701-2.819l.005-13.965h2.358a5.383 5.383 0 0 1-.074-.884h-3.22l-.004 13.965c-.052 1.562-1.244 2.819-2.702 2.819-.452 0-.879-.122-1.257-.339.487.739 1.288 1.224 2.193 1.224zM21.381 9.229v-.777c-.9 0-1.736-.287-2.44-.786.626.777 1.474 1.341 2.44 1.563z" fill="#3AB5C6"/>
    <path d="M18.942 7.661a5.046 5.046 0 0 1-1.101-3.177h-.861c.221 1.328.952 2.467 1.962 3.177zM10.97 14.526c-1.492 0-2.706 1.313-2.706 2.927 0 1.125.591 2.104 1.453 2.594a3.058 3.058 0 0 1-.514-1.709c0-1.614 1.214-2.927 2.707-2.927.278 0 .548.052.8.136V11.99a5.577 5.577 0 0 0-.8-.061c-.048 0-.092.004-.14.004v2.73a2.536 2.536 0 0 0-.8-.136z" fill="#FF165D"/>
    <path d="M21.38 9.227v2.706c-1.671 0-3.22-.579-4.482-1.558v7.084c0 3.535-2.658 6.415-5.93 6.415a5.607 5.607 0 0 1-3.398-1.162c1.084 1.256 2.628 2.047 4.338 2.047 3.268 0 5.93-2.876 5.93-6.415V11.26c1.262.979 2.81 1.558 4.482 1.558V9.335c-.327 0-.64-.038-.94-.108z" fill="#FF165D"/>
    <path d="M16.9 17.456v-7.083c1.263.979 2.812 1.558 4.482 1.558V9.224c-.966-.221-1.814-.786-2.44-1.563-1.01-.71-1.736-1.85-1.967-3.177h-2.358l-.005 13.965c-.052 1.563-1.244 2.82-2.701 2.82-.905 0-1.702-.485-2.198-1.22-.861-.494-1.453-1.468-1.453-2.593 0-1.614 1.214-2.927 2.707-2.927.278 0 .548.051.8.136v-2.73c-3.202.075-5.787 2.918-5.787 6.406 0 1.685.605 3.22 1.593 4.368a5.607 5.607 0 0 0 3.398 1.163c3.267 0 5.93-2.881 5.93-6.416z" fill="#fff"/>
</svg>
