<svg width="32" height="32" viewBox="0 0 32 32" fill="none" xmlns="http://www.w3.org/2000/svg">
<rect width="32" height="32" rx="5" fill="#2AA9E0"/>
<rect width="32" height="32" rx="5" stroke="#2AA9E0"/>
<path d="M26 9.89789C25.2645 10.2186 24.4744 10.4353 23.6438 10.5333C24.5008 10.0286 25.142 9.23432 25.4477 8.29863C24.6425 8.7693 23.7612 9.1006 22.8422 9.27812C22.2242 8.62877 21.4057 8.19836 20.5136 8.05374C19.6216 7.90911 18.706 8.05834 17.909 8.47828C17.1119 8.89821 16.4781 9.56535 16.1058 10.3761C15.7336 11.1869 15.6437 12.0959 15.8503 12.9621C14.2187 12.8814 12.6226 12.4641 11.1655 11.7372C9.70847 11.0102 8.42301 9.98991 7.39258 8.74244C7.04025 9.34053 6.83766 10.034 6.83766 10.7725C6.83727 11.4373 7.00364 12.092 7.32201 12.6784C7.64038 13.2648 8.10091 13.7648 8.66273 14.134C8.01117 14.1136 7.37397 13.9403 6.80419 13.6286V13.6806C6.80413 14.6131 7.13189 15.5169 7.73186 16.2386C8.33184 16.9603 9.16707 17.4555 10.0958 17.6402C9.4914 17.8012 8.85769 17.8249 8.24258 17.7096C8.50462 18.5119 9.01506 19.2135 9.70243 19.7162C10.3898 20.2188 11.2197 20.4974 12.0759 20.5128C10.6224 21.6357 8.82735 22.2448 6.97948 22.2421C6.65215 22.2422 6.32509 22.2234 6 22.1858C7.87569 23.3726 10.0591 24.0024 12.2891 24C19.8378 24 23.9644 17.8474 23.9644 12.5113C23.9644 12.338 23.96 12.1629 23.9521 11.9895C24.7548 11.4183 25.4476 10.7109 25.9982 9.90049L26 9.89789V9.89789Z" fill="white"/>
</svg>
