<svg width="24" height="24" viewBox="0 0 24 24" fill="none" xmlns="http://www.w3.org/2000/svg">
    <rect width="24" height="24" rx="5" fill="#212121" fill-opacity=".5"/>
    <path d="M12 4c4.411 0 8 3.588 8 8 0 4.411-3.589 8-8 8a7.932 7.932 0 0 1-3.21-.67.579.579 0 1 1 .465-1.06 6.79 6.79 0 0 0 2.745.572c3.772 0 6.841-3.07 6.841-6.842A6.85 6.85 0 0 0 12 5.158 6.849 6.849 0 0 0 5.158 12c0 1.477.463 2.883 1.34 4.067a.58.58 0 0 1-.932.689A7.932 7.932 0 0 1 4 12c0-4.412 3.589-8 8-8zm-.909 4.824c.178.005.505.127.637.179.815.316 2.324 1.32 3.027 2l.122.124.064.068c.075.08.168.18.19.208a.972.972 0 0 1 .022 1.164c-.023.03-.104.12-.176.199l-.052.055-.039.042c-.651.7-2.263 1.76-3.077 2.103-.005.002-.406.169-.655.203l-.07.006h-.028a.969.969 0 0 1-.853-.52c-.069-.134-.135-.444-.167-.605l-.016-.088-.003-.013c-.076-.462-.119-1.174-.117-1.95-.002-.82.046-1.557.13-2.02.001-.007.081-.425.141-.566a.963.963 0 0 1 .92-.589zm.108 1.216a4 4 0 0 0-.03.147c-.07.384-.112 1.08-.112 1.812 0 .707.038 1.366.104 1.762.008.05.023.126.04.2.057-.024.12-.047.159-.063.74-.312 2.192-1.3 2.677-1.825a.375.375 0 0 0 .047-.048.345.345 0 0 1 .024-.025l-.006-.006-.005-.006-.068-.071c-.501-.537-2.03-1.567-2.724-1.837a8.748 8.748 0 0 0-.106-.04z" fill="#fff"/>
</svg>
