<svg width="273" height="37" viewBox="0 0 273 37" fill="none" xmlns="http://www.w3.org/2000/svg">
    <path d="M1.734 4.938H7.77c1.296 0 2.402.195 3.316.585.914.391 1.613.97 2.098 1.735.492.758.738 1.695.738 2.812 0 .852-.156 1.602-.469 2.25a4.576 4.576 0 0 1-1.324 1.64c-.57.438-1.25.778-2.04 1.02l-.89.434H3.773l-.023-2.332h4.066c.704 0 1.29-.125 1.758-.375.469-.25.82-.59 1.055-1.02.242-.437.363-.93.363-1.476 0-.594-.117-1.11-.351-1.547a2.264 2.264 0 0 0-1.055-1.02c-.477-.242-1.082-.363-1.816-.363H4.676V22H1.734V4.937zM11.473 22l-4.008-7.664 3.082-.012 4.066 7.524V22h-3.14zm10.687.234c-.937 0-1.785-.152-2.543-.457a5.616 5.616 0 0 1-1.922-1.3 5.767 5.767 0 0 1-1.207-1.957 6.852 6.852 0 0 1-.422-2.426v-.469c0-.992.145-1.89.434-2.695.29-.805.691-1.492 1.207-2.063a5.187 5.187 0 0 1 1.828-1.324 5.685 5.685 0 0 1 2.285-.457c.907 0 1.7.152 2.38.457.679.305 1.241.734 1.687 1.289.453.547.789 1.2 1.008 1.957.226.758.34 1.594.34 2.508v1.207h-9.797v-2.027h7.007v-.223a3.965 3.965 0 0 0-.304-1.43 2.43 2.43 0 0 0-.832-1.078c-.375-.273-.875-.41-1.5-.41-.47 0-.887.101-1.254.305-.36.195-.66.48-.903.855-.242.375-.43.828-.562 1.36a7.638 7.638 0 0 0-.188 1.769v.469c0 .554.075 1.07.223 1.547.156.468.383.879.68 1.23.297.352.656.629 1.078.832.422.195.902.293 1.441.293.68 0 1.285-.137 1.817-.41.53-.273.992-.66 1.382-1.16l1.489 1.441a5.803 5.803 0 0 1-1.067 1.149c-.437.359-.972.652-1.605.879-.625.226-1.352.34-2.18.34zM32.285 4v18H29.45V4h2.836zm7.875 5.32-5.52 6.117-3.023 3.094-.738-2.39 2.285-2.825L36.75 9.32h3.41zM37.36 22l-4.114-5.953 1.781-1.98L40.63 22h-3.27zM66.277 11.898V22h-2.824V9.32h2.66l.164 2.578zm-.457 3.293-.96-.011c0-.875.109-1.684.328-2.426.218-.742.539-1.387.96-1.934.422-.554.946-.98 1.57-1.277.634-.305 1.364-.457 2.192-.457.578 0 1.106.086 1.582.258.485.164.902.426 1.254.785.36.36.633.82.82 1.383.196.562.293 1.242.293 2.039V22h-2.824v-8.203c0-.617-.094-1.102-.281-1.453a1.559 1.559 0 0 0-.785-.75c-.336-.156-.738-.235-1.207-.235-.531 0-.985.102-1.36.305-.367.203-.668.48-.902.832a3.727 3.727 0 0 0-.516 1.219c-.109.46-.164.953-.164 1.476zm7.864-.75-1.325.293c0-.765.106-1.488.317-2.168.218-.687.535-1.289.949-1.804a4.455 4.455 0 0 1 1.559-1.23c.617-.298 1.324-.446 2.12-.446.65 0 1.227.09 1.735.27.516.171.953.445 1.313.82.359.375.632.863.82 1.465.187.593.281 1.312.281 2.156V22h-2.836v-8.215c0-.64-.094-1.137-.281-1.488a1.458 1.458 0 0 0-.773-.727c-.336-.14-.739-.21-1.207-.21-.438 0-.825.081-1.16.245a2.301 2.301 0 0 0-.833.668 2.974 2.974 0 0 0-.515.973 4.17 4.17 0 0 0-.164 1.195zm16.265 7.793c-.937 0-1.785-.152-2.543-.457a5.615 5.615 0 0 1-1.922-1.3 5.767 5.767 0 0 1-1.207-1.957 6.854 6.854 0 0 1-.421-2.426v-.469c0-.992.144-1.89.433-2.695.29-.805.692-1.492 1.207-2.063a5.187 5.187 0 0 1 1.828-1.324 5.685 5.685 0 0 1 2.285-.457c.907 0 1.7.152 2.38.457.679.305 1.242.734 1.687 1.289.453.547.789 1.2 1.008 1.957.226.758.34 1.594.34 2.508v1.207h-9.797v-2.027h7.007v-.223a3.965 3.965 0 0 0-.304-1.43 2.43 2.43 0 0 0-.832-1.078c-.375-.273-.875-.41-1.5-.41-.47 0-.887.101-1.254.305-.36.195-.66.48-.903.855-.242.375-.43.828-.562 1.36a7.638 7.638 0 0 0-.188 1.769v.469c0 .554.075 1.07.223 1.547.156.468.383.879.68 1.23.297.352.656.629 1.078.832.422.195.902.293 1.441.293.68 0 1.285-.137 1.817-.41.53-.273.992-.66 1.382-1.16l1.489 1.441a5.806 5.806 0 0 1-1.067 1.149c-.437.359-.972.652-1.605.879-.625.226-1.352.34-2.18.34zm10.078-10.207V22h-2.824V9.32h2.66l.164 2.707zm-.504 3.164-.914-.011c.008-.899.133-1.723.375-2.473.25-.75.594-1.395 1.032-1.934a4.548 4.548 0 0 1 1.593-1.242c.618-.297 1.305-.445 2.063-.445.609 0 1.16.086 1.652.258.5.164.926.433 1.278.808.359.375.632.864.82 1.465.187.594.281 1.324.281 2.192V22h-2.836v-8.203c0-.61-.09-1.09-.269-1.442a1.508 1.508 0 0 0-.762-.761c-.328-.156-.738-.235-1.231-.235a2.73 2.73 0 0 0-1.3.305c-.383.203-.707.48-.973.832a4.026 4.026 0 0 0-.598 1.219c-.14.46-.21.953-.21 1.476zm18.797 4.184V4h2.836v18h-2.566l-.27-2.625zm-8.25-3.574v-.246c0-.961.114-1.836.34-2.625.227-.797.555-1.48.985-2.051a4.32 4.32 0 0 1 1.57-1.324c.617-.313 1.312-.47 2.086-.47.765 0 1.437.15 2.015.446a4.181 4.181 0 0 1 1.477 1.278c.406.546.73 1.203.973 1.968.242.758.414 1.602.515 2.532v.785a12.653 12.653 0 0 1-.515 2.484c-.243.75-.567 1.399-.973 1.945a4.2 4.2 0 0 1-1.488 1.266c-.578.297-1.254.445-2.028.445-.765 0-1.457-.16-2.074-.48a4.58 4.58 0 0 1-1.558-1.348c-.43-.578-.758-1.258-.985-2.039a9.288 9.288 0 0 1-.34-2.566zm2.825-.246v.246c0 .578.05 1.117.152 1.617.109.5.277.941.504 1.324.226.375.519.672.879.89.367.212.804.317 1.312.317.641 0 1.168-.14 1.582-.422.414-.28.738-.66.973-1.136a5.29 5.29 0 0 0 .492-1.618v-2.12a5.159 5.159 0 0 0-.293-1.29 3.46 3.46 0 0 0-.574-1.043 2.418 2.418 0 0 0-.902-.703c-.352-.172-.77-.258-1.254-.258-.516 0-.954.11-1.313.329a2.67 2.67 0 0 0-.891.902 4.447 4.447 0 0 0-.503 1.336 7.686 7.686 0 0 0-.164 1.629zm18.363 3.902V13.41c0-.453-.082-.844-.246-1.172a1.722 1.722 0 0 0-.75-.761c-.328-.18-.742-.27-1.242-.27-.461 0-.86.078-1.196.234a1.935 1.935 0 0 0-.785.633 1.53 1.53 0 0 0-.281.903h-2.813c0-.5.121-.985.364-1.454a3.88 3.88 0 0 1 1.054-1.253 5.268 5.268 0 0 1 1.653-.868c.64-.21 1.359-.316 2.156-.316.953 0 1.797.16 2.531.48a3.85 3.85 0 0 1 1.746 1.454c.43.64.645 1.445.645 2.414v5.636c0 .578.039 1.098.117 1.559.086.453.207.848.363 1.183V22h-2.894a4.985 4.985 0 0 1-.317-1.16 9.515 9.515 0 0 1-.105-1.383zm.41-5.168.023 1.746h-2.027c-.523 0-.984.05-1.383.152-.398.094-.73.235-.996.422a1.828 1.828 0 0 0-.597.68c-.133.266-.2.566-.2.902 0 .336.078.645.235.926.156.274.382.488.679.645.305.156.672.234 1.102.234.578 0 1.082-.117 1.512-.351.437-.243.781-.536 1.031-.88.25-.35.383-.683.398-.995l.914 1.253c-.093.32-.254.665-.48 1.032a5.018 5.018 0 0 1-.891 1.054 4.428 4.428 0 0 1-1.3.809c-.5.21-1.079.316-1.735.316-.828 0-1.566-.164-2.215-.492-.648-.336-1.156-.785-1.523-1.348a3.496 3.496 0 0 1-.551-1.933c0-.672.125-1.266.375-1.781.258-.524.633-.961 1.125-1.313.5-.351 1.109-.617 1.828-.797.719-.187 1.539-.28 2.461-.28h2.215zm12.492 4.277c0-.28-.07-.535-.211-.761-.14-.235-.41-.446-.808-.633-.391-.188-.969-.36-1.735-.516a14.92 14.92 0 0 1-1.851-.527 5.86 5.86 0 0 1-1.43-.762 3.214 3.214 0 0 1-.926-1.055c-.219-.406-.328-.874-.328-1.406 0-.515.113-1.004.34-1.465.227-.46.551-.867.973-1.218a4.721 4.721 0 0 1 1.535-.832c.609-.204 1.289-.305 2.039-.305 1.062 0 1.972.18 2.73.539.766.352 1.352.832 1.758 1.441.406.602.609 1.282.609 2.04h-2.824a1.8 1.8 0 0 0-.258-.938 1.795 1.795 0 0 0-.75-.715c-.335-.187-.757-.281-1.265-.281-.485 0-.887.078-1.207.234-.313.149-.547.344-.703.586a1.491 1.491 0 0 0-.223.797c0 .211.039.402.117.574.086.164.227.317.422.457.195.133.461.258.797.375.344.117.773.23 1.289.34.969.203 1.801.465 2.496.785.703.313 1.242.72 1.617 1.22.375.491.563 1.116.563 1.874a3.31 3.31 0 0 1-.364 1.547 3.505 3.505 0 0 1-1.031 1.207c-.453.336-.996.598-1.629.785-.625.188-1.328.281-2.109.281-1.148 0-2.121-.203-2.918-.609-.797-.414-1.402-.941-1.816-1.582-.407-.648-.61-1.32-.61-2.016h2.731c.031.524.175.942.433 1.254.266.305.594.528.985.668.398.133.808.2 1.23.2.508 0 .934-.067 1.277-.2.344-.14.606-.328.786-.562.179-.242.269-.516.269-.82zm8.262-9.246V22h-2.836V9.32h2.836zm-3.024-3.328c0-.43.141-.785.422-1.066.289-.29.688-.434 1.196-.434.5 0 .894.145 1.183.434.289.281.434.636.434 1.066 0 .422-.145.774-.434 1.055-.289.281-.683.422-1.183.422-.508 0-.907-.14-1.196-.422a1.432 1.432 0 0 1-.422-1.055zm21.95-1.054h2.929V16.34c0 1.297-.281 2.383-.843 3.258a5.308 5.308 0 0 1-2.297 1.98c-.961.438-2.035.656-3.223.656-1.226 0-2.32-.218-3.281-.656a5.242 5.242 0 0 1-2.274-1.98c-.547-.875-.82-1.961-.82-3.258V4.938h2.93V16.34c0 .82.14 1.496.422 2.027.281.524.679.91 1.195 1.16.516.25 1.125.375 1.828.375.703 0 1.309-.125 1.816-.375.516-.25.915-.636 1.196-1.16.281-.531.422-1.207.422-2.027V4.938zm8.648 7.09V22h-2.824V9.32h2.66l.164 2.707zm-.504 3.163-.914-.011c.008-.899.133-1.723.375-2.473.25-.75.594-1.395 1.031-1.934a4.56 4.56 0 0 1 1.594-1.242c.617-.297 1.305-.445 2.063-.445.609 0 1.16.086 1.652.258.5.164.926.433 1.277.808.36.375.633.864.821 1.465.187.594.281 1.324.281 2.192V22h-2.836v-8.203c0-.61-.09-1.09-.27-1.442a1.503 1.503 0 0 0-.761-.761c-.328-.156-.739-.235-1.231-.235-.484 0-.918.102-1.301.305-.382.203-.707.48-.972.832a4.036 4.036 0 0 0-.598 1.219 5.023 5.023 0 0 0-.211 1.476zm16.875-5.87v2.062h-7.148V9.32h7.148zm-5.086-3.106h2.824v12.281c0 .39.055.692.165.902.117.204.277.34.48.41.203.07.441.106.715.106.195 0 .383-.012.562-.035.18-.024.325-.047.434-.07l.012 2.156a7.19 7.19 0 0 1-.821.187 6.012 6.012 0 0 1-1.054.082c-.649 0-1.223-.113-1.723-.34-.5-.234-.891-.613-1.172-1.136-.281-.524-.422-1.219-.422-2.086V6.215zm14.895 12.797V9.32h2.836V22h-2.672l-.164-2.988zm.398-2.637.949-.023c0 .851-.093 1.636-.281 2.355a5.443 5.443 0 0 1-.867 1.863 4.061 4.061 0 0 1-1.5 1.23c-.609.29-1.34.434-2.191.434-.618 0-1.184-.09-1.7-.27a3.487 3.487 0 0 1-1.336-.831c-.367-.375-.652-.863-.855-1.465-.203-.602-.305-1.32-.305-2.156V9.32h2.824v8.215c0 .461.055.848.165 1.16.109.305.257.551.445.739.187.187.406.32.656.398.25.078.516.117.797.117.805 0 1.437-.156 1.898-.469.469-.32.801-.75.997-1.289.203-.539.304-1.144.304-1.816zM214.754 4v18h-2.836V4h2.836zm7.875 5.32-5.52 6.117-3.023 3.094-.738-2.39 2.285-2.825 3.586-3.996h3.41zM219.828 22l-4.113-5.953 1.781-1.98L223.098 22h-3.27zm7.418-10.102V22h-2.824V9.32h2.66l.164 2.578zm-.457 3.293-.961-.011c0-.875.11-1.684.328-2.426a5.83 5.83 0 0 1 .961-1.934c.422-.554.945-.98 1.571-1.277.632-.305 1.363-.457 2.191-.457.578 0 1.105.086 1.582.258.484.164.902.426 1.254.785.359.36.633.82.82 1.383.195.562.293 1.242.293 2.039V22h-2.824v-8.203c0-.617-.094-1.102-.281-1.453a1.562 1.562 0 0 0-.785-.75c-.336-.156-.739-.235-1.208-.235-.531 0-.984.102-1.359.305-.367.203-.668.48-.902.832a3.707 3.707 0 0 0-.516 1.219 6.403 6.403 0 0 0-.164 1.476zm7.863-.75-1.324.293c0-.765.106-1.488.317-2.168.218-.687.535-1.289.949-1.804a4.455 4.455 0 0 1 1.558-1.23c.618-.298 1.325-.446 2.121-.446.649 0 1.227.09 1.735.27.515.171.953.445 1.312.82.36.375.633.863.821 1.465.187.593.281 1.312.281 2.156V22h-2.836v-8.215c0-.64-.094-1.137-.281-1.488a1.46 1.46 0 0 0-.774-.727c-.336-.14-.738-.21-1.207-.21-.437 0-.824.081-1.16.245a2.306 2.306 0 0 0-.832.668 2.984 2.984 0 0 0-.516.973 4.184 4.184 0 0 0-.164 1.195zm18.305 4.57v-9.69h2.836V22h-2.672l-.164-2.988zm.398-2.636.95-.023c0 .851-.094 1.636-.282 2.355a5.443 5.443 0 0 1-.867 1.863c-.39.524-.89.934-1.5 1.23-.609.29-1.34.434-2.191.434a5.13 5.13 0 0 1-1.699-.27 3.48 3.48 0 0 1-1.336-.831c-.368-.375-.653-.863-.856-1.465-.203-.602-.304-1.32-.304-2.156V9.32h2.824v8.215c0 .461.054.848.164 1.16.109.305.258.551.445.739.188.187.406.32.656.398.25.078.516.117.797.117.805 0 1.438-.156 1.899-.469.468-.32.8-.75.996-1.289.203-.539.304-1.144.304-1.816z" fill="#212121"/>
    <path d="M48.303 22.061V34.83l-2.452 1.557V22.061h2.452zM56.088 22.061v14.317l-2.452-1.55V22.062h2.452z" fill="#FFE600"/>
    <path d="M51 23.848c4.486 0 8.123-3.634 8.123-8.117 0-4.483-3.637-8.118-8.123-8.118-4.486 0-8.123 3.635-8.123 8.118 0 4.483 3.637 8.117 8.123 8.117z" fill="#2C72AE"/>
    <path d="M51 21.397a5.675 5.675 0 0 1-5.67-5.667A5.675 5.675 0 0 1 51 10.063a5.675 5.675 0 0 1 5.67 5.667A5.675 5.675 0 0 1 51 21.397z" fill="#fff"/>
    <path d="M59.736 15.73C59.736 10.916 55.817 7 51 7s-8.736 3.916-8.736 8.73a8.71 8.71 0 0 0 2.973 6.556v14.101a.613.613 0 0 0 .942.517l4.785-3.039 4.797 3.031a.613.613 0 0 0 .94-.518V22.34a8.711 8.711 0 0 0 3.035-6.61zm-16.246 0c0-4.138 3.37-7.504 7.51-7.504 4.141 0 7.51 3.366 7.51 7.504S55.14 23.235 51 23.235c-4.14 0-7.51-3.367-7.51-7.505zm2.974 7.459c.39.237.8.445 1.226.62v10.683l-1.226.78V23.188zm4.5 9.338a.612.612 0 0 0-.33.095l-1.718 1.092v-9.505a8.729 8.729 0 0 0 4.107.015v9.492l-1.732-1.095a.613.613 0 0 0-.328-.094zm4.511 2.738-1.226-.774V23.834a8.706 8.706 0 0 0 1.226-.609v12.04z" fill="#231F20"/>
    <path d="M51 22.01c3.465 0 6.284-2.817 6.284-6.28 0-3.462-2.82-6.28-6.284-6.28-3.465 0-6.284 2.818-6.284 6.28 0 3.463 2.82 6.28 6.284 6.28zm0-11.333a5.061 5.061 0 0 1 5.058 5.054A5.061 5.061 0 0 1 51 20.784a5.061 5.061 0 0 1-5.058-5.053A5.061 5.061 0 0 1 51 10.677z" fill="#231F20"/>
    <path d="m48 15.5 2 2 4-3.5" stroke="#16B898" stroke-linecap="round"/>
    <path fill="#2C72AE" d="M0 28h20v2H0z"/>
</svg>
