<?xml version="1.0" encoding="utf-8"?>
<!-- Generator: Adobe Illustrator 25.0.0, SVG Export Plug-In . SVG Version: 6.00 Build 0)  -->
<svg version="1.1" id="Layer_1" xmlns="http://www.w3.org/2000/svg" xmlns:xlink="http://www.w3.org/1999/xlink" x="0px" y="0px"
	 viewBox="0 0 1000 1000" style="enable-background:new 0 0 1000 1000;" xml:space="preserve">
<style type="text/css">
	.st0{fill:#174680;}
	.st1{fill:#FFFFFF;}
</style>
<g>
	<g>
		<g>
			<g>
				<g>
					<g>
						<path class="st0" d="M499.5,986.4c-65.7,0-129.5-12.9-189.5-38.3c-58-24.5-110.1-59.6-154.8-104.4
							C110.5,799.1,75.4,747,50.8,689c-25.4-60-38.3-123.8-38.3-189.5c0-65.7,12.9-129.5,38.3-189.5c24.5-58,59.6-110.1,104.4-154.8
							C199.9,110.5,252,75.4,310,50.8c60-25.4,123.8-38.3,189.5-38.3c65.7,0,129.5,12.9,189.5,38.3c58,24.5,110.1,59.6,154.8,104.4
							c44.7,44.7,79.8,96.8,104.4,154.8c25.4,60,38.3,123.8,38.3,189.5c0,65.7-12.9,129.5-38.3,189.5
							c-24.5,58-59.6,110.1-104.4,154.8C799.1,888.5,747,923.6,689,948.2C629,973.6,565.2,986.4,499.5,986.4z"/>
						<path class="st1" d="M499.5,22C763.2,22,977,235.8,977,499.5v0C977,763.2,763.2,977,499.5,977h0C235.8,977,22,763.2,22,499.5
							v0C22,235.8,235.8,22,499.5,22L499.5,22 M499.5,3.1c-67,0-132,13.1-193.2,39c-59.1,25-112.2,60.8-157.8,106.4
							c-45.6,45.6-81.4,98.7-106.4,157.8c-25.9,61.2-39,126.2-39,193.2c0,67,13.1,132,39,193.2c25,59.1,60.8,112.2,106.4,157.8
							c45.6,45.6,98.7,81.4,157.8,106.4c61.2,25.9,126.2,39,193.2,39c67,0,132-13.1,193.2-39c59.1-25,112.2-60.8,157.8-106.4
							c45.6-45.6,81.4-98.7,106.4-157.8c25.9-61.2,39-126.2,39-193.2c0-67-13.1-132-39-193.2c-25-59.1-60.8-112.2-106.4-157.8
							c-45.6-45.6-98.7-81.4-157.8-106.4C631.5,16.2,566.5,3.1,499.5,3.1L499.5,3.1z"/>
					</g>
				</g>
			</g>
		</g>
	</g>
	<path class="st1" d="M796,416.2v-77.3c0-6-4.9-10.9-10.9-10.9H213.9c-6,0-10.9,4.9-10.9,10.9v77.3c0,5.3,4,9.9,9.3,10.5
		c36.6,4.6,64.9,35.8,64.9,73.7c0,37.9-28.3,69.2-64.9,73.7c-5.3,0.7-9.3,5.2-9.3,10.5v77.3c0,6,4.9,10.9,10.9,10.9h571.2
		c6,0,10.9-4.9,10.9-10.9v-77.3c0-5.3-4-9.9-9.3-10.5c-36.6-4.6-64.9-35.8-64.9-73.7c0-37.9,28.3-69.2,64.9-73.7
		C792,426.1,796,421.6,796,416.2z M573,561.7c0,12.4,0,18.5-2.4,23.3c-2.1,4.2-5.5,7.5-9.6,9.6c-4.7,2.4-10.9,2.4-23.2,2.4H425.3
		c-32.3,0-48.5,0-60.8-6.3c-10.9-5.5-19.7-14.4-25.2-25.3c-6.3-12.4-6.3-28.5-6.3-60.9v-59.2c0-12.4,0-18.5,2.4-23.3
		c2.1-4.2,5.5-7.5,9.6-9.6c4.7-2.4,10.9-2.4,23.2-2.4h112.4c32.3,0,48.5,0,60.8,6.3c10.9,5.5,19.7,14.4,25.2,25.3
		c6.3,12.4,6.3,28.6,6.3,60.9V561.7z M667,569.3c0,9.8,0,14.7-1.4,17.6c-2.8,5.8-9.3,8.8-15.5,7.3c-3-0.8-6.8-3.9-14.4-10.2
		L605,558.2c-5-4.2-7.5-6.3-9.6-8.7c-4-4.8-6.8-10.6-7.9-16.8c-0.5-3.1-0.5-6.4-0.5-12.9v-33.3c0-8.3,0-11.3,1.1-15.4
		c1.2-4.3,3.1-8.4,5.6-12.1c2.4-3.5,4.7-5.5,11.2-10.8l30.8-25.7c7.6-6.3,11.3-9.4,14.4-10.2c6.2-1.5,12.7,1.5,15.5,7.3
		c1.4,2.8,1.4,7.7,1.4,17.6V569.3z"/>
</g>
</svg>
