<svg xmlns="http://www.w3.org/2000/svg" viewBox="-111 569.8 256.1 777.2"><path d="M137.5 1210.7L2.4 1339.8c-10.2 9.6-26 9.6-36.2 0l-69.7-66.6c-9.6-9-10.1-24-1.1-33.5l1.1-1.1c10.2-9.6 26-9.6 36.2 0l51.6 49.3 117-111.8c10.2-9.6 26-9.6 36.2 0 9.6 9 10.1 24 1.1 33.5-.4.4-.7.8-1.1 1.1z" fill="#01b22e"/><path d="M119.3 878l25.8 25.8-101.8 101.8 101 101-25.9 25.8-100.2-100.2L-83.6 1134l-26.6-26.6L-10 1007.2l-101-101 28.2-28.2L19 978.2 119.3 878z" fill="#3e3e3e"/><path d="M113.4 569.8l31.6 31.6-95.9 95.9 94.9 94.9-31.6 31.6-93.9-93.9-95.9 95.9-32.6-32.6 93.9-93.9-94.9-94.9 34.6-34.6 95.9 93.9 93.9-93.9z" fill="#c92746"/></svg>