<svg width="34" height="34" viewBox="0 0 34 34" fill="none" xmlns="http://www.w3.org/2000/svg">
<rect x="1" y="1" width="32" height="32" rx="7.31429" fill="white"/>
<path d="M11.925 8.5L6.85059 11.6875L11.925 14.875L17.0003 11.6875L22.0747 14.875L27.1491 11.6875L22.0747 8.5L17.0003 11.6875L11.925 8.5Z" fill="#0061FE"/>
<path d="M11.925 21.2501L6.85059 18.0626L11.925 14.875L17.0003 18.0626L11.925 21.2501Z" fill="#0061FE"/>
<path d="M17.0003 18.0626L22.0747 14.875L27.1491 18.0626L22.0747 21.2501L17.0003 18.0626Z" fill="#0061FE"/>
<path d="M17.0003 25.5L11.925 22.3125L17.0003 19.125L22.0747 22.3125L17.0003 25.5Z" fill="#0061FE"/>
<rect x="0.542857" y="0.542857" width="32.9143" height="32.9143" rx="7.77143" stroke="#A69171" stroke-opacity="0.2" stroke-width="0.914286"/>
</svg>
