<svg xmlns="http://www.w3.org/2000/svg" fill="none" viewBox="0 0 13 16" id="svg_icon_fire" width="100%" height="100%"><defs><radialGradient cx="0" cy="0" gradientTransform="matrix(-9.75213 -.04085 .0647 -15.44366 6.255 16.041)" gradientUnits="userSpaceOnUse" id="sf_b" r="1"><stop offset=".314" stop-color="#FF9800"></stop><stop offset=".662" stop-color="#FF6D00"></stop><stop offset=".972" stop-color="#F44336"></stop></radialGradient><radialGradient cx="0" cy="0" gradientTransform="matrix(-.09376 9.46625 -6.98532 -.06919 7.204 7.035)" gradientUnits="userSpaceOnUse" id="sf_a" r="1"><stop offset=".214" stop-color="#FFF176"></stop><stop offset=".328" stop-color="#FFF27D"></stop><stop offset=".487" stop-color="#FFF48F"></stop><stop offset=".672" stop-color="#FFF7AD"></stop><stop offset=".793" stop-color="#FFF9C4"></stop><stop offset=".822" stop-color="#FFF8BD" stop-opacity=".804"></stop><stop offset=".863" stop-color="#FFF6AB" stop-opacity=".529"></stop><stop offset=".91" stop-color="#FFF38D" stop-opacity=".209"></stop><stop offset=".941" stop-color="#FFF176" stop-opacity="0"></stop></radialGradient></defs><g><path d="M2.573 4.898c-.08.81-.134 2.245.362 2.856 0 0-.234-1.576 1.86-3.553.842-.797 1.037-1.88.742-2.691C5.37 1.05 5.065.67 4.8.404 4.645.248 4.764-.009 4.989 0c1.362.059 3.57.424 4.508 2.696.412.998.442 2.029.246 3.077-.124.669-.566 2.157.442 2.34.72.13 1.068-.422 1.224-.819a.25.25 0 01.412-.075c1.216 1.335 1.32 2.907 1.068 4.26C12.403 14.097 9.657 16 6.93 16 3.523 16 .811 14.118.108 10.713c-.283-1.375-.14-4.095 2.057-6.015.163-.144.43-.016.408.2z" fill="url(#sf_b)"></path><path d="M8.452 10.03c-1.142-1.5-.63-3.211-.35-3.893.037-.09-.063-.175-.143-.12-.491.341-1.498 1.144-1.967 2.273-.634 1.527-.589 2.274-.213 3.187.226.55-.037.666-.169.687-.128.02-.246-.067-.34-.158a2.072 2.072 0 01-.558-.974c-.02-.08-.122-.101-.169-.036-.352.496-.534 1.292-.543 1.855A3.1 3.1 0 007.086 16c2.148 0 3.713-2.423 2.478-4.448-.358-.59-.695-.975-1.112-1.522z" fill="url(#sf_a)"></path></g></svg>