<svg height="32" viewBox="0 0 32 32" width="32" xmlns="http://www.w3.org/2000/svg"><g fill="none" fill-rule="evenodd"><path d="m0 0h32v32h-32z" opacity=".1"/><path d="m6.027 23.722c0 1.272 1.059 2.304 2.366 2.304s2.366-1.032 2.366-2.304v-3.944c0-1.273-1.06-2.305-2.366-2.305-1.307 0-2.366 1.032-2.366 2.305v1.791a1 1 0 0 1 -1.014.987 1 1 0 0 1 -1.013-.987v-1.791c0-1.514.808-2.845 2.027-3.605zm2.366-8.222c2.426 0 4.393 1.915 4.393 4.278v3.944c0 2.362-1.967 4.278-4.393 4.278s-4.393-1.916-4.393-4.278v-8.548c0-6.723 5.596-12.174 12.5-12.174s12.5 5.45 12.5 12.174v6.245a1 1 0 0 1 -1.013.987 1 1 0 0 1 -1.014-.987v-1.64c0-1.273-1.06-2.306-2.368-2.306-1.307 0-2.368 1.033-2.368 2.307v3.94c0 1.274 1.06 2.306 2.368 2.306s2.368-1.032 2.368-2.306v-7.547c1.22.761 2.027 2.092 2.027 3.607v3.94c0 2.364-1.968 4.28-4.395 4.28s-4.394-1.916-4.394-4.28v-3.94c0-2.364 1.967-4.28 4.394-4.28a4.46 4.46 0 0 1 2.368.673v-.999c0-5.633-4.689-10.2-10.473-10.2s-10.473 4.567-10.473 10.2v.999a4.458 4.458 0 0 1 2.366-.673z" fill="#528bcc" fill-rule="nonzero"/></g></svg>