<svg width="32" height="32" viewBox="0 0 32 32" xmlns="http://www.w3.org/2000/svg"><title>smile_32</title><g fill="none" fill-rule="evenodd"><path d="M0 0H32V32H0z"/><path d="M4 15.333C4 8.338 9.671 2.667 16.667 2.667c6.995 0 12.666 5.67 12.666 12.666S23.663 28 16.667 28 4 22.329 4 15.333zm23.333 0c0-5.89-4.775-10.666-10.666-10.666S6 9.442 6 15.333 10.776 26 16.667 26c5.89 0 10.666-4.776 10.666-10.667zm-14.714-.666a1.667 1.667 0 1 1 0-3.334 1.667 1.667 0 0 1 0 3.334zm8 0a1.667 1.667 0 1 1 0-3.334 1.667 1.667 0 0 1 0 3.334z" fill="#528BCC" fill-rule="nonzero"/><path d="M12.013 18.651a5.714 5.714 0 0 0 9.308-.001" stroke="#528BCC" stroke-width="2" stroke-linecap="round" stroke-linejoin="round"/></g></svg>