<svg height="28" viewBox="0 0 28 28" width="28" xmlns="http://www.w3.org/2000/svg"><g fill="none" fill-rule="evenodd"><path d="m0 0h28v28h-28z" opacity=".4"/><g stroke="#5891d2" stroke-width="1.75"><path d="m23.217 12.618v-7.3c0-2.659-2.472-2.242-3.138-2.111-.443.087-2.999.638-7.666 1.65-1.885.364-2.957 1.364-2.963 2.478-.005.931 0 2.09 0 2.09v6.115-5.074c0-.344.66-.44 1.045-.53l12.722-2.85z"/><path d="m9.45 17.57c0 .338-.228.735-.7.735-4.092 0-6.795 1.802-6.533 4.174.281 2.554 2.955 3.114 4.658 2.2 1.383-.742 2.575-1.93 2.563-5.632-.01-3.04.012-1.59.012-2.384v-4.573zm13.767-2.923c0 .34-.182.652-.652.736-2.915.52-6.072 1.285-6.344 3.867-.225 2.136 1.88 3.179 3.316 2.918 2.657-.481 3.678-2.362 3.678-5.951 0-.052.002-.041.002-.092v-6.957 5.48z"/></g></g></svg>