<svg height="32" viewBox="0 0 32 32" width="32" xmlns="http://www.w3.org/2000/svg"><g fill="none" fill-rule="evenodd"><path d="m0 0h32v32h-32z" opacity=".4"/><g fill="#528bcc" fill-rule="nonzero" transform="translate(1.333 2.667)"><path d="m12 13.636 1.697 1.697 1.414-1.414-1.697-1.697 2.627-2.626a1.2 1.2 0 1 1 1.697 1.697l-12.445 12.445a1.2 1.2 0 0 1 -1.697-1.697z"/><path d="m6.40036693 7.59963307 1.72655117-3.26629974-1.72655117-3.26629973 3.26629974 1.72655117 3.26629973-1.72655117-1.7265512 3.26629973 1.7265512 3.26629974-3.26629973-1.72655117z"/><path d="m23 5.20641523-3.2662997 1.72655117 1.7265511-3.26629973-1.7265511-3.26629974 3.2662997 1.72655117 3.2662997-1.72655117-1.7265511 3.26629974 1.7265511 3.26629973z"/><path d="m19.7337003 19.5996331 1.7265511-3.2662998-1.7265511-3.2662997 3.2662997 1.7265512 3.2662997-1.7265512-1.7265511 3.2662997 1.7265511 3.2662998-3.2662997-1.7265512z"/></g></g></svg>