<svg width="28" height="28" viewBox="0 0 28 28" fill="none" xmlns="http://www.w3.org/2000/svg">
    <path d="M14.005 0C8.16 0 6.45.006 6.118.034c-1.2.1-1.946.288-2.759.693A5.589 5.589 0 0 0 1.75 1.905C.862 2.827.324 3.962.13 5.311.034 5.966.007 6.099 0 9.444c-.002 1.115 0 2.582 0 4.55 0 5.842.006 7.55.034 7.882.097 1.168.28 1.902.668 2.706a5.898 5.898 0 0 0 3.822 3.123c.577.149 1.215.23 2.033.27.347.014 3.88.025 7.417.025 3.536 0 7.072-.004 7.41-.021.947-.045 1.497-.119 2.106-.276a5.863 5.863 0 0 0 3.822-3.13c.38-.784.573-1.547.66-2.653.019-.241.027-4.088.027-7.93 0-3.841-.009-7.68-.028-7.922-.088-1.124-.28-1.88-.673-2.68a5.553 5.553 0 0 0-1.198-1.642C25.175.862 24.042.323 22.692.128c-.654-.094-.784-.122-4.13-.128h-4.557z" fill="url(#nlpe8338za)"/>
    <path d="M14.005 0C8.16 0 6.45.006 6.118.034c-1.2.1-1.946.288-2.759.693A5.589 5.589 0 0 0 1.75 1.905C.862 2.827.324 3.962.13 5.311.034 5.966.007 6.099 0 9.444c-.002 1.115 0 2.582 0 4.55 0 5.842.006 7.55.034 7.882.097 1.168.28 1.902.668 2.706a5.898 5.898 0 0 0 3.822 3.123c.577.149 1.215.23 2.033.27.347.014 3.88.025 7.417.025 3.536 0 7.072-.004 7.41-.021.947-.045 1.497-.119 2.106-.276a5.863 5.863 0 0 0 3.822-3.13c.38-.784.573-1.547.66-2.653.019-.241.027-4.088.027-7.93 0-3.841-.009-7.68-.028-7.922-.088-1.124-.28-1.88-.673-2.68a5.553 5.553 0 0 0-1.198-1.642C25.175.862 24.042.323 22.692.128c-.654-.094-.784-.122-4.13-.128h-4.557z" fill="url(#hito5kz43b)"/>
    <path d="M13.998 3.664c-2.807 0-3.16.012-4.262.063-1.1.05-1.851.224-2.509.48a5.061 5.061 0 0 0-1.83 1.192A5.076 5.076 0 0 0 4.202 7.23c-.256.658-.43 1.41-.48 2.51-.049 1.103-.062 1.455-.062 4.263s.013 3.16.063 4.263c.05 1.1.224 1.852.48 2.509.264.68.617 1.257 1.192 1.832.574.575 1.151.929 1.83 1.193.658.256 1.41.43 2.51.48 1.102.05 1.454.063 4.261.063 2.808 0 3.159-.012 4.262-.063 1.1-.05 1.852-.224 2.51-.48a5.058 5.058 0 0 0 1.83-1.193 5.077 5.077 0 0 0 1.192-1.832c.254-.657.429-1.409.48-2.51.05-1.102.063-1.454.063-4.262s-.013-3.16-.063-4.263c-.051-1.1-.226-1.852-.48-2.51a5.076 5.076 0 0 0-1.193-1.83 5.053 5.053 0 0 0-1.83-1.193c-.66-.256-1.41-.43-2.511-.48-1.103-.05-1.454-.063-4.262-.063h.003zm-.927 1.863h.927c2.76 0 3.087.01 4.177.06 1.008.046 1.555.214 1.92.356.482.187.826.411 1.187.773.362.362.586.707.774 1.19.141.363.31.91.356 1.918.05 1.09.06 1.418.06 4.177 0 2.76-.01 3.087-.06 4.177-.046 1.008-.215 1.555-.356 1.919a3.197 3.197 0 0 1-.774 1.188 3.198 3.198 0 0 1-1.188.773c-.364.142-.911.31-1.919.356-1.09.05-1.417.06-4.177.06s-3.087-.01-4.177-.06c-1.007-.046-1.554-.215-1.919-.356a3.201 3.201 0 0 1-1.189-.774 3.204 3.204 0 0 1-.773-1.188c-.142-.364-.31-.911-.356-1.92-.05-1.09-.06-1.416-.06-4.178 0-2.76.01-3.086.06-4.176.046-1.008.214-1.555.356-1.92.187-.482.412-.827.773-1.189a3.208 3.208 0 0 1 1.19-.774c.363-.142.91-.31 1.918-.356.954-.043 1.324-.056 3.25-.058v.002zm6.445 1.717a1.24 1.24 0 1 0 0 2.481 1.24 1.24 0 0 0 0-2.481zm-5.518 1.45a5.31 5.31 0 1 0 .003 10.618 5.31 5.31 0 0 0-.003-10.618zm0 1.863a3.446 3.446 0 1 1 0 6.892 3.446 3.446 0 0 1 0-6.892z" fill="#fff"/>
    <defs>
        <radialGradient id="nlpe8338za" cx="0" cy="0" r="1" gradientUnits="userSpaceOnUse" gradientTransform="matrix(0 -27.7501 25.8097 0 7.438 30.157)">
            <stop stop-color="#FD5"/>
            <stop offset=".1" stop-color="#FD5"/>
            <stop offset=".5" stop-color="#FF543E"/>
            <stop offset="1" stop-color="#C837AB"/>
        </radialGradient>
        <radialGradient id="hito5kz43b" cx="0" cy="0" r="1" gradientUnits="userSpaceOnUse" gradientTransform="matrix(2.43471 12.16311 -50.1368 10.03598 -4.69 2.017)">
            <stop stop-color="#3771C8"/>
            <stop offset=".128" stop-color="#3771C8"/>
            <stop offset="1" stop-color="#60F" stop-opacity="0"/>
        </radialGradient>
    </defs>
</svg>
