<svg xmlns="http://www.w3.org/2000/svg" viewBox="0 0 52 18"><g fill="none" transform="translate(0, 0)"><rect fill="#009100" height="14" rx="2" width="22"></rect><path clip-rule="evenodd" d="M2.87 7.001L11 .933l8.128 6.068L11 13.067 2.87 7z" fill-rule="evenodd" fill="#FFDE3F"></path><path clip-rule="evenodd" d="M10.999 2.818c2.307 0 4.177 1.809 4.177 4.04 0 2.232-1.87 4.04-4.177 4.04-2.307 0-4.177-1.808-4.177-4.04 0-2.231 1.87-4.04 4.177-4.04z" fill-rule="evenodd" fill="#2D6BDB"></path><path clip-rule="evenodd" d="M14.307 8.12c.137.236.487.237.562-.024a.297.297 0 00-.017-.208c-.88-1.876-2.85-3.184-5.141-3.184-.929 0-1.805.216-2.577.597a.236.236 0 00-.11.112c-.093.198.118.386.324.31a5.847 5.847 0 012.04-.364c2.114 0 3.956 1.113 4.92 2.762z" fill-rule="evenodd" fill="#F5F7FA"></path></g><g fill="none" transform="translate(26, 0)"><rect fill="#F63542" height="14" rx="2" width="22"></rect><path clip-rule="evenodd" d="M0 2a2 2 0 012-2h3.657v14H2a2 2 0 01-2-2V2z" fill-rule="evenodd" fill="#009100"></path><path clip-rule="evenodd" d="M5.13 4.681a2.25 2.25 0 110 4.5 2.25 2.25 0 010-4.5z" fill-rule="evenodd" fill="#FFDE3F"></path></g><view id="svg_flf_br" viewBox="0 0 22 14"></view><view id="svg_flf_pt" viewBox="26 0 22 14"></view></svg>