<?xml version="1.0" encoding="utf-8"?><svg width="24" height="592" viewBox="0 0 24 592" xmlns="http://www.w3.org/2000/svg" xmlns:xlink="http://www.w3.org/1999/xlink"><svg width="24" height="16" viewBox="-1 -1 24 16" id="ae" xmlns="http://www.w3.org/2000/svg"><path clip-rule="evenodd" d="M0 0h5.74v14H0V0z" fill-rule="evenodd" fill="#F63542"/><path clip-rule="evenodd" d="M5.727 0H22v4.667H5.727V0z" fill-rule="evenodd" fill="#009100"/><path clip-rule="evenodd" d="M5.739 4.667h16.26v4.666H5.74V4.667z" fill-rule="evenodd" fill="#F5F7FA"/><path clip-rule="evenodd" d="M5.727 9.333H22V14H5.727V9.333z" fill-rule="evenodd"/></svg><svg width="24" height="16" viewBox="-1 -1 24 16" id="bg" y="16" xmlns="http://www.w3.org/2000/svg"><path fill="#F63542" d="M0 9.333h22V14H0z"/><path clip-rule="evenodd" d="M0 0h22v4.766H0V0z" fill-rule="evenodd" fill="#fff"/><path clip-rule="evenodd" d="M0 4.667h22v4.666H0V4.667z" fill-rule="evenodd" fill="#009100"/></svg><svg width="24" height="16" viewBox="-1 -1 24 16" id="br" y="32" xmlns="http://www.w3.org/2000/svg"><path fill="#009100" d="M0 0h22v14H0z"/><path clip-rule="evenodd" d="M2.87 7.001L11 .933l8.129 6.068-8.13 6.066L2.87 7z" fill-rule="evenodd" fill="#FFDE3F"/><path clip-rule="evenodd" d="M10.999 2.818c2.307 0 4.177 1.809 4.177 4.04 0 2.232-1.87 4.04-4.177 4.04-2.307 0-4.177-1.808-4.177-4.04 0-2.231 1.87-4.04 4.177-4.04z" fill-rule="evenodd" fill="#2D6BDB"/><path d="M6.942 5.891c.053-.205.121-.405.204-.596a5.805 5.805 0 0 1 2.565-.59c2.331 0 4.332 1.353 5.187 3.284l.064.148a3.948 3.948 0 0 1-.323.704l-.021-.098c-.83-1.984-2.859-3.384-5.23-3.384-.877 0-1.706.19-2.446.532z" fill="#F5F7FA"/></svg><svg width="24" height="16" fill="none" viewBox="-1 -1 24 16" id="ca" y="48" xmlns="http://www.w3.org/2000/svg"><path fill-rule="evenodd" clip-rule="evenodd" d="M2 0h18c1.105 0 2 .855 2 1.909v10.182C22 13.145 21.105 14 20 14H2c-1.105 0-2-.855-2-1.91V1.91C0 .855.895 0 2 0z" fill="#F5F7FA"/><path fill-rule="evenodd" clip-rule="evenodd" d="M0 0h6v14H0V0zM16 0h6v14h-6V0zM11.257 3.182c-.141-.243-.373-.243-.514 0l-.213.364c-.14.242-.308.468-.372.502-.063.034-.38-.07-.526-.14-.144-.068-.218.095-.163.363l.192.938c.055.268.06.566.01.662-.05.097-.387-.145-.588-.353l-.186-.19c-.202-.208-.4-.27-.44-.138a1.617 1.617 0 0 1-.122.305c-.025.035-.407 0-.71-.058l-.06-.011c-.303-.059-.486.109-.407.372l.018.06c.08.264.17.552.202.64.032.089-.217.26-.331.31-.114.049-.014.234.223.41l1.139.85c.236.177.456.357.489.4.033.044-.008.29-.056.435-.048.145.164.237.472.204l.874-.092c.307-.033.596-.049.64-.036.045.013.07.311.058.584l-.045.942c-.012.272.052.495.144.495.093 0 .162-.223.154-.495l-.025-.938c-.008-.273.007-.522.032-.554.025-.032.359-.03.666.002l.874.092c.308.033.52-.06.472-.204a1.475 1.475 0 0 1-.081-.36c.003-.054.278-.298.514-.475l1.14-.85c.236-.176.336-.361.222-.41a.961.961 0 0 1-.272-.166c-.036-.043.064-.52.143-.783l.018-.06c.079-.264-.104-.432-.407-.373l-.06.011c-.303.059-.593.095-.645.082-.052-.014-.145-.197-.186-.329-.041-.132-.24-.07-.44.137l-.187.191c-.2.208-.455.411-.563.453-.109.041-.07-.494-.015-.762l.192-.938c.055-.268-.019-.431-.163-.362-.145.068-.33.145-.411.169-.081.024-.346-.29-.487-.532l-.213-.364z" fill="#F63542"/></svg><svg width="24" height="16" viewBox="-1 -1 24 16" id="cn" y="64" xmlns="http://www.w3.org/2000/svg"><path fill="#F63542" d="M0 0h22v14H0z"/><path d="M7.692 2.765c-.088.06-.139.026-.113-.076l.094-.381a.34.34 0 0 0-.102-.31l-.285-.242c-.082-.068-.06-.127.046-.13l.4-.01a.287.287 0 0 0 .25-.19l.126-.416c.03-.1.085-.102.121-.003l.15.41c.037.1.154.181.262.182l.408.004c.107.001.128.058.047.128l-.31.265a.323.323 0 0 0-.093.31l.1.334c.03.101-.021.14-.112.084l-.332-.2a.327.327 0 0 0-.325.01l-.332.23zM2.306 7.4c-.26.174-.41.076-.335-.219l.28-1.097c.074-.295-.061-.697-.302-.895l-.846-.694c-.24-.198-.178-.366.139-.375l1.184-.031c.317-.009.65-.254.74-.544l.371-1.199c.09-.29.252-.295.36-.01l.446 1.182c.108.286.455.521.772.524l1.208.012c.317.003.381.168.142.367l-.92.764c-.24.199-.363.6-.274.891l.294.965c.088.291-.06.4-.331.242l-.981-.575c-.27-.159-.704-.146-.964.029l-.983.662zm5.273.874c-.026.102.025.136.113.076l.332-.23a.327.327 0 0 1 .325-.01l.332.2c.091.054.141.017.111-.085l-.099-.335a.323.323 0 0 1 .093-.31l.31-.264c.081-.07.06-.127-.047-.128l-.408-.004a.302.302 0 0 1-.261-.182l-.15-.41c-.037-.1-.092-.098-.122.003l-.126.416a.286.286 0 0 1-.25.19l-.4.01c-.106.003-.128.062-.046.13l.285.241a.34.34 0 0 1 .102.311l-.094.381zm2.291-1.52c-.087.06-.138.027-.112-.076l.094-.38a.34.34 0 0 0-.101-.311l-.286-.241c-.082-.07-.06-.128.047-.13l.4-.012a.286.286 0 0 0 .25-.188l.125-.417c.03-.1.085-.102.121-.003l.15.41c.037.1.155.181.262.182l.408.004c.107.001.128.059.047.128l-.31.265a.323.323 0 0 0-.093.31l.1.335c.03.1-.021.138-.112.083l-.332-.2a.327.327 0 0 0-.325.011l-.332.23zM9.758 4.55c-.026.103.025.137.113.076l.332-.23a.327.327 0 0 1 .325-.01l.332.2c.091.055.141.017.111-.084l-.099-.335a.323.323 0 0 1 .093-.31l.31-.265c.081-.069.06-.126-.047-.127l-.408-.004a.302.302 0 0 1-.261-.182l-.15-.41c-.037-.1-.092-.098-.122.003l-.126.416a.286.286 0 0 1-.25.189l-.4.01c-.106.004-.128.062-.046.13l.286.242a.34.34 0 0 1 .101.31l-.094.382z" fill="#FFDE3F"/></svg><svg width="24" height="16" viewBox="-1 -1 24 16" id="cz" y="80" xmlns="http://www.w3.org/2000/svg"><path d="M0 0h22v7H0V0z" fill="#fff"/><path d="M22 7H0v7h22V7z" fill="#F63542"/><path d="M0 14V0l9 7-9 7z" fill="#2D6BDB"/></svg><svg width="24" height="16" viewBox="-1 -1 24 16" id="de" y="96" xmlns="http://www.w3.org/2000/svg"><path d="M0 0h22v5H0V0z"/><path fill="#FFDE3F" d="M0 9h22v5H0z"/><path fill="#F63542" d="M0 5h22v4H0z"/></svg><svg width="24" height="16" viewBox="-1 -1 24 16" id="dk" y="112" xmlns="http://www.w3.org/2000/svg"><path fill="#F63542" d="M0 0h22v14H0z"/><path d="M7.664 0H4.79v5.609H0v2.79h4.79V14h2.874V8.398H22v-2.79H7.664V0z" fill="#fff"/></svg><svg width="24" height="16" viewBox="-1 -1 24 16" id="ee" y="128" xmlns="http://www.w3.org/2000/svg"><path fill="#fff" d="M0 9h22v5H0z"/><path clip-rule="evenodd" d="M0 0h22v5H0V0z" fill-rule="evenodd" fill="#2D6BDB"/><path clip-rule="evenodd" d="M0 5h22v4H0V5z" fill-rule="evenodd" fill="#131313"/></svg><svg width="24" height="16" viewBox="-1 -1 24 16" id="es" y="144" xmlns="http://www.w3.org/2000/svg"><path fill="#FFDE3F" d="M0 1.867h22V11.2H0z"/><path clip-rule="evenodd" d="M0 0h22v2.8H0V0zm0 11.2h22V14H0v-2.8zm4.754-6.322c-.703 0-1.083-.479-1.083-.479s-.382.479-1.084.479c-.648 0-1.085-.397-1.085-.397v2.596c.02 1.711 2.166 2.419 2.166 2.419s2.166-.708 2.166-2.419V4.481s-.433.397-1.08.397z" fill-rule="evenodd" fill="#F63542"/></svg><svg width="24" height="16" viewBox="-1 -1 24 16" id="fi" y="160" xmlns="http://www.w3.org/2000/svg"><path fill="#fff" d="M0 0h22v14H0z"/><path d="M7.664 0H4.79v5.609H0v2.79h4.79V14h2.874V8.398H22v-2.79H7.664V0z" fill="#2D6BDB"/></svg><svg width="24" height="16" viewBox="-1 -1 24 16" id="fr" y="176" xmlns="http://www.w3.org/2000/svg"><path clip-rule="evenodd" d="M0 0h7.333v14H0V0z" fill-rule="evenodd" fill="#2D6BDB"/><path clip-rule="evenodd" d="M14.667 0H22v14h-7.333V0z" fill-rule="evenodd" fill="#F63542"/><path fill="#fff" d="M7.333 0h7.333v14H7.333z"/></svg><svg width="24" height="16" viewBox="-1 -1 24 16" id="gb" y="192" xmlns="http://www.w3.org/2000/svg"><path clip-rule="evenodd" d="M2.006 0H19.99c1.104 0 1.998.855 1.998 1.908v10.18c0 1.053-.894 1.908-1.998 1.908H2.006c-1.104 0-1.998-.855-1.998-1.909V1.909C.008.855.902 0 2.006 0z" fill-rule="evenodd" fill="#2D6BDB"/><path clip-rule="evenodd" d="M22 12.434l-5.1-3.092H22v-3.73h-4.83L22 2.675V.01h-1.877l-7.68 4.667V.01H8.595v4.297L1.508.01H0v2.47l5.163 3.131H.007v3.731h4.76L0 12.24V14h3.368l5.227-3.178V14h3.848v-3.975L19 14h3v-1.566z" fill-rule="evenodd" fill="#fff"/><path clip-rule="evenodd" d="M0 14h1.34l8.22-5.064V14h1.917V8.5l8.95 5.5H22v-.285L13.372 8.41h8.616V6.54h-8.533L22 1.276V.014l-10.522 6.48V.01H9.561v6.06L0 .192v1.252L8.288 6.54H0v1.87h8.364L0 13.563V14z" fill-rule="evenodd" fill="#F63542"/></svg><svg width="24" height="16" viewBox="-1 -1 24 16" id="gr" y="208" xmlns="http://www.w3.org/2000/svg"><path fill="#fff" d="M0 0h22v14H0z"/><path d="M22 0H0v8.408h22v-1.89H9.561v-.923H22V3.73H9.561v-.943H22V0zm0 9.34H0v1.858h22V9.34zM0 12.13h22v1.857H0V12.13z" fill="#2D6BDB"/><path d="M5.731 0H3.816v3.722H0V5.61h3.816v2.798H5.73V5.61h3.83V3.722H5.73V0z" fill="#fff"/></svg><svg width="24" height="16" viewBox="-1 -1 24 16" id="hr" y="224" xmlns="http://www.w3.org/2000/svg"><path clip-rule="evenodd" d="M0 9.333h22V14H0V9.333z" fill-rule="evenodd" fill="#2D6BDB"/><path clip-rule="evenodd" d="M0 4.672V0h22v4.672H0z" fill-rule="evenodd" fill="#F63542"/><path fill="#fff" d="M0 4.667h22v4.667H0z"/><path clip-rule="evenodd" d="M13.005 2.938c-1.299 0-2-.938-2-.938s-.704.938-2.003.938C7.807 2.938 7 2.16 7 2.16v5.097C7.036 10.613 11 12 11 12s4-1.387 4-4.744V2.159s-.8.78-1.995.78z" fill-rule="evenodd" fill="#F5F7FA"/><path clip-rule="evenodd" d="M12.504 3.75c-.974 0-1.5-.75-1.5-.75s-.528.75-1.502.75C8.605 3.75 8 3.128 8 3.128v4.078C8.027 9.89 11 11 11 11s3-1.11 3-3.795V3.127s-.6.624-1.496.624z" fill-rule="evenodd" fill="#F63542"/></svg><svg width="24" height="16" viewBox="-1 -1 24 16" id="hu" y="240" xmlns="http://www.w3.org/2000/svg"><path fill="#009100" d="M0 9.333h22V14H0z"/><path clip-rule="evenodd" d="M0 0h22v4.766H0V0z" fill-rule="evenodd" fill="#F63542"/><path clip-rule="evenodd" d="M0 4.766h22v4.766H0V4.766z" fill-rule="evenodd" fill="#fff"/></svg><svg width="24" height="16" viewBox="-1 -1 24 16" id="il" y="256" xmlns="http://www.w3.org/2000/svg"><path clip-rule="evenodd" d="M2 0h18c1.105 0 2 .855 2 1.91v10.18c0 1.055-.895 1.91-2 1.91H2c-1.105 0-2-.855-2-1.91V1.91C0 .854.895 0 2 0z" fill-rule="evenodd" fill="#F5F7FA"/><path clip-rule="evenodd" d="M14.563 5.666c.086-.129.017-.234-.151-.234h-1.666a.622.622 0 0 1-.464-.232l-.84-1.241c-.086-.128-.226-.127-.31.002l-.817 1.237a.612.612 0 0 1-.462.234H8.188c-.168 0-.237.105-.151.234L8.88 6.93a.456.456 0 0 1 0 .467L8.037 8.66c-.086.129-.017.234.151.234h1.665a.61.61 0 0 1 .462.234l.816 1.238c.085.129.224.129.309 0l.816-1.238a.612.612 0 0 1 .462-.234h1.694c.168 0 .237-.105.151-.233l-.843-1.265a.457.457 0 0 1 0-.467l.843-1.264zm-3.335-.335c.031-.056.09-.056.13 0 .04.056.014.101-.058.101-.071 0-.104-.045-.072-.101zm-1.702 2.8c-.08 0-.112-.046-.072-.102.04-.056.104-.056.144 0 .04.056.007.102-.072.102zm.072-1.833c-.04.056-.105.056-.144 0-.04-.056-.007-.101.072-.101.08 0 .112.045.072.101zm1.76 2.699c-.04.056-.099.056-.13 0-.032-.056 0-.102.072-.102s.098.046.058.102zm.716-1.1a.61.61 0 0 1-.46.234h-.627a.628.628 0 0 1-.466-.232l-.346-.504a.453.453 0 0 1-.005-.466l.327-.498a.61.61 0 0 1 .461-.234h.655a.61.61 0 0 1 .461.234l.327.498a.465.465 0 0 1 0 .469l-.327.499zm1 .234c-.08 0-.112-.046-.072-.102.04-.056.105-.056.144 0 .04.056.008.102-.072.102zm.072-1.833c-.04.056-.104.056-.144 0-.04-.056-.007-.101.072-.101.08 0 .112.045.072.101zM0 0h22v1.867H0V0zm0 12.133h22V14H0v-1.867z" fill-rule="evenodd" fill="#2D6BDB"/></svg><svg width="24" height="16" viewBox="-1 -1 24 16" id="in" y="272" xmlns="http://www.w3.org/2000/svg"><path clip-rule="evenodd" d="M2 0h18c1.105 0 2 .855 2 1.91v10.18c0 1.055-.895 1.91-2 1.91H2c-1.105 0-2-.855-2-1.909V1.909C0 .855.895 0 2 0z" fill-rule="evenodd" fill="#F5F7FA"/><path clip-rule="evenodd" d="M0 0h22v4.667H0V0z" fill-rule="evenodd" fill="#FF5835"/><path clip-rule="evenodd" d="M0 9.333h22V14H0V9.333z" fill-rule="evenodd" fill="#009100"/><path clip-rule="evenodd" d="M12.59 6.89l-.113-.196a.569.569 0 0 1-.065-.238v-.227a.246.246 0 0 0-.112-.191l-.19-.11a.56.56 0 0 1-.176-.173l-.11-.19a.246.246 0 0 0-.191-.111h-.227a.571.571 0 0 1-.24-.064l-.196-.112a.246.246 0 0 0-.221 0l-.19.111a.561.561 0 0 1-.239.065h-.22c-.07 0-.156.05-.191.11l-.114.197a.57.57 0 0 1-.174.175l-.196.114a.246.246 0 0 0-.11.192l.001.22c0 .07-.028.177-.063.238l-.11.19a.245.245 0 0 0 0 .222l.113.196a.57.57 0 0 1 .065.238v.227c.001.07.051.156.112.191l.191.11c.061.034.14.112.175.173l.11.19a.245.245 0 0 0 .192.111h.226a.58.58 0 0 1 .24.064l.196.112c.061.035.16.035.222 0l.19-.111a.562.562 0 0 1 .238-.065h.22c.07 0 .156-.05.191-.11l.114-.197a.57.57 0 0 1 .174-.175l.196-.114a.245.245 0 0 0 .11-.192l-.001-.22c0-.07.028-.177.063-.238l.11-.19a.246.246 0 0 0 0-.222zm-.681.178l-.067.115a.338.338 0 0 0-.038.144v.133a.15.15 0 0 1-.066.116l-.118.069a.344.344 0 0 0-.106.106l-.068.118a.149.149 0 0 1-.116.067h-.133a.34.34 0 0 0-.144.04l-.115.066a.148.148 0 0 1-.134 0l-.119-.067a.345.345 0 0 0-.145-.039h-.136a.149.149 0 0 1-.117-.067l-.066-.114a.34.34 0 0 0-.106-.106L10 7.583a.15.15 0 0 1-.068-.115V7.33a.346.346 0 0 0-.04-.145l-.068-.118a.149.149 0 0 1 0-.134l.067-.115a.339.339 0 0 0 .038-.144v-.133a.15.15 0 0 1 .066-.116l.119-.069a.347.347 0 0 0 .105-.106l.069-.118a.149.149 0 0 1 .116-.067h.132a.34.34 0 0 0 .145-.04l.114-.066a.149.149 0 0 1 .134 0l.12.067a.346.346 0 0 0 .144.039h.137a.15.15 0 0 1 .116.067l.066.114a.338.338 0 0 0 .106.106l.115.066a.149.149 0 0 1 .068.115v.137c0 .043.018.108.04.145l.068.118a.148.148 0 0 1 0 .134z" fill-rule="evenodd" fill="#2D6BDB"/></svg><svg width="24" height="16" viewBox="-1 -1 24 16" id="it" y="288" xmlns="http://www.w3.org/2000/svg"><path clip-rule="evenodd" d="M0 0h7.333v14H0V0z" fill-rule="evenodd" fill="#009100"/><path clip-rule="evenodd" d="M14.667 0H22v14h-7.333V0z" fill-rule="evenodd" fill="#F63542"/><path fill="#fff" d="M7.333 0h7.333v14H7.333z"/></svg><svg width="24" height="16" viewBox="-1 -1 24 16" id="jp" y="304" xmlns="http://www.w3.org/2000/svg"><path fill="#fff" d="M0 0h22v14H0z"/><path clip-rule="evenodd" d="M11 3a4 4 0 1 1 0 8 4 4 0 0 1 0-8z" fill-rule="evenodd" fill="#F63542"/></svg><svg width="24" height="16" viewBox="-1 -1 24 16" id="kr" y="320" xmlns="http://www.w3.org/2000/svg"><path fill="#fff" d="M0 0h22v14H0z"/><path clip-rule="evenodd" d="M15.223 6.304c.074.47-.387-.978-1.698-1.223-1.31-.245-2.58.578-2.834 1.838-.228 1.129-1.365 1.866-2.539 1.646-1.174-.22-1.94-1.312-1.712-2.44.47-2.323 2.809-3.84 5.225-3.389 1.902.356 3.285 1.825 3.558 3.568z" fill-rule="evenodd" fill="#F63542"/><path clip-rule="evenodd" d="M9.965 11.236C8.063 10.88 6.68 9.41 6.407 7.668c-.074-.471.387.978 1.698 1.223 1.31.245 2.58-.578 2.834-1.838.228-1.129 1.365-1.866 2.539-1.646 1.174.219 1.94 1.312 1.713 2.44-.47 2.323-2.81 3.84-5.226 3.389z" fill-rule="evenodd" fill="#2D6BDB"/><path d="M2.87 4.468L4.886.933l.621.319-2.016 3.534-.621-.318zm16.067.216l-2.016-3.653-.622.33 2.017 3.653.621-.33zm-1.243.659l-2.016-3.654-.621.33 2.016 3.653.621-.329zM6.129 1.57L4.113 5.105l.621.319L6.75 1.889l-.62-.319zm9.69 10.697l2.038-3.729-.628-.336-2.039 3.729.629.336zm3.295-3.057l-2.039 3.729-.628-.336 2.039-3.729.628.336zM6.165 12.388L4.126 8.781l.628-.325 2.039 3.607-.628.325zM2.87 9.431l2.038 3.608.628-.326-2.038-3.607-.628.325z"/></svg><svg width="24" height="16" fill="none" viewBox="-1 -1 24 16" id="lt" y="336" xmlns="http://www.w3.org/2000/svg"><path fill="#F63542" d="M0 9h22v5H0z"/><path fill-rule="evenodd" clip-rule="evenodd" d="M0 0h22v5H0V0z" fill="#FFDE3F"/><path fill-rule="evenodd" clip-rule="evenodd" d="M0 5h22v4H0V5z" fill="#009100"/></svg><svg width="24" height="16" viewBox="-1 -1 24 16" id="lv" y="352" xmlns="http://www.w3.org/2000/svg"><path clip-rule="evenodd" d="M2 0h18c1.105 0 2 .855 2 1.909v10.182C22 13.145 21.105 14 20 14H2c-1.105 0-2-.855-2-1.91V1.91C0 .855.895 0 2 0z" fill-rule="evenodd" fill="#F5F7FA"/><path clip-rule="evenodd" d="M0 8.4h22V14H0V8.4zM0 0h22v5.6H0V0z" fill-rule="evenodd" fill="#BC232B"/></svg><svg width="24" height="16" viewBox="-1 -1 24 16" id="mk" y="368" xmlns="http://www.w3.org/2000/svg"><path fill="#F63542" d="M0 0h22v14H0z"/><path d="M0 8.57V5.43l7.769.927v1.286L0 8.57zM3.182 14H0v-1.62l7.86-3.124.65.792L3.181 14zm9.343 0h-3.05l.879-3.786h1.292L12.525 14zM22 12.435V14h-3.28l-5.178-3.945.645-.81L22 12.435zm0-7.004V8.57l-7.445-.926V6.357L22 5.431zm0-3.864l-7.772 3.187-.643-.809L18.74 0H22v1.567zm-22 .01V0h3.274l5.302 3.952-.646.792L0 1.577zM9.55 0h2.9l-.804 3.464h-1.292L9.55 0zm1.612 4.28a2.565 2.565 0 0 1 2.572 2.56 2.565 2.565 0 0 1-2.572 2.558 2.565 2.565 0 0 1-2.573-2.559 2.565 2.565 0 0 1 2.573-2.558z" fill="#FFDE3F"/></svg><svg width="24" height="16" viewBox="-1 -1 24 16" id="nl" y="384" xmlns="http://www.w3.org/2000/svg"><path fill="#2D6BDB" d="M0 9.333h22V14H0z"/><path clip-rule="evenodd" d="M0 0h22v4.766H0V0z" fill-rule="evenodd" fill="#F63542"/><path clip-rule="evenodd" d="M0 4.766h22v4.766H0V4.766z" fill-rule="evenodd" fill="#fff"/></svg><svg width="24" height="16" viewBox="-1 -1 24 16" id="no" y="400" xmlns="http://www.w3.org/2000/svg"><path fill="#F63542" d="M0 0h22v14H0z"/><path d="M8 0H5v6H0v3h5v5h3V9h14V6H8V0z" fill="#fff"/><path d="M6 0h1v7h15v1H7v6H6V8H0V7h6V0z" fill="#2D6BDB"/></svg><svg width="24" height="16" viewBox="-1 -1 24 16" id="pl" y="416" xmlns="http://www.w3.org/2000/svg"><path fill="#fff" d="M0 0h22v7H0z"/><path clip-rule="evenodd" d="M0 7h22v7H0V7z" fill-rule="evenodd" fill="#F63542"/></svg><svg width="24" height="16" viewBox="-1 -1 24 16" id="pt" y="432" xmlns="http://www.w3.org/2000/svg"><path fill="#F63542" d="M0 0h22v14H0z"/><path clip-rule="evenodd" d="M0 0h5.657v14H0V0z" fill-rule="evenodd" fill="#009100"/><path clip-rule="evenodd" d="M5.131 4.681a2.25 2.25 0 1 1 0 4.5 2.25 2.25 0 0 1 0-4.5z" fill-rule="evenodd" fill="#FFDE3F"/></svg><svg width="24" height="16" viewBox="-1 -1 24 16" id="ro" y="448" xmlns="http://www.w3.org/2000/svg"><path clip-rule="evenodd" d="M2 0h18c1.105 0 2 .855 2 1.91v10.18c0 1.055-.895 1.91-2 1.91H2c-1.105 0-2-.855-2-1.909V1.909C0 .855.895 0 2 0z" fill-rule="evenodd" fill="#FFDE3F"/><path clip-rule="evenodd" d="M14.337 0H22v14h-7.663V0z" fill-rule="evenodd" fill="#F63542"/><path clip-rule="evenodd" d="M0 0h7.647v14H0V0z" fill-rule="evenodd" fill="#2D6BDB"/></svg><svg width="24" height="16" viewBox="-1 -1 24 16" id="rs" y="464" xmlns="http://www.w3.org/2000/svg"><path fill="#2D6BDB" d="M0 4.667h22v4.667H0z"/><path fill="#F63542" d="M0 0h22v4.667H0z"/><path fill="#fff" d="M0 9.333h22V14H0z"/><path clip-rule="evenodd" d="M7.941 3.657l-.55-.699-.334-.158h-1.32l-.413 2.084L4.952 2.8H3.701l-.317.167-.522.736h.834l-.233 1.313h-1.55l2.018 4.779h2.876L8.83 5.016h-1.5l-.267-1.36h.88z" fill-rule="evenodd" fill="#FFDE3F"/></svg><svg width="24" height="16" viewBox="-1 -1 24 16" id="ru" y="480" xmlns="http://www.w3.org/2000/svg"><path clip-rule="evenodd" d="M2.004.01h17.985c1.104 0 1.999.852 1.999 1.906v10.167c0 1.053-.895 1.906-1.998 1.906H2.003c-1.104 0-1.998-.853-1.998-1.906V1.916C.006.863.9.01 2.004.01z" fill-rule="evenodd" fill="#2D6BDB"/><path clip-rule="evenodd" d="M0 0h22v4.671H0V0z" fill-rule="evenodd" fill="#fff"/><path clip-rule="evenodd" d="M0 9.331h22V14H0V9.331z" fill-rule="evenodd" fill="#F63542"/></svg><svg width="24" height="16" viewBox="-1 -1 24 16" id="se" y="496" xmlns="http://www.w3.org/2000/svg"><path fill="#2D6BDB" d="M0 0h22v14H0z"/><path d="M10 0H7v6H0v3h7v5h3V9h12V6H10V0z" fill="#FFDE3F"/></svg><svg width="24" height="16" viewBox="-1 -1 24 16" id="si" y="512" xmlns="http://www.w3.org/2000/svg"><path fill="#2D6BDB" d="M0 4.667h22v4.667H0z"/><path clip-rule="evenodd" d="M0 0h22v4.678H0V0z" fill-rule="evenodd" fill="#fff"/><path clip-rule="evenodd" d="M0 9.322h22V14H0V9.322z" fill-rule="evenodd" fill="#F63542"/><path clip-rule="evenodd" d="M5.972 2.485c-.893 0-1.377-.613-1.377-.613s-.484.613-1.378.613a2.205 2.205 0 0 1-1.379-.509v3.33c.025 2.193 2.754 3.099 2.754 3.099s2.754-.906 2.754-3.1V1.977s-.55.51-1.374.51z" fill-rule="evenodd" fill="#F5F7FA"/><path clip-rule="evenodd" d="M5.696 2.928c-.715 0-1.101-.511-1.101-.511s-.388.51-1.103.51c-.659 0-1.103-.424-1.103-.424v2.775C2.41 7.105 4.592 7.86 4.592 7.86s2.203-.755 2.203-2.582V2.503s-.44.425-1.099.425z" fill-rule="evenodd" fill="#2D6BDB"/></svg><svg width="24" height="16" viewBox="-1 -1 24 16" id="sk" y="528" xmlns="http://www.w3.org/2000/svg"><path d="M0 0h22v5H0V0z" fill="#fff"/><path d="M22 9H0v5h22V9z" fill="#F63542"/><path d="M22 5H0v4h22V5z" fill="#2D6BDB"/><path clip-rule="evenodd" d="M7.998 2.857c-1.3 0-2.003-.845-2.003-.845s-.705.845-2.005.845c-1.197 0-2.005-.701-2.005-.701v4.589c.036 3.022 4.005 4.271 4.005 4.271s4.006-1.249 4.006-4.271v-4.59s-.801.702-1.998.702z" fill-rule="evenodd" fill="#fff"/><path clip-rule="evenodd" d="M7.596 3.467c-1.04 0-1.602-.704-1.602-.704s-.564.704-1.604.704a2.583 2.583 0 0 1-1.604-.585v3.824c.029 2.52 3.204 3.56 3.204 3.56s3.205-1.04 3.205-3.56V2.882s-.641.585-1.599.585z" fill-rule="evenodd" fill="#F63542"/></svg><svg width="24" height="16" viewBox="-1 -1 24 16" id="tr" y="544" xmlns="http://www.w3.org/2000/svg"><path fill="#F63542" d="M0 0h22v14H0z"/><path clip-rule="evenodd" d="M13.647 9.99a.118.118 0 0 1 .161.07.112.112 0 0 1-.049.127 4.428 4.428 0 0 1-1.528.769c-2.31.648-4.715-.615-5.37-2.82a3.976 3.976 0 0 1 .06-2.451c.76-2.187 3.223-3.389 5.501-2.683a4.307 4.307 0 0 1 1.49.807.11.11 0 0 1 .043.127.12.12 0 0 1-.164.067 3.507 3.507 0 0 0-.54-.218c-1.814-.562-3.777.395-4.382 2.136a3.194 3.194 0 0 0-.178 1.012c-.012.335.029.677.13 1.016.52 1.756 2.436 2.761 4.276 2.245.192-.054.376-.122.55-.204zm-.52-1.528c-.06.2.04.27.22.157l.686-.43a.67.67 0 0 1 .654.003l.65.414c.179.114.283.043.23-.157l-.173-.664a.628.628 0 0 1 .21-.601l.644-.5c.168-.13.13-.243-.085-.253l-.82-.035a.601.601 0 0 1-.509-.375l-.27-.815c-.066-.197-.176-.198-.245-.002l-.284.808a.578.578 0 0 1-.516.354l-.804-.006c-.215-.001-.262.112-.104.252l.554.493a.65.65 0 0 1 .18.616l-.219.741z" fill-rule="evenodd" fill="#fff"/></svg><svg width="24" height="16" viewBox="-1 -1 24 16" id="ua" y="560" xmlns="http://www.w3.org/2000/svg"><path fill="#2D6BDB" d="M0 0h22v7H0z"/><path clip-rule="evenodd" d="M0 7h22v7H0V7z" fill-rule="evenodd" fill="#FFDE3F"/></svg><svg width="24" height="16" fill="none" viewBox="-1 -1 24 16" id="us" y="576" xmlns="http://www.w3.org/2000/svg"><path fill="#fff" d="M0 0h22v14H0z"/><mask id="bka" maskUnits="userSpaceOnUse" x="0" y="0" width="22" height="14"><path fill="#fff" d="M0 0h22v14H0z"/></mask><g mask="url(#bka)" fill="#F22F46"><path d="M0 0h22v1H0zM0 2h22v1H0zM0 4h22v1H0zM0 6h22v1H0zM0 8h22v1H0zM0 10h22v1H0zM0 12h22v1H0z"/></g><path d="M0 0h11v7H0V0z" fill="#306DD7"/><path fill="#fff" d="M1 1h1v1H1zM1 3h1v1H1zM1 5h1v1H1zM3 1h1v1H3zM3 3h1v1H3zM3 5h1v1H3zM5 1h1v1H5zM5 3h1v1H5zM5 5h1v1H5zM7 1h1v1H7zM7 3h1v1H7zM7 5h1v1H7zM9 1h1v1H9zM9 3h1v1H9zM9 5h1v1H9zM1 7h1v1H1zM3 7h1v1H3zM5 7h1v1H5zM7 7h1v1H7zM9 7h1v1H9zM11 1h1v1h-1zM11 3h1v1h-1zM11 5h1v1h-1zM11 7h1v1h-1z"/></svg></svg>