<svg xmlns="http://www.w3.org/2000/svg" viewBox="0 0 184 137"><defs><radialGradient cx="0" cy="0" gradientTransform="translate(3.28 13.983) scale(17.6452)" gradientUnits="userSpaceOnUse" id="la_A" r="1"><stop stop-color="#FAE100"></stop><stop offset=".054" stop-color="#FADC04"></stop><stop offset=".117" stop-color="#FBCE0E"></stop><stop offset=".183" stop-color="#FCB720"></stop><stop offset=".251" stop-color="#FE9838"></stop><stop offset=".305" stop-color="#FF7950"></stop><stop offset=".492" stop-color="#FF1C74"></stop><stop offset="1" stop-color="#6C1CD1"></stop></radialGradient><linearGradient gradientUnits="userSpaceOnUse" id="la_z" x1="8" x2="8" y1="14.124" y2="16.618"><stop stop-color="#FAE100" stop-opacity="0"></stop><stop offset=".307" stop-color="#FCA800" stop-opacity=".306"></stop><stop offset=".627" stop-color="#FE7300" stop-opacity=".627"></stop><stop offset=".869" stop-color="#FF5200" stop-opacity=".867"></stop><stop offset="1" stop-color="#FF4500"></stop></linearGradient><clipPath id="la_y"><rect fill="#fff" height="16" width="16"></rect></clipPath><linearGradient gradientUnits="userSpaceOnUse" id="la_x" x1="0" x2="64" y1="6.867" y2="6.867"><stop stop-color="#3A00A8"></stop><stop offset="1" stop-color="#B100DD"></stop></linearGradient><linearGradient gradientUnits="userSpaceOnUse" id="la_w" x1="0" x2="64" y1="6.867" y2="6.867"><stop stop-color="#3A00A8"></stop><stop offset="1" stop-color="#B100DD"></stop></linearGradient><linearGradient gradientUnits="userSpaceOnUse" id="la_v" x1="0" x2="64" y1="6.867" y2="6.867"><stop stop-color="#3A00A8"></stop><stop offset="1" stop-color="#B100DD"></stop></linearGradient><linearGradient gradientUnits="userSpaceOnUse" id="la_u" x1="0" x2="64" y1="6.867" y2="6.867"><stop stop-color="#3A00A8"></stop><stop offset="1" stop-color="#B100DD"></stop></linearGradient><linearGradient gradientUnits="userSpaceOnUse" id="la_t" x1="0" x2="64" y1="6.867" y2="6.867"><stop stop-color="#3A00A8"></stop><stop offset="1" stop-color="#B100DD"></stop></linearGradient><linearGradient gradientUnits="userSpaceOnUse" id="la_s" x1="0" x2="64" y1="6.867" y2="6.867"><stop stop-color="#3A00A8"></stop><stop offset="1" stop-color="#B100DD"></stop></linearGradient><linearGradient gradientUnits="userSpaceOnUse" id="la_r" x1="0" x2="64" y1="6.867" y2="6.867"><stop stop-color="#3A00A8"></stop><stop offset="1" stop-color="#B100DD"></stop></linearGradient><linearGradient gradientUnits="userSpaceOnUse" id="la_q" x1="0" x2="43" y1="11.133" y2="11.133"><stop stop-color="#3A00A8"></stop><stop offset="1" stop-color="#B100DD"></stop></linearGradient><linearGradient gradientUnits="userSpaceOnUse" id="la_p" x1="0" x2="43" y1="11.133" y2="11.133"><stop stop-color="#3A00A8"></stop><stop offset="1" stop-color="#B100DD"></stop></linearGradient><linearGradient gradientUnits="userSpaceOnUse" id="la_o" x1="0" x2="43" y1="11.133" y2="11.133"><stop stop-color="#3A00A8"></stop><stop offset="1" stop-color="#B100DD"></stop></linearGradient><linearGradient gradientUnits="userSpaceOnUse" id="la_n" x1="0" x2="43" y1="11.133" y2="11.133"><stop stop-color="#3A00A8"></stop><stop offset="1" stop-color="#B100DD"></stop></linearGradient><linearGradient gradientUnits="userSpaceOnUse" id="la_m" x1="0" x2="43" y1="11.133" y2="11.133"><stop stop-color="#3A00A8"></stop><stop offset="1" stop-color="#B100DD"></stop></linearGradient><linearGradient gradientUnits="userSpaceOnUse" id="la_l" x1="0" x2="43" y1="11.133" y2="11.133"><stop stop-color="#3A00A8"></stop><stop offset="1" stop-color="#B100DD"></stop></linearGradient><linearGradient gradientUnits="userSpaceOnUse" id="la_k" x1="0" x2="43" y1="11.133" y2="11.133"><stop stop-color="#3A00A8"></stop><stop offset="1" stop-color="#B100DD"></stop></linearGradient><radialGradient cx="-294.57" cy="405.39" gradientTransform="matrix(0 44 44 0 -17813 12985)" gradientUnits="userSpaceOnUse" id="la_j" r=".51"><stop offset=".6" stop-color="#b7f0fb"></stop><stop offset=".77" stop-color="#49d7f1"></stop><stop offset="1" stop-color="#0a4370"></stop></radialGradient><radialGradient cx="-289.65" cy="409.11" gradientTransform="matrix(0 27.79 27.79 0 -11345.01 8073.22)" gradientUnits="userSpaceOnUse" id="la_i" r=".51"><stop offset=".77" stop-color="#b7f0fb"></stop><stop offset="1" stop-color="#72e5f8"></stop></radialGradient><radialGradient cx="-294.31" cy="405.57" gradientTransform="matrix(0 42.68 42.77 0 -17323.29 12584.92)" gradientUnits="userSpaceOnUse" id="la_h" r=".51"><stop offset=".35" stop-color="#0b4572"></stop><stop offset=".71" stop-color="#34bee8"></stop><stop offset="1" stop-color="#0b4572"></stop></radialGradient><radialGradient cx="-287.29" cy="410.9" gradientTransform="matrix(0 23.62 23.62 0 -9681.82 6810.19)" gradientUnits="userSpaceOnUse" id="la_g" r=".51"><stop offset=".67" stop-color="#49d7f1"></stop><stop offset="1" stop-color="#01679e"></stop></radialGradient><radialGradient cx="-281.92" cy="414.97" gradientTransform="matrix(0 17.6 17.6 0 -7279.4 4985.8)" gradientUnits="userSpaceOnUse" id="la_f" r=".51"><stop offset=".67" stop-color="#00446f"></stop><stop offset="1" stop-color="#49c7f4"></stop></radialGradient><radialGradient cx="0" cy="0" gradientTransform="rotate(90 .12 24.04) scale(22.44)" gradientUnits="userSpaceOnUse" id="la_e" r="1"><stop offset=".6" stop-color="#B7F0FB"></stop><stop offset=".77" stop-color="#49D7F1"></stop><stop offset="1" stop-color="#0A4370"></stop></radialGradient><radialGradient cx="0" cy="0" gradientTransform="rotate(90 .155 24.002) scale(14.1729)" gradientUnits="userSpaceOnUse" id="la_d" r="1"><stop offset=".77" stop-color="#B7F0FB"></stop><stop offset="1" stop-color="#72E5F8"></stop></radialGradient><radialGradient cx="0" cy="0" gradientTransform="matrix(0 21.7668 -21.8127 0 22.939 23.77)" gradientUnits="userSpaceOnUse" id="la_c" r="1"><stop offset=".35" stop-color="#0B4572"></stop><stop offset=".71" stop-color="#34BEE8"></stop><stop offset="1" stop-color="#0B4572"></stop></radialGradient><radialGradient cx="0" cy="0" gradientTransform="rotate(90 -.381 24.02) scale(12.0462)" gradientUnits="userSpaceOnUse" id="la_b" r="1"><stop offset=".67" stop-color="#49D7F1"></stop><stop offset="1" stop-color="#01679E"></stop></radialGradient><radialGradient cx="0" cy="0" gradientTransform="rotate(90 .032 24.04) scale(8.976)" gradientUnits="userSpaceOnUse" id="la_a" r="1"><stop offset=".67" stop-color="#00446F"></stop><stop offset="1" stop-color="#49C7F4"></stop></radialGradient></defs><g fill="none" transform="translate(92, 68)"><rect fill="#3C3C3C" height="15" rx="2" width="22"></rect><path d="M10.219 11H8.71V7.919H5.883V11H4.369V3.861h1.514V6.66H8.71V3.861h1.509V11zM17.948 7.362c0 1.175-.335 2.075-1.006 2.7-.667.626-1.632.938-2.895.938h-2.022V3.861h2.242c1.165 0 2.07.308 2.714.923.645.615.967 1.475.967 2.578zm-1.572.04c0-1.534-.677-2.3-2.031-2.3h-.806V9.75h.65c1.458 0 2.187-.783 2.187-2.349z" fill="#fff"></path></g><g fill="none" transform="translate(68, 52)"><path d="M.021 8.39l2.755-3.972L.021.366h1.943L4.74 4.418 1.964 8.391H.02z" fill="#fff"></path></g><g fill="none" transform="translate(0, 92)"><rect fill="#00D617" height="15" rx="2" width="27"></rect><path d="M3.898 11V3.861h1.514V9.75h2.896V11h-4.41zM9.553 11V3.861h1.513V11H9.553zM16.936 3.861h1.528L16.037 11h-1.65l-2.422-7.139h1.528l1.343 4.248c.075.251.151.544.23.88.08.331.131.562.15.693.037-.3.159-.824.367-1.573l1.353-4.248zM23.479 11h-4.112V3.861h4.111v1.24h-2.597V6.67h2.417v1.24H20.88V9.75h2.598V11z" fill="#fff"></path></g><g fill="none" transform="translate(120, 59)"><rect fill="#3C3C3C" height="15" rx="2" width="28"></rect><path d="M10.387 11h-1.51V7.919H6.052V11H4.537V3.861h1.514V6.66h2.827V3.861h1.509V11zM18.116 7.362c0 1.175-.335 2.075-1.006 2.7-.667.626-1.632.938-2.895.938h-2.022V3.861h2.242c1.165 0 2.07.308 2.714.923.645.615.967 1.475.967 2.578zm-1.572.04c0-1.534-.677-2.3-2.031-2.3h-.806V9.75h.65c1.458 0 2.187-.783 2.187-2.349zM20.865 8.129H19.05V6.82h1.816V5.028h1.314V6.82h1.816V8.13H22.18v1.763h-1.314V8.129z" fill="#fff"></path></g><g fill="none" transform="translate(0, 16)"><path d="M24 47c12.703 0 23-10.297 23-23S36.703 1 24 1 1 11.297 1 24s10.297 23 23 23z" stroke-width="2" stroke="#62E6FB"></path><path d="M24 46.49c12.42 0 22.49-10.07 22.49-22.49C46.49 11.58 36.42 1.51 24 1.51 11.58 1.51 1.51 11.58 1.51 24c0 12.42 10.07 22.49 22.49 22.49z" fill="url(#la_e)"></path><path d="M24 38.2c7.842 0 14.2-6.358 14.2-14.2S31.842 9.8 24 9.8 9.8 16.158 9.8 24 16.158 38.2 24 38.2z" fill="url(#la_d)"></path><path d="M12.26 32.62A9.15 9.15 0 0118.77 25l.9 2.18a11.24 11.24 0 00.78 12.36 18.16 18.16 0 009.23 6.25 21.864 21.864 0 003.43-1.21A16.83 16.83 0 0122 38.37a9.17 9.17 0 01-.85-9.94l2.25.92a11.27 11.27 0 009.33 8.24c.753.092 1.511.139 2.27.14a18.31 18.31 0 008.24-2 22.43 22.43 0 001.61-3.2 16.88 16.88 0 01-11.88 3.2 9.26 9.26 0 01-7.69-6.6l2.11-.88a12.46 12.46 0 005.82 1.52 10.69 10.69 0 006.58-2.3 18 18 0 006.11-8.76 22.999 22.999 0 00-1.11-3.41A16.9 16.9 0 0138.61 26a9.21 9.21 0 01-10.08.78l.83-2a11.27 11.27 0 008.36-9.35 18.14 18.14 0 00-1.91-10.58 22 22 0 00-3.24-1.66 16.75 16.75 0 013.27 12 9.24 9.24 0 01-6.63 7.69l-.88-2.08a11.25 11.25 0 00-.71-12.5 18 18 0 00-8.85-6.13 21.87 21.87 0 00-3.46 1.14 16.76 16.76 0 0110.8 6.11 9.19 9.19 0 01.76 10.11l-2.11-.88a11.31 11.31 0 00-9.4-8.45A18.07 18.07 0 004.92 12a23.091 23.091 0 00-1.68 3.22A16.92 16.92 0 0115.12 12a9.29 9.29 0 017.74 6.75l-2 .83a11.27 11.27 0 00-12.55.71 18 18 0 00-6.2 9 21.43 21.43 0 001.16 3.48 16.84 16.84 0 016.18-11 9.26 9.26 0 0110.1-.77l-.83 2c-1.73.5-7.46 2.6-8.36 9.35a18.1 18.1 0 002.13 11A21.398 21.398 0 0015.71 45a17.12 17.12 0 01-3.45-12.38z" fill-opacity=".8" fill="url(#la_c)"></path><path d="M24 36.07c6.666 0 12.07-5.404 12.07-12.07S30.666 11.93 24 11.93 11.93 17.334 11.93 24 17.334 36.07 24 36.07z" fill="url(#la_b)"></path><path d="M24 33a9 9 0 100-18 9 9 0 000 18z" fill="url(#la_a)"></path><path clip-rule="evenodd" d="M10.04 26.509c-.585.729-1.49 1.188-2.546 1.188H4.246c-.28 0-.683-.075-1.018-.4a1.443 1.443 0 01-.428-1.045v-5.87c0-.299.086-.698.405-1.026a1.44 1.44 0 011.04-.429H6.73c1.187 0 2.372.594 2.903 1.663a4.54 4.54 0 013.637-1.79c1.458 0 2.765.666 3.599 1.73a4.543 4.543 0 013.59-1.73c1.233 0 2.357.476 3.18 1.265.143-.189.31-.36.497-.51.663-.534 1.499-.755 2.294-.755.606 0 1.25.121 1.827.429.303-.236.645-.302.906-.302h3.913c.164 0 .353.027.542.1.19-.07.374-.09.523-.09h3.367c.178 0 .407.03.637.138.225-.11.457-.148.652-.148h2.53c2.453 0 4.294 1.955 4.294 4.385 0 2.43-1.84 4.385-4.294 4.385h-2.53a1.52 1.52 0 01-.622-.13 1.52 1.52 0 01-.622.13h-3.412c-.28 0-.683-.075-1.018-.4a1.39 1.39 0 01-.21-.262 1.38 1.38 0 01-.212.261 1.447 1.447 0 01-1.017.401h-1.129a1.46 1.46 0 01-1.014-.39c-.15-.142-.253-.3-.32-.459a2.974 2.974 0 01-.273.241c-.682.535-1.543.745-2.372.745-.787 0-1.63-.176-2.327-.675a3.011 3.011 0 01-.616-.586 4.567 4.567 0 01-3.174 1.26 4.538 4.538 0 01-3.59-1.73 4.549 4.549 0 01-3.599 1.73 4.55 4.55 0 01-3.23-1.324z" fill-rule="evenodd" fill="#384F67"></path><path d="M8.468 22.675c.155-.236.255-.51.255-.81 0-1.028-.874-1.738-1.993-1.738H4.246c-.155 0-.246.091-.246.255v5.87c0 .164.091.245.246.245H7.494c1.193 0 2.048-.882 2.048-2.029 0-.81-.419-1.465-1.074-1.793zm-1.756-1.064c.264 0 .428.19.428.436a.496.496 0 01-.183.383H5.63v-.82h1.083zm.555 3.412H5.629v-1.247h1.647c.428 0 .646.246.646.628 0 .364-.218.62-.655.62zM13.27 26.634c1.857 0 3.349-1.438 3.349-3.322 0-1.874-1.492-3.312-3.349-3.312-1.847 0-3.34 1.438-3.34 3.312 0 1.884 1.493 3.322 3.34 3.322zm0-1.584c-.974 0-1.71-.718-1.71-1.738 0-1.01.736-1.729 1.71-1.729s1.72.72 1.72 1.73c0 1.019-.746 1.738-1.72 1.738zM20.46 26.634c1.856 0 3.348-1.438 3.348-3.322 0-1.874-1.492-3.312-3.349-3.312-1.847 0-3.34 1.438-3.34 3.312 0 1.884 1.493 3.322 3.34 3.322zm0-1.584c-.974 0-1.711-.718-1.711-1.738 0-1.01.737-1.729 1.71-1.729.974 0 1.72.72 1.72 1.73 0 1.019-.746 1.738-1.72 1.738zM26.576 26.634c1.283 0 2.302-.655 2.302-1.948 0-1.328-1.128-1.756-2.01-2.047-.565-.182-1.01-.328-1.01-.683 0-.236.19-.409.572-.409.346 0 .537.118.61.355.055.145.118.227.264.227h1.138c.163 0 .263-.09.254-.264C28.578 20.566 27.56 20 26.43 20c-1.174 0-2.202.655-2.202 1.947 0 1.338 1.138 1.784 2.02 2.075.555.173 1.001.31 1.001.637 0 .246-.19.428-.664.428-.446 0-.692-.118-.773-.391-.046-.155-.119-.228-.264-.228H24.41c-.154 0-.255.091-.245.255.118 1.347 1.164 1.91 2.411 1.91zM33.076 20.127H29.163c-.164 0-.255.091-.255.255v1.074c0 .155.091.246.255.246H30.3v4.55c0 .164.091.245.255.245h1.129c.154 0 .245-.081.245-.245v-4.55h1.147c.155 0 .246-.091.246-.246v-1.074c0-.164-.091-.255-.246-.255zM37.553 24.969h-2.03v-.956h1.757c.155 0 .246-.09.246-.255v-.946c0-.164-.091-.255-.246-.255h-1.756v-.9h1.984c.154 0 .245-.083.245-.247v-1.028c0-.164-.09-.245-.245-.245H34.14c-.155 0-.246.081-.246.245v5.87c0 .164.09.245.246.245h3.412c.155 0 .246-.081.246-.245v-1.029c0-.163-.091-.245-.246-.245v-.01zM41.327 20.127H38.797c-.154 0-.245.091-.245.255v5.87c0 .164.09.245.245.245h2.53c1.756 0 3.094-1.383 3.094-3.185 0-1.801-1.338-3.185-3.094-3.185zm0 4.805h-1.11v-3.23h1.11c.874 0 1.492.637 1.492 1.61 0 .983-.618 1.62-1.492 1.62z" fill="#fff"></path></g><g fill="none" transform="translate(120, 40)"><path clip-rule="evenodd" d="M28 1H2a1 1 0 00-1 1v11a1 1 0 001 1h26a1 1 0 001-1V2a1 1 0 00-1-1zM2 0a2 2 0 00-2 2v11a2 2 0 002 2h26a2 2 0 002-2V2a2 2 0 00-2-2H2z" fill-rule="evenodd" fill="#FFBF07"></path><rect fill="#FFA800" height="15" rx="2" width="30"></rect><path d="M10.231 11H8.308L5.202 5.6h-.044c.062.953.093 1.634.093 2.04V11H3.898V3.861h1.91l3.1 5.347h.034A43.286 43.286 0 018.87 7.24V3.861h1.362V11zM16.145 11h-4.112V3.861h4.112v1.24h-2.598V6.67h2.417v1.24h-2.417V9.75h2.598V11zM24.592 11h-1.724l-.967-3.75a19.705 19.705 0 01-.185-.825 9.924 9.924 0 01-.147-.845c-.02.176-.068.46-.146.85-.078.387-.138.664-.18.83L20.28 11h-1.719l-1.82-7.139h1.489l.913 3.897c.16.72.275 1.343.346 1.87.02-.186.064-.472.132-.86a9.97 9.97 0 01.2-.908l1.04-3.999h1.431l1.04 4c.046.178.103.452.17.82.07.368.121.683.157.947.033-.254.085-.57.156-.947.072-.381.137-.689.196-.923l.908-3.897h1.49L24.591 11z" fill="#fff"></path></g><g transform="translate(68, 0)"><circle cx="24" cy="24" fill="none" r="23" stroke-width="2" stroke="#62e6fb"></circle><circle cx="24" cy="24" fill="url(#la_j)" r="22.49"></circle><circle cx="24" cy="24" fill="url(#la_i)" r="14.2"></circle><path d="M12.26 32.62A9.15 9.15 0 0118.77 25l.9 2.18a11.24 11.24 0 00.78 12.36 18.16 18.16 0 009.23 6.25 21.86 21.86 0 003.43-1.21A16.83 16.83 0 0122 38.37a9.17 9.17 0 01-.85-9.94l2.25.92a11.27 11.27 0 009.33 8.24 18.89 18.89 0 002.27.14 18.31 18.31 0 008.24-2 22.43 22.43 0 001.61-3.2 16.88 16.88 0 01-11.88 3.2 9.26 9.26 0 01-7.69-6.6l2.11-.88a12.46 12.46 0 005.82 1.52 10.69 10.69 0 006.58-2.3 18 18 0 006.11-8.76 23 23 0 00-1.11-3.41A16.9 16.9 0 0138.61 26a9.21 9.21 0 01-10.08.78l.83-2a11.27 11.27 0 008.36-9.35 18.14 18.14 0 00-1.91-10.58 22 22 0 00-3.24-1.66 16.75 16.75 0 013.27 12 9.24 9.24 0 01-6.63 7.69l-.88-2.08a11.25 11.25 0 00-.71-12.5 18 18 0 00-8.85-6.13 21.87 21.87 0 00-3.46 1.14 16.76 16.76 0 0110.8 6.11 9.19 9.19 0 01.76 10.11l-2.11-.88a11.31 11.31 0 00-9.4-8.45A18.07 18.07 0 004.92 12a23.09 23.09 0 00-1.68 3.22A16.92 16.92 0 0115.12 12a9.29 9.29 0 017.74 6.75l-2 .83a11.27 11.27 0 00-12.55.71 18 18 0 00-6.2 9 21.43 21.43 0 001.16 3.48 16.84 16.84 0 016.18-11 9.26 9.26 0 0110.1-.77l-.83 2c-1.73.5-7.46 2.6-8.36 9.35a18.1 18.1 0 002.13 11A21.4 21.4 0 0015.71 45a17.12 17.12 0 01-3.45-12.38z" fill-opacity=".8" fill="url(#la_h)"></path><circle cx="24" cy="24" fill="url(#la_g)" r="12.07"></circle><circle cx="24" cy="24" fill="url(#la_f)" r="9"></circle><path d="M40 23.79h-2.2a2.57 2.57 0 00-.62.09 1.64 1.64 0 00-.59-.09h-1.27a2.62 2.62 0 000-.45v-7.53a1.94 1.94 0 00-2-2h-1.39a2 2 0 00-1.61.78 2.09 2.09 0 00-1.63-.78h-1.07a1.93 1.93 0 00-2 1.7l-.09-.31a2 2 0 00-1.94-1.4h-1.91a2 2 0 00-1.66.83 2 2 0 00-1.63-.83H14.1a1.92 1.92 0 00-2 2v7.55a1.86 1.86 0 00.36 1.14 2.93 2.93 0 00-.52.43 3.47 3.47 0 00-2.63-1.11H7.17a1.86 1.86 0 00-1.87 1.85v5.09a1.86 1.86 0 001.87 1.87H10a3.33 3.33 0 002.27-.85 4.68 4.68 0 002.84 1 4.51 4.51 0 003.17-1.25 4.51 4.51 0 003.17 1.28 4.62 4.62 0 002.77-.9 4 4 0 002.65.9 4.05 4.05 0 002.25-.64 1.8 1.8 0 001.3.52h1a2 2 0 001.11-.36 1.79 1.79 0 001.11.36h3a1.63 1.63 0 00.59-.09 2.38 2.38 0 00.59.09H40a4.43 4.43 0 000-8.85z" fill="#384f67"></path><path d="M18.67 20.66v-1.37a.29.29 0 00-.33-.31H15.9v-1.47h2.51a.29.29 0 00.33-.31v-1.4c0-.21-.12-.31-.33-.31H14.1a.28.28 0 00-.31.31v7.55a.28.28 0 00.31.31h1.47c.21 0 .33-.09.33-.31V21h2.44a.32.32 0 00.33-.34zm7.81 2.65L24 15.74a.36.36 0 00-.38-.26h-1.94a.38.38 0 00-.38.26l-2.46 7.58c-.07.21 0 .36.26.36h1.61a.32.32 0 00.36-.26l.26-.9H24l.26.9a.32.32 0 00.36.26h1.58c.24-.01.36-.13.29-.37zm-4.64-2.63l.8-2.84.8 2.84zm11.86 2.68v-7.55a.29.29 0 00-.31-.33h-1.46a.3.3 0 00-.33.33v3.91l-2.53-4a.4.4 0 00-.38-.21h-1.07a.29.29 0 00-.31.33v7.55a.28.28 0 00.31.31h1.47c.21 0 .31-.09.31-.31v-3.96l2.53 4a.38.38 0 00.38.19h1.07c.21.05.33-.05.33-.26zm-22.84 4.31a1.25 1.25 0 00.21-.71 1.58 1.58 0 00-1.73-1.52H7.17a.19.19 0 00-.21.21v5.09a.19.19 0 00.21.21H10a1.71 1.71 0 001.78-1.75 1.68 1.68 0 00-.92-1.53zm-2.49-.92h.95a.36.36 0 01.38.38.38.38 0 01-.17.33H8.38zm1.42 3H8.38v-1.13h1.44a.51.51 0 01.57.54.54.54 0 01-.59.55zm5.33-4.36A2.88 2.88 0 1018 28.21a2.87 2.87 0 00-2.88-2.86zm0 4.38a1.5 1.5 0 111.49-1.52 1.45 1.45 0 01-1.49 1.48zm6.34-4.38a2.88 2.88 0 102.91 2.86 2.83 2.83 0 00-2.9-2.9zm0 4.38A1.5 1.5 0 1123 28.21a1.45 1.45 0 01-1.53 1.52zm5.68-2.08c-.5-.17-.88-.28-.88-.59s.17-.36.5-.36.47.09.52.31.09.19.24.19h1c.14 0 .24-.07.21-.24a1.77 1.77 0 00-2-1.61A1.72 1.72 0 0024.85 27c0 1.16 1 1.54 1.75 1.8.47.14.88.26.88.54s-.17.38-.57.38-.59-.09-.66-.33-.09-.19-.24-.19H25a.19.19 0 00-.21.21 1.85 1.85 0 002.11 1.66c1.11 0 2-.57 2-1.68s-.99-1.51-1.75-1.74zm5.49-2.2h-3.4a.19.19 0 00-.21.21v.95a.19.19 0 00.21.21h1v4a.19.19 0 00.21.21h1a.19.19 0 00.21-.21v-4h1a.19.19 0 00.21-.21v-.92c-.01-.19-.08-.29-.22-.29zm4 4.21h-1.76v-.83h1.53a.19.19 0 00.21-.21v-.83a.19.19 0 00-.21-.21h-1.53v-.78h1.73a.19.19 0 00.21-.21v-.9a.19.19 0 00-.21-.21h-2.94a.19.19 0 00-.21.21v5.09a.19.19 0 00.21.21h3a.19.19 0 00.21-.21v-.9a.2.2 0 00-.23-.26zM40 25.44h-2.2a.19.19 0 00-.21.21v5.09a.19.19 0 00.21.21H40a2.76 2.76 0 000-5.52zm0 4.19h-1v-2.81h1a1.28 1.28 0 011.3 1.4 1.3 1.3 0 01-1.3 1.41z" fill="#fff"></path></g><g fill="none" transform="translate(0, 111)"><path d="M12 0H2a2 2 0 00-2 2v18a2 2 0 002 2h10a2 2 0 002-2V2a2 2 0 00-2-2z" fill="#3D3D3D"></path><path d="M10 2H4a2 2 0 00-2 2v14a2 2 0 002 2h6a2 2 0 002-2V4a2 2 0 00-2-2zM5 3h4v1H5V3zm2.5 16h-1v-1h1v1zm3.5-3a1 1 0 01-1 1H4a1 1 0 01-1-1V6a1 1 0 011-1h6a1 1 0 011 1v10z" fill="#fff"></path></g><g fill="none" transform="translate(0, 68)"><path d="M43 1.7a.7.7 0 00-.7-.7H.7a.7.7 0 00-.7.7v5.6a.7.7 0 00.7.7h41.6a.7.7 0 00.7-.7V1.7z" fill="url(#la_q)"></path><path d="M.7 16.5a.7.7 0 01-.7-.7V9.7A.7.7 0 01.7 9h6.8A1.5 1.5 0 019 10.5V12a3 3 0 01-3 3H4.7a.7.7 0 01-.7-.7v-.6a.7.7 0 01.7-.7H6a1 1 0 001-1v-.3a.7.7 0 00-.7-.7H2.7a.7.7 0 00-.7.7v4.1a.7.7 0 01-.7.7H.7z" fill="url(#la_p)"></path><path d="M12 16.3a.7.7 0 01-.7.7h-.6a.7.7 0 01-.7-.7V9.7a.7.7 0 01.7-.7h6.8a1.5 1.5 0 011.5 1.5V12c0 .689-.232 1.323-.622 1.83-.26.336-.302.832-.001 1.132l2.832 2.833a.7.7 0 00.495.205H42.3a.7.7 0 01.7.7v.6a.7.7 0 01-.7.7H20.876a.7.7 0 01-.495-.205l-4.59-4.59a.7.7 0 00-.495-.205H14.7a.7.7 0 01-.7-.7v-.6a.7.7 0 01.7-.7H16a1 1 0 001-1v-.3a.7.7 0 00-.7-.7h-3.6a.7.7 0 00-.7.7v4.6z" fill="url(#la_o)"></path><path d="M35.5 9a1.5 1.5 0 00-1.5 1.5V14a3 3 0 003 3h5.3a.7.7 0 00.7-.7v-.6a.7.7 0 00-.7-.7H37a.998.998 0 01-.765-.356c-.25-.295.078-.644.465-.644h5.6a.7.7 0 00.7-.7v-.6a.7.7 0 00-.7-.7h-5.8a.5.5 0 010-1h5.8a.7.7 0 00.7-.7v-.6a.7.7 0 00-.7-.7h-6.8z" fill="url(#la_n)"></path><path d="M29.839 12.72a.7.7 0 011.161.526V16.3a.7.7 0 00.7.7h.6a.7.7 0 00.7-.7v-5.698c0-1.289-1.518-1.978-2.488-1.129l-2.051 1.795a.7.7 0 01-.922 0l-2.051-1.795c-.97-.849-2.488-.16-2.488 1.129V16.3a.7.7 0 00.7.7h.6a.7.7 0 00.7-.7v-3.054a.7.7 0 011.161-.526l1.378 1.205a.7.7 0 00.922 0l1.378-1.205z" fill="url(#la_m)"></path><path d="M17.205 18.205A.7.7 0 0016.71 18H.7a.7.7 0 00-.7.7v.6a.7.7 0 00.7.7h16.61a.7.7 0 00.495-1.195l-.6-.6z" fill="url(#la_l)"></path><path d="M20 9.7a.7.7 0 01.7-.7h.6a.7.7 0 01.7.7v5.61a.7.7 0 01-1.195.495l-.6-.6A.7.7 0 0120 14.71V9.7z" fill="url(#la_k)"></path><path d="M4.95 7.1c-.379 0-.728-.057-1.05-.168a2.24 2.24 0 01-.823-.5 2.252 2.252 0 01-.537-.827 3.217 3.217 0 01-.188-1.145c0-.403.06-.769.181-1.097.121-.328.296-.61.527-.844.22-.226.494-.4.82-.523a3.033 3.033 0 011.073-.184c.214 0 .407.012.578.037.173.023.332.054.478.092.153.044.29.093.414.147.125.053.235.102.328.147V3.47h-.15a5.927 5.927 0 00-.243-.195 3.038 3.038 0 00-.328-.222 2.28 2.28 0 00-.407-.184 1.557 1.557 0 00-.995.014 1.26 1.26 0 00-.461.286c-.134.13-.244.302-.328.517a2.185 2.185 0 00-.123.779c0 .319.044.585.133.8.091.214.205.382.342.506.139.125.294.215.465.27.17.052.34.078.506.078.16 0 .316-.024.471-.072.158-.047.302-.112.434-.194.112-.067.216-.137.311-.212.096-.076.175-.14.236-.195h.137v1.217l-.366.16a3.01 3.01 0 01-.365.13 4.394 4.394 0 01-.469.11 3.74 3.74 0 01-.601.037zm7.468-.1h-1.357l-.352-1.029H8.822L8.47 7H7.147l1.88-5.09h1.511L12.418 7zm-2.027-1.962l-.625-1.825-.626 1.825h1.251zM18.485 7h-1.306V3.592l-.943 2.212h-.906l-.943-2.212V7h-1.238V1.91h1.525l1.145 2.554L16.96 1.91h1.525V7zm5.28 0H19.77v-.84c.305-.222.61-.457.916-.705a10.8 10.8 0 00.738-.643c.276-.266.472-.499.588-.697.116-.198.174-.394.174-.588 0-.232-.075-.411-.225-.536-.148-.128-.362-.192-.643-.192a1.9 1.9 0 00-.663.13c-.23.087-.444.197-.642.332h-.11V2.129c.162-.07.4-.14.715-.212.316-.07.633-.105.95-.105.638 0 1.124.134 1.46.403.334.266.502.645.502 1.135 0 .32-.081.626-.243.916-.16.289-.404.588-.735.895a9.299 9.299 0 01-.625.53c-.21.16-.36.271-.448.335h2.287V7zm3.299.1c-.378 0-.728-.057-1.05-.168a2.24 2.24 0 01-.823-.5 2.253 2.253 0 01-.537-.827 3.218 3.218 0 01-.188-1.145c0-.403.06-.769.181-1.097.121-.328.297-.61.527-.844.22-.226.494-.4.82-.523a3.034 3.034 0 011.073-.184c.215 0 .407.012.578.037.173.023.333.054.479.092.152.044.29.093.413.147.125.053.235.102.328.147V3.47h-.15a5.967 5.967 0 00-.243-.195 3.034 3.034 0 00-.328-.222 2.28 2.28 0 00-.407-.184 1.557 1.557 0 00-.995.014 1.26 1.26 0 00-.46.286c-.135.13-.245.302-.329.517a2.186 2.186 0 00-.123.779c0 .319.045.585.133.8.091.214.206.382.342.506.14.125.294.215.465.27.17.052.34.078.506.078.16 0 .317-.024.472-.072.157-.047.301-.112.434-.194.111-.067.215-.137.31-.212.096-.076.175-.14.236-.195h.137v1.217c-.127.057-.25.11-.365.16a3.01 3.01 0 01-.366.13 4.394 4.394 0 01-.468.11 3.74 3.74 0 01-.602.037zm7.468-.1h-1.357l-.352-1.029h-1.887L30.584 7h-1.322l1.88-5.09h1.51L34.532 7zm-2.027-1.962l-.625-1.825-.626 1.825h1.251zM40.6 7h-1.305V3.592l-.944 2.212h-.906l-.943-2.212V7h-1.237V1.91h1.524l1.145 2.554 1.142-2.553h1.524V7z" fill="#fff"></path></g><g transform="translate(160, 0)"><path d="M19.5 10c0 5.2-4.3 9.5-9.5 9.5S.5 15.2.5 10 4.8.5 10 .5s9.5 4.3 9.5 9.5z" fill="#FFF"></path><path d="M10 1c-5 0-9 4-9 9s4 9 9 9 9-4 9-9-4-9-9-9zM0 10C0 4.5 4.5 0 10 0s10 4.5 10 10-4.5 10-10 10S0 15.5 0 10z" fill="#F11F86"></path><path d="M7.4 13.1c1.1 0 2.8-.6 3.8-1.1 1-.5 1.9-.4 2.3-.3.5.2 1.5.9 1.8 1.5.4.6.1 1.1 0 1.1-.1.1-.9 1.7-4 1.7-2.7-.2-7.8-1.6-7.8-6.5.4-4.2 6.8-6.3 6.8-6.3s.8-.2.9.3c.1.4-.4 1.1-2.1 1.4-2.8.4-4.6 2.7-4.8 4.5 0 .7.4 3.7 3.1 3.7z" fill="#EE1D80"></path></g><g fill="none" transform="translate(48, 68)"><rect fill="#000" height="14" opacity=".4" rx="7" width="40"></rect><path clip-rule="evenodd" d="M8.972 4c-.459.004-.903.173-1.261.48a2.192 2.192 0 00-.71 1.207 2.192 2.192 0 00-.71-1.208A1.968 1.968 0 005.029 4a1.996 1.996 0 00-1.443.656c-.38.413-.591.97-.586 1.548 0 1.034.67 2.156 1.992 3.333.62.546 1.283 1.033 1.981 1.456a.053.053 0 00.054 0c.698-.423 1.361-.91 1.98-1.456C10.33 8.36 11 7.238 11 6.204a2.258 2.258 0 00-.585-1.547A1.997 1.997 0 008.972 4z" fill-rule="evenodd" fill="#00FF72"></path><path d="M15.233 3.3h-1.518V11h4.455V9.548h-2.937V3.3zm4.24 7.7h1.517V3.3h-1.518V11zm7.167 0l2.596-7.7h-1.661l-1.87 5.918L23.824 3.3h-1.65l2.585 7.7h1.88zm5.296-3.179h2.915v-1.43h-2.915V4.752h3.19V3.3h-4.708V11h4.763V9.548h-3.245V7.821z" fill="#fff"></path></g><g fill="none" transform="translate(0, 0)"><path d="M1 1a1 1 0 00-1 1v9a1 1 0 001 1h17a1 1 0 001-1V2a1 1 0 00-1-1H1z" fill="url(#la_x)"></path><path d="M21 1.77a.77.77 0 01.77-.77h6.73A1.5 1.5 0 0130 2.5V4a3 3 0 01-3 3h-1.23a.77.77 0 01-.77-.77v-.46a.77.77 0 01.77-.77H27a1 1 0 001-1v-.23a.77.77 0 00-.77-.77h-3.46a.77.77 0 00-.77.77v3.96a.77.77 0 01-.77.77h-.46a.77.77 0 01-.77-.77V1.77z" fill="url(#la_w)"></path><path d="M31 1.77a.77.77 0 01.77-.77h6.73A1.5 1.5 0 0140 2.5V4c0 .66-.213 1.27-.574 1.766-.276.377-.323.923.007 1.253l2.756 2.755a.77.77 0 00.544.226H63.23a.77.77 0 01.77.77v.46a.77.77 0 01-.77.77H41.905a.77.77 0 01-.545-.226l-4.549-4.548A.77.77 0 0036.267 7h-.497a.77.77 0 01-.77-.77v-.46a.77.77 0 01.77-.77H37a1 1 0 001-1v-.23a.77.77 0 00-.77-.77h-3.46a.77.77 0 00-.77.77v4.46a.77.77 0 01-.77.77h-.46a.77.77 0 01-.77-.77V1.77z" fill="url(#la_v)"></path><path d="M56.5 1A1.5 1.5 0 0055 2.5V6a3 3 0 003 3h5.23a.77.77 0 00.77-.77v-.46a.77.77 0 00-.77-.77H58a.997.997 0 01-.718-.304c-.296-.305.063-.696.488-.696h5.46a.77.77 0 00.77-.77v-.46a.77.77 0 00-.77-.77H57.5a.5.5 0 010-1h5.73a.77.77 0 00.77-.77v-.46a.77.77 0 00-.77-.77H56.5z" fill="url(#la_u)"></path><path d="M52 8.23c0 .425.345.77.77.77h.46a.77.77 0 00.77-.77V2.602c0-1.289-1.518-1.978-2.488-1.129l-2.005 1.755a.77.77 0 01-1.014 0l-2.005-1.755C45.518.624 44 1.313 44 2.602V8.23c0 .425.345.77.77.77h.46a.77.77 0 00.77-.77V5.4a.77.77 0 011.277-.579l1.216 1.064a.77.77 0 001.014 0l1.216-1.064a.77.77 0 011.277.58V8.23z" fill="url(#la_t)"></path><path d="M38.225 10.226a.77.77 0 00-.544-.226H21.77a.77.77 0 00-.77.77v.46c0 .425.345.77.77.77h16.371a.77.77 0 00.544-1.315l-.46-.46z" fill="url(#la_s)"></path><path d="M42.23 1a.77.77 0 01.77.77v5.371a.77.77 0 01-1.315.545l-.46-.46A.77.77 0 0141 6.68V1.77a.77.77 0 01.77-.77h.46z" fill="url(#la_r)"></path><path d="M4.95 9.1c-.379 0-.728-.057-1.05-.168a2.24 2.24 0 01-.823-.5 2.252 2.252 0 01-.537-.827 3.217 3.217 0 01-.188-1.145c0-.403.06-.769.181-1.097.121-.328.296-.61.527-.844.22-.226.494-.4.82-.523a3.033 3.033 0 011.073-.184c.214 0 .407.012.578.037.173.023.332.054.478.092.153.044.29.093.414.147.125.053.235.102.328.147V5.47h-.15a5.927 5.927 0 00-.243-.195 3.038 3.038 0 00-.328-.222 2.28 2.28 0 00-.407-.184 1.557 1.557 0 00-.995.014 1.26 1.26 0 00-.461.286c-.134.13-.244.302-.328.517a2.185 2.185 0 00-.123.779c0 .319.044.585.133.8.091.214.205.382.342.506.139.125.294.215.465.27.17.052.34.078.506.078.16 0 .316-.024.471-.072.158-.047.302-.112.434-.194.112-.067.216-.137.311-.212.096-.076.175-.14.236-.195h.137v1.217l-.366.16a3.01 3.01 0 01-.365.13 4.394 4.394 0 01-.469.11 3.74 3.74 0 01-.601.037zm6.743-.1H7.698v-.84c.305-.222.61-.457.916-.705.307-.248.553-.462.738-.643.276-.266.472-.499.588-.697.116-.198.174-.394.174-.588 0-.232-.075-.41-.225-.536-.148-.128-.363-.192-.643-.192a1.9 1.9 0 00-.663.13 3.06 3.06 0 00-.643.332h-.109V4.129c.162-.07.4-.14.714-.212.317-.07.634-.105.95-.105.639 0 1.125.134 1.46.403.335.266.502.645.502 1.135 0 .32-.08.626-.242.916-.16.289-.405.588-.735.895a9.323 9.323 0 01-.626.53c-.21.16-.358.271-.447.335h2.286V9zm3.299.1c-.379 0-.728-.057-1.05-.168a2.24 2.24 0 01-.823-.5 2.251 2.251 0 01-.537-.827 3.218 3.218 0 01-.188-1.145c0-.403.06-.769.181-1.097.121-.328.296-.61.527-.844.22-.226.494-.4.82-.523a3.033 3.033 0 011.073-.184c.214 0 .407.012.578.037.173.023.332.054.478.092.153.044.29.093.414.147.125.053.235.102.328.147V5.47h-.15a5.91 5.91 0 00-.243-.195 3.042 3.042 0 00-.328-.222 2.278 2.278 0 00-.407-.184 1.557 1.557 0 00-.995.014 1.26 1.26 0 00-.461.286c-.134.13-.244.302-.328.517a2.183 2.183 0 00-.123.779c0 .319.044.585.133.8.091.214.205.382.342.506.139.125.294.215.465.27.17.052.34.078.506.078.16 0 .316-.024.471-.072a1.83 1.83 0 00.434-.194c.112-.067.216-.137.311-.212.096-.076.175-.14.236-.195h.137v1.217l-.366.16a3.01 3.01 0 01-.366.13 4.392 4.392 0 01-.468.11 3.742 3.742 0 01-.601.037z" fill="#fff"></path></g><g fill="none" transform="translate(120, 0)"><circle cx="18" cy="18" fill-opacity=".26" fill="#fff" r="18"></circle><circle cx="18" cy="18" fill-opacity=".4" fill="#fff" r="14.285"></circle><path d="M28.399 18.08c0 5.58-4.614 10.193-10.193 10.193S8.014 23.659 8.014 18.08 12.627 7.888 18.206 7.888c5.58 0 10.193 4.613 10.193 10.192z" fill="#fff"></path><path d="M18.206 8.343A9.616 9.616 0 008.55 18a9.616 9.616 0 009.656 9.656A9.616 9.616 0 0027.862 18a9.616 9.616 0 00-9.656-9.657zM7.477 18c0-5.901 4.828-10.73 10.73-10.73 5.9 0 10.728 4.829 10.728 10.73 0 5.9-4.828 10.729-10.729 10.729-5.9 0-10.729-4.828-10.729-10.73z" fill="#F11F86"></path><path d="M15.417 21.325c1.18 0 3.004-.643 4.077-1.18 1.073-.536 2.038-.429 2.467-.322.537.215 1.61.966 1.932 1.61.429.643.107 1.18 0 1.18-.108.107-.966 1.824-4.292 1.824-2.897-.215-8.369-1.717-8.369-6.974.43-4.506 7.296-6.76 7.296-6.76s.858-.214.966.322c.107.43-.43 1.18-2.253 1.503-3.005.429-4.936 2.896-5.15 4.828 0 .75.429 3.97 3.326 3.97z" fill="#EE1D80"></path></g><g transform="translate(31, 92)"><path clip-rule="evenodd" d="M2.004.01h17.985c1.104 0 1.999.852 1.999 1.906v10.167c0 1.053-.895 1.906-1.998 1.906H2.003c-1.104 0-1.998-.853-1.998-1.906V1.916C.006.863.9.01 2.004.01z" fill-rule="evenodd" fill="#2D6BDB"></path><path clip-rule="evenodd" d="M0 0h22v4.671H0V0z" fill-rule="evenodd" fill="#fff"></path><path clip-rule="evenodd" d="M0 9.331h22V14H0V9.331z" fill-rule="evenodd" fill="#F63542"></path></g><g transform="translate(120, 78)"><path clip-rule="evenodd" d="M8 1.111c-2.515 0-5.054 1.28-6.822 3.889C2.946 7.61 5.485 8.889 8 8.889c2.515 0 5.054-1.28 6.822-3.889C13.054 2.39 10.515 1.111 8 1.111zM.094 5.316a.577.577 0 010-.631C2.054 1.58 5.015 0 8 0c2.985 0 5.945 1.58 7.906 4.684a.574.574 0 010 .632C13.946 8.42 10.985 10 8 10 5.015 10 2.055 8.42.094 5.316zM8 7.222c-1.178 0-2.133-.995-2.133-2.222 0-1.227.955-2.222 2.133-2.222s2.133.995 2.133 2.222c0 1.227-.955 2.222-2.133 2.222z" fill-rule="evenodd" fill="#636363"></path></g><g fill="none" transform="translate(160, 72)"><g clip-path="url(#la_y)"><path d="M15.726 2.862A2.913 2.913 0 0013.138.274a48.326 48.326 0 00-10.276 0A2.913 2.913 0 00.274 2.862a48.326 48.326 0 000 10.276 2.913 2.913 0 002.588 2.588c3.422.365 6.854.365 10.276 0a2.913 2.913 0 002.588-2.588 48.33 48.33 0 000-10.276z" fill="url(#la_A)"></path><path d="M.24 12.806c.01.111.022.222.034.332a2.913 2.913 0 002.588 2.588 48.33 48.33 0 0010.276 0 2.913 2.913 0 002.588-2.588l.034-.332H.24z" fill="url(#la_z)"></path><path d="M1.916 5.652c.04-.285.071-.571.122-.854.29-1.601 1.424-2.69 3.045-2.746a83.365 83.365 0 015.86 0c1.765.063 3.042 1.37 3.097 3.134a89.896 89.896 0 010 5.626c-.055 1.765-1.332 3.07-3.096 3.134-1.952.07-3.91.073-5.86 0-1.765-.067-2.985-1.376-3.103-3.143-.01-.153-.043-.305-.065-.457V5.652zm6.086 7.249c.893 0 1.787.026 2.678-.007 1.399-.052 2.259-.886 2.291-2.283.04-1.74.04-3.484 0-5.224-.032-1.397-.893-2.25-2.29-2.28-1.775-.038-3.55-.038-5.324 0-1.388.028-2.25.865-2.288 2.246a97.507 97.507 0 000 5.292c.038 1.38.9 2.198 2.288 2.25.88.032 1.763.006 2.645.006z" fill="#fff"></path><path d="M8 4.9A3.1 3.1 0 108 11.1a3.1 3.1 0 000-6.202zm0 5.133a2.033 2.033 0 110-4.066 2.033 2.033 0 010 4.066zM12.02 4.758a.738.738 0 11-1.476 0 .738.738 0 011.476 0z" fill="#fff"></path></g></g><g transform="translate(140, 78)"><path clip-rule="evenodd" d="M8 1.111c-2.515 0-5.054 1.28-6.822 3.889C2.946 7.61 5.485 8.889 8 8.889c2.515 0 5.054-1.28 6.822-3.889C13.054 2.39 10.515 1.111 8 1.111zM.094 5.316a.577.577 0 010-.631C2.054 1.58 5.015 0 8 0c2.985 0 5.945 1.58 7.906 4.684a.574.574 0 010 .632C13.946 8.42 10.985 10 8 10 5.015 10 2.055 8.42.094 5.316zM8 7.222c-1.178 0-2.133-.995-2.133-2.222 0-1.227.955-2.222 2.133-2.222s2.133.995 2.133 2.222c0 1.227-.955 2.222-2.133 2.222z" fill-rule="evenodd" fill="#fff"></path></g><g transform="translate(57, 92)"><path d="M0 0h22v5H0V0z" fill="#fff"></path><path d="M22 9H0v5h22V9z" fill="#F63542"></path><path d="M22 5H0v4h22V5z" fill="#2D6BDB"></path><path clip-rule="evenodd" d="M7.998 2.857c-1.3 0-2.003-.845-2.003-.845s-.705.845-2.005.845c-1.197 0-2.005-.701-2.005-.701v4.589c.036 3.022 4.005 4.271 4.005 4.271s4.006-1.249 4.006-4.271v-4.59s-.801.702-1.998.702z" fill-rule="evenodd" fill="#fff"></path><path clip-rule="evenodd" d="M7.596 3.467c-1.04 0-1.602-.704-1.602-.704s-.564.704-1.604.704a2.583 2.583 0 01-1.604-.585v3.824c.029 2.52 3.204 3.56 3.204 3.56s3.205-1.04 3.205-3.56V2.882s-.641.585-1.599.585z" fill-rule="evenodd" fill="#F63542"></path></g><g fill="none" transform="translate(160, 92)"><path d="M0 2a2 2 0 012-2h12a2 2 0 012 2v12a2 2 0 01-2 2H2a2 2 0 01-2-2V2z" fill="#FFFB00"></path><path d="M2.408 10.467c1.482-.35 2.09-1.478 2.335-2.236a5.336 5.336 0 01-1.013-.267.947.947 0 01-.54-.555c-.103-.263-.1-.563.006-.824l.004-.011c.19-.469.662-.7 1.098-.538.193.071.39.127.591.165v-.7C4.89 3.57 6.285 2 8 2c1.715 0 3.11 1.57 3.11 3.5v.71c.217-.039.43-.097.638-.174.436-.162.908.07 1.098.537l.005.012c.105.26.108.561.006.824a.947.947 0 01-.54.555 5.34 5.34 0 01-1.057.274c.246.757.854 1.88 2.332 2.23l.408.096-.155.436c-.015.045-.37 1.005-1.579 1.12-.02.267-.095.587-.316.786-.223.2-.476.123-.7.055-.329-.1-.78-.238-1.471.281C9.106 13.747 8.553 14 8 14c-.553 0-1.106-.253-1.779-.758-.692-.519-1.142-.381-1.471-.28-.224.067-.477.144-.7-.056-.221-.2-.296-.519-.316-.785-1.209-.116-1.564-1.076-1.58-1.121L2 10.564l.408-.097z" fill="#fff"></path><path clip-rule="evenodd" d="M11.748 6.036c.436-.162.908.07 1.098.537l.005.012c.105.26.108.561.006.824a.947.947 0 01-.54.555 5.37 5.37 0 01-1.057.274c.048.147.11.309.189.476.32.673.925 1.436 2.062 1.733l.08.02.409.097-.155.436a.688.688 0 01-.014.038c-.079.186-.474.979-1.565 1.083-.02.266-.095.586-.316.785-.223.2-.476.123-.7.055-.329-.1-.78-.238-1.471.281C9.106 13.747 8.553 14 8 14c-.553 0-1.106-.253-1.779-.758-.692-.519-1.142-.381-1.471-.28-.224.067-.477.144-.7-.056-.221-.2-.296-.519-.316-.785-1.091-.105-1.486-.897-1.565-1.083A.688.688 0 012.154 11L2 10.564l.408-.097.081-.02c1.141-.298 1.747-1.065 2.066-1.74.079-.167.14-.329.188-.476a5.306 5.306 0 01-1.013-.267.947.947 0 01-.54-.555c-.103-.263-.1-.563.006-.824l.004-.011c.19-.469.662-.7 1.098-.538a3.781 3.781 0 00.591.165v-.7C4.89 3.57 6.285 2 8 2c1.715 0 3.11 1.57 3.11 3.5v.71a3.695 3.695 0 00.638-.174zM4.822 7.738a4.836 4.836 0 01-.918-.243.449.449 0 01-.249-.267.628.628 0 01.003-.453l.006-.013c.103-.254.313-.312.46-.257.219.08.443.143.67.187l.595.114V5.501C5.39 3.789 6.615 2.5 8 2.5c1.385 0 2.61 1.29 2.61 3v1.307l.589-.105c.246-.044.488-.11.723-.197.147-.055.357.003.46.256l.005.012c.058.143.06.311.004.455-.016.06-.105.204-.336.295-.232.092-.677.185-.87.22l-.583.09.182.56c.265.814.935 2.08 2.551 2.525-.1.189-.408.637-1.116.705l-.42.04-.031.42c-.018.233-.08.386-.152.451h-.004a.383.383 0 01-.076-.011 2.25 2.25 0 01-.14-.04l-.013-.004a2.023 2.023 0 00-.77-.108c-.352.026-.726.166-1.134.471-.642.482-1.087.658-1.479.658-.392 0-.837-.176-1.479-.658-.408-.305-.782-.445-1.134-.471a2.02 2.02 0 00-.77.108l-.013.004c-.058.018-.1.03-.14.04a.385.385 0 01-.076.011h-.003c-.073-.065-.135-.218-.153-.451l-.032-.42-.419-.04c-.708-.068-1.016-.516-1.116-.705 1.62-.446 2.29-1.717 2.553-2.533l.114-.549-.51-.098z" fill-rule="evenodd" fill="#5A5A5A"></path></g><g fill="none" transform="translate(135, 92)"><path d="M15 1.656a5.895 5.895 0 01-1.832.557c.659-.437 1.163-1.13 1.402-1.955-.618.405-1.3.7-2.027.859C11.96.429 11.133 0 10.213 0c-1.761 0-3.19 1.583-3.19 3.535 0 .277.028.547.082.805C4.454 4.193 2.103 2.785.53.646a3.803 3.803 0 00-.432 1.777c0 1.227.564 2.31 1.42 2.943A2.959 2.959 0 01.07 4.922v.044c0 1.712 1.1 3.142 2.56 3.467-.268.08-.55.124-.841.124-.206 0-.406-.023-.601-.066.406 1.406 1.584 2.428 2.98 2.456-1.092.947-2.468 1.51-3.963 1.51-.197 0-.286.27-.116.371A8.321 8.321 0 004.336 14c5.87 0 9.079-5.387 9.079-10.06l-.011-.457A6.793 6.793 0 0015 1.656z" fill="#00B2FF"></path></g><g transform="translate(70, 111)"><path d="M7 0C3.1 0 0 3.1 0 7s3.1 7 7 7 7-3.1 7-7-3.1-7-7-7zm0 13c-3.3 0-6-2.7-6-6s2.7-6 6-6 6 2.7 6 6-2.7 6-6 6z" fill="#00B2FF"></path><circle cx="7" cy="4" fill="#00B2FF" r="1"></circle><rect fill="#00B2FF" height="5" width="2" x="6" y="6"></rect></g><g transform="translate(83, 92)"><path d="M0 0h22v5H0V0z"></path><rect fill="#FFDE3F" height="5" width="22" y="9"></rect><rect fill="#F63542" height="4" width="22" y="5"></rect></g><g fill="none" transform="translate(109, 92)"><rect fill="#fff" height="14" width="22"></rect><mask height="14" id="la_B" maskUnits="userSpaceOnUse" width="22" x="0" y="0"><rect fill="#fff" height="14" width="22"></rect></mask><g fill="#F22F46" mask="url(#la_B)"><rect height="1" width="22"></rect><rect height="1" width="22" y="2"></rect><rect height="1" width="22" y="4"></rect><rect height="1" width="22" y="6"></rect><rect height="1" width="22" y="8"></rect><rect height="1" width="22" y="10"></rect><rect height="1" width="22" y="12"></rect></g><path d="M0 0h11v7H0V0z" fill="#306DD7"></path><rect fill="#fff" height="1" width="1" x="1" y="1"></rect><rect fill="#fff" height="1" width="1" x="1" y="3"></rect><rect fill="#fff" height="1" width="1" x="1" y="5"></rect><rect fill="#fff" height="1" width="1" x="3" y="1"></rect><rect fill="#fff" height="1" width="1" x="3" y="3"></rect><rect fill="#fff" height="1" width="1" x="3" y="5"></rect><rect fill="#fff" height="1" width="1" x="5" y="1"></rect><rect fill="#fff" height="1" width="1" x="5" y="3"></rect><rect fill="#fff" height="1" width="1" x="5" y="5"></rect><rect fill="#fff" height="1" width="1" x="7" y="1"></rect><rect fill="#fff" height="1" width="1" x="7" y="3"></rect><rect fill="#fff" height="1" width="1" x="7" y="5"></rect><rect fill="#fff" height="1" width="1" x="9" y="1"></rect><rect fill="#fff" height="1" width="1" x="9" y="3"></rect><rect fill="#fff" height="1" width="1" x="9" y="5"></rect><rect fill="#fff" height="1" width="1" x="1" y="7"></rect><rect fill="#fff" height="1" width="1" x="3" y="7"></rect><rect fill="#fff" height="1" width="1" x="5" y="7"></rect><rect fill="#fff" height="1" width="1" x="7" y="7"></rect><rect fill="#fff" height="1" width="1" x="9" y="7"></rect><rect fill="#fff" height="1" width="1" x="11" y="1"></rect><rect fill="#fff" height="1" width="1" x="11" y="3"></rect><rect fill="#fff" height="1" width="1" x="11" y="5"></rect><rect fill="#fff" height="1" width="1" x="11" y="7"></rect></g><g fill="none" transform="translate(18, 111)"><rect fill="#fff" height="14" width="22"></rect><rect fill="#F63542" height="7" width="22" y="7"></rect><path d="M0 14V0l9 7-9 7z" fill="#2D6BDB"></path></g><g transform="translate(160, 112)"><radialGradient cx="-157.023" cy="506.55" gradientTransform="matrix(0 300 300 0 -151957 47115)" gradientUnits="userSpaceOnUse" id="la_C" r=".027"><stop offset="0" stop-color="#390d26"></stop><stop offset="1" stop-color="#190b1a"></stop></radialGradient><path d="M2.5 0h11C14.9 0 16 1.1 16 2.5v11c0 1.4-1.1 2.5-2.5 2.5h-11C1.1 16 0 14.9 0 13.5v-11C0 1.1 1.1 0 2.5 0z" fill="url(#la_C)"></path><path d="M10.9 1.6c.2 2.6 2.2 3.1 3.2 3.1v2.4c-1 .1-2.5-.5-3.2-.8v4c.1 1.7-.8 2.9-1.3 3.3-.8.8-3 1.9-5.2.4-2.3-1.5-2-4-1.6-5 1.3-2.9 3.8-2.6 3.9-2.7h.6v2.4C6 8.4 5.2 9.4 5 10c-.3 1.6.8 2.3 1.4 2.4 1.7.2 2.2-1.1 2.2-1.9V1.7h2.3z" fill="#fe1758"></path><path d="M10.3 1.3c-.1 2.1 1.8 3.1 3.1 3.1v.7c-.8 0-2.7.2-3.5.4-1 .2.3 2.2 0 5.7-.2 2.8-3.9 3-5.6 2.8-.8-.2-3.3-2.5-2-5.5 1-2.3 3.5-2.6 4.5-2.4v2.4c-1.3-.4-2 .4-2.3.8-.7 1.6.4 2.4 1 2.7 1.5.4 2.3-.7 2.4-1.5V1.3h2.4z" fill="#56fdff"></path><path d="M12.2 4.1c.4.3.9.5 1.3.6v2c-1.6 0-2.8-.7-3.1-1v4.7c0 .7-.3 1.5-.5 1.8-.8 1.6-2.4 2.1-3.2 2.1-.5 0-1.4.1-2.3-.4-.4-.3-.9-.7-1.3-1.4-1-1.8-.5-3.5.6-4.9 1-1.1 2.4-1.3 3-1.3v2.1c-.7-.2-1.4-.1-2 .5-.5.5-.5 1.2-.5 1.5.2 1 .9 1.4 1.3 1.5.3.3 1.1.7 2 .3.9-.4 1.1-1.4 1-1.8V1.6h1.7c.3 1.4 1.1 2.1 2 2.5z" fill="#fff"></path></g><g transform="translate(44, 111)"><path clip-rule="evenodd" d="M0 0h7.333v14H0V0z" fill-rule="evenodd" fill="#2D6BDB"></path><path clip-rule="evenodd" d="M14.667 0H22v14h-7.333V0z" fill-rule="evenodd" fill="#F63542"></path><rect fill="#fff" height="14" width="7.333" x="7.333"></rect></g><g fill="none" transform="translate(160, 24)"><path d="M3 17.203l4.242-4.243M12.673 6.686l-.056.884.88-.09c.886-.09 1.82.118 2.586.884.535.535.743 1.387.669 2.256-.075.867-.431 1.748-1.023 2.34-.64.64-1.253.955-2.063 1.085-.81.13-1.816.076-3.24-.024-1.237-.177-1.952-.361-2.398-.542a2.32 2.32 0 01-.499-.266c-.11-.08-.19-.158-.285-.253h0c-.205-.205-.382-.381-.552-.816-.17-.435-.332-1.129-.509-2.366-.2-2.85.135-4.378 1.414-5.657 1.183-1.183 3.171-1.071 4.243 0 .652.653.894 1.602.833 2.565z" stroke-width="1.5" stroke="#fff"></path></g><g fill="none" transform="translate(160, 48)"><path d="M10 18v-6" stroke-width="1.5" stroke="#FF4286"></path><path d="M9.401 4.834l.59.686.565-.708c.49-.615 1.185-1.062 2.11-1.062.654 0 1.291.366 1.792.994.502.63.792 1.434.792 2.12 0 1.671-1.15 2.718-2.642 4.043-.886.679-1.444 1.014-1.827 1.18-.2.087-.348.125-.459.143-.111.018-.204.02-.322.02-.147 0-.25-.001-.369-.02a1.753 1.753 0 01-.452-.142c-.37-.166-.9-.501-1.787-1.181C5.484 9.21 4.75 8.03 4.75 6.409c0-1.496 1.295-2.659 2.583-2.659.782 0 1.509.434 2.068 1.084z" fill="#FF4286" stroke-width="1.5" stroke="#FF4286"></path></g><view id="svg_cs" viewBox="18 111 22 14"></view><view id="svg_de" viewBox="83 92 22 14"></view><view id="svg_fr" viewBox="44 111 22 14"></view><view id="svg_ls_arrow_sharp" viewBox="68 52 5 9"></view><view id="svg_ls_bage_fb" viewBox="68 0 48 48"></view><view id="svg_ls_bage_fp" viewBox="0 16 48 48"></view><view id="svg_ls_bage_hd" viewBox="92 68 22 15"></view><view id="svg_ls_bage_hd_plus" viewBox="120 59 28 15"></view><view id="svg_ls_bage_live" viewBox="0 92 27 15"></view><view id="svg_ls_bage_live_14" viewBox="48 68 40 15"></view><view id="svg_ls_bage_mobile" viewBox="0 111 14 22"></view><view id="svg_ls_bage_new" viewBox="120 40 30 15"></view><view id="svg_ls_bage_rt" viewBox="0 68 44 20"></view><view id="svg_ls_bage_rt_s" viewBox="0 0 64 12"></view><view id="svg_ls_bage_vibe" viewBox="120 0 36 36"></view><view id="svg_ls_bage_vibratoy" viewBox="160 0 20 20"></view><view id="svg_ls_eye_gray" viewBox="120 78 16 10"></view><view id="svg_ls_eye_white" viewBox="140 78 16 10"></view><view id="svg_ls_info_blue" viewBox="70 111 14 14"></view><view id="svg_ls_instagram" viewBox="160 72 16 16"></view><view id="svg_ls_pin_active" viewBox="160 48 20 20"></view><view id="svg_ls_pin_inactive" viewBox="160 24 20 20"></view><view id="svg_ls_snapchat" viewBox="160 92 16 16"></view><view id="svg_ls_tiktok" viewBox="160 112 16 16"></view><view id="svg_ls_twitter" viewBox="135 92 15 14"></view><view id="svg_ru" viewBox="31 92 22 14"></view><view id="svg_sk" viewBox="57 92 22 14"></view><view id="svg_us" viewBox="109 92 22 14"></view></svg>