<svg xmlns="http://www.w3.org/2000/svg" viewBox="0 0 156 144"><defs><clipPath id="mf_q"><rect width="22" height="14" fill="#fff"></rect></clipPath><clipPath id="mf_p"><rect width="22" height="14" fill="#fff"></rect></clipPath><clipPath id="mf_o"><rect width="22" height="14" fill="#fff"></rect></clipPath><clipPath id="mf_n"><rect width="22" height="14" fill="#fff"></rect></clipPath><clipPath id="mf_m"><rect width="22" height="14" fill="#fff"></rect></clipPath><clipPath id="mf_l"><rect width="22" height="14" fill="#fff"></rect></clipPath><clipPath id="mf_k"><rect width="22" height="14" fill="#fff"></rect></clipPath><clipPath id="mf_j"><rect width="22" height="14" fill="#fff"></rect></clipPath><clipPath id="mf_i"><rect width="22" height="14" fill="#fff"></rect></clipPath><clipPath id="mf_h"><rect width="22" height="14" fill="#fff"></rect></clipPath><clipPath id="mf_g"><rect width="22" height="14" fill="#fff"></rect></clipPath><clipPath id="mf_f"><rect width="22" height="14" fill="#fff"></rect></clipPath><clipPath id="mf_e"><rect width="22" height="14" fill="#fff"></rect></clipPath><clipPath id="mf_d"><rect width="22" height="14" fill="#fff"></rect></clipPath><clipPath id="mf_c"><rect width="22" height="14" fill="#fff"></rect></clipPath><clipPath id="mf_b"><rect width="22" height="14" fill="#fff"></rect></clipPath></defs><g fill="none" transform="translate(0, 0)"><rect width="22" height="14" fill="#fff"></rect><mask id="mf_a" width="22" height="14" x="0" y="0" mask-type="alpha" maskUnits="userSpaceOnUse"><rect width="22" height="14" fill="#fff"></rect></mask><g fill="#F22F46" mask="url(#mf_a)"><rect width="22" height="1"></rect><rect width="22" height="1" y="2"></rect><rect width="22" height="1" y="4"></rect><rect width="22" height="1" y="6"></rect><rect width="22" height="1" y="8"></rect><rect width="22" height="1" y="10"></rect><rect width="22" height="1" y="12"></rect></g><path fill="#306DD7" d="M0 0h11v7H0V0Z"></path><rect width="1" height="1" x="1" y="1" fill="#fff"></rect><rect width="1" height="1" x="1" y="3" fill="#fff"></rect><rect width="1" height="1" x="1" y="5" fill="#fff"></rect><rect width="1" height="1" x="3" y="1" fill="#fff"></rect><rect width="1" height="1" x="3" y="3" fill="#fff"></rect><rect width="1" height="1" x="3" y="5" fill="#fff"></rect><rect width="1" height="1" x="5" y="1" fill="#fff"></rect><rect width="1" height="1" x="5" y="3" fill="#fff"></rect><rect width="1" height="1" x="5" y="5" fill="#fff"></rect><rect width="1" height="1" x="7" y="1" fill="#fff"></rect><rect width="1" height="1" x="7" y="3" fill="#fff"></rect><rect width="1" height="1" x="7" y="5" fill="#fff"></rect><rect width="1" height="1" x="9" y="1" fill="#fff"></rect><rect width="1" height="1" x="9" y="3" fill="#fff"></rect><rect width="1" height="1" x="9" y="5" fill="#fff"></rect><rect width="1" height="1" x="1" y="7" fill="#fff"></rect><rect width="1" height="1" x="3" y="7" fill="#fff"></rect><rect width="1" height="1" x="5" y="7" fill="#fff"></rect><rect width="1" height="1" x="7" y="7" fill="#fff"></rect><rect width="1" height="1" x="9" y="7" fill="#fff"></rect><rect width="1" height="1" x="11" y="1" fill="#fff"></rect><rect width="1" height="1" x="11" y="3" fill="#fff"></rect><rect width="1" height="1" x="11" y="5" fill="#fff"></rect><rect width="1" height="1" x="11" y="7" fill="#fff"></rect></g><g fill="none" transform="translate(26, 0)"><path fill="#F2A800" d="M0 0h22v14H0V0Z"></path><path fill="#0033A0" d="M0 0h22v9.333H0V0Z"></path><path fill="#D90012" d="M0 0h22v4.667H0V0Z"></path></g><g fill="none" transform="translate(0, 18)"><path fill="red" d="M22 0H0v14h22V0Z"></path><path fill="#000" fill-rule="evenodd" d="m13.528 3.107-.55-.699-.334-.158h-1.32l-.324 2-.461-2H9.288l-.317.167-.522.736h.834L9.05 4.466 7 3.25l1 5.5 2 1 1 2 1-2 2-1 1-5.5-2.083 1.216-.267-1.36h.88l-.002.001Z" clip-rule="evenodd"></path></g><g fill="none" transform="translate(26, 18)"><path fill="#509E2F" d="M22 0H0v14h22V0Z"></path><path fill="#EF3340" d="M22 0H0v9.333h22V0Z"></path><path fill="#00B5E2" d="M22 0H0v4.667h22V0Z"></path><path fill="#fff" d="M10.3 9.1a2.1 2.1 0 1 0 0-4.2 2.1 2.1 0 0 0 0 4.2Z"></path><path fill="#EF3340" d="M10.767 8.75a1.75 1.75 0 1 0 0-3.5 1.75 1.75 0 0 0 0 3.5Z"></path><path fill="#fff" d="m12.633 5.833.224.628.601-.286-.286.602L13.8 7l-.628.223.286.602-.601-.286-.224.628-.223-.628-.602.286.286-.602L11.467 7l.627-.223-.286-.602.602.286.223-.628Z"></path></g><g fill="none" transform="translate(52, 0)"><g fill-rule="evenodd" clip-path="url(#mf_b)" clip-rule="evenodd"><path fill="#F63542" d="M0 0h5.74v14H0V0Z"></path><path fill="#009100" d="M5.727 0H22v4.667H5.727V0Z"></path><path fill="#F5F7FA" d="M5.739 4.667h16.26v4.666H5.74V4.667h-.001Z"></path><path fill="#000" d="M5.727 9.333H22V14H5.727V9.333Z"></path></g></g><g fill="none" transform="translate(52, 18)"><path fill="#fff" d="M0 0h22v7H0V0Z"></path><path fill="#F63542" d="M22 7H0v7h22V7Z"></path><path fill="#2D6BDB" d="M0 14V0l9 7-9 7Z"></path></g><g fill="none" transform="translate(0, 36)"><g clip-path="url(#mf_c)"><path fill="#2D6BDB" fill-rule="evenodd" d="M0 9.333h22V14H0V9.333Z" clip-rule="evenodd"></path><path fill="#F63542" fill-rule="evenodd" d="M0 4.672V0h22v4.672H0Z" clip-rule="evenodd"></path><path fill="#fff" d="M0 4.667h22v4.667H0V4.667Z"></path><path fill="#F5F7FA" fill-rule="evenodd" d="M13.005 2.938c-1.299 0-2-.938-2-.938s-.704.938-2.003.938C7.807 2.938 7 2.16 7 2.16v5.097C7.036 10.613 11 12 11 12s4-1.387 4-4.744V2.159s-.8.78-1.995.78v-.001Z" clip-rule="evenodd"></path><path fill="#F63542" fill-rule="evenodd" d="M12.504 3.75c-.974 0-1.5-.75-1.5-.75s-.528.75-1.502.75C8.605 3.75 8 3.128 8 3.128v4.078C8.027 9.89 11 11 11 11s3-1.11 3-3.795V3.127s-.6.624-1.496.624V3.75Z" clip-rule="evenodd"></path></g></g><g fill="none" transform="translate(26, 36)"><path fill="#F63542" d="M0 0h22v14H0V0Z"></path><path fill="#fff" d="M7.664 0H4.79v5.609H0v2.79h4.79V14h2.874V8.398H22v-2.79H7.664V0Z"></path></g><g fill="none" transform="translate(52, 36)"><g clip-path="url(#mf_d)"><path fill="#2D6BDB" d="M0 9.333h22V14H0V9.333Z"></path><path fill="#F63542" fill-rule="evenodd" d="M0 0h22v4.766H0V0Z" clip-rule="evenodd"></path><path fill="#fff" fill-rule="evenodd" d="M0 4.766h22v4.766H0V4.766Z" clip-rule="evenodd"></path></g></g><g fill="none" transform="translate(0, 54)"><path fill="#fff" d="M0 9h22v5H0V9Z"></path><path fill="#2D6BDB" fill-rule="evenodd" d="M0 0h22v5H0V0Z" clip-rule="evenodd"></path><path fill="#131313" fill-rule="evenodd" d="M0 5h22v4H0V5Z" clip-rule="evenodd"></path></g><g fill="none" transform="translate(26, 54)"><g fill-rule="evenodd" clip-path="url(#mf_e)" clip-rule="evenodd"><path fill="#2D6BDB" d="M2.006 0H19.99c1.104 0 1.998.855 1.998 1.908v10.18c0 1.053-.894 1.908-1.998 1.908H2.006c-1.104 0-1.998-.855-1.998-1.909V1.909C.008.855.902 0 2.006 0Z"></path><path fill="#fff" d="m22 12.434-5.1-3.092H22v-3.73h-4.83L22 2.675V.01h-1.877l-7.68 4.667V.01H8.595v4.297L1.508.01H0v2.47l5.163 3.131H.007v3.731h4.76L0 12.24V14h3.368l5.227-3.178V14h3.848v-3.975L19 14h3v-1.566Z"></path><path fill="#F63542" d="M0 14h1.34l8.22-5.064V14h1.917V8.5l8.95 5.5H22v-.285L13.372 8.41h8.616V6.54h-8.533L22 1.276V.014l-10.522 6.48V.01H9.561v6.06L0 .192v1.252L8.288 6.54H0v1.87h8.364L0 13.563V14Z"></path></g></g><g fill="none" transform="translate(52, 54)"><path fill="#fff" d="M0 0h22v14H0V0Z"></path><path fill="#2D6BDB" d="M7.664 0H4.79v5.609H0v2.79h4.79V14h2.874V8.398H22v-2.79H7.664V0Z"></path></g><g fill="none" transform="translate(78, 0)"><path fill="#fff" d="M0 0h22v14H0V0Z"></path><path fill="red" d="M9.533 0h2.934v14H9.533V0ZM0 5.6h22v2.8H0V5.6ZM4.25 1.368c.343.043.69.043 1.032 0a6.956 6.956 0 0 0 0 2.864 4.147 4.147 0 0 0-1.031 0 6.956 6.956 0 0 0 0-2.864Z"></path><path fill="red" d="M6.267 2.308a3.61 3.61 0 0 0 0 .984c-.99-.19-2.01-.19-3 0a3.61 3.61 0 0 0 0-.984c.99.19 2.01.19 3 0ZM16.718 1.368c.342.043.689.043 1.031 0a6.957 6.957 0 0 0 0 2.864 4.147 4.147 0 0 0-1.031 0 6.957 6.957 0 0 0 0-2.864Z"></path><path fill="red" d="M18.734 2.308a3.616 3.616 0 0 0 0 .984c-.99-.19-2.01-.19-3.001 0a3.608 3.608 0 0 0 0-.984c.99.19 2.01.19 3 0ZM4.25 9.768c.343.043.69.043 1.032 0a6.956 6.956 0 0 0 0 2.864 4.15 4.15 0 0 0-1.031 0 6.956 6.956 0 0 0 0-2.864Z"></path><path fill="red" d="M6.267 10.708a3.609 3.609 0 0 0 0 .984c-.99-.19-2.01-.19-3 0a3.61 3.61 0 0 0 0-.984c.99.19 2.01.19 3 0ZM16.718 9.768c.342.043.689.043 1.031 0a6.957 6.957 0 0 0 0 2.864 4.15 4.15 0 0 0-1.031 0 6.957 6.957 0 0 0 0-2.864Z"></path><path fill="red" d="M18.734 10.708a3.615 3.615 0 0 0 0 .984c-.99-.19-2.01-.19-3.001 0a3.607 3.607 0 0 0 0-.984c.99.19 2.01.19 3 0Z"></path></g><g fill="none" transform="translate(78, 18)"><path fill="#000" d="M0 0h22v5H0V0Z"></path><path fill="#FFDE3F" d="M0 9h22v5H0V9Z"></path><path fill="#F63542" d="M0 5h22v4H0V5Z"></path></g><g fill="none" transform="translate(78, 36)"><path fill="#2D6BDB" fill-rule="evenodd" d="M0 0h7.333v14H0V0Z" clip-rule="evenodd"></path><path fill="#F63542" fill-rule="evenodd" d="M14.667 0H22v14h-7.333V0Z" clip-rule="evenodd"></path><path fill="#fff" d="M7.333 0h7.333v14H7.333V0Z"></path></g><g fill="none" transform="translate(78, 54)"><path fill="#fff" d="M0 0h22v14H0V0Z"></path><path fill="#2D6BDB" d="M22 0H0v8.408h22v-1.89H9.561v-.923H22V3.73H9.561v-.943H22V0Zm0 9.34H0v1.858h22V9.34ZM0 12.13h22v1.857H0V12.13Z"></path><path fill="#fff" d="M5.731 0H3.816v3.722H0V5.61h3.816v2.798H5.73V5.61h3.83V3.722H5.73V0h.001Z"></path></g><g fill="none" transform="translate(0, 72)"><g fill-rule="evenodd" clip-path="url(#mf_f)" clip-rule="evenodd"><path fill="#F5F7FA" d="M2 0h18c1.105 0 2 .855 2 1.91v10.18c0 1.055-.895 1.91-2 1.91H2c-1.105 0-2-.855-2-1.909V1.909C0 .855.895 0 2 0Z"></path><path fill="#FF5835" d="M0 0h22v4.667H0V0Z"></path><path fill="#009100" d="M0 9.333h22V14H0V9.333Z"></path><path fill="#2D6BDB" d="m12.59 6.89-.113-.196a.57.57 0 0 1-.065-.238v-.227a.245.245 0 0 0-.112-.19l-.19-.11a.56.56 0 0 1-.176-.174l-.11-.19a.245.245 0 0 0-.191-.111h-.227a.572.572 0 0 1-.24-.064l-.196-.112a.246.246 0 0 0-.221 0l-.19.111a.56.56 0 0 1-.239.065h-.22c-.07 0-.156.05-.191.11l-.114.197a.57.57 0 0 1-.174.175l-.196.114a.246.246 0 0 0-.11.192l.001.22c0 .07-.028.177-.063.238l-.11.19a.245.245 0 0 0 0 .222l.113.196a.57.57 0 0 1 .065.238v.227c.001.07.051.156.112.191l.191.11c.061.034.14.112.175.173l.11.19a.245.245 0 0 0 .192.111h.226a.58.58 0 0 1 .24.064l.196.112c.061.035.16.035.222 0l.19-.111a.562.562 0 0 1 .238-.065h.22c.07 0 .156-.05.191-.11l.114-.197a.572.572 0 0 1 .174-.175l.196-.114a.245.245 0 0 0 .11-.192l-.001-.22c0-.07.028-.177.063-.238l.11-.19a.246.246 0 0 0 0-.222Zm-.681.178-.067.115a.338.338 0 0 0-.038.144v.133a.15.15 0 0 1-.066.116l-.118.07a.345.345 0 0 0-.106.105l-.068.118a.149.149 0 0 1-.116.067h-.133a.34.34 0 0 0-.144.04l-.115.066a.148.148 0 0 1-.134 0l-.119-.067a.344.344 0 0 0-.145-.039h-.136a.15.15 0 0 1-.117-.067l-.066-.114a.34.34 0 0 0-.106-.106L10 7.583a.15.15 0 0 1-.068-.115V7.33a.346.346 0 0 0-.04-.145l-.068-.118a.15.15 0 0 1 0-.134l.067-.115a.339.339 0 0 0 .038-.144v-.133a.15.15 0 0 1 .066-.116l.119-.069a.347.347 0 0 0 .105-.106l.069-.118a.149.149 0 0 1 .116-.067h.132a.34.34 0 0 0 .145-.04l.114-.066a.15.15 0 0 1 .134 0l.12.067a.346.346 0 0 0 .144.04h.137a.15.15 0 0 1 .116.066l.066.114a.339.339 0 0 0 .106.106l.115.066a.15.15 0 0 1 .068.115v.137c0 .043.018.108.04.145l.068.118a.147.147 0 0 1 0 .134v.001Z"></path></g></g><g fill="none" transform="translate(26, 72)"><g clip-path="url(#mf_g)"><path fill="#009100" d="M0 9.333h22V14H0V9.333Z"></path><path fill="#F63542" fill-rule="evenodd" d="M0 0h22v4.766H0V0Z" clip-rule="evenodd"></path><path fill="#fff" fill-rule="evenodd" d="M0 4.766h22v4.766H0V4.766Z" clip-rule="evenodd"></path></g></g><g fill="none" transform="translate(52, 72)"><g clip-path="url(#mf_h)"><path fill="#002395" d="M22 0H0v14h22V0Z"></path><path fill="#FECB00" d="M4.42 0h14v14l-14-14Z"></path><path fill="#fff" d="M1.118.918 1.9-1.487 2.682.918.635-.568h2.53L1.118.918ZM2.868 2.668 3.65.263l.782 2.405-2.047-1.486h2.53L2.868 2.668ZM4.618 4.418 5.4 2.013l.782 2.405-2.047-1.486h2.53L4.618 4.418ZM6.368 6.168l.782-2.405.782 2.405-2.047-1.486h2.53L6.368 6.168ZM8.118 7.918 8.9 5.513l.782 2.405-2.047-1.486h2.53L8.118 7.918ZM9.868 9.668l.782-2.405.782 2.405-2.047-1.486h2.53L9.868 9.668ZM11.618 11.418l.782-2.405.782 2.405-2.047-1.486h2.53l-2.047 1.486ZM13.368 13.168l.782-2.405.782 2.405-2.047-1.486h2.53l-2.047 1.486ZM15.118 14.918l.782-2.405.782 2.405-2.047-1.486h2.53l-2.047 1.486Z"></path></g></g><g fill="none" transform="translate(78, 72)"><path fill="#fff" d="M0 0h22v14H0V0Z"></path><path fill="red" d="M0 0h22v7H0V0Z"></path></g><g fill="none" transform="translate(104, 0)"><path fill="#009100" fill-rule="evenodd" d="M0 0h7.333v14H0V0Z" clip-rule="evenodd"></path><path fill="#F63542" fill-rule="evenodd" d="M14.667 0H22v14h-7.333V0Z" clip-rule="evenodd"></path><path fill="#fff" d="M7.333 0h7.333v14H7.333V0Z"></path></g><g fill="none" transform="translate(104, 18)"><g clip-path="url(#mf_i)"><path fill="#F63542" d="M0 9.333h22V14H0V9.333Z"></path><path fill="#fff" fill-rule="evenodd" d="M0 0h22v4.766H0V0Z" clip-rule="evenodd"></path><path fill="#009100" fill-rule="evenodd" d="M0 4.667h22v4.666H0V4.667Z" clip-rule="evenodd"></path></g></g><g fill="none" transform="translate(104, 36)"><path fill="#F63542" d="M0 0h22v14H0V0Z"></path><path fill="#FFDE3F" d="M7.692 2.765c-.088.06-.14.026-.113-.076l.094-.381a.34.34 0 0 0-.102-.31l-.285-.242c-.082-.068-.06-.127.046-.13l.4-.01a.287.287 0 0 0 .25-.19l.126-.416c.03-.1.085-.102.12-.003l.15.41c.038.1.155.181.263.182l.408.004c.107.001.128.058.047.128l-.31.265a.323.323 0 0 0-.093.31l.1.334c.03.101-.021.14-.112.084l-.332-.2a.327.327 0 0 0-.325.01l-.332.23v.001ZM2.306 7.4c-.26.174-.41.076-.335-.219l.28-1.097c.074-.295-.061-.697-.302-.895l-.846-.694c-.24-.198-.178-.366.139-.375l1.184-.031c.317-.009.65-.254.74-.544l.37-1.199c.09-.29.253-.295.36-.01l.447 1.182c.108.286.455.521.772.524l1.208.012c.317.003.38.168.142.367l-.92.764c-.24.199-.363.6-.274.891l.294.965c.088.291-.06.4-.331.242l-.981-.575c-.27-.159-.704-.146-.964.029l-.983.662V7.4Zm5.273.874c-.026.102.025.136.113.076l.332-.23a.327.327 0 0 1 .325-.01l.332.2c.09.054.14.017.11-.085l-.098-.335a.323.323 0 0 1 .093-.31l.31-.264c.08-.07.06-.127-.047-.128l-.408-.004a.302.302 0 0 1-.261-.182l-.15-.41c-.037-.1-.092-.098-.122.003l-.126.416a.286.286 0 0 1-.25.19l-.4.01c-.106.003-.128.062-.046.13l.285.241a.34.34 0 0 1 .102.311l-.094.381Zm2.29-1.52c-.086.06-.137.027-.111-.076l.094-.38a.34.34 0 0 0-.101-.311l-.286-.241c-.082-.07-.06-.128.047-.13l.4-.012a.286.286 0 0 0 .25-.188l.125-.417c.03-.1.085-.102.12-.003l.15.41c.038.1.156.181.263.182l.408.004c.107.001.128.059.047.128l-.31.265a.323.323 0 0 0-.093.31l.1.335c.03.1-.021.138-.112.083l-.332-.2a.327.327 0 0 0-.325.011l-.332.23H9.87ZM9.759 4.55c-.026.103.025.137.113.076l.332-.23a.327.327 0 0 1 .325-.01l.332.2c.09.055.14.017.11-.084l-.098-.335a.324.324 0 0 1 .093-.31l.31-.265c.08-.069.06-.126-.047-.127l-.408-.004a.302.302 0 0 1-.261-.182l-.15-.41c-.037-.1-.092-.098-.122.003l-.126.416a.286.286 0 0 1-.25.189l-.4.01c-.106.004-.128.062-.046.13l.286.242a.34.34 0 0 1 .1.31l-.093.382V4.55Z"></path></g><g fill="none" transform="translate(104, 54)"><g clip-path="url(#mf_j)"><path fill="#02529C" d="M0 0h22v14H0V0Z"></path><path fill="#000" d="M0 6.926h22H0ZM7.92-1v15.853V-1Z"></path><path fill="#fff" fill-rule="evenodd" d="M6.16 5.165V0h3.52v5.165H22v3.523H9.68V14H6.16V8.688H0V5.165h6.16Z" clip-rule="evenodd"></path><path fill="#DC1E35" fill-rule="evenodd" d="M7.04 6.046V0H8.8v6.046H22v1.761H8.8V14H7.04V7.807H0V6.046h7.04Z" clip-rule="evenodd"></path></g></g><g fill="none" transform="translate(104, 72)"><path fill="#00AFCA" d="M0 0h22v14H0V0Z"></path><path fill="#FEC50C" d="M2.538.784H.905v2.501l.592-.591L.905 4v1.003l.592 1.432-.592-.697V8.22l.592-.592-.592 1.384v1.002l.592 1.213-.592-.535v2.53h1.633v-2.53l-.611.535.61-1.213V9.013l-.61-1.384.61.592V5.739l-.61.697.61-1.432V4l-.61-1.307.61.591v-2.5ZM12.125 9.89l.012-.04c.035-.11.194-.101.216.012.024.124.204.114.22-.01.016-.117.178-.135.22-.025.044.12.224.09.222-.039v-.012c-.003-.118.154-.16.21-.057.062.11.231.052.211-.073l-.006-.041c-.019-.114.127-.178.198-.086.077.1.234.015.194-.105l-.005-.014c-.038-.111.099-.2.186-.12.095.087.237-.028.177-.141-.057-.106.064-.219.164-.153.109.071.236-.061.159-.165l-.01-.014c-.071-.096.034-.223.142-.17.115.056.22-.09.132-.183l-.052-.053c-.077-.08.004-.21.11-.175.115.037.193-.118.094-.188l-.018-.013c-.092-.066-.036-.212.076-.2l.024.004c.13.014.18-.164.063-.22l-.016-.008c-.105-.05-.072-.207.044-.211.125-.005.148-.181.028-.218l-.022-.007c-.115-.035-.106-.2.01-.223.128-.026.122-.21-.007-.227l-.02-.003c-.116-.016-.133-.178-.023-.22.12-.047.081-.225-.047-.22-.116.003-.162-.152-.061-.21.11-.061.043-.228-.081-.205-.116.02-.187-.126-.095-.2.1-.078.014-.236-.106-.195l-.03.01c-.11.038-.198-.098-.118-.184.086-.093-.024-.236-.137-.176l-.016.01c-.105.056-.215-.065-.15-.164.072-.107-.06-.231-.162-.155l-.026.02c-.095.07-.222-.033-.17-.14.055-.115-.094-.22-.184-.128l-.009.01c-.082.083-.223.001-.19-.112.035-.123-.128-.202-.202-.098l-.011.017c-.068.094-.216.035-.201-.08.016-.124-.155-.176-.21-.063l-.014.028c-.052.105-.21.071-.214-.046-.005-.127-.183-.151-.22-.03l-.006.018c-.035.112-.197.103-.22-.012-.024-.126-.205-.121-.223.005l-.002.02c-.017.118-.181.133-.223.021-.044-.12-.224-.087-.221.041.002.117-.154.162-.21.059-.061-.11-.23-.052-.21.072l.006.032c.019.116-.13.18-.202.086-.077-.101-.237-.017-.198.104l.013.04c.037.111-.101.198-.186.116-.091-.089-.236.018-.18.131l.018.035c.052.103-.069.208-.164.142-.104-.072-.228.06-.152.16.07.095-.032.221-.138.17-.114-.053-.218.094-.128.183l.02.019c.083.082 0 .22-.111.188-.122-.037-.201.126-.097.2l.016.01c.098.07.039.224-.08.21-.129-.016-.177.162-.06.219.106.052.075.213-.044.217-.127.005-.152.183-.03.222l.028.01c.111.035.102.195-.012.217-.124.024-.12.203.005.222l.022.003c.117.018.132.179.022.218-.12.043-.089.22.038.22h.038c.117 0 .157.156.054.212-.112.06-.054.231.072.212l.025-.004c.113-.018.174.127.083.196-.099.075-.017.23.1.192l.035-.011c.114-.038.202.102.12.19-.09.095.02.244.137.184l.016-.01c.104-.053.21.068.144.164-.071.105.057.23.16.155l.021-.016c.095-.07.22.033.17.139-.055.115.093.218.182.127l.015-.015c.081-.082.218-.001.184.109-.036.12.123.198.195.096l.017-.023c.069-.095.219-.037.205.079-.015.127.16.175.216.06.052-.107.213-.075.218.044.004.129.185.153.223.03Z"></path><circle cx="12.269" cy="7.027" r="2" fill="#00AFCA"></circle><circle cx="12.269" cy="7.027" r="1.709" fill="#FEC50C"></circle></g><g fill="none" transform="translate(0, 90)"><path fill="#fff" d="M0 0h22v14H0V0Z"></path><path fill="#F63542" fill-rule="evenodd" d="M11 3a4 4 0 1 1 0 8 4 4 0 0 1 0-8Z" clip-rule="evenodd"></path></g><g fill="none" transform="translate(26, 90)"><g clip-path="url(#mf_k)"><path fill="#169B62" d="M22 0H0v14h22V0Z"></path><path fill="#fff" d="M22 0H7.333v14H22V0Z"></path><path fill="#FF883E" d="M22 0h-7.333v14H22V0Z"></path></g></g><g fill="none" transform="translate(52, 90)"><path fill="#F5F7FA" fill-rule="evenodd" d="M2 0h18c1.105 0 2 .855 2 1.91v10.18c0 1.055-.895 1.91-2 1.91H2c-1.105 0-2-.855-2-1.91V1.91C0 .854.895 0 2 0Z" clip-rule="evenodd"></path><path fill="#2D6BDB" fill-rule="evenodd" d="M14.563 5.666c.086-.129.017-.234-.151-.234h-1.666a.621.621 0 0 1-.464-.232l-.84-1.241c-.086-.128-.226-.127-.31.002l-.817 1.237a.612.612 0 0 1-.462.234H8.188c-.168 0-.237.105-.151.234L8.88 6.93a.456.456 0 0 1 0 .467L8.037 8.66c-.086.129-.017.234.151.234h1.665a.61.61 0 0 1 .462.234l.816 1.238c.085.129.224.129.309 0l.816-1.238a.612.612 0 0 1 .462-.234h1.694c.168 0 .237-.105.151-.233l-.843-1.265a.457.457 0 0 1 0-.467l.843-1.264v.001Zm-3.335-.335c.031-.056.09-.056.13 0 .04.056.014.101-.058.101-.071 0-.104-.045-.072-.101Zm-1.702 2.8c-.08 0-.112-.046-.072-.102.04-.056.104-.056.144 0 .04.056.007.102-.072.102Zm.072-1.833c-.04.056-.105.056-.144 0-.04-.056-.007-.101.072-.101.08 0 .112.045.072.101Zm1.76 2.699c-.04.056-.099.056-.13 0-.032-.056 0-.102.072-.102s.098.046.058.102Zm.716-1.1a.61.61 0 0 1-.46.234h-.627a.628.628 0 0 1-.466-.232l-.346-.504a.453.453 0 0 1-.005-.466l.327-.498a.61.61 0 0 1 .461-.234h.655a.61.61 0 0 1 .461.234l.327.498a.465.465 0 0 1 0 .469l-.327.499Zm1 .234c-.08 0-.112-.046-.072-.102.04-.056.105-.056.144 0 .04.056.008.102-.072.102Zm.072-1.833c-.04.056-.104.056-.144 0-.04-.056-.007-.101.072-.101.08 0 .112.045.072.101ZM0 0h22v1.867H0V0Zm0 12.133h22V14H0v-1.867Z" clip-rule="evenodd"></path></g><g fill="none" transform="translate(78, 90)"><rect width="22" height="14" fill="red"></rect><path fill="#FF0" d="m10.834 10.428.016-.05c.043-.135.237-.124.265.015.03.151.25.14.27-.013.02-.142.218-.165.269-.03.056.147.276.104.273-.054-.003-.144.188-.2.26-.075.076.134.282.061.257-.092l-.006-.04c-.023-.14.154-.218.242-.108.096.12.286.01.235-.136-.047-.135.117-.245.224-.15.117.104.294-.031.218-.169-.07-.126.08-.26.202-.182.132.085.285-.08.19-.204-.088-.116.036-.274.167-.212.14.066.268-.113.158-.223l-.054-.055c-.095-.095 0-.253.129-.213.14.043.232-.144.112-.229l-.016-.01c-.112-.079-.046-.254.09-.24l.037.005c.155.017.215-.197.073-.263l-.018-.008c-.127-.06-.088-.249.051-.254.15-.006.178-.218.034-.26l-.026-.008c-.137-.042-.127-.24.013-.267.153-.03.146-.25-.008-.272l-.026-.003c-.14-.02-.162-.213-.029-.263.144-.054.096-.268-.058-.264-.14.004-.195-.182-.073-.25.132-.072.06-.273-.088-.247l-.021.004c-.14.024-.218-.154-.106-.24.12-.093.02-.284-.125-.236l-.047.016c-.134.044-.238-.12-.141-.222.106-.11-.025-.284-.16-.213l-.034.017c-.127.066-.258-.081-.177-.2.087-.126-.07-.279-.194-.188l-.044.032c-.115.084-.267-.043-.204-.171.068-.139-.11-.267-.22-.158l-.02.02c-.102.1-.27 0-.23-.137.045-.15-.152-.247-.244-.122l-.02.028c-.084.114-.263.042-.245-.098.02-.152-.187-.216-.256-.08l-.02.04c-.065.128-.257.086-.262-.057-.005-.155-.222-.185-.27-.038l-.008.025c-.043.136-.24.125-.269-.016-.03-.153-.251-.147-.274.007l-.003.023c-.021.144-.222.16-.274.025-.055-.146-.275-.108-.271.048.003.143-.188.198-.258.073-.076-.134-.281-.062-.256.09l.005.03c.023.141-.158.221-.247.108-.096-.123-.291-.019-.241.13l.011.035c.046.136-.12.243-.225.144-.114-.106-.29.026-.218.164l.015.03c.064.125-.082.252-.2.174-.127-.086-.279.071-.185.193.086.112-.038.263-.166.204-.14-.064-.266.115-.155.222l.014.013c.102.098.005.268-.131.228-.148-.042-.242.156-.115.243l.012.008c.12.081.047.267-.096.25-.155-.018-.216.196-.075.262.13.061.091.256-.052.26-.153.006-.182.221-.036.267l.033.01c.133.041.123.234-.015.26-.149.028-.144.243.006.265l.029.004c.14.02.158.214.025.26-.144.05-.108.263.044.263h.052c.141 0 .188.189.063.254-.134.071-.067.276.084.253l.04-.006c.135-.02.208.154.097.236-.12.088-.024.276.118.23l.051-.016c.139-.044.244.126.143.23-.11.113.022.292.163.222l.033-.017c.126-.063.252.084.17.2-.087.124.066.276.19.187l.038-.027c.115-.082.265.043.203.17-.067.139.11.265.22.157l.027-.027c.1-.098.264.002.222.135-.045.144.146.241.236.12l.028-.037c.084-.115.265-.043.248.098-.018.155.196.212.265.072.065-.13.263-.092.268.053.006.157.226.187.274.037Z"></path><circle cx="11.011" cy="7.004" r="2.591" fill="red"></circle><circle cx="11.011" cy="7.004" r="1.999" fill="#FF0"></circle></g><g fill="none" transform="translate(104, 90)"><path fill="#fff" d="M0 0h22v14H0V0Z"></path><path fill="#F63542" fill-rule="evenodd" d="M15.223 6.304c.074.47-.387-.978-1.698-1.223-1.31-.245-2.58.578-2.834 1.838-.228 1.129-1.365 1.866-2.539 1.646-1.174-.22-1.94-1.312-1.712-2.44.47-2.323 2.81-3.84 5.225-3.389 1.902.356 3.285 1.825 3.558 3.568Z" clip-rule="evenodd"></path><path fill="#2D6BDB" fill-rule="evenodd" d="M9.965 11.236C8.063 10.88 6.68 9.41 6.407 7.668c-.074-.471.387.978 1.698 1.223 1.31.245 2.58-.578 2.834-1.838.228-1.129 1.365-1.866 2.539-1.646 1.174.219 1.94 1.312 1.713 2.44-.47 2.323-2.81 3.84-5.226 3.389Z" clip-rule="evenodd"></path><path fill="#000" d="M2.87 4.468 4.886.933l.621.319-2.016 3.534-.621-.318Zm16.067.216-2.016-3.653-.622.33 2.017 3.653.621-.33Zm-1.243.659-2.016-3.654-.621.33 2.016 3.653.621-.329ZM6.129 1.57 4.113 5.105l.621.319L6.75 1.889l-.62-.319h-.001Zm9.69 10.697 2.038-3.729-.628-.336-2.039 3.729.629.336Zm3.295-3.057-2.039 3.729-.628-.336 2.039-3.729.628.336ZM6.165 12.388 4.126 8.781l.628-.325 2.039 3.607-.628.325ZM2.87 9.431l2.038 3.608.628-.326-2.038-3.607-.628.325Z"></path></g><g fill="none" transform="translate(0, 108)"><path fill="#F5F7FA" fill-rule="evenodd" d="M2 0h18c1.105 0 2 .855 2 1.909v10.182C22 13.145 21.105 14 20 14H2c-1.105 0-2-.855-2-1.91V1.91C0 .855.895 0 2 0Z" clip-rule="evenodd"></path><path fill="#BC232B" fill-rule="evenodd" d="M0 8.4h22V14H0V8.4ZM0 0h22v5.6H0V0Z" clip-rule="evenodd"></path></g><g fill="none" transform="translate(26, 108)"><path fill="#F63542" d="M0 9h22v5H0V9Z"></path><path fill="#FFDE3F" fill-rule="evenodd" d="M0 0h22v5H0V0Z" clip-rule="evenodd"></path><path fill="#009100" fill-rule="evenodd" d="M0 5h22v4H0V5Z" clip-rule="evenodd"></path></g><g fill="none" transform="translate(52, 108)"><path fill="#F63542" d="M0 0h22v14H0V0Z"></path><path fill="#fff" d="M8 0H5v6H0v3h5v5h3V9h14V6H8V0Z"></path><path fill="#2D6BDB" d="M6 0h1v7h15v1H7v6H6V8H0V7h6V0Z"></path></g><g fill="none" transform="translate(78, 108)"><path fill="#F63542" d="M0 0h22v14H0V0Z"></path><path fill="#FFDE3F" d="M0 8.57V5.43l7.769.927v1.286L0 8.57ZM3.182 14H0v-1.62l7.86-3.124.65.792L3.181 14h.001Zm9.343 0h-3.05l.879-3.786h1.292L12.525 14ZM22 12.435V14h-3.28l-5.178-3.945.645-.81L22 12.435Zm0-7.004V8.57l-7.445-.926V6.357L22 5.431Zm0-3.864-7.772 3.187-.643-.809L18.74 0H22v1.567Zm-22 .01V0h3.274l5.302 3.952-.646.792L0 1.577ZM9.55 0h2.9l-.804 3.464h-1.292L9.55 0Zm1.612 4.28a2.565 2.565 0 0 1 2.572 2.56 2.566 2.566 0 0 1-2.572 2.558 2.565 2.565 0 0 1-2.573-2.559 2.565 2.565 0 0 1 2.573-2.558V4.28Z"></path></g><g fill="none" transform="translate(104, 108)"><path fill="#F63542" d="M0 0h22v14H0V0Z"></path><path fill="#009100" fill-rule="evenodd" d="M0 0h5.657v14H0V0Z" clip-rule="evenodd"></path><path fill="#FFDE3F" fill-rule="evenodd" d="M5.131 4.681a2.25 2.25 0 1 1 0 4.5 2.25 2.25 0 0 1 0-4.5Z" clip-rule="evenodd"></path></g><g fill="none" transform="translate(130, 0)"><path fill="#fff" d="M0 0h22v7H0V0Z"></path><path fill="#F63542" fill-rule="evenodd" d="M0 7h22v7H0V7Z" clip-rule="evenodd"></path></g><g fill="none" transform="translate(130, 18)"><g fill-rule="evenodd" clip-path="url(#mf_l)" clip-rule="evenodd"><path fill="#2D6BDB" d="M2.004.01h17.985c1.104 0 1.999.852 1.999 1.906v10.167c0 1.053-.895 1.906-1.998 1.906H2.003c-1.104 0-1.998-.853-1.998-1.906V1.916C.006.863.9.01 2.004.01Z"></path><path fill="#fff" d="M0 0h22v4.671H0V0Z"></path><path fill="#F63542" d="M0 9.331h22v4.67H0V9.33Z"></path></g></g><g fill="none" transform="translate(130, 36)"><g clip-path="url(#mf_m)"><path fill="#2D6BDB" d="M0 4.667h22v4.667H0V4.667Z"></path><path fill="#F63542" d="M0 0h22v4.667H0V0Z"></path><path fill="#fff" d="M0 9.333h22V14H0V9.333Z"></path><path fill="#FFDE3F" fill-rule="evenodd" d="m7.941 3.657-.55-.699-.334-.158h-1.32l-.413 2.084L4.952 2.8H3.701l-.317.167-.522.736h.834l-.233 1.313h-1.55l2.018 4.779h2.876L8.83 5.016h-1.5l-.267-1.36h.88l-.002.001Z" clip-rule="evenodd"></path></g></g><g fill="none" transform="translate(130, 54)"><g fill-rule="evenodd" clip-path="url(#mf_n)" clip-rule="evenodd"><path fill="#FFDE3F" d="M2 0h18c1.105 0 2 .855 2 1.91v10.18c0 1.055-.895 1.91-2 1.91H2c-1.105 0-2-.855-2-1.909V1.909C0 .855.895 0 2 0Z"></path><path fill="#F63542" d="M14.337 0H22v14h-7.663V0Z"></path><path fill="#2D6BDB" d="M0 0h7.647v14H0V0Z"></path></g></g><g fill="none" transform="translate(130, 72)"><path fill="#fff" d="M0 0h22v5H0V0Z"></path><path fill="#F63542" d="M22 9H0v5h22V9Z"></path><path fill="#2D6BDB" d="M22 5H0v4h22V5Z"></path><path fill="#fff" fill-rule="evenodd" d="M7.998 2.857c-1.3 0-2.003-.845-2.003-.845s-.705.845-2.005.845c-1.197 0-2.005-.701-2.005-.701v4.589c.036 3.022 4.005 4.271 4.005 4.271s4.006-1.249 4.006-4.271v-4.59s-.801.702-1.998.702Z" clip-rule="evenodd"></path><path fill="#F63542" fill-rule="evenodd" d="M7.596 3.467c-1.04 0-1.602-.704-1.602-.704s-.564.704-1.604.704a2.583 2.583 0 0 1-1.604-.585v3.824c.029 2.52 3.204 3.56 3.204 3.56s3.205-1.04 3.205-3.56V2.882s-.641.585-1.599.585Z" clip-rule="evenodd"></path></g><g fill="none" transform="translate(130, 90)"><path fill="#2D6BDB" d="M0 0h22v14H0V0Z"></path><path fill="#FFDE3F" d="M10 0H7v6H0v3h7v5h3V9h12V6H10V0Z"></path></g><g fill="none" transform="translate(130, 108)"><path fill="#FFDE3F" d="M0 1.867h22V11.2H0V1.867Z"></path><path fill="#F63542" fill-rule="evenodd" d="M0 0h22v2.8H0V0Zm0 11.2h22V14H0v-2.8Zm4.754-6.322a1.445 1.445 0 0 1-1.083-.479s-.382.479-1.084.479c-.648 0-1.085-.397-1.085-.397v2.596c.02 1.711 2.166 2.419 2.166 2.419s2.166-.708 2.166-2.419V4.481s-.433.397-1.08.397Z" clip-rule="evenodd"></path></g><g fill="none" transform="translate(0, 126)"><path fill="#F63542" d="M0 0h22v14H0V0Z"></path><path fill="#fff" fill-rule="evenodd" d="M13.647 9.99a.118.118 0 0 1 .161.07.112.112 0 0 1-.049.127 4.428 4.428 0 0 1-1.528.769c-2.31.648-4.715-.615-5.37-2.82a3.976 3.976 0 0 1 .06-2.451c.76-2.187 3.223-3.389 5.501-2.683a4.307 4.307 0 0 1 1.49.807.11.11 0 0 1 .017.169.12.12 0 0 1-.138.025 3.507 3.507 0 0 0-.54-.218c-1.814-.562-3.777.395-4.382 2.136a3.194 3.194 0 0 0-.178 1.012c-.012.335.029.677.13 1.016.52 1.756 2.436 2.761 4.276 2.245.192-.054.376-.122.55-.204Zm-.52-1.528c-.06.2.04.27.22.157l.686-.43a.67.67 0 0 1 .654.003l.65.414c.179.114.283.043.23-.157l-.173-.664a.629.629 0 0 1 .21-.601l.644-.5c.168-.13.13-.243-.085-.253l-.82-.035a.601.601 0 0 1-.509-.375l-.27-.815c-.066-.197-.176-.198-.245-.002l-.284.808a.578.578 0 0 1-.516.354l-.804-.006c-.215-.001-.262.112-.104.252l.554.493a.65.65 0 0 1 .18.616l-.219.741h.001Z" clip-rule="evenodd"></path></g><g fill="none" transform="translate(26, 126)"><g clip-path="url(#mf_o)"><rect width="22" height="14" fill="#00843D"></rect><path fill="#00843D" d="M22 0H0v14h22V0Z"></path><path fill="#D22630" d="M6.391 0H2.557v14H6.39V0Z"></path><path fill="#fff" d="M9.884.83c.29.124.55.307.763.538a2.157 2.157 0 0 1 .55 1.722c-.039.31-.145.606-.312.871s-.39.491-.653.664a2.214 2.214 0 0 1-1.81.278 2.206 2.206 0 0 1-.827-.435c.483.204 1.024.23 1.525.075a2.191 2.191 0 0 0 1.206-.924A2.14 2.14 0 0 0 9.884.831Z"></path></g></g><g fill="none" transform="translate(52, 126)"><g clip-path="url(#mf_p)"><path fill="#1EB53A" d="M0 0h22v14H0V0Z"></path><path fill="#0099B5" d="M0 0h22v7H0V0Z"></path><path fill="#CE1126" d="M0 4h22v6H0V4Z"></path><path fill="#fff" d="M0 5h22v4H0V5ZM2.977 3.767a1.68 1.68 0 1 0 0-3.36 1.68 1.68 0 0 0 0 3.36Z"></path><path fill="#0099B5" d="M3.537 3.767a1.68 1.68 0 1 0 0-3.36 1.68 1.68 0 0 0 0 3.36Z"></path></g></g><g fill="none" transform="translate(78, 126)"><path fill="#2D6BDB" d="M0 0h22v7H0V0Z"></path><path fill="#FFDE3F" fill-rule="evenodd" d="M0 7h22v7H0V7Z" clip-rule="evenodd"></path></g><g fill="none" transform="translate(104, 126)"><g clip-path="url(#mf_q)"><path fill="#2D6BDB" d="M0 4.667h22v4.667H0V4.667Z"></path><path fill="#fff" fill-rule="evenodd" d="M0 0h22v4.678H0V0Z" clip-rule="evenodd"></path><path fill="#F63542" fill-rule="evenodd" d="M0 9.322h22V14H0V9.322Z" clip-rule="evenodd"></path><path fill="#F5F7FA" fill-rule="evenodd" d="M5.972 2.485c-.893 0-1.377-.613-1.377-.613s-.484.613-1.378.613a2.205 2.205 0 0 1-1.379-.509v3.33c.025 2.193 2.754 3.099 2.754 3.099s2.754-.906 2.754-3.1V1.977s-.55.51-1.374.51v-.002Z" clip-rule="evenodd"></path><path fill="#2D6BDB" fill-rule="evenodd" d="M5.696 2.928c-.715 0-1.101-.511-1.101-.511s-.388.51-1.103.51c-.659 0-1.103-.424-1.103-.424v2.775C2.41 7.105 4.592 7.86 4.592 7.86s2.203-.755 2.203-2.582V2.503s-.44.425-1.099.425Z" clip-rule="evenodd"></path></g></g><view id="svg_albanian" viewBox="0 18 22 14"></view><view id="svg_american" viewBox="0 0 22 14"></view><view id="svg_arabic" viewBox="52 0 22 14"></view><view id="svg_armenian" viewBox="26 0 22 14"></view><view id="svg_azerbaijan" viewBox="26 18 22 14"></view><view id="svg_bosnian" viewBox="52 72 22 14"></view><view id="svg_bulgarian" viewBox="104 18 22 14"></view><view id="svg_chinese" viewBox="104 36 22 14"></view><view id="svg_croatian" viewBox="0 36 22 14"></view><view id="svg_czech" viewBox="52 18 22 14"></view><view id="svg_danish" viewBox="26 36 22 14"></view><view id="svg_dutch" viewBox="52 36 22 14"></view><view id="svg_english" viewBox="26 54 22 14"></view><view id="svg_estonian" viewBox="0 54 22 14"></view><view id="svg_finnish" viewBox="52 54 22 14"></view><view id="svg_french" viewBox="78 36 22 14"></view><view id="svg_georgian" viewBox="78 0 22 14"></view><view id="svg_german" viewBox="78 18 22 14"></view><view id="svg_greek" viewBox="78 54 22 14"></view><view id="svg_hindi" viewBox="0 72 22 14"></view><view id="svg_hungarian" viewBox="26 72 22 14"></view><view id="svg_icelandic" viewBox="104 54 22 14"></view><view id="svg_indonesian" viewBox="78 72 22 14"></view><view id="svg_irish" viewBox="26 90 22 14"></view><view id="svg_italian" viewBox="104 0 22 14"></view><view id="svg_japanese" viewBox="0 90 22 14"></view><view id="svg_jewish" viewBox="52 90 22 14"></view><view id="svg_kazakh" viewBox="104 72 22 14"></view><view id="svg_kirghiz" viewBox="78 90 22 14"></view><view id="svg_korean" viewBox="104 90 22 14"></view><view id="svg_latvian" viewBox="0 108 22 14"></view><view id="svg_lithuanian" viewBox="26 108 22 14"></view><view id="svg_macedonian" viewBox="78 108 22 14"></view><view id="svg_norwegian" viewBox="52 108 22 14"></view><view id="svg_polish" viewBox="130 0 22 14"></view><view id="svg_portuguese" viewBox="104 108 22 14"></view><view id="svg_romanian" viewBox="130 54 22 14"></view><view id="svg_russian" viewBox="130 18 22 14"></view><view id="svg_serbian" viewBox="130 36 22 14"></view><view id="svg_slovakian" viewBox="130 72 22 14"></view><view id="svg_slovenian" viewBox="104 126 22 14"></view><view id="svg_spanish" viewBox="130 108 22 14"></view><view id="svg_swedish" viewBox="130 90 22 14"></view><view id="svg_turkish" viewBox="0 126 22 14"></view><view id="svg_turkmenian" viewBox="26 126 22 14"></view><view id="svg_ukrainian" viewBox="78 126 22 14"></view><view id="svg_uzbek" viewBox="52 126 22 14"></view></svg>