<svg xmlns="http://www.w3.org/2000/svg" viewBox="0 0 78 54"><g transform="translate(0, 0)"><path fill="#2D6BDB" fill-rule="evenodd" d="M2.006 0H19.99c1.104 0 1.998.855 1.998 1.908v10.18c0 1.053-.894 1.908-1.998 1.908H2.006c-1.104 0-1.998-.855-1.998-1.909V1.909C.008.855.902 0 2.006 0z" clip-rule="evenodd"></path><path fill="#fff" fill-rule="evenodd" d="m22 12.434-5.1-3.092H22v-3.73h-4.83L22 2.675V.01h-1.877l-7.68 4.667V.01H8.595v4.297L1.508.01H0v2.47l5.163 3.131H.007v3.731h4.76L0 12.24V14h3.368l5.227-3.178V14h3.848v-3.975L19 14h3v-1.566z" clip-rule="evenodd"></path><path fill="#F63542" fill-rule="evenodd" d="M0 14h1.34l8.22-5.064V14h1.917V8.5l8.95 5.5H22v-.285L13.372 8.41h8.616V6.54h-8.533L22 1.276V.014l-10.522 6.48V.01H9.561v6.06L0 .192v1.252L8.288 6.54H0v1.87h8.364L0 13.563V14z" clip-rule="evenodd"></path></g><g transform="translate(26, 0)"><path fill="#009100" fill-rule="evenodd" d="M0 0h7.333v14H0V0z" clip-rule="evenodd"></path><path fill="#F63542" fill-rule="evenodd" d="M14.667 0H22v14h-7.333V0z" clip-rule="evenodd"></path><rect width="7.333" height="14" x="7.333" fill="#fff"></rect></g><g transform="translate(0, 18)"><rect width="22" height="9.333" y="1.867" fill="#FFDE3F"></rect><path fill="#F63542" fill-rule="evenodd" d="M0 0h22v2.8H0V0zm0 11.2h22V14H0v-2.8zm4.754-6.322c-.703 0-1.083-.479-1.083-.479s-.382.479-1.084.479c-.648 0-1.085-.397-1.085-.397v2.596c.02 1.711 2.166 2.419 2.166 2.419s2.166-.708 2.166-2.419V4.481s-.433.397-1.08.397z" clip-rule="evenodd"></path></g><g transform="translate(26, 18)"><path d="M0 0h22v5H0V0z"></path><rect width="22" height="5" y="9" fill="#FFDE3F"></rect><rect width="22" height="4" y="5" fill="#F63542"></rect></g><g fill="none" transform="translate(52, 0)"><rect width="22" height="14" fill="#fff"></rect><mask id="ta_a" width="22" height="14" x="0" y="0" mask-type="alpha" maskUnits="userSpaceOnUse"><rect width="22" height="14" fill="#fff"></rect></mask><g fill="#F22F46" mask="url(#ta_a)"><rect width="22" height="1"></rect><rect width="22" height="1" y="2"></rect><rect width="22" height="1" y="4"></rect><rect width="22" height="1" y="6"></rect><rect width="22" height="1" y="8"></rect><rect width="22" height="1" y="10"></rect><rect width="22" height="1" y="12"></rect></g><path fill="#306DD7" d="M0 0h11v7H0V0Z"></path><rect width="1" height="1" x="1" y="1" fill="#fff"></rect><rect width="1" height="1" x="1" y="3" fill="#fff"></rect><rect width="1" height="1" x="1" y="5" fill="#fff"></rect><rect width="1" height="1" x="3" y="1" fill="#fff"></rect><rect width="1" height="1" x="3" y="3" fill="#fff"></rect><rect width="1" height="1" x="3" y="5" fill="#fff"></rect><rect width="1" height="1" x="5" y="1" fill="#fff"></rect><rect width="1" height="1" x="5" y="3" fill="#fff"></rect><rect width="1" height="1" x="5" y="5" fill="#fff"></rect><rect width="1" height="1" x="7" y="1" fill="#fff"></rect><rect width="1" height="1" x="7" y="3" fill="#fff"></rect><rect width="1" height="1" x="7" y="5" fill="#fff"></rect><rect width="1" height="1" x="9" y="1" fill="#fff"></rect><rect width="1" height="1" x="9" y="3" fill="#fff"></rect><rect width="1" height="1" x="9" y="5" fill="#fff"></rect><rect width="1" height="1" x="1" y="7" fill="#fff"></rect><rect width="1" height="1" x="3" y="7" fill="#fff"></rect><rect width="1" height="1" x="5" y="7" fill="#fff"></rect><rect width="1" height="1" x="7" y="7" fill="#fff"></rect><rect width="1" height="1" x="9" y="7" fill="#fff"></rect><rect width="1" height="1" x="11" y="1" fill="#fff"></rect><rect width="1" height="1" x="11" y="3" fill="#fff"></rect><rect width="1" height="1" x="11" y="5" fill="#fff"></rect><rect width="1" height="1" x="11" y="7" fill="#fff"></rect></g><g transform="translate(52, 18)"><path fill="#2D6BDB" fill-rule="evenodd" d="M2.004.01h17.985c1.104 0 1.999.852 1.999 1.906v10.167c0 1.053-.895 1.906-1.998 1.906H2.003c-1.104 0-1.998-.853-1.998-1.906V1.916C.006.863.9.01 2.004.01z" clip-rule="evenodd"></path><path fill="#fff" fill-rule="evenodd" d="M0 0h22v4.671H0V0z" clip-rule="evenodd"></path><path fill="#F63542" fill-rule="evenodd" d="M0 9.331h22V14H0V9.331z" clip-rule="evenodd"></path></g><g transform="translate(0, 36)"><path fill="#2D6BDB" fill-rule="evenodd" d="M0 0h7.333v14H0V0z" clip-rule="evenodd"></path><path fill="#F63542" fill-rule="evenodd" d="M14.667 0H22v14h-7.333V0z" clip-rule="evenodd"></path><rect width="7.333" height="14" x="7.333" fill="#fff"></rect></g><g transform="translate(26, 36)"><rect width="22" height="7" fill="#2D6BDB"></rect><path fill="#FFDE3F" fill-rule="evenodd" d="M0 7h22v7H0V7z" clip-rule="evenodd"></path></g><view id="svg_de" viewBox="26 18 22 14"></view><view id="svg_es" viewBox="0 18 22 14"></view><view id="svg_fr" viewBox="0 36 22 14"></view><view id="svg_gb" viewBox="0 0 22 14"></view><view id="svg_it" viewBox="26 0 22 14"></view><view id="svg_ru" viewBox="52 18 22 14"></view><view id="svg_ua" viewBox="26 36 22 14"></view><view id="svg_us" viewBox="52 0 22 14"></view></svg>