<svg width="137" height="60" viewBox="0 0 137 60" fill="none" xmlns="http://www.w3.org/2000/svg">
<path d="M30.003 0C13.4945 0 0 13.4778 0 29.9658C0 46.5222 13.4945 60 30.003 60C46.58 60 60.0745 46.5222 60.0745 29.9658C60.0745 13.4778 46.58 0 30.003 0ZM3.014 29.9658C3.014 26.0661 3.836 22.3717 5.343 19.0194L18.221 54.2531C9.2475 49.8746 3.014 40.6385 3.014 29.9658ZM30.003 56.9213C27.3315 56.9213 24.797 56.5108 22.3995 55.8267L30.4825 32.2919L38.771 55.0057C38.8395 55.1425 38.908 55.2794 38.9765 55.3478C36.168 56.374 33.154 56.9213 30.003 56.9213ZM33.7705 17.3774C35.4145 17.309 36.853 17.1038 36.853 17.1038C38.2915 16.8985 38.1545 14.7777 36.6475 14.9145C36.6475 14.9145 32.2635 15.2566 29.455 15.2566C26.7835 15.2566 22.331 14.9145 22.331 14.9145C20.8925 14.8461 20.687 17.0353 22.194 17.1038C22.194 17.1038 23.564 17.2406 25.0025 17.3774L29.181 28.8712L23.29 46.5222L13.4945 17.3774C15.1385 17.309 16.577 17.1038 16.577 17.1038C18.0155 16.8985 17.8785 14.7777 16.3715 14.9145C16.3715 14.9145 11.9875 15.2566 9.179 15.2566H7.4665C12.33 7.86773 20.6185 3.01026 30.003 3.01026C37.0585 3.01026 43.429 5.67845 48.224 10.057H47.8815C45.21 10.057 43.3605 12.3831 43.3605 14.8461C43.3605 17.0353 44.662 18.951 46.032 21.1403C47.0595 22.919 48.224 25.2452 48.224 28.5975C48.224 30.9236 47.539 33.797 46.169 37.2862L43.4975 46.2486L33.7705 17.3774ZM43.566 53.2953L51.786 29.4869C53.293 25.6556 53.841 22.577 53.841 19.8404C53.841 18.8141 53.7725 17.9247 53.6355 17.0353C55.759 20.8666 56.9235 25.3136 56.9235 29.9658C56.992 39.9544 51.649 48.6431 43.566 53.2953ZM87.2005 16.146L81.104 34.0023C80.4875 36.1916 79.9395 38.244 79.734 40.1596H79.597C79.46 38.244 78.912 36.1231 78.227 34.0023L72.1305 16.146H64.116L75.624 46.317H83.844L95.352 16.146H87.2005ZM99.325 16.146L97.0645 22.0981V46.2486H105.147V16.146H99.325ZM133.986 19.7035C132 16.9669 129.191 15.5986 125.629 15.5986C121.861 15.5986 119.258 17.1038 117.34 20.0456H116.929L115.765 16.146H109.189V60H117.272V47.3432C117.272 46.9327 117.135 45.496 116.861 42.9647H117.272C119.258 45.5644 121.793 46.7959 125.355 46.7959C127.684 46.7959 129.739 46.1802 131.52 44.9487C133.232 43.7172 134.602 41.87 135.561 39.5439C136.52 37.1494 137 34.3444 137 31.1288C137 26.2714 135.973 22.4401 133.986 19.7035ZM123.369 40.1596C121.314 40.1596 119.738 39.4755 118.779 38.0388C117.82 36.6705 117.34 34.3444 117.34 31.0604V30.171C117.409 27.2976 117.888 25.2452 118.779 24.0137C119.738 22.7822 121.176 22.1665 123.231 22.1665C125.149 22.1665 126.588 22.919 127.479 24.4242C128.369 25.9293 128.849 28.1186 128.849 31.1288C128.917 37.081 127.068 40.1596 123.369 40.1596Z" fill="white"/>
</svg>
