<?xml version="1.0" encoding="UTF-8" standalone="no"?>
<svg width="92px" height="90px" viewBox="0 0 92 90" version="1.1" xmlns="http://www.w3.org/2000/svg" xmlns:xlink="http://www.w3.org/1999/xlink">
    <!-- Generator: Sketch 3.6 (26304) - http://www.bohemiancoding.com/sketch -->
    <title>pp_fc_vl</title>
    <desc>Created with Sketch.</desc>
    <defs>
        <path id="path-1" d="M0.0192857143,0.181285714 L0.0192857143,19.8421071 L67.5840419,19.8421071 L67.5840419,0.181285714 L0.0192857143,0.181285714 L0.0192857143,0.181285714 Z"></path>
    </defs>
    <g id="Page-1" stroke="none" stroke-width="1" fill="none" fill-rule="evenodd">
        <g id="pp_fc_vl">
            <g id="pp_v_rgb">
                <g id="Group-4" transform="translate(0.000000, 65.571429)">
                    <mask id="mask-2" fill="white">
                        <use xlink:href="#path-1"></use>
                    </mask>
                    <g id="Clip-2"></g>
                    <path d="M62.2179643,6.80978571 C61.8312857,9.35035714 59.8908214,9.35035714 58.014,9.35035714 L56.9462143,9.35035714 L57.6951429,4.60671429 C57.7404643,4.32 57.9876429,4.10882143 58.2782143,4.10882143 L58.7674286,4.10882143 C60.0451071,4.10882143 61.25175,4.10882143 61.8740357,4.83653571 C62.24625,5.27239286 62.35875,5.9175 62.2179643,6.80978571 L62.2179643,6.80978571 Z M61.4012143,0.181285714 L54.3233571,0.181285714 C53.8392857,0.181285714 53.4272143,0.53325 53.352,1.01153571 L50.4896786,19.1603571 C50.4334286,19.5184286 50.7101786,19.8421071 51.07275,19.8421071 L54.70425,19.8421071 C55.0430357,19.8421071 55.3313571,19.5958929 55.3840714,19.2609643 L56.1956786,14.1158571 C56.2712143,13.6375714 56.6832857,13.2856071 57.1670357,13.2856071 L59.40675,13.2856071 C64.06875,13.2856071 66.7594286,11.0295 67.4627143,6.55746429 C67.7793214,4.60189286 67.4755714,3.06514286 66.5598214,1.98932143 C65.5531071,0.806464286 63.7691786,0.181285714 61.4012143,0.181285714 L61.4012143,0.181285714 Z" id="Fill-1" fill="#2790C3" mask="url(#mask-2)"></path>
                    <path d="M11.7356786,6.80978571 C11.3486786,9.35035714 9.40821429,9.35035714 7.53171429,9.35035714 L6.46392857,9.35035714 L7.21285714,4.60671429 C7.25817857,4.32 7.50535714,4.10882143 7.79560714,4.10882143 L8.28514286,4.10882143 C9.5625,4.10882143 10.7694643,4.10882143 11.3914286,4.83653571 C11.7636429,5.27239286 11.8764643,5.9175 11.7356786,6.80978571 L11.7356786,6.80978571 Z M10.9189286,0.181285714 L3.84075,0.181285714 C3.35667857,0.181285714 2.94492857,0.53325 2.86939286,1.01153571 L0.00739285714,19.1603571 C-0.0491785714,19.5184286 0.227571429,19.8421071 0.590142857,19.8421071 L3.96964286,19.8421071 C4.45339286,19.8421071 4.86546429,19.4901429 4.941,19.0121786 L5.71339286,14.1158571 C5.78860714,13.6375714 6.20067857,13.2856071 6.68475,13.2856071 L8.92446429,13.2856071 C13.5864643,13.2856071 16.2771429,11.0295 16.9804286,6.55746429 C17.2967143,4.60189286 16.9929643,3.06514286 16.0772143,1.98932143 C15.0705,0.806464286 13.2865714,0.181285714 10.9189286,0.181285714 L10.9189286,0.181285714 Z" id="Fill-3" fill="#27346A" mask="url(#mask-2)"></path>
                </g>
                <path d="M27.3506786,78.8965714 C27.0234643,80.8331786 25.4860714,82.1330357 23.5253571,82.1330357 C22.5424286,82.1330357 21.75525,81.81675 21.2493214,81.21825 C20.7478929,80.6248929 20.5592143,79.7792143 20.7183214,78.83775 C21.0236786,76.9185 22.5855,75.5765357 24.5166429,75.5765357 C25.479,75.5765357 26.2603929,75.8957143 26.7759643,76.5 C27.2953929,77.1084643 27.4991786,77.9596071 27.3506786,78.8965714 L27.3506786,78.8965714 Z M32.0740714,72.2998929 L28.6849286,72.2998929 C28.3943571,72.2998929 28.1471786,72.5110714 28.1021786,72.7977857 L27.9530357,73.7456786 L27.7161429,73.4023929 C26.982,72.3368571 25.34625,71.9807143 23.71275,71.9807143 C19.9684286,71.9807143 16.7698929,74.8182857 16.1472857,78.7978929 C15.8232857,80.7833571 16.28325,82.68075 17.4088929,84.0050357 C18.44325,85.2216429 19.91925,85.7282143 21.6774643,85.7282143 C24.6956786,85.7282143 26.3696786,83.7893571 26.3696786,83.7893571 L26.2182857,84.7311429 C26.1617143,85.0895357 26.4384643,85.4135357 26.8010357,85.4135357 L29.8533214,85.4135357 C30.3370714,85.4135357 30.7491429,85.0615714 30.8246786,84.5836071 L32.6568214,72.9816429 C32.7133929,72.6235714 32.4366429,72.2998929 32.0740714,72.2998929 L32.0740714,72.2998929 Z" id="Fill-5" fill="#27346A"></path>
                <path d="M77.8332857,78.8965714 C77.50575,80.8331786 75.9686786,82.1330357 74.0076429,82.1330357 C73.0247143,82.1330357 72.2378571,81.81675 71.7319286,81.21825 C71.2305,80.6248929 71.0418214,79.7792143 71.2009286,78.83775 C71.5059643,76.9185 73.0681071,75.5765357 74.9989286,75.5765357 C75.9612857,75.5765357 76.743,75.8957143 77.2585714,76.5 C77.7776786,77.1084643 77.9817857,77.9596071 77.8332857,78.8965714 L77.8332857,78.8965714 Z M82.5563571,72.2998929 L79.1672143,72.2998929 C78.8769643,72.2998929 78.6297857,72.5110714 78.5844643,72.7977857 L78.4353214,73.7456786 L78.1984286,73.4023929 C77.4646071,72.3368571 75.8288571,71.9807143 74.1953571,71.9807143 C70.4510357,71.9807143 67.2521786,74.8182857 66.6298929,78.7978929 C66.3058929,80.7833571 66.7658571,82.68075 67.8915,84.0050357 C68.9258571,85.2216429 70.4015357,85.7282143 72.1600714,85.7282143 C75.1782857,85.7282143 76.8522857,83.7893571 76.8522857,83.7893571 L76.7008929,84.7311429 C76.644,85.0895357 76.9210714,85.4135357 77.2836429,85.4135357 L80.3356071,85.4135357 C80.8196786,85.4135357 81.2314286,85.0615714 81.3069643,84.5836071 L83.1394286,72.9816429 C83.1956786,72.6235714 82.9189286,72.2998929 82.5563571,72.2998929 L82.5563571,72.2998929 Z" id="Fill-6" fill="#2790C3"></path>
                <g id="Group-10" transform="translate(34.071429, 65.571429)">
                    <path d="M16.05375,6.72846429 L12.64725,6.72846429 C12.3213214,6.72846429 12.0166071,6.89014286 11.8337143,7.1595 L7.13442857,14.0805 L5.14285714,7.42982143 C5.01814286,7.01357143 4.63532143,6.72846429 4.20075,6.72846429 L0.852107143,6.72846429 C0.44775,6.72846429 0.163285714,7.12607143 0.293785714,7.50889286 L4.04485714,18.5191071 L0.516535714,23.4973929 C0.239785714,23.88825 0.519107143,24.4285714 0.998035714,24.4285714 L4.40132143,24.4285714 C4.72371429,24.4285714 5.02585714,24.2704286 5.20939286,24.00525 L16.5387857,7.65482143 C16.80975,7.26332143 16.5297857,6.72846429 16.05375,6.72846429" id="Fill-7" fill="#27346A"></path>
                    <path d="M52.4796429,0.6795 L49.5748929,19.1606786 C49.5186429,19.5184286 49.7953929,19.8421071 50.1576429,19.8421071 L53.0791071,19.8421071 C53.5631786,19.8421071 53.97525,19.4901429 54.0504643,19.0121786 L56.9147143,0.863035714 C56.9712857,0.504964286 56.6945357,0.181285714 56.3319643,0.181285714 L53.0627143,0.181285714 C52.7721429,0.181285714 52.5249643,0.392785714 52.4796429,0.6795" id="Fill-9" fill="#2790C3"></path>
                </g>
                <path d="M36.4242857,59.1483214 L45.9665357,59.1483214 C47.0831786,59.1483214 48.0201429,58.3476429 48.1943571,57.2445 L48.2878929,56.7585 L50.0856429,45.3603214 L50.2013571,44.7296786 C50.3813571,43.5882857 51.35175,42.759 52.50825,42.759 L53.9353929,42.759 C58.8522857,42.759 62.8727143,41.6728929 65.8848214,39.5308929 C69.2723571,37.1221071 71.496,33.3009643 72.4940357,28.1738571 C73.4239286,23.4006429 72.7842857,19.7145 70.5931071,17.2173214 C69.9094286,16.4385 69.0348214,15.7635 67.9924286,15.2112857 L67.9670357,15.1981071 L67.9718571,15.1695 C68.6886429,10.5994286 67.9474286,7.4565 65.4936429,4.66071429 C62.9109643,1.71771429 58.2148929,0.225642857 51.5352857,0.225642857 L33.1971429,0.225642857 C31.9175357,0.225642857 30.8442857,1.14267857 30.645,2.40653571 L23.0088214,50.8284643 C22.93875,51.2723571 23.0663571,51.723 23.3582143,52.0640357 C23.6500714,52.4057143 24.075,52.6014643 24.5243571,52.6014643 L35.8923214,52.6014643 L35.8849286,52.6480714 L35.1035357,57.6032143 C35.0427857,57.9898929 35.1536786,58.3823571 35.4079286,58.68 C35.6625,58.9776429 36.0327857,59.1483214 36.4242857,59.1483214" id="Fill-11" fill="#27346A"></path>
                <path d="M41.74425,15.237 C41.8651071,14.46975 42.3575357,13.8416786 43.0203214,13.5237857 C43.3218214,13.3794643 43.6583571,13.2991071 44.0112857,13.2991071 L58.3862143,13.2991071 C60.0891429,13.2991071 61.6766786,13.4106429 63.1285714,13.6446429 C63.5432143,13.7111786 63.9469286,13.788 64.3390714,13.8751071 C64.7312143,13.9622143 65.1117857,14.0592857 65.4804643,14.1672857 C65.6646429,14.2209643 65.8459286,14.2775357 66.0243214,14.3366786 C66.7369286,14.57325 67.4006786,14.85225 68.0113929,15.1759286 C68.7310714,10.58625 68.00625,7.46292857 65.5238571,4.63435714 C62.79075,1.51971429 57.8529643,0.185464286 51.5352857,0.185464286 L33.1971429,0.185464286 C31.9059643,0.185464286 30.8066786,1.125 30.6054643,2.40042857 L22.9692857,50.8223571 C22.8185357,51.7779643 23.5571786,52.6416429 24.5243571,52.6416429 L35.8453929,52.6416429 L41.74425,15.237" id="Fill-12" fill="#27346A"></path>
                <path d="M68.0113929,15.1759286 L68.0113929,15.1759286 C67.9564286,15.5259643 67.8953571,15.8821071 67.8236786,16.2498214 C65.4058929,28.6662857 57.1316786,32.9592857 46.5640714,32.9592857 L41.1833571,32.9592857 C39.8921786,32.9592857 38.8022143,33.8988214 38.601,35.17425 L35.064,57.5967857 C34.9322143,58.4325 35.5782857,59.1885 36.4242857,59.1885 L45.9665357,59.1885 C47.0960357,59.1885 48.05775,58.3666071 48.2335714,57.2509286 L48.3274286,56.7658929 L50.1251786,45.36675 L50.2408929,44.7370714 C50.4170357,43.6210714 51.3784286,42.7991786 52.5079286,42.7991786 L53.9353929,42.7991786 C63.18,42.7991786 70.4185714,39.0432857 72.5335714,28.1815714 C73.4175,23.643 72.96075,19.8543214 70.6236429,17.1909643 C69.9165,16.3854643 69.0370714,15.7191429 68.0113929,15.1759286" id="Fill-13" fill="#2790C3"></path>
                <path d="M65.4804643,14.1672857 C65.1117857,14.0592857 64.7312143,13.9622143 64.3390714,13.8751071 C63.9469286,13.788 63.5432143,13.7111786 63.1285714,13.6446429 C61.6766786,13.4106429 60.0891429,13.2991071 58.3862143,13.2991071 L44.0112857,13.2991071 C43.6583571,13.2991071 43.3218214,13.3794643 43.0203214,13.5237857 C42.3575357,13.8416786 41.8651071,14.46975 41.74425,15.237 L38.6890714,34.6085357 L38.601,35.17425 C38.8022143,33.8988214 39.8921786,32.9592857 41.1833571,32.9592857 L46.5640714,32.9592857 C57.1316786,32.9592857 65.4058929,28.6662857 67.8236786,16.2498214 C67.8953571,15.8821071 67.9564286,15.5259643 68.0113929,15.1759286 C67.4006786,14.85225 66.7369286,14.57325 66.0243214,14.3366786 C65.8459286,14.2775357 65.6646429,14.2209643 65.4804643,14.1672857" id="Fill-14" fill="#1F264F"></path>
            </g>
        </g>
    </g>
</svg>