<?xml version="1.0" encoding="UTF-8" standalone="no"?>
<svg width="92px" height="90px" viewBox="0 0 92 90" version="1.1" xmlns="http://www.w3.org/2000/svg" xmlns:xlink="http://www.w3.org/1999/xlink">
    <!-- Generator: Sketch 3.6 (26304) - http://www.bohemiancoding.com/sketch -->
    <title>pp_rv_vl</title>
    <desc>Created with Sketch.</desc>
    <defs>
        <path id="path-1" d="M0.0192857143,0.181285714 L0.0192857143,19.8424286 L67.5840419,19.8424286 L67.5840419,0.181285714 L0.0192857143,0.181285714 L0.0192857143,0.181285714 Z"></path>
    </defs>
    <g id="Page-1" stroke="none" stroke-width="1" fill="none" fill-rule="evenodd">
        <g id="pp_rv_vl">
            <g id="pp_v_1C_white">
                <g id="Group-4" transform="translate(0.000000, 65.571429)">
                    <mask id="mask-2" fill="white">
                        <use xlink:href="#path-1"></use>
                    </mask>
                    <g id="Clip-2"></g>
                    <path d="M62.2179643,6.80978571 C61.8312857,9.35035714 59.8908214,9.35035714 58.014,9.35035714 L56.9462143,9.35035714 L57.6951429,4.60671429 C57.7404643,4.32 57.9876429,4.10882143 58.2782143,4.10882143 L58.7674286,4.10882143 C60.0451071,4.10882143 61.25175,4.10882143 61.8740357,4.83653571 C62.24625,5.27239286 62.35875,5.9175 62.2179643,6.80978571 L62.2179643,6.80978571 Z M61.4012143,0.181285714 L54.3233571,0.181285714 C53.8392857,0.181285714 53.4272143,0.53325 53.352,1.01153571 L50.4896786,19.1603571 C50.4334286,19.5184286 50.7101786,19.8424286 51.07275,19.8424286 L54.70425,19.8424286 C55.0430357,19.8421071 55.3313571,19.5958929 55.3840714,19.2612857 L56.1956786,14.1158571 C56.2712143,13.6375714 56.6832857,13.2856071 57.1670357,13.2856071 L59.40675,13.2856071 C64.06875,13.2856071 66.7594286,11.0295 67.4627143,6.55746429 C67.7793214,4.60189286 67.4755714,3.06514286 66.5598214,1.98932143 C65.5531071,0.806464286 63.7691786,0.181285714 61.4012143,0.181285714 L61.4012143,0.181285714 Z" id="Fill-1" fill="#FFFFFF" mask="url(#mask-2)"></path>
                    <path d="M11.7356786,6.80978571 C11.3486786,9.35035714 9.40821429,9.35035714 7.53171429,9.35035714 L6.46392857,9.35035714 L7.21285714,4.60671429 C7.25817857,4.32 7.50535714,4.10882143 7.79560714,4.10882143 L8.28514286,4.10882143 C9.5625,4.10882143 10.7694643,4.10882143 11.3914286,4.83653571 C11.7636429,5.27239286 11.8764643,5.9175 11.7356786,6.80978571 L11.7356786,6.80978571 Z M10.9189286,0.181285714 L3.84075,0.181285714 C3.35667857,0.181285714 2.94492857,0.53325 2.86939286,1.01153571 L0.00739285714,19.1603571 C-0.0491785714,19.5184286 0.227571429,19.8424286 0.590142857,19.8424286 L3.96964286,19.8424286 C4.45339286,19.8421071 4.86546429,19.4901429 4.941,19.0121786 L5.71339286,14.1158571 C5.78860714,13.6375714 6.20067857,13.2856071 6.68475,13.2856071 L8.92446429,13.2856071 C13.5864643,13.2856071 16.2771429,11.0295 16.9804286,6.55746429 C17.2967143,4.60189286 16.9929643,3.06514286 16.0772143,1.98932143 C15.0705,0.806464286 13.2865714,0.181285714 10.9189286,0.181285714 L10.9189286,0.181285714 Z" id="Fill-3" fill="#FFFFFF" mask="url(#mask-2)"></path>
                </g>
                <path d="M27.3506786,78.8965714 C27.0234643,80.8331786 25.4860714,82.1330357 23.5253571,82.1330357 C22.5424286,82.1330357 21.75525,81.81675 21.2493214,81.21825 C20.7478929,80.6248929 20.5592143,79.7792143 20.7183214,78.83775 C21.0236786,76.9185 22.5855,75.5765357 24.5166429,75.5765357 C25.479,75.5765357 26.2603929,75.8957143 26.7759643,76.5 C27.2953929,77.1084643 27.4991786,77.9596071 27.3506786,78.8965714 L27.3506786,78.8965714 Z M32.0740714,72.2998929 L28.6849286,72.2998929 C28.3943571,72.2998929 28.1471786,72.5110714 28.1021786,72.7977857 L27.9530357,73.7456786 L27.7161429,73.4023929 C26.982,72.3368571 25.34625,71.9807143 23.71275,71.9807143 C19.9684286,71.9807143 16.7698929,74.8182857 16.1472857,78.7978929 C15.8232857,80.7833571 16.28325,82.68075 17.4088929,84.0050357 C18.44325,85.2216429 19.91925,85.7282143 21.6774643,85.7282143 C24.6956786,85.7282143 26.3696786,83.7893571 26.3696786,83.7893571 L26.2182857,84.7314643 C26.1617143,85.0895357 26.4384643,85.4138571 26.8010357,85.4138571 L29.8533214,85.4138571 C30.3370714,85.4138571 30.7491429,85.0615714 30.8246786,84.5836071 L32.6568214,72.9816429 C32.7133929,72.6235714 32.4366429,72.2998929 32.0740714,72.2998929 L32.0740714,72.2998929 Z" id="Fill-5" fill="#FFFFFF"></path>
                <path d="M77.8332857,78.8965714 C77.50575,80.8331786 75.9686786,82.1330357 74.0076429,82.1330357 C73.0247143,82.1330357 72.2378571,81.81675 71.7319286,81.21825 C71.2305,80.6248929 71.0418214,79.7792143 71.2009286,78.83775 C71.5059643,76.9185 73.0681071,75.5765357 74.9989286,75.5765357 C75.9612857,75.5765357 76.743,75.8957143 77.2585714,76.5 C77.7776786,77.1084643 77.9817857,77.9596071 77.8332857,78.8965714 L77.8332857,78.8965714 Z M82.5563571,72.2998929 L79.1672143,72.2998929 C78.8769643,72.2998929 78.6297857,72.5110714 78.5844643,72.7977857 L78.4353214,73.7456786 L78.1984286,73.4023929 C77.4646071,72.3368571 75.8288571,71.9807143 74.1953571,71.9807143 C70.4510357,71.9807143 67.2521786,74.8182857 66.6298929,78.7978929 C66.3058929,80.7833571 66.7658571,82.68075 67.8915,84.0050357 C68.9258571,85.2216429 70.4015357,85.7282143 72.1600714,85.7282143 C75.1782857,85.7282143 76.8522857,83.7893571 76.8522857,83.7893571 L76.7008929,84.7314643 C76.644,85.0895357 76.9210714,85.4138571 77.2836429,85.4138571 L80.3356071,85.4138571 C80.8196786,85.4138571 81.2314286,85.0615714 81.3069643,84.5836071 L83.1394286,72.9816429 C83.1956786,72.6235714 82.9189286,72.2998929 82.5563571,72.2998929 L82.5563571,72.2998929 Z" id="Fill-6" fill="#FFFFFF"></path>
                <g id="Group-10" transform="translate(34.071429, 65.571429)" fill="#FFFFFF">
                    <path d="M16.05375,6.72846429 L12.64725,6.72846429 C12.3213214,6.72846429 12.0166071,6.89014286 11.8337143,7.1595 L7.13442857,14.0805 L5.14285714,7.42982143 C5.01814286,7.01389286 4.63532143,6.72846429 4.20075,6.72846429 L0.852107143,6.72846429 C0.44775,6.72846429 0.163285714,7.12607143 0.293785714,7.50889286 L4.04485714,18.5191071 L0.516535714,23.4973929 C0.239785714,23.88825 0.519107143,24.4285714 0.998035714,24.4285714 L4.40132143,24.4285714 C4.72371429,24.4285714 5.02585714,24.2704286 5.20939286,24.00525 L16.5387857,7.65482143 C16.80975,7.26332143 16.5297857,6.72846429 16.05375,6.72846429" id="Fill-7"></path>
                    <path d="M52.4796429,0.6795 L49.5748929,19.1606786 C49.5186429,19.5184286 49.7953929,19.8424286 50.1576429,19.8424286 L53.0791071,19.8424286 C53.5631786,19.8424286 53.97525,19.4901429 54.0504643,19.0121786 L56.9147143,0.863035714 C56.9712857,0.504964286 56.6945357,0.181285714 56.3319643,0.181285714 L53.0627143,0.181285714 C52.7721429,0.181285714 52.5249643,0.392785714 52.4796429,0.6795" id="Fill-9"></path>
                </g>
                <path d="M46.035,59.1656786 L36.4821429,59.1656786 C36.0964286,59.1656786 35.7309643,58.99725 35.4799286,58.7037857 C35.2292143,58.4103214 35.1196071,58.023 35.1797143,57.6421071 L35.9620714,52.6815 L35.9733214,52.61175 L35.91225,52.61175 L41.8078929,15.2260714 C41.9290714,14.4581786 42.4218214,13.8291429 43.0855714,13.51125 C43.3870714,13.3666071 43.72425,13.28625 44.0775,13.28625 L58.4681786,13.28625 C60.1730357,13.28625 61.7621786,13.3977857 63.2156786,13.6321071 C63.6309643,13.6986429 64.035,13.7757857 64.4277857,13.8628929 C64.82025,13.95 65.2011429,14.0473929 65.5701429,14.1550714 C65.7546429,14.2090714 65.93625,14.2656429 66.1146429,14.3247857 C66.8063571,14.5546071 67.4517857,14.8242857 68.0477143,15.1354286 C68.0477143,15.13575 68.0477143,15.1354286 68.0477143,15.1354286 C67.4517857,14.8242857 66.8063571,14.5546071 66.1146429,14.3247857 C65.93625,14.2656429 65.7546429,14.2090714 65.5701429,14.1550714 C65.2011429,14.0473929 64.82025,13.95 64.4277857,13.8628929 C64.035,13.7757857 63.6309643,13.6986429 63.2156786,13.6321071 C61.7621786,13.3977857 60.1730357,13.28625 58.4681786,13.28625 L44.0775,13.28625 C43.72425,13.28625 43.3870714,13.3666071 43.0855714,13.51125 C42.4218214,13.8291429 41.9290714,14.4581786 41.8078929,15.2260714 L38.7495,34.6191429 L38.6611071,35.1851786 C38.8626429,33.9084643 39.9538929,32.9679643 41.2463571,32.9679643 L46.6328571,32.9679643 C57.2120357,32.9679643 65.4955714,28.6701429 67.91625,16.2401786 C67.9834286,15.8943214 68.0416071,15.5581071 68.094,15.228 C69.1270714,15.7779643 69.9949286,16.4487857 70.6734643,17.2218214 C71.8000714,18.5059286 72.5236071,20.1098571 72.8247857,21.98925 C73.1098929,23.7686786 73.0247143,25.8496071 72.5718214,28.1735357 C72.0588214,30.8066786 71.2198929,33.1129286 70.0781786,35.0276786 C68.9959286,36.84375 67.6115357,38.3586429 65.96325,39.5305714 C62.9514643,41.67225 58.9307143,42.7583571 54.0125357,42.7583571 L52.5837857,42.7583571 C51.4160357,42.7583571 50.4363214,43.5950357 50.2543929,44.7470357 L50.1386786,45.3792857 L48.339,56.7893571 L48.2451429,57.2769643 C48.0725357,58.3714286 47.1429643,59.1656786 46.035,59.1656786" id="Fill-11" fill="#FFFFFF"></path>
                <path d="M41.8078929,15.2260714 C41.9290714,14.4581786 42.4218214,13.8291429 43.0855714,13.51125 C43.3870714,13.3666071 43.72425,13.28625 44.0775,13.28625 L58.4681786,13.28625 C60.1730357,13.28625 61.7621786,13.3977857 63.2156786,13.6321071 C63.6309643,13.6986429 64.035,13.7757857 64.4277857,13.8628929 C64.82025,13.95 65.2011429,14.0473929 65.5701429,14.1550714 C65.7546429,14.2090714 65.93625,14.2656429 66.1146429,14.3247857 C66.8282143,14.5616786 67.4926071,14.8413214 68.1039643,15.165 C68.8242857,10.5701786 68.0988214,7.44364286 65.6138571,4.61185714 C62.8775357,1.49367857 57.9342857,0.158142857 51.6098571,0.158142857 L33.2514643,0.158142857 C31.9586786,0.158142857 30.8584286,1.09864286 30.6568929,2.37535714 L23.0123571,50.8506429 C22.8616071,51.8072143 23.6008929,52.6721786 24.5690357,52.6721786 L35.9026071,52.6721786 L41.8078929,15.2260714" id="Fill-12" fill="#FFFFFF"></path>
                <path id="Fill-13" fill="#FFFFFF" d="M68.1281071,15.2794286 C68.1186071,15.2744286 68.1091071,15.2694286 68.0996071,15.2644286 L68.0326071,15.2269286 L68.0446071,15.2084286 L68.0511071,15.1669286 C68.0526071,15.1564286 68.0546071,15.1459286 68.0561071,15.1354286 C68.0851071,15.1509286 68.1146071,15.1664286 68.1436071,15.1814286 C68.1386071,15.2144286 68.1331071,15.2469286 68.1281071,15.2794286"></path>
                <path d="M38.6611071,35.1851786 L38.7495,34.6191429 L41.8078929,15.2260714 C41.9290714,14.4581786 42.4218214,13.8291429 43.0855714,13.51125 C43.3870714,13.3666071 43.72425,13.28625 44.0775,13.28625 L58.4681786,13.28625 C60.1730357,13.28625 61.7621786,13.3977857 63.2156786,13.6321071 C63.6309643,13.6986429 64.035,13.7757857 64.4277857,13.8628929 C64.82025,13.95 65.2011429,14.0473929 65.5701429,14.1550714 C65.7546429,14.2090714 65.93625,14.2656429 66.1146429,14.3247857 C66.8063571,14.5546071 67.4517857,14.8242857 68.0477143,15.1354286 C68.04675,15.1421786 68.0454643,15.1489286 68.0445,15.1556786 L68.0403214,15.1823571 L68.0326071,15.19425 L68.0756786,15.2183571 C68.0817857,15.2215714 68.0878929,15.2247857 68.094,15.228 C68.0416071,15.5581071 67.9834286,15.8943214 67.91625,16.2401786 C65.4955714,28.6701429 57.2120357,32.9679643 46.6328571,32.9679643 L41.2463571,32.9679643 C39.9538929,32.9679643 38.8626429,33.9084643 38.6611071,35.1851786" id="Fill-14" fill="#FFFFFF"></path>
            </g>
        </g>
    </g>
</svg>