<svg xmlns="http://www.w3.org/2000/svg" viewBox="0 0 276 3834"><path d="M197.4,378.77v-.4A19.2,19.2,0,1,0,178.7,398,18.84,18.84,0,0,0,197.4,378.77Z" fill="#3e3e3e"/><path d="M69.8,441.27a77.88,77.88,0,0,0,130,0,10.75,10.75,0,0,0-2.8-14.9c0-.1-.1-.1-.2-.2a10.35,10.35,0,0,0-14.4,2.9,58.11,58.11,0,0,1-16.2,16.2,57,57,0,0,1-79-16.2c-.1-.1-.1-.2-.2-.3a10.41,10.41,0,0,0-14.5-2.5A11,11,0,0,0,69.8,441.27Z" fill="#3e3e3e"/><polygon points="239.4 530.97 239.4 504.27 265.6 504.27 265.6 477.56 239.4 477.56 239.4 450.77 213.3 450.77 213.3 477.56 187.1 477.56 187.1 504.27 213.3 504.27 213.3 530.97 239.4 530.97" fill="#3e3e3e"/><path d="M137.7,259.93a128,128,0,0,0,0-256h-.2A128.05,128.05,0,0,0,9.6,132C9.6,202.73,67,259.93,137.7,259.93Zm-.1-230.4A102.4,102.4,0,1,1,35.2,131.93,102.47,102.47,0,0,1,137.6,29.53Z" fill="#3e3e3e"/><path d="M91,398a18.8,18.8,0,1,0-18.8-19.2A18.83,18.83,0,0,0,91,398Z" fill="#3e3e3e"/><circle cx="182.4" cy="99.93" r="19.2" fill="#3e3e3e"/><path d="M92,183.23a80.51,80.51,0,0,0,112-20.8,10.75,10.75,0,0,0-2.7-15,10.87,10.87,0,0,0-15,2.8,59,59,0,0,1-97.3,0,10.8,10.8,0,0,0-17.8,12.2A80.66,80.66,0,0,0,92,183.23Z" fill="#3e3e3e"/><circle cx="92.8" cy="99.93" r="19.2" transform="translate(-15.79 182.43) rotate(-84.34)" fill="#3e3e3e"/><path d="M137.7,814.77a128,128,0,0,0,0-256h-.2A128.05,128.05,0,0,0,9.6,686.87C9.6,757.57,67,814.77,137.7,814.77Zm-.1-230.4a102.4,102.4,0,0,1,0,204.8h0a102.4,102.4,0,0,1,0-204.8Z" fill="#3e3e3e"/><path d="M134.7,538.77A123.44,123.44,0,0,0,200.2,520v-2.6h-26V505a98.52,98.52,0,0,1-39.3,8.2c-55.3,0-100.2-45.8-100.2-102.4s44.9-102.4,100.2-102.4,100.2,45.8,100.2,102.4a106,106,0,0,1-3.5,26.8h21.6l-.1,15.2a130.22,130.22,0,0,0,6.9-42c0-70.7-56-128-125.3-128-69.1,0-125.1,57.4-125.1,128S65.6,538.77,134.7,538.77Z" fill="#3e3e3e"/><path d="M93.1,953.1a32,32,0,1,0-32-32A32,32,0,0,0,93.1,953.1Zm0-45.2a13.2,13.2,0,1,1-13.2,13.2A13.19,13.19,0,0,1,93.1,907.9Z" fill="#3e3e3e"/><path d="M52,1181.1v88c0,18.8,15.4,33.6,35,33.6s35-14.8,35-33.6V1167.7c0-29.6-25.2-53.8-56-53.8s-56,24.2-56,53.8v128.4c0,40.3,35,73.9,77,73.9s77-33.6,77-73.9V1181.2H143v114.9c0,29.6-25.2,53.8-56,53.8s-56-24.2-56-53.8V1167.7c0-18.8,15.4-33.6,35-33.6s35,14.8,35,33.6v101.4c0,8-5.6,13.4-14,13.4s-14-5.3-14-13.4v-88Z" fill="#3e3e3e"/><path d="M218.8,838.1H57.3a47.22,47.22,0,0,0-47.2,47.2v161.5A47.22,47.22,0,0,0,57.3,1094H218.8a47.29,47.29,0,0,0,47.2-47.2V885.3A47.22,47.22,0,0,0,218.8,838.1ZM32.5,885.2a24.8,24.8,0,0,1,24.8-24.8H218.8a24.8,24.8,0,0,1,24.8,24.8l-.1,95.2-42.6-42.6a6.34,6.34,0,0,0-9,0L117,1012.7,75.5,971.2a6.34,6.34,0,0,0-9,0l-34,34Zm211.1,161.5a24.8,24.8,0,0,1-24.8,24.8H57.2a24.8,24.8,0,0,1-24.8-24.8l.1-8L71,1000.2l41.5,41.5a6.34,6.34,0,0,0,9,0l74.9-74.9,47.2,47.1Z" fill="#3e3e3e"/><polygon points="239.9 2218.3 139.6 2318.5 37.8 2218.3 9.6 2246.5 110.6 2347.5 10.4 2447.7 37 2474.3 138.8 2372.5 239 2472.7 264.9 2446.9 163.9 2345.9 265.7 2244.1 239.9 2218.3" fill="#3e3e3e"/><rect x="84.1" y="713.47" width="107" height="26.8" rx="1" fill="#3e3e3e"/><path d="M217.8,699.17v-24.8a.94.94,0,0,0-1-1H58.4a1.08,1.08,0,0,0-1,1v24.8a.94.94,0,0,0,1,1H216.8A.94.94,0,0,0,217.8,699.17Z" fill="#3e3e3e"/><path d="M98.5,660.07h78.2a.94.94,0,0,0,1-1v-24.8a.94.94,0,0,0-1-1H98.5a1,1,0,0,0-1,1v24.8A.94.94,0,0,0,98.5,660.07Z" fill="#3e3e3e"/><path d="M258.4,2814.53l-135.1,129.1a26.35,26.35,0,0,1-36.2,0L17.4,2877a23.62,23.62,0,0,1-1.1-33.5l1.1-1.1a26.35,26.35,0,0,1,36.2,0l51.6,49.3,117-111.8a26.35,26.35,0,0,1,36.2,0,23.62,23.62,0,0,1,1.1,33.5A11.41,11.41,0,0,1,258.4,2814.53ZM230,1993.1l-32.5,31.2a6.35,6.35,0,0,1-8.7,0L172,2008.2a5.71,5.71,0,0,1-.2-8.1l.2-.2a6.35,6.35,0,0,1,8.7,0l12.4,11.9,28.1-27a6.35,6.35,0,0,1,8.7,0,5.71,5.71,0,0,1,.2,8.1.35.35,0,0,0-.1.2Zm-29.1-50.6a59,59,0,1,0,59.1,59,59,59,0,0,0-59.1-59Zm.1,106.1a47.15,47.15,0,1,1,47.2-47.1,47.07,47.07,0,0,1-47.2,47.1Z" fill="#01b22e"/><path d="M76.2,1794.1a27.15,27.15,0,1,1,27.2-27.1A27.14,27.14,0,0,1,76.2,1794.1Zm0-43.6A16.5,16.5,0,1,0,92.7,1767,16.52,16.52,0,0,0,76.2,1750.5Zm98.5-31.2H32.5a11.82,11.82,0,0,0-11.8,11.8v125.1l36.7-36.7a5.25,5.25,0,0,1,7.5,0l34.6,34.6,62.5-62.4a5.25,5.25,0,0,1,7.5,0l43.3,43.2V1794h10.7v105.5A22.53,22.53,0,0,1,201,1922H32.5A22.53,22.53,0,0,1,10,1899.5V1731.2a22.53,22.53,0,0,1,22.5-22.5H174.7v10.6Zm-154,180.2a11.82,11.82,0,0,0,11.8,11.8H201a11.82,11.82,0,0,0,11.8-11.8v-49.4l-47-47-62.5,62.4a5.25,5.25,0,0,1-7.5,0l-34.6-34.6-40.5,40.5ZM254,1752.7c0,19.2-16.6,35.2-36.6,35.2s-36.6-16-36.6-35.2v-61.1c0-14.1,12-25.6,26.6-25.6s26.6,11.5,26.6,25.6v48.3c0,9-7.3,16-16.6,16s-16.6-7-16.6-16V1698h10v41.9c0,3.8,2.7,6.4,6.7,6.4s6.7-2.6,6.7-6.4v-48.3c0-9-7.3-16-16.6-16s-16.6,7-16.6,16v61.1c0,14.1,12,25.6,26.6,25.6s26.4-11.5,26.4-25.6V1698h10v54.7ZM76.8,2069.3a27.4,27.4,0,1,1,27.4-27.4A27.38,27.38,0,0,1,76.8,2069.3Zm0-44A16.65,16.65,0,1,0,93.5,2042a16.64,16.64,0,0,0-16.7-16.7Zm126.1,173.2H32.7A22.75,22.75,0,0,1,10,2175.8v-170a22.75,22.75,0,0,1,22.7-22.7H133.2v10.8H32.7a11.86,11.86,0,0,0-11.9,11.9v126.3l37.1-37a5.37,5.37,0,0,1,7.6,0l34.9,34.9,63.1-63.1a5.37,5.37,0,0,1,7.6,0l43.7,43.6v-41.4h10.8v106.6a22.77,22.77,0,0,1-22.7,22.8Zm11.9-72.7-47.5-47.5-63.1,63a5.37,5.37,0,0,1-7.6,0l-34.9-34.9-40.9,40.9v28.4a11.93,11.93,0,0,0,11.9,11.9H202.9a11.86,11.86,0,0,0,11.9-11.9Zm47.1,1383L198,3443.6a103.93,103.93,0,0,0,22.3-64.3c0-57.7-47.2-104.5-105.3-104.5S9.7,3321.6,9.7,3379.3,56.9,3483.8,115,3483.8a106,106,0,0,0,64.5-21.9l63.7,64.9a13.1,13.1,0,0,0,18.5.3,12.85,12.85,0,0,0,.2-18.3Zm-226-129.4c0-43.3,35.5-78.5,79.1-78.5s79.1,35.2,79.1,78.5-35.4,78.5-79.1,78.5S35.9,3422.7,35.9,3379.4ZM266,3595.2l-26.3-26.3L138,3670.6,36.3,3568.9,10,3595.2l101.7,101.7L10,3798.6l26.3,26.3L138,3723.2l101.7,101.7,26.3-26.3L164.3,3696.9Z" fill="#8f8f8f"/><path d="M150.7,3117.9v-68h-26v94h79v-26Z" fill="#3b3b3b"/><path d="M137.7,3015.9a102,102,0,1,1-102,102,102,102,0,0,1,102-102m0-26a128,128,0,1,0,128,128,128,128,0,0,0-128-128Z" fill="#3b3b3b"/><path d="M10,1619a27,27,0,0,0,27,27H239a27,27,0,0,0,27-27V1417a27,27,0,0,0-27-27H37a27,27,0,0,0-27,27Zm229,14.2H37A14.25,14.25,0,0,1,22.8,1619v-33.7l48.5-48.5,41.5,41.5a6.34,6.34,0,0,0,9,0l74.9-74.9,56.4,56.4v59.3a14.15,14.15,0,0,1-14.1,14.1ZM37,1402.8H239a14.25,14.25,0,0,1,14.2,14.2v124.6l-51.9-51.8a6.34,6.34,0,0,0-9,0l-74.9,74.9-41.6-41.6a6.34,6.34,0,0,0-9,0l-44,44V1417A14.25,14.25,0,0,1,37,1402.8Zm52.4,89.8A32.6,32.6,0,1,0,56.8,1460,32.61,32.61,0,0,0,89.4,1492.6Zm0-52.4A19.8,19.8,0,1,1,69.6,1460,19.85,19.85,0,0,1,89.4,1440.2Z" fill="#ccc"/><path d="M268.8,2521.16l-98.3,98.3,98.3,98.3-32.5,32.5L138,2652l-98.3,98.3-32.5-32.5,98.3-98.3-98.3-98.3,32.5-32.5L138,2587l98.3-98.3Z" fill="#c92746"/></svg>