<svg xmlns="http://www.w3.org/2000/svg" viewBox="0 0 21 21">
  <title>heart_tiny@1x</title>
  <g>
    <rect y="0.213" width="21" height="21" fill="none"/>
    <path d="M10.5,16.748a.9.9,0,0,1-.642-.266l-5.3-5.326a3.833,3.833,0,0,1,.269-5.64,3.913,3.913,0,0,1,5.23.371l.442.444.442-.444a3.914,3.914,0,0,1,5.23-.37,3.834,3.834,0,0,1,.269,5.64l-5.3,5.326A.9.9,0,0,1,10.5,16.748ZM7.184,5.779a2.569,2.569,0,0,0-1.653.582,2.691,2.691,0,0,0-.977,1.982,3,3,0,0,0,.938,2.19l4.934,4.958a.106.106,0,0,0,.15,0l4.933-4.957a3,3,0,0,0,.939-2.19,2.691,2.691,0,0,0-.977-1.983h0a2.811,2.811,0,0,0-3.748.3l-1.08,1.086a.2.2,0,0,1-.284,0L9.278,6.662A2.97,2.97,0,0,0,7.184,5.779Z" fill="#06c"/>
  </g>
</svg>
