<svg xmlns="http://www.w3.org/2000/svg" viewBox="0 0 21 21">
  <title>cube.box_tiny@1x</title>
  <g>
    <rect width="21" height="21" fill="none"/>
    <path d="M16.895,5.638l-5.5-2.75a2.008,2.008,0,0,0-1.789,0l-5.5,2.75A1.989,1.989,0,0,0,3,7.427v6.146a1.989,1.989,0,0,0,1.105,1.789l5.5,2.75a2.011,2.011,0,0,0,1.789,0l5.5-2.75A1.989,1.989,0,0,0,18,13.573V7.427A1.989,1.989,0,0,0,16.895,5.638ZM10.053,3.783a1.005,1.005,0,0,1,.895,0L16.441,6.53,13.9,7.98,8.189,4.714ZM10.5,9.925,4.559,6.53,7.115,5.252l5.781,3.3ZM4.553,14.467A1,1,0,0,1,4,13.573V7.427c0-.021.007-.04.008-.061L10,10.791v6.4ZM17,13.573a1,1,0,0,1-.553.895L11,17.191v-6.4l5.992-3.424c0,.021.008.04.008.061Z" fill="#06c"/>
  </g>
</svg>
