<svg viewBox="0 0 152 152" xmlns="http://www.w3.org/2000/svg">
  <path fill-rule="evenodd" clip-rule="evenodd" d="M152 60.7303C152 85.0439 128.076 102.683 109.884 100.077C105.925 111.407 89.5695 130.874 76.5388 125.662C87.8596 112.583 90.4087 96.9464 89.2529 91.5434C88.3187 87.1256 75.858 88.4128 63.8247 97.6297C55.6231 112.774 37.3832 130.922 27.4399 130.922C22.1041 130.922 20.1883 121.244 20.1883 120.434C20.1883 114.427 50.2398 92.9577 56.6364 89.9066C56.6364 89.9066 61.8772 82.0086 61.8772 75.4456C61.8772 69.7565 59.0431 68.2627 57.3014 68.2627C48.8781 68.2627 36.3224 80.2765 30.0049 93.0213C29.2924 94.4515 28.0574 94.9441 26.4582 94.9441C20.9166 94.9441 17.4808 87.2686 18.3675 86.2516C20.1091 84.2493 22.1991 82.4854 23.5449 80.197C35.2457 60.3171 36.1007 39.436 31.889 39.436C25.3024 39.436 12.8258 60.9845 12.8258 95.691C12.8258 111.852 16.42 121.069 18.8583 123.405C19.6658 124.168 18.8741 126.774 15.9766 127.728C10.3717 129.587 1.15672 123.405 -0.0466023 106.847C-2.81742 68.7871 17.94 27.8831 36.4174 31.109C40.439 31.8082 46.8198 39.9127 40.5182 63.6384C40.5182 63.6384 44.0648 60.333 49.6856 58.9346C62.1147 55.804 74.338 63.2252 68.638 84.5512C68.638 84.5512 86.6087 77.1141 93.2429 80.928C99.5445 84.5512 99.117 98.8057 92.277 111.264C103.93 104.113 108.886 85.7908 108.886 85.7908C115.948 87.221 137.212 78.1789 137.212 56.4237C137.212 40.4054 123.944 27.3904 105.292 27.3904C86.8462 27.3904 73.1663 40.9933 65.1547 56.4873C64.5689 57.6156 59.8189 55.2955 59.8189 51.9265C59.8189 41.2794 79.4521 21.4312 104.817 20.5254C124.798 19.8103 152 28.2486 152 60.7303ZM85.6904 43.3452C82.9987 46.5553 84.2971 55.1524 86.1812 56.6462C87.2896 56.1536 112.433 52.292 116.945 49.9878C119.035 48.9231 120.159 47.4452 120.761 45.0456C117.658 44.7119 86.2446 43.2022 85.6904 43.3452ZM91.2954 59.9993C89.0312 62.7008 90.1237 69.9154 91.707 71.1867C92.6254 70.7735 113.763 67.5317 117.547 65.593C119.304 64.7031 120.254 63.4477 120.761 61.4454C118.149 61.1434 91.7545 59.8721 91.2954 59.9993Z" fill="#EC1845"/>
</svg>
