<svg xmlns="http://www.w3.org/2000/svg" width="112" height="147" fill="none"><path fill="#EBCEE0" d="M90.58 49.22h-.5v.5h.5v-.5zm-69.16 0v.5h.5v-.5h-.5zm13.83 0h-.5v.5h.5v-.5zm41.5 0v.5h.5v-.5h-.5zM14.5 63.08v-.5H14v.5h.5zm0 69.3H14v.5h.5v-.5zm83-69.3h.5v-.5h-.5v.5zm0 69.3v.5h.5v-.5h-.5zm0-83.66h-6.92v1h6.92v-1zm14.33 14.36c0-7.9-6.44-14.36-14.33-14.36v1c7.33 0 13.33 6 13.33 13.36h1zm0 69.3v-69.3h-1v69.3h1zM97.5 146.75c7.9 0 14.33-6.47 14.33-14.37h-1c0 7.35-6 13.37-13.33 13.37v1zm-83 0h83v-1h-83v1zM.17 132.38c0 7.9 6.44 14.37 14.33 14.37v-1c-7.33 0-13.33-6.02-13.33-13.37h-1zm0-69.3v69.3h1v-69.3h-1zM14.5 48.72C6.6 48.72.17 55.18.17 63.08h1c0-7.35 6-13.36 13.33-13.36v-1zm6.92 0H14.5v1h6.92v-1zm-.5-13.37v13.87h1V35.35h-1zM56 .2C36.63.2 20.92 15.95 20.92 35.35h1C21.92 16.5 37.2 1.2 56 1.2v-1zm35.08 35.15C91.08 15.95 75.38.2 56 .2v1c18.8 0 34.08 15.3 34.08 34.15h1zm0 13.87V35.35h-1v13.87h1zM35.75 35.35c0-11.23 9.05-20.3 20.25-20.3v-1c-11.76 0-21.25 9.52-21.25 21.3h1zm0 13.87V35.35h-1v13.87h1zm41-.5h-41.5v1h41.5v-1zm-.5-13.37v13.87h1V35.35h-1zM56 15.05c11.2 0 20.25 9.07 20.25 20.3h1c0-11.78-9.5-21.3-21.25-21.3v1zM14 63.1v69.3h1V63.1h-1zm83.5-.5h-83v1h83v-1zm.5 69.8V63.1h-1v69.3h1zm-83.5.5h83v-1h-83v1zM56 112.1c7.9 0 14.33-6.45 14.33-14.35h-1c0 7.35-6 13.36-13.33 13.36v1zM41.67 97.74c0 7.9 6.44 14.36 14.33 14.36v-1c-7.33 0-13.33-6.02-13.33-13.37h-1zM56 83.37c-7.9 0-14.33 6.46-14.33 14.36h1c0-7.35 6-13.36 13.33-13.36v-1zm14.33 14.36c0-7.9-6.44-14.36-14.33-14.36v1c7.33 0 13.33 6 13.33 13.36h1z"/></svg>