<svg height="88" viewBox="0 0 15 88" width="15" xmlns="http://www.w3.org/2000/svg"><path d="m0 0h15v44h-15z" fill="none"/><path d="m13.98 27.593-3.5-3.5a5.436 5.436 0 1 0 -.778.777l3.5 3.5a.55.55 0 1 0 .778-.778zm-12.021-6.925a4.319 4.319 0 1 1 4.319 4.32 4.323 4.323 0 0 1 -4.319-4.32z" fill="#86868b"/><path d="m0 44h15v44h-15z" fill="none"/><path d="m13.98 71.593-3.5-3.5a5.436 5.436 0 1 0 -.778.777l3.5 3.5a.55.55 0 1 0 .778-.778zm-12.021-6.925a4.319 4.319 0 1 1 4.319 4.32 4.323 4.323 0 0 1 -4.319-4.32z" fill="#06c"/></svg>