<?xml version="1.0" standalone="no"?>
<!DOCTYPE svg PUBLIC "-//W3C//DTD SVG 1.1//EN" "http://www.w3.org/Graphics/SVG/1.1/DTD/svg11.dtd" >
<svg xmlns="http://www.w3.org/2000/svg" xmlns:xlink="http://www.w3.org/1999/xlink" version="1.1">
<metadata>
Created by FontForge 20150804 at Tue Jan 23 02:48:53 2018
 By cloudconvert
\(c\) 2015 Klim Type Foundry. All Rights Reserved.
</metadata>
<defs>
<font id="PayPalSansBig-Light" horiz-adv-x="239" >
  <font-face 
    font-family="PayPal Sans Big Light"
    font-weight="300"
    font-stretch="normal"
    units-per-em="1024"
    panose-1="2 11 3 3 4 5 4 4 2 4"
    ascent="819"
    descent="-205"
    x-height="510"
    cap-height="700"
    bbox="-77 -239 1209 982"
    underline-thickness="50"
    underline-position="-100"
    stemh="55"
    stemv="62"
    unicode-range="U+0020-FB02"
  />
<missing-glyph horiz-adv-x="257" 
 />
    <glyph glyph-name="f_b" unicode="fb" horiz-adv-x="918" 
d="M876 268c0 -169 -115 -279 -267 -279c-61 0 -126 12 -177 39v709c-31 10 -54 12 -82 12c-113 0 -192 -69 -192 -203v-36h176l-12 -49h-164v-461h-59v461h-77v49h77v36c0 157 110 256 251 256c50 0 100 -11 141 -26v-319c31 29 95 64 163 64c129 0 222 -89 222 -253z
M491 64c34 -15 73 -22 118 -22c129 0 208 92 208 226c0 130 -68 201 -167 201c-63 0 -124 -27 -159 -58v-347z" />
    <glyph glyph-name="f_f_b" unicode="ffb" horiz-adv-x="1250" 
d="M1209 268c0 -169 -115 -279 -267 -279c-61 0 -126 12 -177 39v709c-31 10 -54 12 -82 12c-113 0 -192 -69 -192 -203v-36h176l-12 -49h-164v-461h-59v461h-274v-461h-59v461h-77v49h77v34c0 157 89 239 215 239c25 0 44 -1 72 -10v-50c-29 9 -47 9 -72 9
c-102 0 -156 -63 -156 -188v-34h274v36c0 157 110 256 251 256c50 0 100 -11 141 -26v-319c31 29 95 64 163 64c129 0 222 -89 222 -253zM824 64c34 -15 73 -22 118 -22c129 0 208 92 208 226c0 130 -68 201 -167 201c-63 0 -124 -27 -159 -58v-347z" />
    <glyph glyph-name="f_f_h" unicode="ffh" horiz-adv-x="1259" 
d="M99 0v461h-77v49h77v34c0 157 89 239 215 239c25 0 44 -1 72 -10v-50c-29 9 -47 9 -72 9c-102 0 -156 -63 -156 -188v-34h274v36c0 157 110 256 251 256c50 0 100 -11 141 -26v-320c34 28 105 65 182 65c117 0 170 -66 170 -168v-353h-60v337c0 81 -27 131 -121 131
c-70 0 -122 -23 -171 -57v-411h-59v737c-31 10 -54 12 -82 12c-113 0 -192 -69 -192 -203v-36h176l-12 -49h-164v-461h-59v461h-274v-461h-59z" />
    <glyph glyph-name="f_f_idieresis" unicode="ff&#xef;" horiz-adv-x="913" 
d="M99 0v461h-77v49h77v34c0 157 89 239 215 239c25 0 44 -1 72 -10v-50c-29 9 -47 9 -72 9c-102 0 -156 -63 -156 -188v-34h274v52c0 158 89 240 215 240c25 0 44 -2 72 -10v-50c-29 8 -47 9 -72 9c-102 0 -156 -64 -156 -189v-52h274l59 11v-521h-59v461h-274v-461h-59
v461h-274v-461h-59zM835 709c0 24 20 45 45 45s46 -21 46 -45c0 -26 -21 -46 -46 -46s-45 20 -45 46z" />
    <glyph glyph-name="f_f_j" unicode="ffj" horiz-adv-x="913" 
d="M824 5c-4 -126 -32 -175 -78 -233h-67c58 65 82 125 86 233v456h-274v-461h-59v461h-274v-461h-59v461h-77v49h77v34c0 157 89 239 215 239c25 0 44 -1 72 -10v-50c-29 9 -47 9 -72 9c-102 0 -156 -63 -156 -188v-34h274v25c0 176 98 267 238 267c27 0 65 -4 93 -17v-51
c-31 13 -66 17 -93 17c-114 0 -179 -70 -179 -211v-30h274l59 11v-516z" />
    <glyph glyph-name="f_f_k" unicode="ffk" horiz-adv-x="1213" 
d="M99 0v461h-77v49h77v34c0 157 89 239 215 239c25 0 44 -1 72 -10v-50c-29 9 -47 9 -72 9c-102 0 -156 -63 -156 -188v-34h274v36c0 157 110 256 251 256c50 0 100 -11 141 -26v-496l262 230h79l-273 -236l308 -274h-84l-292 258v-258h-59v737c-31 10 -54 12 -82 12
c-113 0 -192 -69 -192 -203v-36h176l-12 -49h-164v-461h-59v461h-274v-461h-59z" />
    <glyph glyph-name="f_h" unicode="fh" horiz-adv-x="926" 
d="M158 0h-59v461h-77v49h77v36c0 157 110 256 251 256c50 0 100 -11 141 -26v-320c34 28 105 65 182 65c117 0 170 -66 170 -168v-353h-60v337c0 81 -27 131 -121 131c-70 0 -122 -23 -171 -57v-411h-59v737c-31 10 -54 12 -82 12c-113 0 -192 -69 -192 -203v-36h176
l-12 -49h-164v-461z" />
    <glyph glyph-name="f_idieresis" unicode="f&#xef;" horiz-adv-x="581" 
d="M99 0v461h-77v49h77v52c0 158 89 240 215 240c25 0 44 -2 72 -10v-50c-29 8 -47 9 -72 9c-102 0 -156 -64 -156 -189v-52h274l59 11v-521h-59v461h-274v-461h-59zM502 709c0 24 20 45 45 45s46 -21 46 -45c0 -26 -21 -46 -46 -46s-45 20 -45 46z" />
    <glyph glyph-name="f_j" unicode="fj" horiz-adv-x="581" 
d="M491 5c-4 -126 -32 -175 -78 -233h-67c58 65 82 125 86 233v456h-274v-461h-59v461h-77v49h77v25c0 176 98 267 238 267c27 0 65 -4 93 -17v-51c-31 13 -66 17 -93 17c-114 0 -179 -70 -179 -211v-30h274l59 11v-516z" />
    <glyph glyph-name="f_k" unicode="fk" horiz-adv-x="881" 
d="M158 0h-59v461h-77v49h77v36c0 157 110 256 251 256c50 0 100 -11 141 -26v-496l262 230h79l-273 -236l308 -274h-84l-292 258v-258h-59v737c-31 10 -54 12 -82 12c-113 0 -192 -69 -192 -203v-36h176l-12 -49h-164v-461z" />
    <glyph glyph-name="f_f" unicode="ff" horiz-adv-x="652" 
d="M99 0v461h-77v49h77v34c0 157 89 239 215 239c25 0 44 -1 72 -10v-50c-29 9 -47 9 -72 9c-102 0 -156 -63 -156 -188v-34h274v52c0 158 89 240 215 240c25 0 44 -2 72 -10v-50c-29 8 -47 9 -72 9c-102 0 -156 -64 -156 -189v-52h176l-12 -49h-164v-461h-59v461h-274v-461
h-59z" />
    <glyph glyph-name="f_f_i" unicode="ffi" horiz-adv-x="913" 
d="M99 0v461h-77v49h77v34c0 157 89 239 215 239c25 0 44 -1 72 -10v-50c-29 9 -47 9 -72 9c-102 0 -156 -63 -156 -188v-34h274v25c0 176 98 267 238 267c27 0 65 -4 93 -17v-51c-31 13 -66 17 -93 17c-114 0 -179 -70 -179 -211v-30h274l59 11v-521h-59v461h-274v-461h-59
v461h-274v-461h-59z" />
    <glyph glyph-name="f_f_l" unicode="ffl" horiz-adv-x="913" 
d="M99 0v461h-77v49h77v34c0 157 89 239 215 239c25 0 44 -1 72 -10v-50c-29 9 -47 9 -72 9c-102 0 -156 -63 -156 -188v-34h274v36c0 157 110 256 251 256c50 0 100 -11 141 -26v-776h-59v737c-31 10 -54 12 -82 12c-113 0 -192 -69 -192 -203v-36h176l-12 -49h-164v-461
h-59v461h-274v-461h-59z" />
    <glyph glyph-name="fi" unicode="fi" horiz-adv-x="581" 
d="M99 0v461h-77v49h77v25c0 176 98 267 238 267c27 0 65 -4 93 -17v-51c-31 13 -66 17 -93 17c-114 0 -179 -70 -179 -211v-30h274l59 11v-521h-59v461h-274v-461h-59z" />
    <glyph glyph-name="fl" unicode="fl" horiz-adv-x="581" 
d="M432 737c-31 10 -54 12 -82 12c-113 0 -192 -69 -192 -203v-36h176l-12 -49h-164v-461h-59v461h-77v49h77v36c0 157 110 256 251 256c50 0 100 -11 141 -26v-776h-59v737z" />
    <glyph glyph-name=".notdef" horiz-adv-x="257" 
 />
    <glyph glyph-name="space" unicode=" " horiz-adv-x="249" 
 />
    <glyph glyph-name="A" unicode="A" horiz-adv-x="688" 
d="M492 262h-297l-110 -262h-61l296 700h50l294 -700h-63zM217 315h253l-126 303z" />
    <glyph glyph-name="Agrave" unicode="&#xc0;" horiz-adv-x="688" 
d="M323 776l-179 151h98l137 -151h-56zM492 262h-297l-110 -262h-61l296 700h50l294 -700h-63zM217 315h253l-126 303z" />
    <glyph glyph-name="Aacute" unicode="&#xc1;" horiz-adv-x="688" 
d="M313 776l136 151h99l-180 -151h-55zM492 262h-297l-110 -262h-61l296 700h50l294 -700h-63zM217 315h253l-126 303z" />
    <glyph glyph-name="Acircumflex" unicode="&#xc2;" horiz-adv-x="688" 
d="M372 927l128 -151h-45l-111 94l-111 -94h-45l129 151h55zM492 262h-297l-110 -262h-61l296 700h50l294 -700h-63zM217 315h253l-126 303z" />
    <glyph glyph-name="Atilde" unicode="&#xc3;" horiz-adv-x="688" 
d="M413 776c-60 0 -99 105 -145 105c-33 0 -44 -46 -52 -105h-45c3 86 38 162 104 162c60 0 99 -104 144 -104c33 0 45 45 52 104h46c-4 -85 -38 -162 -104 -162zM492 262h-297l-110 -262h-61l296 700h50l294 -700h-63zM217 315h253l-126 303z" />
    <glyph glyph-name="Adieresis" unicode="&#xc4;" horiz-adv-x="688" 
d="M212 855c0 24 20 45 46 45c24 0 45 -21 45 -45c0 -26 -21 -46 -45 -46c-26 0 -46 20 -46 46zM385 855c0 24 20 45 46 45c24 0 45 -21 45 -45c0 -26 -21 -46 -45 -46c-26 0 -46 20 -46 46zM492 262h-297l-110 -262h-61l296 700h50l294 -700h-63zM217 315h253l-126 303z
" />
    <glyph glyph-name="Aring" unicode="&#xc5;" horiz-adv-x="688" 
d="M85 0h-61l282 668c-43 16 -75 58 -75 108c0 62 52 113 113 113s113 -51 113 -113c0 -50 -31 -91 -74 -108l281 -668h-63l-109 262h-297zM344 706c38 0 68 32 68 70c0 36 -30 69 -68 69c-37 0 -67 -33 -67 -69c0 -38 30 -70 67 -70zM217 315h253l-126 303z" />
    <glyph glyph-name="Amacron" unicode="&#x100;" horiz-adv-x="688" 
d="M193 802v50h303v-50h-303zM492 262h-297l-110 -262h-61l296 700h50l294 -700h-63zM217 315h253l-126 303z" />
    <glyph glyph-name="Abreve" unicode="&#x102;" horiz-adv-x="688" 
d="M344 776c-89 0 -151 58 -151 151h47c4 -62 46 -99 104 -99c59 0 101 37 104 99h48c0 -93 -62 -151 -152 -151zM492 262h-297l-110 -262h-61l296 700h50l294 -700h-63zM217 315h253l-126 303z" />
    <glyph glyph-name="Aogonek" unicode="&#x104;" horiz-adv-x="688" 
d="M658 -232c-11 -4 -22 -7 -40 -7c-44 0 -93 27 -93 91c0 58 28 101 76 148l-109 262h-298l-109 -262h-61l296 700h50l294 -700c-65 -51 -88 -90 -88 -139c0 -34 22 -54 47 -54c15 0 22 2 35 7v-46zM217 315h253l-126 303z" />
    <glyph glyph-name="B" unicode="B" horiz-adv-x="621" 
d="M402 367c97 -13 164 -78 164 -171c0 -123 -92 -196 -241 -196h-222v700h186c147 0 231 -66 231 -183c0 -77 -55 -133 -118 -150zM164 385h120c112 0 177 45 177 134c0 90 -65 127 -177 127h-120v-261zM507 197c0 85 -64 136 -176 136h-167v-279h167c112 0 176 56 176 143
z" />
    <glyph glyph-name="C" unicode="C" horiz-adv-x="605" 
d="M107 350c0 -205 152 -305 311 -305c47 0 89 6 135 26v-58c-44 -17 -85 -24 -135 -24c-199 0 -374 129 -374 361c0 231 175 361 374 361c50 0 91 -7 135 -23v-59c-46 20 -88 27 -135 27c-159 0 -311 -101 -311 -306z" />
    <glyph glyph-name="Ccedilla" unicode="&#xc7;" horiz-adv-x="605" 
d="M351 -239c-42 0 -76 9 -100 24v50c40 -27 74 -30 100 -30c40 0 70 17 70 47c0 39 -39 52 -103 52l27 91c-167 28 -301 152 -301 355c0 231 175 361 374 361c50 0 91 -7 135 -23v-59c-46 20 -88 27 -135 27c-159 0 -311 -101 -311 -306s152 -305 311 -305
c47 0 89 6 135 26v-58c-44 -17 -85 -24 -135 -24c-12 0 -23 0 -35 1l-14 -46c60 -9 103 -39 103 -89c0 -60 -62 -94 -121 -94z" />
    <glyph glyph-name="Cacute" unicode="&#x106;" horiz-adv-x="605" 
d="M367 776l136 151h99l-180 -151h-55zM107 350c0 -205 152 -305 311 -305c47 0 89 6 135 26v-58c-44 -17 -85 -24 -135 -24c-199 0 -374 129 -374 361c0 231 175 361 374 361c50 0 91 -7 135 -23v-59c-46 20 -88 27 -135 27c-159 0 -311 -101 -311 -306z" />
    <glyph glyph-name="Ccircumflex" unicode="&#x108;" horiz-adv-x="605" 
d="M426 927l128 -151h-45l-111 94l-111 -94h-45l129 151h55zM107 350c0 -205 152 -305 311 -305c47 0 89 6 135 26v-58c-44 -17 -85 -24 -135 -24c-199 0 -374 129 -374 361c0 231 175 361 374 361c50 0 91 -7 135 -23v-59c-46 20 -88 27 -135 27
c-159 0 -311 -101 -311 -306z" />
    <glyph glyph-name="Cdotaccent" unicode="&#x10a;" horiz-adv-x="605" 
d="M353 855c0 24 20 45 45 45s46 -21 46 -45c0 -26 -21 -46 -46 -46s-45 20 -45 46zM107 350c0 -205 152 -305 311 -305c47 0 89 6 135 26v-58c-44 -17 -85 -24 -135 -24c-199 0 -374 129 -374 361c0 231 175 361 374 361c50 0 91 -7 135 -23v-59c-46 20 -88 27 -135 27
c-159 0 -311 -101 -311 -306z" />
    <glyph glyph-name="Ccaron" unicode="&#x10c;" horiz-adv-x="605" 
d="M371 776l-129 151h45l111 -93l111 93h45l-128 -151h-55zM107 350c0 -205 152 -305 311 -305c47 0 89 6 135 26v-58c-44 -17 -85 -24 -135 -24c-199 0 -374 129 -374 361c0 231 175 361 374 361c50 0 91 -7 135 -23v-59c-46 20 -88 27 -135 27c-159 0 -311 -101 -311 -306
z" />
    <glyph glyph-name="D" unicode="D" horiz-adv-x="723" 
d="M103 701h201c210 0 375 -129 375 -349c0 -221 -165 -352 -375 -352h-201v701zM301 55c176 0 315 107 315 297c0 189 -139 295 -315 295h-137v-592h137z" />
    <glyph glyph-name="Dcaron" unicode="&#x10e;" horiz-adv-x="723" 
d="M305 776l-129 151h45l111 -93l111 93h45l-128 -151h-55zM103 701h201c210 0 375 -129 375 -349c0 -221 -165 -352 -375 -352h-201v701zM301 55c176 0 315 107 315 297c0 189 -139 295 -315 295h-137v-592h137z" />
    <glyph glyph-name="E" unicode="E" horiz-adv-x="613" 
d="M103 700h422v-54h-361v-260h325v-53h-325v-279h373v-54h-434v700z" />
    <glyph glyph-name="Egrave" unicode="&#xc8;" horiz-adv-x="613" 
d="M325 776l-179 151h98l137 -151h-56zM103 700h422v-54h-361v-260h325v-53h-325v-279h373v-54h-434v700z" />
    <glyph glyph-name="Eacute" unicode="&#xc9;" horiz-adv-x="613" 
d="M261 776l136 151h99l-180 -151h-55zM103 700h422v-54h-361v-260h325v-53h-325v-279h373v-54h-434v700z" />
    <glyph glyph-name="Ecircumflex" unicode="&#xca;" horiz-adv-x="613" 
d="M346 927l128 -151h-45l-111 94l-111 -94h-45l129 151h55zM103 700h422v-54h-361v-260h325v-53h-325v-279h373v-54h-434v700z" />
    <glyph glyph-name="Edieresis" unicode="&#xcb;" horiz-adv-x="613" 
d="M186 855c0 24 20 45 46 45c24 0 45 -21 45 -45c0 -26 -21 -46 -45 -46c-26 0 -46 20 -46 46zM359 855c0 24 20 45 46 45c24 0 45 -21 45 -45c0 -26 -21 -46 -45 -46c-26 0 -46 20 -46 46zM103 700h422v-54h-361v-260h325v-53h-325v-279h373v-54h-434v700z" />
    <glyph glyph-name="Emacron" unicode="&#x112;" horiz-adv-x="613" 
d="M167 802v50h303v-50h-303zM103 700h422v-54h-361v-260h325v-53h-325v-279h373v-54h-434v700z" />
    <glyph glyph-name="Ebreve" unicode="&#x114;" horiz-adv-x="613" 
d="M318 776c-89 0 -151 58 -151 151h47c4 -62 46 -99 104 -99c59 0 101 37 104 99h48c0 -93 -62 -151 -152 -151zM103 700h422v-54h-361v-260h325v-53h-325v-279h373v-54h-434v700z" />
    <glyph glyph-name="Edotaccent" unicode="&#x116;" horiz-adv-x="613" 
d="M273 855c0 24 20 45 45 45s46 -21 46 -45c0 -26 -21 -46 -46 -46s-45 20 -45 46zM103 700h422v-54h-361v-260h325v-53h-325v-279h373v-54h-434v700z" />
    <glyph glyph-name="Eogonek" unicode="&#x118;" horiz-adv-x="613" 
d="M472 -232c-12 -4 -23 -7 -40 -7c-45 0 -94 27 -94 91c0 58 28 100 76 148h-311v700h422v-54h-361v-260h325v-53h-325v-279h373v-54h-72c-51 -55 -76 -92 -76 -139c0 -34 23 -54 48 -54c14 0 22 2 35 7v-46z" />
    <glyph glyph-name="Ecaron" unicode="&#x11a;" horiz-adv-x="613" 
d="M291 776l-129 151h45l111 -93l111 93h45l-128 -151h-55zM103 700h422v-54h-361v-260h325v-53h-325v-279h373v-54h-434v700z" />
    <glyph glyph-name="F" unicode="F" horiz-adv-x="578" 
d="M103 0v700h411v-54h-350v-260h318v-53h-318v-333h-61z" />
    <glyph glyph-name="G" unicode="G" horiz-adv-x="666" 
d="M426 655c-167 0 -319 -115 -319 -308c0 -205 147 -302 315 -302c38 0 83 3 123 11v246h59v-291c-46 -12 -120 -22 -182 -22c-205 0 -378 128 -378 358c0 219 177 364 382 364c70 0 133 -12 177 -30v-59c-45 21 -115 33 -177 33z" />
    <glyph glyph-name="Gcircumflex" unicode="&#x11c;" horiz-adv-x="666" 
d="M438 927l128 -151h-45l-111 94l-111 -94h-45l129 151h55zM426 655c-167 0 -319 -115 -319 -308c0 -205 147 -302 315 -302c38 0 83 3 123 11v246h59v-291c-46 -12 -120 -22 -182 -22c-205 0 -378 128 -378 358c0 219 177 364 382 364c70 0 133 -12 177 -30v-59
c-45 21 -115 33 -177 33z" />
    <glyph glyph-name="Gbreve" unicode="&#x11e;" horiz-adv-x="666" 
d="M409 776c-89 0 -151 58 -151 151h47c4 -62 46 -99 104 -99c59 0 101 37 104 99h48c0 -93 -62 -151 -152 -151zM426 655c-167 0 -319 -115 -319 -308c0 -205 147 -302 315 -302c38 0 83 3 123 11v246h59v-291c-46 -12 -120 -22 -182 -22c-205 0 -378 128 -378 358
c0 219 177 364 382 364c70 0 133 -12 177 -30v-59c-45 21 -115 33 -177 33z" />
    <glyph glyph-name="Gdotaccent" unicode="&#x120;" horiz-adv-x="666" 
d="M364 855c0 24 20 45 45 45s46 -21 46 -45c0 -26 -21 -46 -46 -46s-45 20 -45 46zM426 655c-167 0 -319 -115 -319 -308c0 -205 147 -302 315 -302c38 0 83 3 123 11v246h59v-291c-46 -12 -120 -22 -182 -22c-205 0 -378 128 -378 358c0 219 177 364 382 364
c70 0 133 -12 177 -30v-59c-45 21 -115 33 -177 33z" />
    <glyph glyph-name="uni0122" unicode="&#x122;" horiz-adv-x="666" 
d="M426 655c-167 0 -319 -115 -319 -308c0 -205 147 -302 315 -302c38 0 83 3 123 11v246h59v-291c-46 -12 -120 -22 -182 -22c-205 0 -378 128 -378 358c0 219 177 364 382 364c70 0 133 -12 177 -30v-59c-45 21 -115 33 -177 33zM444 -50c0 -72 -51 -150 -99 -178h-44
c36 32 78 105 78 178h65z" />
    <glyph glyph-name="H" unicode="H" horiz-adv-x="780" 
d="M616 333h-452v-333h-61v701h61v-315h452v315h61v-701h-61v333z" />
    <glyph glyph-name="Hcircumflex" unicode="&#x124;" horiz-adv-x="780" 
d="M418 927l128 -151h-45l-111 94l-111 -94h-45l129 151h55zM616 333h-452v-333h-61v701h61v-315h452v315h61v-701h-61v333z" />
    <glyph glyph-name="I" unicode="I" horiz-adv-x="267" 
d="M103 700h61v-700h-61v700z" />
    <glyph glyph-name="Igrave" unicode="&#xcc;" horiz-adv-x="267" 
d="M102 776l-179 151h98l137 -151h-56zM103 700h61v-700h-61v700z" />
    <glyph glyph-name="Iacute" unicode="&#xcd;" horiz-adv-x="267" 
d="M111 776l136 151h99l-180 -151h-55zM103 700h61v-700h-61v700z" />
    <glyph glyph-name="Icircumflex" unicode="&#xce;" horiz-adv-x="267" 
d="M161 927l128 -151h-45l-111 94l-111 -94h-45l129 151h55zM103 700h61v-700h-61v700z" />
    <glyph glyph-name="Idieresis" unicode="&#xcf;" horiz-adv-x="267" 
d="M1 855c0 24 20 45 46 45c24 0 45 -21 45 -45c0 -26 -21 -46 -45 -46c-26 0 -46 20 -46 46zM174 855c0 24 20 45 46 45c24 0 45 -21 45 -45c0 -26 -21 -46 -45 -46c-26 0 -46 20 -46 46zM103 700h61v-700h-61v700z" />
    <glyph glyph-name="Itilde" unicode="&#x128;" horiz-adv-x="267" 
d="M202 776c-60 0 -99 105 -145 105c-33 0 -44 -46 -52 -105h-45c3 86 38 162 104 162c60 0 99 -104 144 -104c33 0 45 45 52 104h46c-4 -85 -38 -162 -104 -162zM103 700h61v-700h-61v700z" />
    <glyph glyph-name="Imacron" unicode="&#x12a;" horiz-adv-x="267" 
d="M-18 802v50h303v-50h-303zM103 700h61v-700h-61v700z" />
    <glyph glyph-name="Ibreve" unicode="&#x12c;" horiz-adv-x="267" 
d="M133 776c-89 0 -151 58 -151 151h47c4 -62 46 -99 104 -99c59 0 101 37 104 99h48c0 -93 -62 -151 -152 -151zM103 700h61v-700h-61v700z" />
    <glyph glyph-name="Iogonek" unicode="&#x12e;" horiz-adv-x="267" 
d="M103 700h61v-700c-65 -53 -87 -90 -87 -139c0 -34 23 -54 48 -54c14 0 22 2 35 7v-46c-12 -4 -23 -7 -40 -7c-45 0 -94 27 -94 91c0 58 29 99 77 148v700z" />
    <glyph glyph-name="Idotaccent" unicode="&#x130;" horiz-adv-x="267" 
d="M88 855c0 24 20 45 45 45s46 -21 46 -45c0 -26 -21 -46 -46 -46s-45 20 -45 46zM103 700h61v-700h-61v700z" />
    <glyph glyph-name="J" unicode="J" horiz-adv-x="267" 
d="M164 51c0 -145 -34 -213 -91 -279h-76c71 74 106 145 106 279v649h61v-649z" />
    <glyph glyph-name="Jcircumflex" unicode="&#x134;" horiz-adv-x="267" 
d="M163 927l128 -151h-45l-111 94l-111 -94h-45l129 151h55zM164 51c0 -145 -34 -213 -91 -279h-76c71 74 106 145 106 279v649h61v-649z" />
    <glyph glyph-name="K" unicode="K" horiz-adv-x="666" 
d="M164 342v-342h-61v700h61v-331l350 331h83l-367 -337l420 -363h-90z" />
    <glyph glyph-name="uni0136" unicode="&#x136;" horiz-adv-x="666" 
d="M164 342v-342h-61v700h61v-331l350 331h83l-367 -337l420 -363h-90zM356 -50c0 -72 -51 -150 -99 -178h-44c36 32 78 105 78 178h65z" />
    <glyph glyph-name="L" unicode="L" horiz-adv-x="559" 
d="M164 700v-646h351v-54h-412v700h61z" />
    <glyph glyph-name="Lacute" unicode="&#x139;" horiz-adv-x="559" 
d="M114 776l136 151h99l-180 -151h-55zM164 700v-646h351v-54h-412v700h61z" />
    <glyph glyph-name="uni013B" unicode="&#x13b;" horiz-adv-x="559" 
d="M164 700v-646h351v-54h-412v700h61zM343 -50c0 -72 -51 -150 -99 -178h-44c36 32 78 105 78 178h65z" />
    <glyph glyph-name="Lcaron" unicode="&#x13d;" horiz-adv-x="559" 
d="M378 702h70l-53 -252h-42zM164 700v-646h351v-54h-412v700h61z" />
    <glyph glyph-name="M" unicode="M" horiz-adv-x="874" 
d="M413 89l-204 523l-86 -612h-58l101 700h68l204 -529l201 529h69l101 -700h-59l-86 612l-204 -523h-47z" />
    <glyph glyph-name="N" unicode="N" horiz-adv-x="743" 
d="M162 613v-613h-59v700h68l410 -600v600h59v-700h-54z" />
    <glyph glyph-name="Ntilde" unicode="&#xd1;" horiz-adv-x="743" 
d="M441 776c-60 0 -99 105 -145 105c-33 0 -44 -46 -52 -105h-45c3 86 38 162 104 162c60 0 99 -104 144 -104c33 0 45 45 52 104h46c-4 -85 -38 -162 -104 -162zM162 613v-613h-59v700h68l410 -600v600h59v-700h-54z" />
    <glyph glyph-name="Nacute" unicode="&#x143;" horiz-adv-x="743" 
d="M341 776l136 151h99l-180 -151h-55zM162 613v-613h-59v700h68l410 -600v600h59v-700h-54z" />
    <glyph glyph-name="uni0145" unicode="&#x145;" horiz-adv-x="743" 
d="M162 613v-613h-59v700h68l410 -600v600h59v-700h-54zM405 -50c0 -72 -51 -150 -99 -178h-44c36 32 78 105 78 178h65z" />
    <glyph glyph-name="Ncaron" unicode="&#x147;" horiz-adv-x="743" 
d="M344 776l-129 151h45l111 -93l111 93h45l-128 -151h-55zM162 613v-613h-59v700h68l410 -600v600h59v-700h-54z" />
    <glyph glyph-name="O" unicode="O" horiz-adv-x="752" 
d="M44 350c0 214 149 361 332 361s332 -147 332 -361s-149 -361 -332 -361s-332 147 -332 361zM645 350c0 183 -113 305 -269 305s-269 -122 -269 -305s113 -305 269 -305s269 122 269 305z" />
    <glyph glyph-name="Ograve" unicode="&#xd2;" horiz-adv-x="752" 
d="M355 776l-179 151h98l137 -151h-56zM44 350c0 214 149 361 332 361s332 -147 332 -361s-149 -361 -332 -361s-332 147 -332 361zM645 350c0 183 -113 305 -269 305s-269 -122 -269 -305s113 -305 269 -305s269 122 269 305z" />
    <glyph glyph-name="Oacute" unicode="&#xd3;" horiz-adv-x="752" 
d="M345 776l136 151h99l-180 -151h-55zM44 350c0 214 149 361 332 361s332 -147 332 -361s-149 -361 -332 -361s-332 147 -332 361zM645 350c0 183 -113 305 -269 305s-269 -122 -269 -305s113 -305 269 -305s269 122 269 305z" />
    <glyph glyph-name="Ocircumflex" unicode="&#xd4;" horiz-adv-x="752" 
d="M404 927l128 -151h-45l-111 94l-111 -94h-45l129 151h55zM44 350c0 214 149 361 332 361s332 -147 332 -361s-149 -361 -332 -361s-332 147 -332 361zM645 350c0 183 -113 305 -269 305s-269 -122 -269 -305s113 -305 269 -305s269 122 269 305z" />
    <glyph glyph-name="Otilde" unicode="&#xd5;" horiz-adv-x="752" 
d="M445 776c-60 0 -99 105 -145 105c-33 0 -44 -46 -52 -105h-45c3 86 38 162 104 162c60 0 99 -104 144 -104c33 0 45 45 52 104h46c-4 -85 -38 -162 -104 -162zM44 350c0 214 149 361 332 361s332 -147 332 -361s-149 -361 -332 -361s-332 147 -332 361zM645 350
c0 183 -113 305 -269 305s-269 -122 -269 -305s113 -305 269 -305s269 122 269 305z" />
    <glyph glyph-name="Odieresis" unicode="&#xd6;" horiz-adv-x="752" 
d="M244 855c0 24 20 45 46 45c24 0 45 -21 45 -45c0 -26 -21 -46 -45 -46c-26 0 -46 20 -46 46zM417 855c0 24 20 45 46 45c24 0 45 -21 45 -45c0 -26 -21 -46 -45 -46c-26 0 -46 20 -46 46zM44 350c0 214 149 361 332 361s332 -147 332 -361s-149 -361 -332 -361
s-332 147 -332 361zM645 350c0 183 -113 305 -269 305s-269 -122 -269 -305s113 -305 269 -305s269 122 269 305z" />
    <glyph glyph-name="Omacron" unicode="&#x14c;" horiz-adv-x="752" 
d="M225 802v50h303v-50h-303zM44 350c0 214 149 361 332 361s332 -147 332 -361s-149 -361 -332 -361s-332 147 -332 361zM645 350c0 183 -113 305 -269 305s-269 -122 -269 -305s113 -305 269 -305s269 122 269 305z" />
    <glyph glyph-name="Obreve" unicode="&#x14e;" horiz-adv-x="752" 
d="M376 776c-89 0 -151 58 -151 151h47c4 -62 46 -99 104 -99c59 0 101 37 104 99h48c0 -93 -62 -151 -152 -151zM44 350c0 214 149 361 332 361s332 -147 332 -361s-149 -361 -332 -361s-332 147 -332 361zM645 350c0 183 -113 305 -269 305s-269 -122 -269 -305
s113 -305 269 -305s269 122 269 305z" />
    <glyph glyph-name="Ohungarumlaut" unicode="&#x150;" horiz-adv-x="752" 
d="M372 927h88l-159 -151h-46zM545 927h88l-159 -151h-46zM44 350c0 214 149 361 332 361s332 -147 332 -361s-149 -361 -332 -361s-332 147 -332 361zM645 350c0 183 -113 305 -269 305s-269 -122 -269 -305s113 -305 269 -305s269 122 269 305z" />
    <glyph glyph-name="P" unicode="P" horiz-adv-x="607" 
d="M164 293v-293h-61v700h224c137 0 240 -75 240 -204c0 -128 -103 -203 -240 -203h-163zM503 496c0 95 -75 150 -177 150h-162v-299h162c102 0 177 55 177 149z" />
    <glyph glyph-name="Q" unicode="Q" horiz-adv-x="752" 
d="M600 -210c-112 0 -214 56 -250 200c-171 13 -306 156 -306 360c0 214 149 361 332 361s332 -147 332 -361c0 -200 -131 -342 -298 -359c31 -107 103 -149 197 -149c24 0 41 3 62 10v-49c-20 -9 -41 -13 -69 -13zM645 350c0 183 -113 305 -269 305s-269 -122 -269 -305
s113 -305 269 -305s269 122 269 305z" />
    <glyph glyph-name="R" unicode="R" horiz-adv-x="655" 
d="M558 0c-84 86 -172 213 -226 301h-168v-301h-61v700h186c161 0 252 -66 252 -195c0 -97 -67 -164 -147 -191c56 -95 156 -225 243 -314h-79zM164 353h186c66 14 126 62 126 152s-63 141 -186 141h-126v-293z" />
    <glyph glyph-name="Racute" unicode="&#x154;" horiz-adv-x="655" 
d="M270 776l136 151h99l-180 -151h-55zM558 0c-84 86 -172 213 -226 301h-168v-301h-61v700h186c161 0 252 -66 252 -195c0 -97 -67 -164 -147 -191c56 -95 156 -225 243 -314h-79zM164 353h186c66 14 126 62 126 152s-63 141 -186 141h-126v-293z" />
    <glyph glyph-name="uni0156" unicode="&#x156;" horiz-adv-x="655" 
d="M558 0c-84 86 -172 213 -226 301h-168v-301h-61v700h186c161 0 252 -66 252 -195c0 -97 -67 -164 -147 -191c56 -95 156 -225 243 -314h-79zM164 353h186c66 14 126 62 126 152s-63 141 -186 141h-126v-293zM334 -50c0 -72 -51 -150 -99 -178h-44c36 32 78 105 78 178h65
z" />
    <glyph glyph-name="Rcaron" unicode="&#x158;" horiz-adv-x="655" 
d="M273 776l-129 151h45l111 -93l111 93h45l-128 -151h-55zM558 0c-84 86 -172 213 -226 301h-168v-301h-61v700h186c161 0 252 -66 252 -195c0 -97 -67 -164 -147 -191c56 -95 156 -225 243 -314h-79zM164 353h186c66 14 126 62 126 152s-63 141 -186 141h-126v-293z" />
    <glyph glyph-name="S" unicode="S" horiz-adv-x="535" 
d="M27 118c77 -57 154 -74 217 -74c110 0 182 53 182 135c0 177 -361 129 -361 347c0 113 105 185 221 185c56 0 113 -9 170 -39v-64c-61 37 -108 49 -170 49c-90 0 -160 -46 -160 -128c0 -171 362 -126 362 -347c0 -112 -106 -193 -243 -193c-77 0 -169 25 -218 62v67z" />
    <glyph glyph-name="Sacute" unicode="&#x15a;" horiz-adv-x="535" 
d="M268 776l136 151h99l-180 -151h-55zM27 118c77 -57 154 -74 217 -74c110 0 182 53 182 135c0 177 -361 129 -361 347c0 113 105 185 221 185c56 0 113 -9 170 -39v-64c-61 37 -108 49 -170 49c-90 0 -160 -46 -160 -128c0 -171 362 -126 362 -347
c0 -112 -106 -193 -243 -193c-77 0 -169 25 -218 62v67z" />
    <glyph glyph-name="Scircumflex" unicode="&#x15c;" horiz-adv-x="535" 
d="M317 927l128 -151h-45l-111 94l-111 -94h-45l129 151h55zM27 118c77 -57 154 -74 217 -74c110 0 182 53 182 135c0 177 -361 129 -361 347c0 113 105 185 221 185c56 0 113 -9 170 -39v-64c-61 37 -108 49 -170 49c-90 0 -160 -46 -160 -128c0 -171 362 -126 362 -347
c0 -112 -106 -193 -243 -193c-77 0 -169 25 -218 62v67z" />
    <glyph glyph-name="uni015E" unicode="&#x15e;" horiz-adv-x="535" 
d="M225 -239c-42 0 -76 9 -100 24v50c40 -27 74 -30 100 -30c40 0 70 17 70 47c0 39 -39 52 -103 52l25 86c-70 5 -147 28 -190 61v67c77 -57 154 -74 217 -74c110 0 182 53 182 135c0 177 -361 129 -361 347c0 113 105 185 221 185c56 0 113 -9 170 -39v-64
c-61 37 -108 49 -170 49c-90 0 -160 -46 -160 -128c0 -171 362 -126 362 -347c0 -109 -100 -188 -231 -193l-14 -45c60 -9 103 -39 103 -89c0 -60 -62 -94 -121 -94z" />
    <glyph glyph-name="Scaron" unicode="&#x160;" horiz-adv-x="535" 
d="M262 776l-129 151h45l111 -93l111 93h45l-128 -151h-55zM27 118c77 -57 154 -74 217 -74c110 0 182 53 182 135c0 177 -361 129 -361 347c0 113 105 185 221 185c56 0 113 -9 170 -39v-64c-61 37 -108 49 -170 49c-90 0 -160 -46 -160 -128c0 -171 362 -126 362 -347
c0 -112 -106 -193 -243 -193c-77 0 -169 25 -218 62v67z" />
    <glyph glyph-name="uni0218" unicode="&#x218;" horiz-adv-x="535" 
d="M27 118c77 -57 154 -74 217 -74c110 0 182 53 182 135c0 177 -361 129 -361 347c0 113 105 185 221 185c56 0 113 -9 170 -39v-64c-61 37 -108 49 -170 49c-90 0 -160 -46 -160 -128c0 -171 362 -126 362 -347c0 -112 -106 -193 -243 -193c-77 0 -169 25 -218 62v67z
M287 -50c0 -72 -51 -150 -99 -178h-44c36 32 78 105 78 178h65z" />
    <glyph glyph-name="T" unicode="T" horiz-adv-x="657" 
d="M28 700h601v-54h-269v-646h-61v646h-271v54z" />
    <glyph glyph-name="uni0162" unicode="&#x162;" horiz-adv-x="657" 
d="M318 -239c-42 0 -76 9 -100 24v50c40 -27 74 -30 100 -30c40 0 70 17 70 47c0 39 -39 52 -103 52l28 96h-14v646h-271v54h601v-54h-269v-646h-7l-17 -56c60 -9 103 -39 103 -89c0 -60 -62 -94 -121 -94z" />
    <glyph glyph-name="Tcaron" unicode="&#x164;" horiz-adv-x="657" 
d="M301 776l-129 151h45l111 -93l111 93h45l-128 -151h-55zM28 700h601v-54h-269v-646h-61v646h-271v54z" />
    <glyph glyph-name="uni021A" unicode="&#x21a;" horiz-adv-x="657" 
d="M28 700h601v-54h-269v-646h-61v646h-271v54zM363 -50c0 -72 -51 -150 -99 -178h-44c36 32 78 105 78 178h65z" />
    <glyph glyph-name="U" unicode="U" horiz-adv-x="708" 
d="M354 -11c-163 0 -279 100 -279 299v412h61v-405c0 -170 83 -250 218 -250s218 80 218 250v405h61v-412c0 -199 -116 -299 -279 -299z" />
    <glyph glyph-name="Ugrave" unicode="&#xd9;" horiz-adv-x="708" 
d="M333 776l-179 151h98l137 -151h-56zM354 -11c-163 0 -279 100 -279 299v412h61v-405c0 -170 83 -250 218 -250s218 80 218 250v405h61v-412c0 -199 -116 -299 -279 -299z" />
    <glyph glyph-name="Uacute" unicode="&#xda;" horiz-adv-x="708" 
d="M323 776l136 151h99l-180 -151h-55zM354 -11c-163 0 -279 100 -279 299v412h61v-405c0 -170 83 -250 218 -250s218 80 218 250v405h61v-412c0 -199 -116 -299 -279 -299z" />
    <glyph glyph-name="Ucircumflex" unicode="&#xdb;" horiz-adv-x="708" 
d="M382 927l128 -151h-45l-111 94l-111 -94h-45l129 151h55zM354 -11c-163 0 -279 100 -279 299v412h61v-405c0 -170 83 -250 218 -250s218 80 218 250v405h61v-412c0 -199 -116 -299 -279 -299z" />
    <glyph glyph-name="Udieresis" unicode="&#xdc;" horiz-adv-x="708" 
d="M222 855c0 24 20 45 46 45c24 0 45 -21 45 -45c0 -26 -21 -46 -45 -46c-26 0 -46 20 -46 46zM395 855c0 24 20 45 46 45c24 0 45 -21 45 -45c0 -26 -21 -46 -45 -46c-26 0 -46 20 -46 46zM354 -11c-163 0 -279 100 -279 299v412h61v-405c0 -170 83 -250 218 -250
s218 80 218 250v405h61v-412c0 -199 -116 -299 -279 -299z" />
    <glyph glyph-name="Utilde" unicode="&#x168;" horiz-adv-x="708" 
d="M423 776c-60 0 -99 105 -145 105c-33 0 -44 -46 -52 -105h-45c3 86 38 162 104 162c60 0 99 -104 144 -104c33 0 45 45 52 104h46c-4 -85 -38 -162 -104 -162zM354 -11c-163 0 -279 100 -279 299v412h61v-405c0 -170 83 -250 218 -250s218 80 218 250v405h61v-412
c0 -199 -116 -299 -279 -299z" />
    <glyph glyph-name="Umacron" unicode="&#x16a;" horiz-adv-x="708" 
d="M203 802v50h303v-50h-303zM354 -11c-163 0 -279 100 -279 299v412h61v-405c0 -170 83 -250 218 -250s218 80 218 250v405h61v-412c0 -199 -116 -299 -279 -299z" />
    <glyph glyph-name="Ubreve" unicode="&#x16c;" horiz-adv-x="708" 
d="M354 776c-89 0 -151 58 -151 151h47c4 -62 46 -99 104 -99c59 0 101 37 104 99h48c0 -93 -62 -151 -152 -151zM354 -11c-163 0 -279 100 -279 299v412h61v-405c0 -170 83 -250 218 -250s218 80 218 250v405h61v-412c0 -199 -116 -299 -279 -299z" />
    <glyph glyph-name="Uring" unicode="&#x16e;" horiz-adv-x="708" 
d="M354 738c-61 0 -113 51 -113 115c0 62 52 113 113 113s113 -51 113 -113c0 -64 -52 -115 -113 -115zM354 783c38 0 68 32 68 70c0 36 -30 69 -68 69c-37 0 -67 -33 -67 -69c0 -38 30 -70 67 -70zM354 -11c-163 0 -279 100 -279 299v412h61v-405c0 -170 83 -250 218 -250
s218 80 218 250v405h61v-412c0 -199 -116 -299 -279 -299z" />
    <glyph glyph-name="Uhungarumlaut" unicode="&#x170;" horiz-adv-x="708" 
d="M350 927h88l-159 -151h-46zM523 927h88l-159 -151h-46zM354 -11c-163 0 -279 100 -279 299v412h61v-405c0 -170 83 -250 218 -250s218 80 218 250v405h61v-412c0 -199 -116 -299 -279 -299z" />
    <glyph glyph-name="Uogonek" unicode="&#x172;" horiz-adv-x="708" 
d="M444 -239c-44 0 -93 27 -93 91c0 56 26 98 72 143c-22 -4 -45 -6 -69 -6c-163 0 -279 100 -279 299v412h61v-405c0 -170 83 -250 218 -250s218 80 218 250v405h61v-412c0 -99 -24 -182 -102 -245c-88 -70 -129 -127 -129 -182c0 -34 22 -54 47 -54c15 0 22 2 35 7v-46
c-11 -4 -22 -7 -40 -7z" />
    <glyph glyph-name="V" unicode="V" horiz-adv-x="683" 
d="M314 0l-290 700h64l255 -623l255 623h61l-289 -700h-56z" />
    <glyph glyph-name="W" unicode="W" horiz-adv-x="929" 
d="M496 700l173 -609l180 609h56l-209 -700h-54l-177 614l-176 -614h-55l-210 700h62l180 -609l173 609h57z" />
    <glyph glyph-name="Wcircumflex" unicode="&#x174;" horiz-adv-x="929" 
d="M492 927l128 -151h-45l-111 94l-111 -94h-45l129 151h55zM496 700l173 -609l180 609h56l-209 -700h-54l-177 614l-176 -614h-55l-210 700h62l180 -609l173 609h57z" />
    <glyph glyph-name="Wgrave" unicode="&#x1e80;" horiz-adv-x="929" 
d="M443 776l-179 151h98l137 -151h-56zM496 700l173 -609l180 609h56l-209 -700h-54l-177 614l-176 -614h-55l-210 700h62l180 -609l173 609h57z" />
    <glyph glyph-name="Wacute" unicode="&#x1e82;" horiz-adv-x="929" 
d="M434 776l136 151h99l-180 -151h-55zM496 700l173 -609l180 609h56l-209 -700h-54l-177 614l-176 -614h-55l-210 700h62l180 -609l173 609h57z" />
    <glyph glyph-name="Wdieresis" unicode="&#x1e84;" horiz-adv-x="929" 
d="M332 855c0 24 20 45 46 45c24 0 45 -21 45 -45c0 -26 -21 -46 -45 -46c-26 0 -46 20 -46 46zM505 855c0 24 20 45 46 45c24 0 45 -21 45 -45c0 -26 -21 -46 -45 -46c-26 0 -46 20 -46 46zM496 700l173 -609l180 609h56l-209 -700h-54l-177 614l-176 -614h-55l-210 700h62
l180 -609l173 609h57z" />
    <glyph glyph-name="X" unicode="X" horiz-adv-x="673" 
d="M336 318l-241 -318h-71l277 362l-258 338h73l222 -292l223 292h70l-259 -337l277 -363h-72z" />
    <glyph glyph-name="Y" unicode="Y" horiz-adv-x="659" 
d="M361 0h-61v313l-276 387h71l237 -336l234 336h69l-274 -387v-313z" />
    <glyph glyph-name="Yacute" unicode="&#xdd;" horiz-adv-x="659" 
d="M299 776l136 151h99l-180 -151h-55zM361 0h-61v313l-276 387h71l237 -336l234 336h69l-274 -387v-313z" />
    <glyph glyph-name="Ycircumflex" unicode="&#x176;" horiz-adv-x="659" 
d="M357 927l128 -151h-45l-111 94l-111 -94h-45l129 151h55zM361 0h-61v313l-276 387h71l237 -336l234 336h69l-274 -387v-313z" />
    <glyph glyph-name="Ydieresis" unicode="&#x178;" horiz-adv-x="659" 
d="M197 855c0 24 20 45 46 45c24 0 45 -21 45 -45c0 -26 -21 -46 -45 -46c-26 0 -46 20 -46 46zM370 855c0 24 20 45 46 45c24 0 45 -21 45 -45c0 -26 -21 -46 -45 -46c-26 0 -46 20 -46 46zM361 0h-61v313l-276 387h71l237 -336l234 336h69l-274 -387v-313z" />
    <glyph glyph-name="Ygrave" unicode="&#x1ef2;" horiz-adv-x="659" 
d="M308 776l-179 151h98l137 -151h-56zM361 0h-61v313l-276 387h71l237 -336l234 336h69l-274 -387v-313z" />
    <glyph glyph-name="Z" unicode="Z" horiz-adv-x="655" 
d="M606 0h-556v43l463 603h-451v54h530v-43l-463 -603h477v-54z" />
    <glyph glyph-name="Zacute" unicode="&#x179;" horiz-adv-x="655" 
d="M319 776l136 151h99l-180 -151h-55zM606 0h-556v43l463 603h-451v54h530v-43l-463 -603h477v-54z" />
    <glyph glyph-name="Zdotaccent" unicode="&#x17b;" horiz-adv-x="655" 
d="M304 855c0 24 20 45 45 45s46 -21 46 -45c0 -26 -21 -46 -46 -46s-45 20 -45 46zM606 0h-556v43l463 603h-451v54h530v-43l-463 -603h477v-54z" />
    <glyph glyph-name="Zcaron" unicode="&#x17d;" horiz-adv-x="655" 
d="M322 776l-129 151h45l111 -93l111 93h45l-128 -151h-55zM606 0h-556v43l463 603h-451v54h530v-43l-463 -603h477v-54z" />
    <glyph glyph-name="AE" unicode="&#xc6;" horiz-adv-x="1062" 
d="M562 262h-284l-189 -262h-65l502 700h447v-53h-350v-261h314v-53h-314v-280h363v-53h-424v262zM562 657l-246 -342h246v342z" />
    <glyph glyph-name="AEacute" unicode="&#x1fc;" horiz-adv-x="1062" 
d="M727 776l136 151h99l-180 -151h-55zM562 262h-284l-189 -262h-65l502 700h447v-53h-350v-261h314v-53h-314v-280h363v-53h-424v262zM562 657l-246 -342h246v342z" />
    <glyph glyph-name="Eth" unicode="&#xd0;" horiz-adv-x="732" 
d="M112 0v330h-82v53h82v318h201c210 0 375 -129 375 -349c0 -221 -165 -352 -375 -352h-201zM310 55c176 0 315 107 315 297c0 189 -139 295 -315 295h-137v-264h176v-53h-176v-275h137z" />
    <glyph glyph-name="Oslash" unicode="&#xd8;" horiz-adv-x="752" 
d="M376 -11c-73 0 -141 24 -196 66l-69 -91h-59l93 122c-62 63 -101 155 -101 264c0 214 149 361 332 361c73 0 140 -23 195 -65l70 92h60l-94 -123c62 -64 101 -156 101 -265c0 -214 -149 -361 -332 -361zM107 350c0 -90 27 -165 73 -218l357 469c-44 35 -99 54 -161 54
c-156 0 -269 -122 -269 -305zM376 45c156 0 269 122 269 305c0 90 -27 165 -73 218l-358 -469c44 -35 100 -54 162 -54z" />
    <glyph glyph-name="Oslashacute" unicode="&#x1fe;" horiz-adv-x="752" 
d="M345 776l136 151h99l-180 -151h-55zM376 -11c-73 0 -141 24 -196 66l-69 -91h-59l93 122c-62 63 -101 155 -101 264c0 214 149 361 332 361c73 0 140 -23 195 -65l70 92h60l-94 -123c62 -64 101 -156 101 -265c0 -214 -149 -361 -332 -361zM107 350
c0 -90 27 -165 73 -218l357 469c-44 35 -99 54 -161 54c-156 0 -269 -122 -269 -305zM376 45c156 0 269 122 269 305c0 90 -27 165 -73 218l-358 -469c44 -35 100 -54 162 -54z" />
    <glyph glyph-name="Thorn" unicode="&#xde;" horiz-adv-x="607" 
d="M103 0v700h61v-137h163c137 0 240 -76 240 -204c0 -129 -103 -204 -240 -204h-163v-155h-61zM503 359c0 95 -75 151 -177 151h-162v-302h162c102 0 177 56 177 151z" />
    <glyph glyph-name="Dcroat" unicode="&#x110;" horiz-adv-x="732" 
d="M112 0v330h-82v53h82v318h201c210 0 375 -129 375 -349c0 -221 -165 -352 -375 -352h-201zM310 55c176 0 315 107 315 297c0 189 -139 295 -315 295h-137v-264h176v-53h-176v-275h137z" />
    <glyph glyph-name="Hbar" unicode="&#x126;" horiz-adv-x="798" 
d="M173 0h-61v475h-82v53h82v172h61v-172h452v172h61v-172h82v-53h-82v-475h-61v284h-452v-284zM625 337v138h-452v-138h452z" />
    <glyph glyph-name="Ldot" unicode="&#x13f;" horiz-adv-x="559" 
d="M164 700v-646h351v-54h-412v700h61zM370 397c0 24 20 45 45 45s46 -21 46 -45c0 -26 -21 -46 -46 -46s-45 20 -45 46z" />
    <glyph glyph-name="Lslash" unicode="&#x141;" horiz-adv-x="568" 
d="M112 0v297l-82 -51v59l82 51v344h61v-314l187 113v-59l-187 -113v-273h351v-54h-412z" />
    <glyph glyph-name="Eng" unicode="&#x14a;" horiz-adv-x="743" 
d="M495 -228c57 63 82 127 86 235l-419 604v-611h-59v700h68l410 -598v598h59v-695c-3 -126 -32 -175 -78 -233h-67z" />
    <glyph glyph-name="OE" unicode="&#x152;" horiz-adv-x="1059" 
d="M419 0c-210 0 -375 129 -375 350c0 220 165 350 375 350h551v-53h-350v-261h315v-53h-315v-280h363v-53h-564zM422 647c-176 0 -315 -108 -315 -297c0 -190 139 -297 315 -297h137v594h-137z" />
    <glyph glyph-name="Tbar" unicode="&#x166;" horiz-adv-x="657" 
d="M360 330v-330h-61v330h-137v53h137v263h-271v54h601v-54h-269v-263h136v-53h-136z" />
    <glyph glyph-name="a" unicode="a" horiz-adv-x="495" 
d="M364 0l-10 55c-42 -35 -99 -66 -165 -66c-78 0 -144 47 -144 132c0 100 88 173 309 181v43c0 73 -36 120 -122 120c-53 0 -105 -17 -160 -49v56c44 31 113 49 160 49c132 0 181 -76 181 -168v-259c0 -48 3 -62 10 -94h-59zM199 39c57 0 103 21 155 57v160
c-173 -5 -249 -53 -249 -135c0 -49 34 -82 94 -82z" />
    <glyph glyph-name="agrave" unicode="&#xe0;" horiz-adv-x="495" 
d="M254 612l-116 179h82l71 -179h-37zM364 0l-10 55c-42 -35 -99 -66 -165 -66c-78 0 -144 47 -144 132c0 100 88 173 309 181v43c0 73 -36 120 -122 120c-53 0 -105 -17 -160 -49v56c44 31 113 49 160 49c132 0 181 -76 181 -168v-259c0 -48 3 -62 10 -94h-59zM199 39
c57 0 103 21 155 57v160c-173 -5 -249 -53 -249 -135c0 -49 34 -82 94 -82z" />
    <glyph glyph-name="aacute" unicode="&#xe1;" horiz-adv-x="495" 
d="M206 612l71 179h82l-117 -179h-36zM364 0l-10 55c-42 -35 -99 -66 -165 -66c-78 0 -144 47 -144 132c0 100 88 173 309 181v43c0 73 -36 120 -122 120c-53 0 -105 -17 -160 -49v56c44 31 113 49 160 49c132 0 181 -76 181 -168v-259c0 -48 3 -62 10 -94h-59zM199 39
c57 0 103 21 155 57v160c-173 -5 -249 -53 -249 -135c0 -49 34 -82 94 -82z" />
    <glyph glyph-name="acircumflex" unicode="&#xe2;" horiz-adv-x="495" 
d="M275 791l110 -179h-45l-93 121l-93 -121h-44l110 179h55zM364 0l-10 55c-42 -35 -99 -66 -165 -66c-78 0 -144 47 -144 132c0 100 88 173 309 181v43c0 73 -36 120 -122 120c-53 0 -105 -17 -160 -49v56c44 31 113 49 160 49c132 0 181 -76 181 -168v-259
c0 -48 3 -62 10 -94h-59zM199 39c57 0 103 21 155 57v160c-173 -5 -249 -53 -249 -135c0 -49 34 -82 94 -82z" />
    <glyph glyph-name="atilde" unicode="&#xe3;" horiz-adv-x="495" 
d="M308 627c-60 0 -90 105 -136 105c-33 0 -44 -46 -52 -105h-45c3 85 38 162 104 162c60 0 90 -105 135 -105c33 0 45 46 52 105h46c-4 -86 -38 -162 -104 -162zM364 0l-10 55c-42 -35 -99 -66 -165 -66c-78 0 -144 47 -144 132c0 100 88 173 309 181v43
c0 73 -36 120 -122 120c-53 0 -105 -17 -160 -49v56c44 31 113 49 160 49c132 0 181 -76 181 -168v-259c0 -48 3 -62 10 -94h-59zM199 39c57 0 103 21 155 57v160c-173 -5 -249 -53 -249 -135c0 -49 34 -82 94 -82z" />
    <glyph glyph-name="adieresis" unicode="&#xe4;" horiz-adv-x="495" 
d="M115 709c0 24 20 45 46 45c24 0 45 -21 45 -45c0 -26 -21 -46 -45 -46c-26 0 -46 20 -46 46zM288 709c0 24 20 45 46 45c24 0 45 -21 45 -45c0 -26 -21 -46 -45 -46c-26 0 -46 20 -46 46zM364 0l-10 55c-42 -35 -99 -66 -165 -66c-78 0 -144 47 -144 132
c0 100 88 173 309 181v43c0 73 -36 120 -122 120c-53 0 -105 -17 -160 -49v56c44 31 113 49 160 49c132 0 181 -76 181 -168v-259c0 -48 3 -62 10 -94h-59zM199 39c57 0 103 21 155 57v160c-173 -5 -249 -53 -249 -135c0 -49 34 -82 94 -82z" />
    <glyph glyph-name="aring" unicode="&#xe5;" horiz-adv-x="495" 
d="M351 699c0 -58 -47 -104 -104 -104c-55 0 -103 46 -103 104c0 56 48 103 103 103c57 0 104 -47 104 -103zM186 699c0 -34 28 -64 61 -64c35 0 62 29 62 64c0 33 -27 63 -62 63c-33 0 -61 -30 -61 -63zM364 0l-10 55c-42 -35 -99 -66 -165 -66c-78 0 -144 47 -144 132
c0 100 88 173 309 181v43c0 73 -36 120 -122 120c-53 0 -105 -17 -160 -49v56c44 31 113 49 160 49c132 0 181 -76 181 -168v-259c0 -48 3 -62 10 -94h-59zM199 39c57 0 103 21 155 57v160c-173 -5 -249 -53 -249 -135c0 -49 34 -82 94 -82z" />
    <glyph glyph-name="amacron" unicode="&#x101;" horiz-adv-x="495" 
d="M114 656v50h266v-50h-266zM364 0l-10 55c-42 -35 -99 -66 -165 -66c-78 0 -144 47 -144 132c0 100 88 173 309 181v43c0 73 -36 120 -122 120c-53 0 -105 -17 -160 -49v56c44 31 113 49 160 49c132 0 181 -76 181 -168v-259c0 -48 3 -62 10 -94h-59zM199 39
c57 0 103 21 155 57v160c-173 -5 -249 -53 -249 -135c0 -49 34 -82 94 -82z" />
    <glyph glyph-name="abreve" unicode="&#x103;" horiz-adv-x="495" 
d="M247 612c-89 0 -137 76 -137 179h47c4 -74 32 -130 90 -130c59 0 87 56 90 130h48c0 -103 -48 -179 -138 -179zM364 0l-10 55c-42 -35 -99 -66 -165 -66c-78 0 -144 47 -144 132c0 100 88 173 309 181v43c0 73 -36 120 -122 120c-53 0 -105 -17 -160 -49v56
c44 31 113 49 160 49c132 0 181 -76 181 -168v-259c0 -48 3 -62 10 -94h-59zM199 39c57 0 103 21 155 57v160c-173 -5 -249 -53 -249 -135c0 -49 34 -82 94 -82z" />
    <glyph glyph-name="aogonek" unicode="&#x105;" horiz-adv-x="495" 
d="M422 -232c-12 -4 -23 -7 -40 -7c-45 0 -94 27 -94 91c0 58 28 101 76 148l-10 55c-42 -35 -99 -66 -165 -66c-78 0 -144 47 -144 132c0 100 88 173 309 181v43c0 73 -36 120 -122 120c-53 0 -105 -17 -160 -49v56c44 31 113 49 160 49c132 0 181 -76 181 -168v-259
c0 -48 3 -62 10 -94c-56 -50 -84 -90 -84 -139c0 -34 23 -54 47 -54c15 0 22 2 36 7v-46zM199 39c57 0 103 21 155 57v160c-173 -5 -249 -53 -249 -135c0 -49 34 -82 94 -82z" />
    <glyph glyph-name="b" unicode="b" horiz-adv-x="576" 
d="M90 791l59 12v-346c31 29 95 64 163 64c130 0 223 -89 223 -253c0 -169 -115 -279 -267 -279c-61 0 -127 12 -178 39v763zM149 64c35 -15 73 -22 119 -22c128 0 207 92 207 226c0 130 -68 201 -166 201c-64 0 -124 -27 -160 -58v-347z" />
    <glyph glyph-name="c" unicode="c" horiz-adv-x="466" 
d="M43 252c0 154 108 269 255 269c32 0 78 -8 112 -25v-56c-37 21 -79 27 -112 27c-110 0 -196 -83 -196 -215c0 -126 86 -209 196 -209c33 0 80 9 116 28v-56c-32 -17 -84 -26 -116 -26c-147 0 -255 114 -255 263z" />
    <glyph glyph-name="ccedilla" unicode="&#xe7;" horiz-adv-x="466" 
d="M250 -239c-42 0 -76 9 -100 24v50c40 -27 74 -30 100 -30c40 0 70 17 70 47c0 39 -39 52 -103 52l26 90c-118 25 -200 128 -200 258c0 154 108 269 255 269c32 0 78 -8 112 -25v-56c-37 21 -79 27 -112 27c-110 0 -196 -83 -196 -215c0 -126 86 -209 196 -209
c33 0 80 9 116 28v-56c-32 -17 -84 -26 -116 -26h-16l-14 -45c60 -9 103 -39 103 -89c0 -60 -62 -94 -121 -94z" />
    <glyph glyph-name="cacute" unicode="&#x107;" horiz-adv-x="466" 
d="M264 612l71 179h82l-117 -179h-36zM43 252c0 154 108 269 255 269c32 0 78 -8 112 -25v-56c-37 21 -79 27 -112 27c-110 0 -196 -83 -196 -215c0 -126 86 -209 196 -209c33 0 80 9 116 28v-56c-32 -17 -84 -26 -116 -26c-147 0 -255 114 -255 263z" />
    <glyph glyph-name="ccircumflex" unicode="&#x109;" horiz-adv-x="466" 
d="M316 791l110 -179h-45l-93 121l-93 -121h-44l110 179h55zM43 252c0 154 108 269 255 269c32 0 78 -8 112 -25v-56c-37 21 -79 27 -112 27c-110 0 -196 -83 -196 -215c0 -126 86 -209 196 -209c33 0 80 9 116 28v-56c-32 -17 -84 -26 -116 -26c-147 0 -255 114 -255 263z
" />
    <glyph glyph-name="cdotaccent" unicode="&#x10b;" horiz-adv-x="466" 
d="M242 709c0 24 20 45 45 45s46 -21 46 -45c0 -26 -21 -46 -46 -46s-45 20 -45 46zM43 252c0 154 108 269 255 269c32 0 78 -8 112 -25v-56c-37 21 -79 27 -112 27c-110 0 -196 -83 -196 -215c0 -126 86 -209 196 -209c33 0 80 9 116 28v-56c-32 -17 -84 -26 -116 -26
c-147 0 -255 114 -255 263z" />
    <glyph glyph-name="ccaron" unicode="&#x10d;" horiz-adv-x="466" 
d="M261 612l-110 179h44l93 -121l93 121h45l-110 -179h-55zM43 252c0 154 108 269 255 269c32 0 78 -8 112 -25v-56c-37 21 -79 27 -112 27c-110 0 -196 -83 -196 -215c0 -126 86 -209 196 -209c33 0 80 9 116 28v-56c-32 -17 -84 -26 -116 -26c-147 0 -255 114 -255 263z
" />
    <glyph glyph-name="d" unicode="d" horiz-adv-x="576" 
d="M427 56c-31 -28 -86 -67 -158 -67c-130 0 -226 90 -226 254c0 169 110 278 259 278c47 0 97 -13 125 -32v302l59 12v-795l-59 -11v59zM427 435c-32 28 -86 37 -125 37c-125 0 -200 -95 -200 -229c0 -130 70 -201 168 -201c70 0 122 33 157 64v329z" />
    <glyph glyph-name="dcaron" unicode="&#x10f;" horiz-adv-x="646" 
d="M427 56c-31 -28 -86 -67 -158 -67c-130 0 -226 90 -226 254c0 169 110 278 259 278c47 0 97 -13 125 -32v302l59 12v-795l-59 -11v59zM587 791h70l-53 -252h-42zM427 435c-32 28 -86 37 -125 37c-125 0 -200 -95 -200 -229c0 -130 70 -201 168 -201c70 0 122 33 157 64
v329z" />
    <glyph glyph-name="e" unicode="e" horiz-adv-x="516" 
d="M457 22c-47 -23 -99 -33 -153 -33c-155 0 -261 118 -261 268c0 147 93 264 229 264c142 0 201 -102 201 -229c0 -11 0 -21 -1 -33h-372v-2c0 -128 88 -214 204 -214c53 0 92 3 153 37v-58zM272 469c-87 0 -153 -61 -169 -164h310v6c0 85 -41 158 -141 158z" />
    <glyph glyph-name="egrave" unicode="&#xe8;" horiz-adv-x="516" 
d="M284 612l-116 179h82l71 -179h-37zM457 22c-47 -23 -99 -33 -153 -33c-155 0 -261 118 -261 268c0 147 93 264 229 264c142 0 201 -102 201 -229c0 -11 0 -21 -1 -33h-372v-2c0 -128 88 -214 204 -214c53 0 92 3 153 37v-58zM272 469c-87 0 -153 -61 -169 -164h310v6
c0 85 -41 158 -141 158z" />
    <glyph glyph-name="eacute" unicode="&#xe9;" horiz-adv-x="516" 
d="M236 612l71 179h82l-117 -179h-36zM457 22c-47 -23 -99 -33 -153 -33c-155 0 -261 118 -261 268c0 147 93 264 229 264c142 0 201 -102 201 -229c0 -11 0 -21 -1 -33h-372v-2c0 -128 88 -214 204 -214c53 0 92 3 153 37v-58zM272 469c-87 0 -153 -61 -169 -164h310v6
c0 85 -41 158 -141 158z" />
    <glyph glyph-name="ecircumflex" unicode="&#xea;" horiz-adv-x="516" 
d="M305 791l110 -179h-45l-93 121l-93 -121h-44l110 179h55zM457 22c-47 -23 -99 -33 -153 -33c-155 0 -261 118 -261 268c0 147 93 264 229 264c142 0 201 -102 201 -229c0 -11 0 -21 -1 -33h-372v-2c0 -128 88 -214 204 -214c53 0 92 3 153 37v-58zM272 469
c-87 0 -153 -61 -169 -164h310v6c0 85 -41 158 -141 158z" />
    <glyph glyph-name="edieresis" unicode="&#xeb;" horiz-adv-x="516" 
d="M145 709c0 24 20 45 46 45c24 0 45 -21 45 -45c0 -26 -21 -46 -45 -46c-26 0 -46 20 -46 46zM318 709c0 24 20 45 46 45c24 0 45 -21 45 -45c0 -26 -21 -46 -45 -46c-26 0 -46 20 -46 46zM457 22c-47 -23 -99 -33 -153 -33c-155 0 -261 118 -261 268
c0 147 93 264 229 264c142 0 201 -102 201 -229c0 -11 0 -21 -1 -33h-372v-2c0 -128 88 -214 204 -214c53 0 92 3 153 37v-58zM272 469c-87 0 -153 -61 -169 -164h310v6c0 85 -41 158 -141 158z" />
    <glyph glyph-name="emacron" unicode="&#x113;" horiz-adv-x="516" 
d="M144 656v50h266v-50h-266zM457 22c-47 -23 -99 -33 -153 -33c-155 0 -261 118 -261 268c0 147 93 264 229 264c142 0 201 -102 201 -229c0 -11 0 -21 -1 -33h-372v-2c0 -128 88 -214 204 -214c53 0 92 3 153 37v-58zM272 469c-87 0 -153 -61 -169 -164h310v6
c0 85 -41 158 -141 158z" />
    <glyph glyph-name="ebreve" unicode="&#x115;" horiz-adv-x="516" 
d="M277 612c-89 0 -137 76 -137 179h47c4 -74 32 -130 90 -130c59 0 87 56 90 130h48c0 -103 -48 -179 -138 -179zM457 22c-47 -23 -99 -33 -153 -33c-155 0 -261 118 -261 268c0 147 93 264 229 264c142 0 201 -102 201 -229c0 -11 0 -21 -1 -33h-372v-2
c0 -128 88 -214 204 -214c53 0 92 3 153 37v-58zM272 469c-87 0 -153 -61 -169 -164h310v6c0 85 -41 158 -141 158z" />
    <glyph glyph-name="edotaccent" unicode="&#x117;" horiz-adv-x="516" 
d="M232 709c0 24 20 45 45 45s46 -21 46 -45c0 -26 -21 -46 -46 -46s-45 20 -45 46zM457 22c-47 -23 -99 -33 -153 -33c-155 0 -261 118 -261 268c0 147 93 264 229 264c142 0 201 -102 201 -229c0 -11 0 -21 -1 -33h-372v-2c0 -128 88 -214 204 -214c53 0 92 3 153 37v-58z
M272 469c-87 0 -153 -61 -169 -164h310v6c0 85 -41 158 -141 158z" />
    <glyph glyph-name="eogonek" unicode="&#x119;" horiz-adv-x="516" 
d="M423 -232c-11 -4 -22 -7 -40 -7c-44 0 -93 27 -93 91c0 54 25 96 69 141c-18 -3 -37 -4 -55 -4c-155 0 -261 118 -261 268c0 147 93 264 229 264c142 0 201 -102 201 -229c0 -11 0 -21 -1 -33h-372v-2c0 -128 88 -214 204 -214c53 0 92 3 153 37v-58
c-81 -51 -116 -112 -116 -161c0 -34 22 -54 47 -54c15 0 22 2 35 7v-46zM272 469c-87 0 -153 -61 -169 -164h310v6c0 85 -41 158 -141 158z" />
    <glyph glyph-name="ecaron" unicode="&#x11b;" horiz-adv-x="516" 
d="M250 612l-110 179h44l93 -121l93 121h45l-110 -179h-55zM457 22c-47 -23 -99 -33 -153 -33c-155 0 -261 118 -261 268c0 147 93 264 229 264c142 0 201 -102 201 -229c0 -11 0 -21 -1 -33h-372v-2c0 -128 88 -214 204 -214c53 0 92 3 153 37v-58zM272 469
c-87 0 -153 -61 -169 -164h310v6c0 85 -41 158 -141 158z" />
    <glyph glyph-name="f" unicode="f" horiz-adv-x="319" 
d="M158 0h-59v461h-77v49h77v52c0 158 89 240 215 240c25 0 44 -2 72 -10v-50c-29 8 -47 9 -72 9c-102 0 -156 -64 -156 -189v-52h176l-12 -49h-164v-461z" />
    <glyph glyph-name="g" unicode="g" horiz-adv-x="515" 
d="M493 -66c0 -114 -132 -173 -257 -173c-131 0 -230 59 -230 146c0 74 68 120 138 137c-19 16 -30 39 -30 58c0 32 23 60 59 82c-73 24 -126 83 -126 163c0 104 89 174 194 174c24 0 47 -4 68 -11h198l-11 -48h-109c30 -31 48 -71 48 -115c0 -103 -87 -173 -194 -173
c-8 0 -16 0 -24 1c-35 -18 -54 -37 -54 -58c0 -29 28 -39 57 -42l101 -13c93 -12 172 -38 172 -128zM376 347c0 84 -63 127 -135 127c-71 0 -135 -43 -135 -127c0 -82 64 -127 135 -127c72 0 135 45 135 127zM236 -191c99 0 201 39 201 119c0 60 -61 72 -120 80l-121 17
c-71 -13 -131 -53 -131 -112c0 -71 78 -104 171 -104z" />
    <glyph glyph-name="gcircumflex" unicode="&#x11d;" horiz-adv-x="515" 
d="M285 791l110 -179h-45l-93 121l-93 -121h-44l110 179h55zM493 -66c0 -114 -132 -173 -257 -173c-131 0 -230 59 -230 146c0 74 68 120 138 137c-19 16 -30 39 -30 58c0 32 23 60 59 82c-73 24 -126 83 -126 163c0 104 89 174 194 174c24 0 47 -4 68 -11h198l-11 -48h-109
c30 -31 48 -71 48 -115c0 -103 -87 -173 -194 -173c-8 0 -16 0 -24 1c-35 -18 -54 -37 -54 -58c0 -29 28 -39 57 -42l101 -13c93 -12 172 -38 172 -128zM376 347c0 84 -63 127 -135 127c-71 0 -135 -43 -135 -127c0 -82 64 -127 135 -127c72 0 135 45 135 127zM236 -191
c99 0 201 39 201 119c0 60 -61 72 -120 80l-121 17c-71 -13 -131 -53 -131 -112c0 -71 78 -104 171 -104z" />
    <glyph glyph-name="gbreve" unicode="&#x11f;" horiz-adv-x="515" 
d="M256 612c-89 0 -137 76 -137 179h47c4 -74 32 -130 90 -130c59 0 87 56 90 130h48c0 -103 -48 -179 -138 -179zM493 -66c0 -114 -132 -173 -257 -173c-131 0 -230 59 -230 146c0 74 68 120 138 137c-19 16 -30 39 -30 58c0 32 23 60 59 82c-73 24 -126 83 -126 163
c0 104 89 174 194 174c24 0 47 -4 68 -11h198l-11 -48h-109c30 -31 48 -71 48 -115c0 -103 -87 -173 -194 -173c-8 0 -16 0 -24 1c-35 -18 -54 -37 -54 -58c0 -29 28 -39 57 -42l101 -13c93 -12 172 -38 172 -128zM376 347c0 84 -63 127 -135 127c-71 0 -135 -43 -135 -127
c0 -82 64 -127 135 -127c72 0 135 45 135 127zM236 -191c99 0 201 39 201 119c0 60 -61 72 -120 80l-121 17c-71 -13 -131 -53 -131 -112c0 -71 78 -104 171 -104z" />
    <glyph glyph-name="gdotaccent" unicode="&#x121;" horiz-adv-x="515" 
d="M211 709c0 24 20 45 45 45s46 -21 46 -45c0 -26 -21 -46 -46 -46s-45 20 -45 46zM493 -66c0 -114 -132 -173 -257 -173c-131 0 -230 59 -230 146c0 74 68 120 138 137c-19 16 -30 39 -30 58c0 32 23 60 59 82c-73 24 -126 83 -126 163c0 104 89 174 194 174
c24 0 47 -4 68 -11h198l-11 -48h-109c30 -31 48 -71 48 -115c0 -103 -87 -173 -194 -173c-8 0 -16 0 -24 1c-35 -18 -54 -37 -54 -58c0 -29 28 -39 57 -42l101 -13c93 -12 172 -38 172 -128zM376 347c0 84 -63 127 -135 127c-71 0 -135 -43 -135 -127
c0 -82 64 -127 135 -127c72 0 135 45 135 127zM236 -191c99 0 201 39 201 119c0 60 -61 72 -120 80l-121 17c-71 -13 -131 -53 -131 -112c0 -71 78 -104 171 -104z" />
    <glyph glyph-name="uni0123" unicode="&#x123;" horiz-adv-x="515" 
d="M223 613c0 72 51 150 98 178h45c-37 -32 -79 -105 -79 -178h-64zM493 -66c0 -114 -132 -173 -257 -173c-131 0 -230 59 -230 146c0 74 68 120 138 137c-19 16 -30 39 -30 58c0 32 23 60 59 82c-73 24 -126 83 -126 163c0 104 89 174 194 174c24 0 47 -4 68 -11h198
l-11 -48h-109c30 -31 48 -71 48 -115c0 -103 -87 -173 -194 -173c-8 0 -16 0 -24 1c-35 -18 -54 -37 -54 -58c0 -29 28 -39 57 -42l101 -13c93 -12 172 -38 172 -128zM376 347c0 84 -63 127 -135 127c-71 0 -135 -43 -135 -127c0 -82 64 -127 135 -127c72 0 135 45 135 127z
M236 -191c99 0 201 39 201 119c0 60 -61 72 -120 80l-121 17c-71 -13 -131 -53 -131 -112c0 -71 78 -104 171 -104z" />
    <glyph glyph-name="h" unicode="h" horiz-adv-x="585" 
d="M149 802v-346c35 28 105 65 182 65c117 0 170 -66 170 -168v-353h-59v337c0 81 -28 131 -121 131c-71 0 -123 -23 -172 -57v-411h-59v791z" />
    <glyph glyph-name="hcircumflex" unicode="&#x125;" horiz-adv-x="585" 
d="M350 982l128 -151h-45l-111 94l-111 -94h-45l129 151h55zM149 802v-346c35 28 105 65 182 65c117 0 170 -66 170 -168v-353h-59v337c0 81 -28 131 -121 131c-71 0 -123 -23 -172 -57v-411h-59v791z" />
    <glyph glyph-name="i" unicode="i" 
d="M75 709c0 24 20 45 45 45s46 -21 46 -45c0 -26 -21 -46 -46 -46s-45 20 -45 46zM90 502l59 12v-514h-59v502z" />
    <glyph glyph-name="igrave" unicode="&#xec;" 
d="M107 612l-116 179h82l71 -179h-37zM90 502l59 12v-514h-59v502z" />
    <glyph glyph-name="iacute" unicode="&#xed;" 
d="M96 612l71 179h82l-117 -179h-36zM90 502l59 12v-514h-59v502z" />
    <glyph glyph-name="icircumflex" unicode="&#xee;" 
d="M147 791l110 -179h-45l-93 121l-93 -121h-44l110 179h55zM90 502l59 12v-514h-59v502z" />
    <glyph glyph-name="idieresis" unicode="&#xef;" 
d="M-13 709c0 24 20 45 46 45c24 0 45 -21 45 -45c0 -26 -21 -46 -45 -46c-26 0 -46 20 -46 46zM160 709c0 24 20 45 46 45c24 0 45 -21 45 -45c0 -26 -21 -46 -45 -46c-26 0 -46 20 -46 46zM90 502l59 12v-514h-59v502z" />
    <glyph glyph-name="itilde" unicode="&#x129;" 
d="M184 627c-60 0 -90 105 -136 105c-33 0 -44 -46 -52 -105h-45c3 85 38 162 104 162c60 0 90 -105 135 -105c33 0 45 46 52 105h46c-4 -86 -38 -162 -104 -162zM90 502l59 12v-514h-59v502z" />
    <glyph glyph-name="imacron" unicode="&#x12b;" 
d="M-14 656v50h266v-50h-266zM90 502l59 12v-514h-59v502z" />
    <glyph glyph-name="ibreve" unicode="&#x12d;" 
d="M119 612c-89 0 -137 76 -137 179h47c4 -74 32 -130 90 -130c59 0 87 56 90 130h48c0 -103 -48 -179 -138 -179zM90 502l59 12v-514h-59v502z" />
    <glyph glyph-name="iogonek" unicode="&#x12f;" 
d="M75 709c0 24 20 45 45 45s46 -21 46 -45c0 -26 -21 -46 -46 -46s-45 20 -45 46zM147 -232c-11 -4 -22 -7 -40 -7c-44 0 -93 27 -93 91c0 58 28 101 76 148v502l59 12v-514c-54 -44 -84 -90 -84 -139c0 -34 22 -54 47 -54c14 0 22 2 35 7v-46z" />
    <glyph glyph-name="j" unicode="j" 
d="M75 709c0 24 20 45 45 45s46 -21 46 -45c0 -26 -21 -46 -46 -46s-45 20 -45 46zM149 5c-3 -126 -32 -175 -78 -233h-67c59 65 82 125 86 233v497l59 12v-509z" />
    <glyph glyph-name="jcircumflex" unicode="&#x135;" 
d="M149 791l110 -179h-45l-93 121l-93 -121h-44l110 179h55zM149 5c-3 -126 -32 -175 -78 -233h-67c59 65 82 125 86 233v497l59 12v-509z" />
    <glyph glyph-name="k" unicode="k" horiz-adv-x="539" 
d="M149 258v-258h-59v791l59 11v-522l263 230h78l-272 -236l307 -274h-83z" />
    <glyph glyph-name="uni0137" unicode="&#x137;" horiz-adv-x="539" 
d="M149 258v-258h-59v791l59 11v-522l263 230h78l-272 -236l307 -274h-83zM306 -50c0 -72 -51 -150 -99 -178h-44c36 32 78 105 78 178h65z" />
    <glyph glyph-name="l" unicode="l" 
d="M90 791l59 11v-802h-59v791z" />
    <glyph glyph-name="lacute" unicode="&#x13a;" 
d="M88 831l136 151h99l-180 -151h-55zM90 791l59 11v-802h-59v791z" />
    <glyph glyph-name="uni013C" unicode="&#x13c;" 
d="M90 791l59 11v-802h-59v791zM153 -50c0 -72 -51 -150 -99 -178h-44c36 32 78 105 78 178h65z" />
    <glyph glyph-name="lcaron" unicode="&#x13e;" horiz-adv-x="309" 
d="M90 791l59 11v-802h-59v791zM251 791h70l-53 -252h-42z" />
    <glyph glyph-name="m" unicode="m" horiz-adv-x="903" 
d="M90 0v502l59 12v-57c32 28 100 64 172 64c71 0 118 -28 143 -75c33 29 109 75 191 75c109 0 164 -66 164 -168v-353h-59v337c0 81 -27 131 -115 131c-68 0 -120 -26 -167 -62c4 -16 6 -34 6 -53v-353h-59v337c0 81 -26 131 -115 131c-65 0 -115 -23 -161 -57v-411h-59z
" />
    <glyph glyph-name="n" unicode="n" horiz-adv-x="585" 
d="M149 514v-58c35 28 105 65 182 65c117 0 170 -66 170 -168v-353h-59v337c0 81 -28 131 -121 131c-71 0 -123 -23 -172 -57v-411h-59v502z" />
    <glyph glyph-name="ntilde" unicode="&#xf1;" horiz-adv-x="585" 
d="M367 627c-60 0 -90 105 -136 105c-33 0 -44 -46 -52 -105h-45c3 85 38 162 104 162c60 0 90 -105 135 -105c33 0 45 46 52 105h46c-4 -86 -38 -162 -104 -162zM149 514v-58c35 28 105 65 182 65c117 0 170 -66 170 -168v-353h-59v337c0 81 -28 131 -121 131
c-71 0 -123 -23 -172 -57v-411h-59v502z" />
    <glyph glyph-name="nacute" unicode="&#x144;" horiz-adv-x="585" 
d="M283 612l71 179h82l-117 -179h-36zM149 514v-58c35 28 105 65 182 65c117 0 170 -66 170 -168v-353h-59v337c0 81 -28 131 -121 131c-71 0 -123 -23 -172 -57v-411h-59v502z" />
    <glyph glyph-name="uni0146" unicode="&#x146;" horiz-adv-x="585" 
d="M149 514v-58c35 28 105 65 182 65c117 0 170 -66 170 -168v-353h-59v337c0 81 -28 131 -121 131c-71 0 -123 -23 -172 -57v-411h-59v502zM341 -50c0 -72 -51 -150 -99 -178h-44c36 32 78 105 78 178h65z" />
    <glyph glyph-name="ncaron" unicode="&#x148;" horiz-adv-x="585" 
d="M280 612l-110 179h44l93 -121l93 121h45l-110 -179h-55zM149 514v-58c35 28 105 65 182 65c117 0 170 -66 170 -168v-353h-59v337c0 81 -28 131 -121 131c-71 0 -123 -23 -172 -57v-411h-59v502z" />
    <glyph glyph-name="o" unicode="o" horiz-adv-x="554" 
d="M42 255c0 159 107 266 235 266s235 -107 235 -266s-107 -266 -235 -266s-235 107 -235 266zM453 255c0 125 -71 212 -176 212s-176 -87 -176 -212s71 -212 176 -212s176 87 176 212z" />
    <glyph glyph-name="ograve" unicode="&#xf2;" horiz-adv-x="554" 
d="M265 612l-116 179h82l71 -179h-37zM42 255c0 159 107 266 235 266s235 -107 235 -266s-107 -266 -235 -266s-235 107 -235 266zM453 255c0 125 -71 212 -176 212s-176 -87 -176 -212s71 -212 176 -212s176 87 176 212z" />
    <glyph glyph-name="oacute" unicode="&#xf3;" horiz-adv-x="554" 
d="M253 612l71 179h82l-117 -179h-36zM42 255c0 159 107 266 235 266s235 -107 235 -266s-107 -266 -235 -266s-235 107 -235 266zM453 255c0 125 -71 212 -176 212s-176 -87 -176 -212s71 -212 176 -212s176 87 176 212z" />
    <glyph glyph-name="ocircumflex" unicode="&#xf4;" horiz-adv-x="554" 
d="M305 791l110 -179h-45l-93 121l-93 -121h-44l110 179h55zM42 255c0 159 107 266 235 266s235 -107 235 -266s-107 -266 -235 -266s-235 107 -235 266zM453 255c0 125 -71 212 -176 212s-176 -87 -176 -212s71 -212 176 -212s176 87 176 212z" />
    <glyph glyph-name="otilde" unicode="&#xf5;" horiz-adv-x="554" 
d="M346 627c-60 0 -90 105 -136 105c-33 0 -44 -46 -52 -105h-45c3 85 38 162 104 162c60 0 90 -105 135 -105c33 0 45 46 52 105h46c-4 -86 -38 -162 -104 -162zM42 255c0 159 107 266 235 266s235 -107 235 -266s-107 -266 -235 -266s-235 107 -235 266zM453 255
c0 125 -71 212 -176 212s-176 -87 -176 -212s71 -212 176 -212s176 87 176 212z" />
    <glyph glyph-name="odieresis" unicode="&#xf6;" horiz-adv-x="554" 
d="M144 709c0 24 20 45 46 45c24 0 45 -21 45 -45c0 -26 -21 -46 -45 -46c-26 0 -46 20 -46 46zM317 709c0 24 20 45 46 45c24 0 45 -21 45 -45c0 -26 -21 -46 -45 -46c-26 0 -46 20 -46 46zM42 255c0 159 107 266 235 266s235 -107 235 -266s-107 -266 -235 -266
s-235 107 -235 266zM453 255c0 125 -71 212 -176 212s-176 -87 -176 -212s71 -212 176 -212s176 87 176 212z" />
    <glyph glyph-name="omacron" unicode="&#x14d;" horiz-adv-x="554" 
d="M143 656v50h266v-50h-266zM42 255c0 159 107 266 235 266s235 -107 235 -266s-107 -266 -235 -266s-235 107 -235 266zM453 255c0 125 -71 212 -176 212s-176 -87 -176 -212s71 -212 176 -212s176 87 176 212z" />
    <glyph glyph-name="obreve" unicode="&#x14f;" horiz-adv-x="554" 
d="M276 612c-89 0 -137 76 -137 179h47c4 -74 32 -130 90 -130c59 0 87 56 90 130h48c0 -103 -48 -179 -138 -179zM42 255c0 159 107 266 235 266s235 -107 235 -266s-107 -266 -235 -266s-235 107 -235 266zM453 255c0 125 -71 212 -176 212s-176 -87 -176 -212
s71 -212 176 -212s176 87 176 212z" />
    <glyph glyph-name="ohungarumlaut" unicode="&#x151;" horiz-adv-x="554" 
d="M241 791h81l-114 -179h-38zM405 791h81l-114 -179h-38zM42 255c0 159 107 266 235 266s235 -107 235 -266s-107 -266 -235 -266s-235 107 -235 266zM453 255c0 125 -71 212 -176 212s-176 -87 -176 -212s71 -212 176 -212s176 87 176 212z" />
    <glyph glyph-name="p" unicode="p" horiz-adv-x="576" 
d="M90 -228v730l59 12v-56c31 28 95 63 163 63c130 0 223 -89 223 -253c0 -169 -112 -279 -260 -279c-47 0 -98 12 -126 32v-249h-59zM149 74c32 -28 86 -37 126 -37c125 0 200 96 200 231c0 129 -68 200 -166 200c-64 0 -124 -26 -160 -57v-337z" />
    <glyph glyph-name="q" unicode="q" horiz-adv-x="576" 
d="M486 -228h-59v284c-31 -29 -86 -67 -158 -67c-130 0 -226 89 -226 253c0 169 110 279 259 279c47 0 97 -12 125 -31l59 27v-745zM427 436c-32 28 -86 37 -125 37c-125 0 -200 -96 -200 -231c0 -129 70 -201 168 -201c70 0 122 33 157 64v331z" />
    <glyph glyph-name="r" unicode="r" horiz-adv-x="374" 
d="M90 0v502l59 12v-89c44 56 117 104 208 90v-59c-87 17 -155 -21 -208 -78v-378h-59z" />
    <glyph glyph-name="racute" unicode="&#x155;" horiz-adv-x="374" 
d="M210 612l71 179h82l-117 -179h-36zM90 0v502l59 12v-89c44 56 117 104 208 90v-59c-87 17 -155 -21 -208 -78v-378h-59z" />
    <glyph glyph-name="uni0157" unicode="&#x157;" horiz-adv-x="374" 
d="M90 0v502l59 12v-89c44 56 117 104 208 90v-59c-87 17 -155 -21 -208 -78v-378h-59zM152 -50c0 -72 -51 -150 -99 -178h-44c36 32 78 105 78 178h65z" />
    <glyph glyph-name="rcaron" unicode="&#x159;" horiz-adv-x="374" 
d="M206 612l-110 179h44l93 -121l93 121h45l-110 -179h-55zM90 0v502l59 12v-89c44 56 117 104 208 90v-59c-87 17 -155 -21 -208 -78v-378h-59z" />
    <glyph glyph-name="s" unicode="s" horiz-adv-x="442" 
d="M42 92c53 -40 103 -51 157 -51c71 0 129 35 129 90c0 122 -264 80 -264 249c0 82 72 141 171 141c45 0 84 -10 120 -26v-62c-41 24 -80 36 -120 36c-67 0 -114 -34 -114 -86c0 -122 263 -81 263 -245c0 -96 -88 -149 -185 -149c-68 0 -123 17 -157 40v63z" />
    <glyph glyph-name="sacute" unicode="&#x15b;" horiz-adv-x="442" 
d="M209 612l71 179h82l-117 -179h-36zM42 92c53 -40 103 -51 157 -51c71 0 129 35 129 90c0 122 -264 80 -264 249c0 82 72 141 171 141c45 0 84 -10 120 -26v-62c-41 24 -80 36 -120 36c-67 0 -114 -34 -114 -86c0 -122 263 -81 263 -245c0 -96 -88 -149 -185 -149
c-68 0 -123 17 -157 40v63z" />
    <glyph glyph-name="scircumflex" unicode="&#x15d;" horiz-adv-x="442" 
d="M260 791l110 -179h-45l-93 121l-93 -121h-44l110 179h55zM42 92c53 -40 103 -51 157 -51c71 0 129 35 129 90c0 122 -264 80 -264 249c0 82 72 141 171 141c45 0 84 -10 120 -26v-62c-41 24 -80 36 -120 36c-67 0 -114 -34 -114 -86c0 -122 263 -81 263 -245
c0 -96 -88 -149 -185 -149c-68 0 -123 17 -157 40v63z" />
    <glyph glyph-name="uni015F" unicode="&#x15f;" horiz-adv-x="442" 
d="M185 -239c-42 0 -76 9 -100 24v50c40 -27 74 -30 100 -30c40 0 70 17 70 47c0 39 -39 52 -103 52l25 86c-58 3 -105 19 -135 39v63c53 -40 103 -51 157 -51c71 0 129 35 129 90c0 122 -264 80 -264 249c0 82 72 141 171 141c45 0 84 -10 120 -26v-62
c-41 24 -80 36 -120 36c-67 0 -114 -34 -114 -86c0 -122 263 -81 263 -245c0 -90 -78 -142 -167 -148l-14 -46c60 -9 103 -39 103 -89c0 -60 -62 -94 -121 -94z" />
    <glyph glyph-name="scaron" unicode="&#x161;" horiz-adv-x="442" 
d="M205 612l-110 179h44l93 -121l93 121h45l-110 -179h-55zM42 92c53 -40 103 -51 157 -51c71 0 129 35 129 90c0 122 -264 80 -264 249c0 82 72 141 171 141c45 0 84 -10 120 -26v-62c-41 24 -80 36 -120 36c-67 0 -114 -34 -114 -86c0 -122 263 -81 263 -245
c0 -96 -88 -149 -185 -149c-68 0 -123 17 -157 40v63z" />
    <glyph glyph-name="uni0219" unicode="&#x219;" horiz-adv-x="442" 
d="M42 92c53 -40 103 -51 157 -51c71 0 129 35 129 90c0 122 -264 80 -264 249c0 82 72 141 171 141c45 0 84 -10 120 -26v-62c-41 24 -80 36 -120 36c-67 0 -114 -34 -114 -86c0 -122 263 -81 263 -245c0 -96 -88 -149 -185 -149c-68 0 -123 17 -157 40v63zM239 -50
c0 -72 -51 -150 -99 -178h-44c36 32 78 105 78 178h65z" />
    <glyph glyph-name="t" unicode="t" horiz-adv-x="401" 
d="M104 510v114l59 12v-126h182l-11 -49h-171v-324c0 -63 40 -92 92 -92c40 0 75 4 120 22v-52c-36 -18 -82 -24 -120 -24c-75 0 -151 35 -151 141v329h-80v49h80z" />
    <glyph glyph-name="uni0163" unicode="&#x163;" horiz-adv-x="401" 
d="M227 -239c-42 0 -76 9 -100 24v50c40 -27 74 -30 100 -30c40 0 70 17 70 47c0 39 -39 52 -103 52l26 90c-62 10 -116 49 -116 138v329h-80v49h80v114l59 12v-126h182l-11 -49h-171v-324c0 -63 40 -92 92 -92c40 0 75 4 120 22v-52c-36 -18 -82 -24 -116 -24l-14 -47
c60 -9 103 -39 103 -89c0 -60 -62 -94 -121 -94z" />
    <glyph glyph-name="tcaron" unicode="&#x165;" horiz-adv-x="401" 
d="M243 818h70l-53 -252h-42zM104 510v114l59 12v-126h182l-11 -49h-171v-324c0 -63 40 -92 92 -92c40 0 75 4 120 22v-52c-36 -18 -82 -24 -120 -24c-75 0 -151 35 -151 141v329h-80v49h80z" />
    <glyph glyph-name="uni021B" unicode="&#x21b;" horiz-adv-x="401" 
d="M104 510v114l59 12v-126h182l-11 -49h-171v-324c0 -63 40 -92 92 -92c40 0 75 4 120 22v-52c-36 -18 -82 -24 -120 -24c-75 0 -151 35 -151 141v329h-80v49h80zM271 -50c0 -72 -51 -150 -99 -178h-44c36 32 78 105 78 178h65z" />
    <glyph glyph-name="u" unicode="u" horiz-adv-x="575" 
d="M484 8l-59 -11v56c-33 -27 -102 -64 -176 -64c-113 0 -165 67 -165 169v352h59v-336c0 -81 24 -131 116 -131c68 0 118 24 166 56v411h59v-502z" />
    <glyph glyph-name="ugrave" unicode="&#xf9;" horiz-adv-x="575" 
d="M272 612l-116 179h82l71 -179h-37zM484 8l-59 -11v56c-33 -27 -102 -64 -176 -64c-113 0 -165 67 -165 169v352h59v-336c0 -81 24 -131 116 -131c68 0 118 24 166 56v411h59v-502z" />
    <glyph glyph-name="uacute" unicode="&#xfa;" horiz-adv-x="575" 
d="M261 612l71 179h82l-117 -179h-36zM484 8l-59 -11v56c-33 -27 -102 -64 -176 -64c-113 0 -165 67 -165 169v352h59v-336c0 -81 24 -131 116 -131c68 0 118 24 166 56v411h59v-502z" />
    <glyph glyph-name="ucircumflex" unicode="&#xfb;" horiz-adv-x="575" 
d="M312 791l110 -179h-45l-93 121l-93 -121h-44l110 179h55zM484 8l-59 -11v56c-33 -27 -102 -64 -176 -64c-113 0 -165 67 -165 169v352h59v-336c0 -81 24 -131 116 -131c68 0 118 24 166 56v411h59v-502z" />
    <glyph glyph-name="udieresis" unicode="&#xfc;" horiz-adv-x="575" 
d="M152 709c0 24 20 45 46 45c24 0 45 -21 45 -45c0 -26 -21 -46 -45 -46c-26 0 -46 20 -46 46zM325 709c0 24 20 45 46 45c24 0 45 -21 45 -45c0 -26 -21 -46 -45 -46c-26 0 -46 20 -46 46zM484 8l-59 -11v56c-33 -27 -102 -64 -176 -64c-113 0 -165 67 -165 169v352h59
v-336c0 -81 24 -131 116 -131c68 0 118 24 166 56v411h59v-502z" />
    <glyph glyph-name="utilde" unicode="&#x169;" horiz-adv-x="575" 
d="M353 627c-60 0 -90 105 -136 105c-33 0 -44 -46 -52 -105h-45c3 85 38 162 104 162c60 0 90 -105 135 -105c33 0 45 46 52 105h46c-4 -86 -38 -162 -104 -162zM484 8l-59 -11v56c-33 -27 -102 -64 -176 -64c-113 0 -165 67 -165 169v352h59v-336c0 -81 24 -131 116 -131
c68 0 118 24 166 56v411h59v-502z" />
    <glyph glyph-name="umacron" unicode="&#x16b;" horiz-adv-x="575" 
d="M151 656v50h266v-50h-266zM484 8l-59 -11v56c-33 -27 -102 -64 -176 -64c-113 0 -165 67 -165 169v352h59v-336c0 -81 24 -131 116 -131c68 0 118 24 166 56v411h59v-502z" />
    <glyph glyph-name="ubreve" unicode="&#x16d;" horiz-adv-x="575" 
d="M284 612c-89 0 -137 76 -137 179h47c4 -74 32 -130 90 -130c59 0 87 56 90 130h48c0 -103 -48 -179 -138 -179zM484 8l-59 -11v56c-33 -27 -102 -64 -176 -64c-113 0 -165 67 -165 169v352h59v-336c0 -81 24 -131 116 -131c68 0 118 24 166 56v411h59v-502z" />
    <glyph glyph-name="uring" unicode="&#x16f;" horiz-adv-x="575" 
d="M388 699c0 -58 -47 -104 -104 -104c-55 0 -103 46 -103 104c0 56 48 103 103 103c57 0 104 -47 104 -103zM223 699c0 -34 28 -64 61 -64c35 0 62 29 62 64c0 33 -27 63 -62 63c-33 0 -61 -30 -61 -63zM484 8l-59 -11v56c-33 -27 -102 -64 -176 -64
c-113 0 -165 67 -165 169v352h59v-336c0 -81 24 -131 116 -131c68 0 118 24 166 56v411h59v-502z" />
    <glyph glyph-name="uhungarumlaut" unicode="&#x171;" horiz-adv-x="575" 
d="M248 791h81l-114 -179h-38zM412 791h81l-114 -179h-38zM484 8l-59 -11v56c-33 -27 -102 -64 -176 -64c-113 0 -165 67 -165 169v352h59v-336c0 -81 24 -131 116 -131c68 0 118 24 166 56v411h59v-502z" />
    <glyph glyph-name="uogonek" unicode="&#x173;" horiz-adv-x="575" 
d="M444 -239c-44 0 -93 27 -93 91c0 57 27 99 74 146v55c-33 -27 -102 -64 -176 -64c-113 0 -165 67 -165 169v352h59v-336c0 -81 24 -131 116 -131c68 0 118 24 166 56v411h59v-502c-55 -59 -82 -98 -82 -147c0 -34 22 -54 47 -54c15 0 22 2 35 7v-46c-11 -4 -22 -7 -40 -7
z" />
    <glyph glyph-name="v" unicode="v" horiz-adv-x="512" 
d="M229 -5l-213 515h62l180 -444l177 444h60l-213 -515h-53z" />
    <glyph glyph-name="w" unicode="w" horiz-adv-x="715" 
d="M381 510l134 -434l128 434h56l-162 -515h-51l-129 420l-128 -420h-52l-161 515h58l132 -434l130 434h45z" />
    <glyph glyph-name="wcircumflex" unicode="&#x175;" horiz-adv-x="715" 
d="M386 791l110 -179h-45l-93 121l-93 -121h-44l110 179h55zM381 510l134 -434l128 434h56l-162 -515h-51l-129 420l-128 -420h-52l-161 515h58l132 -434l130 434h45z" />
    <glyph glyph-name="wgrave" unicode="&#x1e81;" horiz-adv-x="715" 
d="M346 612l-116 179h82l71 -179h-37zM381 510l134 -434l128 434h56l-162 -515h-51l-129 420l-128 -420h-52l-161 515h58l132 -434l130 434h45z" />
    <glyph glyph-name="wacute" unicode="&#x1e83;" horiz-adv-x="715" 
d="M334 612l71 179h82l-117 -179h-36zM381 510l134 -434l128 434h56l-162 -515h-51l-129 420l-128 -420h-52l-161 515h58l132 -434l130 434h45z" />
    <glyph glyph-name="wdieresis" unicode="&#x1e85;" horiz-adv-x="715" 
d="M226 709c0 24 20 45 46 45c24 0 45 -21 45 -45c0 -26 -21 -46 -45 -46c-26 0 -46 20 -46 46zM399 709c0 24 20 45 46 45c24 0 45 -21 45 -45c0 -26 -21 -46 -45 -46c-26 0 -46 20 -46 46zM381 510l134 -434l128 434h56l-162 -515h-51l-129 420l-128 -420h-52l-161 515h58
l132 -434l130 434h45z" />
    <glyph glyph-name="x" unicode="x" horiz-adv-x="503" 
d="M250 225l-165 -225h-65l199 265l-182 245h69l146 -201l148 201h65l-182 -242l200 -268h-69z" />
    <glyph glyph-name="y" unicode="y" horiz-adv-x="512" 
d="M16 510h62l179 -423l180 423h59l-221 -505c-77 -174 -120 -244 -238 -244c-13 0 -31 2 -44 8v50c15 -6 32 -7 41 -7c82 0 119 38 192 214z" />
    <glyph glyph-name="yacute" unicode="&#xfd;" horiz-adv-x="512" 
d="M221 612l71 179h82l-117 -179h-36zM16 510h62l179 -423l180 423h59l-221 -505c-77 -174 -120 -244 -238 -244c-13 0 -31 2 -44 8v50c15 -6 32 -7 41 -7c82 0 119 38 192 214z" />
    <glyph glyph-name="ydieresis" unicode="&#xff;" horiz-adv-x="512" 
d="M112 709c0 24 20 45 46 45c24 0 45 -21 45 -45c0 -26 -21 -46 -45 -46c-26 0 -46 20 -46 46zM285 709c0 24 20 45 46 45c24 0 45 -21 45 -45c0 -26 -21 -46 -45 -46c-26 0 -46 20 -46 46zM16 510h62l179 -423l180 423h59l-221 -505c-77 -174 -120 -244 -238 -244
c-13 0 -31 2 -44 8v50c15 -6 32 -7 41 -7c82 0 119 38 192 214z" />
    <glyph glyph-name="ycircumflex" unicode="&#x177;" horiz-adv-x="512" 
d="M272 791l110 -179h-45l-93 121l-93 -121h-44l110 179h55zM16 510h62l179 -423l180 423h59l-221 -505c-77 -174 -120 -244 -238 -244c-13 0 -31 2 -44 8v50c15 -6 32 -7 41 -7c82 0 119 38 192 214z" />
    <glyph glyph-name="ygrave" unicode="&#x1ef3;" horiz-adv-x="512" 
d="M232 612l-116 179h82l71 -179h-37zM16 510h62l179 -423l180 423h59l-221 -505c-77 -174 -120 -244 -238 -244c-13 0 -31 2 -44 8v50c15 -6 32 -7 41 -7c82 0 119 38 192 214z" />
    <glyph glyph-name="z" unicode="z" horiz-adv-x="476" 
d="M440 0h-402v34l313 427h-302v49h380v-33l-313 -428h337z" />
    <glyph glyph-name="zacute" unicode="&#x17a;" horiz-adv-x="476" 
d="M221 612l71 179h82l-117 -179h-36zM440 0h-402v34l313 427h-302v49h380v-33l-313 -428h337z" />
    <glyph glyph-name="zdotaccent" unicode="&#x17c;" horiz-adv-x="476" 
d="M200 709c0 24 20 45 45 45s46 -21 46 -45c0 -26 -21 -46 -46 -46s-45 20 -45 46zM440 0h-402v34l313 427h-302v49h380v-33l-313 -428h337z" />
    <glyph glyph-name="zcaron" unicode="&#x17e;" horiz-adv-x="476" 
d="M218 612l-110 179h44l93 -121l93 121h45l-110 -179h-55zM440 0h-402v34l313 427h-302v49h380v-33l-313 -428h337z" />
    <glyph glyph-name="ordfeminine" unicode="&#xaa;" horiz-adv-x="362" 
d="M254 372l-6 37c-27 -25 -60 -45 -104 -45c-54 0 -99 33 -99 89c0 65 50 111 203 116v20c0 47 -14 77 -72 77c-41 0 -74 -11 -112 -33v45c29 20 74 34 112 34c90 0 121 -50 121 -109v-170c0 -31 3 -40 7 -61h-50zM156 405c38 0 59 11 92 36v90c-109 -5 -153 -25 -153 -76
c0 -29 22 -50 61 -50zM55 309h247v-43h-247v43z" />
    <glyph glyph-name="ordmasculine" unicode="&#xba;" horiz-adv-x="391" 
d="M196 712c83 0 153 -68 153 -172s-70 -172 -153 -172s-153 68 -153 172s70 172 153 172zM93 540c0 -72 41 -125 103 -125s103 53 103 125s-41 125 -103 125s-103 -53 -103 -125zM320 266h-247v43h247v-43z" />
    <glyph glyph-name="germandbls" unicode="&#xdf;" horiz-adv-x="619" 
d="M520 618c-112 -81 -164 -132 -164 -188c0 -106 220 -141 220 -292c0 -96 -89 -149 -185 -149c-55 0 -101 14 -134 30v61c45 -27 87 -39 134 -39c71 0 128 35 128 90c0 120 -220 151 -220 296c0 82 73 141 156 212c-1 58 -51 113 -132 113c-92 0 -165 -64 -165 -189v-563
h-59v563c0 158 99 240 224 240c133 0 193 -90 197 -185z" />
    <glyph glyph-name="ae" unicode="&#xe6;" horiz-adv-x="826" 
d="M616 -11c-98 0 -176 48 -220 121c-30 -59 -108 -121 -205 -121c-80 0 -146 51 -146 137c0 100 102 171 312 179v40c0 73 -39 120 -125 120c-53 0 -105 -17 -160 -49v56c44 31 113 49 160 49c101 0 151 -47 170 -110c37 65 101 110 180 110c155 0 210 -124 201 -262h-371
v-2c0 -128 88 -214 204 -214c53 0 92 3 153 37v-58c-48 -23 -100 -33 -153 -33zM582 469c-87 0 -151 -61 -167 -164h309c-1 89 -41 164 -142 164zM199 39c75 0 129 36 177 112c-13 33 -20 70 -20 108h-5c-162 -6 -246 -51 -246 -133c0 -49 34 -87 94 -87z" />
    <glyph glyph-name="aeacute" unicode="&#x1fd;" horiz-adv-x="826" 
d="M391 612l71 179h82l-117 -179h-36zM616 -11c-98 0 -176 48 -220 121c-30 -59 -108 -121 -205 -121c-80 0 -146 51 -146 137c0 100 102 171 312 179v40c0 73 -39 120 -125 120c-53 0 -105 -17 -160 -49v56c44 31 113 49 160 49c101 0 151 -47 170 -110
c37 65 101 110 180 110c155 0 210 -124 201 -262h-371v-2c0 -128 88 -214 204 -214c53 0 92 3 153 37v-58c-48 -23 -100 -33 -153 -33zM582 469c-87 0 -151 -61 -167 -164h309c-1 89 -41 164 -142 164zM199 39c75 0 129 36 177 112c-13 33 -20 70 -20 108h-5
c-162 -6 -246 -51 -246 -133c0 -49 34 -87 94 -87z" />
    <glyph glyph-name="eth" unicode="&#xf0;" horiz-adv-x="554" 
d="M274 -11c-127 0 -232 103 -232 262c0 173 123 270 258 270c47 0 83 -11 120 -34c-23 59 -58 110 -103 153l-143 -44v46l103 32c-48 37 -106 67 -171 91l44 36c72 -28 135 -64 188 -109l102 32v-46l-65 -20c88 -92 137 -214 137 -364c0 -185 -111 -305 -238 -305zM274 43
c105 0 179 100 179 252c0 48 -5 93 -15 134c-39 28 -86 39 -138 39c-112 0 -199 -79 -199 -217c0 -125 68 -208 173 -208z" />
    <glyph glyph-name="oslash" unicode="&#xf8;" horiz-adv-x="554" 
d="M277 -11c-48 0 -94 15 -131 43l-48 -68h-55l69 98c-43 47 -70 113 -70 193c0 159 107 266 235 266c47 0 92 -15 129 -41l47 67h56l-69 -97c44 -47 72 -114 72 -195c0 -159 -107 -266 -235 -266zM101 255c0 -59 16 -110 44 -147l230 328c-27 20 -60 31 -98 31
c-105 0 -176 -87 -176 -212zM277 43c105 0 176 87 176 212c0 60 -16 111 -45 149l-231 -328c27 -21 61 -33 100 -33z" />
    <glyph glyph-name="oslashacute" unicode="&#x1ff;" horiz-adv-x="554" 
d="M252 612l71 179h82l-117 -179h-36zM277 -11c-48 0 -94 15 -131 43l-48 -68h-55l69 98c-43 47 -70 113 -70 193c0 159 107 266 235 266c47 0 92 -15 129 -41l47 67h56l-69 -97c44 -47 72 -114 72 -195c0 -159 -107 -266 -235 -266zM101 255c0 -59 16 -110 44 -147l230 328
c-27 20 -60 31 -98 31c-105 0 -176 -87 -176 -212zM277 43c105 0 176 87 176 212c0 60 -16 111 -45 149l-231 -328c27 -21 61 -33 100 -33z" />
    <glyph glyph-name="thorn" unicode="&#xfe;" horiz-adv-x="576" 
d="M149 -228h-59v1019l59 11v-344c31 28 95 64 163 64c130 0 223 -90 223 -254c0 -169 -112 -279 -260 -279c-47 0 -98 12 -126 32v-249zM149 74c32 -28 86 -37 126 -37c125 0 200 96 200 231c0 129 -68 201 -166 201c-64 0 -124 -27 -160 -58v-337z" />
    <glyph glyph-name="dcroat" unicode="&#x111;" horiz-adv-x="576" 
d="M427 56c-31 -28 -86 -67 -158 -67c-130 0 -226 90 -226 254c0 169 110 278 259 278c47 0 97 -13 125 -32v140h-170v43h170v119l59 12v-131h82v-43h-82v-621l-59 -11v59zM427 435c-32 28 -86 37 -125 37c-125 0 -200 -95 -200 -229c0 -130 70 -201 168 -201
c70 0 122 33 157 64v329z" />
    <glyph glyph-name="hbar" unicode="&#x127;" horiz-adv-x="585" 
d="M149 0h-59v629h-82v43h82v119l59 11v-130h171v-43h-171v-173c35 28 105 65 182 65c117 0 170 -66 170 -168v-353h-59v337c0 81 -28 131 -121 131c-71 0 -123 -23 -172 -57v-411z" />
    <glyph glyph-name="dotlessi" unicode="&#x131;" 
d="M90 502l59 12v-514h-59v502z" />
    <glyph glyph-name="kgreenlandic" unicode="&#x138;" horiz-adv-x="539" 
d="M149 258v-258h-59v508l59 11v-240l264 231h77l-276 -237l311 -273h-82z" />
    <glyph glyph-name="ldot" unicode="&#x140;" horiz-adv-x="334" 
d="M90 791l59 11v-802h-59v791zM252 401c0 24 20 45 45 45s46 -21 46 -45c0 -26 -21 -46 -46 -46s-45 20 -45 46z" />
    <glyph glyph-name="lslash" unicode="&#x142;" horiz-adv-x="272" 
d="M103 0v355l-97 -67v59l97 67v377l59 11v-352l104 71v-59l-104 -72v-390h-59z" />
    <glyph glyph-name="eng" unicode="&#x14b;" horiz-adv-x="585" 
d="M356 -228c58 65 82 125 86 233v332c0 81 -28 131 -121 131c-71 0 -123 -23 -172 -57v-411h-59v502l59 12v-58c35 28 105 65 182 65c117 0 170 -66 170 -168v-348c-4 -126 -32 -175 -78 -233h-67z" />
    <glyph glyph-name="oe" unicode="&#x153;" horiz-adv-x="919" 
d="M862 22c-48 -23 -100 -33 -153 -33c-103 0 -184 57 -228 135c-41 -81 -119 -135 -204 -135c-128 0 -235 108 -235 267s107 265 235 265c84 0 160 -51 202 -129c38 74 108 129 196 129c155 0 209 -124 201 -262h-371v-2c0 -128 88 -214 204 -214c52 0 92 3 153 37v-58z
M675 469c-87 0 -151 -61 -167 -164h309c-1 89 -41 164 -142 164zM453 256c0 125 -71 211 -176 211s-176 -86 -176 -211c0 -126 71 -213 176 -213s176 87 176 213z" />
    <glyph glyph-name="tbar" unicode="&#x167;" horiz-adv-x="401" 
d="M375 15c-36 -18 -82 -24 -120 -24c-75 0 -151 35 -151 141v141h-78v49h78v139h-80v49h80v114l59 12v-126h182l-11 -49h-171v-139h175l-12 -49h-163v-136c0 -63 40 -92 92 -92c40 0 75 4 120 22v-52z" />
    <glyph glyph-name="zero" unicode="0" horiz-adv-x="610" 
d="M305 711c161 0 262 -148 262 -361s-101 -361 -262 -361s-262 148 -262 361s101 361 262 361zM305 42c131 0 202 136 202 308s-71 308 -202 308s-202 -136 -202 -308s71 -308 202 -308z" />
    <glyph glyph-name="one" unicode="1" horiz-adv-x="398" 
d="M219 0v641l-185 -72v49l208 93h36v-711h-59z" />
    <glyph glyph-name="two" unicode="2" horiz-adv-x="519" 
d="M398 516c0 88 -57 141 -151 141c-80 0 -153 -40 -199 -88v61c45 44 120 81 200 81c134 0 210 -85 210 -196c0 -143 -185 -337 -347 -464h373v-51h-456v42c193 162 370 336 370 474z" />
    <glyph glyph-name="three" unicode="3" horiz-adv-x="530" 
d="M29 99c54 -41 116 -56 180 -56c121 0 212 70 212 173c0 102 -78 157 -242 157v23l203 250h-324v54h388v-55l-190 -228c116 -7 226 -74 226 -192c0 -142 -129 -236 -274 -236c-74 0 -132 19 -179 50v60z" />
    <glyph glyph-name="four" unicode="4" horiz-adv-x="590" 
d="M346 0v192h-318v38c43 137 155 352 258 470h69c-117 -129 -210 -315 -266 -458h257v195h57v-195h167v-50h-167v-192h-57z" />
    <glyph glyph-name="five" unicode="5" horiz-adv-x="517" 
d="M411 216c0 131 -118 184 -311 206l24 278h324v-54h-281l-12 -179c141 -15 316 -81 316 -242c0 -146 -129 -236 -273 -236c-75 0 -133 19 -180 50v60c54 -41 116 -56 180 -56c121 0 213 66 213 173z" />
    <glyph glyph-name="six" unicode="6" horiz-adv-x="559" 
d="M518 209c0 -131 -96 -220 -222 -220c-142 0 -253 130 -253 321c0 237 150 401 353 401c42 0 82 -7 110 -19v-50c-29 10 -65 17 -110 17c-167 0 -292 -129 -292 -349v-9c42 70 128 111 196 111c116 0 218 -73 218 -203zM296 41c91 0 164 53 164 160
c0 100 -73 161 -167 161c-72 0 -148 -45 -186 -105c16 -136 95 -216 189 -216z" />
    <glyph glyph-name="seven" unicode="7" horiz-adv-x="515" 
d="M127 0c157 205 257 438 316 646h-406v54h465v-40c-33 -151 -181 -508 -309 -660h-66z" />
    <glyph glyph-name="eight" unicode="8" horiz-adv-x="558" 
d="M277 -11c-133 0 -239 82 -239 193c0 95 87 163 170 191c-72 34 -129 87 -129 161c0 104 89 177 202 177c112 0 206 -65 206 -169c0 -77 -57 -143 -138 -178c82 -40 171 -76 171 -180c0 -112 -104 -195 -243 -195zM309 384c68 32 123 89 123 153c0 77 -62 127 -152 127
c-85 0 -143 -54 -143 -121c0 -66 47 -98 113 -130zM277 40c102 0 185 54 185 143c0 60 -61 99 -147 139l-63 30c-81 -30 -154 -84 -154 -170c0 -78 77 -142 179 -142z" />
    <glyph glyph-name="nine" unicode="9" horiz-adv-x="559" 
d="M41 491c0 131 96 220 222 220c142 0 253 -130 253 -321c0 -237 -150 -401 -353 -401c-42 0 -82 7 -110 19v50c29 -10 65 -17 110 -17c167 0 292 129 292 349v9c-42 -70 -128 -111 -196 -111c-116 0 -218 73 -218 203zM263 659c-91 0 -164 -53 -164 -160
c0 -100 73 -161 167 -161c72 0 148 45 186 105c-16 136 -95 216 -189 216z" />
    <glyph glyph-name="underscore" unicode="_" horiz-adv-x="400" 
d="M70 -61h260v-51h-260v51z" />
    <glyph glyph-name="hyphen" unicode="-" horiz-adv-x="400" 
d="M70 301h260v-51h-260v51z" />
    <glyph glyph-name="endash" unicode="&#x2013;" horiz-adv-x="636" 
d="M70 301h496v-51h-496v51z" />
    <glyph glyph-name="emdash" unicode="&#x2014;" horiz-adv-x="1092" 
d="M70 301h952v-51h-952v51z" />
    <glyph glyph-name="parenleft" unicode="(" horiz-adv-x="363" 
d="M142 334c0 -187 110 -360 215 -456h-67c-82 78 -211 240 -211 456s129 379 211 457h67c-105 -96 -215 -269 -215 -457z" />
    <glyph glyph-name="parenright" unicode=")" horiz-adv-x="363" 
d="M6 -122c105 96 215 269 215 456c0 188 -110 361 -215 457h67c82 -78 211 -241 211 -457s-129 -378 -211 -456h-67z" />
    <glyph glyph-name="bracketleft" unicode="[" horiz-adv-x="314" 
d="M125 -75h165v-47h-220v913h220v-47h-165v-819z" />
    <glyph glyph-name="bracketright" unicode="]" horiz-adv-x="314" 
d="M189 744h-165v47h220v-913h-220v47h165v819z" />
    <glyph glyph-name="braceleft" unicode="{" horiz-adv-x="358" 
d="M15 359h58c41 0 68 19 68 77l-27 216c0 87 67 139 146 139c30 0 50 -7 73 -18v-44c-16 8 -40 14 -62 14c-53 0 -102 -29 -102 -83l28 -225c0 -66 -46 -93 -89 -101c43 -7 89 -34 89 -100l-28 -226c0 -54 49 -83 102 -83c22 0 46 7 62 15v-44c-23 -12 -43 -18 -73 -18
c-79 0 -146 52 -146 138l27 216c0 59 -27 78 -68 78h-58v49z" />
    <glyph glyph-name="braceright" unicode="}" horiz-adv-x="358" 
d="M343 310h-58c-41 0 -68 -19 -68 -78l27 -216c0 -86 -67 -138 -146 -138c-30 0 -50 6 -73 18v44c16 -8 40 -15 62 -15c53 0 102 29 102 83l-28 226c0 66 46 93 89 100c-43 8 -89 35 -89 101l28 225c0 54 -49 83 -102 83c-22 0 -46 -6 -62 -14v44c23 11 43 18 73 18
c79 0 146 -52 146 -139l-27 -216c0 -58 27 -77 68 -77h58v-49z" />
    <glyph glyph-name="numbersign" unicode="#" horiz-adv-x="695" 
d="M400 224h-147l-29 -169h-53l29 169h-148l9 50h147l28 165h-157l9 51h157l27 160h54l-27 -160h146l27 160h53l-27 -160h145l-9 -51h-145l-28 -165h157l-10 -50h-156l-29 -169h-52zM436 439h-146l-28 -165h146z" />
    <glyph glyph-name="percent" unicode="%" horiz-adv-x="739" 
d="M194 712c86 0 144 -69 144 -166c0 -98 -58 -168 -144 -168c-87 0 -144 70 -144 168c0 97 57 166 144 166zM170 -11h-54l454 723h55zM98 546c0 -64 35 -121 96 -121s96 57 96 121c0 63 -35 120 -96 120s-96 -57 -96 -120zM546 -11c-87 0 -144 69 -144 167
c0 97 57 167 144 167c86 0 143 -70 143 -167c0 -98 -57 -167 -143 -167zM546 277c-62 0 -96 -57 -96 -121s34 -120 96 -120c61 0 95 56 95 120s-34 121 -95 121z" />
    <glyph glyph-name="quotesingle" unicode="'" horiz-adv-x="197" 
d="M61 701h75l-44 -268h-31v268z" />
    <glyph glyph-name="quotedbl" unicode="&#x22;" horiz-adv-x="352" 
d="M61 701h75l-44 -268h-31v268zM216 701h75l-44 -268h-31v268z" />
    <glyph glyph-name="quoteleft" unicode="&#x2018;" horiz-adv-x="237" 
d="M79 496c0 93 45 181 71 216h44c-28 -48 -52 -136 -52 -216h-63z" />
    <glyph glyph-name="quoteright" unicode="&#x2019;" horiz-adv-x="237" 
d="M157 712c0 -93 -44 -181 -71 -216h-43c28 48 52 136 52 216h62z" />
    <glyph glyph-name="quotedblleft" unicode="&#x201c;" horiz-adv-x="385" 
d="M79 496c0 93 45 181 71 216h44c-28 -48 -52 -136 -52 -216h-63zM227 496c0 93 45 181 71 216h44c-28 -48 -52 -136 -52 -216h-63z" />
    <glyph glyph-name="quotedblright" unicode="&#x201d;" horiz-adv-x="385" 
d="M157 712c0 -93 -44 -181 -71 -216h-43c28 48 52 136 52 216h62zM305 712c0 -93 -44 -181 -71 -216h-43c28 48 52 136 52 216h62z" />
    <glyph glyph-name="quotesinglbase" unicode="&#x201a;" horiz-adv-x="237" 
d="M157 93c0 -94 -44 -181 -71 -217h-43c28 48 52 137 52 217h62z" />
    <glyph glyph-name="quotedblbase" unicode="&#x201e;" horiz-adv-x="384" 
d="M157 93c0 -94 -44 -181 -71 -217h-43c28 48 52 137 52 217h62zM305 93c0 -94 -44 -181 -71 -217h-43c28 48 52 137 52 217h62z" />
    <glyph glyph-name="guilsinglleft" unicode="&#x2039;" horiz-adv-x="287" 
d="M244 45h-43l-158 208l158 210h43l-120 -210z" />
    <glyph glyph-name="guilsinglright" unicode="&#x203a;" horiz-adv-x="287" 
d="M163 253l-120 210h42l159 -210l-159 -208h-42z" />
    <glyph glyph-name="guillemotleft" unicode="&#xab;" horiz-adv-x="478" 
d="M244 45h-43l-158 208l158 210h43l-120 -210zM435 45h-43l-158 208l158 210h43l-120 -210z" />
    <glyph glyph-name="guillemotright" unicode="&#xbb;" horiz-adv-x="478" 
d="M163 253l-120 210h42l159 -210l-159 -208h-42zM354 253l-120 210h42l159 -210l-159 -208h-42z" />
    <glyph glyph-name="asterisk" unicode="*" horiz-adv-x="370" 
d="M236 517l-51 92l-51 -92l-18 -27l-49 35l20 26l70 73l-102 19l-31 10l19 56l31 -10l96 -48l-14 108v32h59v-33l-16 -107l96 48l32 10l18 -56l-31 -10l-103 -19l71 -73l20 -26l-48 -35z" />
    <glyph glyph-name="dagger" unicode="&#x2020;" horiz-adv-x="295" 
d="M176 466h-59v111l15 76l-75 -15h-33v59h32l76 -14l-15 76v32h59v-33l-16 -76l79 15h31v-59h-32l-78 15l16 -75v-112z" />
    <glyph glyph-name="daggerdbl" unicode="&#x2021;" horiz-adv-x="295" 
d="M176 466h-59v32l14 55l-75 -15h-32v60h33l70 -15v91l-70 -14h-33v59h32l75 -15l-14 55v32h59v-33l-15 -54l78 15h31v-59h-32l-73 14v-91l73 15h32v-60h-31l-78 15l15 -54v-33z" />
    <glyph glyph-name="period" unicode="." horiz-adv-x="218" 
d="M61 46c0 27 21 49 48 49s48 -22 48 -49c0 -28 -21 -50 -48 -50s-48 22 -48 50z" />
    <glyph glyph-name="comma" unicode="," horiz-adv-x="218" 
d="M145 93c0 -94 -48 -190 -73 -226h-45c28 47 53 146 53 226h65z" />
    <glyph glyph-name="colon" unicode=":" horiz-adv-x="218" 
d="M61 416c0 27 21 49 48 49s48 -22 48 -49c0 -28 -21 -50 -48 -50s-48 22 -48 50zM61 47c0 27 21 49 48 49s48 -22 48 -49c0 -28 -21 -50 -48 -50s-48 22 -48 50z" />
    <glyph glyph-name="semicolon" unicode=";" horiz-adv-x="218" 
d="M61 416c0 27 21 49 48 49s48 -22 48 -49c0 -28 -21 -50 -48 -50s-48 22 -48 50zM137 122c0 -94 -48 -190 -73 -226h-45c28 47 53 146 53 226h65z" />
    <glyph glyph-name="ellipsis" unicode="&#x2026;" horiz-adv-x="698" 
d="M61 46c0 27 21 49 48 49s48 -22 48 -49c0 -28 -21 -50 -48 -50s-48 22 -48 50zM301 46c0 27 21 49 48 49s48 -22 48 -49c0 -28 -21 -50 -48 -50s-48 22 -48 50zM541 46c0 27 21 49 48 49s48 -22 48 -49c0 -28 -21 -50 -48 -50s-48 22 -48 50z" />
    <glyph glyph-name="exclam" unicode="!" horiz-adv-x="237" 
d="M104 228l-25 472h78l-24 -472h-29zM70 46c0 27 21 49 48 49c28 0 49 -22 49 -49c0 -28 -21 -50 -49 -50c-27 0 -48 22 -48 50z" />
    <glyph glyph-name="exclamdown" unicode="&#xa1;" horiz-adv-x="237" 
d="M167 654c0 -27 -21 -49 -48 -49c-28 0 -49 22 -49 49c0 28 21 50 49 50c27 0 48 -22 48 -50zM133 472l25 -472h-78l24 472h29z" />
    <glyph glyph-name="question" unicode="?" horiz-adv-x="450" 
d="M365 525c0 77 -48 131 -142 131c-80 0 -153 -42 -199 -89v63c45 44 121 81 200 81c134 0 201 -87 201 -187c0 -133 -161 -182 -176 -299h-57c14 130 173 191 173 300zM171 46c0 27 21 49 48 49c28 0 49 -22 49 -49c0 -28 -21 -50 -49 -50c-27 0 -48 22 -48 50z" />
    <glyph glyph-name="questiondown" unicode="&#xbf;" horiz-adv-x="450" 
d="M279 655c0 -27 -21 -49 -48 -49c-28 0 -49 22 -49 49c0 28 21 50 49 50c27 0 48 -22 48 -50zM85 176c0 -77 48 -131 142 -131c80 0 153 42 199 89v-63c-45 -44 -121 -81 -200 -81c-134 0 -201 87 -201 187c0 133 161 182 176 299h57c-14 -130 -173 -191 -173 -300z" />
    <glyph glyph-name="slash" unicode="/" horiz-adv-x="380" 
d="M313 791h60l-308 -913h-59z" />
    <glyph glyph-name="backslash" unicode="\" horiz-adv-x="380" 
d="M398 -122h-59l-308 913h60z" />
    <glyph glyph-name="bar" unicode="|" horiz-adv-x="288" 
d="M116 -122v913h57v-913h-57z" />
    <glyph glyph-name="at" unicode="@" horiz-adv-x="994" 
d="M718 25c-55 0 -93 28 -115 58c-35 -31 -82 -57 -132 -57c-65 0 -127 40 -127 115c0 88 77 150 259 157v35c0 63 -30 104 -100 104c-44 0 -87 -14 -132 -43v54c35 27 93 43 132 43c108 0 153 -67 153 -147v-242c12 -15 41 -28 66 -28c78 0 152 90 152 238
c0 209 -157 348 -349 348c-226 0 -405 -178 -405 -430c0 -245 192 -404 410 -404c125 0 233 36 319 107v-59c-82 -65 -200 -100 -320 -100c-249 0 -468 177 -468 457c0 273 202 481 463 481c221 0 409 -163 409 -400c0 -184 -112 -287 -215 -287zM484 75c41 0 78 17 119 47
v128c-136 -5 -201 -43 -201 -109c0 -40 36 -66 82 -66z" />
    <glyph glyph-name="ampersand" unicode="&#x26;" horiz-adv-x="663" 
d="M485 89c-57 -60 -133 -100 -223 -100c-132 0 -232 88 -232 211c0 97 63 170 151 200c-39 43 -64 81 -64 138c0 105 82 173 189 173c56 0 108 -16 151 -45v-64c-44 33 -85 57 -151 57c-75 0 -129 -43 -129 -122c0 -53 38 -94 85 -143l222 -224c43 65 67 145 70 223h56
c-2 -87 -33 -184 -88 -260l132 -133h-82zM262 43c76 0 139 32 187 83l-233 237l-3 3c-70 -22 -123 -89 -123 -166c0 -89 73 -157 172 -157z" />
    <glyph glyph-name="section" unicode="&#xa7;" horiz-adv-x="500" 
d="M154 558c0 -45 32 -75 75 -110l160 -126c45 -37 85 -71 85 -131c0 -33 -13 -61 -45 -81l-22 26c9 12 14 24 14 38c0 32 -24 61 -71 99l-182 149c-52 44 -73 77 -73 136c0 85 75 154 174 154c45 0 85 -12 120 -33v-60c-39 29 -80 41 -120 41c-67 0 -115 -44 -115 -102z
M347 -18c0 45 -32 75 -76 110l-159 127c-46 36 -86 71 -86 130c0 34 14 61 46 81l22 -26c-9 -12 -14 -24 -14 -38c0 -32 24 -61 71 -99l181 -149c53 -43 73 -77 73 -135c0 -82 -77 -157 -178 -157c-48 0 -91 15 -125 36v60c39 -29 83 -44 125 -44c69 0 120 46 120 104z" />
    <glyph glyph-name="paragraph" unicode="&#xb6;" horiz-adv-x="513" 
d="M265 701v-394h-36c-107 0 -205 75 -205 194c0 118 98 200 205 200h36zM401 69c0 -145 -34 -213 -91 -279h-76c71 74 106 145 106 279v632h167v-49h-106v-583z" />
    <glyph glyph-name="periodcentered" unicode="&#xb7;" horiz-adv-x="237" 
d="M70 276c0 27 21 49 48 49s48 -22 48 -49c0 -28 -21 -50 -48 -50s-48 22 -48 50z" />
    <glyph glyph-name="bullet" unicode="&#x2022;" horiz-adv-x="436" 
d="M218 125c-82 0 -148 67 -148 148c0 82 66 149 148 149s148 -67 148 -149c0 -81 -66 -148 -148 -148z" />
    <glyph glyph-name="plus" unicode="+" horiz-adv-x="601" 
d="M327 303v-227h-53v227h-228v53h228v228h53v-228h228v-53h-228z" />
    <glyph glyph-name="minus" unicode="&#x2212;" horiz-adv-x="601" 
d="M46 356h509v-53h-509v53z" />
    <glyph glyph-name="divide" unicode="&#xf7;" horiz-adv-x="601" 
d="M250 526c0 27 23 50 50 50c29 0 51 -23 51 -50c0 -29 -22 -51 -51 -51c-27 0 -50 22 -50 51zM46 356h509v-53h-509v53zM250 135c0 27 23 50 50 50c29 0 51 -23 51 -50c0 -28 -22 -51 -51 -51c-27 0 -50 23 -50 51z" />
    <glyph glyph-name="multiply" unicode="&#xd7;" horiz-adv-x="601" 
d="M301 293l-187 -187l-38 37l187 187l-187 187l38 37l187 -186l186 186l38 -37l-187 -187l187 -187l-38 -37z" />
    <glyph glyph-name="equal" unicode="=" horiz-adv-x="601" 
d="M46 466h509v-53h-509v53zM46 247h509v-53h-509v53z" />
    <glyph glyph-name="less" unicode="&#x3c;" horiz-adv-x="601" 
d="M59 366l483 182v-61l-416 -150l416 -149v-62l-483 182v58z" />
    <glyph glyph-name="greater" unicode="&#x3e;" horiz-adv-x="601" 
d="M566 308l-483 -182v62l416 149l-416 150v61l483 -182v-58z" />
    <glyph glyph-name="dollar" unicode="$" horiz-adv-x="499" 
d="M222 -77v145c-77 2 -140 24 -179 48v62c63 -41 124 -57 189 -57c87 0 164 33 164 98c0 129 -327 81 -327 262c0 73 62 129 153 144v148h56v-143c54 0 100 -14 143 -31v-60c-49 26 -97 39 -145 39c-89 0 -146 -35 -146 -94c0 -137 326 -81 326 -258
c0 -89 -80 -142 -178 -155v-148h-56z" />
    <glyph glyph-name="cent" unicode="&#xa2;" horiz-adv-x="472" 
d="M300 77v-154h-56v160c-127 25 -215 130 -215 263c0 137 88 244 215 270v157h56v-151h5c34 0 85 -8 121 -24v-57c-39 22 -85 28 -121 28c-118 0 -216 -83 -216 -223c0 -134 98 -217 216 -217c36 0 87 9 126 30v-55c-36 -18 -92 -27 -126 -27h-5z" />
    <glyph glyph-name="sterling" unicode="&#xa3;" horiz-adv-x="582" 
d="M84 387l22 51h91c61 161 129 273 252 273c35 0 59 -3 94 -21v-57c-37 20 -59 25 -95 25c-85 0 -139 -81 -191 -220h200l-18 -51h-355zM511 0h-468v32l89 225h-98l22 51h365l-18 -51h-212l-83 -206h403v-51z" />
    <glyph glyph-name="yen" unicode="&#xa5;" horiz-adv-x="623" 
d="M99 369v51h150l-215 280h71l209 -278l207 278h68l-214 -280h150v-51h-426zM342 239v-239h-61v239h-182v51h426v-51h-183z" />
    <glyph glyph-name="Euro" unicode="&#x20ac;" horiz-adv-x="569" 
d="M36 387v51h62c30 175 151 273 309 273c47 0 84 -7 124 -23v-59c-42 20 -80 27 -124 27c-123 0 -221 -73 -249 -218h274l-19 -51h-377zM531 13c-40 -17 -77 -24 -124 -24c-156 0 -276 95 -308 268h-63v51h359l-18 -51h-218c30 -143 125 -212 248 -212c44 0 82 6 124 26
v-58z" />
    <glyph glyph-name="uni0192" unicode="&#x192;" horiz-adv-x="562" 
d="M93 333l22 51h125l17 85c31 156 100 242 221 242c23 0 48 -3 69 -11v-52c-22 6 -42 8 -65 8c-81 0 -141 -50 -165 -179l-19 -93h168l-18 -51h-355zM283 257l-25 -128c-31 -155 -103 -242 -224 -242c-23 0 -49 4 -70 12v52c22 -7 43 -8 66 -8c81 0 143 50 168 178l26 136
h59z" />
    <glyph glyph-name="uni20B9" unicode="&#x20b9;" horiz-adv-x="655" 
d="M323 315c53 -92 155 -226 242 -315h-77c-84 86 -174 216 -225 301h-202l20 51h201c59 13 118 52 131 123h-353l20 51h333c-12 76 -86 123 -193 123h-158l20 51h513l-20 -51h-205c59 -23 93 -65 100 -123h125l-20 -51h-106c-11 -80 -71 -136 -146 -160z" />
    <glyph glyph-name="uni20AA" unicode="&#x20aa;" horiz-adv-x="754" 
d="M294 700c141 0 194 -57 194 -192v-346h-56v346c0 105 -35 139 -138 139h-138v-647h-56v700h194zM654 192c0 -135 -53 -192 -194 -192h-194v521h56v-468h138c103 0 138 34 138 139v508h56v-508z" />
    <glyph glyph-name="colonmonetary" unicode="&#x20a1;" horiz-adv-x="525" 
d="M299 77c-32 1 -62 6 -90 15l-42 -169h-50l48 189c-83 45 -136 131 -136 234c0 140 91 248 222 271l39 156h50l-38 -151h3c25 0 58 -4 88 -13l41 164h50l-58 -232c-39 22 -85 28 -121 28c-118 0 -216 -83 -216 -223c0 -134 98 -217 216 -217c36 0 87 9 126 30v-55
c-23 -11 -53 -19 -81 -23l-39 -158h-50z" />
    <glyph glyph-name="uni17DB" unicode="&#x17db;" horiz-adv-x="518" 
d="M306 -132c-146 0 -246 57 -246 136c0 59 44 101 116 101c17 0 32 -3 45 -8v-39c-9 2 -26 4 -37 4c-41 0 -69 -18 -69 -54c0 -60 90 -87 147 -89v410h-169l22 50h147v17c0 80 -63 112 -156 125c0 107 84 189 202 189c54 0 102 -14 144 -36v-54c-53 26 -99 35 -144 35
c-77 0 -131 -34 -143 -94c91 -12 153 -72 153 -160v-22h148l-18 -50h-130v-461h-12z" />
    <glyph glyph-name="uni20A9" unicode="&#x20a9;" horiz-adv-x="913" 
d="M317 0h-56l-66 287h-155v47h144l-23 99h-121v47h111l-51 220h60l133 -597l127 597h60l127 -597l133 597h58l-51 -220h126v-47h-136l-23 -99h159v-47h-170l-66 -287h-56l-132 605z" />
    <glyph glyph-name="uni20B8" unicode="&#x20b8;" horiz-adv-x="620" 
d="M40 700h540v-55h-540v55zM40 566h540v-55h-240v-511h-61v511h-239v55z" />
    <glyph glyph-name="uni20AD" unicode="&#x20ad;" horiz-adv-x="701" 
d="M153 0v334h-113v55h113v311h61v-700h-61zM348 334l333 -334h-77l-355 355l305 345h74l-278 -311h211v-55h-213z" />
    <glyph glyph-name="uni20AE" unicode="&#x20ae;" horiz-adv-x="620" 
d="M121 393l158 54v198h-239v55h540v-55h-240v-177l159 55v-54l-378 -130v54zM279 0v263l-158 -54v54l378 130v-54l-159 -55v-284h-61z" />
    <glyph glyph-name="uni20B1" unicode="&#x20b1;" horiz-adv-x="745" 
d="M237 0h-61v385h-136v52h136v100h-134v52h134v111h174c100 0 182 -35 219 -111h136v-52h-120c3 -16 5 -33 5 -51s-1 -34 -4 -49h119v-52h-136c-36 -77 -119 -112 -219 -112h-113v-273zM532 486c0 115 -75 160 -177 160h-118v-319h118c102 0 177 45 177 159z" />
    <glyph glyph-name="uni0E3F" unicode="&#xe3f;" horiz-adv-x="589" 
d="M317 51v-174h-53v174h-168v558h168v153h53v-154c114 -5 174 -48 174 -137c0 -68 -56 -112 -115 -122c96 -10 160 -57 160 -140c0 -98 -71 -158 -209 -158h-10zM155 367h114c110 0 160 31 160 98c0 72 -50 92 -160 92h-114v-190zM472 208c0 66 -42 109 -153 109h-164v-214
h164c111 0 153 39 153 105z" />
    <glyph glyph-name="uni20B4" unicode="&#x20b4;" horiz-adv-x="641" 
d="M40 447h402c22 22 34 49 34 82c0 82 -67 128 -157 128c-62 0 -112 -12 -173 -49v62c57 30 117 41 173 41c116 0 218 -72 218 -185c0 -31 -11 -58 -27 -79h91v-51h-561v51zM357 -11c-137 0 -241 70 -241 182c0 37 16 69 40 95h-116v51h561v-51h-378
c-30 -24 -47 -56 -47 -94c0 -82 72 -128 182 -128c63 0 140 17 217 74v-65c-49 -37 -141 -64 -218 -64z" />
    <glyph glyph-name="uni20AB" unicode="&#x20ab;" horiz-adv-x="602" 
d="M414 192c-25 -25 -87 -72 -161 -72c-102 0 -189 65 -189 172c0 120 101 186 214 186c53 0 106 -17 136 -38v140h-220v52h220v68h58v-68h100v-52h-100v-436l-58 -16v64zM414 390c-30 22 -80 36 -132 36c-82 0 -156 -39 -156 -133c0 -79 64 -120 137 -120
c70 0 120 35 151 66v151zM109 52h368v-52h-368v52z" />
    <glyph glyph-name="asciicircum" unicode="^" horiz-adv-x="462" 
d="M262 701l167 -282h-57l-141 212l-140 -212h-57l166 282h62z" />
    <glyph glyph-name="asciitilde" unicode="~" horiz-adv-x="570" 
d="M362 228c-74 0 -104 108 -157 108c-50 0 -73 -61 -85 -111h-50c15 102 72 171 138 171c74 0 104 -108 157 -108c50 0 73 61 85 111h50c-16 -102 -72 -171 -138 -171z" />
    <glyph glyph-name="acute" unicode="&#xb4;" horiz-adv-x="523" 
d="M185 612l71 179h82l-117 -179h-36z" />
    <glyph glyph-name="grave" unicode="`" horiz-adv-x="523" 
d="M301 612l-116 179h82l71 -179h-37z" />
    <glyph glyph-name="hungarumlaut" unicode="&#x2dd;" horiz-adv-x="523" 
d="M175 791h81l-114 -179h-38zM339 791h81l-114 -179h-38z" />
    <glyph glyph-name="circumflex" unicode="&#x2c6;" horiz-adv-x="523" 
d="M290 791l110 -179h-45l-93 121l-93 -121h-44l110 179h55z" />
    <glyph glyph-name="caron" unicode="&#x2c7;" horiz-adv-x="523" 
d="M235 612l-110 179h44l93 -121l93 121h45l-110 -179h-55z" />
    <glyph glyph-name="breve" unicode="&#x2d8;" horiz-adv-x="523" 
d="M261 612c-89 0 -137 76 -137 179h47c4 -74 32 -130 90 -130c59 0 87 56 90 130h48c0 -103 -48 -179 -138 -179z" />
    <glyph glyph-name="tilde" unicode="&#x2dc;" horiz-adv-x="523" 
d="M326 627c-60 0 -90 105 -136 105c-33 0 -44 -46 -52 -105h-45c3 85 38 162 104 162c60 0 90 -105 135 -105c33 0 45 46 52 105h46c-4 -86 -38 -162 -104 -162z" />
    <glyph glyph-name="macron" unicode="&#xaf;" horiz-adv-x="523" 
d="M128 656v50h266v-50h-266z" />
    <glyph glyph-name="dieresis" unicode="&#xa8;" horiz-adv-x="523" 
d="M129 709c0 24 20 45 46 45c24 0 45 -21 45 -45c0 -26 -21 -46 -45 -46c-26 0 -46 20 -46 46zM302 709c0 24 20 45 46 45c24 0 45 -21 45 -45c0 -26 -21 -46 -45 -46c-26 0 -46 20 -46 46z" />
    <glyph glyph-name="dotaccent" unicode="&#x2d9;" horiz-adv-x="523" 
d="M216 709c0 24 20 45 45 45s46 -21 46 -45c0 -26 -21 -46 -46 -46s-45 20 -45 46z" />
    <glyph glyph-name="ring" unicode="&#x2da;" horiz-adv-x="523" 
d="M345 699c0 -58 -47 -104 -104 -104c-55 0 -103 46 -103 104c0 56 48 103 103 103c57 0 104 -47 104 -103zM180 699c0 -34 28 -64 61 -64c35 0 62 29 62 64c0 33 -27 63 -62 63c-33 0 -61 -30 -61 -63z" />
    <glyph glyph-name="cedilla" unicode="&#xb8;" horiz-adv-x="523" 
d="M361 -145c0 -60 -62 -94 -121 -94c-42 0 -76 9 -100 24v50c40 -27 74 -30 100 -30c40 0 70 17 70 47c0 39 -39 52 -103 52l30 103h40l-19 -63c60 -9 103 -39 103 -89z" />
    <glyph glyph-name="ogonek" unicode="&#x2db;" horiz-adv-x="523" 
d="M385 8c-55 -59 -83 -98 -83 -147c0 -34 23 -54 48 -54c14 0 22 2 35 7v-46c-12 -4 -23 -7 -40 -7c-45 0 -94 27 -94 91c0 71 43 119 112 182z" />
    <glyph glyph-name="copyright" unicode="&#xa9;" horiz-adv-x="789" 
d="M395 712c200 0 360 -151 360 -361s-160 -362 -360 -362s-361 152 -361 362s161 361 361 361zM395 35c174 0 313 134 313 316c0 183 -139 316 -313 316c-175 0 -314 -133 -314 -316c0 -182 139 -316 314 -316zM224 350c0 121 84 206 194 206c31 0 66 -8 88 -24v-56
c-21 16 -58 27 -89 27c-73 0 -132 -59 -132 -153s59 -144 132 -144c31 0 68 11 89 26v-54c-22 -18 -57 -25 -88 -25c-110 0 -194 76 -194 197z" />
    <glyph glyph-name="registered" unicode="&#xae;" horiz-adv-x="789" 
d="M395 712c200 0 360 -151 360 -361s-160 -362 -360 -362s-361 152 -361 362s161 361 361 361zM395 35c174 0 313 134 313 316c0 183 -139 316 -313 316c-175 0 -314 -133 -314 -316c0 -182 139 -316 314 -316zM499 165l-106 152h-67v-152h-54v387h111
c91 0 143 -44 143 -116c0 -52 -38 -91 -80 -106l120 -165h-67zM326 365h83c30 9 58 28 58 71c0 44 -31 67 -87 67h-54v-138z" />
    <glyph glyph-name="trademark" unicode="&#x2122;" horiz-adv-x="702" 
d="M125 375v281h-99v45h250v-45h-99v-281h-52zM465 460l-61 185h-5l-19 -270h-51l28 326h77l52 -173h6l52 173h74l28 -326h-51l-19 270h-6l-61 -185h-44z" />
    <glyph glyph-name="degree" unicode="&#xb0;" horiz-adv-x="364" 
d="M181 712c84 0 150 -66 150 -147c0 -83 -66 -150 -150 -150c-80 0 -147 67 -147 150c0 81 67 147 147 147zM181 466c56 0 98 44 98 99c0 53 -42 97 -98 97c-53 0 -96 -44 -96 -97c0 -54 42 -99 96 -99z" />
    <glyph glyph-name="uni00200326" horiz-adv-x="431" 
d="M266 -50c0 -72 -51 -150 -99 -178h-44c36 32 78 105 78 178h65z" />
    <glyph glyph-name="uni00200326.alt" horiz-adv-x="431" 
d="M145 613c0 72 51 150 98 178h45c-37 -32 -79 -105 -79 -178h-64z" />
    <glyph glyph-name="i.dot" 
d="M74 709c0 24 20 45 45 45s46 -21 46 -45c0 -26 -21 -46 -46 -46s-45 20 -45 46zM90 502l59 12v-514h-59v502z" />
    <glyph glyph-name="uni00B9" unicode="&#xb9;" horiz-adv-x="231" 
d="M107 337v306l-93 -33v46l122 51h25v-370h-54z" />
    <glyph glyph-name="uni00B3" unicode="&#xb3;" horiz-adv-x="288" 
d="M16 406c27 -19 59 -28 95 -28c56 0 97 29 97 75c0 45 -35 69 -118 69v18l95 113h-154v48h214v-43l-90 -105c55 -6 108 -38 108 -98c0 -75 -70 -123 -148 -123c-41 0 -73 9 -99 25v49z" />
    <glyph glyph-name="uni00B2" unicode="&#xb2;" horiz-adv-x="284" 
d="M196 595c0 39 -25 63 -68 63c-38 0 -77 -20 -104 -44v53c26 21 68 40 113 40c74 0 116 -45 116 -104c0 -72 -80 -156 -164 -219h178v-47h-252v38c95 78 181 158 181 220z" />
    <glyph glyph-name="uni0237" unicode="&#x237;" 
d="M149 5c-3 -126 -32 -175 -78 -233h-67c59 65 82 125 86 233v497l59 12v-509z" />
    <glyph glyph-name="f_f.short" horiz-adv-x="652" 
d="M99 0v461h-77v49h77v34c0 157 89 239 215 239c25 0 44 -1 72 -10v-50c-29 9 -47 9 -72 9c-102 0 -156 -63 -156 -188v-34h274v52c0 151 78 240 197 240c14 0 30 -2 35 -4v-50c-11 2 -21 3 -35 3c-96 0 -138 -70 -138 -189v-52h176l-12 -49h-164v-461h-59v461h-274v-461
h-59z" />
    <glyph glyph-name="f.short" horiz-adv-x="319" 
d="M158 0h-59v461h-77v49h77v52c0 151 78 240 197 240c14 0 30 -2 35 -4v-50c-11 2 -21 3 -35 3c-96 0 -138 -70 -138 -189v-52h176l-12 -49h-164v-461z" />
    <glyph glyph-name="five.op" horiz-adv-x="512" 
d="M402 94c0 131 -118 184 -311 206l24 280h324v-54h-281l-12 -181c141 -15 316 -81 316 -242c0 -146 -129 -236 -274 -236c-74 0 -132 19 -179 50v60c54 -41 116 -56 180 -56c121 0 213 66 213 173z" />
    <glyph glyph-name="six.op" horiz-adv-x="559" 
d="M518 209c0 -131 -96 -220 -222 -220c-142 0 -253 130 -253 321c0 237 150 401 353 401c47 0 91 -9 119 -23v-49c-30 12 -70 20 -119 20c-167 0 -292 -129 -292 -349v-9c42 70 128 111 196 111c116 0 218 -73 218 -203zM296 41c91 0 164 53 164 160
c0 100 -73 161 -167 161c-72 0 -148 -45 -186 -105c16 -136 95 -216 189 -216z" />
    <glyph glyph-name="eight.op" horiz-adv-x="543" 
d="M269 -11c-129 0 -231 82 -231 193c0 95 85 163 165 191c-69 34 -125 87 -125 161c0 104 86 177 196 177c108 0 199 -65 199 -169c0 -78 -55 -143 -133 -178c78 -40 165 -74 165 -180c0 -112 -101 -195 -236 -195zM301 384c65 32 116 89 116 153c0 77 -58 127 -144 127
c-83 0 -137 -54 -137 -121c0 -66 44 -98 108 -130zM269 40c99 0 178 54 178 143c0 60 -59 98 -141 139l-61 30c-79 -30 -147 -84 -147 -170c0 -78 72 -142 171 -142z" />
    <glyph glyph-name="zero.op" horiz-adv-x="572" 
d="M286 -11c-132 0 -243 122 -243 301s111 301 243 301s243 -122 243 -301s-111 -301 -243 -301zM286 42c109 0 184 104 184 248s-75 248 -184 248s-184 -104 -184 -248s75 -248 184 -248z" />
    <glyph glyph-name="nine.op" horiz-adv-x="559" 
d="M41 371c0 131 96 220 222 220c142 0 253 -130 253 -321c0 -237 -150 -401 -353 -401c-47 0 -91 9 -119 23v49c30 -12 70 -20 119 -20c167 0 292 129 292 349v9c-42 -70 -128 -111 -196 -111c-116 0 -218 73 -218 203zM263 539c-91 0 -164 -53 -164 -160
c0 -100 73 -161 167 -161c72 0 148 45 186 105c-16 136 -95 216 -189 216z" />
    <glyph glyph-name="two.op" horiz-adv-x="525" 
d="M394 414c0 79 -61 123 -142 123c-80 0 -153 -40 -198 -88v61c44 44 120 81 199 81c123 0 201 -76 201 -178c0 -125 -130 -234 -328 -362h357v-51h-440v42c229 163 351 252 351 372z" />
    <glyph glyph-name="seven.op" horiz-adv-x="500" 
d="M95 -122c157 204 259 437 316 646h-389v56h448v-40c-33 -151 -175 -512 -306 -662h-69z" />
    <glyph glyph-name="one.op" horiz-adv-x="401" 
d="M221 0v515l-185 -72v48l208 94h36v-585h-59z" />
    <glyph glyph-name="three.op" horiz-adv-x="527" 
d="M24 -23c53 -41 115 -56 180 -56c120 0 212 70 212 173c0 102 -78 157 -242 157v23l203 253h-324v53h388v-54l-191 -231c116 -7 226 -74 226 -192c0 -142 -128 -236 -273 -236c-75 0 -132 19 -179 50v60z" />
    <glyph glyph-name="four.op" horiz-adv-x="565" 
d="M327 -122v199h-299v37c43 137 155 348 258 466h69c-117 -129 -210 -310 -266 -453h238v190h58v-190h160v-50h-160v-199h-58z" />
    </font>
</defs>
</svg>
