<?xml version="1.0" standalone="no"?>
<!DOCTYPE svg PUBLIC "-//W3C//DTD SVG 1.1//EN" "http://www.w3.org/Graphics/SVG/1.1/DTD/svg11.dtd" >
<svg xmlns="http://www.w3.org/2000/svg" xmlns:xlink="http://www.w3.org/1999/xlink" version="1.1">
<metadata>
Created by FontForge 20150804 at Tue Jan 23 02:49:36 2018
 By cloudconvert
\(c\) 2015 Klim Type Foundry. All Rights Reserved.
</metadata>
<defs>
<font id="PayPalSansSmall-Regular" horiz-adv-x="589" >
  <font-face 
    font-family="PayPal Sans Small"
    font-weight="400"
    font-variant="small-caps"
    font-stretch="normal"
    units-per-em="1024"
    panose-1="2 11 5 3 4 5 4 4 2 4"
    ascent="819"
    descent="-205"
    x-height="512"
    cap-height="700"
    bbox="-45 -227 1157 995"
    underline-thickness="73"
    underline-position="-200"
    stemh="76"
    stemv="88"
    unicode-range="U+0020-FB02"
  />
<missing-glyph horiz-adv-x="277" 
 />
    <glyph glyph-name="f_b" unicode="fb" horiz-adv-x="902" 
d="M853 269c0 -169 -117 -280 -265 -280c-63 0 -120 13 -174 43v659c-19 6 -35 9 -61 9c-95 0 -150 -57 -150 -170v-18h137v-71h-137v-441h-88v441h-75v71h75v18c0 147 95 243 240 243c55 0 108 -12 147 -28v-288c29 29 85 66 148 66c124 0 203 -96 203 -254zM502 77
c23 -12 54 -19 87 -19c102 0 176 84 176 207c0 118 -55 184 -137 184c-52 0 -98 -24 -126 -50v-322z" />
    <glyph glyph-name="f_f_b" unicode="ffb" horiz-adv-x="1202" 
d="M1153 269c0 -169 -117 -280 -265 -280c-63 0 -120 13 -174 43v659c-19 6 -35 9 -61 9c-95 0 -150 -57 -150 -170v-18h137v-71h-137v-441h-88v441h-212v-441h-88v441h-75v71h75v13c0 145 80 232 194 232c28 0 45 -4 64 -10v-71c-19 5 -33 7 -54 7
c-79 0 -116 -52 -116 -158v-13h212v18c0 147 95 243 240 243c55 0 108 -12 147 -28v-288c29 29 85 66 148 66c124 0 203 -96 203 -254zM802 77c23 -12 54 -19 87 -19c102 0 176 84 176 207c0 118 -55 184 -137 184c-52 0 -98 -24 -126 -50v-322z" />
    <glyph glyph-name="f_f_h" unicode="ffh" horiz-adv-x="1197" 
d="M115 0v441h-75v71h75v13c0 145 80 232 194 232c28 0 45 -4 64 -10v-71c-19 5 -33 7 -54 7c-79 0 -116 -52 -116 -158v-13h212v18c0 147 95 243 240 243c55 0 108 -12 147 -28v-288c31 27 89 66 158 66c102 0 150 -69 150 -173v-350h-88v336c0 73 -25 111 -93 111
c-51 0 -91 -21 -127 -48v-399h-88v691c-19 6 -35 9 -61 9c-95 0 -150 -57 -150 -170v-18h137v-71h-137v-441h-88v441h-212v-441h-88z" />
    <glyph glyph-name="f_f_idieresis" unicode="ff&#xef;" horiz-adv-x="896" 
d="M115 0v441h-75v71h75v13c0 145 80 232 194 232c28 0 45 -4 64 -10v-71c-19 5 -33 7 -54 7c-79 0 -116 -52 -116 -158v-13h212v24c0 147 85 237 207 237c33 0 54 -4 78 -12v-73c-25 7 -44 9 -69 9c-88 0 -128 -55 -128 -163v-22h299v-512h-88v441h-211v-441h-88v441h-212
v-441h-88zM794 672c0 33 25 60 59 60s59 -27 59 -60s-25 -59 -59 -59s-59 26 -59 59z" />
    <glyph glyph-name="f_f_j" unicode="ffj" horiz-adv-x="896" 
d="M802 7c0 -95 -38 -164 -91 -222h-100c61 64 103 143 103 229v427h-211v-441h-88v441h-212v-441h-88v441h-75v71h75v13c0 145 80 232 194 232c28 0 45 -4 64 -10v-71c-19 5 -33 7 -54 7c-79 0 -116 -52 -116 -158v-13h212v17c0 148 95 244 226 244c42 0 80 -9 108 -26v-75
c-31 15 -63 25 -102 25c-86 0 -144 -52 -144 -168v-17h299v-505z" />
    <glyph glyph-name="f_f_k" unicode="ffk" horiz-adv-x="1162" 
d="M115 0v441h-75v71h75v13c0 145 80 232 194 232c28 0 45 -4 64 -10v-71c-19 5 -33 7 -54 7c-79 0 -116 -52 -116 -158v-13h212v18c0 147 95 243 240 243c55 0 108 -12 147 -28v-449l222 216h109l-239 -227l263 -285h-110l-245 265v-265h-88v691c-19 6 -35 9 -61 9
c-95 0 -150 -57 -150 -170v-18h137v-71h-137v-441h-88v441h-212v-441h-88z" />
    <glyph glyph-name="f_h" unicode="fh" horiz-adv-x="897" 
d="M203 0h-88v441h-75v71h75v18c0 147 95 243 240 243c55 0 108 -12 147 -28v-288c31 27 89 66 158 66c102 0 150 -69 150 -173v-350h-88v336c0 73 -25 111 -93 111c-51 0 -91 -21 -127 -48v-399h-88v691c-19 6 -35 9 -61 9c-95 0 -150 -57 -150 -170v-18h137v-71h-137v-441
z" />
    <glyph glyph-name="f_idieresis" unicode="f&#xef;" horiz-adv-x="596" 
d="M115 0v441h-75v71h75v24c0 147 85 237 207 237c33 0 54 -4 78 -12v-73c-25 7 -44 9 -69 9c-88 0 -128 -55 -128 -163v-22h299v-512h-88v441h-211v-441h-88zM494 672c0 33 25 60 59 60s59 -27 59 -60s-25 -59 -59 -59s-59 26 -59 59z" />
    <glyph glyph-name="f_j" unicode="fj" horiz-adv-x="596" 
d="M502 7c0 -95 -38 -164 -91 -222h-100c61 64 103 143 103 229v427h-211v-441h-88v441h-75v71h75v17c0 148 95 244 226 244c42 0 80 -9 108 -26v-75c-31 15 -63 25 -102 25c-86 0 -144 -52 -144 -168v-17h299v-505z" />
    <glyph glyph-name="f_k" unicode="fk" horiz-adv-x="863" 
d="M203 0h-88v441h-75v71h75v18c0 147 95 243 240 243c55 0 108 -12 147 -28v-449l222 216h109l-239 -227l263 -285h-110l-245 265v-265h-88v691c-19 6 -35 9 -61 9c-95 0 -150 -57 -150 -170v-18h137v-71h-137v-441z" />
    <glyph glyph-name="f_f" unicode="ff" horiz-adv-x="658" 
d="M115 0v441h-75v71h75v13c0 145 80 232 194 232c28 0 45 -4 64 -10v-71c-19 5 -33 7 -54 7c-79 0 -116 -52 -116 -158v-13h211v25c0 147 82 236 199 236c29 0 48 -4 71 -12v-72c-22 6 -37 8 -60 8c-83 0 -122 -53 -122 -160v-25h143v-71h-143v-441h-88v441h-211v-441h-88z
" />
    <glyph glyph-name="f_f_i" unicode="ffi" horiz-adv-x="896" 
d="M115 0v441h-75v71h75v13c0 145 80 232 194 232c28 0 45 -4 64 -10v-71c-19 5 -33 7 -54 7c-79 0 -116 -52 -116 -158v-13h212v17c0 148 95 244 226 244c42 0 80 -9 108 -26v-75c-31 15 -63 25 -102 25c-86 0 -144 -52 -144 -168v-17h299v-512h-88v441h-211v-441h-88v441
h-212v-441h-88z" />
    <glyph glyph-name="f_f_l" unicode="ffl" horiz-adv-x="896" 
d="M115 0v441h-75v71h75v13c0 145 80 232 194 232c28 0 45 -4 64 -10v-71c-19 5 -33 7 -54 7c-79 0 -116 -52 -116 -158v-13h212v18c0 147 95 243 240 243c55 0 108 -12 147 -28v-745h-88v691c-19 6 -35 9 -61 9c-95 0 -150 -57 -150 -170v-18h137v-71h-137v-441h-88v441
h-212v-441h-88z" />
    <glyph glyph-name="fi" unicode="fi" horiz-adv-x="596" 
d="M115 0v441h-75v71h75v17c0 148 95 244 226 244c42 0 80 -9 108 -26v-75c-31 15 -63 25 -102 25c-86 0 -144 -52 -144 -168v-17h299v-512h-88v441h-211v-441h-88z" />
    <glyph glyph-name="fl" unicode="fl" horiz-adv-x="596" 
d="M203 0h-88v441h-75v71h75v18c0 147 95 243 240 243c55 0 108 -12 147 -28v-745h-88v691c-19 6 -35 9 -61 9c-95 0 -150 -57 -150 -170v-18h137v-71h-137v-441z" />
    <glyph glyph-name=".notdef" horiz-adv-x="277" 
 />
    <glyph glyph-name="space" unicode=" " horiz-adv-x="282" 
 />
    <glyph glyph-name="A" unicode="A" horiz-adv-x="637" 
d="M450 215h-266l-73 -215h-89l246 700h101l246 -700h-92zM209 290h216l-106 314h-3z" />
    <glyph glyph-name="Agrave" unicode="&#xc0;" horiz-adv-x="637" 
d="M295 762l-118 178h112l65 -178h-59zM450 215h-266l-73 -215h-89l246 700h101l246 -700h-92zM209 290h216l-106 314h-3z" />
    <glyph glyph-name="Aacute" unicode="&#xc1;" horiz-adv-x="637" 
d="M292 762l64 178h113l-119 -178h-58zM450 215h-266l-73 -215h-89l246 700h101l246 -700h-92zM209 290h216l-106 314h-3z" />
    <glyph glyph-name="Acircumflex" unicode="&#xc2;" horiz-adv-x="637" 
d="M368 940l98 -178h-55l-93 117l-92 -117h-56l99 178h99zM450 215h-266l-73 -215h-89l246 700h101l246 -700h-92zM209 290h216l-106 314h-3z" />
    <glyph glyph-name="Atilde" unicode="&#xc3;" horiz-adv-x="637" 
d="M381 761c-60 0 -100 100 -141 100c-32 0 -49 -47 -56 -99h-57c3 90 51 172 117 172c60 0 100 -99 140 -99c33 0 50 46 57 99h57c-4 -92 -51 -173 -117 -173zM450 215h-266l-73 -215h-89l246 700h101l246 -700h-92zM209 290h216l-106 314h-3z" />
    <glyph glyph-name="Adieresis" unicode="&#xc4;" horiz-adv-x="637" 
d="M161 841c0 33 25 59 59 59c35 0 60 -26 60 -59s-25 -59 -60 -59c-34 0 -59 26 -59 59zM357 841c0 33 26 59 59 59c34 0 59 -26 59 -59s-25 -59 -59 -59c-33 0 -59 26 -59 59zM450 215h-266l-73 -215h-89l246 700h101l246 -700h-92zM209 290h216l-106 314h-3z" />
    <glyph glyph-name="Aring" unicode="&#xc5;" horiz-adv-x="637" 
d="M111 0h-89l238 677c-42 22 -72 66 -72 114c0 69 60 128 128 128c70 0 129 -59 129 -128c0 -47 -28 -90 -69 -112l239 -679h-92l-73 215h-266zM245 791c0 -40 31 -71 71 -71c41 0 72 31 72 71s-31 72 -72 72c-40 0 -71 -32 -71 -72zM209 290h216l-106 314h-3z" />
    <glyph glyph-name="Amacron" unicode="&#x100;" horiz-adv-x="637" 
d="M164 786v71h309v-71h-309zM450 215h-266l-73 -215h-89l246 700h101l246 -700h-92zM209 290h216l-106 314h-3z" />
    <glyph glyph-name="Abreve" unicode="&#x102;" horiz-adv-x="637" 
d="M318 762c-98 0 -149 75 -149 178h60c4 -63 29 -109 89 -109c61 0 86 46 89 109h61c0 -103 -51 -178 -150 -178zM450 215h-266l-73 -215h-89l246 700h101l246 -700h-92zM209 290h216l-106 314h-3z" />
    <glyph glyph-name="Aogonek" unicode="&#x104;" horiz-adv-x="637" 
d="M614 -201c-23 -16 -58 -25 -91 -25c-60 0 -104 39 -104 90c0 55 40 102 101 145l-70 206h-266l-73 -215h-89l246 700h101l246 -700h-37c-63 -46 -92 -82 -92 -123c0 -27 19 -43 50 -43c23 0 47 6 78 21v-56zM209 290h216l-106 314h-3z" />
    <glyph glyph-name="B" unicode="B" horiz-adv-x="617" 
d="M413 370c89 -16 155 -80 155 -172c0 -122 -83 -198 -228 -198h-237v700h200c145 0 225 -64 225 -182c0 -86 -59 -133 -115 -148zM193 398h99c95 0 146 36 146 112c0 79 -51 114 -146 114h-99v-226zM477 201c0 74 -45 123 -142 123h-142v-248h142c97 0 142 51 142 125z
" />
    <glyph glyph-name="C" unicode="C" horiz-adv-x="562" 
d="M49 350c0 224 139 361 310 361c52 0 110 -15 148 -45v-88c-38 35 -89 52 -146 52c-127 0 -219 -111 -219 -280c0 -168 92 -279 219 -279c57 0 108 17 146 52v-89c-38 -30 -96 -45 -148 -45c-171 0 -310 138 -310 361z" />
    <glyph glyph-name="Ccedilla" unicode="&#xc7;" horiz-adv-x="562" 
d="M300 -226c-43 0 -77 9 -100 25v58c34 -20 62 -28 97 -28c36 0 65 14 65 42c0 29 -37 40 -96 40l34 84c-143 28 -251 158 -251 355c0 224 139 361 310 361c52 0 110 -15 148 -45v-88c-38 35 -89 52 -146 52c-127 0 -219 -111 -219 -280c0 -168 92 -279 219 -279
c57 0 108 17 146 52v-89c-38 -30 -96 -45 -148 -45h-18l-14 -37c60 -8 98 -34 98 -81c0 -62 -59 -97 -125 -97z" />
    <glyph glyph-name="Cacute" unicode="&#x106;" horiz-adv-x="562" 
d="M304 762l64 178h113l-119 -178h-58zM49 350c0 224 139 361 310 361c52 0 110 -15 148 -45v-88c-38 35 -89 52 -146 52c-127 0 -219 -111 -219 -280c0 -168 92 -279 219 -279c57 0 108 17 146 52v-89c-38 -30 -96 -45 -148 -45c-171 0 -310 138 -310 361z" />
    <glyph glyph-name="Ccircumflex" unicode="&#x108;" horiz-adv-x="562" 
d="M387 940l98 -178h-55l-93 117l-92 -117h-56l99 178h99zM49 350c0 224 139 361 310 361c52 0 110 -15 148 -45v-88c-38 35 -89 52 -146 52c-127 0 -219 -111 -219 -280c0 -168 92 -279 219 -279c57 0 108 17 146 52v-89c-38 -30 -96 -45 -148 -45
c-171 0 -310 138 -310 361z" />
    <glyph glyph-name="Cdotaccent" unicode="&#x10a;" horiz-adv-x="562" 
d="M273 848c0 36 26 65 64 65s64 -29 64 -65s-26 -63 -64 -63s-64 27 -64 63zM49 350c0 224 139 361 310 361c52 0 110 -15 148 -45v-88c-38 35 -89 52 -146 52c-127 0 -219 -111 -219 -280c0 -168 92 -279 219 -279c57 0 108 17 146 52v-89c-38 -30 -96 -45 -148 -45
c-171 0 -310 138 -310 361z" />
    <glyph glyph-name="Ccaron" unicode="&#x10c;" horiz-adv-x="562" 
d="M288 762l-99 178h56l92 -117l93 117h55l-98 -178h-99zM49 350c0 224 139 361 310 361c52 0 110 -15 148 -45v-88c-38 35 -89 52 -146 52c-127 0 -219 -111 -219 -280c0 -168 92 -279 219 -279c57 0 108 17 146 52v-89c-38 -30 -96 -45 -148 -45c-171 0 -310 138 -310 361
z" />
    <glyph glyph-name="D" unicode="D" horiz-adv-x="674" 
d="M103 700h189c203 0 333 -131 333 -349c0 -220 -130 -351 -333 -351h-189v700zM289 77c160 0 243 108 243 274s-83 272 -243 272h-95v-546h95z" />
    <glyph glyph-name="Dcaron" unicode="&#x10e;" horiz-adv-x="674" 
d="M287 762l-99 178h56l92 -117l93 117h55l-98 -178h-99zM103 700h189c203 0 333 -131 333 -349c0 -220 -130 -351 -333 -351h-189v700zM289 77c160 0 243 108 243 274s-83 272 -243 272h-95v-546h95z" />
    <glyph glyph-name="E" unicode="E" horiz-adv-x="598" 
d="M103 700h407v-77h-317v-224h286v-77h-286v-245h330v-77h-420v700z" />
    <glyph glyph-name="Egrave" unicode="&#xc8;" horiz-adv-x="598" 
d="M299 762l-118 178h112l65 -178h-59zM103 700h407v-77h-317v-224h286v-77h-286v-245h330v-77h-420v700z" />
    <glyph glyph-name="Eacute" unicode="&#xc9;" horiz-adv-x="598" 
d="M270 762l64 178h113l-119 -178h-58zM103 700h407v-77h-317v-224h286v-77h-286v-245h330v-77h-420v700z" />
    <glyph glyph-name="Ecircumflex" unicode="&#xca;" horiz-adv-x="598" 
d="M361 940l98 -178h-55l-93 117l-92 -117h-56l99 178h99zM103 700h407v-77h-317v-224h286v-77h-286v-245h330v-77h-420v700z" />
    <glyph glyph-name="Edieresis" unicode="&#xcb;" horiz-adv-x="598" 
d="M154 841c0 33 25 59 59 59c35 0 60 -26 60 -59s-25 -59 -60 -59c-34 0 -59 26 -59 59zM350 841c0 33 26 59 59 59c34 0 59 -26 59 -59s-25 -59 -59 -59c-33 0 -59 26 -59 59zM103 700h407v-77h-317v-224h286v-77h-286v-245h330v-77h-420v700z" />
    <glyph glyph-name="Emacron" unicode="&#x112;" horiz-adv-x="598" 
d="M157 786v71h309v-71h-309zM103 700h407v-77h-317v-224h286v-77h-286v-245h330v-77h-420v700z" />
    <glyph glyph-name="Ebreve" unicode="&#x114;" horiz-adv-x="598" 
d="M311 762c-98 0 -149 75 -149 178h60c4 -63 29 -109 89 -109c61 0 86 46 89 109h61c0 -103 -51 -178 -150 -178zM103 700h407v-77h-317v-224h286v-77h-286v-245h330v-77h-420v700z" />
    <glyph glyph-name="Edotaccent" unicode="&#x116;" horiz-adv-x="598" 
d="M247 848c0 36 26 65 64 65s64 -29 64 -65s-26 -63 -64 -63s-64 27 -64 63zM103 700h407v-77h-317v-224h286v-77h-286v-245h330v-77h-420v700z" />
    <glyph glyph-name="Eogonek" unicode="&#x118;" horiz-adv-x="598" 
d="M510 -201c-23 -16 -58 -25 -91 -25c-60 0 -104 39 -104 90s35 96 89 136h-301v700h407v-77h-317v-224h286v-77h-286v-245h330v-77h-49c-63 -46 -92 -82 -92 -123c0 -27 19 -43 50 -43c23 0 47 6 78 21v-56z" />
    <glyph glyph-name="Ecaron" unicode="&#x11a;" horiz-adv-x="598" 
d="M262 762l-99 178h56l92 -117l93 117h55l-98 -178h-99zM103 700h407v-77h-317v-224h286v-77h-286v-245h330v-77h-420v700z" />
    <glyph glyph-name="F" unicode="F" horiz-adv-x="555" 
d="M103 0v700h400v-77h-310v-228h282v-78h-282v-317h-90z" />
    <glyph glyph-name="G" unicode="G" horiz-adv-x="615" 
d="M546 15c-45 -16 -106 -26 -160 -26c-173 0 -337 120 -337 353c0 223 149 369 336 369c61 0 117 -15 157 -45v-89c-41 35 -96 53 -155 53c-141 0 -245 -119 -245 -288c0 -186 123 -274 241 -274c30 0 48 2 74 10v250h89v-313z" />
    <glyph glyph-name="Gcircumflex" unicode="&#x11c;" horiz-adv-x="615" 
d="M415 940l98 -178h-55l-93 117l-92 -117h-56l99 178h99zM546 15c-45 -16 -106 -26 -160 -26c-173 0 -337 120 -337 353c0 223 149 369 336 369c61 0 117 -15 157 -45v-89c-41 35 -96 53 -155 53c-141 0 -245 -119 -245 -288c0 -186 123 -274 241 -274c30 0 48 2 74 10v250
h89v-313z" />
    <glyph glyph-name="Gbreve" unicode="&#x11e;" horiz-adv-x="615" 
d="M365 762c-98 0 -149 75 -149 178h60c4 -63 29 -109 89 -109c61 0 86 46 89 109h61c0 -103 -51 -178 -150 -178zM546 15c-45 -16 -106 -26 -160 -26c-173 0 -337 120 -337 353c0 223 149 369 336 369c61 0 117 -15 157 -45v-89c-41 35 -96 53 -155 53
c-141 0 -245 -119 -245 -288c0 -186 123 -274 241 -274c30 0 48 2 74 10v250h89v-313z" />
    <glyph glyph-name="Gdotaccent" unicode="&#x120;" horiz-adv-x="615" 
d="M301 848c0 36 26 65 64 65s64 -29 64 -65s-26 -63 -64 -63s-64 27 -64 63zM546 15c-45 -16 -106 -26 -160 -26c-173 0 -337 120 -337 353c0 223 149 369 336 369c61 0 117 -15 157 -45v-89c-41 35 -96 53 -155 53c-141 0 -245 -119 -245 -288c0 -186 123 -274 241 -274
c30 0 48 2 74 10v250h89v-313z" />
    <glyph glyph-name="uni0122" unicode="&#x122;" horiz-adv-x="615" 
d="M546 15c-45 -16 -106 -26 -160 -26c-173 0 -337 120 -337 353c0 223 149 369 336 369c61 0 117 -15 157 -45v-89c-41 35 -96 53 -155 53c-141 0 -245 -119 -245 -288c0 -186 123 -274 241 -274c30 0 48 2 74 10v250h89v-313zM424 -37c0 -79 -50 -161 -97 -189h-65
c40 41 71 116 71 189h91z" />
    <glyph glyph-name="H" unicode="H" horiz-adv-x="726" 
d="M532 322h-338v-322h-91v700h91v-301h338v301h91v-700h-91v322z" />
    <glyph glyph-name="Hcircumflex" unicode="&#x124;" horiz-adv-x="726" 
d="M413 940l98 -178h-55l-93 117l-92 -117h-56l99 178h99zM532 322h-338v-322h-91v700h91v-301h338v301h91v-700h-91v322z" />
    <glyph glyph-name="I" unicode="I" horiz-adv-x="297" 
d="M103 700h91v-700h-91v700z" />
    <glyph glyph-name="Igrave" unicode="&#xcc;" horiz-adv-x="297" 
d="M126 762l-118 178h112l65 -178h-59zM103 700h91v-700h-91v700z" />
    <glyph glyph-name="Iacute" unicode="&#xcd;" horiz-adv-x="297" 
d="M121 762l64 178h113l-119 -178h-58zM103 700h91v-700h-91v700z" />
    <glyph glyph-name="Icircumflex" unicode="&#xce;" horiz-adv-x="297" 
d="M198 940l98 -178h-55l-93 117l-92 -117h-56l99 178h99zM103 700h91v-700h-91v700z" />
    <glyph glyph-name="Idieresis" unicode="&#xcf;" horiz-adv-x="297" 
d="M-9 841c0 33 25 59 59 59c35 0 60 -26 60 -59s-25 -59 -60 -59c-34 0 -59 26 -59 59zM187 841c0 33 26 59 59 59c34 0 59 -26 59 -59s-25 -59 -59 -59c-33 0 -59 26 -59 59zM103 700h91v-700h-91v700z" />
    <glyph glyph-name="Itilde" unicode="&#x128;" horiz-adv-x="297" 
d="M218 761c-60 0 -100 100 -141 100c-32 0 -49 -47 -56 -99h-57c3 90 51 172 117 172c60 0 100 -99 140 -99c33 0 50 46 57 99h57c-4 -92 -51 -173 -117 -173zM103 700h91v-700h-91v700z" />
    <glyph glyph-name="Imacron" unicode="&#x12a;" horiz-adv-x="297" 
d="M-6 786v71h309v-71h-309zM103 700h91v-700h-91v700z" />
    <glyph glyph-name="Ibreve" unicode="&#x12c;" horiz-adv-x="297" 
d="M148 762c-98 0 -149 75 -149 178h60c4 -63 29 -109 89 -109c61 0 86 46 89 109h61c0 -103 -51 -178 -150 -178zM103 700h91v-700h-91v700z" />
    <glyph glyph-name="Iogonek" unicode="&#x12e;" horiz-adv-x="297" 
d="M224 -201c-23 -16 -57 -25 -90 -25c-61 0 -104 39 -104 90s39 95 92 136h-19v701h91v-701c-65 -45 -97 -82 -97 -123c0 -27 18 -43 50 -43c23 0 46 6 77 21v-56z" />
    <glyph glyph-name="Idotaccent" unicode="&#x130;" horiz-adv-x="297" 
d="M84 848c0 36 26 65 64 65s64 -29 64 -65s-26 -63 -64 -63s-64 27 -64 63zM103 700h91v-700h-91v700z" />
    <glyph glyph-name="J" unicode="J" horiz-adv-x="297" 
d="M194 115c0 -142 -34 -219 -88 -284h-105c64 72 102 151 102 286v583h91v-585z" />
    <glyph glyph-name="Jcircumflex" unicode="&#x134;" horiz-adv-x="297" 
d="M196 940l98 -178h-55l-93 117l-92 -117h-56l99 178h99zM194 115c0 -142 -34 -219 -88 -284h-105c64 72 102 151 102 286v583h91v-585z" />
    <glyph glyph-name="K" unicode="K" horiz-adv-x="623" 
d="M194 349v-349h-91v700h91v-320l291 320h109l-307 -328l333 -372h-112z" />
    <glyph glyph-name="uni0136" unicode="&#x136;" horiz-adv-x="623" 
d="M194 349v-349h-91v700h91v-320l291 320h109l-307 -328l333 -372h-112zM362 -37c0 -79 -50 -161 -97 -189h-65c40 41 71 116 71 189h91z" />
    <glyph glyph-name="L" unicode="L" horiz-adv-x="552" 
d="M103 0v700h91v-623h310v-77h-401z" />
    <glyph glyph-name="Lacute" unicode="&#x139;" horiz-adv-x="552" 
d="M124 762l64 178h113l-119 -178h-58zM103 0v700h91v-623h310v-77h-401z" />
    <glyph glyph-name="uni013B" unicode="&#x13b;" horiz-adv-x="552" 
d="M103 0v700h91v-623h310v-77h-401zM348 -37c0 -79 -50 -161 -97 -189h-65c40 41 71 116 71 189h91z" />
    <glyph glyph-name="Lcaron" unicode="&#x13d;" horiz-adv-x="552" 
d="M354 702h101l-80 -234h-51zM103 0v700h91v-623h310v-77h-401z" />
    <glyph glyph-name="M" unicode="M" horiz-adv-x="789" 
d="M353 124l-138 455h-7l-56 -579h-88l73 700h115l139 -460h7l139 460h115l72 -700h-88l-55 579h-7l-138 -455h-83z" />
    <glyph glyph-name="N" unicode="N" horiz-adv-x="718" 
d="M192 551h-4v-551h-85v700h90l332 -542h4v542h85v-700h-79z" />
    <glyph glyph-name="Ntilde" unicode="&#xd1;" horiz-adv-x="718" 
d="M427 761c-60 0 -100 100 -141 100c-32 0 -49 -47 -56 -99h-57c3 90 51 172 117 172c60 0 100 -99 140 -99c33 0 50 46 57 99h57c-4 -92 -51 -173 -117 -173zM192 551h-4v-551h-85v700h90l332 -542h4v542h85v-700h-79z" />
    <glyph glyph-name="Nacute" unicode="&#x143;" horiz-adv-x="718" 
d="M323 762l64 178h113l-119 -178h-58zM192 551h-4v-551h-85v700h90l332 -542h4v542h85v-700h-79z" />
    <glyph glyph-name="uni0145" unicode="&#x145;" horiz-adv-x="718" 
d="M192 551h-4v-551h-85v700h90l332 -542h4v542h85v-700h-79zM409 -37c0 -79 -50 -161 -97 -189h-65c40 41 71 116 71 189h91z" />
    <glyph glyph-name="Ncaron" unicode="&#x147;" horiz-adv-x="718" 
d="M309 762l-99 178h56l92 -117l93 117h55l-98 -178h-99zM192 551h-4v-551h-85v700h90l332 -542h4v542h85v-700h-79z" />
    <glyph glyph-name="O" unicode="O" horiz-adv-x="663" 
d="M614 350c0 -216 -115 -361 -282 -361s-283 145 -283 361s116 361 283 361s282 -145 282 -361zM521 350c0 164 -70 281 -189 281s-190 -117 -190 -281s71 -281 190 -281s189 117 189 281z" />
    <glyph glyph-name="Ograve" unicode="&#xd2;" horiz-adv-x="663" 
d="M313 762l-118 178h112l65 -178h-59zM614 350c0 -216 -115 -361 -282 -361s-283 145 -283 361s116 361 283 361s282 -145 282 -361zM521 350c0 164 -70 281 -189 281s-190 -117 -190 -281s71 -281 190 -281s189 117 189 281z" />
    <glyph glyph-name="Oacute" unicode="&#xd3;" horiz-adv-x="663" 
d="M297 762l64 178h113l-119 -178h-58zM614 350c0 -216 -115 -361 -282 -361s-283 145 -283 361s116 361 283 361s282 -145 282 -361zM521 350c0 164 -70 281 -189 281s-190 -117 -190 -281s71 -281 190 -281s189 117 189 281z" />
    <glyph glyph-name="Ocircumflex" unicode="&#xd4;" horiz-adv-x="663" 
d="M381 940l98 -178h-55l-93 117l-92 -117h-56l99 178h99zM614 350c0 -216 -115 -361 -282 -361s-283 145 -283 361s116 361 283 361s282 -145 282 -361zM521 350c0 164 -70 281 -189 281s-190 -117 -190 -281s71 -281 190 -281s189 117 189 281z" />
    <glyph glyph-name="Otilde" unicode="&#xd5;" horiz-adv-x="663" 
d="M409 761c-60 0 -100 100 -141 100c-32 0 -49 -47 -56 -99h-57c3 90 51 172 117 172c60 0 100 -99 140 -99c33 0 50 46 57 99h57c-4 -92 -51 -173 -117 -173zM614 350c0 -216 -115 -361 -282 -361s-283 145 -283 361s116 361 283 361s282 -145 282 -361zM521 350
c0 164 -70 281 -189 281s-190 -117 -190 -281s71 -281 190 -281s189 117 189 281z" />
    <glyph glyph-name="Odieresis" unicode="&#xd6;" horiz-adv-x="663" 
d="M174 841c0 33 25 59 59 59c35 0 60 -26 60 -59s-25 -59 -60 -59c-34 0 -59 26 -59 59zM370 841c0 33 26 59 59 59c34 0 59 -26 59 -59s-25 -59 -59 -59c-33 0 -59 26 -59 59zM614 350c0 -216 -115 -361 -282 -361s-283 145 -283 361s116 361 283 361s282 -145 282 -361z
M521 350c0 164 -70 281 -189 281s-190 -117 -190 -281s71 -281 190 -281s189 117 189 281z" />
    <glyph glyph-name="Omacron" unicode="&#x14c;" horiz-adv-x="663" 
d="M177 786v71h309v-71h-309zM614 350c0 -216 -115 -361 -282 -361s-283 145 -283 361s116 361 283 361s282 -145 282 -361zM521 350c0 164 -70 281 -189 281s-190 -117 -190 -281s71 -281 190 -281s189 117 189 281z" />
    <glyph glyph-name="Obreve" unicode="&#x14e;" horiz-adv-x="663" 
d="M331 762c-98 0 -149 75 -149 178h60c4 -63 29 -109 89 -109c61 0 86 46 89 109h61c0 -103 -51 -178 -150 -178zM614 350c0 -216 -115 -361 -282 -361s-283 145 -283 361s116 361 283 361s282 -145 282 -361zM521 350c0 164 -70 281 -189 281s-190 -117 -190 -281
s71 -281 190 -281s189 117 189 281z" />
    <glyph glyph-name="Ohungarumlaut" unicode="&#x150;" horiz-adv-x="663" 
d="M276 940h103l-118 -178h-49zM449 940h103l-118 -178h-48zM614 350c0 -216 -115 -361 -282 -361s-283 145 -283 361s116 361 283 361s282 -145 282 -361zM521 350c0 164 -70 281 -189 281s-190 -117 -190 -281s71 -281 190 -281s189 117 189 281z" />
    <glyph glyph-name="P" unicode="P" horiz-adv-x="605" 
d="M193 277v-277h-90v700h225c142 0 242 -79 242 -212c0 -131 -100 -211 -242 -211h-135zM477 488c0 84 -58 135 -152 135h-132v-268h132c94 0 152 49 152 133z" />
    <glyph glyph-name="Q" unicode="Q" horiz-adv-x="663" 
d="M500 -185c-105 0 -192 51 -218 179c-140 26 -233 162 -233 356c0 216 116 361 283 361s282 -145 282 -361c0 -199 -98 -338 -244 -358c18 -71 65 -104 139 -104c26 0 58 5 77 12v-69c-20 -10 -53 -16 -86 -16zM521 350c0 164 -70 281 -189 281s-190 -117 -190 -281
s71 -281 190 -281s189 117 189 281z" />
    <glyph glyph-name="R" unicode="R" horiz-adv-x="640" 
d="M515 0l-196 286h-126v-286h-90v700h189c162 0 256 -74 256 -205c0 -95 -65 -158 -142 -187l216 -308h-107zM193 363h153c55 15 109 54 109 132c0 79 -60 128 -162 128h-100v-260z" />
    <glyph glyph-name="Racute" unicode="&#x154;" horiz-adv-x="640" 
d="M278 762l64 178h113l-119 -178h-58zM515 0l-196 286h-126v-286h-90v700h189c162 0 256 -74 256 -205c0 -95 -65 -158 -142 -187l216 -308h-107zM193 363h153c55 15 109 54 109 132c0 79 -60 128 -162 128h-100v-260z" />
    <glyph glyph-name="uni0156" unicode="&#x156;" horiz-adv-x="640" 
d="M515 0l-196 286h-126v-286h-90v700h189c162 0 256 -74 256 -205c0 -95 -65 -158 -142 -187l216 -308h-107zM193 363h153c55 15 109 54 109 132c0 79 -60 128 -162 128h-100v-260zM384 -37c0 -79 -50 -161 -97 -189h-65c40 41 71 116 71 189h91z" />
    <glyph glyph-name="Rcaron" unicode="&#x158;" horiz-adv-x="640" 
d="M263 762l-99 178h56l92 -117l93 117h55l-98 -178h-99zM515 0l-196 286h-126v-286h-90v700h189c162 0 256 -74 256 -205c0 -95 -65 -158 -142 -187l216 -308h-107zM193 363h153c55 15 109 54 109 132c0 79 -60 128 -162 128h-100v-260z" />
    <glyph glyph-name="S" unicode="S" horiz-adv-x="550" 
d="M37 141c69 -57 155 -74 208 -74c107 0 165 48 165 122c0 158 -342 118 -342 327c0 121 107 195 228 195c59 0 116 -13 171 -48v-89c-58 43 -116 60 -168 60c-83 0 -141 -43 -141 -113c0 -139 343 -103 343 -328c0 -120 -104 -204 -256 -204c-67 0 -161 22 -208 61v91z
" />
    <glyph glyph-name="Sacute" unicode="&#x15a;" horiz-adv-x="550" 
d="M252 762l64 178h113l-119 -178h-58zM37 141c69 -57 155 -74 208 -74c107 0 165 48 165 122c0 158 -342 118 -342 327c0 121 107 195 228 195c59 0 116 -13 171 -48v-89c-58 43 -116 60 -168 60c-83 0 -141 -43 -141 -113c0 -139 343 -103 343 -328
c0 -120 -104 -204 -256 -204c-67 0 -161 22 -208 61v91z" />
    <glyph glyph-name="Scircumflex" unicode="&#x15c;" horiz-adv-x="550" 
d="M333 940l98 -178h-55l-93 117l-92 -117h-56l99 178h99zM37 141c69 -57 155 -74 208 -74c107 0 165 48 165 122c0 158 -342 118 -342 327c0 121 107 195 228 195c59 0 116 -13 171 -48v-89c-58 43 -116 60 -168 60c-83 0 -141 -43 -141 -113c0 -139 343 -103 343 -328
c0 -120 -104 -204 -256 -204c-67 0 -161 22 -208 61v91z" />
    <glyph glyph-name="uni015E" unicode="&#x15e;" horiz-adv-x="550" 
d="M239 -226c-43 0 -77 9 -100 25v58c34 -20 62 -28 97 -28c36 0 65 14 65 42c0 29 -37 40 -96 40l32 78c-67 2 -155 24 -200 61v91c69 -57 155 -74 208 -74c107 0 165 48 165 122c0 158 -342 118 -342 327c0 121 107 195 228 195c59 0 116 -13 171 -48v-89
c-58 43 -116 60 -168 60c-83 0 -141 -43 -141 -113c0 -139 343 -103 343 -328c0 -110 -88 -190 -220 -202l-15 -39c60 -8 98 -34 98 -81c0 -62 -59 -97 -125 -97z" />
    <glyph glyph-name="Scaron" unicode="&#x160;" horiz-adv-x="550" 
d="M234 762l-99 178h56l92 -117l93 117h55l-98 -178h-99zM37 141c69 -57 155 -74 208 -74c107 0 165 48 165 122c0 158 -342 118 -342 327c0 121 107 195 228 195c59 0 116 -13 171 -48v-89c-58 43 -116 60 -168 60c-83 0 -141 -43 -141 -113c0 -139 343 -103 343 -328
c0 -120 -104 -204 -256 -204c-67 0 -161 22 -208 61v91z" />
    <glyph glyph-name="uni0218" unicode="&#x218;" horiz-adv-x="550" 
d="M37 141c69 -57 155 -74 208 -74c107 0 165 48 165 122c0 158 -342 118 -342 327c0 121 107 195 228 195c59 0 116 -13 171 -48v-89c-58 43 -116 60 -168 60c-83 0 -141 -43 -141 -113c0 -139 343 -103 343 -328c0 -120 -104 -204 -256 -204c-67 0 -161 22 -208 61v91z
M308 -37c0 -79 -50 -161 -97 -189h-65c40 41 71 116 71 189h91z" />
    <glyph glyph-name="T" unicode="T" horiz-adv-x="598" 
d="M33 700h532v-77h-221v-623h-91v623h-220v77z" />
    <glyph glyph-name="uni0162" unicode="&#x162;" horiz-adv-x="598" 
d="M265 -226c-43 0 -77 9 -100 25v58c34 -20 62 -28 97 -28c36 0 65 14 65 42c0 29 -37 40 -96 40l36 89h-14v623h-220v77h532v-77h-221v-623h-34l-18 -48c60 -8 98 -34 98 -81c0 -62 -59 -97 -125 -97z" />
    <glyph glyph-name="Tcaron" unicode="&#x164;" horiz-adv-x="598" 
d="M250 762l-99 178h56l92 -117l93 117h55l-98 -178h-99zM33 700h532v-77h-221v-623h-91v623h-220v77z" />
    <glyph glyph-name="uni021A" unicode="&#x21a;" horiz-adv-x="599" 
d="M33 700h532v-77h-221v-623h-91v623h-220v77zM344 -37c0 -79 -50 -161 -97 -189h-65c40 41 71 116 71 189h91z" />
    <glyph glyph-name="U" unicode="U" horiz-adv-x="672" 
d="M336 70c105 0 166 61 166 205v425h91v-432c0 -186 -105 -279 -257 -279c-151 0 -257 93 -257 279v432h91v-425c0 -144 62 -205 166 -205z" />
    <glyph glyph-name="Ugrave" unicode="&#xd9;" horiz-adv-x="672" 
d="M320 762l-118 178h112l65 -178h-59zM336 70c105 0 166 61 166 205v425h91v-432c0 -186 -105 -279 -257 -279c-151 0 -257 93 -257 279v432h91v-425c0 -144 62 -205 166 -205z" />
    <glyph glyph-name="Uacute" unicode="&#xda;" horiz-adv-x="672" 
d="M298 762l64 178h113l-119 -178h-58zM336 70c105 0 166 61 166 205v425h91v-432c0 -186 -105 -279 -257 -279c-151 0 -257 93 -257 279v432h91v-425c0 -144 62 -205 166 -205z" />
    <glyph glyph-name="Ucircumflex" unicode="&#xdb;" horiz-adv-x="672" 
d="M386 940l98 -178h-55l-93 117l-92 -117h-56l99 178h99zM336 70c105 0 166 61 166 205v425h91v-432c0 -186 -105 -279 -257 -279c-151 0 -257 93 -257 279v432h91v-425c0 -144 62 -205 166 -205z" />
    <glyph glyph-name="Udieresis" unicode="&#xdc;" horiz-adv-x="672" 
d="M179 841c0 33 25 59 59 59c35 0 60 -26 60 -59s-25 -59 -60 -59c-34 0 -59 26 -59 59zM375 841c0 33 26 59 59 59c34 0 59 -26 59 -59s-25 -59 -59 -59c-33 0 -59 26 -59 59zM336 70c105 0 166 61 166 205v425h91v-432c0 -186 -105 -279 -257 -279
c-151 0 -257 93 -257 279v432h91v-425c0 -144 62 -205 166 -205z" />
    <glyph glyph-name="Utilde" unicode="&#x168;" horiz-adv-x="672" 
d="M408 761c-60 0 -100 100 -141 100c-32 0 -49 -47 -56 -99h-57c3 90 51 172 117 172c60 0 100 -99 140 -99c33 0 50 46 57 99h57c-4 -92 -51 -173 -117 -173zM336 70c105 0 166 61 166 205v425h91v-432c0 -186 -105 -279 -257 -279c-151 0 -257 93 -257 279v432h91v-425
c0 -144 62 -205 166 -205z" />
    <glyph glyph-name="Umacron" unicode="&#x16a;" horiz-adv-x="672" 
d="M182 786v71h309v-71h-309zM336 70c105 0 166 61 166 205v425h91v-432c0 -186 -105 -279 -257 -279c-151 0 -257 93 -257 279v432h91v-425c0 -144 62 -205 166 -205z" />
    <glyph glyph-name="Ubreve" unicode="&#x16c;" horiz-adv-x="672" 
d="M336 762c-98 0 -149 75 -149 178h60c4 -63 29 -109 89 -109c61 0 86 46 89 109h61c0 -103 -51 -178 -150 -178zM336 70c105 0 166 61 166 205v425h91v-432c0 -186 -105 -279 -257 -279c-151 0 -257 93 -257 279v432h91v-425c0 -144 62 -205 166 -205z" />
    <glyph glyph-name="Uring" unicode="&#x16e;" horiz-adv-x="672" 
d="M207 867c0 69 60 128 128 128c70 0 129 -59 129 -128c0 -68 -59 -128 -129 -128c-68 0 -128 60 -128 128zM264 867c0 -40 31 -71 71 -71c41 0 72 31 72 71s-31 72 -72 72c-40 0 -71 -32 -71 -72zM336 70c105 0 166 61 166 205v425h91v-432c0 -186 -105 -279 -257 -279
c-151 0 -257 93 -257 279v432h91v-425c0 -144 62 -205 166 -205z" />
    <glyph glyph-name="Uhungarumlaut" unicode="&#x170;" horiz-adv-x="672" 
d="M284 940h103l-118 -178h-49zM457 940h103l-118 -178h-48zM336 70c105 0 166 61 166 205v425h91v-432c0 -186 -105 -279 -257 -279c-151 0 -257 93 -257 279v432h91v-425c0 -144 62 -205 166 -205z" />
    <glyph glyph-name="Uogonek" unicode="&#x172;" horiz-adv-x="672" 
d="M415 -220c-60 0 -104 39 -104 90c0 42 22 82 59 122c-11 -2 -22 -3 -34 -3c-151 0 -257 93 -257 279v433h91v-426c0 -144 62 -205 166 -205c105 0 166 61 166 205v426h91v-433c0 -126 -44 -196 -116 -244c-65 -43 -99 -96 -99 -138c0 -29 19 -46 50 -46c23 0 47 6 77 22
v-57c-23 -16 -57 -25 -90 -25z" />
    <glyph glyph-name="V" unicode="V" horiz-adv-x="630" 
d="M360 0h-90l-248 700h95l196 -582h4l199 582h92z" />
    <glyph glyph-name="W" unicode="W" horiz-adv-x="823" 
d="M449 700l132 -550h4l125 550h88l-168 -700h-84l-132 544h-5l-133 -544h-82l-169 700h91l125 -550h4l132 550h72z" />
    <glyph glyph-name="Wcircumflex" unicode="&#x174;" horiz-adv-x="823" 
d="M462 940l98 -178h-55l-93 117l-92 -117h-56l99 178h99zM449 700l132 -550h4l125 550h88l-168 -700h-84l-132 544h-5l-133 -544h-82l-169 700h91l125 -550h4l132 550h72z" />
    <glyph glyph-name="Wgrave" unicode="&#x1e80;" horiz-adv-x="823" 
d="M376 762l-118 178h112l65 -178h-59zM449 700l132 -550h4l125 550h88l-168 -700h-84l-132 544h-5l-133 -544h-82l-169 700h91l125 -550h4l132 550h72z" />
    <glyph glyph-name="Wacute" unicode="&#x1e82;" horiz-adv-x="823" 
d="M389 762l64 178h113l-119 -178h-58zM449 700l132 -550h4l125 550h88l-168 -700h-84l-132 544h-5l-133 -544h-82l-169 700h91l125 -550h4l132 550h72z" />
    <glyph glyph-name="Wdieresis" unicode="&#x1e84;" horiz-adv-x="823" 
d="M254 841c0 33 25 59 59 59c35 0 60 -26 60 -59s-25 -59 -60 -59c-34 0 -59 26 -59 59zM450 841c0 33 26 59 59 59c34 0 59 -26 59 -59s-25 -59 -59 -59c-33 0 -59 26 -59 59zM449 700l132 -550h4l125 550h88l-168 -700h-84l-132 544h-5l-133 -544h-82l-169 700h91
l125 -550h4l132 550h72z" />
    <glyph glyph-name="X" unicode="X" horiz-adv-x="642" 
d="M319 308l-202 -308h-95l247 371l-216 329h100l169 -260l171 260h96l-216 -324l247 -376h-101z" />
    <glyph glyph-name="Y" unicode="Y" horiz-adv-x="612" 
d="M261 0v296l-239 404h99l189 -323l187 323h94l-239 -404v-296h-91z" />
    <glyph glyph-name="Yacute" unicode="&#xdd;" horiz-adv-x="612" 
d="M267 762l64 178h113l-119 -178h-58zM261 0v296l-239 404h99l189 -323l187 323h94l-239 -404v-296h-91z" />
    <glyph glyph-name="Ycircumflex" unicode="&#x176;" horiz-adv-x="612" 
d="M356 940l98 -178h-55l-93 117l-92 -117h-56l99 178h99zM261 0v296l-239 404h99l189 -323l187 323h94l-239 -404v-296h-91z" />
    <glyph glyph-name="Ydieresis" unicode="&#x178;" horiz-adv-x="612" 
d="M149 841c0 33 25 59 59 59c35 0 60 -26 60 -59s-25 -59 -60 -59c-34 0 -59 26 -59 59zM345 841c0 33 26 59 59 59c34 0 59 -26 59 -59s-25 -59 -59 -59c-33 0 -59 26 -59 59zM261 0v296l-239 404h99l189 -323l187 323h94l-239 -404v-296h-91z" />
    <glyph glyph-name="Ygrave" unicode="&#x1ef2;" horiz-adv-x="612" 
d="M286 762l-118 178h112l65 -178h-59zM261 0v296l-239 404h99l189 -323l187 323h94l-239 -404v-296h-91z" />
    <glyph glyph-name="Z" unicode="Z" horiz-adv-x="590" 
d="M546 0h-491v58l363 565h-357v77h468v-62l-363 -561h380v-77z" />
    <glyph glyph-name="Zacute" unicode="&#x179;" horiz-adv-x="590" 
d="M266 762l64 178h113l-119 -178h-58zM546 0h-491v58l363 565h-357v77h468v-62l-363 -561h380v-77z" />
    <glyph glyph-name="Zdotaccent" unicode="&#x17b;" horiz-adv-x="590" 
d="M235 848c0 36 26 65 64 65s64 -29 64 -65s-26 -63 -64 -63s-64 27 -64 63zM546 0h-491v58l363 565h-357v77h468v-62l-363 -561h380v-77z" />
    <glyph glyph-name="Zcaron" unicode="&#x17d;" horiz-adv-x="590" 
d="M249 762l-99 178h56l92 -117l93 117h55l-98 -178h-99zM546 0h-491v58l363 565h-357v77h468v-62l-363 -561h380v-77z" />
    <glyph glyph-name="AE" unicode="&#xc6;" horiz-adv-x="983" 
d="M488 224h-243l-130 -224h-93l405 700h469v-77h-317v-224h285v-77h-285v-245h330v-77h-421v224zM488 643l-200 -344h200v344z" />
    <glyph glyph-name="AEacute" unicode="&#x1fc;" horiz-adv-x="983" 
d="M601 762l64 178h113l-119 -178h-58zM488 224h-243l-130 -224h-93l405 700h469v-77h-317v-224h285v-77h-285v-245h330v-77h-421v224zM488 643l-200 -344h200v344z" />
    <glyph glyph-name="Eth" unicode="&#xd0;" horiz-adv-x="683" 
d="M112 0v322h-73v77h73v301h189c203 0 333 -131 333 -349c0 -220 -130 -351 -333 -351h-189zM298 77c160 0 243 108 243 274s-83 272 -243 272h-95v-224h137v-77h-137v-245h95z" />
    <glyph glyph-name="Oslash" unicode="&#xd8;" horiz-adv-x="663" 
d="M332 -11c-59 0 -111 18 -155 51l-52 -86h-70l78 128c-53 64 -84 156 -84 268c0 216 116 361 283 361c58 0 110 -18 153 -50l52 86h72l-79 -129c53 -63 84 -156 84 -268c0 -216 -115 -361 -282 -361zM141 350c0 -74 14 -139 41 -187l260 427c-30 28 -67 43 -110 43
c-120 0 -191 -117 -191 -283zM332 67c120 0 190 117 190 283c0 75 -14 139 -41 188l-260 -427c30 -28 67 -44 111 -44z" />
    <glyph glyph-name="Oslashacute" unicode="&#x1fe;" horiz-adv-x="663" 
d="M298 762l64 178h113l-119 -178h-58zM332 -11c-59 0 -111 18 -155 51l-52 -86h-70l78 128c-53 64 -84 156 -84 268c0 216 116 361 283 361c58 0 110 -18 153 -50l52 86h72l-79 -129c53 -63 84 -156 84 -268c0 -216 -115 -361 -282 -361zM141 350c0 -74 14 -139 41 -187
l260 427c-30 28 -67 43 -110 43c-120 0 -191 -117 -191 -283zM332 67c120 0 190 117 190 283c0 75 -14 139 -41 188l-260 -427c30 -28 67 -44 111 -44z" />
    <glyph glyph-name="Thorn" unicode="&#xde;" horiz-adv-x="605" 
d="M103 0v700h90v-121h135c142 0 242 -80 242 -211c0 -132 -100 -213 -242 -213h-135v-155h-90zM477 368c0 83 -58 134 -152 134h-132v-269h132c94 0 152 49 152 135z" />
    <glyph glyph-name="Dcroat" unicode="&#x110;" horiz-adv-x="683" 
d="M112 0v322h-73v77h73v301h189c203 0 333 -131 333 -349c0 -220 -130 -351 -333 -351h-189zM298 77c160 0 243 108 243 274s-83 272 -243 272h-95v-224h137v-77h-137v-245h95z" />
    <glyph glyph-name="Hbar" unicode="&#x126;" horiz-adv-x="744" 
d="M203 0h-91v465h-73v77h73v158h91v-158h338v158h91v-158h73v-77h-73v-465h-91v259h-338v-259zM541 335v130h-338v-130h338z" />
    <glyph glyph-name="Ldot" unicode="&#x13f;" horiz-adv-x="552" 
d="M103 0v700h91v-623h310v-77h-401zM352 363c0 36 26 65 64 65s64 -29 64 -65s-26 -64 -64 -64s-64 28 -64 64z" />
    <glyph glyph-name="Lslash" unicode="&#x141;" horiz-adv-x="561" 
d="M112 0v272l-73 -40v79l73 39v350h91v-305l175 94v-79l-175 -94v-239h310v-77h-401z" />
    <glyph glyph-name="Eng" unicode="&#x14a;" horiz-adv-x="718" 
d="M423 -215c60 62 103 127 106 223l-337 543h-4v-551h-85v700h90l332 -542h4v542h85v-699c-1 -92 -39 -159 -92 -216h-99z" />
    <glyph glyph-name="OE" unicode="&#x152;" horiz-adv-x="974" 
d="M382 0c-202 0 -333 132 -333 351s131 349 333 349h505v-77h-317v-224h285v-77h-285v-245h330v-77h-518zM385 623c-160 0 -243 -106 -243 -272c0 -168 83 -274 243 -274h95v546h-95z" />
    <glyph glyph-name="Tbar" unicode="&#x166;" horiz-adv-x="598" 
d="M344 322v-322h-91v322h-110v77h110v224h-220v77h532v-77h-221v-224h110v-77h-110z" />
    <glyph glyph-name="a" unicode="a" horiz-adv-x="519" 
d="M359 0l-12 52c-41 -34 -89 -63 -153 -63c-79 0 -142 55 -142 142c0 101 92 175 292 176v33c0 64 -27 106 -103 106c-53 0 -109 -19 -162 -49v75c42 31 117 51 169 51c132 0 184 -78 184 -178v-229c0 -53 5 -84 11 -116h-84zM221 57c44 0 83 15 123 46v145
c-138 -1 -206 -42 -206 -112c0 -49 32 -79 83 -79z" />
    <glyph glyph-name="agrave" unicode="&#xe0;" horiz-adv-x="519" 
d="M256 583l-122 190h115l60 -190h-53zM359 0l-12 52c-41 -34 -89 -63 -153 -63c-79 0 -142 55 -142 142c0 101 92 175 292 176v33c0 64 -27 106 -103 106c-53 0 -109 -19 -162 -49v75c42 31 117 51 169 51c132 0 184 -78 184 -178v-229c0 -53 5 -84 11 -116h-84zM221 57
c44 0 83 15 123 46v145c-138 -1 -206 -42 -206 -112c0 -49 32 -79 83 -79z" />
    <glyph glyph-name="aacute" unicode="&#xe1;" horiz-adv-x="519" 
d="M223 583l61 190h115l-122 -190h-54zM359 0l-12 52c-41 -34 -89 -63 -153 -63c-79 0 -142 55 -142 142c0 101 92 175 292 176v33c0 64 -27 106 -103 106c-53 0 -109 -19 -162 -49v75c42 31 117 51 169 51c132 0 184 -78 184 -178v-229c0 -53 5 -84 11 -116h-84zM221 57
c44 0 83 15 123 46v145c-138 -1 -206 -42 -206 -112c0 -49 32 -79 83 -79z" />
    <glyph glyph-name="acircumflex" unicode="&#xe2;" horiz-adv-x="519" 
d="M302 773l104 -190h-58l-95 129l-93 -129h-59l104 190h97zM359 0l-12 52c-41 -34 -89 -63 -153 -63c-79 0 -142 55 -142 142c0 101 92 175 292 176v33c0 64 -27 106 -103 106c-53 0 -109 -19 -162 -49v75c42 31 117 51 169 51c132 0 184 -78 184 -178v-229
c0 -53 5 -84 11 -116h-84zM221 57c44 0 83 15 123 46v145c-138 -1 -206 -42 -206 -112c0 -49 32 -79 83 -79z" />
    <glyph glyph-name="atilde" unicode="&#xe3;" horiz-adv-x="519" 
d="M323 596c-60 0 -98 99 -137 99c-33 0 -50 -46 -57 -99h-55c3 90 50 172 116 172c60 0 97 -99 137 -99c33 0 50 46 57 99h55c-3 -91 -50 -172 -116 -172zM359 0l-12 52c-41 -34 -89 -63 -153 -63c-79 0 -142 55 -142 142c0 101 92 175 292 176v33c0 64 -27 106 -103 106
c-53 0 -109 -19 -162 -49v75c42 31 117 51 169 51c132 0 184 -78 184 -178v-229c0 -53 5 -84 11 -116h-84zM221 57c44 0 83 15 123 46v145c-138 -1 -206 -42 -206 -112c0 -49 32 -79 83 -79z" />
    <glyph glyph-name="adieresis" unicode="&#xe4;" horiz-adv-x="519" 
d="M100 672c0 33 25 60 59 60s59 -27 59 -60s-25 -59 -59 -59s-59 26 -59 59zM289 672c0 33 25 60 59 60s59 -27 59 -60s-25 -59 -59 -59s-59 26 -59 59zM359 0l-12 52c-41 -34 -89 -63 -153 -63c-79 0 -142 55 -142 142c0 101 92 175 292 176v33c0 64 -27 106 -103 106
c-53 0 -109 -19 -162 -49v75c42 31 117 51 169 51c132 0 184 -78 184 -178v-229c0 -53 5 -84 11 -116h-84zM221 57c44 0 83 15 123 46v145c-138 -1 -206 -42 -206 -112c0 -49 32 -79 83 -79z" />
    <glyph glyph-name="aring" unicode="&#xe5;" horiz-adv-x="519" 
d="M254 594c-61 0 -112 50 -112 111c0 62 51 112 112 112s112 -50 112 -112c0 -61 -51 -111 -112 -111zM254 765c-33 0 -61 -26 -61 -60c0 -33 28 -60 61 -60s61 27 61 60c0 34 -29 60 -61 60zM359 0l-12 52c-41 -34 -89 -63 -153 -63c-79 0 -142 55 -142 142
c0 101 92 175 292 176v33c0 64 -27 106 -103 106c-53 0 -109 -19 -162 -49v75c42 31 117 51 169 51c132 0 184 -78 184 -178v-229c0 -53 5 -84 11 -116h-84zM221 57c44 0 83 15 123 46v145c-138 -1 -206 -42 -206 -112c0 -49 32 -79 83 -79z" />
    <glyph glyph-name="amacron" unicode="&#x101;" horiz-adv-x="519" 
d="M111 635v71h286v-71h-286zM359 0l-12 52c-41 -34 -89 -63 -153 -63c-79 0 -142 55 -142 142c0 101 92 175 292 176v33c0 64 -27 106 -103 106c-53 0 -109 -19 -162 -49v75c42 31 117 51 169 51c132 0 184 -78 184 -178v-229c0 -53 5 -84 11 -116h-84zM221 57
c44 0 83 15 123 46v145c-138 -1 -206 -42 -206 -112c0 -49 32 -79 83 -79z" />
    <glyph glyph-name="abreve" unicode="&#x103;" horiz-adv-x="519" 
d="M254 583c-98 0 -147 86 -147 190h61c3 -67 26 -120 86 -120c61 0 84 53 87 120h61c0 -104 -49 -190 -148 -190zM359 0l-12 52c-41 -34 -89 -63 -153 -63c-79 0 -142 55 -142 142c0 101 92 175 292 176v33c0 64 -27 106 -103 106c-53 0 -109 -19 -162 -49v75
c42 31 117 51 169 51c132 0 184 -78 184 -178v-229c0 -53 5 -84 11 -116h-84zM221 57c44 0 83 15 123 46v145c-138 -1 -206 -42 -206 -112c0 -49 32 -79 83 -79z" />
    <glyph glyph-name="aogonek" unicode="&#x105;" horiz-adv-x="519" 
d="M463 -202c-23 -16 -58 -25 -91 -25c-60 0 -104 39 -104 90c0 52 36 97 91 138l-12 51c-41 -34 -89 -63 -153 -63c-79 0 -142 55 -142 142c0 101 92 175 292 176v33c0 64 -27 106 -103 106c-53 0 -109 -19 -162 -49v75c42 31 117 51 169 51c132 0 184 -78 184 -178v-229
c0 -53 5 -84 11 -116h-15c-64 -46 -93 -83 -93 -124c0 -27 19 -43 50 -43c23 0 47 6 78 21v-56zM221 57c44 0 83 15 123 46v145c-138 -1 -206 -42 -206 -112c0 -49 32 -79 83 -79z" />
    <glyph glyph-name="b" unicode="b" horiz-adv-x="581" 
d="M181 457c29 30 84 66 147 66c124 0 204 -96 204 -254c0 -169 -117 -280 -265 -280c-64 0 -121 13 -174 43v730h88v-305zM181 77c22 -12 53 -19 86 -19c102 0 176 84 176 207c0 118 -55 184 -137 184c-52 0 -98 -24 -125 -50v-322z" />
    <glyph glyph-name="c" unicode="c" horiz-adv-x="454" 
d="M49 254c0 157 108 269 252 269c35 0 76 -7 105 -27v-78c-33 19 -63 27 -102 27c-98 0 -167 -77 -167 -191s69 -186 167 -186c39 0 69 7 102 27v-79c-29 -19 -70 -27 -105 -27c-144 0 -252 108 -252 265z" />
    <glyph glyph-name="ccedilla" unicode="&#xe7;" horiz-adv-x="454" 
d="M241 -226c-43 0 -77 9 -100 25v58c34 -20 62 -28 97 -28c36 0 65 14 65 42c0 29 -37 40 -96 40l34 85c-113 25 -192 124 -192 258c0 157 108 269 252 269c35 0 76 -7 105 -27v-78c-33 19 -63 27 -102 27c-98 0 -167 -77 -167 -191s69 -186 167 -186c39 0 69 7 102 27v-79
c-29 -19 -70 -27 -105 -27c-6 0 -12 0 -19 1l-14 -38c60 -8 98 -34 98 -81c0 -62 -59 -97 -125 -97z" />
    <glyph glyph-name="cacute" unicode="&#x107;" horiz-adv-x="454" 
d="M241 583l61 190h115l-122 -190h-54zM49 254c0 157 108 269 252 269c35 0 76 -7 105 -27v-78c-33 19 -63 27 -102 27c-98 0 -167 -77 -167 -191s69 -186 167 -186c39 0 69 7 102 27v-79c-29 -19 -70 -27 -105 -27c-144 0 -252 108 -252 265z" />
    <glyph glyph-name="ccircumflex" unicode="&#x109;" horiz-adv-x="454" 
d="M323 773l104 -190h-58l-95 129l-93 -129h-59l104 190h97zM49 254c0 157 108 269 252 269c35 0 76 -7 105 -27v-78c-33 19 -63 27 -102 27c-98 0 -167 -77 -167 -191s69 -186 167 -186c39 0 69 7 102 27v-79c-29 -19 -70 -27 -105 -27c-144 0 -252 108 -252 265z" />
    <glyph glyph-name="cdotaccent" unicode="&#x10b;" horiz-adv-x="454" 
d="M210 677c0 36 26 65 64 65s64 -29 64 -65s-26 -64 -64 -64s-64 28 -64 64zM49 254c0 157 108 269 252 269c35 0 76 -7 105 -27v-78c-33 19 -63 27 -102 27c-98 0 -167 -77 -167 -191s69 -186 167 -186c39 0 69 7 102 27v-79c-29 -19 -70 -27 -105 -27
c-144 0 -252 108 -252 265z" />
    <glyph glyph-name="ccaron" unicode="&#x10d;" horiz-adv-x="454" 
d="M235 583l-104 190h59l93 -129l95 129h58l-104 -190h-97zM49 254c0 157 108 269 252 269c35 0 76 -7 105 -27v-78c-33 19 -63 27 -102 27c-98 0 -167 -77 -167 -191s69 -186 167 -186c39 0 69 7 102 27v-79c-29 -19 -70 -27 -105 -27c-144 0 -252 108 -252 265z" />
    <glyph glyph-name="d" unicode="d" horiz-adv-x="581" 
d="M487 762v-762h-87v54c-28 -31 -80 -65 -142 -65c-121 0 -209 94 -209 253c0 171 105 281 242 281c40 0 83 -10 109 -28v267h87zM400 424c-26 20 -67 29 -99 29c-104 0 -163 -85 -163 -207c0 -119 58 -183 141 -183c52 0 92 24 121 51v310z" />
    <glyph glyph-name="dcaron" unicode="&#x10f;" horiz-adv-x="695" 
d="M487 762v-762h-87v54c-28 -31 -80 -65 -142 -65c-121 0 -209 94 -209 253c0 171 105 281 242 281c40 0 83 -10 109 -28v267h87zM611 762h101l-80 -234h-51zM400 424c-26 20 -67 29 -99 29c-104 0 -163 -85 -163 -207c0 -119 58 -183 141 -183c52 0 92 24 121 51v310z" />
    <glyph glyph-name="e" unicode="e" horiz-adv-x="514" 
d="M452 23c-46 -24 -95 -34 -149 -34c-154 0 -254 117 -254 271c0 144 89 263 226 263c147 0 205 -122 188 -281h-330c7 -108 77 -177 177 -177c47 0 86 6 142 36v-78zM275 450c-75 0 -127 -56 -140 -146h244c6 82 -29 146 -104 146z" />
    <glyph glyph-name="egrave" unicode="&#xe8;" horiz-adv-x="514" 
d="M267 583l-122 190h115l60 -190h-53zM452 23c-46 -24 -95 -34 -149 -34c-154 0 -254 117 -254 271c0 144 89 263 226 263c147 0 205 -122 188 -281h-330c7 -108 77 -177 177 -177c47 0 86 6 142 36v-78zM275 450c-75 0 -127 -56 -140 -146h244c6 82 -29 146 -104 146z" />
    <glyph glyph-name="eacute" unicode="&#xe9;" horiz-adv-x="514" 
d="M252 583l61 190h115l-122 -190h-54zM452 23c-46 -24 -95 -34 -149 -34c-154 0 -254 117 -254 271c0 144 89 263 226 263c147 0 205 -122 188 -281h-330c7 -108 77 -177 177 -177c47 0 86 6 142 36v-78zM275 450c-75 0 -127 -56 -140 -146h244c6 82 -29 146 -104 146z" />
    <glyph glyph-name="ecircumflex" unicode="&#xea;" horiz-adv-x="514" 
d="M322 773l104 -190h-58l-95 129l-93 -129h-59l104 190h97zM452 23c-46 -24 -95 -34 -149 -34c-154 0 -254 117 -254 271c0 144 89 263 226 263c147 0 205 -122 188 -281h-330c7 -108 77 -177 177 -177c47 0 86 6 142 36v-78zM275 450c-75 0 -127 -56 -140 -146h244
c6 82 -29 146 -104 146z" />
    <glyph glyph-name="edieresis" unicode="&#xeb;" horiz-adv-x="514" 
d="M124 672c0 33 25 60 59 60s59 -27 59 -60s-25 -59 -59 -59s-59 26 -59 59zM313 672c0 33 25 60 59 60s59 -27 59 -60s-25 -59 -59 -59s-59 26 -59 59zM452 23c-46 -24 -95 -34 -149 -34c-154 0 -254 117 -254 271c0 144 89 263 226 263c147 0 205 -122 188 -281h-330
c7 -108 77 -177 177 -177c47 0 86 6 142 36v-78zM275 450c-75 0 -127 -56 -140 -146h244c6 82 -29 146 -104 146z" />
    <glyph glyph-name="emacron" unicode="&#x113;" horiz-adv-x="514" 
d="M130 635v71h286v-71h-286zM452 23c-46 -24 -95 -34 -149 -34c-154 0 -254 117 -254 271c0 144 89 263 226 263c147 0 205 -122 188 -281h-330c7 -108 77 -177 177 -177c47 0 86 6 142 36v-78zM275 450c-75 0 -127 -56 -140 -146h244c6 82 -29 146 -104 146z" />
    <glyph glyph-name="ebreve" unicode="&#x115;" horiz-adv-x="514" 
d="M275 583c-98 0 -147 86 -147 190h61c3 -67 26 -120 86 -120c61 0 84 53 87 120h61c0 -104 -49 -190 -148 -190zM452 23c-46 -24 -95 -34 -149 -34c-154 0 -254 117 -254 271c0 144 89 263 226 263c147 0 205 -122 188 -281h-330c7 -108 77 -177 177 -177
c47 0 86 6 142 36v-78zM275 450c-75 0 -127 -56 -140 -146h244c6 82 -29 146 -104 146z" />
    <glyph glyph-name="edotaccent" unicode="&#x117;" horiz-adv-x="514" 
d="M213 677c0 36 26 65 64 65s64 -29 64 -65s-26 -64 -64 -64s-64 28 -64 64zM452 23c-46 -24 -95 -34 -149 -34c-154 0 -254 117 -254 271c0 144 89 263 226 263c147 0 205 -122 188 -281h-330c7 -108 77 -177 177 -177c47 0 86 6 142 36v-78zM275 450
c-75 0 -127 -56 -140 -146h244c6 82 -29 146 -104 146z" />
    <glyph glyph-name="eogonek" unicode="&#x119;" horiz-adv-x="514" 
d="M454 -201c-23 -16 -57 -25 -90 -25c-60 0 -104 39 -104 90c0 48 31 89 79 127c-13 -1 -25 -2 -37 -2c-154 0 -253 117 -253 271c0 144 89 263 226 263c147 0 205 -122 188 -281h-329c7 -107 77 -177 176 -177c47 0 86 6 142 36v-78c-88 -52 -126 -105 -126 -146
c0 -27 20 -43 50 -43c24 0 47 6 78 21v-56zM275 450c-75 0 -128 -57 -140 -146h244c6 82 -29 146 -104 146z" />
    <glyph glyph-name="ecaron" unicode="&#x11b;" horiz-adv-x="514" 
d="M233 583l-104 190h59l93 -129l95 129h58l-104 -190h-97zM452 23c-46 -24 -95 -34 -149 -34c-154 0 -254 117 -254 271c0 144 89 263 226 263c147 0 205 -122 188 -281h-330c7 -108 77 -177 177 -177c47 0 86 6 142 36v-78zM275 450c-75 0 -127 -56 -140 -146h244
c6 82 -29 146 -104 146z" />
    <glyph glyph-name="f" unicode="f" horiz-adv-x="358" 
d="M203 0h-88v441h-75v71h75v25c0 147 81 236 198 236c29 0 49 -4 72 -12v-72c-23 6 -38 8 -61 8c-82 0 -121 -53 -121 -160v-25h142v-71h-142v-441z" />
    <glyph glyph-name="g" unicode="g" horiz-adv-x="525" 
d="M505 -52c0 -114 -132 -174 -264 -174c-133 0 -233 59 -233 148c0 71 65 112 128 128c-17 15 -26 37 -26 57c0 33 21 59 61 80c-71 25 -121 84 -121 163c0 104 88 173 197 173c24 0 47 -4 68 -11h194v-66h-103c20 -28 32 -61 32 -96c0 -105 -82 -175 -191 -175
c-8 0 -16 0 -23 1c-30 -14 -42 -27 -42 -44c0 -24 25 -32 48 -34l107 -16c95 -13 168 -47 168 -134zM357 350c0 71 -51 108 -110 108c-61 0 -113 -37 -113 -108c0 -73 52 -111 113 -111c59 0 110 38 110 111zM245 -158c85 0 176 30 176 100c0 45 -46 58 -92 65l-135 19
c-61 -13 -105 -43 -105 -92c0 -63 67 -92 156 -92z" />
    <glyph glyph-name="gcircumflex" unicode="&#x11d;" horiz-adv-x="525" 
d="M305 773l104 -190h-58l-95 129l-93 -129h-59l104 190h97zM505 -52c0 -114 -132 -174 -264 -174c-133 0 -233 59 -233 148c0 71 65 112 128 128c-17 15 -26 37 -26 57c0 33 21 59 61 80c-71 25 -121 84 -121 163c0 104 88 173 197 173c24 0 47 -4 68 -11h194v-66h-103
c20 -28 32 -61 32 -96c0 -105 -82 -175 -191 -175c-8 0 -16 0 -23 1c-30 -14 -42 -27 -42 -44c0 -24 25 -32 48 -34l107 -16c95 -13 168 -47 168 -134zM357 350c0 71 -51 108 -110 108c-61 0 -113 -37 -113 -108c0 -73 52 -111 113 -111c59 0 110 38 110 111zM245 -158
c85 0 176 30 176 100c0 45 -46 58 -92 65l-135 19c-61 -13 -105 -43 -105 -92c0 -63 67 -92 156 -92z" />
    <glyph glyph-name="gbreve" unicode="&#x11f;" horiz-adv-x="525" 
d="M257 583c-98 0 -147 86 -147 190h61c3 -67 26 -120 86 -120c61 0 84 53 87 120h61c0 -104 -49 -190 -148 -190zM505 -52c0 -114 -132 -174 -264 -174c-133 0 -233 59 -233 148c0 71 65 112 128 128c-17 15 -26 37 -26 57c0 33 21 59 61 80c-71 25 -121 84 -121 163
c0 104 88 173 197 173c24 0 47 -4 68 -11h194v-66h-103c20 -28 32 -61 32 -96c0 -105 -82 -175 -191 -175c-8 0 -16 0 -23 1c-30 -14 -42 -27 -42 -44c0 -24 25 -32 48 -34l107 -16c95 -13 168 -47 168 -134zM357 350c0 71 -51 108 -110 108c-61 0 -113 -37 -113 -108
c0 -73 52 -111 113 -111c59 0 110 38 110 111zM245 -158c85 0 176 30 176 100c0 45 -46 58 -92 65l-135 19c-61 -13 -105 -43 -105 -92c0 -63 67 -92 156 -92z" />
    <glyph glyph-name="gdotaccent" unicode="&#x121;" horiz-adv-x="525" 
d="M193 677c0 36 26 65 64 65s64 -29 64 -65s-26 -64 -64 -64s-64 28 -64 64zM505 -52c0 -114 -132 -174 -264 -174c-133 0 -233 59 -233 148c0 71 65 112 128 128c-17 15 -26 37 -26 57c0 33 21 59 61 80c-71 25 -121 84 -121 163c0 104 88 173 197 173c24 0 47 -4 68 -11
h194v-66h-103c20 -28 32 -61 32 -96c0 -105 -82 -175 -191 -175c-8 0 -16 0 -23 1c-30 -14 -42 -27 -42 -44c0 -24 25 -32 48 -34l107 -16c95 -13 168 -47 168 -134zM357 350c0 71 -51 108 -110 108c-61 0 -113 -37 -113 -108c0 -73 52 -111 113 -111c59 0 110 38 110 111z
M245 -158c85 0 176 30 176 100c0 45 -46 58 -92 65l-135 19c-61 -13 -105 -43 -105 -92c0 -63 67 -92 156 -92z" />
    <glyph glyph-name="uni0123" unicode="&#x123;" horiz-adv-x="525" 
d="M211 584c0 78 50 160 98 189h64c-39 -41 -70 -116 -70 -189h-92zM505 -52c0 -114 -132 -174 -264 -174c-133 0 -233 59 -233 148c0 71 65 112 128 128c-17 15 -26 37 -26 57c0 33 21 59 61 80c-71 25 -121 84 -121 163c0 104 88 173 197 173c24 0 47 -4 68 -11h194v-66
h-103c20 -28 32 -61 32 -96c0 -105 -82 -175 -191 -175c-8 0 -16 0 -23 1c-30 -14 -42 -27 -42 -44c0 -24 25 -32 48 -34l107 -16c95 -13 168 -47 168 -134zM357 350c0 71 -51 108 -110 108c-61 0 -113 -37 -113 -108c0 -73 52 -111 113 -111c59 0 110 38 110 111zM245 -158
c85 0 176 30 176 100c0 45 -46 58 -92 65l-135 19c-61 -13 -105 -43 -105 -92c0 -63 67 -92 156 -92z" />
    <glyph glyph-name="h" unicode="h" horiz-adv-x="576" 
d="M181 762v-305c31 27 89 66 158 66c102 0 150 -69 150 -173v-350h-88v336c0 73 -26 112 -94 112c-51 0 -90 -21 -126 -48v-400h-88v762h88z" />
    <glyph glyph-name="hcircumflex" unicode="&#x125;" horiz-adv-x="576" 
d="M341 968l98 -178h-55l-93 117l-92 -117h-56l99 178h99zM181 762v-305c31 27 89 66 158 66c102 0 150 -69 150 -173v-350h-88v336c0 73 -26 112 -94 112c-51 0 -90 -21 -126 -48v-400h-88v762h88z" />
    <glyph glyph-name="i" unicode="i" horiz-adv-x="274" 
d="M73 677c0 36 26 65 64 65c37 0 63 -29 63 -65s-26 -64 -63 -64c-38 0 -64 28 -64 64zM93 512h88v-512h-88v512z" />
    <glyph glyph-name="igrave" unicode="&#xec;" horiz-adv-x="274" 
d="M113 583l-122 190h115l60 -190h-53zM93 512h88v-512h-88v512z" />
    <glyph glyph-name="iacute" unicode="&#xed;" horiz-adv-x="274" 
d="M107 583l61 190h115l-122 -190h-54zM93 512h88v-512h-88v512z" />
    <glyph glyph-name="icircumflex" unicode="&#xee;" horiz-adv-x="274" 
d="M185 773l104 -190h-58l-95 129l-93 -129h-59l104 190h97zM93 512h88v-512h-88v512z" />
    <glyph glyph-name="idieresis" unicode="&#xef;" horiz-adv-x="274" 
d="M-16 672c0 33 25 60 59 60s59 -27 59 -60s-25 -59 -59 -59s-59 26 -59 59zM173 672c0 33 25 60 59 60s59 -27 59 -60s-25 -59 -59 -59s-59 26 -59 59zM93 512h88v-512h-88v512z" />
    <glyph glyph-name="itilde" unicode="&#x129;" horiz-adv-x="274" 
d="M204 596c-60 0 -98 99 -137 99c-33 0 -50 -46 -57 -99h-55c3 90 50 172 116 172c60 0 97 -99 137 -99c33 0 50 46 57 99h55c-3 -91 -50 -172 -116 -172zM93 512h88v-512h-88v512z" />
    <glyph glyph-name="imacron" unicode="&#x12b;" horiz-adv-x="274" 
d="M-6 635v71h286v-71h-286zM93 512h88v-512h-88v512z" />
    <glyph glyph-name="ibreve" unicode="&#x12d;" horiz-adv-x="274" 
d="M137 583c-98 0 -147 86 -147 190h61c3 -67 26 -120 86 -120c61 0 84 53 87 120h61c0 -104 -49 -190 -148 -190zM93 512h88v-512h-88v512z" />
    <glyph glyph-name="iogonek" unicode="&#x12f;" horiz-adv-x="274" 
d="M73 677c0 36 26 65 64 65c37 0 63 -29 63 -65s-26 -64 -63 -64c-38 0 -64 28 -64 64zM93 512h88v-512c-66 -45 -98 -82 -98 -123c0 -27 18 -43 50 -43c24 0 47 6 77 21v-56c-23 -16 -56 -25 -89 -25c-61 0 -105 39 -105 90s40 97 94 136h-17v512z" />
    <glyph glyph-name="j" unicode="j" horiz-adv-x="274" 
d="M73 677c0 36 26 65 64 65c37 0 63 -29 63 -65s-26 -64 -63 -64c-38 0 -64 28 -64 64zM93 512h88v-505c0 -95 -39 -164 -92 -222h-100c61 64 104 143 104 229v498z" />
    <glyph glyph-name="jcircumflex" unicode="&#x135;" horiz-adv-x="274" 
d="M187 773l104 -190h-58l-95 129l-93 -129h-59l104 190h97zM93 512h88v-505c0 -95 -39 -164 -92 -222h-100c61 64 104 143 104 229v498z" />
    <glyph glyph-name="k" unicode="k" horiz-adv-x="541" 
d="M181 264v-264h-88v762h88v-465l221 215h109l-239 -227l263 -285h-109z" />
    <glyph glyph-name="uni0137" unicode="&#x137;" horiz-adv-x="541" 
d="M181 264v-264h-88v762h88v-465l221 215h109l-239 -227l263 -285h-109zM345 -37c0 -79 -50 -161 -97 -189h-65c40 41 71 116 71 189h91z" />
    <glyph glyph-name="l" unicode="l" horiz-adv-x="274" 
d="M93 762h88v-762h-88v762z" />
    <glyph glyph-name="lacute" unicode="&#x13a;" horiz-adv-x="274" 
d="M106 798l64 178h113l-119 -178h-58zM93 762h88v-762h-88v762z" />
    <glyph glyph-name="uni013C" unicode="&#x13c;" horiz-adv-x="274" 
d="M93 762h88v-762h-88v762zM182 -37c0 -79 -50 -161 -97 -189h-65c40 41 71 116 71 189h91z" />
    <glyph glyph-name="lcaron" unicode="&#x13e;" horiz-adv-x="388" 
d="M93 762h88v-762h-88v762zM303 762h101l-80 -234h-51z" />
    <glyph glyph-name="m" unicode="m" horiz-adv-x="866" 
d="M93 0v512h88v-55c29 27 86 66 150 66s106 -28 129 -74c30 27 98 74 171 74c100 0 147 -69 147 -173v-350h-87v332c0 72 -22 116 -90 116c-49 0 -88 -21 -122 -48v-400h-87v332c0 72 -23 116 -90 116c-50 0 -88 -21 -121 -48v-400h-88z" />
    <glyph glyph-name="n" unicode="n" horiz-adv-x="576" 
d="M181 512v-55c31 27 89 66 158 66c102 0 150 -69 150 -173v-350h-88v336c0 73 -26 112 -94 112c-51 0 -90 -21 -126 -48v-400h-88v512h88z" />
    <glyph glyph-name="ntilde" unicode="&#xf1;" horiz-adv-x="576" 
d="M358 596c-60 0 -98 99 -137 99c-33 0 -50 -46 -57 -99h-55c3 90 50 172 116 172c60 0 97 -99 137 -99c33 0 50 46 57 99h55c-3 -91 -50 -172 -116 -172zM181 512v-55c31 27 89 66 158 66c102 0 150 -69 150 -173v-350h-88v336c0 73 -26 112 -94 112
c-51 0 -90 -21 -126 -48v-400h-88v512h88z" />
    <glyph glyph-name="nacute" unicode="&#x144;" horiz-adv-x="576" 
d="M256 583l61 190h115l-122 -190h-54zM181 512v-55c31 27 89 66 158 66c102 0 150 -69 150 -173v-350h-88v336c0 73 -26 112 -94 112c-51 0 -90 -21 -126 -48v-400h-88v512h88z" />
    <glyph glyph-name="uni0146" unicode="&#x146;" horiz-adv-x="576" 
d="M181 512v-55c31 27 89 66 158 66c102 0 150 -69 150 -173v-350h-88v336c0 73 -26 112 -94 112c-51 0 -90 -21 -126 -48v-400h-88v512h88zM336 -37c0 -79 -50 -161 -97 -189h-65c40 41 71 116 71 189h91z" />
    <glyph glyph-name="ncaron" unicode="&#x148;" horiz-adv-x="576" 
d="M243 583l-104 190h59l93 -129l95 129h58l-104 -190h-97zM181 512v-55c31 27 89 66 158 66c102 0 150 -69 150 -173v-350h-88v336c0 73 -26 112 -94 112c-51 0 -90 -21 -126 -48v-400h-88v512h88z" />
    <glyph glyph-name="o" unicode="o" horiz-adv-x="557" 
d="M508 256c0 -158 -100 -267 -229 -267c-130 0 -230 109 -230 267s100 267 230 267c129 0 229 -109 229 -267zM137 256c0 -112 51 -191 142 -191c90 0 141 79 141 191s-51 192 -141 192c-91 0 -142 -80 -142 -192z" />
    <glyph glyph-name="ograve" unicode="&#xf2;" horiz-adv-x="557" 
d="M270 583l-122 190h115l60 -190h-53zM508 256c0 -158 -100 -267 -229 -267c-130 0 -230 109 -230 267s100 267 230 267c129 0 229 -109 229 -267zM137 256c0 -112 51 -191 142 -191c90 0 141 79 141 191s-51 192 -141 192c-91 0 -142 -80 -142 -192z" />
    <glyph glyph-name="oacute" unicode="&#xf3;" horiz-adv-x="557" 
d="M250 583l61 190h115l-122 -190h-54zM508 256c0 -158 -100 -267 -229 -267c-130 0 -230 109 -230 267s100 267 230 267c129 0 229 -109 229 -267zM137 256c0 -112 51 -191 142 -191c90 0 141 79 141 191s-51 192 -141 192c-91 0 -142 -80 -142 -192z" />
    <glyph glyph-name="ocircumflex" unicode="&#xf4;" horiz-adv-x="557" 
d="M327 773l104 -190h-58l-95 129l-93 -129h-59l104 190h97zM508 256c0 -158 -100 -267 -229 -267c-130 0 -230 109 -230 267s100 267 230 267c129 0 229 -109 229 -267zM137 256c0 -112 51 -191 142 -191c90 0 141 79 141 191s-51 192 -141 192c-91 0 -142 -80 -142 -192z
" />
    <glyph glyph-name="otilde" unicode="&#xf5;" horiz-adv-x="557" 
d="M348 596c-60 0 -98 99 -137 99c-33 0 -50 -46 -57 -99h-55c3 90 50 172 116 172c60 0 97 -99 137 -99c33 0 50 46 57 99h55c-3 -91 -50 -172 -116 -172zM508 256c0 -158 -100 -267 -229 -267c-130 0 -230 109 -230 267s100 267 230 267c129 0 229 -109 229 -267zM137 256
c0 -112 51 -191 142 -191c90 0 141 79 141 191s-51 192 -141 192c-91 0 -142 -80 -142 -192z" />
    <glyph glyph-name="odieresis" unicode="&#xf6;" horiz-adv-x="557" 
d="M126 672c0 33 25 60 59 60s59 -27 59 -60s-25 -59 -59 -59s-59 26 -59 59zM315 672c0 33 25 60 59 60s59 -27 59 -60s-25 -59 -59 -59s-59 26 -59 59zM508 256c0 -158 -100 -267 -229 -267c-130 0 -230 109 -230 267s100 267 230 267c129 0 229 -109 229 -267zM137 256
c0 -112 51 -191 142 -191c90 0 141 79 141 191s-51 192 -141 192c-91 0 -142 -80 -142 -192z" />
    <glyph glyph-name="omacron" unicode="&#x14d;" horiz-adv-x="557" 
d="M136 635v71h286v-71h-286zM508 256c0 -158 -100 -267 -229 -267c-130 0 -230 109 -230 267s100 267 230 267c129 0 229 -109 229 -267zM137 256c0 -112 51 -191 142 -191c90 0 141 79 141 191s-51 192 -141 192c-91 0 -142 -80 -142 -192z" />
    <glyph glyph-name="obreve" unicode="&#x14f;" horiz-adv-x="557" 
d="M279 583c-98 0 -147 86 -147 190h61c3 -67 26 -120 86 -120c61 0 84 53 87 120h61c0 -104 -49 -190 -148 -190zM508 256c0 -158 -100 -267 -229 -267c-130 0 -230 109 -230 267s100 267 230 267c129 0 229 -109 229 -267zM137 256c0 -112 51 -191 142 -191
c90 0 141 79 141 191s-51 192 -141 192c-91 0 -142 -80 -142 -192z" />
    <glyph glyph-name="ohungarumlaut" unicode="&#x151;" horiz-adv-x="557" 
d="M218 773h102l-114 -190h-48zM391 773h102l-114 -190h-48zM508 256c0 -158 -100 -267 -229 -267c-130 0 -230 109 -230 267s100 267 230 267c129 0 229 -109 229 -267zM137 256c0 -112 51 -191 142 -191c90 0 141 79 141 191s-51 192 -141 192c-91 0 -142 -80 -142 -192z
" />
    <glyph glyph-name="p" unicode="p" horiz-adv-x="581" 
d="M93 -215v727h88v-55c29 30 84 66 147 66c124 0 204 -96 204 -254c0 -169 -106 -280 -245 -280c-40 0 -80 13 -106 31v-235h-88zM181 87c26 -22 65 -29 97 -29c102 0 165 84 165 207c0 118 -55 184 -137 184c-52 0 -98 -23 -125 -49v-313z" />
    <glyph glyph-name="q" unicode="q" horiz-adv-x="581" 
d="M487 -215h-87v269c-28 -31 -80 -65 -142 -65c-121 0 -209 94 -209 253c0 169 118 281 264 281c51 0 113 -10 174 -42v-696zM400 433c-26 14 -57 19 -89 19c-89 0 -173 -75 -173 -206c0 -119 58 -183 141 -183c52 0 92 24 121 51v319z" />
    <glyph glyph-name="r" unicode="r" horiz-adv-x="402" 
d="M93 0v512h88v-87c46 56 104 106 193 92v-93c-81 19 -146 -13 -193 -68v-356h-88z" />
    <glyph glyph-name="racute" unicode="&#x155;" horiz-adv-x="402" 
d="M198 583l61 190h115l-122 -190h-54zM93 0v512h88v-87c46 56 104 106 193 92v-93c-81 19 -146 -13 -193 -68v-356h-88z" />
    <glyph glyph-name="uni0157" unicode="&#x157;" horiz-adv-x="402" 
d="M93 0v512h88v-87c46 56 104 106 193 92v-93c-81 19 -146 -13 -193 -68v-356h-88zM180 -37c0 -79 -50 -161 -97 -189h-65c40 41 71 116 71 189h91z" />
    <glyph glyph-name="rcaron" unicode="&#x159;" horiz-adv-x="402" 
d="M184 583l-104 190h59l93 -129l95 129h58l-104 -190h-97zM93 0v512h88v-87c46 56 104 106 193 92v-93c-81 19 -146 -13 -193 -68v-356h-88z" />
    <glyph glyph-name="s" unicode="s" horiz-adv-x="450" 
d="M43 115c55 -40 113 -52 163 -52c59 0 112 23 112 74c0 107 -255 65 -255 239c0 85 74 147 177 147c49 0 89 -11 131 -34v-81c-44 31 -87 42 -127 42c-59 0 -97 -29 -97 -71c0 -105 256 -66 256 -236c0 -100 -95 -154 -197 -154c-62 0 -122 16 -163 40v86z" />
    <glyph glyph-name="sacute" unicode="&#x15b;" horiz-adv-x="450" 
d="M203 583l61 190h115l-122 -190h-54zM43 115c55 -40 113 -52 163 -52c59 0 112 23 112 74c0 107 -255 65 -255 239c0 85 74 147 177 147c49 0 89 -11 131 -34v-81c-44 31 -87 42 -127 42c-59 0 -97 -29 -97 -71c0 -105 256 -66 256 -236c0 -100 -95 -154 -197 -154
c-62 0 -122 16 -163 40v86z" />
    <glyph glyph-name="scircumflex" unicode="&#x15d;" horiz-adv-x="450" 
d="M286 773l104 -190h-58l-95 129l-93 -129h-59l104 190h97zM43 115c55 -40 113 -52 163 -52c59 0 112 23 112 74c0 107 -255 65 -255 239c0 85 74 147 177 147c49 0 89 -11 131 -34v-81c-44 31 -87 42 -127 42c-59 0 -97 -29 -97 -71c0 -105 256 -66 256 -236
c0 -100 -95 -154 -197 -154c-62 0 -122 16 -163 40v86z" />
    <glyph glyph-name="uni015F" unicode="&#x15f;" horiz-adv-x="450" 
d="M177 -226c-43 0 -77 9 -100 25v58c34 -20 62 -28 97 -28c36 0 65 14 65 42c0 29 -37 40 -96 40l32 79c-50 5 -98 19 -132 39v86c55 -40 113 -52 163 -52c59 0 112 23 112 74c0 107 -255 65 -255 239c0 85 74 147 177 147c49 0 89 -11 131 -34v-81c-44 31 -87 42 -127 42
c-59 0 -97 -29 -97 -71c0 -105 256 -66 256 -236c0 -96 -88 -150 -185 -154l-14 -37c60 -8 98 -34 98 -81c0 -62 -59 -97 -125 -97z" />
    <glyph glyph-name="scaron" unicode="&#x161;" horiz-adv-x="450" 
d="M189 588l-104 190h59l93 -129l95 129h58l-104 -190h-97zM43 115c55 -40 113 -52 163 -52c59 0 112 23 112 74c0 107 -255 65 -255 239c0 85 74 147 177 147c49 0 89 -11 131 -34v-81c-44 31 -87 42 -127 42c-59 0 -97 -29 -97 -71c0 -105 256 -66 256 -236
c0 -100 -95 -154 -197 -154c-62 0 -122 16 -163 40v86z" />
    <glyph glyph-name="uni0219" unicode="&#x219;" horiz-adv-x="450" 
d="M43 115c55 -40 113 -52 163 -52c59 0 112 23 112 74c0 107 -255 65 -255 239c0 85 74 147 177 147c49 0 89 -11 131 -34v-81c-44 31 -87 42 -127 42c-59 0 -97 -29 -97 -71c0 -105 256 -66 256 -236c0 -100 -95 -154 -197 -154c-62 0 -122 16 -163 40v86zM265 -37
c0 -79 -50 -161 -97 -189h-65c40 41 71 116 71 189h91z" />
    <glyph glyph-name="t" unicode="t" horiz-adv-x="425" 
d="M111 512v122h88v-122h172v-71h-172v-294c0 -57 29 -83 80 -83c38 0 64 6 107 23v-72c-37 -17 -75 -26 -120 -26c-85 0 -155 40 -155 152v300h-81v71h81z" />
    <glyph glyph-name="uni0163" unicode="&#x163;" horiz-adv-x="425" 
d="M208 -226c-43 0 -77 9 -100 25v58c34 -20 62 -28 97 -28c36 0 65 14 65 42c0 29 -37 40 -96 40l35 85c-57 16 -98 60 -98 145v300h-81v71h81v122h88v-122h172v-71h-172v-294c0 -57 29 -83 80 -83c38 0 64 6 107 23v-72c-37 -17 -75 -26 -120 -26c-6 0 -11 0 -17 1
l-14 -38c60 -8 98 -34 98 -81c0 -62 -59 -97 -125 -97z" />
    <glyph glyph-name="tcaron" unicode="&#x165;" horiz-adv-x="425" 
d="M295 817h101l-80 -234h-51zM111 512v122h88v-122h172v-71h-172v-294c0 -57 29 -83 80 -83c38 0 64 6 107 23v-72c-37 -17 -75 -26 -120 -26c-85 0 -155 40 -155 152v300h-81v71h81z" />
    <glyph glyph-name="uni021B" unicode="&#x21b;" horiz-adv-x="425" 
d="M111 512v122h88v-122h172v-71h-172v-294c0 -57 29 -83 80 -83c38 0 64 6 107 23v-72c-37 -17 -75 -26 -120 -26c-85 0 -155 40 -155 152v300h-81v71h81zM300 -37c0 -79 -50 -161 -97 -189h-65c40 41 71 116 71 189h91z" />
    <glyph glyph-name="u" unicode="u" horiz-adv-x="573" 
d="M393 55c-31 -27 -88 -66 -157 -66c-100 0 -149 69 -149 173v350h88v-331c0 -72 22 -117 92 -117c51 0 91 22 126 50v398h88v-512h-88v55z" />
    <glyph glyph-name="ugrave" unicode="&#xf9;" horiz-adv-x="573" 
d="M273 583l-122 190h115l60 -190h-53zM393 55c-31 -27 -88 -66 -157 -66c-100 0 -149 69 -149 173v350h88v-331c0 -72 22 -117 92 -117c51 0 91 22 126 50v398h88v-512h-88v55z" />
    <glyph glyph-name="uacute" unicode="&#xfa;" horiz-adv-x="573" 
d="M252 583l61 190h115l-122 -190h-54zM393 55c-31 -27 -88 -66 -157 -66c-100 0 -149 69 -149 173v350h88v-331c0 -72 22 -117 92 -117c51 0 91 22 126 50v398h88v-512h-88v55z" />
    <glyph glyph-name="ucircumflex" unicode="&#xfb;" horiz-adv-x="573" 
d="M331 773l104 -190h-58l-95 129l-93 -129h-59l104 190h97zM393 55c-31 -27 -88 -66 -157 -66c-100 0 -149 69 -149 173v350h88v-331c0 -72 22 -117 92 -117c51 0 91 22 126 50v398h88v-512h-88v55z" />
    <glyph glyph-name="udieresis" unicode="&#xfc;" horiz-adv-x="573" 
d="M130 672c0 33 25 60 59 60s59 -27 59 -60s-25 -59 -59 -59s-59 26 -59 59zM319 672c0 33 25 60 59 60s59 -27 59 -60s-25 -59 -59 -59s-59 26 -59 59zM393 55c-31 -27 -88 -66 -157 -66c-100 0 -149 69 -149 173v350h88v-331c0 -72 22 -117 92 -117c51 0 91 22 126 50
v398h88v-512h-88v55z" />
    <glyph glyph-name="utilde" unicode="&#x169;" horiz-adv-x="573" 
d="M350 596c-60 0 -98 99 -137 99c-33 0 -50 -46 -57 -99h-55c3 90 50 172 116 172c60 0 97 -99 137 -99c33 0 50 46 57 99h55c-3 -91 -50 -172 -116 -172zM393 55c-31 -27 -88 -66 -157 -66c-100 0 -149 69 -149 173v350h88v-331c0 -72 22 -117 92 -117c51 0 91 22 126 50
v398h88v-512h-88v55z" />
    <glyph glyph-name="umacron" unicode="&#x16b;" horiz-adv-x="573" 
d="M140 635v71h286v-71h-286zM393 55c-31 -27 -88 -66 -157 -66c-100 0 -149 69 -149 173v350h88v-331c0 -72 22 -117 92 -117c51 0 91 22 126 50v398h88v-512h-88v55z" />
    <glyph glyph-name="ubreve" unicode="&#x16d;" horiz-adv-x="573" 
d="M283 583c-98 0 -147 86 -147 190h61c3 -67 26 -120 86 -120c61 0 84 53 87 120h61c0 -104 -49 -190 -148 -190zM393 55c-31 -27 -88 -66 -157 -66c-100 0 -149 69 -149 173v350h88v-331c0 -72 22 -117 92 -117c51 0 91 22 126 50v398h88v-512h-88v55z" />
    <glyph glyph-name="uring" unicode="&#x16f;" horiz-adv-x="573" 
d="M284 594c-61 0 -112 50 -112 111c0 62 51 112 112 112s112 -50 112 -112c0 -61 -51 -111 -112 -111zM284 765c-33 0 -61 -26 -61 -60c0 -33 28 -60 61 -60s61 27 61 60c0 34 -29 60 -61 60zM393 55c-31 -27 -88 -66 -157 -66c-100 0 -149 69 -149 173v350h88v-331
c0 -72 22 -117 92 -117c51 0 91 22 126 50v398h88v-512h-88v55z" />
    <glyph glyph-name="uhungarumlaut" unicode="&#x171;" horiz-adv-x="573" 
d="M221 773h102l-114 -190h-48zM394 773h102l-114 -190h-48zM393 55c-31 -27 -88 -66 -157 -66c-100 0 -149 69 -149 173v350h88v-331c0 -72 22 -117 92 -117c51 0 91 22 126 50v398h88v-512h-88v55z" />
    <glyph glyph-name="uogonek" unicode="&#x173;" horiz-adv-x="573" 
d="M498 -201c-23 -16 -58 -25 -91 -25c-60 0 -104 39 -104 90c0 52 35 96 90 137v54c-31 -27 -88 -66 -157 -66c-100 0 -149 69 -149 173v350h88v-331c0 -72 22 -117 92 -117c51 0 91 22 126 50v398h88v-512h-19c-63 -46 -92 -82 -92 -123c0 -27 19 -43 50 -43
c23 0 47 6 78 21v-56z" />
    <glyph glyph-name="v" unicode="v" horiz-adv-x="524" 
d="M221 0l-195 512h92l145 -411h3l146 411h86l-195 -512h-82z" />
    <glyph glyph-name="w" unicode="w" horiz-adv-x="732" 
d="M401 512l111 -394h4l106 394h85l-154 -512h-74l-112 387h-3l-111 -387h-73l-154 512h88l110 -394h3l107 394h67z" />
    <glyph glyph-name="wcircumflex" unicode="&#x175;" horiz-adv-x="732" 
d="M413 773l104 -190h-58l-95 129l-93 -129h-59l104 190h97zM401 512l111 -394h4l106 394h85l-154 -512h-74l-112 387h-3l-111 -387h-73l-154 512h88l110 -394h3l107 394h67z" />
    <glyph glyph-name="wgrave" unicode="&#x1e81;" horiz-adv-x="732" 
d="M341 583l-122 190h115l60 -190h-53zM401 512l111 -394h4l106 394h85l-154 -512h-74l-112 387h-3l-111 -387h-73l-154 512h88l110 -394h3l107 394h67z" />
    <glyph glyph-name="wacute" unicode="&#x1e83;" horiz-adv-x="732" 
d="M343 583l61 190h115l-122 -190h-54zM401 512l111 -394h4l106 394h85l-154 -512h-74l-112 387h-3l-111 -387h-73l-154 512h88l110 -394h3l107 394h67z" />
    <glyph glyph-name="wdieresis" unicode="&#x1e85;" horiz-adv-x="732" 
d="M212 672c0 33 25 60 59 60s59 -27 59 -60s-25 -59 -59 -59s-59 26 -59 59zM401 672c0 33 25 60 59 60s59 -27 59 -60s-25 -59 -59 -59s-59 26 -59 59zM401 512l111 -394h4l106 394h85l-154 -512h-74l-112 387h-3l-111 -387h-73l-154 512h88l110 -394h3l107 394h67z" />
    <glyph glyph-name="x" unicode="x" horiz-adv-x="530" 
d="M264 202l-144 -202h-94l191 263l-178 249h99l129 -186l131 186h94l-178 -247l190 -265h-100z" />
    <glyph glyph-name="y" unicode="y" horiz-adv-x="524" 
d="M75 -221c-23 0 -44 4 -57 10v69c17 -5 35 -7 53 -7c74 0 117 58 150 153l-195 508h93l145 -404h4l143 404h87l-196 -518c-57 -149 -120 -215 -227 -215z" />
    <glyph glyph-name="yacute" unicode="&#xfd;" horiz-adv-x="524" 
d="M225 583l61 190h115l-122 -190h-54zM75 -221c-23 0 -44 4 -57 10v69c17 -5 35 -7 53 -7c74 0 117 58 150 153l-195 508h93l145 -404h4l143 404h87l-196 -518c-57 -149 -120 -215 -227 -215z" />
    <glyph glyph-name="ydieresis" unicode="&#xff;" horiz-adv-x="524" 
d="M111 672c0 33 25 60 59 60s59 -27 59 -60s-25 -59 -59 -59s-59 26 -59 59zM300 672c0 33 25 60 59 60s59 -27 59 -60s-25 -59 -59 -59s-59 26 -59 59zM75 -221c-23 0 -44 4 -57 10v69c17 -5 35 -7 53 -7c74 0 117 58 150 153l-195 508h93l145 -404h4l143 404h87
l-196 -518c-57 -149 -120 -215 -227 -215z" />
    <glyph glyph-name="ycircumflex" unicode="&#x177;" horiz-adv-x="524" 
d="M312 773l104 -190h-58l-95 129l-93 -129h-59l104 190h97zM75 -221c-23 0 -44 4 -57 10v69c17 -5 35 -7 53 -7c74 0 117 58 150 153l-195 508h93l145 -404h4l143 404h87l-196 -518c-57 -149 -120 -215 -227 -215z" />
    <glyph glyph-name="ygrave" unicode="&#x1ef3;" horiz-adv-x="524" 
d="M254 583l-122 190h115l60 -190h-53zM75 -221c-23 0 -44 4 -57 10v69c17 -5 35 -7 53 -7c74 0 117 58 150 153l-195 508h93l145 -404h4l143 404h87l-196 -518c-57 -149 -120 -215 -227 -215z" />
    <glyph glyph-name="z" unicode="z" horiz-adv-x="491" 
d="M445 0h-393v52l267 389h-262v71h371v-52l-268 -389h285v-71z" />
    <glyph glyph-name="zacute" unicode="&#x17a;" horiz-adv-x="491" 
d="M222 583l61 190h115l-122 -190h-54zM445 0h-393v52l267 389h-262v71h371v-52l-268 -389h285v-71z" />
    <glyph glyph-name="zdotaccent" unicode="&#x17c;" horiz-adv-x="491" 
d="M193 677c0 36 26 65 64 65s64 -29 64 -65s-26 -64 -64 -64s-64 28 -64 64zM445 0h-393v52l267 389h-262v71h371v-52l-268 -389h285v-71z" />
    <glyph glyph-name="zcaron" unicode="&#x17e;" horiz-adv-x="491" 
d="M208 583l-104 190h59l93 -129l95 129h58l-104 -190h-97zM445 0h-393v52l267 389h-262v71h371v-52l-268 -389h285v-71z" />
    <glyph glyph-name="ordfeminine" unicode="&#xaa;" horiz-adv-x="474" 
d="M308 334l-8 38c-29 -26 -65 -47 -113 -47c-58 0 -106 39 -106 101c0 75 59 130 218 130v17c0 47 -20 74 -75 74c-41 0 -84 -12 -123 -35v62c31 22 88 37 127 37c105 0 142 -57 142 -130v-180c0 -34 3 -44 9 -67h-71zM212 383c31 0 58 10 87 30v91
c-106 1 -145 -28 -145 -71c0 -28 22 -50 58 -50zM96 249h287v-61h-287v61z" />
    <glyph glyph-name="ordmasculine" unicode="&#xba;" horiz-adv-x="483" 
d="M414 519c0 -113 -75 -192 -172 -192s-173 79 -173 192c0 115 76 193 173 193s172 -78 172 -193zM142 519c0 -74 35 -127 100 -127c63 0 98 53 98 127c0 75 -35 128 -98 128c-65 0 -100 -53 -100 -128zM99 250h284v-61h-284v61z" />
    <glyph glyph-name="germandbls" unicode="&#xdf;" horiz-adv-x="630" 
d="M395 425c1 -83 192 -133 192 -274c0 -99 -86 -162 -179 -162c-61 0 -108 16 -147 40v86c53 -41 96 -53 147 -53c61 0 96 38 96 84c0 107 -189 147 -189 268c0 73 50 116 133 176c-4 53 -46 111 -122 111c-85 0 -145 -63 -145 -173v-528h-88v535c0 146 107 238 234 238
c137 0 205 -95 209 -198c-105 -67 -142 -103 -141 -150z" />
    <glyph glyph-name="ae" unicode="&#xe6;" horiz-adv-x="807" 
d="M595 -11c-88 0 -157 38 -201 100c-41 -49 -110 -100 -191 -100c-88 0 -151 57 -151 144c0 101 92 171 293 171v36c0 64 -28 106 -104 106c-53 0 -109 -19 -162 -49v75c42 30 116 51 168 51c89 0 134 -39 154 -96c36 55 95 96 167 96c146 0 203 -122 188 -281h-331
c7 -108 78 -177 177 -177c47 0 86 6 142 36v-78c-46 -24 -95 -34 -149 -34zM566 450c-74 0 -126 -56 -139 -146h245c6 82 -29 146 -106 146zM218 58c45 0 97 19 147 86c-12 29 -19 63 -21 98c-139 0 -206 -34 -206 -104c0 -49 32 -80 80 -80z" />
    <glyph glyph-name="aeacute" unicode="&#x1fd;" horiz-adv-x="807" 
d="M372 583l61 190h115l-122 -190h-54zM595 -11c-88 0 -157 38 -201 100c-41 -49 -110 -100 -191 -100c-88 0 -151 57 -151 144c0 101 92 171 293 171v36c0 64 -28 106 -104 106c-53 0 -109 -19 -162 -49v75c42 30 116 51 168 51c89 0 134 -39 154 -96c36 55 95 96 167 96
c146 0 203 -122 188 -281h-331c7 -108 78 -177 177 -177c47 0 86 6 142 36v-78c-46 -24 -95 -34 -149 -34zM566 450c-74 0 -126 -56 -139 -146h245c6 82 -29 146 -106 146zM218 58c45 0 97 19 147 86c-12 29 -19 63 -21 98c-139 0 -206 -34 -206 -104c0 -49 32 -80 80 -80z
" />
    <glyph glyph-name="eth" unicode="&#xf0;" horiz-adv-x="564" 
d="M279 -11c-131 0 -230 104 -230 255c0 150 107 251 232 251c50 0 99 -24 130 -59c-24 79 -68 138 -126 184l-159 -77v61l106 52c-51 30 -108 54 -171 75v9l85 33c56 -20 112 -46 163 -80l131 64v-62l-82 -40c92 -79 157 -195 157 -366c0 -189 -99 -300 -236 -300zM280 65
c92 0 151 74 151 224c0 22 -1 43 -3 63c-34 42 -80 74 -136 74c-95 0 -155 -77 -155 -182c0 -107 51 -179 143 -179z" />
    <glyph glyph-name="oslash" unicode="&#xf8;" horiz-adv-x="557" 
d="M279 -11c-41 0 -80 11 -113 31l-41 -66h-65l63 101c-46 47 -74 117 -74 201c0 158 100 267 230 267c42 0 81 -12 115 -33l41 66h67l-64 -103c43 -47 70 -115 70 -197c0 -158 -100 -267 -229 -267zM135 256c0 -52 11 -98 31 -131l189 303c-21 15 -46 24 -76 24
c-92 0 -144 -81 -144 -196zM279 60c91 0 143 81 143 196c0 50 -10 94 -28 127l-189 -301c21 -14 45 -22 74 -22z" />
    <glyph glyph-name="oslashacute" unicode="&#x1ff;" horiz-adv-x="557" 
d="M247 583l61 190h115l-122 -190h-54zM279 -11c-41 0 -80 11 -113 31l-41 -66h-65l63 101c-46 47 -74 117 -74 201c0 158 100 267 230 267c42 0 81 -12 115 -33l41 66h67l-64 -103c43 -47 70 -115 70 -197c0 -158 -100 -267 -229 -267zM135 256c0 -52 11 -98 31 -131
l189 303c-21 15 -46 24 -76 24c-92 0 -144 -81 -144 -196zM279 60c91 0 143 81 143 196c0 50 -10 94 -28 127l-189 -301c21 -14 45 -22 74 -22z" />
    <glyph glyph-name="thorn" unicode="&#xfe;" horiz-adv-x="581" 
d="M181 -215h-88v977h88v-305c29 30 84 66 147 66c124 0 204 -96 204 -254c0 -169 -106 -280 -245 -280c-40 0 -80 13 -106 31v-235zM181 87c26 -22 65 -29 97 -29c102 0 165 84 165 207c0 118 -55 184 -137 184c-52 0 -98 -23 -125 -49v-313z" />
    <glyph glyph-name="dcroat" unicode="&#x111;" horiz-adv-x="581" 
d="M400 54c-28 -31 -80 -65 -142 -65c-121 0 -209 94 -209 253c0 171 105 281 242 281c40 0 83 -10 109 -28v117h-142v62h142v88h87v-88h73v-62h-73v-612h-87v54zM400 424c-26 20 -67 29 -99 29c-104 0 -163 -85 -163 -207c0 -119 58 -183 141 -183c52 0 92 24 121 51v310z
" />
    <glyph glyph-name="hbar" unicode="&#x127;" horiz-adv-x="576" 
d="M181 0h-88v612h-73v62h73v88h88v-88h142v-62h-142v-155c31 27 89 66 158 66c102 0 150 -69 150 -173v-350h-88v336c0 73 -26 112 -94 112c-51 0 -90 -21 -126 -48v-400z" />
    <glyph glyph-name="dotlessi" unicode="&#x131;" horiz-adv-x="274" 
d="M93 512h88v-512h-88v512z" />
    <glyph glyph-name="kgreenlandic" unicode="&#x138;" horiz-adv-x="541" 
d="M181 264v-264h-88v512h88v-215l221 215h109l-239 -227l263 -285h-109z" />
    <glyph glyph-name="ldot" unicode="&#x140;" horiz-adv-x="404" 
d="M93 762h88v-762h-88v762zM269 392c0 36 26 65 64 65s64 -29 64 -65s-26 -64 -64 -64s-64 28 -64 64z" />
    <glyph glyph-name="lslash" unicode="&#x142;" horiz-adv-x="343" 
d="M125 0v340l-107 -61v71l107 60v352h88v-307l112 62v-70l-112 -62v-385h-88z" />
    <glyph glyph-name="eng" unicode="&#x14b;" horiz-adv-x="576" 
d="M297 -215c61 64 104 143 104 229v322c0 73 -26 112 -94 112c-51 0 -90 -21 -126 -48v-400h-88v512h88v-55c31 27 89 66 158 66c102 0 150 -69 150 -173v-343c0 -95 -39 -164 -92 -222h-100z" />
    <glyph glyph-name="oe" unicode="&#x153;" horiz-adv-x="885" 
d="M823 23c-46 -24 -95 -34 -149 -34c-92 0 -165 45 -207 111c-42 -68 -109 -111 -188 -111c-130 0 -230 109 -230 267s100 267 230 267c77 0 143 -40 185 -106c38 63 101 106 183 106c146 0 204 -122 187 -281h-330c7 -108 78 -177 177 -177c47 0 87 6 142 36v-78zM646 450
c-75 0 -127 -56 -140 -146h244c7 82 -28 146 -104 146zM137 256c0 -112 51 -191 142 -191c90 0 142 79 142 191s-52 192 -142 192c-91 0 -142 -80 -142 -192z" />
    <glyph glyph-name="tbar" unicode="&#x167;" horiz-adv-x="435" 
d="M386 15c-37 -17 -75 -26 -120 -26c-85 0 -155 40 -155 152v114h-81v68h81v118h-81v71h81v122h88v-122h172v-71h-172v-118h170v-68h-170v-108c0 -57 29 -83 80 -83c38 0 64 6 107 23v-72z" />
    <glyph glyph-name="zero" unicode="0" 
d="M538 329c0 -200 -93 -340 -244 -340s-244 140 -244 340s93 340 244 340s244 -140 244 -340zM445 329c0 150 -46 260 -151 260s-151 -110 -151 -260s46 -260 151 -260s151 110 151 260z" />
    <glyph glyph-name="one" unicode="1" 
d="M91 0v78h185v476l-186 -60v71l220 97h55v-584h163v-78h-437z" />
    <glyph glyph-name="two" unicode="2" 
d="M408 468c0 70 -48 117 -135 117c-76 0 -150 -39 -203 -92v89c51 47 129 87 214 87c133 0 216 -76 216 -191s-103 -198 -234 -317l-95 -83h360v-78h-473v74l152 137c116 106 198 173 198 257z" />
    <glyph glyph-name="three" unicode="3" 
d="M43 117c53 -36 119 -51 184 -51c115 0 203 54 203 140c0 89 -88 119 -233 120v54l189 200h-307v78h400v-84l-182 -190c103 -8 225 -55 225 -179c0 -129 -130 -216 -294 -216c-75 0 -136 17 -185 45v83z" />
    <glyph glyph-name="four" unicode="4" 
d="M326 0v173h-294v61c41 129 140 306 252 424h108c-127 -130 -215 -276 -269 -411h203v166h84v-166h159v-74h-159v-173h-84z" />
    <glyph glyph-name="five" unicode="5" 
d="M426 208c0 102 -105 132 -299 146l12 304h348v-78h-276l-6 -160c159 -11 309 -57 309 -209c0 -132 -118 -222 -281 -222c-76 0 -137 17 -184 45v86c51 -38 119 -54 180 -54c121 0 197 57 197 142z" />
    <glyph glyph-name="six" unicode="6" 
d="M534 209c0 -121 -99 -220 -226 -220c-143 0 -252 125 -252 308c0 215 122 372 325 372c55 0 105 -13 136 -33v-73c-33 20 -84 30 -134 30c-147 0 -232 -106 -241 -269c34 45 96 93 187 93c116 0 205 -78 205 -208zM308 62c80 0 140 58 140 147c0 88 -61 138 -141 138
c-75 0 -128 -43 -165 -87c11 -129 80 -198 166 -198z" />
    <glyph glyph-name="seven" unicode="7" 
d="M118 0c146 160 272 407 320 580h-390v78h480v-64c-34 -165 -165 -442 -306 -594h-104z" />
    <glyph glyph-name="eight" unicode="8" 
d="M293 -11c-138 0 -244 76 -244 186c0 83 68 141 143 172c-61 33 -105 81 -105 151c0 99 94 171 209 171c119 0 210 -67 210 -168c0 -67 -47 -122 -119 -156c78 -34 152 -76 152 -171c0 -108 -113 -185 -246 -185zM337 368c55 31 84 75 84 127c0 62 -45 106 -125 106
c-75 0 -122 -43 -122 -99c0 -49 25 -74 92 -103zM293 58c88 0 155 44 155 113c0 61 -46 87 -123 119l-80 32c-65 -29 -108 -75 -108 -141c0 -71 66 -123 156 -123z" />
    <glyph glyph-name="nine" unicode="9" 
d="M55 449c0 121 99 220 226 220c143 0 252 -125 252 -308c0 -215 -122 -372 -325 -372c-55 0 -105 13 -136 33v73c33 -20 84 -30 134 -30c147 0 232 106 241 269c-34 -45 -96 -93 -187 -93c-116 0 -205 78 -205 208zM281 596c-80 0 -140 -58 -140 -147
c0 -88 61 -138 141 -138c75 0 128 43 165 87c-11 129 -80 198 -166 198z" />
    <glyph glyph-name="underscore" unicode="_" 
d="M102 -49h384v-78h-384v78z" />
    <glyph glyph-name="hyphen" unicode="-" 
d="M102 319h384v-78h-384v78z" />
    <glyph glyph-name="endash" unicode="&#x2013;" horiz-adv-x="770" 
d="M102 314h566v-69h-566v69z" />
    <glyph glyph-name="emdash" unicode="&#x2014;" horiz-adv-x="1052" 
d="M102 314h848v-69h-848v69z" />
    <glyph glyph-name="parenleft" unicode="(" horiz-adv-x="433" 
d="M174 319c0 -189 109 -350 223 -443h-94c-91 76 -221 233 -221 443c0 209 130 367 221 443h94c-114 -93 -223 -254 -223 -443z" />
    <glyph glyph-name="parenright" unicode=")" horiz-adv-x="433" 
d="M36 -124c114 93 223 254 223 443s-109 350 -223 443h94c91 -76 221 -234 221 -443c0 -210 -130 -367 -221 -443h-94z" />
    <glyph glyph-name="bracketleft" unicode="[" horiz-adv-x="420" 
d="M196 -55h170v-69h-257v886h257v-69h-170v-748z" />
    <glyph glyph-name="bracketright" unicode="]" horiz-adv-x="420" 
d="M224 693h-170v69h257v-886h-257v69h170v748z" />
    <glyph glyph-name="braceleft" unicode="{" horiz-adv-x="502" 
d="M54 355h76c41 0 68 8 68 66l-27 205c0 87 84 136 177 136c38 0 72 -7 99 -19v-64c-19 8 -60 14 -86 14c-59 0 -105 -24 -105 -77l27 -197c0 -65 -51 -93 -93 -100c42 -7 93 -35 93 -101l-27 -196c0 -54 46 -78 105 -78c26 0 67 7 86 15v-65c-27 -11 -61 -18 -99 -18
c-93 0 -177 49 -177 136l27 205c0 58 -27 65 -68 65h-76v73z" />
    <glyph glyph-name="braceright" unicode="}" horiz-adv-x="502" 
d="M448 282h-76c-41 0 -68 -7 -68 -65l27 -205c0 -87 -84 -136 -177 -136c-38 0 -72 7 -99 18v65c19 -8 60 -15 86 -15c59 0 105 24 105 78l-27 196c0 66 51 94 93 101c-42 7 -93 35 -93 100l27 197c0 53 -46 77 -105 77c-26 0 -67 -6 -86 -14v64c27 12 61 19 99 19
c93 0 177 -49 177 -136l-27 -205c0 -58 27 -66 68 -66h76v-73z" />
    <glyph glyph-name="numbersign" unicode="#" horiz-adv-x="741" 
d="M425 185h-160l-32 -185h-73l32 185h-133l10 69h135l26 150h-141l10 68h143l32 186h74l-33 -186h160l32 186h73l-32 -186h134l-11 -68h-135l-26 -150h141l-10 -69h-143l-32 -185h-73zM463 404h-159l-27 -150h160z" />
    <glyph glyph-name="percent" unicode="%" horiz-adv-x="800" 
d="M186 669c89 0 149 -72 149 -173c0 -102 -60 -174 -149 -174c-90 0 -149 72 -149 174c0 101 59 173 149 173zM654 669l-436 -680h-73l436 680h73zM186 376c60 0 72 48 72 120c0 71 -12 118 -72 118c-61 0 -72 -47 -72 -118c0 -72 11 -120 72 -120zM614 -11
c-89 0 -150 72 -150 173c0 102 61 174 150 174s149 -72 149 -174c0 -101 -60 -173 -149 -173zM614 281c-59 0 -72 -47 -72 -119c0 -71 13 -118 72 -118c61 0 72 47 72 118c0 72 -11 119 -72 119z" />
    <glyph glyph-name="quotesingle" unicode="'" horiz-adv-x="240" 
d="M73 762h105l-45 -277h-60v277z" />
    <glyph glyph-name="quotedbl" unicode="&#x22;" horiz-adv-x="413" 
d="M73 762h105l-45 -277h-60v277zM246 762h105l-45 -277h-60v277z" />
    <glyph glyph-name="quoteleft" unicode="&#x2018;" horiz-adv-x="245" 
d="M67 491c0 115 31 200 92 271h63c-49 -77 -57 -162 -57 -271h-98z" />
    <glyph glyph-name="quoteright" unicode="&#x2019;" horiz-adv-x="245" 
d="M177 762c0 -115 -30 -200 -91 -271h-63c47 77 57 162 57 271h97z" />
    <glyph glyph-name="quotedblleft" unicode="&#x201c;" horiz-adv-x="425" 
d="M67 491c0 115 31 200 92 271h63c-49 -77 -57 -162 -57 -271h-98zM248 491c0 115 31 200 92 271h63c-49 -77 -57 -162 -57 -271h-98z" />
    <glyph glyph-name="quotedblright" unicode="&#x201d;" horiz-adv-x="245" 
d="M177 762c0 -115 -30 -200 -91 -271h-63c47 77 57 162 57 271h97zM358 762c0 -115 -30 -200 -91 -271h-63c47 77 57 162 57 271h97z" />
    <glyph glyph-name="quotesinglbase" unicode="&#x201a;" horiz-adv-x="245" 
d="M177 129c0 -115 -30 -200 -91 -271h-63c47 78 57 163 57 271h97z" />
    <glyph glyph-name="quotedblbase" unicode="&#x201e;" horiz-adv-x="425" 
d="M177 129c0 -115 -30 -200 -91 -271h-63c47 78 57 163 57 271h97zM358 129c0 -115 -30 -200 -91 -271h-63c47 78 57 163 57 271h97z" />
    <glyph glyph-name="guilsinglleft" unicode="&#x2039;" horiz-adv-x="339" 
d="M293 52h-72l-175 202l175 202h72l-136 -202z" />
    <glyph glyph-name="guilsinglright" unicode="&#x203a;" horiz-adv-x="339" 
d="M181 254l-135 202h72l175 -202l-175 -202h-72z" />
    <glyph glyph-name="guillemotleft" unicode="&#xab;" horiz-adv-x="567" 
d="M293 52h-72l-175 202l175 202h72l-136 -202zM521 52h-72l-175 202l175 202h72l-136 -202z" />
    <glyph glyph-name="guillemotright" unicode="&#xbb;" horiz-adv-x="567" 
d="M181 254l-135 202h72l175 -202l-175 -202h-72zM409 254l-135 202h72l175 -202l-175 -202h-72z" />
    <glyph glyph-name="asterisk" unicode="*" horiz-adv-x="499" 
d="M288 762v-43l-16 -124l112 54l40 14l25 -74l-40 -13l-123 -24l85 -89l25 -34l-62 -46l-25 34l-59 107l-60 -107l-24 -34l-64 46l26 34l85 89l-122 24l-41 13l25 74l40 -14l112 -53l-16 124v42h77z" />
    <glyph glyph-name="dagger" unicode="&#x2020;" horiz-adv-x="399" 
d="M235 319h-74v166l18 94l-92 -18h-41v75h40l94 -19l-19 95v50h74v-51l-19 -95l98 20h40v-75h-41l-97 19l19 -94v-167z" />
    <glyph glyph-name="daggerdbl" unicode="&#x2021;" horiz-adv-x="399" 
d="M161 319v49l17 68l-92 -18h-40v74h41l87 -18v132l-87 -18h-41v75h40l92 -19l-17 69v49h74v-50l-18 -68l97 19h40v-75h-41l-91 18v-132l91 18h41v-74h-40l-97 19l18 -68v-50h-74z" />
    <glyph glyph-name="period" unicode="." horiz-adv-x="313" 
d="M83 69c0 40 33 76 74 76c40 0 74 -36 74 -76s-34 -75 -74 -75c-41 0 -74 35 -74 75z" />
    <glyph glyph-name="comma" unicode="," horiz-adv-x="312" 
d="M214 129c0 -125 -64 -254 -107 -301h-63c36 61 65 181 65 301h105z" />
    <glyph glyph-name="colon" unicode=":" horiz-adv-x="312" 
d="M83 401c0 40 33 76 74 76c40 0 74 -36 74 -76s-34 -75 -74 -75c-41 0 -74 35 -74 75zM83 69c0 40 33 76 74 76c40 0 74 -36 74 -76s-34 -75 -74 -75c-41 0 -74 35 -74 75z" />
    <glyph glyph-name="semicolon" unicode=";" horiz-adv-x="312" 
d="M83 401c0 40 33 76 74 76c40 0 74 -36 74 -76s-34 -75 -74 -75c-41 0 -74 35 -74 75zM214 129c0 -125 -64 -254 -107 -301h-63c36 61 65 181 65 301h105z" />
    <glyph glyph-name="ellipsis" unicode="&#x2026;" horiz-adv-x="793" 
d="M83 69c0 40 33 76 74 76c40 0 74 -36 74 -76s-34 -75 -74 -75c-41 0 -74 35 -74 75zM323 69c0 40 33 76 74 76c40 0 74 -36 74 -76s-34 -75 -74 -75c-41 0 -74 35 -74 75zM564 69c0 40 33 76 74 76c40 0 74 -36 74 -76s-34 -75 -74 -75c-41 0 -74 35 -74 75z" />
    <glyph glyph-name="exclam" unicode="!" horiz-adv-x="299" 
d="M122 249l-30 452h116l-31 -452h-55zM76 69c0 40 33 76 74 76s74 -36 74 -76s-33 -75 -74 -75s-74 35 -74 75z" />
    <glyph glyph-name="exclamdown" unicode="&#xa1;" horiz-adv-x="299" 
d="M150 556c-41 0 -74 36 -74 76s33 75 74 75s74 -35 74 -75s-33 -76 -74 -76zM177 452l31 -452h-116l30 452h55z" />
    <glyph glyph-name="question" unicode="?" horiz-adv-x="500" 
d="M457 534c0 -130 -141 -161 -169 -285h-84c23 140 159 184 159 277c0 64 -42 102 -122 102c-71 0 -145 -39 -197 -88v91c51 45 128 81 207 81c123 0 206 -67 206 -178zM177 69c0 40 34 76 74 76c41 0 75 -36 75 -76s-34 -75 -75 -75c-40 0 -74 35 -74 75z" />
    <glyph glyph-name="questiondown" unicode="&#xbf;" horiz-adv-x="500" 
d="M324 632c0 -40 -34 -76 -74 -76c-41 0 -75 36 -75 76s34 75 75 75c40 0 74 -35 74 -75zM44 167c0 130 141 161 169 285h84c-23 -140 -159 -184 -159 -277c0 -64 42 -102 122 -102c71 0 145 39 197 88v-91c-51 -45 -128 -81 -207 -81c-123 0 -206 67 -206 178z" />
    <glyph glyph-name="slash" unicode="/" horiz-adv-x="404" 
d="M301 762h85l-285 -886h-83z" />
    <glyph glyph-name="backslash" unicode="\" horiz-adv-x="404" 
d="M386 -124h-83l-285 886h85z" />
    <glyph glyph-name="bar" unicode="|" horiz-adv-x="284" 
d="M93 -124v886h81v-886h-81z" />
    <glyph glyph-name="at" unicode="@" horiz-adv-x="1009" 
d="M671 104c12 -15 31 -22 55 -22c71 0 150 81 150 228c0 201 -156 335 -345 335c-222 0 -397 -171 -397 -414c0 -237 188 -388 403 -388c122 0 243 38 326 106v-76c-84 -65 -203 -99 -325 -99c-256 0 -479 177 -479 457c0 273 205 481 472 481c227 0 419 -163 419 -400
c0 -184 -120 -293 -234 -293c-52 0 -94 25 -117 55c-37 -28 -85 -55 -142 -55c-70 0 -130 49 -130 123c0 91 76 152 262 152v24c0 56 -27 92 -92 92c-51 0 -93 -15 -139 -41v69c38 27 96 45 145 45c114 0 168 -68 168 -157v-222zM481 82c38 0 72 14 108 41v115
c-131 0 -180 -32 -180 -90c0 -38 28 -66 72 -66z" />
    <glyph glyph-name="ampersand" unicode="&#x26;" horiz-adv-x="712" 
d="M495 90c-56 -62 -129 -101 -218 -101c-134 0 -219 93 -219 200c0 100 68 163 142 202c-39 44 -63 84 -63 141c0 106 83 179 199 179c53 0 109 -12 161 -47v-86c-55 43 -107 58 -159 58c-68 0 -115 -41 -115 -101c0 -53 35 -86 76 -128l190 -196c27 54 45 119 54 188h81
c-10 -86 -37 -173 -81 -244l150 -155h-110zM278 63c69 0 124 30 166 79l-199 201c-55 -28 -101 -69 -101 -146c0 -71 54 -134 134 -134z" />
    <glyph glyph-name="section" unicode="&#xa7;" horiz-adv-x="590" 
d="M210 560c0 -42 17 -64 78 -113l152 -120c38 -29 75 -61 75 -121c0 -40 -26 -71 -46 -83l-29 27c23 43 -4 77 -50 114l-179 147c-62 50 -82 88 -82 140c0 99 87 161 187 161c66 0 109 -16 150 -40v-83c-54 38 -97 51 -148 51c-59 0 -108 -30 -108 -80zM379 -22
c0 43 -16 64 -78 112l-151 122c-38 29 -76 61 -76 121c0 39 26 70 47 82l28 -26c-22 -44 4 -77 51 -115l179 -146c61 -51 82 -89 82 -140c0 -99 -88 -162 -188 -162c-65 0 -109 17 -150 40v84c55 -38 97 -52 149 -52c58 0 107 30 107 80z" />
    <glyph glyph-name="paragraph" unicode="&#xb6;" horiz-adv-x="612" 
d="M275 329h-13c-133 0 -226 69 -226 183c0 111 94 189 226 189h13v-372zM451 115c0 -141 -38 -220 -94 -284h-94c65 72 102 152 102 286v584h211v-78h-125v-508z" />
    <glyph glyph-name="periodcentered" unicode="&#xb7;" horiz-adv-x="353" 
d="M103 280c0 40 33 76 74 76c40 0 74 -36 74 -76s-34 -75 -74 -75c-41 0 -74 35 -74 75z" />
    <glyph glyph-name="bullet" unicode="&#x2022;" horiz-adv-x="501" 
d="M250 131c-81 0 -148 68 -148 149c0 82 67 148 148 148c82 0 149 -66 149 -148c0 -81 -67 -149 -149 -149z" />
    <glyph glyph-name="plus" unicode="+" 
d="M330 294v-218h-72v218h-218v72h218v218h72v-218h218v-72h-218z" />
    <glyph glyph-name="minus" unicode="&#x2212;" 
d="M40 366h508v-72h-508v72z" />
    <glyph glyph-name="divide" unicode="&#xf7;" 
d="M216 535c0 40 31 73 72 73c38 0 72 -33 72 -73c0 -38 -34 -70 -72 -70c-41 0 -72 32 -72 70zM40 366h508v-72h-508v72zM216 121c0 41 31 73 72 73c38 0 72 -32 72 -73c0 -38 -34 -70 -72 -70c-41 0 -72 32 -72 70z" />
    <glyph glyph-name="multiply" unicode="&#xd7;" 
d="M294 270l-185 -185l-50 51l185 185l-187 187l50 50l187 -187l187 187l50 -50l-186 -187l185 -185l-51 -51z" />
    <glyph glyph-name="equal" unicode="=" 
d="M40 466h508v-72h-508v72zM40 266h508v-72h-508v72z" />
    <glyph glyph-name="less" unicode="&#x3c;" 
d="M53 387l483 182v-82l-412 -150l412 -149v-82l-483 182v99z" />
    <glyph glyph-name="greater" unicode="&#x3e;" 
d="M536 288l-483 -182v82l412 149l-412 150v82l483 -182v-99z" />
    <glyph glyph-name="dollar" unicode="$" 
d="M257 -123v166c-74 4 -153 27 -199 56v91c72 -53 158 -72 219 -72c82 0 149 29 149 91c0 120 -343 59 -343 248c0 82 72 143 174 158v147h76v-144c55 -3 108 -17 157 -43v-83c-59 38 -122 54 -181 54c-79 0 -136 -35 -136 -87c0 -111 347 -56 347 -245
c0 -85 -76 -150 -187 -167v-170h-76z" />
    <glyph glyph-name="cent" unicode="&#xa2;" 
d="M495 112c-33 -16 -91 -32 -134 -35v-165h-77v170c-128 23 -215 112 -215 239c0 126 87 216 215 238v175h77v-169c43 -3 101 -20 134 -36v-78c-41 19 -94 35 -145 35c-111 0 -192 -60 -192 -165s81 -165 192 -165c51 0 104 16 145 35v-79z" />
    <glyph glyph-name="sterling" unicode="&#xa3;" 
d="M81 369l22 62h100c63 150 131 238 254 238c37 0 71 -7 108 -22v-77c-40 16 -65 21 -104 21c-87 0 -124 -63 -170 -160h163l-21 -62h-352zM555 0h-501v59l67 163h-91l23 61h364l-20 -61h-188l-61 -149h407v-73z" />
    <glyph glyph-name="yen" unicode="&#xa5;" 
d="M91 369v62h109l-195 227h107l181 -220l182 220h104l-195 -227h114v-62h-407zM339 222v-222h-90v222h-158v61h407v-61h-159z" />
    <glyph glyph-name="Euro" unicode="&#x20ac;" 
d="M39 379v62h85c41 146 158 228 310 228c42 0 78 -7 118 -22v-76c-43 16 -72 23 -116 23c-110 0 -189 -54 -222 -153h232l-23 -62h-384zM552 11c-40 -16 -76 -22 -118 -22c-157 0 -277 86 -314 243h-81v61h366l-22 -61h-174c31 -109 111 -168 227 -168c44 0 73 6 116 23
v-76z" />
    <glyph glyph-name="uni0192" unicode="&#x192;" 
d="M105 320l16 70h120l6 34c30 157 109 245 228 245c25 0 50 -4 71 -12v-72c-22 6 -42 8 -66 8c-74 0 -125 -55 -147 -172l-6 -31h138l-15 -70h-345zM296 229l-24 -117c-29 -156 -104 -244 -225 -244c-23 0 -49 4 -70 13v71c24 -7 43 -8 65 -8c75 0 122 55 143 171l22 114
h89z" />
    <glyph glyph-name="uni20B9" unicode="&#x20b9;" 
d="M515 0h-105l-214 251h-154l24 64h161c54 14 103 47 116 108h-301l24 63h278c-13 68 -79 108 -175 108h-126l24 64h485l-24 -64h-175c41 -25 67 -61 74 -108h125l-24 -63h-102c-12 -77 -68 -128 -136 -153z" />
    <glyph glyph-name="uni20AA" unicode="&#x20aa;" 
d="M46 658v-658h68v596h95c101 0 131 -34 131 -137v-297h66v304c0 135 -55 192 -194 192h-166zM358 0c139 0 196 57 196 192v466h-68v-459c0 -103 -30 -137 -131 -137h-95v417h-66v-479h164z" />
    <glyph glyph-name="colonmonetary" unicode="&#x20a1;" 
d="M325 81c-27 2 -52 6 -75 13l-45 -171h-61l51 194c-76 41 -123 113 -123 203c0 126 94 219 230 237l44 168h61l-44 -166c23 -1 51 -7 75 -15l47 181h61l-71 -271c-37 16 -76 28 -122 28c-109 0 -192 -59 -192 -162c0 -102 83 -162 192 -162c47 0 99 15 139 34v-79
c-27 -14 -69 -25 -107 -30l-42 -160h-60z" />
    <glyph glyph-name="uni17DB" unicode="&#x17db;" 
d="M348 -132c-153 0 -254 55 -254 140c0 64 50 108 124 108c18 0 34 -3 47 -8v-51c-8 2 -24 4 -35 4c-38 0 -64 -17 -64 -50c0 -55 82 -78 141 -80v343h-163v63h163v7c0 80 -60 112 -158 125c0 112 95 200 223 200c55 0 105 -12 149 -36v-71c-56 26 -104 34 -148 34
c-78 0 -129 -35 -140 -85c95 -12 157 -74 157 -162v-12h135v-63h-135v-406h-42z" />
    <glyph glyph-name="uni20A9" unicode="&#x20a9;" 
d="M151 0l-28 216h-118v59h110l-11 88h-99v59h91l-30 236h80l53 -525h6l57 367h68l56 -367h7l53 525h77l-30 -236h91v-59h-99l-11 -88h110v-59h-117l-28 -216h-81l-61 385h-5l-60 -385h-81z" />
    <glyph glyph-name="uni20B8" unicode="&#x20b8;" 
d="M42 658h505v-72h-505v72zM42 504h505v-72h-207v-432h-92v432h-206v72z" />
    <glyph glyph-name="uni20AD" unicode="&#x20ad;" 
d="M113 0v306h-95v77h95v275h84v-658h-84zM342 306l229 -306h-102l-245 343l223 315h98l-207 -275h198v-77h-194z" />
    <glyph glyph-name="uni20AE" unicode="&#x20ae;" 
d="M98 351l153 51v184h-209v72h505v-72h-210v-156l154 51v-64l-393 -130v64zM251 0v188l-153 -51v64l393 130v-64l-154 -51v-216h-86z" />
    <glyph glyph-name="uni20B1" unicode="&#x20b1;" 
d="M217 0h-81v321h-122v63h122v89h-120v63h120v122h122c98 0 156 -48 182 -122h135v-63h-120c1 -14 2 -28 2 -43c0 -16 -1 -31 -3 -46h121v-63h-136c-26 -72 -85 -119 -181 -119h-41v-202zM378 430c0 83 -28 155 -121 155h-40v-310h40c93 0 121 71 121 155z" />
    <glyph glyph-name="uni0E3F" unicode="&#xe3f;" 
d="M324 51v-174h-76v174h-166v558h166v153h76v-153c121 -6 182 -51 182 -140c0 -67 -56 -110 -114 -120c89 -11 154 -57 154 -140c0 -99 -73 -158 -212 -158h-10zM167 372h113c95 0 137 27 137 86c0 63 -42 82 -137 82h-113v-168zM455 213c0 57 -36 95 -133 95h-155v-187
h155c97 0 133 34 133 92z" />
    <glyph glyph-name="uni20B4" unicode="&#x20b4;" 
d="M38 372v62h338c15 19 24 45 24 69c0 66 -47 93 -116 93c-48 0 -111 -13 -166 -50v78c51 32 117 45 171 45c114 0 191 -52 191 -160c0 -25 -9 -54 -23 -75h96v-62h-515zM503 45c-43 -36 -125 -56 -184 -56c-125 0 -201 68 -201 168c0 25 7 49 16 68h-96v61h515v-61h-340
c-9 -17 -15 -38 -15 -62c0 -60 40 -101 126 -101c45 0 119 11 179 61v-78z" />
    <glyph glyph-name="uni20AB" unicode="&#x20ab;" 
d="M403 184c-24 -24 -77 -64 -151 -64c-96 0 -177 61 -177 160c0 111 96 171 200 171c52 0 99 -16 128 -35v113h-221v61h221v68h77v-68h92v-61h-92v-401h-77v56zM403 357c-26 19 -70 31 -117 31c-69 0 -129 -28 -129 -108c0 -66 54 -98 117 -98c58 0 102 32 129 57v118z
M95 59h390v-59h-390v59z" />
    <glyph glyph-name="asciicircum" unicode="^" 
d="M335 701l175 -282h-82l-134 194l-134 -194h-82l176 282h81z" />
    <glyph glyph-name="asciitilde" unicode="~" 
d="M368 220c-52 0 -110 86 -151 86c-34 0 -51 -38 -62 -89h-63c13 102 61 174 127 174c53 0 111 -87 153 -87c34 0 50 39 62 89h62c-13 -102 -60 -173 -128 -173z" />
    <glyph glyph-name="acute" unicode="&#xb4;" horiz-adv-x="547" 
d="M184 583l61 190h115l-122 -190h-54z" />
    <glyph glyph-name="grave" unicode="`" horiz-adv-x="547" 
d="M309 583l-122 190h115l60 -190h-53z" />
    <glyph glyph-name="hungarumlaut" unicode="&#x2dd;" horiz-adv-x="547" 
d="M164 773h102l-114 -190h-48zM337 773h102l-114 -190h-48z" />
    <glyph glyph-name="circumflex" unicode="&#x2c6;" horiz-adv-x="547" 
d="M322 773l104 -190h-58l-95 129l-93 -129h-59l104 190h97z" />
    <glyph glyph-name="caron" unicode="&#x2c7;" horiz-adv-x="547" 
d="M225 583l-104 190h59l93 -129l95 129h58l-104 -190h-97z" />
    <glyph glyph-name="breve" unicode="&#x2d8;" horiz-adv-x="547" 
d="M273 583c-98 0 -147 86 -147 190h61c3 -67 26 -120 86 -120c61 0 84 53 87 120h61c0 -104 -49 -190 -148 -190z" />
    <glyph glyph-name="tilde" unicode="&#x2dc;" horiz-adv-x="547" 
d="M340 596c-60 0 -98 99 -137 99c-33 0 -50 -46 -57 -99h-55c3 90 50 172 116 172c60 0 97 -99 137 -99c33 0 50 46 57 99h55c-3 -91 -50 -172 -116 -172z" />
    <glyph glyph-name="macron" unicode="&#xaf;" horiz-adv-x="547" 
d="M130 635v71h286v-71h-286z" />
    <glyph glyph-name="dieresis" unicode="&#xa8;" horiz-adv-x="547" 
d="M120 672c0 33 25 60 59 60s59 -27 59 -60s-25 -59 -59 -59s-59 26 -59 59zM309 672c0 33 25 60 59 60s59 -27 59 -60s-25 -59 -59 -59s-59 26 -59 59z" />
    <glyph glyph-name="dotaccent" unicode="&#x2d9;" horiz-adv-x="547" 
d="M209 677c0 36 26 65 64 65s64 -29 64 -65s-26 -64 -64 -64s-64 28 -64 64z" />
    <glyph glyph-name="ring" unicode="&#x2da;" horiz-adv-x="547" 
d="M254 594c-61 0 -112 50 -112 111c0 62 51 112 112 112s112 -50 112 -112c0 -61 -51 -111 -112 -111zM254 765c-33 0 -61 -26 -61 -60c0 -33 28 -60 61 -60s61 27 61 60c0 34 -29 60 -61 60z" />
    <glyph glyph-name="cedilla" unicode="&#xb8;" horiz-adv-x="547" 
d="M372 -129c0 -62 -59 -97 -125 -97c-43 0 -77 9 -100 25v58c34 -20 62 -28 97 -28c36 0 65 14 65 42c0 29 -37 40 -96 40l39 96h43l-21 -55c60 -8 98 -34 98 -81z" />
    <glyph glyph-name="ogonek" unicode="&#x2db;" horiz-adv-x="547" 
d="M402 1c-64 -46 -93 -83 -93 -124c0 -27 19 -43 50 -43c23 0 47 6 78 21v-56c-23 -16 -58 -25 -91 -25c-60 0 -104 39 -104 90c0 65 56 119 136 168z" />
    <glyph glyph-name="copyright" unicode="&#xa9;" horiz-adv-x="813" 
d="M407 712c200 0 360 -151 360 -361s-160 -362 -360 -362s-361 152 -361 362s161 361 361 361zM407 44c169 0 305 129 305 307s-136 306 -305 306c-170 0 -306 -128 -306 -306c0 -179 136 -307 306 -307zM307 353c0 -82 53 -132 120 -132c36 0 65 8 85 24v-69
c-23 -16 -56 -23 -89 -23c-108 0 -193 83 -193 200c0 120 85 203 193 203c33 0 66 -8 89 -24v-69c-20 16 -49 25 -85 25c-67 0 -120 -51 -120 -135z" />
    <glyph glyph-name="registered" unicode="&#xae;" horiz-adv-x="813" 
d="M407 712c200 0 360 -151 360 -361s-160 -362 -360 -362s-361 152 -361 362s161 361 361 361zM407 44c169 0 305 129 305 307s-136 306 -305 306c-170 0 -306 -128 -306 -306c0 -179 136 -307 306 -307zM500 165l-106 151h-45v-151h-72v387h124c92 0 144 -41 144 -110
c0 -54 -43 -91 -85 -107l122 -170h-82zM349 371h63c30 8 58 28 58 65c0 41 -30 58 -79 58h-42v-123z" />
    <glyph glyph-name="trademark" unicode="&#x2122;" horiz-adv-x="790" 
d="M53 701h264v-59h-98v-285h-68v285h-98v59zM520 428l-57 199h-5l-18 -270h-67l29 344h89l52 -184h6l52 184h86l28 -344h-66l-18 270h-6l-57 -199h-48z" />
    <glyph glyph-name="degree" unicode="&#xb0;" horiz-adv-x="408" 
d="M203 669c89 0 160 -71 160 -157c0 -90 -71 -160 -160 -160c-85 0 -157 70 -157 160c0 86 72 157 157 157zM203 415c54 0 97 42 97 97c0 52 -44 93 -97 93c-51 0 -94 -42 -94 -93c0 -54 43 -97 94 -97z" />
    <glyph glyph-name="uni00200326" horiz-adv-x="455" 
d="M291 -37c0 -79 -50 -161 -97 -189h-65c40 41 71 116 71 189h91z" />
    <glyph glyph-name="uni00200326.alt" horiz-adv-x="455" 
d="M143 584c0 78 50 160 98 189h64c-39 -41 -70 -116 -70 -189h-92z" />
    <glyph glyph-name="i.dot" horiz-adv-x="274" 
d="M73 677c0 36 26 65 64 65s64 -29 64 -65s-26 -64 -64 -64s-64 28 -64 64zM93 512h88v-512h-88v512z" />
    <glyph glyph-name="uni00B9" unicode="&#xb9;" horiz-adv-x="367" 
d="M56 292v63h104v256l-107 -32v61l144 61h37v-346h93v-63h-271z" />
    <glyph glyph-name="uni00B3" unicode="&#xb3;" horiz-adv-x="367" 
d="M33 381c30 -19 68 -33 112 -33c62 0 107 27 107 74c0 48 -44 64 -137 64v46l123 105h-191v64h256v-74l-109 -92c68 -7 134 -42 134 -113c0 -83 -85 -137 -179 -137c-48 0 -86 10 -116 27v69z" />
    <glyph glyph-name="uni00B2" unicode="&#xb2;" horiz-adv-x="367" 
d="M231 576c0 38 -21 63 -67 63c-45 0 -92 -25 -124 -55v73c32 27 82 52 136 52c84 0 134 -49 134 -121c0 -65 -49 -117 -125 -183l-58 -48h202v-65h-296v64l96 82c60 55 102 92 102 138z" />
    <glyph glyph-name="uni0237" unicode="&#x237;" horiz-adv-x="274" 
d="M93 512h88v-505c0 -95 -39 -164 -92 -222h-100c61 64 104 143 104 229v498z" />
    <glyph glyph-name="f_f.short" horiz-adv-x="658" 
d="M115 0v441h-75v71h75v13c0 145 80 232 194 232c28 0 45 -4 64 -10v-71c-19 5 -33 7 -54 7c-79 0 -116 -52 -116 -158v-13h212v28c0 146 76 233 191 233c18 0 32 -1 47 -6v-73c-15 4 -24 4 -37 4c-80 0 -113 -52 -113 -158v-28h142v-71h-142v-441h-88v441h-212v-441h-88z
" />
    <glyph glyph-name="f.short" horiz-adv-x="358" 
d="M115 0v441h-75v71h75v28c0 146 76 233 191 233c18 0 32 -1 47 -6v-73c-15 4 -24 4 -37 4c-80 0 -113 -52 -113 -158v-28h142v-71h-142v-441h-88z" />
    </font>
</defs>
</svg>
