<svg height="40" viewBox="0 0 152 40" width="152" xmlns="http://www.w3.org/2000/svg"><path d="m13.867 0h12.266c11.2 0 13.867 2.667 13.867 13.867v12.266c0 11.2-2.667 13.867-13.867 13.867h-12.266c-11.2 0-13.867-2.667-13.867-13.867v-12.266c0-11.2 2.667-13.867 13.867-13.867zm19.126 13.572c.185-.618 0-1.072-.883-1.072h-2.92c-.741 0-1.084.392-1.27.825 0 0-1.484 3.615-3.587 5.964-.68.68-.99.896-1.36.896-.186 0-.454-.217-.454-.835v-5.778c0-.741-.216-1.072-.834-1.072h-4.588c-.463 0-.742.344-.742.67 0 .703 1.051.866 1.16 2.843v4.295c0 .942-.17 1.113-.542 1.113-.99 0-3.397-3.632-4.824-7.787-.28-.808-.56-1.134-1.307-1.134h-2.919c-.834 0-1 .392-1 .825 0 .772.989 4.604 4.607 9.672 2.412 3.46 5.811 5.336 8.904 5.336 1.855 0 2.085-.416 2.085-1.134v-2.616c0-.833.175-1 .763-1 .433 0 1.175.217 2.907 1.886 1.98 1.977 2.305 2.864 3.419 2.864h2.919c.834 0 1.25-.416 1.01-1.239-.263-.82-1.208-2.008-2.462-3.418-.68-.803-1.7-1.668-2.01-2.1-.433-.557-.31-.804 0-1.299 0 0 3.556-5.005 3.928-6.705zm28.336-3.694c1.012 0 1.88.137 2.603.41.724.274 1.317.57 1.78.887.52.375.94.808 1.258 1.298.463-.49.998-.923 1.605-1.298.52-.317 1.143-.613 1.866-.887.723-.273 1.519-.41 2.387-.41 2.17 0 3.905.692 5.206 2.076 1.302 1.384 1.953 3.432 1.953 6.142v11.896h-4.99v-11.463c0-1.211-.325-2.163-.976-2.855s-1.41-1.038-2.278-1.038-1.627.346-2.278 1.038-.977 1.644-.977 2.855v11.463h-4.99v-11.463c0-1.211-.325-2.163-.976-2.855-.65-.692-1.41-1.038-2.278-1.038s-1.627.346-2.278 1.038c-.65.692-.976 1.644-.976 2.855v11.463h-4.99v-19.898h3.688l.868 1.946a8.175 8.175 0 0 1 1.345-1.081c.405-.26.897-.505 1.475-.735.579-.231 1.23-.346 1.953-.346zm30.303 20.33c-1.186 0-2.27-.194-3.254-.584a7.114 7.114 0 0 1 -2.538-1.687c-.709-.735-1.259-1.622-1.65-2.66-.39-1.038-.585-2.206-.585-3.504v-11.68h4.99v11.031c0 1.298.383 2.343 1.15 3.136.767.794 1.757 1.19 2.972 1.19s2.206-.396 2.972-1.19c.767-.793 1.15-1.838 1.15-3.136v-11.03h4.99v19.898h-3.688l-.868-1.947a10.41 10.41 0 0 1 -1.605 1.082c-.492.288-1.085.54-1.78.757a7.55 7.55 0 0 1 -2.256.324zm18.345-6.488c.116.663.434 1.225.955 1.687.52.461 1.215.692 2.082.692.868 0 1.555-.224 2.062-.67.506-.448.759-.945.759-1.493 0-.461-.253-.822-.76-1.081-.506-.26-1.135-.498-1.887-.714s-1.57-.44-2.452-.67a9.45 9.45 0 0 1 -2.451-1.017 6.18 6.18 0 0 1 -1.888-1.73c-.506-.707-.759-1.637-.759-2.79a5.552 5.552 0 0 1 1.953-4.24 7.555 7.555 0 0 1 2.256-1.319c.868-.332 1.851-.497 2.95-.497 2.401 0 4.246.576 5.533 1.73 1.287 1.153 2.046 2.595 2.278 4.326h-4.773c-.116-.433-.427-.866-.933-1.298-.506-.433-1.135-.649-1.888-.649-.752 0-1.337.187-1.757.562s-.629.837-.629 1.385c0 .46.253.821.76 1.08.506.26 1.135.498 1.887.715.752.216 1.57.447 2.451.692a9.55 9.55 0 0 1 2.452 1.06 6.216 6.216 0 0 1 1.887 1.795c.507.735.76 1.694.76 2.876 0 .808-.174 1.58-.52 2.315a5.77 5.77 0 0 1 -1.476 1.925c-.637.547-1.41.987-2.322 1.319-.91.332-1.93.497-3.059.497-2.603 0-4.577-.59-5.922-1.773-1.346-1.183-2.12-2.754-2.322-4.715zm19.108 6.272h-4.99v-19.898h4.99zm-2.385-22.494c-.752 0-1.41-.28-1.974-.843-.564-.562-.846-1.219-.846-1.968 0-.75.282-1.406.846-1.968.564-.563 1.222-.844 1.974-.844s1.41.281 1.974.844c.564.562.846 1.218.846 1.968s-.282 1.406-.846 1.968-1.222.843-1.974.843zm24.966 15.14a9.802 9.802 0 0 1 -1.171 2.834c-.55.908-1.23 1.716-2.04 2.422a9.667 9.667 0 0 1 -2.777 1.687 8.882 8.882 0 0 1 -3.34.627c-1.36 0-2.64-.266-3.84-.8a10.272 10.272 0 0 1 -3.168-2.184 10.547 10.547 0 0 1 -2.17-3.223c-.535-1.226-.803-2.545-.803-3.958s.268-2.732.803-3.958a10.547 10.547 0 0 1 2.17-3.223 10.272 10.272 0 0 1 3.167-2.184c1.2-.534 2.48-.8 3.84-.8 1.186 0 2.3.209 3.341.627a9.667 9.667 0 0 1 2.777 1.687c.81.706 1.49 1.514 2.04 2.422.55.909.94 1.853 1.171 2.834h-4.99c-.231-.52-.55-.981-.954-1.385-.347-.346-.796-.67-1.345-.973-.55-.303-1.23-.454-2.04-.454-1.417 0-2.603.49-3.558 1.47-.954.981-1.432 2.293-1.432 3.937s.478 2.956 1.432 3.936c.955.98 2.14 1.471 3.558 1.471.81 0 1.49-.144 2.04-.433.55-.288.998-.605 1.345-.951.405-.404.723-.88.954-1.428z" fill-rule="evenodd"/></svg>