<?xml version="1.0" encoding="utf-8"?>
<!-- Generator: Adobe Illustrator 23.0.3, SVG Export Plug-In . SVG Version: 6.00 Build 0)  -->
<svg version="1.1" id="Layer_1" xmlns="http://www.w3.org/2000/svg" xmlns:xlink="http://www.w3.org/1999/xlink" x="0px" y="0px"
	 width="33px" height="50px" viewBox="0 0 33 50" style="enable-background:new 0 0 33 50;" xml:space="preserve">
<style type="text/css">
	.st0{fill:#3E94C6;}
	.st1{fill:#196AAA;}
</style>
<path class="st0" d="M18.5,1c-5.3,0-9.6,4.3-9.6,9.6c0,1.8,0.5,3.5,1.4,4.9l-4.6,4.6c-0.4,0.4-0.7,1-0.7,1.6c0,0.6,0.2,1.2,0.7,1.6
	C6,23.8,6.6,24,7.2,24c0.6,0,1.2-0.2,1.6-0.7l4.6-4.6c1.5,0.9,3.2,1.4,5,1.4c5.3,0,9.6-4.3,9.6-9.6S23.8,1,18.5,1z M18.5,17.1
	c-3.6,0-6.5-2.9-6.5-6.5S14.9,4,18.5,4S25,7,25,10.6S22.1,17.1,18.5,17.1z"/>
<path class="st1" d="M18.5,26c-5.3,0-9.6,4.3-9.6,9.6c0,1.8,0.5,3.5,1.4,4.9l-4.6,4.6c-0.4,0.4-0.7,1-0.7,1.6s0.2,1.2,0.7,1.6
	C6,48.8,6.6,49,7.2,49c0.6,0,1.2-0.2,1.6-0.7l4.6-4.6c1.5,0.9,3.2,1.4,5,1.4c5.3,0,9.6-4.3,9.6-9.6S23.8,26,18.5,26z M18.5,42.1
	c-3.6,0-6.5-2.9-6.5-6.5s2.9-6.5,6.5-6.5S25,32,25,35.6S22.1,42.1,18.5,42.1z"/>
</svg>
