<svg xmlns="http://www.w3.org/2000/svg" viewBox="0 0 127 11"><path fill="#FFF" d="M46.344.694c-3.169 0-5.223 2.243-5.223 4.66v.295c0 2.376 2.054 4.658 5.223 4.658 3.182 0 5.236-2.281 5.236-4.658v-.295c.001-2.417-2.054-4.66-5.236-4.66zm3.544 4.901c0 1.733-1.263 3.304-3.544 3.304-2.282 0-3.531-1.57-3.531-3.304V5.38c0-1.731 1.249-3.274 3.531-3.274 2.281 0 3.544 1.543 3.544 3.274v.215zM6.052 1.017L1.219 9.959h1.772l1.141-2.217h5.25l1.182 2.217h1.8L7.449 1.017H6.052zM4.764 6.521L6.71 2.762l2.014 3.759h-3.96zm18.339-.255c0 1.652-.872 2.633-2.993 2.633-2.067 0-3.155-.979-3.155-2.633V1.017H15.29v5.221c0 2.324 1.49 4.068 4.699 4.068 3.37 0 4.793-1.853 4.793-4.068V1.017h-1.679v5.249zm5.438-3.853h3.907v7.546h1.678V2.413h3.907V1.016h-9.492v1.397zm33.886 4.739l-.415.752-.417-.752-3.531-6.135h-2.321v8.942h1.637V2.882l.443.778 3.706 6.298h.818l3.747-6.298.443-.778v7.077h1.678V1.017h-2.297l-3.491 6.135zm13.964-6.135l-4.834 8.942h1.773l1.141-2.217h5.25l1.182 2.217h1.8l-4.914-8.942h-1.398zm-1.289 5.504l1.947-3.759 2.014 3.759h-3.961zm8.781-4.108h3.906v7.546h1.68V2.413h3.906V1.016h-9.492v1.397zm12.312 0h3.906v7.546h1.678V2.413h3.906V1.016h-9.49v1.397zm13.625-.549v8.097h1.652V1.018h-.711c.001.481-.269.846-.941.846zm11.332 7.034c-2.496 0-3.854-1.584-3.854-3.275v-.175c0-1.705 1.345-3.342 3.731-3.342 1.599 0 2.779.696 3.587 1.436l1.047-1.061c-.927-.994-2.646-1.787-4.539-1.787-3.274 0-5.519 2.282-5.519 4.7v.296c0 2.416 2.056 4.617 5.438 4.617 1.976 0 3.64-.817 4.619-1.785l-1.009-1.061c-.774.725-2.01 1.437-3.501 1.437zM47.449 3.806a.654.654 0 0 0-.903.197l-1.53 2.368a.658.658 0 0 0 .19.908.656.656 0 0 0 .904-.197l1.53-2.372a.652.652 0 0 0-.191-.904z"/></svg>