<svg xmlns="http://www.w3.org/2000/svg" width="16" height="16"><path d="M8 0a8 8 0 1 0 0 16A8 8 0 0 0 8 0Zm5.53 4.8h-2.57a39.08 39.08 0 0 0-.45-2.69 6.44 6.44 0 0 1 3.02 2.69ZM8.81 1.66c.06.28.31 1.63.52 3.14H6.67c.2-1.51.46-2.86.52-3.14a6.43 6.43 0 0 1 1.62 0ZM9.6 8c0 .48-.03 1.03-.09 1.6H6.5A17.65 17.65 0 0 1 6.4 8c0-.48.03-1.03.09-1.6H9.5c.06.57.09 1.12.09 1.6ZM5.49 2.11a39.36 39.36 0 0 0-.45 2.69H2.47a6.44 6.44 0 0 1 3.02-2.69ZM1.81 6.4h3.06a21.6 21.6 0 0 0 0 3.2H1.8a6.4 6.4 0 0 1 0-3.2Zm.66 4.8h2.57c.15 1.14.33 2.12.45 2.69a6.44 6.44 0 0 1-3.02-2.69Zm4.72 3.14c-.06-.28-.31-1.63-.52-3.14h2.66a64.3 64.3 0 0 1-.52 3.14 6.4 6.4 0 0 1-1.62 0Zm3.32-.45c.12-.57.3-1.55.45-2.69h2.57a6.44 6.44 0 0 1-3.02 2.69Zm3.68-4.29h-3.06a21.6 21.6 0 0 0 0-3.2h3.06a6.3 6.3 0 0 1 0 3.2Z"/></svg>