<?xml version="1.0" encoding="UTF-8" standalone="no"?>
<!-- Generator: Adobe Illustrator 18.1.1, SVG Export Plug-In . SVG Version: 6.00 Build 0)  -->

<svg
   xmlns:dc="http://purl.org/dc/elements/1.1/"
   xmlns:cc="http://creativecommons.org/ns#"
   xmlns:rdf="http://www.w3.org/1999/02/22-rdf-syntax-ns#"
   xmlns:svg="http://www.w3.org/2000/svg"
   xmlns="http://www.w3.org/2000/svg"
   xmlns:sodipodi="http://sodipodi.sourceforge.net/DTD/sodipodi-0.dtd"
   xmlns:inkscape="http://www.inkscape.org/namespaces/inkscape"
   version="1.1"
   id="Layer_1"
   x="0px"
   y="0px"
   viewBox="-617 378 45 45"
   enable-background="new -617 378 45 45"
   xml:space="preserve"
   inkscape:version="0.91 r13725"
   sodipodi:docname="next.svg"
   width="45"
   height="45"><metadata
     id="metadata15"><rdf:RDF><cc:Work
         rdf:about=""><dc:format>image/svg+xml</dc:format><dc:type
           rdf:resource="http://purl.org/dc/dcmitype/StillImage" /><dc:title></dc:title></cc:Work></rdf:RDF></metadata><defs
     id="defs13" /><sodipodi:namedview
     pagecolor="#ffffff"
     bordercolor="#666666"
     borderopacity="1"
     objecttolerance="10"
     gridtolerance="10"
     guidetolerance="10"
     inkscape:pageopacity="0"
     inkscape:pageshadow="2"
     inkscape:window-width="836"
     inkscape:window-height="514"
     id="namedview11"
     showgrid="false"
     inkscape:zoom="5.2444444"
     inkscape:cx="30.631527"
     inkscape:cy="23.424788"
     inkscape:window-x="2222"
     inkscape:window-y="47"
     inkscape:window-maximized="0"
     inkscape:current-layer="Layer_1"
     fit-margin-top="0"
     fit-margin-left="0"
     fit-margin-right="0"
     fit-margin-bottom="0" /><g
     id="g3"
     transform="matrix(0.99998364,0,0,1,-0.0093579,0)"><polygon
       points="-590.2,394.6 -591,395.5 -586.5,399.9 -604.7,400 -604.7,401.1 -586.5,401 -590.9,405.5 -590.1,406.3 -584.3,400.5 "
       id="polygon5"
       style="fill:#0070ba" /></g><g
     id="g7"
     transform="matrix(0.99998364,0,0,1,-0.0093579,0)"><path
       d="m -594.6,378 c 12.4,0 22.5,10 22.6,22.4 0,12.4 -10,22.5 -22.4,22.6 -12.4,0 -22.5,-10 -22.6,-22.4 -0.1,-12.4 10,-22.6 22.4,-22.6 m 0.2,44.1 c 11.9,0 21.6,-9.8 21.5,-21.7 0,-11.9 -9.8,-21.6 -21.7,-21.5 -11.9,0 -21.6,9.8 -21.5,21.7 0,11.9 9.7,21.6 21.7,21.5"
       id="path9"
       inkscape:connector-curvature="0"
       style="fill:#0070ba" /></g></svg>