<?xml version="1.0" encoding="UTF-8"?>
<svg width="64px" height="64px" viewBox="0 0 64 64" version="1.1" xmlns="http://www.w3.org/2000/svg" xmlns:xlink="http://www.w3.org/1999/xlink">
    <g id="Artboard" stroke="none" stroke-width="1" fill="none" fill-rule="evenodd">
        <path d="M27.9935115,53.9945873 C27.9935115,54.5485033 27.5612566,55.0179721 27.0102032,55.0623427 L12.6312884,56.2288583 C12.303519,56.2374461 12.0358645,56.152999 11.8168745,55.9468907 C11.5950218,55.743645 11.4733607,55.4631088 11.4733607,55.1625342 L11.4733607,51.8476261 L27.9935115,50.8084969 L27.9935115,53.9945873 Z M59.6497387,46.7779351 C57.0891297,45.9821281 52.2112338,39.8976401 48.2436495,29.3317283 C44.4020203,19.093586 43.9669028,11.4418163 45.2278847,8.91698991 C45.4440121,8.48330375 45.7059414,8.18272918 46.0136725,8.06679328 C46.113864,8.02814797 46.2297999,8.00954098 46.3600489,8.00954098 C47.3004179,8.00954098 49.0322999,9.05010151 51.3238232,12.0930612 C53.8371991,15.4308702 56.3233802,20.2085745 58.3286419,25.5444888 C62.8343978,37.5488645 62.6640722,46.0222047 60.5600503,46.8108551 C60.3052775,46.9010275 59.9975464,46.8852831 59.6497387,46.7779351 Z M60.2022234,24.8402855 C58.1325528,19.3297517 55.5476115,14.3745653 52.9225936,10.8879003 C50.0199021,7.03482059 47.3963155,5.40599269 45.3109005,6.1932118 C44.9702493,6.31916686 44.6754,6.52098121 44.4020203,6.75428433 L44.3891385,6.71850164 L0,47.7698311 L2.00239915,52.44305 L9.47096151,51.9721499 L9.47096151,55.1625342 C9.47096151,56.0170248 9.83021969,56.8400265 10.459995,57.4197061 C11.0267927,57.9435646 11.7753665,58.2326887 12.54541,58.2326887 C12.6269945,58.2326887 12.708579,58.2298261 12.7901635,58.2226696 L27.171941,57.0575853 C28.7563983,56.9273363 29.9959106,55.5819073 29.9959106,53.9945873 L29.9959106,50.6825418 L59.6755023,48.8175482 C59.8458278,48.8433117 60.019016,48.8805257 60.186479,48.8805257 C60.5557563,48.8805257 60.9150145,48.8161169 61.2642535,48.6858679 C65.8029295,46.9797494 64.1655138,35.3990407 60.2022234,24.8402855 Z" id="Fill-1" fill="#384869"></path>
    </g>
</svg>