<svg xmlns="http://www.w3.org/2000/svg" fill="none" viewBox="0 0 170 24" id="svg_top5_cashback" width="100%" height="100%"><g><path d="M0 0h65v24H0V0z" fill="#A02238"></path><path d="M65 0h105v24H65V0z" fill="#FFBF07"></path><path d="M14.24 18.08V8.54h-3.33V6.59h8.92v1.95h-3.32v9.54h-2.27zm6.31-5.68c0-3.33 2.02-6 5.43-6 3.45 0 5.46 2.66 5.46 5.95 0 3.28-2 5.93-5.43 5.93-3.42 0-5.46-2.58-5.46-5.87zm2.34-.07c0 1.93.92 3.97 3.11 3.97 2.22 0 3.1-2.07 3.1-4 0-1.96-.88-3.92-3.1-3.92s-3.11 1.99-3.11 3.95zm10.33 5.75V6.6h3.64c1.37 0 2.27.06 2.7.18 2.07.55 2.82 3.34 1.88 5.14a3.22 3.22 0 01-2.13 1.67c-1.24.26-2.56.17-3.83.17v4.33h-2.26zm2.26-9.54v3.26h1.25c.89 0 1.49-.06 1.79-.18.6-.24.96-.78.96-1.46 0-.77-.5-1.4-1.27-1.54-.27-.06-.81-.08-1.63-.08h-1.1z" fill="#FEBF07"></path><path d="M83.49 14.2l2.06.65a4.67 4.67 0 01-1.58 2.58c-.73.56-1.67.84-2.8.84-1.4 0-2.55-.48-3.45-1.44a5.55 5.55 0 01-1.36-3.94c0-1.77.46-3.14 1.36-4.11.91-.98 2.1-1.47 3.58-1.47 1.29 0 2.34.38 3.14 1.15.48.45.84 1.1 1.08 1.95l-2.1.5a2.24 2.24 0 00-.79-1.3c-.4-.31-.87-.47-1.44-.47a2.4 2.4 0 00-1.9.85c-.49.56-.73 1.47-.73 2.74 0 1.34.24 2.3.72 2.86.48.57 1.1.85 1.87.85.56 0 1.05-.18 1.46-.54.4-.36.7-.93.88-1.7zm13.41 3.9h-2.32l-.92-2.42h-4.22l-.87 2.41h-2.26l4.11-10.6h2.25l4.23 10.6zm-3.92-4.2l-1.46-3.93-1.42 3.93h2.88zm4.52.74l2.07-.2c.12.7.37 1.21.75 1.54.99.84 3.62.72 3.62-.97 0-.6-.47-.91-.98-1.1-.25-.08-.82-.24-1.7-.46-1.65-.4-3.38-1.23-3.38-3.18 0-1.15.73-2.14 1.77-2.59a5.28 5.28 0 012.08-.37c1.32 0 2.32.3 2.98.88a3.09 3.09 0 011.06 2.33l-2.13.1c-.1-.55-.29-.94-.59-1.18s-.74-.36-1.34-.36c-.66 0-1.8.19-1.8 1.04 0 .99 1.6 1.2 2.28 1.36 1.03.24 1.8.5 2.3.76.5.26.88.62 1.16 1.08.63 1 .54 2.4-.08 3.4-.67 1.05-1.89 1.56-3.72 1.56-2.67 0-4.08-1.27-4.35-3.64zm10.37 3.46V7.5H110v4.16h4.17V7.5h2.13v10.6h-2.13v-4.63H110v4.63h-2.13zm10.65-10.6h4.22c.98 0 2.11-.05 2.96.53a2.54 2.54 0 01-.35 4.42c1.19.35 2 1.32 2 2.57a2.98 2.98 0 01-2.67 3c-.36.04-1.21.06-2.57.07h-3.59V7.5zm2.13 1.76v2.45h1.4c.83 0 1.34-.01 1.54-.04.74-.09 1.17-.53 1.17-1.2 0-.66-.36-1.1-1.07-1.18-.2-.02-.81-.03-1.82-.03h-1.22zm0 4.21v2.84h1.97c.77 0 1.26-.03 1.46-.07.64-.12 1.07-.58 1.07-1.32 0-.64-.31-1.1-.9-1.3-.28-.1-.91-.15-1.88-.15h-1.72zm18.02 4.63h-2.31l-.92-2.42h-4.22l-.87 2.41h-2.26l4.1-10.6h2.26l4.22 10.6zm-3.92-4.2l-1.45-3.93-1.43 3.93h2.88zm11.81.3l2.06.65a4.67 4.67 0 01-1.58 2.58c-.73.56-1.66.84-2.8.84-1.4 0-2.55-.48-3.45-1.44a5.55 5.55 0 01-1.35-3.94c0-1.77.45-3.14 1.36-4.11.9-.98 2.1-1.47 3.57-1.47 1.3 0 2.34.38 3.15 1.15.48.45.84 1.1 1.08 1.95l-2.11.5a2.24 2.24 0 00-.79-1.3c-.39-.31-.87-.47-1.44-.47a2.4 2.4 0 00-1.9.85c-.49.56-.73 1.47-.73 2.74 0 1.34.24 2.3.72 2.86.48.57 1.1.85 1.87.85.57 0 1.05-.18 1.46-.54.4-.36.7-.93.88-1.7zm3.93 3.9V7.5h2.13v4.7l4.3-4.7h2.86l-3.97 4.12L160 18.1h-2.76l-2.9-4.97-1.72 1.77v3.2h-2.13z" fill="#A02239"></path><path d="M44.55 15.45l2.58-.27c.07.59.29 1.06.65 1.4a1.77 1.77 0 002.63-.15c.37-.44.56-1.11.56-2 0-.85-.19-1.47-.56-1.9a1.83 1.83 0 00-1.45-.62c-.74 0-1.4.33-2 1l-2.1-.31 1.33-7.12h6.85v2.46h-4.89l-.4 2.32a3.87 3.87 0 014.7.83 4.6 4.6 0 011.19 3.29c0 1.12-.33 2.12-.97 3A4.28 4.28 0 0149 19.2a4.51 4.51 0 01-3.05-1.01 4.2 4.2 0 01-1.41-2.73z" fill="#FBFCFC"></path></g></svg>