<svg height="28" viewBox="0 0 28 28" width="28" xmlns="http://www.w3.org/2000/svg"><g fill="none" fill-rule="evenodd"><path d="m0 0h28v28h-28z"/><path d="m17.792 7.875a3.79 3.79 0 0 0 -3.792-3.792 3.79 3.79 0 0 0 -3.792 3.792 3.79 3.79 0 0 0 3.792 3.792 3.79 3.79 0 0 0 3.792-3.792zm1.75 0a5.54 5.54 0 0 1 -5.542 5.542 5.54 5.54 0 0 1 -5.542-5.542 5.54 5.54 0 0 1 5.542-5.542 5.54 5.54 0 0 1 5.542 5.542zm-13.125 12.583c0 1.127-.002 1.125.669 1.125h14.412c.67 0 .669.002.669-1.125 0-2.628-3.595-4.125-7.875-4.125s-7.875 1.497-7.875 4.125zm-1.75 0c0-4.014 4.469-5.875 9.625-5.875 5.155 0 9.625 1.861 9.625 5.875 0 2.06-.746 2.875-2.42 2.875h-14.41c-1.674 0-2.42-.814-2.42-2.875z" fill="#5891d2" fill-rule="nonzero"/></g></svg>