<svg height="32" viewBox="0 0 32 32" width="32" xmlns="http://www.w3.org/2000/svg"><g fill="none" fill-rule="evenodd"><path d="m0 0h32v32h-32z"/><path d="m15.487 22.565a.985.985 0 0 1 1.026 0l5.682 3.468c.004 0-.509-2.159-1.538-6.476a.983.983 0 0 1 .317-.975l5.056-4.328c.002-.004-2.211-.184-6.639-.54a.984.984 0 0 1 -.83-.602l-2.556-6.142c-.004-.003-.86 2.045-2.566 6.142a.984.984 0 0 1 -.83.602l-6.637.532c-.003.002 1.681 1.448 5.054 4.336.28.24.402.616.317.975l-1.545 6.47c.001.005 1.898-1.15 5.69-3.462zm-4.656 5.146a1.974 1.974 0 0 1 -2.947-2.14l1.405-5.886-4.6-3.937a1.97 1.97 0 0 1 1.126-3.462l6.038-.484 2.326-5.587a1.973 1.973 0 0 1 3.642 0l2.326 5.587 6.038.484a1.971 1.971 0 0 1 1.126 3.462l-4.6 3.937 1.405 5.886a1.97 1.97 0 0 1 -2.947 2.14l-5.169-3.155z" fill="#528bcc" fill-rule="nonzero"/></g></svg>