<svg height="28" viewBox="0 0 28 28" width="28" xmlns="http://www.w3.org/2000/svg"><g fill="none" fill-rule="evenodd"><path d="m0 0h28v28h-28z" opacity=".1"/><path d="m4.333 20.25c-.46 0-.833-.392-.833-.875s.373-.875.833-.875h10c.46 0 .834.392.834.875s-.373.875-.834.875zm0-7.583h10c1.111 0 1.111 1.75 0 1.75h-10c-1.11 0-1.11-1.75 0-1.75zm.014-5.834h15.806c1.13 0 1.13 1.75 0 1.75h-15.806c-1.13 0-1.13-1.75 0-1.75zm14.903 13.178 4.311-2.598-4.311-2.728zm.31-7.201 5.496 3.478a1.342 1.342 0 0 1 -.025 2.283l-5.497 3.312a1.342 1.342 0 0 1 -2.034-1.15v-6.79a1.342 1.342 0 0 1 2.06-1.133z" fill="#5891d2" fill-rule="nonzero"/></g></svg>