<svg height="32" viewBox="0 0 32 32" width="32" xmlns="http://www.w3.org/2000/svg"><g fill="none" fill-rule="evenodd"><path d="m0 0h32v32h-32z" opacity=".4"/><g stroke="#5891d2" stroke-width="2"><path d="m27 14.711v-8.217c0-2.993-2.872-2.524-3.646-2.377-.515.099-3.485.718-8.909 1.859-2.19.408-3.435 1.534-3.442 2.788-.006 1.049 0 2.354 0 2.354v6.882-5.71c0-.389.766-.497 1.214-.598l14.783-3.208zm-16 5.611c0 .392-.252.85-.772.85-4.515 0-7.497 2.08-7.209 4.816.31 2.946 3.261 3.593 5.14 2.538 1.526-.856 2.841-2.226 2.828-6.499-.01-3.508.013-1.834.013-2.75v-5.277z"/><path d="m27 16.303c0 .39-.208.75-.743.846-3.326.598-6.927 1.478-7.238 4.449-.257 2.457 2.145 3.656 3.783 3.357 3.031-.555 4.198-2.717 4.198-6.847l.001-.105v-8.003 6.303z"/></g></g></svg>