<svg height="11" viewBox="0 0 48 11" width="48" xmlns="http://www.w3.org/2000/svg"><path d="m16.8 11c-3.219 0-5.829-2.462-5.829-5.5s2.61-5.5 5.829-5.5 5.829 2.462 5.829 5.5-2.61 5.5-5.829 5.5zm0-3.438c.947 0 1.714-.923 1.714-2.062 0-1.14-.767-2.063-1.714-2.063s-1.714.924-1.714 2.063.767 2.062 1.714 2.062zm12.343 3.438c-3.22 0-5.829-2.462-5.829-5.5s2.61-5.5 5.829-5.5 5.828 2.462 5.828 5.5-2.61 5.5-5.828 5.5zm0-3.438c.947 0 1.714-.923 1.714-2.062 0-1.14-.767-2.063-1.714-2.063s-1.714.924-1.714 2.063.767 2.062 1.714 2.062zm10.335-1.474 1.665 2.506h1.371l1.69-2.506-.318 2.506v2.406h4.114v-11h-3.998l-2.172 3.437-2.151-3.437h-4.022v11h4.114v-2.406zm-39.478-6.088v11h6.857c1.875.011 3.327-1.274 3.429-3.094.052-1.462-.627-2.298-1.909-2.793.85-.294 1.313-1.1 1.223-2.02.152-1.555-1.13-2.918-2.743-3.093zm4.114 2.75h1.027a.687.687 0 1 1 0 1.375h-1.027zm0 3.781h1.197c.475 0 .86.382.86.86 0 .474-.387.859-.86.859h-1.197v-1.72z" fill="#fe2c5b"/></svg>