<?xml version="1.0" encoding="utf-8"?>
<!-- Generator: Adobe Illustrator 21.0.0, SVG Export Plug-In . SVG Version: 6.00 Build 0)  -->
<svg version="1.1" id="Layer_1" xmlns="http://www.w3.org/2000/svg" xmlns:xlink="http://www.w3.org/1999/xlink" x="0px" y="0px"
	 viewBox="0 0 413 139" style="enable-background:new 0 0 413 139;" xml:space="preserve">
<style type="text/css">
	.st0{fill:#009CDE;}
	.st1{fill:#003087;}
	.st2{fill:#012169;}
	.st3{fill:#808080;}
</style>
<g>
	<g>
		<path class="st0" d="M316,25.5h-22.3c-1.5,0-2.8,1.1-3.1,2.6l-9,57.1c-0.2,1.1,0.7,2.1,1.8,2.1h11.4c1.1,0,2-0.8,2.1-1.8l2.6-16.2
			c0.2-1.5,1.5-2.6,3.1-2.6h7c14.7,0,23.1-7.1,25.3-21.2c1-6.1,0-11-2.8-14.4C329,27.5,323.4,25.5,316,25.5z M318.5,46.3
			c-1.2,8-7.3,8-13.2,8H302l2.4-14.9c0.1-0.9,0.9-1.6,1.8-1.6h1.5c4,0,7.8,0,9.8,2.3C318.6,41.5,319,43.5,318.5,46.3z"/>
		<path class="st1" d="M157.3,25.5H135c-1.5,0-2.8,1.1-3.1,2.6l-9,57.1c-0.2,1.1,0.7,2.1,1.8,2.1h10.6c1.5,0,2.8-1.1,3.1-2.6
			l2.4-15.4c0.2-1.5,1.5-2.6,3.1-2.6h7c14.7,0,23.1-7.1,25.3-21.2c1-6.1,0-11-2.8-14.4C170.3,27.5,164.7,25.5,157.3,25.5z
			 M159.8,46.3c-1.2,8-7.3,8-13.2,8h-3.4l2.4-14.9c0.1-0.9,0.9-1.6,1.8-1.6h1.5c4,0,7.8,0,9.8,2.3C159.9,41.5,160.3,43.5,159.8,46.3
			z"/>
		<path class="st1" d="M223.8,46.1h-10.7c-0.9,0-1.7,0.7-1.8,1.6l-0.5,3l-0.7-1.1c-2.3-3.3-7.4-4.5-12.6-4.5
			c-11.8,0-21.8,8.9-23.8,21.4c-1,6.2,0.4,12.2,4,16.4c3.3,3.8,7.9,5.4,13.4,5.4c9.5,0,14.7-6.1,14.7-6.1l-0.5,3
			c-0.2,1.1,0.7,2.1,1.8,2.1h9.6c1.5,0,2.8-1.1,3.1-2.6l5.8-36.5C225.8,47.1,224.9,46.1,223.8,46.1z M208.9,66.8
			c-1,6.1-5.9,10.2-12,10.2c-3.1,0-5.6-1-7.2-2.9c-1.6-1.9-2.2-4.5-1.7-7.5c1-6,5.9-10.3,11.9-10.3c3,0,5.5,1,7.1,2.9
			C208.8,61.2,209.4,63.9,208.9,66.8z"/>
		<path class="st0" d="M382.5,46.1h-10.7c-0.9,0-1.7,0.7-1.8,1.6l-0.5,3l-0.7-1.1c-2.3-3.3-7.4-4.5-12.6-4.5
			c-11.8,0-21.8,8.9-23.8,21.4c-1,6.2,0.4,12.2,4,16.4c3.3,3.8,7.9,5.4,13.4,5.4c9.5,0,14.7-6.1,14.7-6.1l-0.5,3
			c-0.2,1.1,0.7,2.1,1.8,2.1h9.6c1.5,0,2.8-1.1,3.1-2.6l5.8-36.5C384.5,47.1,383.6,46.1,382.5,46.1z M367.6,66.8
			c-1,6.1-5.9,10.2-12,10.2c-3.1,0-5.6-1-7.2-2.9c-1.6-1.9-2.2-4.5-1.7-7.5c1-6,5.9-10.3,11.9-10.3c3,0,5.5,1,7.1,2.9
			C367.5,61.2,368.1,63.9,367.6,66.8z"/>
		<path class="st1" d="M280.5,46.1h-10.7c-1,0-2,0.5-2.6,1.4l-14.8,21.8l-6.3-20.9c-0.4-1.3-1.6-2.2-3-2.2h-10.5
			c-1.3,0-2.2,1.3-1.8,2.5l11.8,34.6l-11.1,15.6c-0.9,1.2,0,2.9,1.5,2.9h10.7c1,0,2-0.5,2.5-1.3L282.1,49
			C282.9,47.8,282,46.1,280.5,46.1z"/>
		<path class="st0" d="M395,27.1l-9.1,58.1c-0.2,1.1,0.7,2.1,1.8,2.1h9.2c1.5,0,2.8-1.1,3.1-2.6l9-57.1c0.2-1.1-0.7-2.1-1.8-2.1
			h-10.3C396,25.5,395.2,26.2,395,27.1z"/>
	</g>
</g>
<g>
	<path class="st0" d="M79.3,28.5c1.2-7.6,0-12.8-4.1-17.5c-4.5-5.2-12.8-7.4-23.3-7.4H21.4c-2.1,0-4,1.6-4.3,3.7L4.4,87.8
		c-0.3,1.6,1,3,2.6,3h18.8l-1.3,8.2c-0.2,1.4,0.9,2.6,2.3,2.6h15.9c1.9,0,3.5-1.4,3.8-3.2l0.2-0.8l3-19l0.2-1
		c0.3-1.9,1.9-3.2,3.8-3.2h2.4c15.4,0,27.4-6.2,30.9-24.3c1.5-7.6,0.7-13.9-3.2-18.3C82.5,30.5,81,29.4,79.3,28.5L79.3,28.5"/>
	<path class="st2" d="M79.3,28.5c1.2-7.6,0-12.8-4.1-17.5c-4.5-5.2-12.8-7.4-23.3-7.4H21.4c-2.1,0-4,1.6-4.3,3.7L4.4,87.8
		c-0.3,1.6,1,3,2.6,3h18.8l4.7-30l-0.1,0.9c0.3-2.1,2.1-3.7,4.3-3.7h9c17.6,0,31.4-7.1,35.4-27.8C79.1,29.7,79.2,29.1,79.3,28.5"/>
	<path class="st1" d="M35.6,28.6c0.2-1.3,1-2.3,2.1-2.9c0.5-0.2,1.1-0.4,1.6-0.4h23.9c2.8,0,5.5,0.2,7.9,0.6c0.7,0.1,1.4,0.2,2,0.4
		c0.7,0.1,1.3,0.3,1.9,0.5c0.3,0.1,0.6,0.2,0.9,0.3c1.2,0.4,2.3,0.9,3.3,1.4c1.2-7.6,0-12.8-4.1-17.5c-4.5-5.2-12.8-7.4-23.3-7.4
		H21.4c-2.1,0-4,1.6-4.3,3.7L4.4,87.8c-0.3,1.6,1,3,2.6,3h18.8l4.7-30L35.6,28.6z"/>
</g>
<g>
	<path class="st3" d="M279.4,112.2c1.3,0,2.4-1,2.6-2.3c0.2-1.3-0.7-2.3-1.9-2.3s-2.4,1-2.6,2.3
		C277.3,111.2,278.2,112.2,279.4,112.2 M280.6,104.7c2.9,0,4.9,2.3,4.4,5.3c-0.5,2.9-3.2,5.2-6.1,5.2c-2.9,0-4.9-2.3-4.4-5.2
		C275,107,277.7,104.7,280.6,104.7 M251.9,119.4c2-1.7,5.4-5.3,8.8-8.6c2.9-2.9,5.4-3.2,8.3-0.3c2.4,2.3,4.7,5.3,6.7,7.9
		c2,2.6,5.2,6.7,7.5,9.9c0.3,0.4,0.2,1-0.1,1.3l-4.1,3.8c-0.6,0.6-1.6,0.4-2.1-0.3c-1.8-2.9-4.1-6.6-5.6-8.8
		c-1.9-2.8-4.6-6.5-5.8-7.6c-1-1.1-1.8-1.1-3,0.2c-1.7,1.8-4.8,5.4-6.6,7.5c-0.8,0.9-1.5,1.8-2.2,2.7c-0.5,0.7-1.6,0.7-2.1,0l-3-3.6
		c-0.4-0.4-0.3-1.1,0.2-1.4C249.7,121.2,250.7,120.4,251.9,119.4"/>
	<path class="st3" d="M308.3,130.5c-0.2,1.3-0.5,3.1-0.5,4.4c0,0.7-0.6,1.3-1.4,1.3h-4.8c-0.7,0-1.1-0.6-1-1.2
		c0.3-1.3,0.7-3.1,0.9-4.4l1.9-11.8c-3.9,1.8-8.3,3.5-12.4,4.6c-0.7,0.2-1.4-0.1-1.6-0.8l-1.5-3.5c-0.2-0.6,0.1-1.2,0.7-1.4
		c6.8-1.5,13.3-4.2,17.9-6.8c3.9-2.2,7.9-5.2,10.6-7.9c0.5-0.5,1.4-0.5,1.9,0l2.6,2.8c0.4,0.4,0.4,1.1-0.1,1.5
		c-3.4,2.8-7,5.4-10.8,7.7L308.3,130.5z"/>
	<path class="st3" d="M355.8,107.6c1.1,0,2.2-0.9,2.4-2.1c0.2-1.1-0.6-2.1-1.7-2.1c-1.1,0-2.2,0.9-2.4,2.1
		C353.9,106.7,354.7,107.6,355.8,107.6 M356.9,100.7c2.7,0,4.5,2.2,4.1,4.8c-0.4,2.7-3,4.8-5.6,4.8c-2.7,0-4.5-2.2-4.1-4.8
		C351.7,102.9,354.3,100.7,356.9,100.7 M343.6,107.9l4.4-1.3c0.7-0.2,1.4,0.2,1.7,0.9c1.1,3.4,2.6,8.7,3.3,11.8
		c0.7,3.1,1.7,8.9,2.2,13c0.1,0.5-0.2,0.9-0.7,1.1l-5,1.6c-0.8,0.3-1.7-0.3-1.8-1.2c-0.3-4.4-0.8-8.5-1.5-12.3
		c-0.7-3.7-2.1-8.9-3.2-12.1C342.7,108.6,343,108.1,343.6,107.9 M334,107l4.2,0.9c0.6,0.1,1,0.8,0.7,1.4c-0.5,1.2-1.1,2.7-1.3,3.4
		c-1,2.9-3.3,8.1-5,11.5c-1.8,3.6-4.6,7.8-6.9,10.6c-0.4,0.5-1,0.6-1.6,0.4l-4-1.8c-0.6-0.3-0.8-1.1-0.3-1.6c2.6-3,5.2-6.8,7-10
		c2.3-4.2,4.4-9,5.7-13.8C332.6,107.3,333.3,106.8,334,107"/>
	<path class="st3" d="M376.2,133.7c-0.3-0.3-0.4-0.7-0.3-1.1c0.3-0.8,0.5-1.7,0.6-2.6l3.6-22.4c0.1-0.9,0.2-1.7,0.2-2.3
		c0-0.7,0.6-1.3,1.4-1.3h4.3c0.7,0,1.2,0.6,1,1.3c-0.2,0.7-0.4,1.5-0.5,2.4l-3,19.2c2.8-1.1,6.1-3.5,8.9-6.4
		c0.5-0.5,1.3-0.4,1.6,0.2l1.7,3.1c0.3,0.5,0.2,1.2-0.2,1.6c-3.9,3.8-9.8,7.8-14.2,9.9c-0.5,0.2-0.9,0.5-1.2,0.7
		c-0.5,0.4-1.2,0.3-1.7-0.1L376.2,133.7z M358.8,133.3c-0.6-0.4-0.5-1.2,0-1.6c3.3-2.4,5.5-5.7,6.9-8.4c1.6-3.2,2.8-10.4,3.6-15.3
		c0.2-1.1,0.3-2,0.3-2.7c0-0.7,0.6-1.3,1.3-1.3h4.2c0.7,0,1.2,0.6,1,1.3c-0.2,0.8-0.4,1.7-0.6,2.7c-0.8,4.8-2.2,13-3.8,16.9
		c-1.8,4.2-4.5,7.8-8,10.8c-0.5,0.4-1.2,0.4-1.7,0.1L358.8,133.3z"/>
</g>
</svg>
