<svg xmlns="http://www.w3.org/2000/svg" viewBox="0 0 18 18" id="svg_icon_spinner_000" width="100%" height="100%"><g><path d="M5 9.6c-.3-2 .8-3.8 2.6-4.5l.2 1.6c.2.7.7.5.8.3l1.8-2.3.2-.2.2-.2.3-.5c.1-.1.1-.3-.1-.4L7.8.9c-.3-.2-.8-.1-.7.5 0 0 .1 1 .2 1.6-2.9.9-4.8 3.8-4.4 6.9.3 1.8 1.3 3.3 2.7 4.3l1.3-1.7c-1-.7-1.7-1.7-1.9-2.9zm6.2-4.1c1 .6 1.7 1.7 1.9 2.9.3 1.9-.8 3.8-2.6 4.5l-.2-1.6c-.3-.7-.8-.5-.9-.3l-1.8 2.3-.2.2-.2.2-.3.5c-.1.1-.1.3.1.4l3.2 2.4c.3.2.8.1.7-.5 0 0-.1-1-.2-1.6 2.9-.9 4.8-3.8 4.4-6.9-.3-1.8-1.3-3.3-2.7-4.3l-1.2 1.8z"></path></g></svg>