<svg xmlns="http://www.w3.org/2000/svg" viewBox="0 0 94 94" id="svg_icon_18_plus" width="100%" height="100%"><defs><filter color-interpolation-filters="sRGB" filterUnits="userSpaceOnUse" height="26" id="sf_j" width="27" x="64" y="36"><feFlood flood-opacity="0" result="BackgroundImageFix"></feFlood><feColorMatrix in="SourceAlpha" values="0 0 0 0 0 0 0 0 0 0 0 0 0 0 0 0 0 0 127 0"></feColorMatrix><feOffset dx="1" dy="1"></feOffset><feGaussianBlur stdDeviation=".5"></feGaussianBlur><feColorMatrix values="0 0 0 0 0.494118 0 0 0 0 0.0431373 0 0 0 0 0.109804 0 0 0 1 0"></feColorMatrix><feBlend in2="BackgroundImageFix" result="effect1_dropShadow"></feBlend><feBlend in2="effect1_dropShadow" in="SourceGraphic" result="shape"></feBlend></filter><filter color-interpolation-filters="sRGB" filterUnits="userSpaceOnUse" height="38" id="sf_i" width="15" x="10" y="30"><feFlood flood-opacity="0" result="BackgroundImageFix"></feFlood><feColorMatrix in="SourceAlpha" values="0 0 0 0 0 0 0 0 0 0 0 0 0 0 0 0 0 0 127 0"></feColorMatrix><feOffset dx="1" dy="1"></feOffset><feGaussianBlur stdDeviation=".5"></feGaussianBlur><feColorMatrix values="0 0 0 0 0.494118 0 0 0 0 0.0431373 0 0 0 0 0.109804 0 0 0 1 0"></feColorMatrix><feBlend in2="BackgroundImageFix" result="effect1_dropShadow"></feBlend><feBlend in2="effect1_dropShadow" in="SourceGraphic" result="shape"></feBlend></filter><filter color-interpolation-filters="sRGB" filterUnits="userSpaceOnUse" height="40" id="sf_h" width="28" x="34" y="29"><feFlood flood-opacity="0" result="BackgroundImageFix"></feFlood><feColorMatrix in="SourceAlpha" values="0 0 0 0 0 0 0 0 0 0 0 0 0 0 0 0 0 0 127 0"></feColorMatrix><feOffset dx="1" dy="1"></feOffset><feGaussianBlur stdDeviation=".5"></feGaussianBlur><feColorMatrix values="0 0 0 0 0.494118 0 0 0 0 0.0431373 0 0 0 0 0.109804 0 0 0 1 0"></feColorMatrix><feBlend in2="BackgroundImageFix" result="effect1_dropShadow"></feBlend><feBlend in2="effect1_dropShadow" in="SourceGraphic" result="shape"></feBlend></filter><linearGradient gradientUnits="userSpaceOnUse" id="sf_g" x1="47" x2="47" y1="0" y2="94"><stop stop-color="#F3426F"></stop><stop offset=".314" stop-color="#C72F4F"></stop><stop offset=".885" stop-color="#9C0C27"></stop></linearGradient><linearGradient gradientUnits="userSpaceOnUse" id="sf_f" x1="47" x2="47" y1="0" y2="94"><stop stop-color="#B23048"></stop><stop offset="0" stop-color="#C12B4B"></stop><stop offset=".375" stop-color="#C22B4B"></stop><stop offset="1" stop-color="#810D21"></stop></linearGradient><linearGradient gradientUnits="userSpaceOnUse" id="sf_e" x1="47" x2="47" y1="4" y2="90"><stop offset=".973" stop-color="#AE1231"></stop><stop offset="1" stop-color="#BD1034"></stop></linearGradient><linearGradient gradientUnits="userSpaceOnUse" id="sf_d" x1="47" x2="47" y1="4" y2="86"><stop offset=".635" stop-color="#CA1C40"></stop><stop offset="1" stop-color="#9C0C27"></stop></linearGradient><linearGradient gradientUnits="userSpaceOnUse" id="sf_c" x1="77" x2="77" y1="36" y2="60"><stop stop-color="#FDFBFB"></stop><stop offset="1" stop-color="#CFCFCF"></stop></linearGradient><linearGradient gradientUnits="userSpaceOnUse" id="sf_b" x1="17.126" x2="17.126" y1="30" y2="66"><stop stop-color="#FCFAFB"></stop><stop offset="1" stop-color="#CECECE"></stop></linearGradient><linearGradient gradientUnits="userSpaceOnUse" id="sf_a" x1="47.5" x2="47.5" y1="29" y2="67"><stop stop-color="#FDFDFD"></stop><stop offset="1" stop-color="#CBCBCB"></stop></linearGradient></defs><g><path d="M75 .5H19C8.783.5.5 8.783.5 19v56C.5 85.217 8.783 93.5 19 93.5h56c10.217 0 18.5-8.283 18.5-18.5V19C93.5 8.783 85.217.5 75 .5z" fill="url(#sf_g)" stroke="url(#sf_f)"></path><path d="M71 4H23C12.507 4 4 12.507 4 23v48c0 10.493 8.507 19 19 19h48c10.493 0 19-8.507 19-19V23c0-10.493-8.507-19-19-19z" fill="url(#sf_e)"></path><path d="M71 4H23C12.507 4 4 12.507 4 23v44c0 10.493 8.507 19 19 19h48c10.493 0 19-8.507 19-19V23c0-10.493-8.507-19-19-19z" fill="url(#sf_d)"></path><g filter="url(#sf_j)"><path clip-rule="evenodd" d="M79 36h-6v9h-9v6h9v9h6v-9h10v-6H79v-9z" fill-rule="evenodd" fill="#F0F0F0"></path></g><g filter="url(#sf_i)"><path clip-rule="evenodd" d="M17 30h-3.5L10 36h7v30h6V30h-6z" fill-rule="evenodd" fill="#F0F0F0"></path></g><g filter="url(#sf_h)"><path d="M34 56.506c0-1.027.145-2.01.434-2.951a9.029 9.029 0 0 1 1.354-2.643 9.65 9.65 0 0 1 2.222-2.18c.902-.65 1.958-1.181 3.167-1.592-1.856-.923-2.835-2.206-3.857-3.643-1.021-1.454-1.532-3.062-1.532-4.824 0-1.403.29-2.703.868-3.9.596-1.197 1.305-2.13 2.344-3.002 1.039-.872 1.921-1.548 3.352-2.027 1.447-.496 3.022-.744 4.725-.744 1.736 0 3.328.248 4.776.744 1.447.479 2.157 1.155 3.195 2.027a8.994 8.994 0 0 1 2.452 3.053c.579 1.18.868 2.464.868 3.85 0 1.744-.544 3.335-1.634 4.772-1.09 1.42-2.063 2.591-3.987 3.515 1.191.41 2.239.94 3.141 1.59a9.9 9.9 0 0 1 2.273 2.182 8.968 8.968 0 0 1 1.38 2.694c.306.958.459 1.958.459 3.002 0 1.573-.315 3.01-.945 4.31a9.876 9.876 0 0 1-2.682 3.336c-1.14.924-2.511 1.642-4.112 2.155-1.583.513-3.337.77-5.261.77-1.89 0-3.635-.248-5.236-.744-1.583-.513-2.954-1.232-4.112-2.155a10.035 10.035 0 0 1-2.681-3.31c-.647-1.3-.971-2.729-.971-4.285zm7.636-.693c0 .838.128 1.59.384 2.258a4.62 4.62 0 0 0 1.098 1.693 5.09 5.09 0 0 0 1.685 1.078c.665.24 1.405.36 2.223.36.783 0 1.498-.13 2.145-.386a5.032 5.032 0 0 0 1.711-1.077 4.902 4.902 0 0 0 1.124-1.694c.272-.667.408-1.411.408-2.232 0-.736-.127-1.437-.383-2.104a4.871 4.871 0 0 0-1.098-1.72 5.281 5.281 0 0 0-1.711-1.18c-.647-.29-1.38-.436-2.197-.436-.766 0-1.48.137-2.145.41a4.678 4.678 0 0 0-1.711 1.13 5.181 5.181 0 0 0-1.124 1.719 5.715 5.715 0 0 0-.409 2.181zM42.76 39.52c0 .65.111 1.266.332 1.847.239.565.554 1.06.945 1.489.392.41.852.735 1.38.974.544.24 1.115.36 1.71.36.614 0 1.184-.12 1.712-.36a4.21 4.21 0 0 0 1.38-1 4.52 4.52 0 0 0 .944-1.488 4.636 4.636 0 0 0 .358-1.822c0-.667-.111-1.283-.332-1.848a4.191 4.191 0 0 0-.945-1.488 4.138 4.138 0 0 0-1.405-1 4.092 4.092 0 0 0-1.711-.36c-.647 0-1.243.129-1.788.385a4.21 4.21 0 0 0-1.38 1.001c-.374.41-.672.907-.893 1.488a5.313 5.313 0 0 0-.307 1.822z" fill="#F0F0F0"></path></g><path clip-rule="evenodd" d="M79.4 36h-5.76v9H65v6h8.64v9h5.76v-9H89v-6h-9.6v-9z" fill-rule="evenodd" fill="url(#sf_c)"></path><path clip-rule="evenodd" d="M18 30h-3.5l-3.23 6H18v30h5V30h-5z" fill-rule="evenodd" fill="url(#sf_b)"></path><path d="M35 56.506c0-1.027.14-2.01.417-2.951a9.164 9.164 0 0 1 1.302-2.643 9.463 9.463 0 0 1 2.137-2.18c.867-.65 1.882-1.181 3.045-1.592-1.785-.923-2.726-2.206-3.709-3.643a8.43 8.43 0 0 1-1.473-4.824c0-1.403.278-2.703.835-3.9.573-1.197 1.255-2.13 2.254-3.002.998-.872 1.847-1.548 3.223-2.027 1.391-.496 2.906-.744 4.543-.744 1.67 0 3.2.248 4.592.744 1.392.479 2.074 1.155 3.073 2.027a8.94 8.94 0 0 1 2.357 3.053c.557 1.18.835 2.464.835 3.85 0 1.744-.524 3.335-1.572 4.772-1.047 1.42-1.983 2.591-3.834 3.515 1.147.41 2.154.94 3.021 1.59a9.695 9.695 0 0 1 2.186 2.182 9.105 9.105 0 0 1 1.326 2.694c.295.958.442 1.958.442 3.002 0 1.573-.303 3.01-.909 4.31a9.816 9.816 0 0 1-2.578 3.336c-1.097.924-2.415 1.642-3.954 2.155-1.523.513-3.209.77-5.059.77-1.817 0-3.495-.248-5.034-.744-1.523-.513-2.84-1.232-3.954-2.155a9.97 9.97 0 0 1-2.579-3.31c-.622-1.3-.933-2.729-.933-4.285zm7.343-.693c0 .838.123 1.59.368 2.258a4.642 4.642 0 0 0 1.056 1.693c.459.462.999.821 1.621 1.078.639.24 1.35.36 2.137.36a5.36 5.36 0 0 0 2.062-.386 4.818 4.818 0 0 0 1.646-1.077 4.923 4.923 0 0 0 1.08-1.694c.262-.667.393-1.411.393-2.232 0-.736-.123-1.437-.368-2.104a4.9 4.9 0 0 0-1.056-1.72 5.08 5.08 0 0 0-1.645-1.18c-.623-.29-1.327-.436-2.112-.436a5.18 5.18 0 0 0-2.063.41 4.49 4.49 0 0 0-1.646 1.13 5.205 5.205 0 0 0-1.08 1.719 5.915 5.915 0 0 0-.393 2.181zm1.08-16.293c0 .65.107 1.266.32 1.847.229.565.532 1.06.908 1.489.377.41.819.735 1.326.974.524.24 1.073.36 1.646.36.59 0 1.138-.12 1.645-.36.508-.239.95-.572 1.326-1 .393-.428.696-.924.909-1.488.23-.565.344-1.172.344-1.822 0-.667-.107-1.283-.32-1.848a4.217 4.217 0 0 0-.908-1.488 3.987 3.987 0 0 0-1.35-1 3.807 3.807 0 0 0-1.646-.36c-.622 0-1.195.129-1.72.385a4.06 4.06 0 0 0-1.325 1.001c-.36.41-.647.907-.86 1.488a5.504 5.504 0 0 0-.295 1.822z" fill="url(#sf_a)"></path><path clip-rule="evenodd" d="M4 46.432V23C4 12.507 12.507 4 23 4h48c10.493 0 19 8.507 19 19v23.432C77.772 54.991 62.96 60 47 60S16.228 54.99 4 46.432z" fill-opacity=".26" fill-rule="evenodd" fill="#fff"></path></g></svg>