<?xml version="1.0"?>
<svg version="1.1" xmlns="http://www.w3.org/2000/svg" width="95.0439453125px" height="9.9921875px"><path fill="#999" d="M1.0888671875,3.451171875l0-0.849609375q0.7373046875-0.3466796875,1.2890625-0.83984375t0.78125-0.95703125l0.56640625,0l0,7.1875l-0.87890625,0l0-5.6005859375q-0.3173828125,0.302734375-0.83251953125,0.60546875t-0.92529296875,0.4541015625z M5.9765625,4.4619140625q0-1.26953125,0.26123046875-2.04345703125t0.7763671875-1.19384765625t1.29638671875-0.419921875q0.576171875,0,1.0107421875,0.23193359375t0.7177734375,0.6689453125t0.4443359375,1.064453125t0.1611328125,1.69189453125q0,1.259765625-0.2587890625,2.03369140625t-0.77392578125,1.1962890625t-1.30126953125,0.42236328125q-1.03515625,0-1.6259765625-0.7421875q-0.7080078125-0.8935546875-0.7080078125-2.91015625z M6.8798828125,4.4619140625q0,1.7626953125,0.41259765625,2.34619140625t1.01806640625,0.58349609375t1.01806640625-0.5859375t0.41259765625-2.34375q0-1.767578125-0.41259765625-2.3486328125t-1.02783203125-0.5810546875q-0.60546875,0-0.966796875,0.5126953125q-0.4541015625,0.654296875-0.4541015625,2.4169921875z M11.25,6.2783203125l0-0.8056640625l3.2666015625-4.638671875l0.7177734375,0l0,4.638671875l0.966796875,0l0,0.8056640625l-0.966796875,0l0,1.7138671875l-0.87890625,0l0-1.7138671875l-3.10546875,0z M12.1142578125,5.47265625l2.2412109375,0l0-3.2275390625z M17.099609375,6.1171875l0.9228515625-0.078125q0.1025390625,0.673828125,0.47607421875,1.01318359375t0.90087890625,0.33935546875q0.634765625,0,1.07421875-0.478515625t0.439453125-1.26953125q0-0.751953125-0.42236328125-1.1865234375t-1.10595703125-0.4345703125q-0.4248046875,0-0.7666015625,0.19287109375t-0.537109375,0.50048828125l-0.8251953125-0.107421875l0.693359375-3.6767578125l3.5595703125,0l0,0.83984375l-2.8564453125,0l-0.3857421875,1.923828125q0.64453125-0.44921875,1.3525390625-0.44921875q0.9375,0,1.58203125,0.6494140625t0.64453125,1.669921875q0,0.9716796875-0.56640625,1.6796875q-0.6884765625,0.869140625-1.8798828125,0.869140625q-0.9765625,0-1.59423828125-0.546875t-0.70556640625-1.4501953125z M25.7861328125,7.9921875l0-7.158203125l0.9716796875,0l3.759765625,5.6201171875l0-5.6201171875l0.908203125,0l0,7.158203125l-0.9716796875,0l-3.759765625-5.625l0,5.625l-0.908203125,0z M32.91015625,7.9921875l0-5.185546875l0.87890625,0l0,5.185546875l-0.87890625,0z M32.91015625,1.8447265625l0-1.0107421875l0.87890625,0l0,1.0107421875l-0.87890625,0z M34.8583984375,5.4189453125q0-0.83984375,0.2783203125-1.4697265625t0.84716796875-0.94482421875t1.23779296875-0.31494140625q0.8447265625,0,1.3818359375,0.42724609375t0.6884765625,1.21337890625l-0.8544921875,0.1318359375q-0.1220703125-0.5224609375-0.43212890625-0.7861328125t-0.74951171875-0.263671875q-0.6640625,0-1.0791015625,0.47607421875t-0.4150390625,1.50634765625q0,1.044921875,0.400390625,1.5185546875t1.044921875,0.4736328125q0.517578125,0,0.8642578125-0.3173828125t0.439453125-0.9765625l0.8642578125,0.1123046875q-0.1416015625,0.8935546875-0.72509765625,1.39892578125t-1.43310546875,0.50537109375q-1.064453125,0-1.71142578125-0.69580078125t-0.64697265625-1.99462890625z M39.7998046875,5.3994140625q0-1.4404296875,0.80078125-2.1337890625q0.6689453125-0.576171875,1.630859375-0.576171875q1.0693359375,0,1.748046875,0.70068359375t0.6787109375,1.93603515625q0,1.0009765625-0.30029296875,1.57470703125t-0.8740234375,0.89111328125t-1.25244140625,0.3173828125q-1.0888671875,0-1.76025390625-0.6982421875t-0.67138671875-2.01171875z M40.703125,5.3994140625q0,0.99609375,0.4345703125,1.49169921875t1.09375,0.49560546875q0.654296875,0,1.0888671875-0.498046875t0.4345703125-1.5185546875q0-0.9619140625-0.43701171875-1.45751953125t-1.08642578125-0.49560546875q-0.6591796875,0-1.09375,0.4931640625t-0.4345703125,1.4892578125z M45.3369140625,6.4443359375l0.869140625-0.13671875q0.0732421875,0.5224609375,0.40771484375,0.80078125t0.93505859375,0.2783203125q0.60546875,0,0.8984375-0.24658203125t0.29296875-0.57861328125q0-0.2978515625-0.2587890625-0.46875q-0.1806640625-0.1171875-0.8984375-0.2978515625q-0.966796875-0.244140625-1.34033203125-0.42236328125t-0.56640625-0.4931640625t-0.19287109375-0.69580078125q0-0.3466796875,0.15869140625-0.64208984375t0.43212890625-0.49072265625q0.205078125-0.1513671875,0.55908203125-0.25634765625t0.75927734375-0.10498046875q0.6103515625,0,1.07177734375,0.17578125t0.68115234375,0.47607421875t0.302734375,0.80322265625l-0.859375,0.1171875q-0.05859375-0.400390625-0.33935546875-0.625t-0.79345703125-0.224609375q-0.60546875,0-0.8642578125,0.2001953125t-0.2587890625,0.46875q0,0.1708984375,0.107421875,0.3076171875q0.107421875,0.1416015625,0.3369140625,0.234375q0.1318359375,0.048828125,0.7763671875,0.224609375q0.9326171875,0.2490234375,1.30126953125,0.40771484375t0.57861328125,0.46142578125t0.2099609375,0.751953125q0,0.439453125-0.25634765625,0.82763671875t-0.73974609375,0.6005859375t-1.09375,0.21240234375q-1.0107421875,0-1.54052734375-0.419921875t-0.67626953125-1.2451171875z M50.693359375,7.9921875l0-5.185546875l0.87890625,0l0,5.185546875l-0.87890625,0z M50.693359375,1.8447265625l0-1.0107421875l0.87890625,0l0,1.0107421875l-0.87890625,0z M52.6123046875,6.625q0-0.380859375,0.17333984375-0.69580078125t0.4541015625-0.50537109375t0.63232421875-0.2880859375q0.2587890625-0.068359375,0.78125-0.1318359375q1.064453125-0.126953125,1.5673828125-0.302734375q0.0048828125-0.1806640625,0.0048828125-0.2294921875q0-0.537109375-0.2490234375-0.7568359375q-0.3369140625-0.2978515625-1.0009765625-0.2978515625q-0.6201171875,0-0.91552734375,0.21728515625t-0.43701171875,0.76904296875l-0.859375-0.1171875q0.1171875-0.5517578125,0.3857421875-0.89111328125t0.7763671875-0.5224609375t1.1767578125-0.18310546875q0.6640625,0,1.0791015625,0.15625t0.6103515625,0.39306640625t0.2734375,0.59814453125q0.0439453125,0.224609375,0.0439453125,0.810546875l0,1.171875q0,1.2255859375,0.05615234375,1.55029296875t0.22216796875,0.62255859375l-0.91796875,0q-0.13671875-0.2734375-0.17578125-0.6396484375q-0.48828125,0.4150390625-0.93994140625,0.5859375t-0.96923828125,0.1708984375q-0.8544921875,0-1.3134765625-0.41748046875t-0.458984375-1.06689453125z M53.5498046875,6.6005859375q0,0.3515625,0.26611328125,0.5859375t0.77880859375,0.234375q0.5078125,0,0.9033203125-0.22216796875t0.5810546875-0.60791015625q0.1416015625-0.2978515625,0.1416015625-0.87890625l0-0.322265625q-0.478515625,0.1953125-1.435546875,0.33203125q-0.5419921875,0.078125-0.7666015625,0.17578125t-0.3466796875,0.28564453125t-0.1220703125,0.41748046875z M58.642578125,9.0322265625q0.2783203125-0.1220703125,0.41015625-0.35888671875t0.146484375-0.68115234375l-0.498046875,0l0-1.0009765625l1.0009765625,0l0,1.0009765625q0,0.5517578125-0.1953125,0.89111328125t-0.6201171875,0.52490234375z M63.8671875,4.359375q0-1.1181640625,0.42724609375-1.95068359375t1.2158203125-1.2646484375t1.73583984375-0.43212890625q1.07421875,0,1.806640625,0.546875t1.0205078125,1.5380859375l-0.9326171875,0.2197265625q-0.2490234375-0.78125-0.72265625-1.1376953125t-1.19140625-0.3564453125q-0.8251953125,0-1.37939453125,0.3955078125t-0.77880859375,1.06201171875t-0.224609375,1.37451171875q0,0.9130859375,0.26611328125,1.59423828125t0.82763671875,1.01806640625t1.2158203125,0.3369140625q0.7958984375,0,1.34765625-0.458984375t0.7470703125-1.3623046875l0.947265625,0.2392578125q-0.2978515625,1.1669921875-1.07177734375,1.77978515625t-1.89208984375,0.61279296875q-1.1572265625,0-1.88232421875-0.47119140625t-1.103515625-1.36474609375t-0.37841796875-1.9189453125z M70.751953125,2.806640625l0.947265625,0l1.0791015625,3.0029296875q0.2099609375,0.5712890625,0.3759765625,1.201171875q0.1513671875-0.60546875,0.361328125-1.181640625l1.1083984375-3.0224609375l0.87890625,0l-1.97265625,5.2734375q-0.3173828125,0.8544921875-0.4931640625,1.1767578125q-0.234375,0.4345703125-0.537109375,0.63720703125t-0.72265625,0.20263671875q-0.25390625,0-0.56640625-0.107421875l-0.09765625-0.8251953125q0.2880859375,0.078125,0.5029296875,0.078125q0.29296875,0,0.46875-0.09765625t0.2880859375-0.2734375q0.0830078125-0.1318359375,0.2685546875-0.654296875q0.0244140625-0.0732421875,0.078125-0.21484375z M76.25,9.9794921875l0-7.1728515625l0.80078125,0l0,0.673828125q0.283203125-0.3955078125,0.6396484375-0.59326171875t0.8642578125-0.19775390625q0.6640625,0,1.171875,0.341796875t0.7666015625,0.96435546875t0.2587890625,1.36474609375q0,0.7958984375-0.28564453125,1.43310546875t-0.830078125,0.9765625t-1.14501953125,0.33935546875q-0.439453125,0-0.78857421875-0.185546875t-0.57373046875-0.46875l0,2.5244140625l-0.87890625,0z M77.0458984375,5.4287109375q0,1.0009765625,0.4052734375,1.4794921875t0.9814453125,0.478515625q0.5859375,0,1.00341796875-0.49560546875t0.41748046875-1.53564453125q0-0.9912109375-0.40771484375-1.484375t-0.97412109375-0.4931640625q-0.5615234375,0-0.99365234375,0.52490234375t-0.43212890625,1.52587890625z M81.8017578125,7.9921875l0-5.185546875l0.791015625,0l0,0.7861328125q0.302734375-0.5517578125,0.55908203125-0.7275390625t0.56396484375-0.17578125q0.4443359375,0,0.9033203125,0.283203125l-0.302734375,0.8154296875q-0.322265625-0.1904296875-0.64453125-0.1904296875q-0.2880859375,0-0.517578125,0.17333984375t-0.3271484375,0.48095703125q-0.146484375,0.46875-0.146484375,1.025390625l0,2.71484375l-0.87890625,0z M85.1220703125,6.01953125l0-3.212890625l0.87890625,0l0,2.8759765625q0,0.6884765625,0.0537109375,0.927734375q0.0830078125,0.3466796875,0.3515625,0.54443359375t0.6640625,0.19775390625t0.7421875-0.20263671875t0.49072265625-0.5517578125t0.14404296875-1.01318359375l0-2.7783203125l0.87890625,0l0,5.185546875l-0.7861328125,0l0-0.76171875q-0.60546875,0.87890625-1.6455078125,0.87890625q-0.458984375,0-0.85693359375-0.17578125t-0.5908203125-0.44189453125t-0.27099609375-0.65185546875q-0.0537109375-0.2587890625-0.0537109375-0.8203125z M90.3515625,6.4443359375l0.869140625-0.13671875q0.0732421875,0.5224609375,0.40771484375,0.80078125t0.93505859375,0.2783203125q0.60546875,0,0.8984375-0.24658203125t0.29296875-0.57861328125q0-0.2978515625-0.2587890625-0.46875q-0.1806640625-0.1171875-0.8984375-0.2978515625q-0.966796875-0.244140625-1.34033203125-0.42236328125t-0.56640625-0.4931640625t-0.19287109375-0.69580078125q0-0.3466796875,0.15869140625-0.64208984375t0.43212890625-0.49072265625q0.205078125-0.1513671875,0.55908203125-0.25634765625t0.75927734375-0.10498046875q0.6103515625,0,1.07177734375,0.17578125t0.68115234375,0.47607421875t0.302734375,0.80322265625l-0.859375,0.1171875q-0.05859375-0.400390625-0.33935546875-0.625t-0.79345703125-0.224609375q-0.60546875,0-0.8642578125,0.2001953125t-0.2587890625,0.46875q0,0.1708984375,0.107421875,0.3076171875q0.107421875,0.1416015625,0.3369140625,0.234375q0.1318359375,0.048828125,0.7763671875,0.224609375q0.9326171875,0.2490234375,1.30126953125,0.40771484375t0.57861328125,0.46142578125t0.2099609375,0.751953125q0,0.439453125-0.25634765625,0.82763671875t-0.73974609375,0.6005859375t-1.09375,0.21240234375q-1.0107421875,0-1.54052734375-0.419921875t-0.67626953125-1.2451171875z"/></svg>
