<svg width="21" height="20" viewBox="0 0 21 20" fill="none" xmlns="http://www.w3.org/2000/svg">
    <path d="M14.527 20H5.601c-3.09 0-5.6-2.49-5.6-5.566V5.566C0 2.494 2.505 0 5.6 0h8.926c3.091 0 5.6 2.49 5.6 5.566v8.872c0 3.072-2.509 5.562-5.6 5.562z" fill="#0097D8"/>
    <path d="M13.501 9.748c.622-.516.931-1.204.931-2.068 0-.492-.094-.95-.284-1.372a2.83 2.83 0 0 0-1.896-1.544 5.775 5.775 0 0 0-1.405-.164h-.663C8.927 4.6 8.7 5.398 8.7 5.796v.028c0 .553.16 1.123 1.62 1.123l-.149.004h.635c.387 0 .688.09.907.266.218.18.325.43.325.754 0 .18-.053.352-.156.52a.916.916 0 0 1-.367.356c-.14.07-.38.107-.71.107H7.634c-.99.004-1.142.7-1.162.962v.205c.02.266.173.962 1.17.962h1.397v-.004h2.069c.391 0 .709.103.948.307.23.214.342.496.342.852 0 .201-.046.385-.14.562-.1.172-.231.31-.4.413-.186.107-.441.164-.767.164H9.038v-.004H7.641c-1.006 0-1.15.774-1.17 1.053v.2c.016.275.156 1.057 1.17 1.057h3.969c.379 0 .75-.045 1.104-.14a2.69 2.69 0 0 0 .849-.356c.292-.188.548-.425.758-.704.206-.29.367-.61.482-.95a3.53 3.53 0 0 0 .173-1.106c-.008-1.147-.498-2.04-1.475-2.679zM8.045 5.78c0 .642-.528 1.167-1.175 1.167a1.173 1.173 0 0 1-1.174-1.168c0-.643.527-1.167 1.174-1.167.647 0 1.175.52 1.175 1.167z" fill="#fff"/>
</svg>
