<svg width="24" height="24" viewBox="0 0 24 24" fill="none" xmlns="http://www.w3.org/2000/svg">
    <path d="M20.484 14.436c-.635.94-1.477 1.662-2.437 2.091-1.255 1.69-3.984 2.859-7.152 2.859-.491 0-.974-.029-1.441-.08 1.19.381 2.42.571 3.655.565 4.008 0 7.31-1.884 7.822-4.305a3.44 3.44 0 0 0 .07-.645 3.154 3.154 0 0 0-.212-1.13c-.08.228-.183.444-.305.645z" fill="#E89E50"/>
    <path d="M14.798 8.409a.808.808 0 0 0-.516.277 1.329 1.329 0 0 0-.175.26h1.625a.919.919 0 0 0-.386-.458.734.734 0 0 0-.548-.08zM11.686 9.74l.061-.09H10.53c.07.095.156.173.253.23a.709.709 0 0 0 .628.049.796.796 0 0 0 .276-.19z" fill="#4D4E50"/>
    <path fill-rule="evenodd" clip-rule="evenodd" d="M5.477 10.837a4.139 4.139 0 0 1-.121-.353c-.02-.08-.041-.16-.05-.254a3.064 3.064 0 0 0-.068.744v.155c.017.22.056.437.118.645.123.415.314.798.56 1.13a4.6 4.6 0 0 0 .552.646c1.406 1.375 3.842 2.288 6.64 2.288a10.784 10.784 0 0 0 5.35-1.313 6.385 6.385 0 0 0 1.3-.975 4.64 4.64 0 0 0 .556-.646c.244-.333.432-.716.556-1.13.064-.208.106-.425.126-.645.004.082.004.164 0 .245a3.44 3.44 0 0 1-.07.645 3.466 3.466 0 0 1-.458 1.13 4.274 4.274 0 0 1-.483.646 5.96 5.96 0 0 1-1.247 1.04c-.231.15-.468.284-.711.405a11.09 11.09 0 0 1-4.874 1.083c-2.977 0-5.551-1.021-6.904-2.528a4.9 4.9 0 0 1-.495-.66 3.558 3.558 0 0 1-.455-1.13 3.215 3.215 0 0 0 .138 1.79c.078.23.18.45.3.654 1.138 1.856 4.005 3.174 7.368 3.174.481 0 .963-.027 1.441-.085-1.19.386-2.42.578-3.655.57a11.088 11.088 0 0 1-4.926-1.083 7.857 7.857 0 0 1-.71-.405c-1.167-.753-1.959-1.733-2.186-2.825A3.135 3.135 0 0 1 3 13.149c0-1.342.853-2.557 2.23-3.451a.845.845 0 0 1 0-.104c0-2.731 3.533-4.95 7.89-4.95 4.359 0 7.892 2.219 7.88 4.95a3.447 3.447 0 0 1-.07.65 3.468 3.468 0 0 1-.309.871c-.227.429-.516.81-.852 1.13-.243.24-.504.456-.78.645l-.21.142c-.082.052-.163.103-.248.15a10.724 10.724 0 0 1-5.41 1.352c-2.331 0-4.435-.622-5.869-1.63a5.826 5.826 0 0 1-.784-.645 4.643 4.643 0 0 1-.852-1.13 3.702 3.702 0 0 1-.139-.292z" fill="#E89E50"/>
    <path d="m13.144 11.078-.006.53 2.561.04-.011 1.069-7.01-.108.019-1.705c.006-.536.195-.946.567-1.231.37-.288.892-.427 1.57-.416.93.014 1.579.28 1.946.797l2.88-.883h.067l-.013 1.15-2.57.757zm-1.185.513.006-.608a.522.522 0 0 0-.274-.484c-.188-.11-.44-.167-.754-.171-.703-.011-1.056.19-1.061.605l-.007.626 2.09.032zM13.326 5.546c.818.012 1.444.128 1.878.348.435.218.65.536.645.956-.004.32-.178.574-.524.763l2.422.037-.012 1.029-7.212-.11.01-.953.478-.03c-.38-.202-.568-.472-.564-.812.005-.419.21-.731.617-.936.407-.207 1.027-.306 1.862-.298l.4.006zm-.354 1.02c-.503-.008-.86.029-1.07.11-.21.08-.315.219-.317.418-.003.21.113.366.346.467l2.44.037c.226-.089.34-.243.343-.464.002-.203-.11-.346-.337-.427-.227-.083-.581-.129-1.063-.136l-.342-.005z" fill="#FFDEBB"/>
</svg>
