<svg width="20" height="20" viewBox="0 0 20 20" fill="none" xmlns="http://www.w3.org/2000/svg">
    <rect width="20" height="20" rx="3" fill="#212121"/>
    <path d="M14.323 14.098a1.638 1.638 0 0 1-.164-.628c0-.077-.01-.155-.01-.241-.01-.696-.041-4.22-.041-4.22 0-.704 0-1.816.01-2.55v-.251c.01-.087.021-.251.021-.26.004-.268.067-.531.185-.773.146-.247.35-.459.596-.619a2.68 2.68 0 0 1 .894-.386h-4.767a2.413 2.413 0 0 1 1.49 1.033c.101.167.17.349.205.538.072.425.03 1.912.03 2.685v.377H7.227v-.377c0-.782-.04-2.27.031-2.685.034-.19.104-.373.206-.54.154-.244.356-.457.595-.629.266-.19.57-.328.894-.405H4.197c.333.067.646.206.913.405.223.158.412.354.555.58.041.071.075.145.103.222.05.164.082.332.092.502.01.541.021 2.193.021 3.13 0 0-.03 3.409-.04 4.181-.022.201-.032.358-.042.503a1.317 1.317 0 0 1-.154.463 2.03 2.03 0 0 1-.585.628c-.02.02-.04.03-.061.05a2.56 2.56 0 0 1-.452.242 1.91 1.91 0 0 1-.38.116h4.766a2.227 2.227 0 0 1-.883-.434 2.159 2.159 0 0 1-.576-.628 1.486 1.486 0 0 1-.236-.715s-.01-1.487-.01-2.443V9.482h5.544v1.487c0 .954-.02 2.434-.02 2.444-.01.253-.092.5-.237.714-.149.24-.344.454-.575.628-.26.2-.56.347-.883.434h4.776a2.514 2.514 0 0 1-.893-.434 1.917 1.917 0 0 1-.617-.657z" fill="#fff"/>
</svg>
