<svg width="11" height="10" viewBox="0 0 11 10" fill="none" xmlns="http://www.w3.org/2000/svg">
    <path fill-rule="evenodd" clip-rule="evenodd" d="m8.15 1.676.053.122a.12.12 0 0 0 .106.067c1.275 0 2.316 1.087 2.316 2.42V7.58c0 1.332-1.041 2.42-2.316 2.42H2.316C1.036 10 0 8.912 0 7.58V4.284c0-1.332 1.036-2.42 2.316-2.42a.104.104 0 0 0 .101-.066l.032-.067.056-.123c.136-.3.287-.63.38-.826C3.129.283 3.543.006 4.059 0H6.56c.515.006.935.283 1.18.782.083.175.21.457.333.728l.075.166zm.143 2.754a.487.487 0 0 1-.478-.5c0-.277.212-.504.478-.504s.483.227.483.505c0 .277-.217.5-.483.5zm-2.98 3.49c.573 0 1.094-.244 1.471-.638a2.25 2.25 0 0 0 .005-3.086 2.034 2.034 0 0 0-1.477-.638c-.557 0-1.083.228-1.482.644-.393.416-.61.96-.605 1.537 0 .583.217 1.127.61 1.543.399.41.92.638 1.477.638zm-.92-3.13a1.259 1.259 0 0 1 1.833-.005c.245.255.377.594.377.954-.005.744-.579 1.349-1.29 1.349-.346 0-.67-.139-.914-.394a1.37 1.37 0 0 1-.378-.955v-.005c-.005-.35.128-.688.372-.943z" fill="#1B387B"/>
</svg>
