<svg width="24" height="24" viewBox="0 0 24 24" fill="none" xmlns="http://www.w3.org/2000/svg">
    <path d="m3.75 15 .833-8.1 3.333-.45L10 7.8h7.5l1.25 2.25-2.917 7.65H4.583L3.75 15z" fill="#1B387B"/>
    <path fill-rule="evenodd" clip-rule="evenodd" d="M19.195 10.483c-.02-.165-.043-.33-.067-.495l-.054-.365c-.19-1.286-1.215-2.233-2.419-2.233H9.82C9.567 6.415 8.738 5.7 7.755 5.7h-1.93c-1.248 0-2.3 1.009-2.449 2.35l-.229 2.068a24.111 24.111 0 0 0 .189 6.668c.198 1.177 1.108 2.06 2.211 2.145l1.275.099c2.918.226 5.848.226 8.766 0l1.38-.107c.68-.053 1.284-.427 1.672-.99a5.403 5.403 0 0 0 1.186-1.924l1.052-2.927c.45-1.25-.403-2.6-1.643-2.6h-.04zM5.825 7.066c-.609 0-1.122.493-1.194 1.147l-.23 2.068a22.634 22.634 0 0 0 .177 6.26c.095.563.531.986 1.06 1.027l.072.005 1.963-5.489c.346-.965 1.204-1.601 2.16-1.601h8.087a21.757 21.757 0 0 0-.04-.28l-.054-.365c-.091-.623-.588-1.08-1.17-1.08H9.317c-.376 0-.681-.331-.681-.738 0-.527-.395-.954-.882-.954h-1.93z" fill="#99B8FF"/>
</svg>
