<svg width="120" height="31" viewBox="0 0 120 31" fill="none" xmlns="http://www.w3.org/2000/svg">
    <g clip-path="url(#r2nx12rs7a)">
        <path d="M46.352 2.409c-.68 1.57-1.881 4.905-1.881 4.905l-1.473-4.221S42.232.86 39.78.86h-3.125v10.144h3.121v-7.04s.374.07 1.095 2.082a2649.48 2649.48 0 0 0 1.793 4.977h2.104s1.513-.097 2.391-2.46l1.135-3.044s.565-1.661 1.085-1.858v7.34h3.095V.855H49.38S47.029.84 46.352 2.41zm16.296 5.595s-2.792-4.156-3.21-4.854C58.724 2.193 57.839.856 56.33.856h-3.133V11h3.13V3.852s2.79 4.158 3.21 4.855C60.255 9.663 61.06 11 62.645 11h3.104V.856h-3.1v7.148zm14.51.389-.023-.023H72.32a2.444 2.444 0 0 1-1.721-.708 2.41 2.41 0 0 1 0-3.42 2.444 2.444 0 0 1 1.722-.707h4.623c.388-.426.804-.761 1.094-1.047L79.716.855h-8.049c-2.868 0-5.192 2.284-5.192 5.096 0 2.812 2.325 5.097 5.192 5.097h8.15l-2.66-2.655z" fill="#58595B"/>
        <path d="M19.04 2.295c-.591-.433-1.045-.994-1.583-1.453a3.148 3.148 0 0 0-4.356.056l-.053.054c-.15.125-.3.26-.45.398L8.144 5.735l-.022.112c-.344 1.664.755 2.88.755 2.88l2.478 2.524 3.969 3.97 1.352-1.345 2.898-2.852 2.193-2.123.144-.122a3.491 3.491 0 0 1 2.824-.715 2.527 2.527 0 0 1 .22.055L19.04 2.295z" fill="#FDD600"/>
        <path d="m29.408 12.501-4.46-4.387a3.359 3.359 0 0 0-1.122-.098 3.492 3.492 0 0 0-1.913.762c-.052.041-.095.08-.144.122l-2.193 2.123-2.898 2.852-1.352 1.346 3.693 3.598 2.797 2.793a.008.008 0 0 0 .004.005c.11.116.46.528.697 1.315.165.565.193 1.162.08 1.74a.809.809 0 0 0-.014.055h.005l.557-.563 3.694-3.705 2.977-2.956c.48-.477.79-1.098.88-1.768.026-.163.041-.328.044-.493.025-1.196-.575-1.958-1.332-2.74z" fill="#213E7A"/>
        <path d="M22.518 22.931c-.236-.784-.586-1.195-.697-1.314-.003 0-.004-.006-.006-.007l-2.797-2.793-3.693-3.598-3.624 3.667-2.817 2.79a3.41 3.41 0 0 1-2.727.83 8.456 8.456 0 0 1-.302-.05l5.72 5.725c.708.7 1.7 2.105 3.436 2.243a3.136 3.136 0 0 0 2.668-.866l3.466-3.447 1.417-1.361.023-.022.014-.055a3.684 3.684 0 0 0-.08-1.742z" fill="#EA3E24"/>
        <path d="M21.818 21.617s0 .004.005.006a.007.007 0 0 1-.003-.002.007.007 0 0 1-.002-.004z" fill="#EA3E24"/>
        <path d="M11.354 11.254 8.876 8.73s-1.099-1.216-.755-2.88l.022-.112-5.871 5.768c-.735.73-2.24 1.77-2.271 3.634-.018 1.198.575 1.97 1.324 2.763l4.432 4.455.097.095v.004c.104.02.205.035.302.05a3.426 3.426 0 0 0 2.726-.83l2.815-2.783 3.624-3.667-3.967-3.973z" fill="#3F9143"/>
        <path d="M7.067 15.223c0-4.488 3.693-8.125 8.256-8.125 4.56 0 8.254 3.637 8.254 8.125 0 4.49-3.693 8.126-8.254 8.126-4.56 0-8.256-3.636-8.256-8.126zm.577 0c-.001.995.197 1.98.584 2.898.387.918.953 1.75 1.667 2.449a7.724 7.724 0 0 0 5.43 2.214 7.718 7.718 0 0 0 5.428-2.214 7.499 7.499 0 0 0 1.662-2.45 7.455 7.455 0 0 0 .582-2.897c0-.994-.199-1.978-.584-2.895a7.505 7.505 0 0 0-1.664-2.449 7.71 7.71 0 0 0-5.428-2.214A7.716 7.716 0 0 0 9.89 9.88a7.496 7.496 0 0 0-1.665 2.448 7.453 7.453 0 0 0-.584 2.896h.002z" fill="#fff"/>
        <path d="M23.365 15.225c0 1.58-.471 3.124-1.355 4.438a8.032 8.032 0 0 1-3.61 2.942 8.097 8.097 0 0 1-4.648.454 8.061 8.061 0 0 1-4.119-2.186 7.97 7.97 0 0 1-2.201-4.09 7.935 7.935 0 0 1 .458-4.615 8 8 0 0 1 2.963-3.584 8.085 8.085 0 0 1 7.548-.738c.976.401 1.862.99 2.609 1.731a7.98 7.98 0 0 1 1.743 2.591c.404.97.612 2.008.612 3.057z" fill="url(#1b2sxdmw0b)"/>
        <path d="M16.553 15.106a1.205 1.205 0 0 1-.756 1.118 1.23 1.23 0 0 1-1.33-.265 1.21 1.21 0 0 1-.262-1.322 1.215 1.215 0 0 1 1.13-.746 1.229 1.229 0 0 1 .863.356 1.211 1.211 0 0 1 .355.859z" fill="#fff"/>
        <path d="M23.457 15.244a7.95 7.95 0 0 1-1.356 4.44 8.034 8.034 0 0 1-3.611 2.942 8.1 8.1 0 0 1-4.65.455 8.064 8.064 0 0 1-4.12-2.187 7.973 7.973 0 0 1-2.202-4.091 7.938 7.938 0 0 1 .458-4.617A8.002 8.002 0 0 1 10.94 8.6a8.093 8.093 0 0 1 7.55-.74c.977.403 1.864.991 2.611 1.733a7.984 7.984 0 0 1 1.744 2.593 7.94 7.94 0 0 1 .612 3.058z" fill="url(#33lgwcbi6c)"/>
        <path d="M50.096 22.25a8.494 8.494 0 0 1 1.476-4.898 8.588 8.588 0 0 1 4.029-3.181c1.129-.447 2.372-.671 3.73-.671 1.343 0 2.583.223 3.72.67a8.819 8.819 0 0 1 2.934 1.858 8.526 8.526 0 0 1 1.915 2.781 8.974 8.974 0 0 1 0 6.881 8.514 8.514 0 0 1-1.915 2.781 8.809 8.809 0 0 1-2.934 1.858c-1.137.447-2.377.671-3.72.671-1.358 0-2.602-.223-3.73-.67a8.625 8.625 0 0 1-4.023-3.188 8.53 8.53 0 0 1-1.483-4.893zm4.539 0c-.007.627.121 1.25.376 1.825a4.573 4.573 0 0 0 2.513 2.407c1.16.455 2.45.455 3.608 0a4.732 4.732 0 0 0 1.506-.956 4.506 4.506 0 0 0 1.03-1.453 4.615 4.615 0 0 0 0-3.65 4.526 4.526 0 0 0-1.03-1.454 4.734 4.734 0 0 0-1.506-.956 4.942 4.942 0 0 0-3.608 0 4.61 4.61 0 0 0-2.514 2.414 4.386 4.386 0 0 0-.376 1.822zM47.953 15.414c-.997-.969-2.432-1.453-4.307-1.453H36.74v16.576h2.127s2.212-.201 2.212-1.965v-3.53h2.568c1.875 0 3.31-.484 4.307-1.452.996-.97 1.494-2.332 1.494-4.09 0-1.756-.498-3.119-1.494-4.086zm-5.436 6.159h-1.439v-4.136h1.44c1.593 0 2.39.689 2.39 2.067 0 1.377-.796 2.066-2.39 2.066v.003zM82.772 13.96v3.65h3.564v12.925h2.146s1.99-.184 2.193-1.709V17.61h3.565v-3.65H82.772zM78.16 23.746c1.196-.277 2.1-.807 2.712-1.592.612-.784.918-1.806.92-3.067a5.63 5.63 0 0 0-.344-1.978 4.548 4.548 0 0 0-1.06-1.67 4.59 4.59 0 0 0-1.674-1.067c-.694-.272-1.506-.408-2.435-.407h-6.754v16.572h2.123s2.214-.202 2.214-1.965v-4.408l4.143 6.373h5.403l-5.248-6.791zm-1.505-2.902c-.457.352-1.114.528-1.97.528h-.817v-4.09h.82c.855 0 1.512.177 1.97.528.457.352.686.857.686 1.518-.002.658-.232 1.164-.689 1.516zM120 28.573v-1.685h-5.204V13.961h-4.339v16.574h7.33S120 30.336 120 28.573z" fill="#213E7A"/>
        <path d="m97.236 29.025.48-1.384h6.182l.314.908c.009.033.021.062.03.094l.122.354c.524 1.28 1.556 1.487 1.935 1.517h3.205l-6.337-16.534h-4.725L92.1 30.514h3.206c.384-.033 1.401-.236 1.93-1.489zm3.571-10.157 1.943 5.503h-3.887l1.944-5.503z" fill="#213E7B"/>
    </g>
    <defs>
        <radialGradient id="1b2sxdmw0b" cx="0" cy="0" r="1" gradientUnits="userSpaceOnUse" gradientTransform="matrix(8.04321 0 0 7.98665 15.321 15.224)">
            <stop stop-color="#fff"/>
            <stop offset=".05" stop-color="#fff" stop-opacity=".9"/>
            <stop offset=".15" stop-color="#fff" stop-opacity=".69"/>
            <stop offset=".26" stop-color="#fff" stop-opacity=".51"/>
            <stop offset=".37" stop-color="#fff" stop-opacity=".35"/>
            <stop offset=".48" stop-color="#fff" stop-opacity=".22"/>
            <stop offset=".6" stop-color="#fff" stop-opacity=".12"/>
            <stop offset=".72" stop-color="#fff" stop-opacity=".05"/>
            <stop offset=".85" stop-color="#fff" stop-opacity=".01"/>
            <stop offset="1" stop-color="#fff" stop-opacity="0"/>
        </radialGradient>
        <radialGradient id="33lgwcbi6c" cx="0" cy="0" r="1" gradientUnits="userSpaceOnUse" gradientTransform="matrix(1858.14 0 0 1845.08 5851.51 6894.41)">
            <stop stop-color="#fff"/>
            <stop offset=".05" stop-color="#fff" stop-opacity=".9"/>
            <stop offset=".15" stop-color="#fff" stop-opacity=".69"/>
            <stop offset=".26" stop-color="#fff" stop-opacity=".51"/>
            <stop offset=".37" stop-color="#fff" stop-opacity=".35"/>
            <stop offset=".48" stop-color="#fff" stop-opacity=".22"/>
            <stop offset=".6" stop-color="#fff" stop-opacity=".12"/>
            <stop offset=".72" stop-color="#fff" stop-opacity=".05"/>
            <stop offset=".85" stop-color="#fff" stop-opacity=".01"/>
            <stop offset="1" stop-color="#fff" stop-opacity="0"/>
        </radialGradient>
        <clipPath id="r2nx12rs7a">
            <path fill="#fff" d="M0 0h120v31H0z"/>
        </clipPath>
    </defs>
</svg>
