<svg width="24" height="24" viewBox="0 0 24 24" fill="none" xmlns="http://www.w3.org/2000/svg">
    <circle cx="12" cy="12" r="9" fill="#FFD3D5"/>
    <path d="M12.793 9.626a4.154 4.154 0 0 0-.81-.31c-.208-.073-.459-.714-1.938-.298.137.484.95-.221 1.695.811.743.224 1.323-.073 1.593.297.205.222.522.073.582-.297.06-.37-.852-.038-1.122-.203z" fill="#DC2E36"/>
    <path d="M12 3a9 9 0 1 0 0 18 9 9 0 0 0 0-18zM6.285 16.843c.248.372-.622.575-.463.845.19.247.357.513.495.793-.141-.124-.285-.248-.419-.377a8.626 8.626 0 0 1-2.477-5.291c.644.381 1.657 2.03 2.874 2.365.295.208-.248 1.291-.01 1.665zM7.246 6.57c-.032.248-.218.525-.718.83-.092.126-.51.302-.555.413-.045.112-.166.147-.322.196-.221.09-.421.225-.587.396-.057.1-.132.05-.496.137-.174.082-.36.14-.55.17a8.624 8.624 0 0 1 1.83-2.762c.255-.235.54-.433.848-.59l.642-.398c-.12.295-.117.495-.265.659-.015.213.272.674.173.949zm12.979 8.036a8.629 8.629 0 0 1-2.114 3.505 9.06 9.06 0 0 1-.787.687c-.057.03-.114.057-.164.077.151-1.076.35-1.435.944-1.695.595-.26.743-.624.701-1.12 0-.8 1.046-1.226 1.44-1.503-.013.01-.018.032-.02.05zM20.11 9.08c.089.244.166.492.23.743-.017.823-1.06 1.24-1.142 1.574v.084c.146 0 .285.111.384.46.305 1.083.17 1.487-.203 1.487-.302 0-.448-.515-.657-1.043a.96.96 0 0 1-.247-.282c-.307-.508-.714-1.831-1.222-1.933-.247-.047-.277.285-.344.662a.968.968 0 0 0 .107.644.785.785 0 0 0-.285.317c-.067.176-.332 0-.496 0-.394.19-.743-.097-.827-.567-.27-.421-.436-.92-.788-.744.305.407.409 1.735.713 2.034.915 0 1.016-.71.818.51-.04.26-.11.515-.208.759-.035.43-.124.636-.248.765s-.535.444-.58.51c.07.248-.153.34-.247.427a.288.288 0 0 0-.013.096.744.744 0 0 0 .397.141c.512-.042 1.266-.29.688.352a9.352 9.352 0 0 1-.56.496.111.111 0 0 1 .015.094c-.054.111-.148.33-.193.413.035.162-.022.147-.163.085-.176.086-.154-.035-.233-.186a1.092 1.092 0 0 1-.06-.124.342.342 0 0 1-.04-.114 1.859 1.859 0 0 1-.034-.163.365.365 0 0 0-.203-.303c-.496-.203-.248.714-.971 1.526-1.222.917-1.425.102-2.037-.713-.611-.815.374-.991.14-2.463-.509-.304-.952-1.298-.952-1.298h-.312c-.09 0-.067.085-.22.072-.154-.012-.479-.067-.677-.067-.198 0-.233.072-.386 0a.918.918 0 0 0-.407.085.317.317 0 0 1-.44-.085s-.917-1.323-.712-2.23c.206-.906.61-1.119 1.422-1.832-.134-.508-.61-.169-.54-.813.169-1.152 1.05-.305 1.219-1.016a.22.22 0 0 0-.186-.302c-.22-.025-.483.223-.713.173-.23-.05-.426-.106-.21-.361a.863.863 0 0 1 .09-.12c.135-.145.249-.279.372-.395.067-.067.127-.122.171-.159.085-.265.216-.51.53-.411.315.099.075.295.11.495.175 1.15.495.93.649.743-.07-.339.948-.168.507-.371a.304.304 0 0 1-.114-.097c-.084-.07-.14-.141-.126-.228.015-.086-.027-.166.027-.247a.33.33 0 0 1 .04-.226c.012-.037.025-.077.04-.114 0-.099.084-.322.148-.352a.196.196 0 0 1 .055-.012c.142-.185.331-.328.547-.416a.175.175 0 0 0 0-.06c0-.05.248-.047.248-.047l.03.023c.14-.03.281-.051.423-.065.107-.027.209-.07.303-.129 0 0 .262 0 .272.124h.129c.072 0 .129-.052.218-.067.131-.024.18.124.337.268a.376.376 0 0 1 .153.409c.407 0 1.457-.744 1.457-.744s1.45.41 1.273.815a2.254 2.254 0 0 0-1.694 0c-.203.077.438.305 1.187.305 1.882.035 3.56 1.97 4.24 3.208z" fill="#DC2E36"/>
</svg>
