<svg width="210" height="48" viewBox="0 0 210 48" fill="none" xmlns="http://www.w3.org/2000/svg">
    <path d="m28.005 38.516-.481 2.248h1.715v1.299H27.25l-.52 2.403h-1.416l.52-2.403h-2.547l-.52 2.403h-1.415l.52-2.403h-2.014v-1.3h2.286l.48-2.247h-2v-1.3H22.9l.506-2.364h1.416l-.506 2.365h2.546l.507-2.365h1.416l-.507 2.365h1.728v1.3h-2zm-1.417 0h-2.546l-.48 2.248h2.546l.48-2.248zM33.241 43.271h3.053v1.195H31.76v-9.029h1.481v7.834zM44.094 40.712c0 .268-.018.51-.052.727h-5.47c.043.572.256 1.03.637 1.377.38.347.848.52 1.403.52.797 0 1.36-.333 1.689-1h1.598c-.217.658-.61 1.2-1.183 1.624-.563.415-1.264.623-2.104.623-.684 0-1.3-.151-1.845-.454a3.398 3.398 0 0 1-1.273-1.3c-.303-.563-.455-1.212-.455-1.948 0-.737.147-1.382.442-1.936a3.196 3.196 0 0 1 1.26-1.3c.546-.303 1.17-.454 1.87-.454.676 0 1.278.147 1.807.442.528.294.94.71 1.234 1.247.294.528.442 1.139.442 1.832zm-1.546-.468c-.01-.546-.204-.983-.585-1.312-.381-.33-.853-.494-1.416-.494-.511 0-.949.165-1.312.494-.364.32-.58.758-.65 1.312h3.963zM49.163 37.19c.563 0 1.065.118 1.507.352.45.233.801.58 1.052 1.039.251.46.377 1.013.377 1.663v4.222H50.63v-4.001c0-.641-.16-1.13-.48-1.468-.321-.347-.759-.52-1.313-.52-.554 0-.996.173-1.325.52-.32.338-.48.827-.48 1.468v4.001H45.55v-7.158h1.481v.818a2.46 2.46 0 0 1 .923-.688 3.015 3.015 0 0 1 1.208-.247zM56.872 37.19c.555 0 1.044.114 1.468.339.433.216.771.49 1.014.818v-1.04h1.494v7.276c0 .659-.139 1.243-.416 1.754-.277.52-.68.927-1.208 1.221-.52.295-1.143.442-1.871.442-.97 0-1.776-.23-2.416-.688a2.496 2.496 0 0 1-1.092-1.845h1.468c.113.372.351.67.715.896.372.234.814.35 1.325.35.598 0 1.078-.181 1.442-.545.372-.364.559-.892.559-1.585v-1.195a3.068 3.068 0 0 1-1.027.858c-.424.225-.909.337-1.455.337a3.27 3.27 0 0 1-1.715-.468 3.47 3.47 0 0 1-1.22-1.325c-.295-.571-.443-1.216-.443-1.935 0-.72.148-1.356.442-1.91a3.3 3.3 0 0 1 2.936-1.754zm2.482 3.69c0-.493-.104-.922-.312-1.286-.2-.363-.463-.64-.793-.831a2.09 2.09 0 0 0-1.065-.286 2.09 2.09 0 0 0-1.065.286c-.33.182-.598.455-.806.818-.199.355-.299.78-.299 1.274 0 .493.1.926.3 1.299.207.372.476.658.805.857a2.137 2.137 0 0 0 2.13 0c.33-.19.594-.468.793-.831.208-.373.312-.806.312-1.3zM65.625 40.894l3.3 3.572h-2l-2.65-3.079v3.08h-1.482v-9.615h1.481v5.587l2.599-3.131h2.052l-3.3 3.586zM69.493 40.855c0-.72.147-1.356.442-1.91a3.3 3.3 0 0 1 2.936-1.754c.563 0 1.052.112 1.468.338.424.216.762.49 1.013.818v-1.04h1.494v7.16h-1.494V43.4c-.25.338-.593.62-1.026.844-.433.226-.927.338-1.481.338a3.18 3.18 0 0 1-1.689-.468 3.47 3.47 0 0 1-1.221-1.325c-.295-.571-.442-1.216-.442-1.935zm5.86.026c0-.494-.104-.923-.312-1.287-.2-.363-.464-.64-.793-.831a2.09 2.09 0 0 0-1.065-.286c-.381 0-.736.095-1.066.286-.329.182-.597.455-.805.818-.2.355-.299.78-.299 1.274 0 .493.1.926.299 1.299.208.372.476.658.805.857a2.137 2.137 0 0 0 2.131 0c.33-.19.593-.468.793-.831.208-.373.311-.806.311-1.3zM80.273 38.36c.251-.329.593-.606 1.026-.831a3.134 3.134 0 0 1 1.468-.338c.624 0 1.191.156 1.702.468.52.303.927.732 1.221 1.286.295.554.442 1.19.442 1.91 0 .719-.147 1.364-.442 1.935a3.342 3.342 0 0 1-1.22 1.325 3.204 3.204 0 0 1-1.703.468c-.545 0-1.03-.108-1.455-.325a3.337 3.337 0 0 1-1.04-.831v4.443h-1.48V37.308h1.48v1.052zm4.352 2.495c0-.494-.104-.918-.312-1.274a1.984 1.984 0 0 0-.805-.818 2.138 2.138 0 0 0-2.13 0 2.19 2.19 0 0 0-.806.831c-.2.364-.3.793-.3 1.287 0 .493.1.926.3 1.299.207.364.476.64.805.831a2.137 2.137 0 0 0 2.13 0c.338-.199.607-.485.806-.857.208-.373.312-.806.312-1.3zM87.103 39.932c0-.883.204-1.676.61-2.377a4.407 4.407 0 0 1 1.677-1.637 4.673 4.673 0 0 1 2.325-.598c.962 0 1.815.238 2.56.715.753.467 1.299 1.134 1.636 2h-1.78c-.233-.476-.558-.831-.974-1.065-.415-.234-.896-.35-1.442-.35-.597 0-1.13.134-1.598.402a2.845 2.845 0 0 0-1.104 1.156c-.26.503-.39 1.087-.39 1.754s.13 1.252.39 1.754c.268.502.636.892 1.104 1.17.468.268 1 .402 1.598.402.546 0 1.026-.117 1.442-.35.416-.235.74-.59.975-1.066h1.78c-.338.866-.884 1.533-1.638 2-.744.468-1.597.702-2.559.702a4.707 4.707 0 0 1-2.325-.584 4.505 4.505 0 0 1-1.676-1.65c-.407-.702-.611-1.494-.611-2.378zM104.206 40.712c0 .268-.017.51-.052.727h-5.47c.044.572.256 1.03.637 1.377s.849.52 1.403.52c.797 0 1.36-.333 1.689-1h1.598a3.252 3.252 0 0 1-1.182 1.624c-.563.415-1.265.623-2.105.623-.684 0-1.3-.151-1.845-.454a3.398 3.398 0 0 1-1.273-1.3c-.303-.563-.455-1.212-.455-1.948 0-.737.148-1.382.442-1.936a3.196 3.196 0 0 1 1.26-1.3c.546-.303 1.17-.454 1.871-.454.676 0 1.278.147 1.806.442.528.294.94.71 1.234 1.247.295.528.442 1.139.442 1.832zm-1.546-.468c-.009-.546-.204-.983-.585-1.312-.381-.33-.853-.494-1.416-.494-.511 0-.948.165-1.312.494-.364.32-.58.758-.65 1.312h3.963zM107.144 38.36c.252-.329.594-.606 1.027-.831a3.133 3.133 0 0 1 1.468-.338c.623 0 1.191.156 1.702.468.519.303.927.732 1.221 1.286.295.554.442 1.19.442 1.91 0 .719-.147 1.364-.442 1.935a3.342 3.342 0 0 1-1.221 1.325 3.205 3.205 0 0 1-1.702.468c-.546 0-1.031-.108-1.455-.325a3.338 3.338 0 0 1-1.04-.831v4.443h-1.481V37.308h1.481v1.052zm4.353 2.495c0-.494-.104-.918-.312-1.274a1.982 1.982 0 0 0-.806-.818 2.09 2.09 0 0 0-1.065-.286c-.372 0-.727.095-1.065.286-.329.19-.598.468-.806.831-.199.364-.299.793-.299 1.287 0 .493.1.926.299 1.299.208.364.477.64.806.831.338.19.693.286 1.065.286.381 0 .736-.095 1.065-.286.338-.199.607-.485.806-.857.208-.373.312-.806.312-1.3zM113.975 40.855c0-.72.147-1.356.441-1.91a3.308 3.308 0 0 1 2.937-1.754c.563 0 1.052.112 1.468.338.424.216.762.49 1.013.818v-1.04h1.494v7.16h-1.494V43.4c-.251.338-.593.62-1.026.844-.433.226-.927.338-1.481.338a3.18 3.18 0 0 1-1.689-.468 3.479 3.479 0 0 1-1.222-1.325c-.294-.571-.441-1.216-.441-1.935zm5.859.026c0-.494-.104-.923-.312-1.287a2.097 2.097 0 0 0-.792-.831 2.093 2.093 0 0 0-1.066-.286 2.09 2.09 0 0 0-1.065.286 2.086 2.086 0 0 0-.805.818c-.2.355-.299.78-.299 1.274 0 .493.099.926.299 1.299.207.372.476.658.805.857a2.137 2.137 0 0 0 2.131 0c.329-.19.593-.468.792-.831.208-.373.312-.806.312-1.3zM125.001 38.516v3.963c0 .268.061.463.182.584.13.113.347.17.65.17h.909v1.233h-1.169c-.667 0-1.178-.156-1.533-.467-.355-.312-.533-.819-.533-1.52v-3.963h-.844v-1.208h.844v-1.78h1.494v1.78h1.741v1.208h-1.741zM132.94 39.828c.485.087.897.342 1.234.767.338.424.507.905.507 1.442 0 .459-.121.875-.364 1.247-.234.364-.576.654-1.026.87-.45.208-.974.312-1.572.312h-3.612v-9.029h3.443c.615 0 1.143.104 1.585.312.442.208.775.49 1 .844.226.347.338.736.338 1.17 0 .52-.138.952-.416 1.299-.277.346-.649.602-1.117.766zm-3.352-.597h1.832c.485 0 .862-.109 1.13-.325.278-.225.416-.546.416-.962 0-.407-.138-.723-.416-.948-.268-.234-.645-.35-1.13-.35h-1.832v2.585zm2.001 4.027c.502 0 .896-.121 1.182-.364.286-.242.429-.58.429-1.013 0-.442-.152-.792-.455-1.052-.303-.26-.706-.39-1.208-.39h-1.949v2.82h2.001zM142.851 40.712c0 .268-.017.51-.052.727h-5.469c.043.572.255 1.03.636 1.377.382.347.849.52 1.404.52.796 0 1.359-.333 1.688-1h1.598a3.24 3.24 0 0 1-1.182 1.624c-.563.415-1.264.623-2.104.623-.685 0-1.3-.151-1.845-.454a3.392 3.392 0 0 1-1.273-1.3c-.304-.563-.455-1.212-.455-1.948 0-.737.147-1.382.442-1.936a3.195 3.195 0 0 1 1.26-1.3c.545-.303 1.169-.454 1.871-.454.675 0 1.277.147 1.805.442.529.294.94.71 1.235 1.247.294.528.441 1.139.441 1.832zm-1.546-.468c-.008-.546-.203-.983-.584-1.312-.381-.33-.853-.494-1.416-.494a1.89 1.89 0 0 0-1.313.494c-.363.32-.58.758-.649 1.312h3.962zM145.79 38.347c.216-.364.502-.645.857-.844.364-.208.793-.312 1.287-.312v1.533h-.377c-.581 0-1.022.147-1.325.442-.295.294-.442.805-.442 1.533v3.767h-1.481v-7.158h1.481v1.04zM150.048 36.36a.917.917 0 0 1-.675-.273.917.917 0 0 1-.273-.676c0-.269.091-.494.273-.675a.917.917 0 0 1 .675-.273c.26 0 .481.09.663.273a.917.917 0 0 1 .273.675.917.917 0 0 1-.273.676.903.903 0 0 1-.663.272zm.728.948v7.158h-1.481v-7.158h1.481zM154.448 38.516v3.963c0 .268.061.463.182.584.13.113.347.17.65.17h.909v1.233h-1.169c-.667 0-1.178-.156-1.533-.467-.355-.312-.533-.819-.533-1.52v-3.963h-.844v-1.208h.844v-1.78h1.494v1.78h1.741v1.208h-1.741zM157.061 40.855c0-.72.147-1.356.441-1.91a3.308 3.308 0 0 1 2.937-1.754c.563 0 1.052.112 1.468.338.424.216.762.49 1.013.818v-1.04h1.494v7.16h-1.494V43.4c-.251.338-.593.62-1.026.844-.433.226-.927.338-1.481.338a3.18 3.18 0 0 1-1.689-.468 3.479 3.479 0 0 1-1.222-1.325c-.294-.571-.441-1.216-.441-1.935zm5.859.026c0-.494-.104-.923-.312-1.287a2.097 2.097 0 0 0-.792-.831 2.093 2.093 0 0 0-1.066-.286 2.09 2.09 0 0 0-1.065.286 2.086 2.086 0 0 0-.805.818c-.2.355-.299.78-.299 1.274 0 .493.099.926.299 1.299.207.372.476.658.805.857a2.137 2.137 0 0 0 2.131 0c.329-.19.593-.468.792-.831.208-.373.312-.806.312-1.3zM169.971 37.19c.563 0 1.065.118 1.507.352.45.233.801.58 1.052 1.039.252.46.377 1.013.377 1.663v4.222h-1.468v-4.001c0-.641-.16-1.13-.481-1.468-.32-.347-.757-.52-1.312-.52-.554 0-.996.173-1.325.52-.32.338-.481.827-.481 1.468v4.001h-1.481v-7.158h1.481v.818c.243-.294.55-.524.923-.688a3.015 3.015 0 0 1 1.208-.247zM181.24 37.308l-4.391 10.523h-1.533l1.455-3.482-2.819-7.041h1.65l2.014 5.456 2.091-5.456h1.533zM181.864 40.855c0-.72.148-1.356.442-1.91a3.298 3.298 0 0 1 2.936-1.754c.563 0 1.052.112 1.468.338.425.216.762.49 1.014.818v-1.04h1.494v7.16h-1.494V43.4c-.252.338-.594.62-1.027.844-.433.226-.927.338-1.481.338a3.18 3.18 0 0 1-1.689-.468 3.469 3.469 0 0 1-1.221-1.325c-.294-.571-.442-1.216-.442-1.935zm5.86.026c0-.494-.104-.923-.312-1.287a2.1 2.1 0 0 0-.793-.831 2.09 2.09 0 0 0-1.065-.286 2.09 2.09 0 0 0-1.065.286 2.095 2.095 0 0 0-.806.818c-.199.355-.299.78-.299 1.274 0 .493.1.926.299 1.299.208.372.477.658.806.857a2.134 2.134 0 0 0 2.13 0c.329-.19.594-.468.793-.831.208-.373.312-.806.312-1.3z" fill="#151515"/>
    <path d="M25.028 3.757c-1.195-1.196-2.562-2.05-4.098-2.732C19.393.342 17.685 0 15.892 0c-1.195 0-2.39.17-3.5.427-1.025.341-2.05.768-2.989 1.366-.939.512-1.793 1.195-2.561 1.964-.768.768-1.451 1.622-1.964 2.561a9.773 9.773 0 0 0-1.28 3.074C3.17 10.587 3 11.697 3 12.978c0 1.28.17 2.39.427 3.5.341 1.11.768 2.135 1.28 3.074.598.939 1.196 1.793 1.964 2.561.769.769 1.622 1.452 2.562 1.964a9.774 9.774 0 0 0 3.073 1.28c1.11.342 2.22.427 3.5.427 1.196 0 2.306-.17 3.416-.426a16.588 16.588 0 0 0 3.074-1.281c.939-.598 1.793-1.195 2.561-1.964.768-.768 1.451-1.622 1.964-2.561a9.771 9.771 0 0 0 1.28-3.074c.342-1.11.427-2.22.427-3.5 0-1.793-.341-3.5-1.024-5.038-.427-1.622-1.28-2.988-2.476-4.183zm-4.013 11.611a5.582 5.582 0 0 1-1.11 1.964c-.512.512-1.024 1.024-1.708 1.28-.683.342-1.451.513-2.305.513-.854 0-1.707-.17-2.39-.512a6.835 6.835 0 0 1-1.793-1.281c-.513-.512-.854-1.195-1.11-1.964-.256-.768-.427-1.537-.427-2.39 0-.854.17-1.623.427-2.391a6.214 6.214 0 0 1 1.11-1.964c.512-.597 1.11-1.024 1.793-1.366.683-.427 1.451-.597 2.39-.597.854 0 1.622.17 2.305.512.684.341 1.281.768 1.708 1.366.512.598.854 1.28 1.11 1.964.256.768.341 1.536.341 2.39.086.94-.085 1.708-.341 2.476zM54.654 23.565l-10.16-11.612 8.367-10.33c.17-.172.256-.342.256-.428.086-.085.086-.17.086-.341 0-.598-.342-.854-1.11-.854H46.03c-.512 0-.854.17-1.195.598l-7.258 9.648V1.28c0-.171 0-.256-.085-.427-.085-.171-.085-.256-.17-.427-.086-.17-.257-.256-.428-.342C36.725 0 36.554 0 36.298 0h-4.696c-.342 0-.683 0-.854.085-.17.086-.341.171-.427.342-.085.17-.17.256-.17.512v23.223s0 .086.085.256c.085.171.085.256.256.427.085.171.256.256.427.427.17.086.341.17.598.17h4.78c.257 0 .513-.084.684-.17a1.03 1.03 0 0 0 .427-.427c.085-.17.17-.341.17-.512 0-.17.086-.341.086-.427v-4.952l2.22-2.22 6.403 7.684c.256.342.427.598.683.769.17.17.427.256.598.256h6.66c.34 0 .597-.085.768-.17.17-.086.256-.342.256-.599 0-.17 0-.341-.086-.512-.256-.256-.341-.427-.512-.597z" fill="#1D4595"/>
    <path d="M76.511 5.977a10.473 10.473 0 0 0-1.963-2.391c-.683-.768-1.537-1.366-2.391-1.878-.94-.513-1.878-.94-2.903-1.196C68.23.256 67.205.085 66.095.085c-1.195 0-2.305.171-3.415.513a15.75 15.75 0 0 0-2.988 1.28c-.94.598-1.708 1.281-2.476 2.05-.769.768-1.366 1.622-1.879 2.56-.512.94-.939 1.965-1.195 3.075-.256 1.11-.427 2.22-.427 3.33 0 1.878.342 3.585 1.025 5.122a12.4 12.4 0 0 0 2.902 4.098c1.196 1.195 2.647 2.05 4.184 2.732a13.067 13.067 0 0 0 5.123 1.025c1.622 0 3.159-.256 4.61-.854 1.452-.598 2.732-1.451 3.928-2.476l.512-.512c.17-.17.256-.427.256-.683 0-.171 0-.256-.085-.427 0-.17-.171-.256-.256-.427l-2.05-2.39c-.256-.257-.426-.427-.597-.513-.17-.085-.342-.17-.512-.17-.171 0-.342 0-.513.085-.17.085-.341.256-.512.341-.256.256-.512.427-.94.683-.426.256-.853.427-1.28.598-.427.17-.939.256-1.451.427-.513.085-1.025.17-1.452.17a6.38 6.38 0 0 1-1.707-.256c-.598-.17-1.11-.341-1.708-.683-.512-.341-1.024-.768-1.366-1.366-.427-.597-.683-1.28-.768-2.134H75.23c.853 0 1.451-.085 1.878-.17.427-.086.768-.257.94-.513.17-.256.255-.598.34-1.025v-1.707c0-1.025-.17-2.05-.426-3.074-.513-1.024-.94-1.964-1.452-2.817zm-15.368 3.67c.17-.426.512-.853.854-1.28.341-.427.683-.854 1.11-1.195a7.375 7.375 0 0 1 1.366-.854c.512-.17.939-.341 1.451-.341.683 0 1.366.085 1.879.256.512.17 1.024.427 1.451.768.427.342.768.683 1.11 1.11.341.427.598.94.854 1.452H61.143v.085z" fill="#1D4595"/>
    <path d="M97.429 19.04h-9.733L98.539 6.233c.085-.171.17-.342.17-.512V1.878c0-.512-.17-.853-.511-1.11-.342-.256-.684-.341-1.11-.341H80.609c-.512 0-.853.17-1.11.427-.256.256-.426.683-.426 1.11v3.159c0 .598.17.939.427 1.195.256.256.683.427 1.11.427h9.562c-.854 1.025-1.793 2.05-2.732 3.16-.94 1.109-1.964 2.304-2.903 3.414-1.025 1.195-1.964 2.305-2.903 3.415-.94 1.11-1.878 2.22-2.732 3.16-.17.17-.256.34-.256.512 0 .17-.086.341-.086.512v2.732c0 .17 0 .427.086.598.085.17.17.341.341.512.171.17.342.256.513.341.17.086.426.171.597.171H97.43c.256 0 .427-.085.598-.17.17-.086.341-.257.512-.427.17-.171.256-.342.341-.513.086-.17.086-.427.086-.597V20.49c0-.512-.17-.94-.427-1.195-.256-.171-.598-.256-1.11-.256zM146.351 3.244c-.854-1.024-1.878-1.793-3.073-2.39C142.082.256 140.716 0 139.179 0c-1.024 0-1.963.17-2.732.427-.768.341-1.451.683-2.049 1.11-.597.427-1.024.939-1.451 1.451-.342.513-.683.94-.854 1.366l-.598-2.476c-.085-.17-.17-.341-.17-.597l-.257-.513c-.085-.17-.256-.256-.426-.341-.171-.085-.342-.085-.598-.085h-2.988c-.171 0-.342 0-.513.085-.17 0-.341.17-.512.256l.085-.085a.875.875 0 0 0-.426.512 1.6 1.6 0 0 0-.171.683v22.113c0 .427.085.854.341 1.11.256.256.683.427 1.196.427h4.439c.171 0 .342 0 .513-.085.17 0 .341-.086.512-.257.171-.085.256-.256.341-.512.086-.256.086-.427.086-.683V11.1c0-.597.171-1.11.512-1.622.256-.512.598-.94 1.025-1.28.426-.342.853-.684 1.366-.854.512-.171.939-.342 1.451-.342.512 0 1.11.085 1.622.342.513.256 1.025.512 1.452.939.427.427.768.854 1.024 1.366.256.512.342 1.024.342 1.622v12.807c0 .512.085.939.341 1.11.171.17.598.256 1.196.256h4.525c.512 0 .853-.085 1.024-.342.256-.256.342-.597.342-1.11V11.014c0-1.537-.256-2.903-.683-4.27-.598-1.28-1.281-2.475-2.135-3.5zM174.356 8.794c-.257-1.024-.683-1.878-1.281-2.817a10.451 10.451 0 0 0-1.964-2.391c-.768-.768-1.537-1.366-2.476-1.878-.939-.513-1.878-.94-2.903-1.196-1.024-.256-2.049-.427-3.159-.427-1.195 0-2.305.171-3.415.513a15.74 15.74 0 0 0-2.988 1.28c-.939.598-1.708 1.281-2.476 2.05-.769.768-1.366 1.622-1.878 2.56-.513.94-.94 1.965-1.196 3.075s-.427 2.22-.427 3.33c0 1.878.342 3.585 1.025 5.122a12.394 12.394 0 0 0 2.903 4.098c1.195 1.195 2.647 2.05 4.183 2.732a13.07 13.07 0 0 0 5.123 1.025c1.622 0 3.159-.256 4.611-.854 1.451-.598 2.732-1.451 3.927-2.476l.512-.512c.171-.17.256-.427.256-.683 0-.171 0-.256-.085-.427 0-.17-.171-.256-.256-.427l-2.049-2.39c-.256-.257-.427-.427-.598-.513-.171-.085-.341-.17-.512-.17-.171 0-.342 0-.512.085-.171.085-.342.256-.513.341-.256.256-.512.427-.939.683-.427.256-.854.427-1.281.598-.426.17-.939.256-1.451.427-.512.085-1.025.17-1.451.17a6.38 6.38 0 0 1-1.708-.256c-.598-.17-1.11-.341-1.708-.683-.512-.341-1.024-.768-1.366-1.366-.427-.597-.683-1.28-.768-2.134h14.173c.854 0 1.451-.085 1.878-.17.427-.086.769-.257.939-.513.171-.256.256-.598.342-1.025v-1.707c-.086-1.11-.171-2.135-.512-3.074zm-16.564.854c.171-.427.512-.854.854-1.28.341-.428.683-.855 1.11-1.196a7.385 7.385 0 0 1 1.366-.854c.512-.17.939-.341 1.451-.341.683 0 1.366.085 1.879.256.512.17 1.024.427 1.451.768a6.8 6.8 0 0 1 1.11 1.11c.342.427.598.94.854 1.452h-10.075v.085z" fill="#CC2027"/>
    <path d="M121.421 5.037c2.561-2.049 2.476-4.952 2.476-4.952H111.26c-1.195 0-2.39.171-3.5.427-1.11.342-2.135.769-3.074 1.281-.939.512-1.793 1.195-2.561 1.964-.769.768-1.452 1.622-1.964 2.561a9.776 9.776 0 0 0-1.28 3.074c-.342 1.11-.427 2.305-.427 3.5 0 1.196.17 2.39.427 3.5.341 1.11.768 2.135 1.28 3.075.598.939 1.195 1.792 1.964 2.56.768.77 1.622 1.452 2.561 1.965a9.773 9.773 0 0 0 3.074 1.28c1.11.342 2.22.427 3.5.427 1.196 0 2.306-.17 3.416-.427a16.576 16.576 0 0 0 3.073-1.28c.939-.598 1.793-1.196 2.562-1.964.768-.769 1.451-1.622 1.963-2.561a9.763 9.763 0 0 0 1.281-3.074c.342-1.11.427-2.22.427-3.5 0-1.794-.342-3.501-1.025-5.038-.256-1.025-.853-1.964-1.536-2.818zm-5.038 10.331a5.569 5.569 0 0 1-1.11 1.964c-.512.512-1.024 1.024-1.707 1.28-.683.342-1.452.513-2.306.513-.853 0-1.707-.17-2.39-.512a6.832 6.832 0 0 1-1.793-1.281c-.512-.512-.854-1.195-1.11-1.964-.256-.768-.427-1.537-.427-2.39 0-.854.171-1.623.427-2.39a6.208 6.208 0 0 1 1.11-1.965c.512-.597 1.11-1.024 1.793-1.366.683-.341 1.451-.512 2.39-.512.854 0 1.623.17 2.306.512.683.342 1.28.769 1.707 1.366.513.598.854 1.281 1.11 1.964.256.768.342 1.537.342 2.39 0 .854-.086 1.623-.342 2.391zM206.287 1.195C205.348.427 204.238 0 203.128 0h-19.125c-1.451 0-2.561.427-3.244 1.195-.769.769-1.11 1.879-1.11 3.16v16.819c0 3.074 1.451 4.525 4.354 4.525h19.125c1.537 0 2.647-.427 3.415-1.366.769-.94 1.11-1.964 1.11-3.159V4.354a3.665 3.665 0 0 0-1.366-3.159zM188.87 15.368s-.086.086-.171.086c-.256.17-.512.341-.768.426a3.07 3.07 0 0 1-.939.171c-.257 0-.513 0-.769-.085s-.512-.17-.683-.256a2.595 2.595 0 0 1-.598-.427c-.17-.17-.341-.342-.426-.598-.086-.17-.257-.427-.257-.683-.085-.256-.085-.512-.085-.768s0-.512.085-.769c.086-.256.171-.512.257-.683a2.6 2.6 0 0 1 .426-.597c.171-.171.342-.342.598-.427.171-.086.427-.256.683-.256.256-.086.512-.086.769-.086.341 0 .597 0 .853.086.256.085.513.17.769.341.085 0 .085.085.17.17 0 .086.086.086.086.172 0 .085 0 .085-.086.17l-.426.683c-.086.171-.171.257-.257.257h-.085s-.085 0-.085-.086c-.171-.085-.256-.17-.427-.17-.171-.086-.342-.086-.512-.086-.171 0-.342 0-.513.085-.171.086-.256.171-.427.342-.085.17-.17.256-.256.427-.085.17-.085.341-.085.512 0 .17 0 .342.085.512.086.171.171.342.256.427.086.086.256.256.427.256.171.086.342.086.513.086.17 0 .341 0 .426-.086.171-.085.257-.17.427-.256l.086-.085h.256s.085.085.085.17l.512.77v.17c.171 0 .086.085.086.085zm5.72-1.366a5.885 5.885 0 0 1-.256.683c-.085.17-.256.427-.427.598-.171.17-.341.341-.597.427-.171.085-.427.256-.683.256-.257.085-.513.085-.769.085s-.512 0-.768-.085-.513-.17-.683-.256a2.595 2.595 0 0 1-.598-.427c-.171-.17-.341-.342-.427-.598-.085-.17-.256-.427-.256-.683-.085-.256-.085-.512-.085-.768s0-.512.085-.769a5.89 5.89 0 0 1 .256-.683c.086-.17.256-.427.427-.597.171-.171.342-.342.598-.427.17-.086.427-.256.683-.256.256-.086.512-.086.768-.086.427 0 .769.086 1.11.256.342.171.683.342.939.598.256.256.427.598.598.94.171.34.256.768.256 1.11-.085.17-.085.426-.171.682zm8.794 1.622c0 .086 0 .171-.085.256-.085.086-.085.086-.256.086h-1.025c-.085 0-.171 0-.256-.085-.085 0-.085-.086-.085-.257v-2.817c0-.085 0-.256-.086-.342 0-.085-.085-.17-.17-.256-.086-.085-.171-.17-.257-.17-.085-.086-.17-.086-.341-.086-.085 0-.256 0-.342.085-.085.086-.17.086-.256.171-.085.086-.171.17-.171.256-.085.086-.085.257-.085.342v2.903c0 .085 0 .17-.085.256-.086.085-.086.085-.256.085h-1.025c-.085 0-.171 0-.256-.085-.085 0-.085-.085-.085-.256v-2.903c0-.085 0-.256-.086-.342 0-.085-.085-.17-.171-.256-.085-.085-.17-.17-.256-.17-.085-.086-.17-.086-.341-.086-.086 0-.171 0-.342.085-.085 0-.171.086-.256.171-.085.086-.171.17-.171.256-.085.086-.085.257-.085.342v3.073c0 .086-.085.086-.085.086s-.086 0-.086.085H195.273c-.085 0-.256 0-.256-.085-.085-.085-.085-.17-.085-.256v-5.037c0-.086.085-.086.085-.086l.086-.085H196.042l.085.085.085.085s0 .086.086.086l.171.597c.085-.085.085-.17.17-.341.086-.085.171-.256.256-.342.086-.085.257-.17.427-.256.171-.085.342-.085.598-.085.342 0 .683.085.939.256.256.17.512.341.683.598l.256-.257c.086-.085.171-.17.342-.256.171-.085.256-.17.427-.256.171-.085.341-.085.597-.085.342 0 .598.085.854.17.256.086.512.342.683.513.171.256.342.512.427.768.086.256.171.598.171.94v2.902h.085zm-10.672-3.415c-.085-.17-.256-.256-.427-.341-.171-.086-.341-.086-.512-.086-.171 0-.342 0-.513.086-.17.085-.256.17-.426.341-.086.17-.171.256-.257.427-.085.17-.085.342-.085.512 0 .171 0 .342.085.513.086.17.171.341.257.427.085.085.256.256.426.256.171.085.342.085.513.085.171 0 .341 0 .512-.085.171-.086.256-.171.427-.256.085-.086.171-.257.256-.427.085-.171.085-.342.085-.513 0-.17 0-.341-.085-.512-.085-.17-.171-.256-.256-.427z" fill="#CC2027"/>
</svg>
