<svg width="24" height="24" viewBox="0 0 24 24" fill="none" xmlns="http://www.w3.org/2000/svg">
    <rect x="3.818" y="14.453" width="15.544" height="6.545" rx="2" fill="#808184"/>
    <path d="M9.229 16.498a.882.882 0 0 0-.822.556.91.91 0 0 0 .192.98.886.886 0 0 0 .97.196.907.907 0 0 0 .289-1.468.885.885 0 0 0-.63-.264zm-2.67 0a.882.882 0 0 0-.822.556.91.91 0 0 0 .193.98.886.886 0 0 0 .97.196.907.907 0 0 0 .289-1.468.885.885 0 0 0-.63-.264zm5.339 0a.883.883 0 0 0-.822.556.91.91 0 0 0 .193.98.886.886 0 0 0 1.519-.636.906.906 0 0 0-.26-.636.885.885 0 0 0-.63-.264zm2.758-7.65a.895.895 0 0 1 .77-.45.882.882 0 0 1 .77.45.88.88 0 0 0 1.21.333.89.89 0 0 0 .439-.54.908.908 0 0 0-.074-.694 2.684 2.684 0 0 0-.978-.99 2.646 2.646 0 0 0-2.672 0c-.406.237-.743.579-.977.99a.91.91 0 0 0 .38 1.097.881.881 0 0 0 1.132-.197zm6.229-2.701a6.265 6.265 0 0 0-2.28-2.304 6.174 6.174 0 0 0-6.225 0 6.265 6.265 0 0 0-2.28 2.304.908.908 0 0 0 .33 1.233c.122.07.26.11.4.117a.882.882 0 0 0 .774-.45A4.475 4.475 0 0 1 13.233 5.4a4.41 4.41 0 0 1 4.449 0 4.475 4.475 0 0 1 1.628 1.647.896.896 0 0 0 .541.423.88.88 0 0 0 .678-.09.892.892 0 0 0 .434-.541.908.908 0 0 0-.078-.692zm-3.648 7.65h-.89v-2.7a.905.905 0 0 0-.26-.636.884.884 0 0 0-1.259 0 .905.905 0 0 0-.26.636v2.7H5.668c-.708 0-1.387.285-1.887.792A2.716 2.716 0 0 0 3 16.498v1.8c0 .716.281 1.403.782 1.91.5.506 1.18.79 1.887.79h11.568c.708 0 1.387-.284 1.887-.79.5-.507.782-1.194.782-1.91v-1.8c0-.716-.281-1.403-.782-1.91-.5-.506-1.18-.79-1.887-.79zm.89 4.501a.905.905 0 0 1-.261.637.884.884 0 0 1-.63.263H5.67a.885.885 0 0 1-.629-.263.905.905 0 0 1-.26-.637v-1.8c0-.239.093-.468.26-.637a.885.885 0 0 1 .63-.263h11.567c.236 0 .462.095.629.263.167.17.26.398.26.637v1.8z" fill="#252E4A"/>
    <rect x="3" y="13.637" width="17.18" height="7.363" rx="3" fill="#252E4A"/>
    <circle cx="6.828" cy="17.646" r="1.25" fill="#B9B9B9"/>
    <circle cx="10.328" cy="17.646" r="1.25" fill="#B9B9B9"/>
    <circle cx="13.828" cy="17.646" r="1.25" fill="#B9B9B9"/>
</svg>
