<svg width="24" height="24" viewBox="0 0 24 24" fill="none" xmlns="http://www.w3.org/2000/svg">
    <g filter="url(#a)" fill-rule="evenodd" clip-rule="evenodd">
        <path d="M9.475 5h-.057C8.251 5 7.336 5 6.6 5.06c-.75.061-1.368.188-1.928.473a4.894 4.894 0 0 0-2.139 2.139c-.285.56-.412 1.179-.473 1.928C2 10.336 2 11.25 2 12.418v.057c0 1.168 0 2.083.06 2.819.061.749.188 1.367.473 1.928.47.92 1.218 1.67 2.139 2.138.56.286 1.179.412 1.928.474.736.06 1.65.06 2.818.06h.057c1.168 0 2.083 0 2.819-.06.749-.062 1.367-.188 1.928-.474a4.893 4.893 0 0 0 2.138-2.138c.043-.084.082-.169.118-.255.993.434 1.806.786 2.466.965.702.19 1.386.23 1.997-.17.611-.4.85-1.043.956-1.763.103-.696.103-1.615.103-2.744v-1.617c0-1.128 0-2.047-.103-2.744-.107-.72-.345-1.362-.956-1.762-.611-.4-1.295-.36-1.997-.17-.66.179-1.473.531-2.466.965a3.552 3.552 0 0 0-.118-.255 4.894 4.894 0 0 0-2.138-2.139c-.56-.285-1.18-.412-1.928-.473C11.558 5 10.643 5 9.475 5z" fill="#F58989"/>
        <path d="M9.484 8.709c.4.196.884.494 1.477.86l.057.034c.593.365 1.078.663 1.436.933.364.274.68.577.85.983a2.41 2.41 0 0 1 0 1.852c-.17.405-.486.708-.85.982-.358.27-.843.569-1.436.934l-.057.035c-.593.365-1.077.663-1.477.86-.4.196-.819.345-1.258.296a2.189 2.189 0 0 1-1.561-.955c-.245-.359-.33-.795-.37-1.259-.04-.462-.04-1.055-.04-1.788v-.062c0-.734 0-1.326.04-1.788.04-.464.125-.9.37-1.26.36-.529.925-.883 1.56-.954.44-.05.858.1 1.26.297zm-1.116.972c.066-.008.21.005.553.173.339.167.771.432 1.4.819.628.386 1.06.653 1.365.883.305.23.402.365.44.455.115.275.115.592 0 .868-.038.09-.135.225-.44.455s-.737.496-1.365.883c-.629.387-1.061.652-1.4.819-.342.168-.487.18-.553.173a.913.913 0 0 1-.648-.405c-.055-.08-.119-.243-.154-.65-.034-.4-.035-.937-.035-1.71 0-.77 0-1.308.035-1.71.035-.405.099-.569.154-.649a.913.913 0 0 1 .648-.404z" fill="#DB2C2C"/>
    </g>
    <defs>
        <filter id="a" x="-22" y="-19" width="68" height="62.895" filterUnits="userSpaceOnUse" color-interpolation-filters="sRGB">
            <feFlood flood-opacity="0" result="BackgroundImageFix"/>
            <feGaussianBlur in="BackgroundImage" stdDeviation="12"/>
            <feComposite in2="SourceAlpha" operator="in" result="effect1_backgroundBlur_5080_8240"/>
            <feBlend in="SourceGraphic" in2="effect1_backgroundBlur_5080_8240" result="shape"/>
        </filter>
    </defs>
</svg>
