<?xml version="1.0" encoding="UTF-8"?>
		<svg xmlns="http://www.w3.org/2000/svg"  preserveAspectRatio="none" width="40" height="20">
			<style>
				* {
					vector-effect: non-scaling-stroke;
				}

				.sparkline {
					stroke-width: 2;
					fill: transparent;
					stroke: black;
				}

				.anomaly {
					stroke-dasharray: 4, 2;
					stroke-dashoffset: 1;
				}

			

			</style>

			<path class="sparkline-fill" style="fill:#e1e1e1;" d="M -2.6666666666666665 2L 0 2.1076355951537558L 2.6666666666666665 2.173052677081209L 5.333333333333333 2.2381815780310035L 8 2.3365233366554214L 10.666666666666666 2.450859139539631L 13.333333333333332 2.5946614473889618L 16 2.831041894309628L 18.666666666666664 3.0839927474453965L 21.333333333333332 3.3555312736398477L 24 3.6254848044572014L 26.666666666666664 3.8346321489895665L 29.333333333333332 4.00883754998139L 32 4.193849737635237L 34.666666666666664 4.371153084136839L 37.33333333333333 4.508735485885138L 37.33333333333333 20 L -5.333333333333333 20"></path>
					<path class="sparkline" style="stroke:#555555;" d="M -2.6666666666666665 2L 0 2.1076355951537558L 2.6666666666666665 2.173052677081209L 5.333333333333333 2.2381815780310035L 8 2.3365233366554214L 10.666666666666666 2.450859139539631L 13.333333333333332 2.5946614473889618L 16 2.831041894309628L 18.666666666666664 3.0839927474453965L 21.333333333333332 3.3555312736398477L 24 3.6254848044572014L 26.666666666666664 3.8346321489895665L 29.333333333333332 4.00883754998139L 32 4.193849737635237L 34.666666666666664 4.371153084136839L 37.33333333333333 4.508735485885138"></path>
				
				
		</svg>