<?xml version="1.0" encoding="UTF-8"?>
		<svg xmlns="http://www.w3.org/2000/svg"  preserveAspectRatio="none" width="40" height="20">
			<style>
				* {
					vector-effect: non-scaling-stroke;
				}

				.sparkline {
					stroke-width: 2;
					fill: transparent;
					stroke: black;
				}

				.anomaly {
					stroke-dasharray: 4, 2;
					stroke-dashoffset: 1;
				}

			

			</style>

			<path class="sparkline-fill" style="fill:#e1e1e1;" d="M -2.6666666666666665 3.8277447761886627L 0 4.690975065699993L 2.6666666666666665 5.242917766023703L 5.333333333333333 5.275163539231439L 8 5.171779425787594L 10.666666666666666 5.536042977727977L 13.333333333333332 5.259388980985959L 16 3.1491377141172734L 18.666666666666664 2.2955482167050896L 21.333333333333332 2.194932228192208L 24 2L 26.666666666666664 2.0791439034130015L 29.333333333333332 2.0942080087003028L 32 3.5576131931994865L 34.666666666666664 4.083956914136099L 37.33333333333333 3.852686134735805L 37.33333333333333 20 L -5.333333333333333 20"></path>
					<path class="sparkline" style="stroke:#555555;" d="M -2.6666666666666665 3.8277447761886627L 0 4.690975065699993L 2.6666666666666665 5.242917766023703L 5.333333333333333 5.275163539231439L 8 5.171779425787594L 10.666666666666666 5.536042977727977L 13.333333333333332 5.259388980985959L 16 3.1491377141172734L 18.666666666666664 2.2955482167050896L 21.333333333333332 2.194932228192208L 24 2L 26.666666666666664 2.0791439034130015L 29.333333333333332 2.0942080087003028L 32 3.5576131931994865L 34.666666666666664 4.083956914136099L 37.33333333333333 3.852686134735805"></path>
				
				
		</svg>