<svg width="34" height="35" viewBox="0 0 34 35" fill="none" xmlns="http://www.w3.org/2000/svg">
<g clip-path="url(#clip0_1509_16723)">
<rect x="1" y="1.5" width="32" height="32" rx="7.31429" fill="white"/>
<path d="M17 9C11.5687 9 8.5 12.0687 8.5 17.5C8.5 22.9313 11.5687 26 17 26V21.0575C14.7188 21.0575 13.4425 19.754 13.4425 17.5C13.4425 15.2188 14.746 13.9425 17 13.9425C19.2811 13.9425 20.5575 15.246 20.5575 17.5H25.5C25.5 12.0687 22.4313 9 17 9Z" fill="#0061FE"/>
<path d="M16.9989 13.9425V17.5H13.4414C13.4414 19.7812 14.7449 21.0575 16.9989 21.0575C19.2801 21.0575 20.5564 19.754 20.5564 17.5C20.5564 15.2189 19.2801 13.9425 16.9989 13.9425Z" fill="#1E1919"/>
</g>
<rect x="0.542857" y="1.04286" width="32.9143" height="32.9143" rx="7.77143" stroke="#A69171" stroke-opacity="0.2" stroke-width="0.914286"/>
<defs>
<clipPath id="clip0_1509_16723">
<rect x="1" y="1.5" width="32" height="32" rx="7.31429" fill="white"/>
</clipPath>
</defs>
</svg>
