<svg id="93282aa9-cfb2-46a0-8238-afda0a7d9927" data-name="Layer 1" xmlns="http://www.w3.org/2000/svg" viewBox="0 0 146.68 37"><defs><style>.df119513-90a9-4132-9e72-a91e40892c1a{fill:#00e676;}.a94890a5-2ce9-492c-b646-96f2bc731871,.df119513-90a9-4132-9e72-a91e40892c1a{fill-rule:evenodd;}.a94890a5-2ce9-492c-b646-96f2bc731871,.dd2dda4f-0459-481f-8913-f4b015f92586{fill:#fff;}</style></defs><title>whatsapp-logo-ar</title><path class="df119513-90a9-4132-9e72-a91e40892c1a" d="M121.24,33l0.6,0.3a15.65,15.65,0,0,0,8.09,2.2,16,16,0,0,0,11.29-27.3A15.9,15.9,0,0,0,114,19.57a16.41,16.41,0,0,0,2.4,8.4l0.4,0.6-1.6,5.9Z" transform="translate(-1.57 -1)"/><path class="a94890a5-2ce9-492c-b646-96f2bc731871" d="M143,6.4A18,18,0,0,0,130.06,1a18.26,18.26,0,0,0-18.29,18.4,19.32,19.32,0,0,0,2.4,9.1l-2.6,9.5,9.69-2.5A17.83,17.83,0,0,0,130,37.7a18.39,18.39,0,0,0,18.29-18.4A18.15,18.15,0,0,0,143,6.4M130.06,34.6h0a14.84,14.84,0,0,1-7.69-2.1l-0.6-.3L116,33.7l1.5-5.7-0.4-.6A15.17,15.17,0,1,1,138,32.3a14.56,14.56,0,0,1-7.89,2.3m8.79-11.1-1.1-.5s-1.6-.7-2.6-1.2c-0.1,0-.2-0.1-0.3-0.1a1.45,1.45,0,0,0-.7.2s-0.1.1-1.5,1.7a0.55,0.55,0,0,1-.5.3h-0.1a0.76,0.76,0,0,1-.4-0.2l-0.5-.2a9.71,9.71,0,0,1-2.9-1.9c-0.2-.2-0.5-0.4-0.7-0.6a11.17,11.17,0,0,1-1.9-2.4l-0.1-.2a1.48,1.48,0,0,1-.2-0.4,0.75,0.75,0,0,1,.1-0.5s0.4-.5.7-0.8,0.3-.5.5-0.7a1.23,1.23,0,0,0,.2-1,38.92,38.92,0,0,0-1.6-3.8,1.16,1.16,0,0,0-.7-0.5h-1.1c-0.2,0-.4.1-0.6,0.1l-0.1.1c-0.2.1-.4,0.3-0.6,0.4s-0.3.4-.5,0.6a5.1,5.1,0,0,0-1.1,3.1,5.93,5.93,0,0,0,.5,2.3l0.1,0.3a16.66,16.66,0,0,0,3.7,5.1l0.4,0.4a6,6,0,0,1,.8.8,17.85,17.85,0,0,0,7.19,3.8c0.3,0.1.7,0.1,1,.2h1a3.7,3.7,0,0,0,1.5-.4,4.37,4.37,0,0,0,.7-0.4l0.2-.2c0.2-.2.4-0.3,0.6-0.5a2.64,2.64,0,0,0,.5-0.6,5.72,5.72,0,0,0,.4-1.4V23.7a1.25,1.25,0,0,0-.3-0.2" transform="translate(-1.57 -1)"/><path class="a94890a5-2ce9-492c-b646-96f2bc731871" d="M16.71,25H6.7a2.28,2.28,0,0,1-1.91-1,4,4,0,0,1-.72-2.48,19.42,19.42,0,0,1,.42-4H2.26a12,12,0,0,0-.5,2.06,13.48,13.48,0,0,0-.2,2.14,5.45,5.45,0,0,0,1.4,4,5.06,5.06,0,0,0,3.81,1.45H19.08V13.67H16.71V25Z" transform="translate(-1.57 -1)"/><path class="a94890a5-2ce9-492c-b646-96f2bc731871" d="M71.95,11a1.5,1.5,0,0,0,1.14-.44,1.73,1.73,0,0,0,.42-1.24,1.7,1.7,0,0,0-.42-1.25,1.51,1.51,0,0,0-1.13-.43,1.64,1.64,0,0,0-1.11.39,1.61,1.61,0,0,0-.46,1.28,1.61,1.61,0,0,0,.46,1.28A1.64,1.64,0,0,0,71.95,11Z" transform="translate(-1.57 -1)"/><path class="a94890a5-2ce9-492c-b646-96f2bc731871" d="M11.38,29.42a1.51,1.51,0,0,0-1.15.44,2,2,0,0,0,0,2.48,1.52,1.52,0,0,0,1.14.44,1.47,1.47,0,0,0,1.16-.46,2,2,0,0,0,0-2.44A1.47,1.47,0,0,0,11.38,29.42Z" transform="translate(-1.57 -1)"/><path class="a94890a5-2ce9-492c-b646-96f2bc731871" d="M97.22,13.67a7.84,7.84,0,0,0-5.57,1.94,6.79,6.79,0,0,0-2.08,5.22,6.41,6.41,0,0,0,1.63,4.72,6.2,6.2,0,0,0,4.6,1.63h2.74V28a3.54,3.54,0,0,1-1.08,2.7,4.15,4.15,0,0,1-3,1,6.6,6.6,0,0,1-2.11-.32,12.31,12.31,0,0,1-1.85-.8L89.4,32.45a9,9,0,0,0,5,1.43,6.65,6.65,0,0,0,4.76-1.59,5.82,5.82,0,0,0,1.68-4.44V13.67H97.22ZM98.5,25H95.87A3.74,3.74,0,0,1,93,24a4.57,4.57,0,0,1-.95-3.19,4.8,4.8,0,0,1,1.38-3.66,5.39,5.39,0,0,1,3.86-1.31h1.2V25Z" transform="translate(-1.57 -1)"/><path class="a94890a5-2ce9-492c-b646-96f2bc731871" d="M76.77,7.66a1.51,1.51,0,0,0-1.15.44,1.73,1.73,0,0,0-.42,1.24,1.71,1.71,0,0,0,.42,1.24,1.52,1.52,0,0,0,1.14.44,1.47,1.47,0,0,0,1.16-.46,1.76,1.76,0,0,0,.41-1.22,1.76,1.76,0,0,0-.41-1.22A1.47,1.47,0,0,0,76.77,7.66Z" transform="translate(-1.57 -1)"/><rect class="dd2dda4f-0459-481f-8913-f4b015f92586" x="80.24" y="5" width="2.48" height="21.18"/><path class="a94890a5-2ce9-492c-b646-96f2bc731871" d="M73.28,25H64V13.67H61.59V25h-1.7a4.11,4.11,0,0,1-2.1-.48,4.49,4.49,0,0,1-1.52-1.68l0-.31v-6.7H53.92v5.95a3.51,3.51,0,0,1-.75,2.33,2.59,2.59,0,0,1-2.1.89h-3V15.83H45.7V25H27.23V6H24.75V27.18H51.32a5.11,5.11,0,0,0,2.44-.54,4.66,4.66,0,0,0,1.63-1.4,6.72,6.72,0,0,0,2.19,1.53,6.25,6.25,0,0,0,2.31.42H75.76V13.67H73.28V25Z" transform="translate(-1.57 -1)"/></svg>