<?xml version="1.0" encoding="UTF-8" standalone="no"?>
<svg width="25px" height="25px" viewBox="0 0 25 25" version="1.1" xmlns="http://www.w3.org/2000/svg" xmlns:xlink="http://www.w3.org/1999/xlink">
    <!-- Generator: Sketch 39.1 (31720) - http://www.bohemiancoding.com/sketch -->
    <title>facebook</title>
    <desc>Created with Sketch.</desc>
    <defs></defs>
    <g id="Why---Social-Proof-|-Variations" stroke="none" stroke-width="1" fill="none" fill-rule="evenodd">
        <g id="facebook">
            <g id="Group">
                <path d="M23.6202148,24.902821 C24.3821289,24.902821 25,24.2874514 25,23.5284047 L25,1.37441634 C25,0.615272374 24.3821289,0 23.6202148,0 L1.37978516,0 C0.617578125,0 0,0.615272374 0,1.37441634 L0,23.5284047 C0,24.2874514 0.617578125,24.902821 1.37978516,24.902821 L23.6202148,24.902821" id="Shape" fill="#395185"></path>
                <path d="M17.2495117,24.902821 L17.2495117,15.259144 L20.4992188,15.259144 L20.9857422,11.5008755 L17.2495117,11.5008755 L17.2495117,9.10126459 C17.2495117,8.0131323 17.5529297,7.27159533 19.1194336,7.27159533 L21.1173828,7.27071984 L21.1173828,3.90933852 C20.7716797,3.8635214 19.5857422,3.76118677 18.2060547,3.76118677 C15.3253906,3.76118677 13.3533203,5.51264591 13.3533203,8.72918288 L13.3533203,11.5008755 L10.0953125,11.5008755 L10.0953125,15.259144 L13.3533203,15.259144 L13.3533203,24.902821 L17.2495117,24.902821" id="Shape" fill="#FFFFFF"></path>
            </g>
        </g>
    </g>
</svg>