<?xml version="1.0" encoding="UTF-8" standalone="no"?>
<svg width="25px" height="21px" viewBox="0 0 25 21" version="1.1" xmlns="http://www.w3.org/2000/svg" xmlns:xlink="http://www.w3.org/1999/xlink">
    <!-- Generator: Sketch 39.1 (31720) - http://www.bohemiancoding.com/sketch -->
    <title>twitter</title>
    <desc>Created with Sketch.</desc>
    <defs></defs>
    <g id="Why---Social-Proof-|-Variations" stroke="none" stroke-width="1" fill="none" fill-rule="evenodd">
        <g id="twitter" fill="#55ACEE">
            <path d="M25,2.48535409 C24.0801603,2.89328781 23.0916456,3.16899285 22.0541168,3.29299153 C23.1131351,2.65818411 23.9263506,1.65302665 24.30932,0.455378599 C23.3183364,1.04309212 22.2206372,1.46995484 21.0523428,1.7000291 C20.1166831,0.703193076 18.7836973,0.0802734375 17.3085153,0.0802734375 C14.4758403,0.0802734375 12.1793043,2.37671808 12.1793043,5.20921012 C12.1793043,5.61119995 12.2247521,6.00267367 12.312173,6.37805316 C8.04939829,6.16416458 4.27009035,4.12220986 1.7403709,1.01913367 C1.29887706,1.77665955 1.0459417,2.65772689 1.0459417,3.59768446 C1.0459417,5.37710215 1.95151615,6.94702058 3.32775522,7.86676892 C2.48692345,7.84015858 1.69611178,7.60944422 1.00451735,7.22528605 C1.00415158,7.24668406 1.00415158,7.26817351 1.00415158,7.28975439 C1.00415158,9.77484893 2.7721387,11.8478948 5.11851201,12.3190166 C4.68808296,12.4362484 4.23497567,12.4988879 3.76714584,12.4988879 C3.43666557,12.4988879 3.11532975,12.4667908 2.80222393,12.4068947 C3.45486302,14.4446431 5.34904349,15.9275063 7.59345623,15.9689307 C5.83808845,17.3445296 3.62650426,18.1645121 1.22352683,18.1645121 C0.809557774,18.1645121 0.401258275,18.1402793 0,18.092911 C2.26983431,19.5481581 4.96589122,20.3972199 7.86239438,20.3972199 C17.296536,20.3972199 22.4554665,12.5817365 22.4554665,5.80396486 C22.4554665,5.58157195 22.4505285,5.36036781 22.4406525,5.14044389 C23.4427009,4.41730112 24.3123377,3.51392134 25,2.48535409" id="Shape"></path>
        </g>
    </g>
</svg>