<svg xmlns="http://www.w3.org/2000/svg" viewBox="0 0 530 472"><defs><linearGradient gradientUnits="userSpaceOnUse" id="ft_m" x1="44" x2="44" y1="2" y2="28"><stop stop-color="#fff"></stop><stop offset="1" stop-color="#E5F2F7"></stop></linearGradient><linearGradient gradientUnits="userSpaceOnUse" id="ft_l" x1="44" x2="44" y1="2" y2="28"><stop stop-color="#fff"></stop><stop offset="1" stop-color="#E5F2F7"></stop></linearGradient><linearGradient gradientUnits="userSpaceOnUse" id="ft_k" x1="44" x2="44" y1="2" y2="28"><stop stop-color="#fff"></stop><stop offset="1" stop-color="#E5F2F7"></stop></linearGradient><radialGradient cx="0" cy="0" gradientTransform="matrix(0 42.5 -124.667 0 44 15)" gradientUnits="userSpaceOnUse" id="ft_j" r="1"><stop offset=".234" stop-color="#22578A"></stop><stop offset=".698" stop-color="#51AAE7"></stop></radialGradient><clipPath id="ft_i"><path d="M0 0h88v30H0z" fill="#fff"></path></clipPath><filter color-interpolation-filters="sRGB" filterUnits="userSpaceOnUse" height="40" id="ft_h" width="88" x="0" y="-4"><feFlood flood-opacity="0" result="BackgroundImageFix"></feFlood><feColorMatrix in="SourceAlpha" values="0 0 0 0 0 0 0 0 0 0 0 0 0 0 0 0 0 0 127 0"></feColorMatrix><feOffset dy="1"></feOffset><feGaussianBlur stdDeviation="3.5"></feGaussianBlur><feColorMatrix values="0 0 0 0 0 0 0 0 0 0 0 0 0 0 0 0 0 0 0.53 0"></feColorMatrix><feBlend in2="BackgroundImageFix" result="effect1_dropShadow"></feBlend><feBlend in2="effect1_dropShadow" in="SourceGraphic" result="shape"></feBlend></filter><filter color-interpolation-filters="sRGB" filterUnits="userSpaceOnUse" height="31" id="ft_f" width="80" x="0" y="-1"><feFlood flood-opacity="0" result="BackgroundImageFix"></feFlood><feBlend in2="BackgroundImageFix" in="SourceGraphic" result="shape"></feBlend><feColorMatrix in="SourceAlpha" result="hardAlpha" values="0 0 0 0 0 0 0 0 0 0 0 0 0 0 0 0 0 0 127 0"></feColorMatrix><feOffset dy="-1"></feOffset><feGaussianBlur stdDeviation="1.5"></feGaussianBlur><feComposite in2="hardAlpha" k2="-1" k3="1" operator="arithmetic"></feComposite><feColorMatrix values="0 0 0 0 0 0 0 0 0 0 0 0 0 0 0 0 0 0 1 0"></feColorMatrix><feBlend in2="shape" result="effect1_innerShadow"></feBlend></filter><linearGradient gradientUnits="userSpaceOnUse" id="ft_e" x1="61" x2="61" y1="1" y2="21"><stop stop-color="#8FC749"></stop><stop offset="1" stop-color="#8FC749"></stop></linearGradient><linearGradient gradientUnits="userSpaceOnUse" id="ft_d" x1="31" x2="31" y1="0" y2="30"><stop stop-color="#3579BA"></stop><stop offset="1" stop-color="#215588"></stop></linearGradient><linearGradient gradientUnits="userSpaceOnUse" id="ft_c" x1="31" x2="31" y1="8" y2="21"><stop stop-color="#fff"></stop><stop offset="1" stop-color="#A8E3FE"></stop></linearGradient><clipPath id="ft_b"><path d="M0 0h62v30H0z" fill="#fff"></path></clipPath><filter color-interpolation-filters="sRGB" filterUnits="userSpaceOnUse" height="32.362" id="ft_a" width="62.06" x="-1" y="-.265"><feFlood flood-opacity="0" result="BackgroundImageFix"></feFlood><feColorMatrix in="SourceAlpha" values="0 0 0 0 0 0 0 0 0 0 0 0 0 0 0 0 0 0 127 0"></feColorMatrix><feOffset dy="1"></feOffset><feGaussianBlur stdDeviation="1"></feGaussianBlur><feColorMatrix values="0 0 0 0 0 0 0 0 0 0 0 0 0 0 0 0 0 0 0.5 0"></feColorMatrix><feBlend in2="BackgroundImageFix" result="effect1_dropShadow"></feBlend><feBlend in2="effect1_dropShadow" in="SourceGraphic" result="shape"></feBlend></filter></defs><g fill="#a02942" transform="translate(0, 385)"><path class="st0" d="M72.9 10.7v9l-10.3-1.4v-7.5l10.3-.1zM62.6 2.2L72.9.7v9l-10.3.1V2.2zm-1 8.4v7.5L53.9 17v-6.5l7.7.1zm-7.7-7.2l7.8-1.1v7.5h-7.8V3.4zm-39 4.1c-.6 0-1.1.5-1.1 1.1v4.6c0 .6.5 1.1 1.1 1.1.6 0 1.1-.5 1.1-1.1V8.5c0-.6-.4-1-1.1-1zm-13.8 0c-.6 0-1.1.4-1.1 1v4.6c0 .6.5 1.1 1.1 1.1.6 0 1.1-.5 1.1-1.1V8.5c0-.6-.5-1-1.1-1zm1.9 0l-.1 7.8c0 .6.5 1.1 1.2 1.1h.8v2.5c0 .6.5 1.1 1.1 1.1.6 0 1-.5 1-1.1v-2.5h2v2.5c0 .6.5 1.1 1.1 1.1.6 0 1.1-.5 1.1-1.1v-2.5h.8c.6 0 1.2-.5 1.2-1.1V7.5H3zm7.5-4.3l.2-.3.2-.3.5-.7c.1-.1 0-.2-.1-.2-.1-.1-.2 0-.3 0l-.7 1-.2.3c-.6-.2-1.3-.3-2.1-.3s-1.5.1-2.2.4l-.2-.3-.2-.3-.4-.8c-.1-.1-.2-.1-.3 0-.1.1-.1.2-.1.2l.5.7.2.3.2.3c-1.5.7-2.6 2-2.6 3.6h10.2c0-1.6-1-2.9-2.6-3.6zM5.8 5.3c-.3 0-.5-.2-.5-.5s.2-.5.5-.5.5.2.5.5c.1.3-.2.5-.5.5zm4.4 0c-.3 0-.5-.2-.5-.5s.2-.5.5-.5.5.2.5.5c.1.3-.2.5-.5.5z"></path><path class="st1" d="M31.1 4.9c.8 0 1.5.3 2.2.5l.9.3c.2.1.5 0 .7-.1.4-.1.8-.3 1.2-.4.7-.3 1.4-.4 2.2-.4 1.4.1 2.6.6 3.5 1.7.2.3.2.3 0 .5-1.5 1-2.1 2.5-1.9 4.3.2 1.6 1 2.7 2.4 3.5.2.1.2.2.2.4-.5 1.3-1.1 2.5-2 3.5-.3.3-.5.6-.8.9-.7.6-1.5.7-2.4.5-.5-.1-.9-.3-1.3-.5-.9-.3-1.7-.2-2.5 0-.4.1-.9.3-1.3.5-.9.2-1.6 0-2.3-.6-1.1-1-1.9-2.3-2.5-3.6-.5-1-.8-2-.9-3.1-.2-1.4-.2-2.7.2-4 .3-1.1.9-2 1.8-2.7.7-.8 1.6-1.2 2.6-1.2zm3.2-.7c0-1.3.6-2.3 1.5-3.1.7-.6 1.5-.9 2.3-1.1.1 0 .2 0 .2.1 0 1.5-.5 2.7-1.7 3.7-.6.5-1.3.8-2.1.8-.2 0-.3-.1-.3-.3.1 0 .1 0 .1-.1zm61.6 14.1c0 .1-.2.5-.8.5-.6 0-.8-.5-.8-.9 0-.6.4-1.2 1-1.2.7 0 .8.5.8.6h1c.1-.4-.2-1.5-1.7-1.5-1.1 0-2 .9-2 2.1 0 1 .6 1.7 1.7 1.7 1.4 0 1.8-1.1 1.8-1.4h-1v.1zm-7.4.3c0-.1 0-.2.1-.4 0-.2.7-3.3.7-3.3h-.9l-.7 3.4v.4c0 .8.6 1 1.1 1h.4c0-.1.2-.7.2-.8h-.2c-.6 0-.7-.1-.7-.3zm11.5-2.7l-1.6 1.5.5-2.5H98l-1 4.8h.9l.3-1.2.6-.4.8 1.6h1l-1.1-2.1 1.9-1.6H100zm-16.4 2.2c.1-.3.7-3.3.7-3.3H86c1.2 0 1.6.7 1.6 1.1 0 .9-.9 1.2-1 1.2.1 0 .7.3.7 1 0 .8-.7 1.5-1.9 1.5h-.5c-1 0-1.5-.7-1.3-1.5zm2.6 0c0-.2-.1-.5-.8-.5h-.8l-.2 1.2h.9c.6-.1.9-.4.9-.7zm.4-2c0-.2-.2-.4-.6-.4h-1l-.2 1h1c.5 0 .8-.3.8-.6z"></path><path class="st1" d="M100.9 18.1c.1-.3.7-3.3.7-3.3h1.7c1.2 0 1.6.7 1.6 1.1 0 .9-.9 1.2-1 1.2.1 0 .7.3.7 1 0 .8-.7 1.5-1.9 1.5h-.5c-1 0-1.5-.7-1.3-1.5zm2.7 0c0-.2-.1-.5-.8-.5h-.8l-.2 1.2h.9c.6-.1.9-.4.9-.7zm.3-2c0-.2-.2-.4-.6-.4h-.9l-.2 1h1c.4 0 .7-.3.7-.6zm7.2-.2c-1 0-1.6.6-1.8 1.6-.1.5-.4 2.1-.4 2.1h.9l.4-2c.1-.6.5-.8.9-.8h.3c0-.1.2-.7.2-.8-.2-.1-.3-.1-.5-.1zm3.1 5.1l3-5.1h-1l-1.4 2.4-.3-2.4h-1c-1.2 0-1.8.5-2 1.6-.1.5-.5 2.1-.5 2.1h.9s.3-1.5.5-2.1c.1-.6.6-.8 1-.7l.2-.9c.1.8.6 3.5.6 3.5l-.9 1.6h.9zm-23.1-3c.2 0 .8-.1.9-.1 0 .1 0 .2-.1.2-.1.4-.6.7-1.1.7-.3 0-.5-.2-.5-.4 0-.1.2-.3.8-.4zm-.3-.9s.3-.4.8-.4c.4 0 .5.1.5.3 0 .2-.4.3-1 .4-1.1.2-1.8.5-1.8 1.3 0 .6.5 1.1 1.3 1.1.7 0 1-.4 1.1-.4v.4h.9c0-.2-.1-.5 0-1 .1-.3.2-1 .3-1.4.2-.8-.3-1.3-1.4-1.3-1.4 0-1.8 1-1.9 1.2l1.2-.2zm16.7 1.4c0 .1-.3.4-.7.4-.7 0-.9-.6-.8-.8h2.7c0-.1.1-.3.1-.6 0-.9-.6-1.7-1.8-1.7-1.1 0-2 .9-2 2 0 1 .6 1.8 1.7 1.8 1.4 0 1.7-1.1 1.8-1.2-.2.1-1 .1-1 .1zm-.5-1.8c.6 0 .8.4.8.7h-1.7c0-.2.3-.7.9-.7z"></path><path class="st0" d="M97.1 1.7c0-.6-.4-1.4-1.9-1.4h-2.4l-.7 3.1h2.5c1.9 0 2.5-.9 2.5-1.7zm6.5 0c0-.6-.4-1.4-1.9-1.4h-2.4l-.7 3.1h2.5c1.9 0 2.5-.9 2.5-1.7zm-7.4 4.7c0-.6-.4-1.4-1.9-1.4h-2.4l-.7 3.1h2.5c2 0 2.5-.9 2.5-1.7zm6.5 0c0-.6-.4-1.4-1.9-1.4h-2.4l-.7 3.1h2.5c2 0 2.5-.9 2.5-1.7zm6.8-1.9c0-.6-.4-1.4-1.9-1.4h-2.4l-.7 3.1h2.5c2 0 2.5-.9 2.5-1.7zm-.9 4.8c0-.6-.4-1.4-1.9-1.4h-2.4l-.7 3.1h2.5c1.9.1 2.5-.8 2.5-1.7zm-6.8 1.9c0-.6-.4-1.4-1.9-1.4h-2.4l-.7 3.2h2.5c1.9 0 2.5-.9 2.5-1.8z"></path></g><g fill="none" transform="translate(211, 385)"><path d="M14 3.658c0 2.21-2.2 3.813-3.873 3.577-.364 1.03-1.867 2.8-3.065 2.326 1.04-1.189 1.275-2.61 1.169-3.102-.086-.402-1.231-.284-2.338.553-.753 1.376-2.431 3.026-3.344 3.026-.49 0-.666-.88-.666-.954 0-.546 2.762-2.498 3.35-2.775 0 0 .483-.718.483-1.314 0-.516-.261-.652-.42-.652-.774 0-1.93 1.092-2.51 2.25-.065.13-.179.175-.325.175-.51 0-.825-.699-.745-.79.16-.183.353-.342.477-.55 1.075-1.808 1.154-3.705.767-3.705-.606 0-1.752 1.959-1.752 5.113 0 1.469.33 2.307.554 2.518.073.07.002.306-.265.393C.982 9.915.134 9.355.023 7.848-.233 4.391 1.675.673 3.373.966c.37.064.957.8.377 2.957 0 0 .326-.3.843-.429 1.143-.283 2.267.39 1.742 2.33 0 0 1.652-.677 2.263-.33.579.33.54 1.626-.089 2.758 1.071-.65 1.527-2.316 1.527-2.316.65.13 2.604-.691 2.604-2.67 0-1.455-1.22-2.638-2.934-2.638-1.695 0-2.954 1.236-3.69 2.644-.054.103-.49-.108-.49-.414 0-.968 1.805-2.772 4.137-2.854C11.498-.061 14 .706 14 3.658zM7.904 2.08c-.247.292-.127 1.073.045 1.21.101-.045 2.413-.396 2.829-.605a.627.627 0 00.35-.45c-.286-.031-3.173-.169-3.224-.155zm.515 1.513c-.208.246-.107.902.038 1.017.085-.037 2.028-.333 2.376-.509a.528.528 0 00.295-.377 85.43 85.43 0 00-2.709-.13z" fill="#fff"></path></g><g fill="#fff" transform="translate(122, 385)"><path d="M13.6 7.3L1.16.1a.76.76 0 00-.77 0A.8.8 0 000 .8v14.4c0 .28.15.55.39.7a.77.77 0 00.77 0L13.6 8.7A.8.8 0 0014 8a.8.8 0 00-.4-.7z"></path></g><g fill="#fff" transform="translate(140, 385)"><path d="M13.96 4.11a5.14 5.14 0 00-.33-1.7 3.43 3.43 0 00-.8-1.24 3.43 3.43 0 00-1.24-.8c-.45-.18-.96-.3-1.7-.33C9.14.01 8.9 0 7 0 5.1 0 4.86 0 4.11.04c-.74.04-1.25.15-1.7.33-.46.17-.89.45-1.24.8-.35.35-.63.78-.8 1.24-.18.45-.3.96-.33 1.7C.01 4.86 0 5.1 0 7c0 1.9 0 2.14.04 2.89.04.74.15 1.25.33 1.7.17.46.45.89.8 1.23.35.36.78.64 1.25.81.44.18.95.3 1.7.33.74.03.98.04 2.88.04s2.14 0 2.89-.04a5.14 5.14 0 001.7-.33 3.58 3.58 0 002.04-2.04c.18-.45.3-.96.33-1.7.03-.75.04-.99.04-2.89 0-1.9 0-2.14-.04-2.89zM12.7 9.83a3.88 3.88 0 01-.24 1.3c-.24.6-.72 1.1-1.33 1.33-.25.1-.62.2-1.3.24-.74.03-.96.04-2.83.04s-2.1 0-2.83-.04a3.88 3.88 0 01-1.3-.24c-.3-.12-.58-.3-.8-.53-.24-.22-.41-.5-.53-.8-.1-.25-.2-.62-.24-1.3-.03-.74-.04-.96-.04-2.83s0-2.09.04-2.83c.03-.68.15-1.05.24-1.3.12-.3.3-.58.53-.8.22-.24.5-.41.8-.53.25-.1.62-.2 1.3-.24.74-.03.96-.04 2.83-.04s2.1 0 2.83.04c.68.03 1.05.15 1.3.24.3.12.58.3.8.53.24.22.42.5.53.8.1.25.2.62.24 1.3.03.74.04.96.04 2.83s0 2.09-.04 2.83z"></path><path d="M7 3.4a3.6 3.6 0 100 7.2 3.6 3.6 0 000-7.2zm0 5.93a2.33 2.33 0 110-4.66 2.33 2.33 0 010 4.66zm3.7-6.91a.84.84 0 100 1.68.84.84 0 000-1.68z"></path></g><g fill="none" transform="translate(175, 385)"><path d="M5.5 7.8l-.24 3.32c.33 0 .48-.15.65-.32l1.55-1.51 3.22 2.4c.6.33 1 .15 1.17-.56l2.1-10.05h.01c.19-.89-.32-1.23-.9-1.02L.66 4.9c-.85.34-.83.82-.14 1.03l3.17 1 7.38-4.68c.34-.23.66-.1.4.13L5.49 7.8z" fill="#fff"></path></g><g fill="none" transform="translate(193, 385)"><path d="M4.4 11.35a8.1 8.1 0 008.17-8.52c.56-.4 1.05-.91 1.43-1.49-.51.23-1.07.39-1.65.45.6-.35 1.05-.91 1.26-1.58-.55.33-1.17.57-1.82.7a2.87 2.87 0 00-4.9 2.6A8.16 8.16 0 01.98.53a2.85 2.85 0 00.9 3.83A2.85 2.85 0 01.58 4v.04c0 1.39.98 2.54 2.3 2.8a2.9 2.9 0 01-1.3.06 2.87 2.87 0 002.68 1.99A5.77 5.77 0 010 10.06a8.15 8.15 0 004.4 1.29z" fill="#fff"></path></g><g fill="none" transform="translate(268, 436)"><g clip-path="url(#ft_b)"><path d="M0 0h62v30H0V0z" fill="url(#ft_d)"></path><path clip-rule="evenodd" d="M0 21h4.016l.612-2.108H9.08L9.867 21h10.477c1.747-.351 3.248-1.423 3.668-3.25.523-2.284-1.048-3.69-2.27-4.304-1.294-.65-3.336-.636-4.454-1.23-1.017-.542-.523-1.844.524-1.844h10.041L23.837 21h4.017l.61-2.108h4.366L33.616 21h11.875c2.882 0 4.017-4.128 4.017-4.128l-3.318-1.23c-.524 2.372-2.532 3.25-4.104 2.02-.35-.263-.786-.79-.96-2.02-.24-1.679.022-4.655 2.27-4.655 1.194 0 5.733-.06 7.858 0V21h3.842v-4.743h3.492c1.106-.147 3.336-.984 3.406-3.162.087-2.723-.699-4.831-3.58-4.92-2.305-.07-12.37-.029-17.114 0-2.357.176-5.693 3.233-3.318 10.19h-1.397L32.83 8H16.765c-2.183 0-4.54 2.723-3.406 5.182.96 1.67 2.358 2.02 5.938 2.9.772.189 1.746 1.844-.175 2.546h-6.2L9.082 8.176H4.715L0 20.912V21zm6.985-8.96l-1.31 4.392h2.707l-1.397-4.391v-.001zM29.6 16.433l1.31-4.391 1.396 4.391H29.6zm25.845-5.973v2.9c.99.087 2.969-.054 2.969-1.319 0-1.48-.893-1.509-2.373-1.558-.19-.006-.388-.013-.596-.023z" fill-rule="evenodd" fill="url(#ft_c)"></path><g filter="url(#ft_a)"><path d="M1 1h4v5H1V1z" fill="#FFF500"></path><path d="M2 3l1.5 2L6 1" stroke="red"></path><path d="M2.413 29v-5.005c.65 0 1.305-.028 1.953.028 1.022.063 1.347 1.165 1.141 2.023-.113.56-.517.962-1.085 1.036-.392.05-.789.033-1.183.028V29h-.826zm.826-4.158v1.421c.568 0 1.468.117 1.463-.707.008-.818-.897-.704-1.463-.714zM6.171 29v-5.005h1.743c.449.01.763.046.959.14.468.234.658.773.658 1.267 0 .691-.402 1.27-1.085 1.4.089.06.168.126.238.196.148.138.246.255.406.539.28.474.518.974.77 1.463h-.987c-.29-.521-.566-1.051-.875-1.561-.129-.227-.297-.493-.588-.504-.137-.017-.275-.015-.413-.021V29h-.826zm.826-2.891h.616c.187.005.341.005.462 0 .138-.005.283-.027.392-.112a.53.53 0 00.182-.301 1.14 1.14 0 000-.441.475.475 0 00-.189-.294c-.103-.08-.24-.096-.37-.098-.15-.01-.3-.015-.449-.014l-.644-.007v1.267zm3.072.42c0-.588.081-1.088.259-1.47.188-.386.416-.677.693-.861a1.965 1.965 0 011.834-.112c.514.242.884.697 1.057 1.323.093.317.14.684.14 1.099a3.9 3.9 0 01-.147 1.12 2.328 2.328 0 01-.441.84c-.678.823-2.128.85-2.807.007-.444-.538-.597-1.255-.588-1.939v-.007zm.854-.035c0 .576.104 1.01.329 1.302.215.292.498.434.812.434.32.005.634-.16.812-.427.215-.29.315-.73.315-1.316 0-.58-.088-1.305-.665-1.6-.292-.15-.65-.14-.924-.003-.268.14-.49.413-.602.854-.055.25-.08.507-.077.763v-.007zM15.548 29v-4.158H14.33v-.847h3.262v.847H16.38V29h-.833.001zm2.513 0v-5.005h3.045v.847h-2.22v1.106h2.066v.847h-2.065v1.365h2.296V29H18.06h.001zm6.376-1.841l.805.315c-.118.562-.326.966-.63 1.232-.478.432-1.23.488-1.806.231-.507-.248-.843-.766-1.001-1.295a3.921 3.921 0 01-.14-1.092c0-.43.047-.81.14-1.141.098-.336.243-.625.434-.868.337-.421.783-.63 1.351-.63.468 0 .848.159 1.155.476.212.222.38.553.483.994l-.819.231c-.055-.331-.25-.664-.567-.777a.884.884 0 00-1.036.343c-.238.342-.287.746-.287 1.309-.004.27.02.54.07.805.047.224.117.404.21.539.186.26.446.403.728.399a.776.776 0 00.567-.252c.186-.206.281-.46.343-.812v-.007zM26.795 29v-4.158h-1.218v-.847h3.262v.847h-1.211V29h-.833zm6.66-1.841l.806.315c-.12.562-.328.966-.63 1.232-.48.43-1.229.49-1.806.231-.507-.248-.843-.766-1.001-1.295a3.921 3.921 0 01-.14-1.092c0-.43.046-.81.14-1.141a2.52 2.52 0 01.434-.868c.337-.421.783-.63 1.351-.63.465 0 .847.158 1.155.476.212.222.378.553.483.994l-.82.231c-.052-.318-.247-.663-.566-.777a.877.877 0 00-1.036.343c-.238.342-.287.746-.287 1.309-.004.27.02.54.07.805.046.224.116.404.21.539.186.26.446.403.728.399a.778.778 0 00.567-.252c.186-.206.281-.46.343-.812l-.001-.007zM34.897 29v-5.005h.826v1.967h1.624v-1.967h.833V29h-.833v-2.184h-1.624V29h-.826zm4.038 0v-5.005h.826V29h-.826zm1.565 0v-4.963h.833v4.123h2.065V29H40.5zm3.409-5.005h1.512c.383.01.672.05.868.133.673.288.951 1.086 1.029 1.764.083.75.06 1.538-.28 2.226-.153.326-.409.6-.749.749-.26.109-.545.135-.826.133h-1.554v-5.005zm.826.847v3.318c.317 0 .652.033.966-.014a.793.793 0 00.392-.147c.192-.155.27-.384.322-.616.056-.214.077-.508.077-.861 0-.191-.007-.36-.021-.504a2.036 2.036 0 00-.056-.378 1.066 1.066 0 00-.238-.504c-.149-.194-.407-.268-.651-.273-.263-.02-.528-.016-.791-.021zM47.981 29v-5.005h1.743c.446.01.762.046.959.14.463.234.658.774.658 1.267 0 .677-.388 1.266-1.085 1.4.088.06.168.126.238.196.146.138.243.254.406.539.278.475.518.974.77 1.463h-.987c-.29-.521-.566-1.051-.875-1.561-.129-.227-.297-.493-.588-.504-.137-.017-.275-.015-.413-.021V29h-.826zm.826-2.891c.359 0 .72.015 1.078 0 .27-.009.515-.128.574-.413.061-.312.009-.69-.33-.812a3.926 3.926 0 00-.678-.035l-.644-.007v1.267zM52.047 29v-5.005h3.044v.847h-2.219v1.106h2.065v.847h-2.065v1.365h2.296V29h-3.121zm3.758 0v-5.005h.805l1.68 3.346v-3.346h.77V29h-.833l-1.652-3.262V29h-.77z" fill="#B5B6B9"></path><path d="M9.998 4.422v-.72h1.53v1.71c-.155.188-.4.353-.654.474-.46.204-.91.235-1.35.126-1.166-.305-1.432-1.782-1.23-2.814.129-.656.518-1.312 1.2-1.494a1.836 1.836 0 011.062.018c.322.102.597.335.75.636.08.156.138.338.174.546l-.702.156a.989.989 0 00-.288-.504c-.38-.297-.952-.194-1.242.18-.228.301-.288.696-.282 1.074 0 .49.077.867.306 1.182.2.283.58.402.918.324a1.3 1.3 0 00.618-.342v-.552h-.81zm2.176-2.712h.708v2.322c0 .188.002.34.006.456.009.25.046.523.246.696a.69.69 0 00.468.156c.156 0 .29-.031.402-.108.205-.14.239-.383.252-.612.012-.14.018-.316.018-.528V1.71h.708v2.256c0 .292-.008.542-.024.75-.007.17-.029.338-.066.504-.059.25-.206.472-.414.624-.238.164-.518.228-.858.228-.297.003-.603-.034-.858-.186a1.188 1.188 0 01-.45-.558 2.263 2.263 0 01-.102-.51 7.66 7.66 0 01-.036-.81V1.71zM18.9 6h-.774l-.306-.972h-1.404L16.121 6h-.75l1.368-4.29h.756L18.9 6zm-1.308-1.698l-.48-1.59-.48 1.59h.96zM19.276 6V1.71h1.494c.383.008.654.04.822.12a.95.95 0 01.402.402c.11.19.162.417.162.684 0 .488-.182.852-.54 1.062-.112.064-.242.11-.39.138.379.259.578.66.786 1.056l.426.828h-.846l-.516-.93c-.117-.216-.233-.433-.378-.63-.172-.242-.45-.217-.714-.228V6h-.708zm.708-2.478c.307 0 .617.012.924 0a.833.833 0 00.216-.036c.293-.08.325-.448.276-.696a.439.439 0 00-.282-.318c-.37-.062-.76-.032-1.134-.036v1.086zm2.83-1.812h1.297c.342.008.713.032.984.264.408.328.583.858.642 1.362.04.363.04.73 0 1.092-.088.701-.45 1.423-1.2 1.548-.565.074-1.154.024-1.722.024V1.71h-.001zm.709.726V5.28c.271 0 .558.028.828-.012.12-.016.24-.05.336-.126a.683.683 0 00.204-.282c.121-.311.138-.654.138-.984 0-.393.009-.881-.27-1.188a.59.59 0 00-.336-.21c-.299-.038-.6-.036-.9-.042zM26.342 6V1.71h.708V6h-.708zm4.557 0h-.774l-.306-.972h-1.404L28.121 6h-.75l1.368-4.29h.756L30.899 6zm-1.308-1.698l-.48-1.59-.48 1.59h.96zM31.282 6V1.71h.69l1.44 2.868V1.71h.66V6h-.714l-1.416-2.796V6h-.66zm4.892 0V1.71h1.062l.636 2.928.636-2.928h1.068V6h-.66V2.622L38.214 6h-.684l-.696-3.378V6h-.66zm4.108 0V1.71h2.61v.726H40.99v.948h1.77v.726h-1.77v1.17h1.968V6h-2.676zm3.263 0V1.71h1.062l.636 2.928.636-2.928h1.068V6h-.66V2.622L45.585 6h-.684l-.696-3.378V6h-.66zm4.102-4.29h1.41c.383.008.658.044.81.108a.97.97 0 01.516.654c.116.413-.017 1.024-.456 1.254.313.108.54.35.624.684.13.506-.016 1.085-.426 1.41-.194.142-.41.163-.642.174-.612.015-1.224.006-1.836.006V1.71zm.708.714v.99c.326 0 .667.034.99-.006a.472.472 0 00.288-.156.603.603 0 00.078-.51c-.03-.134-.13-.256-.264-.282-.222-.048-.451-.03-.678-.03l-.414-.006zm0 1.704V5.28h.66c.252.007.404.007.558-.042.211-.074.29-.313.288-.516a.59.59 0 00-.09-.348c-.097-.151-.282-.22-.462-.228-.317-.022-.636-.015-.954-.018zM51.198 6V1.71h2.61v.726h-1.902v.948h1.77v.726h-1.77v1.17h1.968V6h-2.676zm3.275 0V1.71h1.494c.192.004.356.016.492.036.318.037.58.195.732.486.11.19.162.417.162.684 0 .64-.306 1.082-.93 1.2.374.256.581.666.786 1.056l.426.828h-.846c-.248-.447-.485-.901-.75-1.338-.09-.157-.19-.32-.354-.396-.154-.071-.334-.047-.504-.054V6h-.708zm.708-2.478c.308 0 .617.012.924 0a.57.57 0 00.336-.096c.178-.147.2-.41.156-.636a.439.439 0 00-.282-.318c-.37-.062-.76-.032-1.134-.036v1.086z" fill="#C4C4C4"></path></g></g></g><g fill="none" transform="translate(158, 385)"><path d="M4.18 7.26c-1.11 0-2.01.9-2 2 .01.71.4 1.33.98 1.67-.2-.3-.31-.65-.32-1.04A1.99 1.99 0 015.47 8V5.78c-.2-.03-.42-.05-.63-.05h-.03v1.63c-.2-.07-.4-.1-.63-.1zM9 .63h-.59c.17.83.63 1.55 1.28 2.04A3.4 3.4 0 019 .63z" fill="#F00044"></path><path d="M12.36 4c-.22 0-.42-.03-.63-.06v1.58a5.45 5.45 0 01-3.38-1.15l.01 4.88a4.17 4.17 0 01-4.18 4.12c-.94 0-1.83-.3-2.56-.87a4.18 4.18 0 006.18.29 4.09 4.09 0 001.23-2.9L8.98 5a5.38 5.38 0 003.38 1.15" fill="#F00044"></path><path d="M1.88 6.95A4.18 4.18 0 014.8 5.73v-.58A4.18 4.18 0 000 9.25a4.09 4.09 0 001.62 3.25 4.1 4.1 0 01.26-5.55zm9.85-3.02v-.58c-.77 0-1.47-.26-2.04-.68.5.64 1.21 1.1 2.04 1.26z" fill="#08FFF9"></path><path d="M4.73 11.84a1.98 1.98 0 002.11-1.97V.63h1.57C8.37.43 8.35.22 8.35 0H6.18v9.23a1.98 1.98 0 01-2.11 1.97 2.01 2.01 0 01-.91-.27 2 2 0 001.57.9z" fill="#08FFF9"></path><path d="M4.81 13.32a4.16 4.16 0 003.55-4.07V4.37a5.38 5.38 0 003.37 1.15V3.93a3.35 3.35 0 01-2.04-1.26A3.36 3.36 0 018.42.63H6.84v9.24a1.98 1.98 0 01-2.11 1.97 2 2 0 01-1.57-.91 1.98 1.98 0 01-.98-1.67 1.99 1.99 0 012.63-1.9V5.73A4.18 4.18 0 00.66 9.87c0 .97.34 1.9.96 2.63a4.17 4.17 0 003.2.82z" fill="#fff"></path></g><g fill="none" transform="translate(0, 410)"><path d="M.5.5h21v21H.5V.5z" fill="#211E1E" stroke="#fff"></path><path clip-rule="evenodd" d="M3.5 6c0-.91.125-2.046.676-2.941C5.36 1.132 8.342 1.065 10 2.39c.811.65 1.5 1.752 1.5 3.61h1c0-2.142-.811-3.54-1.875-4.39C8.491-.07 4.832.088 3.324 2.535 2.625 3.67 2.5 5.035 2.5 6h1zM1 9.5c0-1.09.91-2 2-2h9c1.09 0 2 .91 2 2v10c0 1.09-.91 2-2 2H3c-1.09 0-2-.91-2-2v-10zm7.597 5.718a2.524 2.524 0 001.34-2.81A2.524 2.524 0 007.5 10.472c-1.15 0-2.178.817-2.436 1.938a2.524 2.524 0 001.339 2.809L5 17.529h5l-1.403-2.311z" fill-rule="evenodd" fill="#fff"></path><path d="M22 1h78v20H22V1z" fill="url(#ft_e)"></path><path d="M28.44 10.432c1.44 0 2.572.348 3.396 1.044.832.688 1.248 1.768 1.248 3.24 0 1.472-.416 2.556-1.248 3.252C31.012 18.656 29.88 19 28.44 19h-3.648v-8.568h3.648zm.876 6.408c.698-.26 1.08-.894 1.08-2.124 0-.825-.199-1.807-1.08-2.112-.6-.223-1.254-.192-1.884-.192v4.608c.63 0 1.28.03 1.884-.18zM43.536 19h-2.449v-5.748h-.048L39.48 19h-1.8l-1.56-5.748h-.048V19h-2.4v-8.568h3.888l1.032 4.632h.048l1.032-4.632h3.864V19zm9.204-3.192a3.961 3.961 0 01-.72 1.752 3.85 3.85 0 01-1.464 1.2c-.6.288-1.28.432-2.04.432-.856 0-1.616-.172-2.28-.516a3.795 3.795 0 01-1.56-1.536c-.368-.672-.552-1.48-.552-2.424s.184-1.752.552-2.424c.356-.652.9-1.183 1.56-1.524.664-.352 1.424-.528 2.28-.528.728 0 1.388.136 1.98.408.592.272 1.076.64 1.452 1.104.376.456.624.96.744 1.512l-2.652.276a1.658 1.658 0 00-.552-.888 1.42 1.42 0 00-.972-.348c-.464 0-.864.184-1.2.552-.336.368-.504.988-.504 1.86 0 .872.168 1.492.504 1.86.336.368.736.552 1.2.552.4 0 .736-.132 1.008-.396.28-.264.46-.64.54-1.128l2.676.204zm2.843 1.584L55.115 19h-2.76l2.928-8.568h3.6L61.811 19h-2.808l-.48-1.608h-2.94zm1.476-4.836h-.048l-.888 3.036h1.848l-.912-3.036zm7.859 4.044V19h-2.616v-2.4h2.616zm4.048.84c.488 0 .804-.336.948-1.008l2.52.204c-.396 1.71-1.781 2.52-3.468 2.52-2.045 0-3.504-1.239-3.504-3.336 0-2.097 1.451-3.36 3.504-3.36 1.57 0 3.035.746 3.432 2.364l-2.496.324c-.16-.64-.472-.96-.936-.96-.87 0-.984.956-.984 1.632 0 .682.113 1.62.984 1.62zm6.959-4.98c1.128 0 2 .296 2.616.888.624.584.936 1.408.936 2.472 0 1.056-.312 1.876-.936 2.46-.616.584-1.488.876-2.616.876-1.136 0-2.012-.292-2.628-.876-.616-.584-.924-1.404-.924-2.46 0-1.064.308-1.888.924-2.472.616-.592 1.492-.888 2.628-.888zm0 4.968c.336 0 .592-.12.768-.36.176-.24.264-.656.264-1.248s-.088-1.012-.264-1.26c-.355-.5-1.181-.5-1.536 0-.176.248-.264.668-.264 1.26s.088 1.008.264 1.248c.176.24.432.36.768.36zm12.52-4.968c.672 0 1.196.2 1.572.6.376.4.564.996.564 1.788V19h-2.472v-3.612c0-.664-.252-.996-.756-.996a.786.786 0 00-.352.07c-.338.153-.524.512-.524 1.118V19h-2.472v-3.612c0-.715-.271-.996-.744-.996-.659 0-.888.624-.888 1.188V19H79.9v-6.384h2.376v.876h.048c.488-.67 1.187-1.032 2.016-1.032.92 0 1.548.364 1.884 1.092.6-.68 1.297-1.092 2.221-1.092zM25.364 7V3.42h1.16c.499 0 1.04-.031 1.374.406.361.471.27 1.254-.217 1.604-.323.225-.743.228-1.124.219h-.47V7h-.723zm.722-2.974v1.016h.396c.272 0 .624.02.797-.234a.501.501 0 00-.033-.599.5.5 0 00-.29-.158c-.289-.036-.58-.025-.87-.025zM29.601 7V3.42h1.521c.383 0 .66.033.833.099.374.136.573.522.573.905a.96.96 0 01-.236.667c-.158.174-.394.284-.708.33.156.09.284.19.385.3.103.109.24.302.413.58l.437.699h-.864l-.523-.779c-.146-.233-.322-.573-.598-.674-.168-.047-.338-.041-.51-.041V7h-.723zm.723-2.065h.534c.347 0 .564-.015.65-.044a.424.424 0 00.276-.42.429.429 0 00-.368-.432c-.363-.025-.728-.013-1.092-.013v.909zm3.641.297c0-.364.055-.67.164-.918.289-.64.888-.954 1.568-.954.527 0 .948.163 1.264.49.318.328.476.783.476 1.365 0 .578-.157 1.03-.471 1.358-.314.325-.734.488-1.26.488-.532 0-.955-.162-1.27-.486-.313-.325-.471-.773-.471-1.343zm.745-.024c0 .405.094.713.28.923.177.203.445.32.714.312a.915.915 0 00.708-.31c.185-.208.278-.52.278-.935 0-.41-.09-.716-.27-.918-.18-.202-.418-.302-.716-.302a.917.917 0 00-.394.073c-.377.16-.6.542-.6 1.157zm5 1.792V4.026h-1.063v-.605h2.845v.605h-1.06V7h-.722zm3.15 0V3.42h2.654v.606h-1.931v.794h1.797v.603h-1.797v.974h2V7H42.86zm6.525-1.316l.7.222c-.107.39-.285.681-.536.872-.25.189-.566.283-.95.283-.475 0-.866-.162-1.172-.486-.306-.325-.459-.77-.459-1.333 0-.596.154-1.058.462-1.387.307-.33.712-.495 1.213-.495.438 0 .794.13 1.067.388.163.153.285.373.366.66l-.715.17a.756.756 0 00-.266-.44.754.754 0 00-.489-.16.827.827 0 00-.647.285c-.164.19-.246.499-.246.925 0 .453.081.775.244.967a.802.802 0 00.635.288.724.724 0 00.495-.183c.139-.122.238-.314.298-.576zM52.415 7V4.026h-1.063v-.605h2.844v.605h-1.06V7h-.721zm3.15 0V3.42h2.654v.606h-1.931v.794h1.797v.603h-1.797v.974h2V7h-2.723zm4.233-3.58h1.32c.45 0 .896.056 1.222.399.298.316.458.754.458 1.426 0 .653-.191 1.101-.493 1.394-.316.29-.733.361-1.148.361h-1.36l.001-3.58zm.722.606v2.371h.54c.255 0 .526-.005.727-.184a.741.741 0 00.19-.343c.05-.162.074-.38.074-.657s-.024-.49-.073-.637a.727.727 0 00-.54-.515c-.294-.068-.617-.035-.918-.035zm6.087-.605h1.431c.283 0 .494.012.632.037a.908.908 0 01.65.446c.073.124.11.263.11.418a.83.83 0 01-.137.461.832.832 0 01-.366.315c.198.05.375.165.503.325.118.155.18.345.175.54 0 .162-.038.32-.114.475a.954.954 0 01-.31.37c-.13.09-.292.146-.484.168-.687.074-1.4.024-2.09.024V3.421zm.723.596v.827c.33 0 .671.026.999-.012a.475.475 0 00.29-.127.42.42 0 00.015-.55.407.407 0 00-.271-.126c-.344-.02-.689-.012-1.033-.012zm0 1.423v.957H68c.26 0 .426-.007.496-.022a.445.445 0 00.26-.142.494.494 0 00.025-.578.442.442 0 00-.227-.164c-.097-.034-.31-.051-.64-.051h-.584zM72.058 7V5.494l-1.31-2.073h.846l.843 1.416.825-1.416h.832l-1.316 2.078V7h-.72zm5.621-1.907v-.686h.686v.686h-.686zm0 1.907v-.686h.686V7h-.686z" fill="#fff"></path></g><g fill="none" transform="translate(184, 436)"><g filter="url(#ft_f)"><path d="M0 0h80v30H0z" fill="#fff"></path><ellipse cx="16.936" cy="5.75" fill="#26569E" rx="2.824" ry="2.75"></ellipse><path d="M5.642 10h13.604l1.027-1h7.7l.257.5h-7.957v1.875l-1.027.75V10.75H5.642V10zm8.47 3.5h5.134l1.027-1H29v.5h-8.727v1.875l-1.027.75V14.25H5V12h9.112v1.5zm.257 3.5h4.877l1.027-1H29v.5h-8.727v1.875l-1.027 1V17.75H5.642l-.514-2.25h9.241V17z" fill="#26569E"></path><path d="M14.369 20.5h4.877l1.027-.875h6.802v.625h-6.802V22l-1.027 1v-1.625l-11.68-.125L6.284 19h8.086v1.5z" fill="#26569E"></path><path d="M14.369 24.25h4.877l1.027-1h3.85L21.299 25h-8.598l-3.722-2.5h5.39v1.75z" fill="#26569E"></path><path d="M36.976 21h-3.328c.203-.725.304-2.539.304-5.44v-.64c0-2.901-.101-4.715-.304-5.44h3.328c-.192.683-.288 2.496-.288 5.44v.64c0 2.944.096 4.757.288 5.44zm13.057-10.784l.336 2-.176.064c-.843-1.6-2.219-2.4-4.128-2.4-1.59 0-2.827.496-3.712 1.488-.885.981-1.328 2.261-1.328 3.84 0 1.579.448 2.848 1.344 3.808.896.95 2.128 1.424 3.696 1.424 2.123 0 3.59-.752 4.4-2.256l.176.064-.672 2c-.875.64-2.299.96-4.272.96-2.496 0-4.437-.55-5.824-1.648-1.376-1.11-2.064-2.517-2.064-4.224 0-1.739.699-3.184 2.096-4.336 1.397-1.163 3.344-1.744 5.84-1.744.843 0 1.568.08 2.176.24.619.16 1.088.32 1.408.48.33.16.565.24.704.24zM54.495 21h-3.296c.202-.8.304-2.613.304-5.44v-.64c0-2.923-.102-4.736-.304-5.44h3.648c1.941 0 3.381.224 4.32.672.949.437 1.424 1.232 1.424 2.384 0 1.61-1.014 2.608-3.04 2.992 1.141.213 2.106.987 2.896 2.32l.4.688c.458.79.864 1.365 1.216 1.728.362.363.709.544 1.04.544v.096c-.459.16-.992.24-1.6.24-.96 0-1.707-.17-2.24-.512-.523-.352-1.035-.992-1.536-1.92l-.352-.688c-.47-.885-.864-1.483-1.184-1.792a1.73 1.73 0 00-1.184-.512h-.832c0 2.656.106 4.416.32 5.28zm.32-10.944h-.608l-.032 5.088h.8c.949 0 1.664-.23 2.144-.688.49-.47.736-1.115.736-1.936 0-1.643-1.014-2.464-3.04-2.464zM63.033 21H61.53c.246-.213.582-.741 1.008-1.584L67.722 9.4h.288l4.543 9.232c.193.384.374.725.544 1.024.171.288.31.507.416.656.107.15.198.272.272.368.086.096.15.17.193.224a.51.51 0 01.08.096h-4.08a.958.958 0 00.16-.544c0-.245-.07-.507-.209-.784l-.847-1.824-4.928.096-.816 1.728c-.342.704-.443 1.147-.305 1.328zm3.665-8.352l-2.176 4.528 4.32.16-2.144-4.688z" fill="#000"></path></g></g><g fill="none" transform="translate(0, 436)"><path d="M0 0h88v32H0V0z" fill="#fff"></path><path d="M4.5 17.5h7v7h-7v-7z" stroke="#000"></path><path d="M15.294 14.398l.266-.826c.062-.289.138-.576.182-.868l.154-.07c.476 1.036 1.176 1.554 2.1 1.554.495 0 .905-.154 1.232-.462.327-.308.49-.69.49-1.148 0-.663-.369-1.171-1.106-1.526l-1.246-.602c-1.232-.579-1.848-1.48-1.848-2.702 0-.877.317-1.591.952-2.142.635-.55 1.465-.826 2.492-.826.915 0 1.731.252 2.45.756a7.904 7.904 0 00-.588 1.456h-.154c-.43-.85-1.04-1.274-1.834-1.274-.834 0-1.512.587-1.512 1.442 0 1.118 1.37 1.532 2.198 1.946.747.373 1.274.76 1.582 1.162.308.401.462.915.462 1.54 0 .961-.34 1.755-1.022 2.38-.681.625-1.554.938-2.618.938-.896 0-1.773-.243-2.632-.728zm7.503-5.082h-.126a3.778 3.778 0 00-.126-.532 3.297 3.297 0 00-.168-.462c.82-.675 1.726-1.092 2.8-1.092.812 0 1.437.182 1.876.546.438.364.658.887.658 1.568l-.014 3.584c0 .392.023.649.07.77.056.317.252.476.588.476a.871.871 0 00.364-.112v.182l.028.448c-.458.29-.915.434-1.372.434-.346 0-.621-.07-.826-.21-.206-.14-.383-.373-.532-.7-.1.1-.184.217-.294.308-.912.77-2.49.887-3.388.028-.402-.401-.602-.933-.602-1.596 0-.597.168-1.087.504-1.47.558-.61 1.415-.81 2.184-1.008.527-.143 1.414-.269 1.414-.966 0-.708-.53-1.274-1.246-1.274-.672 0-1.27.36-1.792 1.078zm3.038 3.262v-1.834a6.11 6.11 0 01-.952.378c-.429.119-.894.275-1.064.728-.352.768-.235 2.184.84 2.184.224 0 .438-.065.644-.196.205-.13.345-.29.42-.476.074-.187.112-.448.112-.784zm2.007-5.222l1.12.098c0-1.003.182-2.06.924-2.8.652-.701 1.623-.907 2.548-.868l-.056.518-.028.952v.518l-.168.098c-.355-.373-.69-.56-1.008-.56a.812.812 0 00-.63.28c-.168.187-.252.42-.252.7 0 .29.172.677.518 1.162h.616l.924-.098-.014.434.028.56-.784-.07-.756-.028-.014 1.848c.01 1.164.032 2.323.084 3.486.019.42.028.891.028 1.414-.355 0-.71-.021-1.064-.042-.35.004-.7.042-1.05.042l.07-1.624c0-1.083.084-2.165.084-3.248l-.014-1.862c-.365 0-.729.016-1.092.056l.014-.448-.028-.518zm10.723 4.046h-4.83c0 .725.12 1.459.602 2.03.401.476.933.714 1.596.714a3.33 3.33 0 001.344-.294c.408-.176.743-.437 1.064-.742l.126.126c-.155.4-.27.801-.364 1.218-1.548 1.07-3.99 1.008-5.347-.35-.7-.7-1.05-1.666-1.05-2.898 0-1.195.331-2.156.994-2.884 1.24-1.362 3.743-1.532 5.04-.154.808.86.987 2.103.826 3.234h-.001zm-4.41-2.688c-.299.439-.448 1.027-.448 1.764l3.038-.028c0-.602-.055-1.24-.378-1.764-.526-.876-1.665-.773-2.212.028zM39.021 15c.062-1.2.09-2.397.126-3.598.024-.69.038-1.381.042-2.072 0-1.236-.007-2.477-.098-3.71a24.363 24.363 0 01-.07-1.778c.365.048.724.084 1.092.084.354 0 .7-.034 1.05-.084l-.084 1.638c0 1.284-.07 2.566-.07 3.85l.028 2.436c0 1.079.112 2.155.112 3.234-.35-.027-.699-.042-1.05-.042-.36 0-.718.042-1.078.042zm3.637-5.684h-.126a3.955 3.955 0 00-.294-.994c.476-.392.929-.672 1.358-.84 1.002-.391 2.455-.421 3.318.294.439.364.658.887.658 1.568l-.014 1.148v2.436c0 .392.023.649.07.77.056.317.252.476.588.476a.871.871 0 00.364-.112l.028.63c-.457.29-.915.434-1.372.434-.345 0-.62-.07-.826-.21-.205-.14-.383-.373-.532-.7-.094.105-.184.219-.294.308-.912.771-2.49.885-3.388.028-.401-.401-.602-.933-.602-1.596 0-.597.168-1.087.504-1.47.558-.61 1.415-.81 2.184-1.008.527-.143 1.414-.269 1.414-.966 0-.708-.53-1.274-1.246-1.274-.672 0-1.27.36-1.792 1.078zm3.038 3.262v-1.834a6.11 6.11 0 01-.952.378c-.336.093-.579.191-.728.294-.369.26-.507.79-.504 1.218 0 .933.336 1.4 1.008 1.4.429 0 .9-.264 1.064-.672.075-.187.112-.448.112-.784zm2.805 2.436c.072-1.373.1-2.741.126-4.116.068-2.362-.097-4.7-.126-7.056.37 0 .736.07 1.106.07.367 0 .715-.052 1.022-.07l-.126 4.634c.374-.457.733-.78 1.078-.966.346-.187.752-.28 1.218-.28 2.06 0 3.122 1.99 3.122 3.836 0 2.046-1.213 4.06-3.444 4.06a3.413 3.413 0 01-2.548-1.092l-.644.98h-.784zm3.71-6.72c-1.442 0-1.708 1.819-1.708 2.912 0 1.138.106 2.996 1.638 2.996 1.1 0 1.722-1.019 1.722-2.884 0-1.967-.591-3.024-1.652-3.024zm10.74 3.108h-4.829c0 .725.12 1.459.602 2.03.401.476.933.714 1.596.714.94-.007 1.741-.404 2.408-1.036l.126.126c-.157.4-.27.798-.364 1.218a4.05 4.05 0 01-1.134.546c-.355.103-.794.154-1.316.154-1.232 0-2.198-.35-2.898-1.05-.7-.7-1.05-1.666-1.05-2.898 0-1.195.331-2.156.994-2.884 1.24-1.361 3.743-1.532 5.04-.154.81.86.987 2.103.825 3.234zm-4.409-2.688c-.299.439-.448 1.027-.448 1.764l3.038-.028c0-.602-.055-1.24-.378-1.764-.525-.876-1.666-.774-2.212.028zM63.408 15c.098-1.887.156-3.78.168-5.67 0-.252-.005-.635-.014-1.148-.017-.856-.02-1.707-.084-2.562a24.363 24.363 0 01-.07-1.778c.365.048.724.084 1.092.084.354 0 .7-.034 1.05-.084l-.084 1.638c0 .495-.014 1.209-.042 2.142a123.61 123.61 0 00-.028 1.708c.015 1.288.008 2.578.084 3.864.037.644.056 1.246.056 1.806-.35-.027-.699-.042-1.05-.042-.36 0-.718.042-1.078.042zm2.88 0c0-.597.024-1.26.07-1.988.048-.728.07-1.274.07-1.638 0-.62.011-1.242-.027-1.862-.065-1.083-.098-1.787-.098-2.114.359.045.716.07 1.078.07.28 0 .625-.023 1.036-.07 0 .597-.01 1.101-.028 1.512a57.529 57.529 0 00-.084 2.856L68.389 15c-.35-.027-.699-.042-1.05-.042-.35.004-.7.042-1.051.042zm-.041-9.786c0-.624.496-1.12 1.12-1.12.602 0 1.12.518 1.12 1.12 0 .604-.53 1.126-1.134 1.12a1.108 1.108 0 01-1.106-1.12zM69.183 15c0-.579.014-1.101.042-1.568.046-.695.084-1.39.112-2.086 0-.607.007-1.214-.028-1.82-.065-1.073-.098-1.778-.098-2.114.358.035.718.054 1.078.056.338 0 .659-.03.994-.056a9.96 9.96 0 00-.084 1.078c.21-.307.383-.474.602-.658a2.765 2.765 0 011.75-.602c.775 0 1.395.233 1.862.7.467.467.7 1.087.7 1.862-.008 1.164-.027 2.324.042 3.486.037.625.056 1.2.056 1.722l-1.078-.042-1.078.042c0-.55.014-1.055.042-1.512.075-1.223.112-1.862.112-1.918v-1.484c0-.485-.06-.835-.182-1.05-.475-.885-1.806-.724-2.366-.028-.308.383-.462.891-.462 1.526 0 .88.006 1.754.056 2.632.037.653.056 1.265.056 1.834l-1.078-.042-1.05.042zm8.727-.42c-.588-.261-.882-.63-.882-1.106 0-.73.76-1.142 1.372-1.316-1.13-.355-1.694-1.13-1.694-2.324 0-1.683 1.495-2.632 3.052-2.632.355 0 .78.042 1.274.126l.434.056c.806.018 1.591.033 2.394-.056l-.028.588.014.532a5.826 5.826 0 00-1.232-.154l-.322.014c.27.224.462.467.574.728.121.252.182.555.182.91 0 .7-.299 1.288-.896 1.764s-1.335.714-2.212.714c-.376-.02-1.176-.056-1.176.504 0 .778 1.82.462 2.324.462 1.47 0 2.758.72 2.758 2.324 0 .85-.369 1.54-1.106 2.072-.737.532-1.699.798-2.884.798-1.073 0-1.923-.196-2.548-.588-.616-.392-.924-.929-.924-1.61 0-.8.551-1.449 1.526-1.806zm-.098 1.722c0 1.07 1.079 1.456 1.988 1.456.98 0 2.352-.34 2.352-1.554 0-.62-.483-1.139-1.078-1.26-1.189-.315-3.262-.33-3.262 1.358zm1.106-7.784c-.234.336-.35.798-.35 1.386 0 1.185.439 1.778 1.316 1.778.935 0 1.246-.966 1.246-1.75 0-.607-.112-1.078-.336-1.414-.43-.693-1.433-.638-1.876 0z" fill="#263588"></path><path d="M27.871 21.29l.911.288c-.28 1.013-.93 1.501-1.933 1.501-.617 0-1.125-.21-1.523-.631-.398-.423-.597-1.001-.597-1.733 0-.775.2-1.375.6-1.803.4-.43.926-.644 1.578-.644.569 0 1.031.168 1.387.505.211.198.37.484.476.856l-.93.223a.983.983 0 00-.346-.572.98.98 0 00-.635-.21c-.345 0-.625.125-.841.372-.214.248-.32.649-.32 1.203 0 .588.105 1.007.317 1.257.211.25.486.374.825.374.5 0 .877-.304 1.031-.987v.001zm2.343-.588c0-.474.07-.872.212-1.193.213-.475.6-.875 1.035-1.058.29-.122.624-.183 1.003-.183.685 0 1.233.212 1.644.638.413.425.619 1.016.619 1.774 0 .751-.204 1.34-.613 1.765-.408.423-.954.634-1.637.634-.692 0-1.242-.21-1.65-.631-.41-.423-.613-1.005-.613-1.746zm.968-.032c0 .527.121.927.365 1.2.48.535 1.367.544 1.846.003.242-.27.363-.676.363-1.215 0-.534-.118-.931-.353-1.194-.473-.534-1.395-.523-1.866.007-.237.264-.355.663-.355 1.199zm5.08 2.33v-4.653h1.407l.844 3.174.835-3.174h1.41V23h-.874v-3.663L38.961 23h-.905l-.92-3.663V23h-.874zm6.24 0v-4.653h1.508c.572 0 .944.023 1.117.07.267.07.49.222.67.457.18.233.27.534.27.905 0 .654-.382 1.254-1.038 1.4-.224.044-.549.066-.974.066h-.613V23h-.94zm.94-3.866v1.32h.514c.354 0 .811.028 1.036-.304a.651.651 0 00-.043-.778.65.65 0 00-.377-.206 4.53 4.53 0 00-.676-.032h-.454zM47.676 23v-4.615h.94v3.831h2.335V23h-3.275zm4.732 0v-4.653h.94V23h-.94zm6.846 0h-1.022l-.406-1.057h-1.86L55.582 23h-.997l1.813-4.653h.993L59.254 23zm-1.73-1.84l-.64-1.727-.63 1.726 1.27.001zM60.578 23v-4.653h.914l1.904 3.107v-3.107h.873V23h-.943l-1.876-3.034V23h-.872zm6.547 0v-3.866h-1.38v-.787h3.697v.787h-1.377V23h-.94zm-37.552 7l-1.111-4.653h.961l.702 3.196.85-3.196h1.117l.816 3.25.714-3.25h.946L33.438 30h-.996l-.927-3.479L30.59 30h-1.017zm6.29 0v-4.653h3.45v.787h-2.51v1.032h2.335v.784h-2.335v1.266h2.599V30h-3.539zm5.151-4.653h1.86c.368 0 .642.016.822.048.55.09.987.56.987 1.123 0 .218-.06.418-.178.6a1.09 1.09 0 01-.476.41c.284.082.502.223.654.422.423.554.23 1.407-.324 1.8-.169.118-.378.19-.628.218-.157.017-.534.028-1.133.032h-1.584v-4.653zm.94.775v1.076h.615c.366 0 .594-.006.683-.016.28-.02.529-.24.517-.53a.5.5 0 00-.12-.35.528.528 0 00-.353-.165 11.62 11.62 0 00-.803-.015h-.539zm0 1.85v1.244h.87c.338 0 .553-.01.644-.029a.579.579 0 00.34-.184.573.573 0 00.132-.396.607.607 0 00-.101-.356.574.574 0 00-.295-.212c-.127-.045-.404-.067-.832-.067h-.758zm6.95.514l.914-.089c.11.615.445.892 1.016.892.303 0 .53-.063.682-.19.155-.13.232-.28.232-.451.008-.262-.215-.404-.435-.482-.11-.039-.36-.106-.752-.204-.54-.133-1.131-.34-1.379-.88-.173-.38-.137-.83.091-1.179.316-.486.948-.649 1.497-.635.584 0 1.023.128 1.318.384.296.256.451.598.466 1.025l-.94.041c-.08-.475-.32-.673-.853-.673-.246 0-.623.044-.753.294a.36.36 0 00.102.446c.119.1.407.203.864.31.457.109.794.221 1.012.337.711.372.91 1.322.47 1.978-.362.54-1.02.673-1.632.673-1.178 0-1.796-.559-1.92-1.597zM54.262 30v-4.653h.94V30h-.94zm3.697 0v-3.866h-1.38v-.787h3.697v.787H58.9V30h-.941zm3.739 0v-4.653h3.45v.787h-2.51v1.032h2.335v.784h-2.335v1.266h2.599V30h-3.539z" fill="#000"></path><path d="M1.5 11s6.5 4.5 6.87 5.846C10 11.5 18 3 18 3c-2.5 2.832-4.723 7.196-6.5 11.5-1.666 4.037-2.251 7.62-2.251 7.62S3.5 12.5 1.5 11z" fill="#F30909"></path></g><g transform="translate(0, 0)"><path d="M524.002 138.126c0 83.452-82.343 143.962-144.936 135.055-13.641 38.874-70.072 106.405-114.919 88.524 38.965-44.875 47.902-99.249 43.939-117.834-3.233-15.161-46.084-10.74-87.507 20.893C192.38 316.715 129.569 379 95.398 379c-18.337 0-24.926-33.204-24.926-36.007 0-20.631 103.383-94.312 125.418-104.772 0 0 18.057-27.118 18.057-49.611 0-19.505-9.766-24.633-15.731-24.633-28.966 0-72.206 41.232-93.932 84.94-2.429 4.887-6.698 6.602-12.183 6.602-19.088 0-30.865-26.363-27.862-29.829 5.971-6.897 13.196-12.906 17.831-20.757 40.26-68.247 43.205-139.877 28.722-139.877-22.689 0-65.587 73.967-65.587 193.055 0 55.447 12.351 87.095 20.737 95.085 2.765 2.629.079 11.536-9.913 14.828-19.291 6.354-50.998-14.81-55.161-71.683-9.56-130.552 61.839-270.919 125.404-259.873 13.829 2.399 35.806 30.218 14.091 111.637 0 0 12.222-11.318 31.569-16.169 42.775-10.725 84.831 14.742 65.201 87.932 0 0 61.83-25.541 84.684-12.417 21.658 12.434 20.23 61.374-3.324 104.109 40.092-24.556 57.155-87.433 57.155-87.433 24.302 4.91 97.456-26.113 97.456-100.788 0-54.969-45.672-99.632-109.808-99.632-63.452 0-110.561 46.67-138.105 99.841-2.02 3.888-18.346-4.097-18.346-15.641 0-36.549 67.536-104.648 154.829-107.767 68.702-2.451 162.328 26.532 162.328 137.986zm-228.16-59.624c-9.248 11.029-4.773 40.501 1.69 45.665 3.789-1.671 90.325-14.943 105.856-22.853 7.19-3.661 12.2-8.375 14.264-16.612-10.696-1.185-119.902-6.724-121.81-6.2zm19.283 57.139c-7.776 9.272-4.016 34.035 1.419 38.37 3.18-1.4 75.892-12.555 88.938-19.201 6.045-3.077 10.439-7.047 12.171-13.97-8.986-.996-100.93-5.638-102.528-5.199z" fill="#cacaca"></path><path d="M526 140.126c0 83.452-82.343 143.962-144.936 135.056-13.641 38.874-70.901 104.667-115.749 86.786 38.965-44.875 48.731-97.511 44.768-116.097-3.233-15.161-46.084-10.74-87.507 20.893C194.378 318.715 131.568 381 97.396 381c-18.337 0-24.926-33.204-24.926-36.007 0-20.631 103.383-94.312 125.418-104.772 0 0 18.057-27.118 18.057-49.611 0-19.505-9.766-24.633-15.731-24.633-28.966 0-72.206 41.232-93.932 84.94-2.429 4.887-6.698 6.602-12.183 6.602-19.088 0-30.865-26.363-27.862-29.829 5.971-6.897 13.196-12.906 17.831-20.757 40.26-68.247 43.205-139.877 28.722-139.877-22.689 0-65.587 73.967-65.587 193.055 0 55.447 12.351 87.095 20.737 95.085 2.765 2.629.079 11.536-9.913 14.828-19.291 6.354-50.998-14.81-55.161-71.683C-6.693 167.789 64.706 27.423 128.27 38.469c13.829 2.399 35.806 30.218 14.091 111.637 0 0 12.222-11.318 31.569-16.169 42.775-10.725 84.831 14.742 65.201 87.932 0 0 61.83-25.541 84.684-12.417 21.658 12.434 20.23 61.374-3.324 104.109 40.092-24.557 57.155-87.433 57.155-87.433 24.302 4.91 97.456-26.113 97.456-100.788 0-54.969-45.672-99.632-109.808-99.632-63.452 0-110.561 46.67-138.105 99.841-2.02 3.888-18.346-4.097-18.346-15.641 0-36.549 67.536-104.648 154.829-107.767C432.374-.311 526 28.672 526 140.126zM297.841 80.503c-9.248 11.029-4.773 40.501 1.69 45.665 3.789-1.671 90.325-14.943 105.856-22.853 7.19-3.661 10.081-9.713 12.145-17.951-10.697-1.185-117.783-5.386-119.691-4.861zm19.282 57.139c-7.776 9.272-4.016 34.035 1.419 38.37 3.18-1.4 75.892-12.555 88.938-19.201 6.045-3.077 8.31-8.312 10.041-15.235-8.986-.997-98.799-4.374-100.398-3.934z" fill="#fff"></path><linearGradient gradientUnits="userSpaceOnUse" id="ft_g" x1=".999" x2="525.001" y1="190.5" y2="190.5"><stop offset="0" stop-color="#e9eaea"></stop><stop offset=".999" stop-color="#e1e3e2"></stop></linearGradient><path d="M525.001 139.126c0 83.452-82.343 143.962-144.936 135.055-13.641 38.874-69.9 105.677-114.748 87.796 38.965-44.875 47.73-98.521 43.767-117.107-3.233-15.161-46.084-10.74-87.507 20.893C193.379 317.715 130.568 380 96.397 380c-18.337 0-24.926-33.204-24.926-36.007 0-20.631 103.383-94.312 125.418-104.772 0 0 18.057-27.118 18.057-49.611 0-19.505-9.766-24.633-15.731-24.633-28.966 0-72.206 41.232-93.932 84.94-2.429 4.887-6.698 6.602-12.183 6.602-19.088 0-30.865-26.363-27.862-29.829 5.971-6.897 13.196-12.906 17.831-20.757 40.26-68.247 43.205-139.877 28.722-139.877-22.689 0-65.587 73.967-65.587 193.055 0 55.447 12.351 87.095 20.737 95.085 2.765 2.629.079 11.536-9.913 14.828-19.291 6.354-50.998-14.81-55.161-71.683-9.56-130.552 61.839-270.919 125.404-259.872 13.829 2.399 35.806 30.218 14.091 111.637 0 0 12.222-11.318 31.569-16.169 42.775-10.725 84.831 14.742 65.201 87.932 0 0 61.83-25.541 84.684-12.417 21.658 12.434 20.23 61.374-3.324 104.109 40.092-24.557 57.155-87.433 57.155-87.433 24.302 4.91 97.456-26.113 97.456-100.788 0-54.969-45.672-99.632-109.808-99.632-63.452 0-110.561 46.67-138.105 99.841-2.02 3.888-18.346-4.097-18.346-15.641 0-36.549 67.536-104.648 154.829-107.767 68.702-2.452 162.328 26.531 162.328 137.985zM296.842 79.503c-9.248 11.029-4.773 40.501 1.69 45.665 3.789-1.671 90.325-14.943 105.856-22.853 7.19-3.661 11.065-8.733 13.129-16.97-10.697-1.186-118.767-6.367-120.675-5.842zm19.282 57.138c-7.776 9.272-4.016 34.035 1.419 38.37 3.18-1.4 75.892-12.555 88.938-19.201 6.045-3.077 9.304-7.336 11.035-14.259-8.986-.996-99.794-5.349-101.392-4.91z" fill="url(#ft_g)"></path></g><g fill="none" transform="translate(92, 436)"><g clip-path="url(#ft_i)"><path d="M0 0h88v30H0z" fill="url(#ft_j)"></path><g filter="url(#ft_h)"><path d="M17.649 19.77h-2.993V28H7V2h13.19c3.038 0 5.416.777 7.133 2.33 1.717 1.554 2.575 3.74 2.575 6.555 0 1.87-.382 3.472-1.148 4.807-.766 1.31-1.868 2.318-3.306 3.022L30.734 28H21.86l-4.211-8.23zm1.183-6.008c1.067 0 1.88-.255 2.436-.765.557-.51.835-1.214.835-2.112 0-.898-.278-1.602-.835-2.112-.557-.51-1.369-.765-2.436-.765h-4.176v5.754h4.176z" fill="url(#ft_m)"></path><path d="M47.178 8.555V28h-7.655V8.555H28.01L19.574 2h43.365l2.012 6.555H47.18z" fill="url(#ft_l)"></path><path d="M62.939 23.12L61.582 28h-8.004l8.49-26h10.44L81 28h-8.143l-1.392-4.88h-8.526zm4.28-14.675h-.139l-2.575 9.213h5.359l-2.645-9.213z" fill="url(#ft_k)"></path></g><path clip-rule="evenodd" d="M84.11 17.4c-.613.38-1.336.6-2.11.6-.774 0-1.497-.22-2.11-.6h1.226v-2.66h.782l1.654 2.66h.557zm.696-.55c-.373-.55-.927-1.373-1.661-2.47.41-.18.728-.428.952-.744a1.85 1.85 0 00.337-1.09c0-.698-.226-1.218-.678-1.559-.452-.344-1.148-.516-2.09-.516h-1.55a4 4 0 014.69 6.38zm-5.159-6.085A3.994 3.994 0 0078 14c0 1.33.649 2.508 1.647 3.235v-6.47zM87 14a5 5 0 11-10 0 5 5 0 0110 0zm-5.41-.454h-.474v-1.872h.446c.474 0 .823.07 1.047.209.228.139.341.373.341.701 0 .332-.11.575-.332.73-.22.155-.563.232-1.028.232z" fill-rule="evenodd" fill="#fff"></path></g></g><view id="svg_ft_bage_asacp" viewBox="268 436 62 30"></view><view id="svg_ft_bage_dmca" viewBox="0 410 100 22"></view><view id="svg_ft_bage_icra" viewBox="184 436 80 30"></view><view id="svg_ft_bage_rta" viewBox="92 436 88 30"></view><view id="svg_ft_bage_safelabeling" viewBox="0 436 88 32"></view><view id="svg_ft_icon_blog" viewBox="211 385 14 11"></view><view id="svg_ft_icon_instagram" viewBox="140 385 14 14"></view><view id="svg_ft_icon_play" viewBox="122 385 14 16"></view><view id="svg_ft_icon_telegram" viewBox="175 385 14 12"></view><view id="svg_ft_icon_tik_tok" viewBox="158 385 13 14"></view><view id="svg_ft_icon_twitter" viewBox="193 385 14 12"></view><view id="svg_ft_logo" viewBox="0 0 526 381"></view><view id="svg_ft_phone_icons" viewBox="0 385 117.2 21"></view></svg>