<svg height="35" viewBox="0 0 30 35" width="30" xmlns="http://www.w3.org/2000/svg"><g fill="none" fill-rule="evenodd"><path d="m13.8914118 30.1363235c.3661764 2.0144118-.9697059 3.9432353-2.9841177 4.3094118-2.01441175.3661765-3.94411763-.9697059-4.3102941-2.9841177z" fill="#ffbd2e"/><path d="m29.1990882 25.8478235c-.0688235-.3838235-.2655882-.7111764-.5373529-.9494117.0017647-.0008824-.2064706-.1985294-.6441177-.4288236-.1244117-.0652941-1.1364705-.6388235-2.0770588-1.7929411-.1835294-.2241177-.7508823-1.0332353-.8479412-1.1991177-.2638235-.452647-.4932352-1.0164706-.8338235-1.8238235-.7764706-2.2429412-1.3914706-5.325-1.6058823-6.4685294l-.0829412-.4508824c-.0132353-.0935294-.0291177-.1870588-.0458824-.2805882-.8188235-4.50264708-4.3641176-7.81147061-8.6258823-8.56676472-.3847059-1.99058824-2.2958824-3.30705883-4.29617649-2.94441177l.66088239 3.64676471h.0044117l4.6438236 25.54676468 12.8047058-2.3267647c.045-.0052941.0908824-.0097059.1367647-.017647.9088236-.165 1.5114706-1.0358824 1.3464706-1.9438236" fill="#ffbd2e"/><path d="m9.74161765 1.69685294c-.00088236 0-.00176471.00088235-.00264706.00088235l-.13676471-.75529411c-2.00294117.36264706-3.33264706 2.27029411-2.98941176 4.27235294-3.7182353 2.20852941-5.86764706 6.54970588-5.05058824 11.04882348.01764706.0935295.03617647.1861765.05558824.2788236l.08205882.4508823c.20029412 1.1461765.70941177 4.2476471.77205882 6.6211765-.03529411.8744118-.05117647 1.4832353-.13852941 1.9985294-.03264706.1905882-.27882353 1.1479412-.37058823 1.422353-.47558824 1.41-1.22117647 2.3038235-1.31470588 2.4088235-.3282353.3697059-.45264706.6273529-.45176471.6273529-.17029412.3194118-.23911765.6944118-.16941177 1.0791177.16500001.9070588 1.035 1.5097059 1.94470589 1.3447059.045-.0079412.09-.0211765.13411764-.0317648l12.80470591-2.327647z" fill="#fccc32"/></g></svg>