<svg height="35" viewBox="0 0 30 35" width="30" xmlns="http://www.w3.org/2000/svg" xmlns:xlink="http://www.w3.org/1999/xlink"><mask id="a" fill="#fff"><path d="m0 34.9315h30.001v-34.931h-30.001z" fill="#fff" fill-rule="evenodd"/></mask><g fill="none" fill-rule="evenodd"><path d="m30 31.8641v-19.083c0-.79-.437-1.515-1.135-1.884l-12.313-6.506c-.971-.514-2.133-.514-3.105 0l-12.312 6.506c-.698.369-1.135 1.094-1.135 1.884v19.083z" fill="#39007d"/><path d="m4.709 32.0665h21.233v-26.817h-21.233z" fill="#fff" mask="url(#a)"/><g fill="#c7cdd2"><path d="m5.366 31.5185h20v-25.519h-20zm-1-29.92v30.92h22v-30.92c0-.883-.716-1.599-1.598-1.599h-18.803c-.883 0-1.599.716-1.599 1.599z" mask="url(#a)"/><path d="m7.553 10.9995h16v-2h-16z" mask="url(#a)"/><path d="m7.553 15.1495h8.9v-2h-8.9z" mask="url(#a)"/></g><path d="m29.9991 12.7791.002 20.005c0 1.186-.962 2.147-2.148 2.147h-25.705c-.38 0-.733-.107-1.044-.281z" fill="#6001d2" mask="url(#a)"/><path d="m.002 12.7791-.002 20.005c0 1.186.962 2.147 2.148 2.147h25.705c.38 0 .733-.107 1.044-.281z" fill="#7e1fff" mask="url(#a)"/></g></svg>