<svg height="22" viewBox="0 0 22 22" width="22" xmlns="http://www.w3.org/2000/svg"><path d="m472.011719 32.0078125c.273437 0 .503906-.1015625.691406-.3046875.203125-.1875.304687-.4179688.304687-.6914062 0-.2734376-.101562-.5117188-.304687-.7148438l-7.40625-7.40625c.53125-.671875.945313-1.4257812 1.242187-2.2617188.296876-.8359374.445313-1.7148437.445313-2.6367187 0-1.109375-.207031-2.1484375-.621094-3.1171875-.414062-.96875-.984375-1.8164062-1.710937-2.5429688-.726563-.7265624-1.574219-1.296875-2.542969-1.7109374-.96875-.4140626-2.007813-.6210938-3.117187-.6210938-1.109376 0-2.148438.2070312-3.117188.6210938-.96875.4140624-1.816406.984375-2.542969 1.7109374-.726562.7265626-1.296875 1.5742188-1.710937 2.5429688-.414063.96875-.621094 2.0078125-.621094 3.1171875s.207031 2.1484375.621094 3.1171875c.414062.96875.984375 1.8164062 1.710937 2.5429688.726563.7265624 1.574219 1.296875 2.542969 1.7109374.96875.4140626 2.007812.6210938 3.117188.6210938.921874 0 1.800781-.1484375 2.636718-.4453125.835938-.296875 1.589844-.7109375 2.261719-1.2421875l7.40625 7.40625c.203125.203125.441406.3046875.714844.3046875zm-13.019531-8.015625c-.828126 0-1.605469-.15625-2.332032-.46875-.726562-.3125-1.363281-.7421875-1.910156-1.2890625s-.976562-1.1835938-1.289062-1.9101562c-.3125-.7265626-.46875-1.5039063-.46875-2.3320313s.15625-1.6054687.46875-2.3320313c.3125-.7265624.742187-1.3632812 1.289062-1.9101562s1.183594-.9765625 1.910156-1.2890625c.726563-.3125 1.503906-.46875 2.332032-.46875.828124 0 1.605468.15625 2.332031.46875.726562.3125 1.363281.7421875 1.910156 1.2890625s.976563 1.1835938 1.289063 1.9101562c.3125.7265626.46875 1.5039063.46875 2.3320313s-.15625 1.6054687-.46875 2.3320313c-.3125.7265624-.742188 1.3632812-1.289063 1.9101562s-1.183594.9765625-1.910156 1.2890625c-.726563.3125-1.503907.46875-2.332031.46875z" fill="#fff" transform="translate(-451 -10)"/></svg>