<?xml version="1.0" encoding="utf-8"?>
<!-- Generator: Adobe Illustrator 19.2.0, SVG Export Plug-In . SVG Version: 6.00 Build 0)  -->
<svg version="1.0" id="Layer_1" xmlns:sketch="http://www.bohemiancoding.com/sketch/ns"
	 xmlns="http://www.w3.org/2000/svg" xmlns:xlink="http://www.w3.org/1999/xlink" x="0px" y="0px" viewBox="0 0 30 30"
	 enable-background="new 0 0 30 30" xml:space="preserve">
<title>spinner</title>
<desc>Created with Sketch.</desc>
<g id="Oval-1">
	<path fill="#D8D5D3" d="M15,30C6.7,30,0,23.3,0,15C0,6.8,6.7,0.1,15,0.1S29.9,6.8,29.9,15C29.9,23.3,23.2,30,15,30z M15,4.2
		C9,4.2,4.2,9,4.2,15S9,25.8,15,25.8c6,0,10.8-4.9,10.8-10.8S21,4.2,15,4.2z"/>
</g>
<path fill="#2D8BE9" d="M15,0.1C15,0.1,15,0.1,15,0.1l0,4.1c0,0,0,0,0,0c5,0,9.2,3.4,10.5,8.1l4-1C27.8,4.8,21.9,0.1,15,0.1z"/>
</svg>
