<?xml version="1.0" encoding="UTF-8"?>
		<svg xmlns="http://www.w3.org/2000/svg"  preserveAspectRatio="none" width="40" height="20">
			<style>
				* {
					vector-effect: non-scaling-stroke;
				}

				.sparkline {
					stroke-width: 2;
					fill: transparent;
					stroke: black;
				}

				.anomaly {
					stroke-dasharray: 4, 2;
					stroke-dashoffset: 1;
				}

			

			</style>

			<path class="sparkline-fill" style="fill:#efc9c9;" d="M -2.6666666666666665 2L 0 2.8247613997574526L 2.6666666666666665 3.6726997465263125L 5.333333333333333 4.216199222877803L 8 4.217018157297215L 10.666666666666666 4.197564673473069L 13.333333333333332 3.671869334616936L 16 4.5677950669464735L 18.666666666666664 4.9853168378913875L 21.333333333333332 4.635648712366942L 24 5.142425899245254L 26.666666666666664 5.170952114854863L 29.333333333333332 5.248413927307929L 32 5.763626328274363L 34.666666666666664 6.308301359824059L 37.33333333333333 6.635135294790542L 37.33333333333333 20 L -5.333333333333333 20"></path>
					<path class="sparkline" style="stroke:#cf1111;" d="M -2.6666666666666665 2L 0 2.8247613997574526L 2.6666666666666665 3.6726997465263125L 5.333333333333333 4.216199222877803L 8 4.217018157297215L 10.666666666666666 4.197564673473069L 13.333333333333332 3.671869334616936L 16 4.5677950669464735L 18.666666666666664 4.9853168378913875L 21.333333333333332 4.635648712366942L 24 5.142425899245254L 26.666666666666664 5.170952114854863L 29.333333333333332 5.248413927307929L 32 5.763626328274363L 34.666666666666664 6.308301359824059L 37.33333333333333 6.635135294790542"></path>
				
				
		</svg>