<svg xmlns="http://www.w3.org/2000/svg" width="197.448" height="197.448" viewBox="0 0 197.448 197.448">
  <g id="Group_67" data-name="Group 67" transform="translate(-369.341 -328.525)" opacity="0.5">
    <path id="Path_242" data-name="Path 242" d="M458.716,497.036A79.137,79.137,0,1,1,537.85,417.9,79.226,79.226,0,0,1,458.716,497.036Z" transform="translate(9.35 9.349)" fill="none" stroke="#fff" stroke-miterlimit="10" stroke-width="1.3"/>
    <circle id="Ellipse_23" data-name="Ellipse 23" cx="67.353" cy="67.353" r="67.353" transform="translate(400.712 359.895)" fill="none" stroke="#fff" stroke-miterlimit="10" stroke-width="1.3"/>
    <path id="Path_243" data-name="Path 243" d="M421.464,404.419a31.284,31.284,0,0,0,14.079-9.028c13.975-13.973,10.015-23.809,4.23-29.594a23.918,23.918,0,1,0-33.824,33.824,16.429,16.429,0,0,0,11.7,5.276,16.023,16.023,0,0,0,3.813-.478Z" transform="translate(26.937 27.546)" fill="none" stroke="#fff" stroke-miterlimit="10" stroke-width="1.3"/>
    <path id="Path_244" data-name="Path 244" d="M442.424,370.139c-14.947,0-14.947,15.755-14.947,20.926s0,20.926,14.947,20.926a20.926,20.926,0,0,0,0-41.852Z" transform="translate(53.085 37.999)" fill="none" stroke="#fff" stroke-miterlimit="10" stroke-width="1.3"/>
    <path id="Path_245" data-name="Path 245" d="M434.663,392.922a20.909,20.909,0,0,0-11.157-6.277,13.568,13.568,0,0,0-12.1,4.155,17.946,17.946,0,1,0,25.38,25.38,13.567,13.567,0,0,0,4.153-12.1,20.924,20.924,0,0,0-6.277-11.157Z" transform="translate(33.615 52.912)" fill="none" stroke="#fff" stroke-miterlimit="10" stroke-width="1.3"/>
    <line id="Line_5" data-name="Line 5" y2="19.588" transform="translate(468.065 328.525)" fill="none" stroke="#fff" stroke-miterlimit="10" stroke-width="1.3"/>
    <line id="Line_6" data-name="Line 6" y2="19.588" transform="translate(468.065 506.385)" fill="none" stroke="#fff" stroke-miterlimit="10" stroke-width="1.3"/>
    <line id="Line_7" data-name="Line 7" x2="19.588" transform="translate(369.341 427.249)" fill="none" stroke="#fff" stroke-miterlimit="10" stroke-width="1.3"/>
    <line id="Line_8" data-name="Line 8" x2="19.588" transform="translate(547.202 427.249)" fill="none" stroke="#fff" stroke-miterlimit="10" stroke-width="1.3"/>
    <line id="Line_9" data-name="Line 9" x2="13.851" y2="13.851" transform="translate(398.257 357.44)" fill="none" stroke="#fff" stroke-miterlimit="10" stroke-width="1.3"/>
    <line id="Line_10" data-name="Line 10" x2="13.851" y2="13.851" transform="translate(524.023 483.207)" fill="none" stroke="#fff" stroke-miterlimit="10" stroke-width="1.3"/>
    <line id="Line_11" data-name="Line 11" y1="13.851" x2="13.851" transform="translate(398.257 483.207)" fill="none" stroke="#fff" stroke-miterlimit="10" stroke-width="1.3"/>
    <line id="Line_12" data-name="Line 12" y1="13.851" x2="13.851" transform="translate(524.023 357.44)" fill="none" stroke="#fff" stroke-miterlimit="10" stroke-width="1.3"/>
    <line id="Line_13" data-name="Line 13" x2="7.531" y2="18.082" transform="translate(430.109 336.113)" fill="none" stroke="#fff" stroke-miterlimit="10" stroke-width="1.3"/>
    <line id="Line_14" data-name="Line 14" x2="7.531" y2="18.082" transform="translate(498.491 500.303)" fill="none" stroke="#fff" stroke-miterlimit="10" stroke-width="1.3"/>
    <line id="Line_15" data-name="Line 15" y1="7.531" x2="18.082" transform="translate(376.93 457.674)" fill="none" stroke="#fff" stroke-miterlimit="10" stroke-width="1.3"/>
    <line id="Line_16" data-name="Line 16" y1="7.531" x2="18.082" transform="translate(541.119 389.292)" fill="none" stroke="#fff" stroke-miterlimit="10" stroke-width="1.3"/>
    <line id="Line_17" data-name="Line 17" x2="18.111" y2="7.461" transform="translate(376.783 389.645)" fill="none" stroke="#fff" stroke-miterlimit="10" stroke-width="1.3"/>
    <line id="Line_18" data-name="Line 18" x2="18.111" y2="7.461" transform="translate(541.236 457.392)" fill="none" stroke="#fff" stroke-miterlimit="10" stroke-width="1.3"/>
    <line id="Line_19" data-name="Line 19" y1="18.111" x2="7.461" transform="translate(430.462 500.42)" fill="none" stroke="#fff" stroke-miterlimit="10" stroke-width="1.3"/>
    <line id="Line_20" data-name="Line 20" y1="18.111" x2="7.461" transform="translate(498.208 335.967)" fill="none" stroke="#fff" stroke-miterlimit="10" stroke-width="1.3"/>
    <circle id="Ellipse_24" data-name="Ellipse 24" cx="4.406" cy="4.406" r="4.406" transform="translate(477.916 389.183)" fill="none" stroke="#fff" stroke-miterlimit="10" stroke-width="1.3"/>
    <circle id="Ellipse_25" data-name="Ellipse 25" cx="4.406" cy="4.406" r="4.406" transform="translate(425.063 436.715)" fill="none" stroke="#fff" stroke-miterlimit="10" stroke-width="1.3"/>
    <circle id="Ellipse_26" data-name="Ellipse 26" cx="4.406" cy="4.406" r="4.406" transform="translate(489.687 461.122)" fill="none" stroke="#fff" stroke-miterlimit="10" stroke-width="1.3"/>
  </g>
</svg>
