<svg xmlns="http://www.w3.org/2000/svg" width="370.674" height="205.46" viewBox="0 0 372.674 206.46">
  <g id="Group_9045" transform="translate(0.642 0.642)" opacity="0.503">
    <path id="Path_32" d="M648.562,1734.334c0,6.578-9.85,6.578-9.85,0s9.85-6.593,9.85,0" transform="translate(-583.09 -1729.39)" fill="none" stroke="#fff" stroke-miterlimit="10" stroke-width="1.285"></path>
    <path id="Path_33" d="M666.547,1734.334c0,6.578-9.836,6.578-9.836,0s9.836-6.593,9.836,0" transform="translate(-587.177 -1729.39)" fill="none" stroke="#fff" stroke-miterlimit="10" stroke-width="1.285"></path>
    <path id="Path_34" d="M684.542,1734.334c0,6.578-9.85,6.578-9.85,0s9.85-6.593,9.85,0" transform="translate(-591.26 -1729.39)" fill="none" stroke="#fff" stroke-miterlimit="10" stroke-width="1.285"></path>
    <path id="Path_35" d="M702.527,1734.334c0,6.578-9.836,6.578-9.836,0s9.836-6.593,9.836,0" transform="translate(-595.347 -1729.39)" fill="none" stroke="#fff" stroke-miterlimit="10" stroke-width="1.285"></path>
    <path id="Path_36" d="M720.522,1734.334c0,6.578-9.85,6.578-9.85,0s9.85-6.593,9.85,0" transform="translate(-599.431 -1729.39)" fill="none" stroke="#fff" stroke-miterlimit="10" stroke-width="1.285"></path>
    <path id="Path_37" d="M738.508,1734.334c0,6.578-9.851,6.578-9.851,0s9.851-6.593,9.851,0" transform="translate(-603.515 -1729.39)" fill="none" stroke="#fff" stroke-miterlimit="10" stroke-width="1.285"></path>
    <path id="Path_38" d="M756.507,1734.334c0,6.592-9.85,6.592-9.85,0s9.85-6.593,9.85,0" transform="translate(-607.602 -1729.39)" fill="none" stroke="#fff" stroke-miterlimit="10" stroke-width="1.285"></path>
    <path id="Path_39" d="M774.5,1734.334c0,6.592-9.865,6.592-9.865,0s9.865-6.593,9.865,0" transform="translate(-611.686 -1729.39)" fill="none" stroke="#fff" stroke-miterlimit="10" stroke-width="1.285"></path>
    <path id="Path_40" d="M828.463,1734.334c0,6.592-9.865,6.592-9.865,0s9.865-6.593,9.865,0" transform="translate(-623.939 -1729.39)" fill="none" stroke="#fff" stroke-miterlimit="10" stroke-width="1.285"></path>
    <path id="Path_41" d="M882.452,1734.334c0,6.578-9.85,6.578-9.85,0s9.85-6.593,9.85,0" transform="translate(-636.203 -1729.39)" fill="none" stroke="#fff" stroke-miterlimit="10" stroke-width="1.285"></path>
    <path id="Path_42" d="M936.413,1734.334c0,6.592-9.851,6.592-9.851,0s9.851-6.593,9.851,0" transform="translate(-648.456 -1729.39)" fill="none" stroke="#fff" stroke-miterlimit="10" stroke-width="1.285"></path>
    <path id="Path_43" d="M630.563,1752.318c0,6.593-9.851,6.593-9.851,0,0-6.577,9.851-6.577,9.851,0" transform="translate(-579.002 -1733.432)" fill="none" stroke="#fff" stroke-miterlimit="10" stroke-width="1.285"></path>
    <path id="Path_44" d="M648.562,1752.318c0,6.593-9.85,6.593-9.85,0,0-6.577,9.85-6.577,9.85,0" transform="translate(-583.09 -1733.432)" fill="none" stroke="#fff" stroke-miterlimit="10" stroke-width="1.285"></path>
    <path id="Path_45" d="M666.547,1752.318c0,6.593-9.836,6.593-9.836,0,0-6.577,9.836-6.577,9.836,0" transform="translate(-587.177 -1733.432)" fill="none" stroke="#fff" stroke-miterlimit="10" stroke-width="1.285"></path>
    <path id="Path_46" d="M684.542,1752.318c0,6.593-9.85,6.593-9.85,0,0-6.577,9.85-6.577,9.85,0" transform="translate(-591.26 -1733.432)" fill="none" stroke="#fff" stroke-miterlimit="10" stroke-width="1.285"></path>
    <path id="Path_47" d="M720.522,1752.318c0,6.593-9.85,6.593-9.85,0,0-6.577,9.85-6.577,9.85,0" transform="translate(-599.431 -1733.432)" fill="none" stroke="#fff" stroke-miterlimit="10" stroke-width="1.285"></path>
    <path id="Path_48" d="M738.508,1752.318c0,6.593-9.851,6.593-9.851,0,0-6.577,9.851-6.577,9.851,0" transform="translate(-603.515 -1733.432)" fill="none" stroke="#fff" stroke-miterlimit="10" stroke-width="1.285"></path>
    <path id="Path_49" d="M756.507,1752.315c0,6.593-9.85,6.593-9.85,0s9.85-6.593,9.85,0" transform="translate(-607.602 -1733.428)" fill="none" stroke="#fff" stroke-miterlimit="10" stroke-width="1.285"></path>
    <path id="Path_50" d="M864.452,1752.315c0,6.593-9.85,6.593-9.85,0s9.85-6.593,9.85,0" transform="translate(-632.115 -1733.428)" fill="none" stroke="#fff" stroke-miterlimit="10" stroke-width="1.285"></path>
    <path id="Path_51" d="M900.432,1752.318c0,6.593-9.85,6.593-9.85,0,0-6.577,9.85-6.577,9.85,0" transform="translate(-640.285 -1733.432)" fill="none" stroke="#fff" stroke-miterlimit="10" stroke-width="1.285"></path>
    <path id="Path_52" d="M918.417,1752.318c0,6.593-9.836,6.593-9.836,0,0-6.577,9.836-6.577,9.836,0" transform="translate(-644.373 -1733.432)" fill="none" stroke="#fff" stroke-miterlimit="10" stroke-width="1.285"></path>
    <path id="Path_53" d="M936.413,1752.315c0,6.593-9.851,6.593-9.851,0s9.851-6.593,9.851,0" transform="translate(-648.456 -1733.428)" fill="none" stroke="#fff" stroke-miterlimit="10" stroke-width="1.285"></path>
    <path id="Path_54" d="M954.408,1752.315c0,6.593-9.865,6.593-9.865,0s9.865-6.593,9.865,0" transform="translate(-652.539 -1733.428)" fill="none" stroke="#fff" stroke-miterlimit="10" stroke-width="1.285"></path>
    <path id="Path_55" d="M972.393,1752.318c0,6.593-9.851,6.593-9.851,0,0-6.577,9.851-6.577,9.851,0" transform="translate(-656.626 -1733.432)" fill="none" stroke="#fff" stroke-miterlimit="10" stroke-width="1.285"></path>
    <path id="Path_56" d="M990.378,1752.315c0,6.593-9.85,6.593-9.85,0s9.85-6.593,9.85,0" transform="translate(-660.711 -1733.428)" fill="none" stroke="#fff" stroke-miterlimit="10" stroke-width="1.285"></path>
    <path id="Path_57" d="M576.6,1770.315c0,6.593-9.851,6.593-9.851,0s9.851-6.593,9.851,0" transform="translate(-566.748 -1737.471)" fill="none" stroke="#fff" stroke-miterlimit="10" stroke-width="1.285"></path>
    <path id="Path_58" d="M594.595,1770.315c0,6.593-9.865,6.593-9.865,0s9.865-6.593,9.865,0" transform="translate(-570.831 -1737.471)" fill="none" stroke="#fff" stroke-miterlimit="10" stroke-width="1.285"></path>
    <path id="Path_59" d="M612.578,1770.315c0,6.593-9.865,6.593-9.865,0s9.865-6.593,9.865,0" transform="translate(-574.915 -1737.471)" fill="none" stroke="#fff" stroke-miterlimit="10" stroke-width="1.285"></path>
    <path id="Path_60" d="M630.563,1770.315c0,6.593-9.851,6.593-9.851,0s9.851-6.593,9.851,0" transform="translate(-579.002 -1737.471)" fill="none" stroke="#fff" stroke-miterlimit="10" stroke-width="1.285"></path>
    <path id="Path_61" d="M648.562,1770.315c0,6.593-9.85,6.593-9.85,0s9.85-6.593,9.85,0" transform="translate(-583.09 -1737.471)" fill="none" stroke="#fff" stroke-miterlimit="10" stroke-width="1.285"></path>
    <path id="Path_62" d="M666.547,1770.315c0,6.593-9.836,6.593-9.836,0s9.836-6.593,9.836,0" transform="translate(-587.177 -1737.471)" fill="none" stroke="#fff" stroke-miterlimit="10" stroke-width="1.285"></path>
    <path id="Path_63" d="M684.542,1770.315c0,6.593-9.85,6.593-9.85,0s9.85-6.593,9.85,0" transform="translate(-591.26 -1737.471)" fill="none" stroke="#fff" stroke-miterlimit="10" stroke-width="1.285"></path>
    <path id="Path_64" d="M702.527,1770.315c0,6.593-9.836,6.593-9.836,0s9.836-6.593,9.836,0" transform="translate(-595.347 -1737.471)" fill="none" stroke="#fff" stroke-miterlimit="10" stroke-width="1.285"></path>
    <path id="Path_65" d="M738.508,1770.315c0,6.593-9.851,6.593-9.851,0s9.851-6.593,9.851,0" transform="translate(-603.515 -1737.471)" fill="none" stroke="#fff" stroke-miterlimit="10" stroke-width="1.285"></path>
    <path id="Path_66" d="M756.507,1770.315c0,6.593-9.85,6.593-9.85,0s9.85-6.593,9.85,0" transform="translate(-607.602 -1737.471)" fill="none" stroke="#fff" stroke-miterlimit="10" stroke-width="1.285"></path>
    <path id="Path_67" d="M828.448,1770.313a4.925,4.925,0,1,1-4.918-4.948A4.93,4.93,0,0,1,828.448,1770.313Z" transform="translate(-623.939 -1737.47)" fill="none" stroke="#fff" stroke-miterlimit="10" stroke-width="1.285"></path>
    <path id="Path_68" d="M846.448,1770.315c0,6.593-9.85,6.593-9.85,0s9.85-6.593,9.85,0" transform="translate(-628.027 -1737.471)" fill="none" stroke="#fff" stroke-miterlimit="10" stroke-width="1.285"></path>
    <path id="Path_69" d="M864.452,1770.315c0,6.593-9.85,6.593-9.85,0s9.85-6.593,9.85,0" transform="translate(-632.115 -1737.471)" fill="none" stroke="#fff" stroke-miterlimit="10" stroke-width="1.285"></path>
    <path id="Path_70" d="M882.452,1770.315c0,6.593-9.85,6.593-9.85,0s9.85-6.593,9.85,0" transform="translate(-636.203 -1737.471)" fill="none" stroke="#fff" stroke-miterlimit="10" stroke-width="1.285"></path>
    <path id="Path_71" d="M900.432,1770.315c0,6.593-9.85,6.593-9.85,0s9.85-6.593,9.85,0" transform="translate(-640.285 -1737.471)" fill="none" stroke="#fff" stroke-miterlimit="10" stroke-width="1.285"></path>
    <path id="Path_72" d="M918.417,1770.315c0,6.593-9.836,6.593-9.836,0s9.836-6.593,9.836,0" transform="translate(-644.373 -1737.471)" fill="none" stroke="#fff" stroke-miterlimit="10" stroke-width="1.285"></path>
    <path id="Path_73" d="M936.413,1770.315c0,6.593-9.851,6.593-9.851,0s9.851-6.593,9.851,0" transform="translate(-648.456 -1737.471)" fill="none" stroke="#fff" stroke-miterlimit="10" stroke-width="1.285"></path>
    <path id="Path_74" d="M954.408,1770.315c0,6.593-9.865,6.593-9.865,0s9.865-6.593,9.865,0" transform="translate(-652.539 -1737.471)" fill="none" stroke="#fff" stroke-miterlimit="10" stroke-width="1.285"></path>
    <path id="Path_75" d="M972.393,1770.315c0,6.593-9.851,6.593-9.851,0s9.851-6.593,9.851,0" transform="translate(-656.626 -1737.471)" fill="none" stroke="#fff" stroke-miterlimit="10" stroke-width="1.285"></path>
    <path id="Path_76" d="M990.378,1770.315c0,6.593-9.85,6.593-9.85,0s9.85-6.593,9.85,0" transform="translate(-660.711 -1737.471)" fill="none" stroke="#fff" stroke-miterlimit="10" stroke-width="1.285"></path>
    <path id="Path_77" d="M1008.378,1770.315c0,6.593-9.851,6.593-9.851,0s9.851-6.593,9.851,0" transform="translate(-664.798 -1737.471)" fill="none" stroke="#fff" stroke-miterlimit="10" stroke-width="1.285"></path>
    <path id="Path_78" d="M576.6,1788.295c0,6.593-9.851,6.593-9.851,0s9.851-6.592,9.851,0" transform="translate(-566.748 -1741.51)" fill="none" stroke="#fff" stroke-miterlimit="10" stroke-width="1.285"></path>
    <path id="Path_79" d="M594.595,1788.295c0,6.593-9.865,6.593-9.865,0s9.865-6.592,9.865,0" transform="translate(-570.831 -1741.51)" fill="none" stroke="#fff" stroke-miterlimit="10" stroke-width="1.285"></path>
    <path id="Path_80" d="M612.578,1788.295c0,6.593-9.865,6.593-9.865,0s9.865-6.592,9.865,0" transform="translate(-574.915 -1741.51)" fill="none" stroke="#fff" stroke-miterlimit="10" stroke-width="1.285"></path>
    <path id="Path_81" d="M630.563,1788.295c0,6.578-9.851,6.578-9.851,0s9.851-6.592,9.851,0" transform="translate(-579.002 -1741.51)" fill="none" stroke="#fff" stroke-miterlimit="10" stroke-width="1.285"></path>
    <path id="Path_82" d="M648.562,1788.295c0,6.578-9.85,6.578-9.85,0s9.85-6.592,9.85,0" transform="translate(-583.09 -1741.51)" fill="none" stroke="#fff" stroke-miterlimit="10" stroke-width="1.285"></path>
    <path id="Path_83" d="M666.547,1788.295c0,6.578-9.836,6.578-9.836,0s9.836-6.592,9.836,0" transform="translate(-587.177 -1741.51)" fill="none" stroke="#fff" stroke-miterlimit="10" stroke-width="1.285"></path>
    <path id="Path_84" d="M684.542,1788.295c0,6.578-9.85,6.578-9.85,0s9.85-6.592,9.85,0" transform="translate(-591.26 -1741.51)" fill="none" stroke="#fff" stroke-miterlimit="10" stroke-width="1.285"></path>
    <path id="Path_85" d="M702.527,1788.295c0,6.578-9.836,6.578-9.836,0s9.836-6.592,9.836,0" transform="translate(-595.347 -1741.51)" fill="none" stroke="#fff" stroke-miterlimit="10" stroke-width="1.285"></path>
    <path id="Path_86" d="M738.508,1788.295c0,6.578-9.851,6.578-9.851,0s9.851-6.592,9.851,0" transform="translate(-603.515 -1741.51)" fill="none" stroke="#fff" stroke-miterlimit="10" stroke-width="1.285"></path>
    <path id="Path_87" d="M774.5,1788.295c0,6.593-9.865,6.593-9.865,0s9.865-6.592,9.865,0" transform="translate(-611.686 -1741.51)" fill="none" stroke="#fff" stroke-miterlimit="10" stroke-width="1.285"></path>
    <path id="Path_88" d="M810.483,1788.295c0,6.593-9.865,6.593-9.865,0s9.865-6.592,9.865,0" transform="translate(-619.856 -1741.51)" fill="none" stroke="#fff" stroke-miterlimit="10" stroke-width="1.285"></path>
    <path id="Path_89" d="M828.463,1788.295c0,6.593-9.865,6.593-9.865,0s9.865-6.592,9.865,0" transform="translate(-623.939 -1741.51)" fill="none" stroke="#fff" stroke-miterlimit="10" stroke-width="1.285"></path>
    <path id="Path_90" d="M846.448,1788.295c0,6.578-9.85,6.578-9.85,0s9.85-6.592,9.85,0" transform="translate(-628.027 -1741.51)" fill="none" stroke="#fff" stroke-miterlimit="10" stroke-width="1.285"></path>
    <path id="Path_91" d="M864.452,1788.295c0,6.593-9.85,6.593-9.85,0s9.85-6.592,9.85,0" transform="translate(-632.115 -1741.51)" fill="none" stroke="#fff" stroke-miterlimit="10" stroke-width="1.285"></path>
    <path id="Path_92" d="M882.452,1788.295c0,6.578-9.85,6.578-9.85,0s9.85-6.592,9.85,0" transform="translate(-636.203 -1741.51)" fill="none" stroke="#fff" stroke-miterlimit="10" stroke-width="1.285"></path>
    <path id="Path_93" d="M900.432,1788.295c0,6.578-9.85,6.578-9.85,0s9.85-6.592,9.85,0" transform="translate(-640.285 -1741.51)" fill="none" stroke="#fff" stroke-miterlimit="10" stroke-width="1.285"></path>
    <path id="Path_94" d="M918.417,1788.295c0,6.578-9.836,6.578-9.836,0s9.836-6.592,9.836,0" transform="translate(-644.373 -1741.51)" fill="none" stroke="#fff" stroke-miterlimit="10" stroke-width="1.285"></path>
    <path id="Path_95" d="M936.413,1788.295c0,6.593-9.851,6.593-9.851,0s9.851-6.592,9.851,0" transform="translate(-648.456 -1741.51)" fill="none" stroke="#fff" stroke-miterlimit="10" stroke-width="1.285"></path>
    <path id="Path_96" d="M954.408,1788.295c0,6.593-9.865,6.593-9.865,0s9.865-6.592,9.865,0" transform="translate(-652.539 -1741.51)" fill="none" stroke="#fff" stroke-miterlimit="10" stroke-width="1.285"></path>
    <path id="Path_97" d="M972.393,1788.295c0,6.578-9.851,6.578-9.851,0s9.851-6.592,9.851,0" transform="translate(-656.626 -1741.51)" fill="none" stroke="#fff" stroke-miterlimit="10" stroke-width="1.285"></path>
    <path id="Path_98" d="M990.378,1788.295c0,6.593-9.85,6.593-9.85,0s9.85-6.592,9.85,0" transform="translate(-660.711 -1741.51)" fill="none" stroke="#fff" stroke-miterlimit="10" stroke-width="1.285"></path>
    <path id="Path_99" d="M1008.378,1788.295c0,6.593-9.851,6.593-9.851,0s9.851-6.592,9.851,0" transform="translate(-664.798 -1741.51)" fill="none" stroke="#fff" stroke-miterlimit="10" stroke-width="1.285"></path>
    <path id="Path_100" d="M576.6,1806.3c0,6.592-9.851,6.592-9.851,0s9.851-6.593,9.851,0" transform="translate(-566.748 -1745.554)" fill="none" stroke="#fff" stroke-miterlimit="10" stroke-width="1.285"></path>
    <path id="Path_101" d="M594.595,1806.3c0,6.592-9.865,6.592-9.865,0s9.865-6.593,9.865,0" transform="translate(-570.831 -1745.554)" fill="none" stroke="#fff" stroke-miterlimit="10" stroke-width="1.285"></path>
    <path id="Path_102" d="M612.578,1806.3c0,6.592-9.865,6.592-9.865,0s9.865-6.593,9.865,0" transform="translate(-574.915 -1745.554)" fill="none" stroke="#fff" stroke-miterlimit="10" stroke-width="1.285"></path>
    <path id="Path_103" d="M630.563,1806.3c0,6.578-9.851,6.578-9.851,0,0-6.593,9.851-6.593,9.851,0" transform="translate(-579.002 -1745.554)" fill="none" stroke="#fff" stroke-miterlimit="10" stroke-width="1.285"></path>
    <path id="Path_104" d="M648.562,1806.3c0,6.578-9.85,6.578-9.85,0,0-6.593,9.85-6.593,9.85,0" transform="translate(-583.09 -1745.554)" fill="none" stroke="#fff" stroke-miterlimit="10" stroke-width="1.285"></path>
    <path id="Path_105" d="M666.547,1806.3c0,6.578-9.836,6.578-9.836,0,0-6.593,9.836-6.593,9.836,0" transform="translate(-587.177 -1745.554)" fill="none" stroke="#fff" stroke-miterlimit="10" stroke-width="1.285"></path>
    <path id="Path_106" d="M684.542,1806.3c0,6.578-9.85,6.578-9.85,0,0-6.593,9.85-6.593,9.85,0" transform="translate(-591.26 -1745.554)" fill="none" stroke="#fff" stroke-miterlimit="10" stroke-width="1.285"></path>
    <path id="Path_107" d="M702.527,1806.3c0,6.578-9.836,6.578-9.836,0,0-6.593,9.836-6.593,9.836,0" transform="translate(-595.347 -1745.554)" fill="none" stroke="#fff" stroke-miterlimit="10" stroke-width="1.285"></path>
    <path id="Path_108" d="M792.487,1806.3c0,6.592-9.85,6.592-9.85,0s9.85-6.593,9.85,0" transform="translate(-615.773 -1745.554)" fill="none" stroke="#fff" stroke-miterlimit="10" stroke-width="1.285"></path>
    <path id="Path_109" d="M810.483,1806.3c0,6.592-9.865,6.592-9.865,0s9.865-6.593,9.865,0" transform="translate(-619.856 -1745.554)" fill="none" stroke="#fff" stroke-miterlimit="10" stroke-width="1.285"></path>
    <path id="Path_110" d="M828.463,1806.3c0,6.592-9.865,6.592-9.865,0s9.865-6.593,9.865,0" transform="translate(-623.939 -1745.554)" fill="none" stroke="#fff" stroke-miterlimit="10" stroke-width="1.285"></path>
    <path id="Path_111" d="M846.448,1806.3c0,6.578-9.85,6.578-9.85,0,0-6.593,9.85-6.593,9.85,0" transform="translate(-628.027 -1745.554)" fill="none" stroke="#fff" stroke-miterlimit="10" stroke-width="1.285"></path>
    <path id="Path_112" d="M864.452,1806.3c0,6.592-9.85,6.592-9.85,0s9.85-6.593,9.85,0" transform="translate(-632.115 -1745.554)" fill="none" stroke="#fff" stroke-miterlimit="10" stroke-width="1.285"></path>
    <path id="Path_113" d="M882.452,1806.3c0,6.578-9.85,6.578-9.85,0,0-6.593,9.85-6.593,9.85,0" transform="translate(-636.203 -1745.554)" fill="none" stroke="#fff" stroke-miterlimit="10" stroke-width="1.285"></path>
    <path id="Path_114" d="M900.432,1806.3c0,6.578-9.85,6.578-9.85,0,0-6.593,9.85-6.593,9.85,0" transform="translate(-640.285 -1745.554)" fill="none" stroke="#fff" stroke-miterlimit="10" stroke-width="1.285"></path>
    <path id="Path_115" d="M918.417,1806.3c0,6.578-9.836,6.578-9.836,0,0-6.593,9.836-6.593,9.836,0" transform="translate(-644.373 -1745.554)" fill="none" stroke="#fff" stroke-miterlimit="10" stroke-width="1.285"></path>
    <path id="Path_116" d="M936.413,1806.3c0,6.592-9.851,6.592-9.851,0s9.851-6.593,9.851,0" transform="translate(-648.456 -1745.554)" fill="none" stroke="#fff" stroke-miterlimit="10" stroke-width="1.285"></path>
    <path id="Path_117" d="M954.408,1806.3c0,6.592-9.865,6.592-9.865,0s9.865-6.593,9.865,0" transform="translate(-652.539 -1745.554)" fill="none" stroke="#fff" stroke-miterlimit="10" stroke-width="1.285"></path>
    <path id="Path_118" d="M972.393,1806.3c0,6.578-9.851,6.578-9.851,0,0-6.593,9.851-6.593,9.851,0" transform="translate(-656.626 -1745.554)" fill="none" stroke="#fff" stroke-miterlimit="10" stroke-width="1.285"></path>
    <path id="Path_119" d="M990.378,1806.3c0,6.592-9.85,6.592-9.85,0s9.85-6.593,9.85,0" transform="translate(-660.711 -1745.554)" fill="none" stroke="#fff" stroke-miterlimit="10" stroke-width="1.285"></path>
    <path id="Path_120" d="M1008.378,1806.3c0,6.592-9.851,6.592-9.851,0s9.851-6.593,9.851,0" transform="translate(-664.798 -1745.554)" fill="none" stroke="#fff" stroke-miterlimit="10" stroke-width="1.285"></path>
    <path id="Path_121" d="M630.563,1824.283c0,6.593-9.851,6.593-9.851,0,0-6.578,9.851-6.578,9.851,0" transform="translate(-579.002 -1749.596)" fill="none" stroke="#fff" stroke-miterlimit="10" stroke-width="1.285"></path>
    <path id="Path_122" d="M648.562,1824.283c0,6.593-9.85,6.593-9.85,0,0-6.578,9.85-6.578,9.85,0" transform="translate(-583.09 -1749.596)" fill="none" stroke="#fff" stroke-miterlimit="10" stroke-width="1.285"></path>
    <path id="Path_123" d="M666.547,1824.283c0,6.593-9.836,6.593-9.836,0,0-6.578,9.836-6.578,9.836,0" transform="translate(-587.177 -1749.596)" fill="none" stroke="#fff" stroke-miterlimit="10" stroke-width="1.285"></path>
    <path id="Path_124" d="M684.542,1824.283c0,6.593-9.85,6.593-9.85,0,0-6.578,9.85-6.578,9.85,0" transform="translate(-591.26 -1749.596)" fill="none" stroke="#fff" stroke-miterlimit="10" stroke-width="1.285"></path>
    <path id="Path_125" d="M702.527,1824.283c0,6.593-9.836,6.593-9.836,0,0-6.578,9.836-6.578,9.836,0" transform="translate(-595.347 -1749.596)" fill="none" stroke="#fff" stroke-miterlimit="10" stroke-width="1.285"></path>
    <path id="Path_126" d="M720.522,1824.283c0,6.593-9.85,6.593-9.85,0,0-6.578,9.85-6.578,9.85,0" transform="translate(-599.431 -1749.596)" fill="none" stroke="#fff" stroke-miterlimit="10" stroke-width="1.285"></path>
    <path id="Path_127" d="M792.487,1824.28c0,6.593-9.85,6.593-9.85,0s9.85-6.593,9.85,0" transform="translate(-615.773 -1749.593)" fill="none" stroke="#fff" stroke-miterlimit="10" stroke-width="1.285"></path>
    <path id="Path_128" d="M810.483,1824.28c0,6.593-9.865,6.593-9.865,0s9.865-6.593,9.865,0" transform="translate(-619.856 -1749.593)" fill="none" stroke="#fff" stroke-miterlimit="10" stroke-width="1.285"></path>
    <path id="Path_129" d="M828.463,1824.28c0,6.593-9.865,6.593-9.865,0s9.865-6.593,9.865,0" transform="translate(-623.939 -1749.593)" fill="none" stroke="#fff" stroke-miterlimit="10" stroke-width="1.285"></path>
    <path id="Path_130" d="M846.448,1824.283c0,6.593-9.85,6.593-9.85,0,0-6.578,9.85-6.578,9.85,0" transform="translate(-628.027 -1749.596)" fill="none" stroke="#fff" stroke-miterlimit="10" stroke-width="1.285"></path>
    <path id="Path_131" d="M864.452,1824.28c0,6.593-9.85,6.593-9.85,0s9.85-6.593,9.85,0" transform="translate(-632.115 -1749.593)" fill="none" stroke="#fff" stroke-miterlimit="10" stroke-width="1.285"></path>
    <path id="Path_132" d="M882.452,1824.283c0,6.593-9.85,6.593-9.85,0,0-6.578,9.85-6.578,9.85,0" transform="translate(-636.203 -1749.596)" fill="none" stroke="#fff" stroke-miterlimit="10" stroke-width="1.285"></path>
    <path id="Path_133" d="M900.432,1824.283c0,6.593-9.85,6.593-9.85,0,0-6.578,9.85-6.578,9.85,0" transform="translate(-640.285 -1749.596)" fill="none" stroke="#fff" stroke-miterlimit="10" stroke-width="1.285"></path>
    <path id="Path_134" d="M918.417,1824.283c0,6.593-9.836,6.593-9.836,0,0-6.578,9.836-6.578,9.836,0" transform="translate(-644.373 -1749.596)" fill="none" stroke="#fff" stroke-miterlimit="10" stroke-width="1.285"></path>
    <path id="Path_135" d="M936.413,1824.28c0,6.593-9.851,6.593-9.851,0s9.851-6.593,9.851,0" transform="translate(-648.456 -1749.593)" fill="none" stroke="#fff" stroke-miterlimit="10" stroke-width="1.285"></path>
    <path id="Path_136" d="M954.408,1824.28c0,6.593-9.865,6.593-9.865,0s9.865-6.593,9.865,0" transform="translate(-652.539 -1749.593)" fill="none" stroke="#fff" stroke-miterlimit="10" stroke-width="1.285"></path>
    <path id="Path_137" d="M972.393,1824.283c0,6.593-9.851,6.593-9.851,0,0-6.578,9.851-6.578,9.851,0" transform="translate(-656.626 -1749.596)" fill="none" stroke="#fff" stroke-miterlimit="10" stroke-width="1.285"></path>
    <path id="Path_138" d="M1008.378,1824.28c0,6.593-9.851,6.593-9.851,0s9.851-6.593,9.851,0" transform="translate(-664.798 -1749.593)" fill="none" stroke="#fff" stroke-miterlimit="10" stroke-width="1.285"></path>
    <path id="Path_139" d="M630.563,1842.28c0,6.578-9.851,6.578-9.851,0,0-6.593,9.851-6.593,9.851,0" transform="translate(-579.002 -1753.636)" fill="none" stroke="#fff" stroke-miterlimit="10" stroke-width="1.285"></path>
    <path id="Path_140" d="M648.562,1842.28c0,6.578-9.85,6.578-9.85,0,0-6.593,9.85-6.593,9.85,0" transform="translate(-583.09 -1753.636)" fill="none" stroke="#fff" stroke-miterlimit="10" stroke-width="1.285"></path>
    <path id="Path_141" d="M666.547,1842.28c0,6.578-9.836,6.578-9.836,0,0-6.593,9.836-6.593,9.836,0" transform="translate(-587.177 -1753.636)" fill="none" stroke="#fff" stroke-miterlimit="10" stroke-width="1.285"></path>
    <path id="Path_142" d="M684.542,1842.28c0,6.578-9.85,6.578-9.85,0,0-6.593,9.85-6.593,9.85,0" transform="translate(-591.26 -1753.636)" fill="none" stroke="#fff" stroke-miterlimit="10" stroke-width="1.285"></path>
    <path id="Path_143" d="M702.527,1842.28c0,6.578-9.836,6.578-9.836,0,0-6.593,9.836-6.593,9.836,0" transform="translate(-595.347 -1753.636)" fill="none" stroke="#fff" stroke-miterlimit="10" stroke-width="1.285"></path>
    <path id="Path_144" d="M792.487,1842.28c0,6.593-9.85,6.593-9.85,0s9.85-6.593,9.85,0" transform="translate(-615.773 -1753.636)" fill="none" stroke="#fff" stroke-miterlimit="10" stroke-width="1.285"></path>
    <path id="Path_145" d="M828.463,1842.28c0,6.593-9.865,6.593-9.865,0s9.865-6.593,9.865,0" transform="translate(-623.939 -1753.636)" fill="none" stroke="#fff" stroke-miterlimit="10" stroke-width="1.285"></path>
    <path id="Path_146" d="M846.448,1842.28c0,6.578-9.85,6.578-9.85,0,0-6.593,9.85-6.593,9.85,0" transform="translate(-628.027 -1753.636)" fill="none" stroke="#fff" stroke-miterlimit="10" stroke-width="1.285"></path>
    <path id="Path_147" d="M864.452,1842.28c0,6.593-9.85,6.593-9.85,0s9.85-6.593,9.85,0" transform="translate(-632.115 -1753.636)" fill="none" stroke="#fff" stroke-miterlimit="10" stroke-width="1.285"></path>
    <path id="Path_148" d="M882.452,1842.28c0,6.578-9.85,6.578-9.85,0,0-6.593,9.85-6.593,9.85,0" transform="translate(-636.203 -1753.636)" fill="none" stroke="#fff" stroke-miterlimit="10" stroke-width="1.285"></path>
    <path id="Path_149" d="M900.432,1842.28c0,6.578-9.85,6.578-9.85,0,0-6.593,9.85-6.593,9.85,0" transform="translate(-640.285 -1753.636)" fill="none" stroke="#fff" stroke-miterlimit="10" stroke-width="1.285"></path>
    <path id="Path_150" d="M918.417,1842.28c0,6.578-9.836,6.578-9.836,0,0-6.593,9.836-6.593,9.836,0" transform="translate(-644.373 -1753.636)" fill="none" stroke="#fff" stroke-miterlimit="10" stroke-width="1.285"></path>
    <path id="Path_151" d="M936.413,1842.28c0,6.593-9.851,6.593-9.851,0s9.851-6.593,9.851,0" transform="translate(-648.456 -1753.636)" fill="none" stroke="#fff" stroke-miterlimit="10" stroke-width="1.285"></path>
    <path id="Path_152" d="M954.408,1842.28c0,6.593-9.865,6.593-9.865,0s9.865-6.593,9.865,0" transform="translate(-652.539 -1753.636)" fill="none" stroke="#fff" stroke-miterlimit="10" stroke-width="1.285"></path>
    <path id="Path_153" d="M972.393,1842.28c0,6.578-9.851,6.578-9.851,0,0-6.593,9.851-6.593,9.851,0" transform="translate(-656.626 -1753.636)" fill="none" stroke="#fff" stroke-miterlimit="10" stroke-width="1.285"></path>
    <path id="Path_154" d="M990.378,1842.28c0,6.593-9.85,6.593-9.85,0s9.85-6.593,9.85,0" transform="translate(-660.711 -1753.636)" fill="none" stroke="#fff" stroke-miterlimit="10" stroke-width="1.285"></path>
    <path id="Path_155" d="M648.562,1860.26c0,6.593-9.85,6.593-9.85,0s9.85-6.592,9.85,0" transform="translate(-583.09 -1757.674)" fill="none" stroke="#fff" stroke-miterlimit="10" stroke-width="1.285"></path>
    <path id="Path_156" d="M666.547,1860.26c0,6.593-9.836,6.593-9.836,0s9.836-6.592,9.836,0" transform="translate(-587.177 -1757.674)" fill="none" stroke="#fff" stroke-miterlimit="10" stroke-width="1.285"></path>
    <path id="Path_157" d="M684.542,1860.26c0,6.593-9.85,6.593-9.85,0s9.85-6.592,9.85,0" transform="translate(-591.26 -1757.674)" fill="none" stroke="#fff" stroke-miterlimit="10" stroke-width="1.285"></path>
    <path id="Path_158" d="M774.5,1860.26c0,6.593-9.865,6.593-9.865,0s9.865-6.592,9.865,0" transform="translate(-611.686 -1757.674)" fill="none" stroke="#fff" stroke-miterlimit="10" stroke-width="1.285"></path>
    <path id="Path_159" d="M792.487,1860.26c0,6.593-9.85,6.593-9.85,0s9.85-6.592,9.85,0" transform="translate(-615.773 -1757.674)" fill="none" stroke="#fff" stroke-miterlimit="10" stroke-width="1.285"></path>
    <path id="Path_160" d="M810.483,1860.26c0,6.593-9.865,6.593-9.865,0s9.865-6.592,9.865,0" transform="translate(-619.856 -1757.674)" fill="none" stroke="#fff" stroke-miterlimit="10" stroke-width="1.285"></path>
    <path id="Path_161" d="M828.463,1860.26c0,6.593-9.865,6.593-9.865,0s9.865-6.592,9.865,0" transform="translate(-623.939 -1757.674)" fill="none" stroke="#fff" stroke-miterlimit="10" stroke-width="1.285"></path>
    <path id="Path_162" d="M846.448,1860.26c0,6.593-9.85,6.593-9.85,0s9.85-6.592,9.85,0" transform="translate(-628.027 -1757.674)" fill="none" stroke="#fff" stroke-miterlimit="10" stroke-width="1.285"></path>
    <path id="Path_163" d="M864.452,1860.26c0,6.593-9.85,6.593-9.85,0s9.85-6.592,9.85,0" transform="translate(-632.115 -1757.674)" fill="none" stroke="#fff" stroke-miterlimit="10" stroke-width="1.285"></path>
    <path id="Path_164" d="M882.452,1860.26c0,6.593-9.85,6.593-9.85,0s9.85-6.592,9.85,0" transform="translate(-636.203 -1757.674)" fill="none" stroke="#fff" stroke-miterlimit="10" stroke-width="1.285"></path>
    <path id="Path_165" d="M900.432,1860.26c0,6.593-9.85,6.593-9.85,0s9.85-6.592,9.85,0" transform="translate(-640.285 -1757.674)" fill="none" stroke="#fff" stroke-miterlimit="10" stroke-width="1.285"></path>
    <path id="Path_166" d="M918.417,1860.26c0,6.593-9.836,6.593-9.836,0s9.836-6.592,9.836,0" transform="translate(-644.373 -1757.674)" fill="none" stroke="#fff" stroke-miterlimit="10" stroke-width="1.285"></path>
    <path id="Path_167" d="M936.413,1860.26c0,6.593-9.851,6.593-9.851,0s9.851-6.592,9.851,0" transform="translate(-648.456 -1757.674)" fill="none" stroke="#fff" stroke-miterlimit="10" stroke-width="1.285"></path>
    <path id="Path_168" d="M954.408,1860.26c0,6.593-9.865,6.593-9.865,0s9.865-6.592,9.865,0" transform="translate(-652.539 -1757.674)" fill="none" stroke="#fff" stroke-miterlimit="10" stroke-width="1.285"></path>
    <path id="Path_169" d="M972.393,1860.26c0,6.593-9.851,6.593-9.851,0s9.851-6.592,9.851,0" transform="translate(-656.626 -1757.674)" fill="none" stroke="#fff" stroke-miterlimit="10" stroke-width="1.285"></path>
    <path id="Path_170" d="M666.543,1878.259a4.925,4.925,0,1,1-4.918-4.948A4.93,4.93,0,0,1,666.543,1878.259Z" transform="translate(-587.173 -1761.717)" fill="none" stroke="#fff" stroke-miterlimit="10" stroke-width="1.285"></path>
    <path id="Path_171" d="M684.542,1878.259a4.925,4.925,0,1,1-4.932-4.948A4.933,4.933,0,0,1,684.542,1878.259Z" transform="translate(-591.26 -1761.717)" fill="none" stroke="#fff" stroke-miterlimit="10" stroke-width="1.285"></path>
    <path id="Path_172" d="M702.523,1878.259a4.925,4.925,0,1,1-4.918-4.948A4.93,4.93,0,0,1,702.523,1878.259Z" transform="translate(-595.343 -1761.717)" fill="none" stroke="#fff" stroke-miterlimit="10" stroke-width="1.285"></path>
    <path id="Path_173" d="M774.507,1878.259a4.925,4.925,0,1,1-4.918-4.948A4.93,4.93,0,0,1,774.507,1878.259Z" transform="translate(-611.69 -1761.717)" fill="none" stroke="#fff" stroke-miterlimit="10" stroke-width="1.285"></path>
    <path id="Path_174" d="M792.487,1878.259a4.925,4.925,0,1,1-4.932-4.948A4.933,4.933,0,0,1,792.487,1878.259Z" transform="translate(-615.773 -1761.717)" fill="none" stroke="#fff" stroke-miterlimit="10" stroke-width="1.285"></path>
    <path id="Path_175" d="M810.483,1878.259a4.932,4.932,0,1,1-4.932-4.948A4.933,4.933,0,0,1,810.483,1878.259Z" transform="translate(-619.856 -1761.717)" fill="none" stroke="#fff" stroke-miterlimit="10" stroke-width="1.285"></path>
    <path id="Path_176" d="M828.448,1878.259a4.925,4.925,0,1,1-4.918-4.948A4.93,4.93,0,0,1,828.448,1878.259Z" transform="translate(-623.939 -1761.717)" fill="none" stroke="#fff" stroke-miterlimit="10" stroke-width="1.285"></path>
    <path id="Path_177" d="M846.448,1878.259a4.925,4.925,0,1,1-4.933-4.948A4.943,4.943,0,0,1,846.448,1878.259Z" transform="translate(-628.027 -1761.717)" fill="none" stroke="#fff" stroke-miterlimit="10" stroke-width="1.285"></path>
    <path id="Path_178" d="M864.456,1878.259a4.918,4.918,0,1,1-4.917-4.948A4.93,4.93,0,0,1,864.456,1878.259Z" transform="translate(-632.119 -1761.717)" fill="none" stroke="#fff" stroke-miterlimit="10" stroke-width="1.285"></path>
    <path id="Path_179" d="M900.436,1878.259a4.918,4.918,0,1,1-4.917-4.948A4.93,4.93,0,0,1,900.436,1878.259Z" transform="translate(-640.29 -1761.717)" fill="none" stroke="#fff" stroke-miterlimit="10" stroke-width="1.285"></path>
    <path id="Path_180" d="M936.408,1878.259a4.933,4.933,0,1,1-4.933-4.948A4.933,4.933,0,0,1,936.408,1878.259Z" transform="translate(-648.452 -1761.717)" fill="none" stroke="#fff" stroke-miterlimit="10" stroke-width="1.285"></path>
    <path id="Path_181" d="M954.393,1878.259a4.925,4.925,0,1,1-4.918-4.948A4.93,4.93,0,0,1,954.393,1878.259Z" transform="translate(-652.539 -1761.717)" fill="none" stroke="#fff" stroke-miterlimit="10" stroke-width="1.285"></path>
    <path id="Path_182" d="M702.527,1896.244c0,6.592-9.836,6.592-9.836,0s9.836-6.578,9.836,0" transform="translate(-595.347 -1765.76)" fill="none" stroke="#fff" stroke-miterlimit="10" stroke-width="1.285"></path>
    <path id="Path_183" d="M720.522,1896.244c0,6.592-9.85,6.592-9.85,0s9.85-6.578,9.85,0" transform="translate(-599.431 -1765.76)" fill="none" stroke="#fff" stroke-miterlimit="10" stroke-width="1.285"></path>
    <path id="Path_184" d="M792.487,1896.241c0,6.592-9.85,6.592-9.85,0s9.85-6.593,9.85,0" transform="translate(-615.773 -1765.756)" fill="none" stroke="#fff" stroke-miterlimit="10" stroke-width="1.285"></path>
    <path id="Path_185" d="M810.483,1896.241c0,6.592-9.865,6.592-9.865,0s9.865-6.593,9.865,0" transform="translate(-619.856 -1765.756)" fill="none" stroke="#fff" stroke-miterlimit="10" stroke-width="1.285"></path>
    <path id="Path_186" d="M828.463,1896.241c0,6.592-9.865,6.592-9.865,0s9.865-6.593,9.865,0" transform="translate(-623.939 -1765.756)" fill="none" stroke="#fff" stroke-miterlimit="10" stroke-width="1.285"></path>
    <path id="Path_187" d="M846.448,1896.244c0,6.592-9.85,6.592-9.85,0s9.85-6.578,9.85,0" transform="translate(-628.027 -1765.76)" fill="none" stroke="#fff" stroke-miterlimit="10" stroke-width="1.285"></path>
    <path id="Path_188" d="M702.527,1914.24c0,6.593-9.836,6.593-9.836,0s9.836-6.592,9.836,0" transform="translate(-595.347 -1769.799)" fill="none" stroke="#fff" stroke-miterlimit="10" stroke-width="1.285"></path>
    <path id="Path_189" d="M720.522,1914.24c0,6.593-9.85,6.593-9.85,0s9.85-6.592,9.85,0" transform="translate(-599.431 -1769.799)" fill="none" stroke="#fff" stroke-miterlimit="10" stroke-width="1.285"></path>
    <path id="Path_190" d="M684.542,1914.24c0,6.593-9.85,6.593-9.85,0s9.85-6.592,9.85,0" transform="translate(-591.26 -1769.799)" fill="none" stroke="#fff" stroke-miterlimit="10" stroke-width="1.285"></path>
    <path id="Path_191" d="M738.508,1914.24c0,6.593-9.851,6.593-9.851,0s9.851-6.592,9.851,0" transform="translate(-603.515 -1769.799)" fill="none" stroke="#fff" stroke-miterlimit="10" stroke-width="1.285"></path>
    <path id="Path_192" d="M810.483,1914.24c0,6.593-9.865,6.593-9.865,0s9.865-6.592,9.865,0" transform="translate(-619.856 -1769.799)" fill="none" stroke="#fff" stroke-miterlimit="10" stroke-width="1.285"></path>
    <path id="Path_193" d="M828.448,1914.239a4.925,4.925,0,1,1-4.918-4.948A4.93,4.93,0,0,1,828.448,1914.239Z" transform="translate(-623.939 -1769.798)" fill="none" stroke="#fff" stroke-miterlimit="10" stroke-width="1.285"></path>
    <path id="Path_194" d="M846.448,1914.24c0,6.593-9.85,6.593-9.85,0s9.85-6.592,9.85,0" transform="translate(-628.027 -1769.799)" fill="none" stroke="#fff" stroke-miterlimit="10" stroke-width="1.285"></path>
    <path id="Path_195" d="M936.413,1914.24c0,6.593-9.851,6.593-9.851,0s9.851-6.592,9.851,0" transform="translate(-648.456 -1769.799)" fill="none" stroke="#fff" stroke-miterlimit="10" stroke-width="1.285"></path>
    <path id="Path_196" d="M954.408,1914.24c0,6.593-9.865,6.593-9.865,0s9.865-6.592,9.865,0" transform="translate(-652.539 -1769.799)" fill="none" stroke="#fff" stroke-miterlimit="10" stroke-width="1.285"></path>
    <path id="Path_197" d="M972.393,1914.24c0,6.593-9.851,6.593-9.851,0s9.851-6.592,9.851,0" transform="translate(-656.626 -1769.799)" fill="none" stroke="#fff" stroke-miterlimit="10" stroke-width="1.285"></path>
    <path id="Path_198" d="M990.378,1914.24c0,6.593-9.85,6.593-9.85,0s9.85-6.592,9.85,0" transform="translate(-660.711 -1769.799)" fill="none" stroke="#fff" stroke-miterlimit="10" stroke-width="1.285"></path>
    <path id="Path_199" d="M702.527,1932.24c0,6.578-9.836,6.578-9.836,0s9.836-6.593,9.836,0" transform="translate(-595.347 -1773.842)" fill="none" stroke="#fff" stroke-miterlimit="10" stroke-width="1.285"></path>
    <path id="Path_200" d="M720.522,1932.24c0,6.578-9.85,6.578-9.85,0s9.85-6.593,9.85,0" transform="translate(-599.431 -1773.842)" fill="none" stroke="#fff" stroke-miterlimit="10" stroke-width="1.285"></path>
    <path id="Path_201" d="M738.508,1932.24c0,6.578-9.851,6.578-9.851,0s9.851-6.593,9.851,0" transform="translate(-603.515 -1773.842)" fill="none" stroke="#fff" stroke-miterlimit="10" stroke-width="1.285"></path>
    <path id="Path_202" d="M810.483,1932.24c0,6.592-9.865,6.592-9.865,0s9.865-6.593,9.865,0" transform="translate(-619.856 -1773.842)" fill="none" stroke="#fff" stroke-miterlimit="10" stroke-width="1.285"></path>
    <path id="Path_203" d="M828.448,1932.239a4.925,4.925,0,1,1-4.918-4.949A4.93,4.93,0,0,1,828.448,1932.239Z" transform="translate(-623.939 -1773.841)" fill="none" stroke="#fff" stroke-miterlimit="10" stroke-width="1.285"></path>
    <path id="Path_204" d="M864.452,1932.24c0,6.592-9.85,6.592-9.85,0s9.85-6.593,9.85,0" transform="translate(-632.115 -1773.842)" fill="none" stroke="#fff" stroke-miterlimit="10" stroke-width="1.285"></path>
    <path id="Path_205" d="M954.408,1932.24c0,6.592-9.865,6.592-9.865,0s9.865-6.593,9.865,0" transform="translate(-652.539 -1773.842)" fill="none" stroke="#fff" stroke-miterlimit="10" stroke-width="1.285"></path>
    <path id="Path_206" d="M972.393,1932.24c0,6.578-9.851,6.578-9.851,0s9.851-6.593,9.851,0" transform="translate(-656.626 -1773.842)" fill="none" stroke="#fff" stroke-miterlimit="10" stroke-width="1.285"></path>
    <path id="Path_207" d="M972.393,1950.225c0,6.578-9.851,6.578-9.851,0s9.851-6.592,9.851,0" transform="translate(-656.626 -1777.882)" fill="none" stroke="#fff" stroke-miterlimit="10" stroke-width="1.285"></path>
    <path id="Path_208" d="M990.378,1932.24c0,6.592-9.85,6.592-9.85,0s9.85-6.593,9.85,0" transform="translate(-660.711 -1773.842)" fill="none" stroke="#fff" stroke-miterlimit="10" stroke-width="1.285"></path>
    <path id="Path_209" d="M1008.378,1932.24c0,6.592-9.851,6.592-9.851,0s9.851-6.593,9.851,0" transform="translate(-664.798 -1773.842)" fill="none" stroke="#fff" stroke-miterlimit="10" stroke-width="1.285"></path>
    <path id="Path_210" d="M702.527,1950.225c0,6.578-9.836,6.578-9.836,0s9.836-6.592,9.836,0" transform="translate(-595.347 -1777.882)" fill="none" stroke="#fff" stroke-miterlimit="10" stroke-width="1.285"></path>
    <path id="Path_211" d="M720.522,1950.225c0,6.578-9.85,6.578-9.85,0s9.85-6.592,9.85,0" transform="translate(-599.431 -1777.882)" fill="none" stroke="#fff" stroke-miterlimit="10" stroke-width="1.285"></path>
    <path id="Path_212" d="M828.463,1950.225c0,6.593-9.865,6.593-9.865,0s9.865-6.592,9.865,0" transform="translate(-623.939 -1777.882)" fill="none" stroke="#fff" stroke-miterlimit="10" stroke-width="1.285"></path>
    <path id="Path_213" d="M954.408,1950.225c0,6.593-9.865,6.593-9.865,0s9.865-6.592,9.865,0" transform="translate(-652.539 -1777.882)" fill="none" stroke="#fff" stroke-miterlimit="10" stroke-width="1.285"></path>
    <path id="Path_214" d="M990.378,1950.225c0,6.593-9.85,6.593-9.85,0s9.85-6.592,9.85,0" transform="translate(-660.711 -1777.882)" fill="none" stroke="#fff" stroke-miterlimit="10" stroke-width="1.285"></path>
    <path id="Path_215" d="M702.527,1968.209c0,6.592-9.836,6.592-9.836,0s9.836-6.579,9.836,0" transform="translate(-595.347 -1781.924)" fill="none" stroke="#fff" stroke-miterlimit="10" stroke-width="1.285"></path>
    <path id="Path_216" d="M702.527,1986.2c0,6.578-9.836,6.578-9.836,0s9.836-6.593,9.836,0" transform="translate(-595.347 -1785.963)" fill="none" stroke="#fff" stroke-miterlimit="10" stroke-width="1.285"></path>
    <path id="Path_217" d="M1026.377,1770.315c0,6.593-9.85,6.593-9.85,0s9.85-6.593,9.85,0" transform="translate(-668.885 -1737.471)" fill="none" stroke="#fff" stroke-miterlimit="10" stroke-width="1.285"></path>
    <path id="Path_218" d="M1026.377,1788.295c0,6.578-9.85,6.578-9.85,0s9.85-6.592,9.85,0" transform="translate(-668.885 -1741.51)" fill="none" stroke="#fff" stroke-miterlimit="10" stroke-width="1.285"></path>
    <path id="Path_219" d="M1044.357,1788.295c0,6.578-9.851,6.578-9.851,0s9.851-6.592,9.851,0" transform="translate(-672.968 -1741.51)" fill="none" stroke="#fff" stroke-miterlimit="10" stroke-width="1.285"></path>
    <path id="Path_220" d="M1026.377,1968.209c0,6.592-9.85,6.592-9.85,0s9.85-6.579,9.85,0" transform="translate(-668.885 -1781.924)" fill="none" stroke="#fff" stroke-miterlimit="10" stroke-width="1.285"></path>
  </g>
</svg>