<svg xmlns="http://www.w3.org/2000/svg" width="230.504" height="246.374" viewBox="0 0 230.504 246.374">
  <g id="Group_80" data-name="Group 80" transform="translate(-390.827 -417.374)" opacity="0.5">
    <circle id="Ellipse_27" data-name="Ellipse 27" cx="10.894" cy="10.894" r="10.894" transform="translate(420.737 418.024)" fill="none" stroke="#fff" stroke-miterlimit="10" stroke-width="1.3"/>
    <path id="Path_250" data-name="Path 250" d="M421.441,421.912s-52.733,8.167-18,77.522c21.351,42.64,39.751,84.3,68.225,84.3" transform="translate(0 9.388)" fill="none" stroke="#fff" stroke-miterlimit="10" stroke-width="1.3"/>
    <path id="Path_251" data-name="Path 251" d="M465.271,421.912s52.737,8.167,18,77.522c-21.354,42.64-39.751,84.3-68.228,84.3" transform="translate(56.617 9.388)" fill="none" stroke="#fff" stroke-miterlimit="10" stroke-width="1.3"/>
    <circle id="Ellipse_28" data-name="Ellipse 28" cx="10.894" cy="10.894" r="10.894" transform="translate(500.804 418.024)" fill="none" stroke="#fff" stroke-miterlimit="10" stroke-width="1.3"/>
    <circle id="Ellipse_29" data-name="Ellipse 29" cx="14.571" cy="14.571" r="14.571" transform="translate(591.539 606.744)" fill="none" stroke="#fff" stroke-miterlimit="10" stroke-width="1.3"/>
    <path id="Path_252" data-name="Path 252" d="M549.493,517.311V489.569a34.145,34.145,0,1,0-68.289,0V539.72a33.078,33.078,0,0,1-66.155,0V503.442" transform="translate(56.617 90.302)" fill="none" stroke="#fff" stroke-miterlimit="10" stroke-width="1.3"/>
  </g>
</svg>
