<svg xmlns="http://www.w3.org/2000/svg" width="162.464" height="254.107" viewBox="0 0 162.464 254.107">
  <g id="Group_111" data-name="Group 111" transform="translate(-1266.934 -3721.713)" opacity="0.25">
    <line id="Line_21" data-name="Line 21" x2="55.338" transform="translate(1381.148 3722.276) rotate(30)" fill="none" stroke="#fff" stroke-miterlimit="10" stroke-width="1.3"/>
    <line id="Line_22" data-name="Line 22" y2="45.188" transform="translate(1396.126 3730.923) rotate(30)" fill="none" stroke="#fff" stroke-miterlimit="10" stroke-width="1.3"/>
    <line id="Line_23" data-name="Line 23" y2="45.188" transform="translate(1415.66 3742.201) rotate(30)" fill="none" stroke="#fff" stroke-miterlimit="10" stroke-width="1.3"/>
    <line id="Line_24" data-name="Line 24" x2="82.072" transform="translate(1346.978 3754.726) rotate(30)" fill="none" stroke="#fff" stroke-miterlimit="10" stroke-width="1.3"/>
    <path id="Path_254" data-name="Path 254" d="M779.424,376.421V520.667a27.75,27.75,0,0,1-27.669,27.669h0a27.748,27.748,0,0,1-27.667-27.669V376.421" transform="translate(919.133 3074.336) rotate(30)" fill="none" stroke="#fff" stroke-miterlimit="10" stroke-width="1.3"/>
    <line id="Line_25" data-name="Line 25" x1="25.251" y2="44.779" transform="translate(1267.5 3930.721)" fill="none" stroke="#fff" stroke-miterlimit="10" stroke-width="1.3"/>
    <g id="Group_86" data-name="Group 86" transform="translate(1350.053 3777.947) rotate(30)">
      <line id="Line_26" data-name="Line 26" x2="22.556" fill="none" stroke="#fff" stroke-miterlimit="10" stroke-width="1.3"/>
      <line id="Line_27" data-name="Line 27" x2="12.406" transform="translate(0 13.252)" fill="none" stroke="#fff" stroke-miterlimit="10" stroke-width="1.3"/>
      <line id="Line_28" data-name="Line 28" x2="22.556" transform="translate(0 26.503)" fill="none" stroke="#fff" stroke-miterlimit="10" stroke-width="1.3"/>
      <line id="Line_29" data-name="Line 29" x2="12.406" transform="translate(0 39.755)" fill="none" stroke="#fff" stroke-miterlimit="10" stroke-width="1.3"/>
      <line id="Line_30" data-name="Line 30" x2="22.556" transform="translate(0 53.006)" fill="none" stroke="#fff" stroke-miterlimit="10" stroke-width="1.3"/>
      <line id="Line_31" data-name="Line 31" x2="12.406" transform="translate(0 66.258)" fill="none" stroke="#fff" stroke-miterlimit="10" stroke-width="1.3"/>
      <line id="Line_32" data-name="Line 32" x2="22.556" transform="translate(0 79.51)" fill="none" stroke="#fff" stroke-miterlimit="10" stroke-width="1.3"/>
      <line id="Line_33" data-name="Line 33" x2="12.406" transform="translate(0 92.761)" fill="none" stroke="#fff" stroke-miterlimit="10" stroke-width="1.3"/>
      <line id="Line_34" data-name="Line 34" x2="22.556" transform="translate(0 107)" fill="none" stroke="#fff" stroke-miterlimit="10" stroke-width="1.3"/>
      <line id="Line_35" data-name="Line 35" x2="12.406" transform="translate(0 120.251)" fill="none" stroke="#fff" stroke-miterlimit="10" stroke-width="1.3"/>
    </g>
    <rect id="Rectangle_38" data-name="Rectangle 38" width="15.72" height="6.506" transform="translate(1289.198 3921.157) rotate(30)" fill="none" stroke="#fff" stroke-miterlimit="10" stroke-width="1.3"/>
  </g>
</svg>
