<svg xmlns="http://www.w3.org/2000/svg" viewBox="0 0 18 18"><path d="M9 0C4 0 0 4 0 9s4 9 9 9 9-4 9-9-4-9-9-9zm0 16.2C5 16.2 1.8 13 1.8 9S5 1.8 9 1.8 16.2 5 16.2 9 13 16.2 9 16.2zm.4-5.2v-.2c0-.3.1-.7.3-.9.2-.2.5-.4.8-.6.3-.3.5-.6.7-.9.3-.4.4-.8.3-1.3 0-.6-.2-1.2-.6-1.7-.3-.4-.8-.7-1.4-.8-.5-.2-1.1-.2-1.7 0-.5.1-1 .3-1.4.7-.2.1-.4.3-.5.6-.1.2-.2.5-.2.8 0 .5.1.7.4.7h1.1c0-.4.1-.8.4-1.1.4-.3.8-.4 1.3-.3.5.1.9.6.9 1.1 0 .3-.1.6-.3.8-.2.3-.4.5-.7.7-.4.2-.7.6-.9 1-.1.4-.2.9-.1 1.3h1.6zm-1.7 1.4v1.1h1.8v-1.8H8.4c-.3 0-.6.2-.6.5-.1.1-.1.2-.1.2z" fill="#40a9dc"/></svg>