<?xml version="1.0" encoding="UTF-8"?>
<svg width="18px" height="18px" viewBox="0 0 18 18" version="1.1" xmlns="http://www.w3.org/2000/svg" xmlns:xlink="http://www.w3.org/1999/xlink">
    <!-- Generator: Sketch 43.1 (39012) - http://www.bohemiancoding.com/sketch -->
    <title>bounds</title>
    <desc>Created with Sketch.</desc>
    <defs/>
    <g id="Page-1" stroke="none" stroke-width="1" fill="none" fill-rule="evenodd">
        <g id="ic_calendar_18-copy">
            <rect id="bounds" fill="rgb(102, 102, 102)" opacity="0" x="0" y="0" width="18" height="18"/>
            <g id="ic_calendar" transform="translate(1.000000, 1.000000)" fill="rgb(102, 102, 102)">
                <path d="M0,3.19559322 C0,2.53278234 0.532348633,1.99546795 1.20260048,1.99546795 L14.7973995,1.99546795 C15.4615774,1.99546795 16,2.53769984 16,3.19559322 L16,13.7998747 C16,14.4626856 15.4676514,15 14.7973995,15 L1.20260048,15 C0.538422574,15 0,14.4577681 0,13.7998747 L0,3.19559322 Z M2,6 L2,13 L14,13 L14,6 L2,6 Z" id="Rectangle"/>
                <rect id="Rectangle-533" x="3" y="0" width="2" height="3"/>
                <rect id="Rectangle-533-Copy" x="11" y="0" width="2" height="3"/>
                <rect id="Rectangle-3" x="3" y="7" width="3" height="3"/>
            </g>
        </g>
    </g>
</svg>