<?xml version="1.0" encoding="UTF-8"?>
<svg width="64px" height="64px" viewBox="0 0 64 64" version="1.1" xmlns="http://www.w3.org/2000/svg" xmlns:xlink="http://www.w3.org/1999/xlink">
    <!-- Generator: Sketch 43.1 (39012) - http://www.bohemiancoding.com/sketch -->
    <title>ic_ncc</title>
    <desc>Created with Sketch.</desc>
    <defs/>
    <g id="Page-1" stroke="none" stroke-width="1" fill="none" fill-rule="evenodd">
        <g id="ic_nc" fill-rule="nonzero">
            <path d="M31.942,0 C40.932,0 48.513,3.085 54.685,9.256 C60.893,15.428 64,23.009 64,32 C64,40.992 60.952,48.476 54.855,54.458 C48.38,60.82 40.741,64 31.942,64 C23.256,64 15.752,60.838 9.429,54.515 C3.144,48.228 0,40.725 0,32 C0,23.238 3.144,15.657 9.429,9.257 C15.6,3.086 23.104,0 31.942,0 Z M7.2,23.372 C6.248,26 5.771,28.877 5.771,32.001 C5.771,39.087 8.361,45.221 13.541,50.401 C18.76,55.545 24.932,58.116 32.055,58.116 C39.256,58.116 45.464,55.508 50.685,50.287 C52.552,48.497 54.017,46.63 55.083,44.685 L43.027,39.314 C42.606,41.334 41.588,42.981 39.97,44.256 C38.348,45.532 36.435,46.267 34.226,46.456 L34.226,51.371 L30.512,51.371 L30.512,46.456 C26.969,46.42 23.73,45.144 20.798,42.629 L25.198,38.172 C27.292,40.114 29.674,41.085 32.341,41.085 C33.445,41.085 34.389,40.839 35.171,40.342 C35.951,39.848 36.343,39.03 36.343,37.885 C36.343,37.084 36.056,36.437 35.485,35.942 L32.4,34.627 L28.629,32.912 L23.543,30.683 L7.2,23.372 Z M32.057,5.714 C24.781,5.714 18.629,8.285 13.6,13.428 C12.342,14.686 11.161,16.114 10.057,17.715 L22.286,23.2 C22.819,21.524 23.828,20.181 25.315,19.172 C26.799,18.163 28.533,17.601 30.515,17.486 L30.515,12.571 L34.23,12.571 L34.23,17.486 C37.164,17.639 39.83,18.629 42.23,20.457 L38.058,24.743 C36.265,23.486 34.439,22.858 32.572,22.858 C31.581,22.858 30.696,23.049 29.916,23.429 C29.135,23.81 28.744,24.458 28.744,25.372 C28.744,25.639 28.839,25.905 29.029,26.172 L33.086,28.002 L35.886,29.259 L41.03,31.544 L57.427,38.858 C57.962,36.61 58.228,34.325 58.228,32.001 C58.228,24.648 55.676,18.458 50.572,13.428 C45.505,8.285 39.331,5.714 32.057,5.714 Z" id="Shape" fill="rgb(51, 51, 51)"/>
        </g>
    </g>
</svg>
