<?xml version="1.0" encoding="UTF-8"?>
<svg width="64px" height="64px" viewBox="0 0 64 64" version="1.1" xmlns="http://www.w3.org/2000/svg" xmlns:xlink="http://www.w3.org/1999/xlink">
    <!-- Generator: Sketch 43.1 (39012) - http://www.bohemiancoding.com/sketch -->
    <title>ic_nc</title>
    <desc>Created with Sketch.</desc>
    <defs/>
    <g id="Page-1" stroke="none" stroke-width="1" fill="none" fill-rule="evenodd">
        <g id="ic_nc">
            <path d="M31.943,0 C40.894,0 48.474,3.105 54.685,9.315 C60.893,15.487 64,23.048 64,32 C64,40.954 60.951,48.457 54.855,54.514 C48.418,60.838 40.779,64 31.943,64 C23.294,64 15.79,60.857 9.429,54.571 C3.144,48.286 0,40.764 0,32.001 C0,23.278 3.144,15.716 9.429,9.316 C15.638,3.105 23.143,0 31.943,0 Z M32.057,5.772 C24.781,5.772 18.629,8.344 13.6,13.487 C8.38,18.783 5.771,24.954 5.771,32 C5.771,39.125 8.361,45.257 13.541,50.4 C18.722,55.582 24.893,58.171 32.055,58.171 C39.178,58.171 45.389,55.562 50.684,50.343 C55.713,45.467 58.227,39.353 58.227,32 C58.227,24.687 55.674,18.515 50.571,13.487 C45.504,8.342 39.332,5.772 32.057,5.772 Z" id="Shape" fill="rgb(51, 51, 51)" fill-rule="nonzero"/>
            <polygon id="Path" fill="rgb(51, 51, 51)" points="44 24 44 30 20 30 20 24"/>
            <polygon id="Path" fill="rgb(51, 51, 51)" points="44 34 44 40 20 40 20 34"/>
        </g>
    </g>
</svg>
