<?xml version="1.0" encoding="UTF-8" standalone="no"?>
<svg width="16px" height="16px" viewBox="0 0 16 16" version="1.1" xmlns="http://www.w3.org/2000/svg" xmlns:xlink="http://www.w3.org/1999/xlink" xmlns:sketch="http://www.bohemiancoding.com/sketch/ns">
    <!-- Generator: Sketch 3.0.3 (7891) - http://www.bohemiancoding.com/sketch -->
    <title>Imported Layers</title>
    <desc>Created with Sketch.</desc>
    <defs/>
    <g id="Page-1" stroke="none" stroke-width="1" fill="none" fill-rule="evenodd" sketch:type="MSPage">
        <g id="delete" sketch:type="MSLayerGroup" fill="rgb(34, 34, 34)">
            <path d="M9.96805255,3 C10.3028351,3 10.6403737,3 10.9819336,3 C13,3.00000001 13,5 13,5 L3,5 C3,5 3.08959961,3 5.08789062,3 C5.40496885,3 5.71901052,3 6.03105828,3 C6.55137992,2.38549883 7.35465083,1.999 8,1.999 C8.64306394,1.999 9.44697409,2.38549883 9.96805255,3 Z M4,6 L4,12.0018986 C4,13.1054196 4.88670635,14 5.99810135,14 L10.0018986,14 C11.1054196,14 12,13.1132936 12,12.0018986 L12,6 L4,6 Z" id="Rectangle-27" sketch:type="MSShapeGroup"/>
        </g>
    </g>
</svg>
