<?xml version="1.0" encoding="UTF-8"?>
<svg width="18px" height="18px" viewBox="0 0 18 18" version="1.1" xmlns="http://www.w3.org/2000/svg" xmlns:xlink="http://www.w3.org/1999/xlink">
    <!-- Generator: Sketch 43.1 (39012) - http://www.bohemiancoding.com/sketch -->
    <title>ic_duration_18 </title>
    <desc>Created with Sketch.</desc>
    <defs/>
    <g id="Page-1" stroke="none" stroke-width="1" fill="none" fill-rule="evenodd">
        <g id="ic_duration-copy" fill="rgb(153, 153, 153)">
            <g id="ic_duration_18" transform="translate(1.000000, 1.000000)">
                <path d="M8,0.0974121094 L8,8 L13.5410156,13.0708008 C13.5410156,13.0708008 15.1330566,7.92449541 14.2573242,5.74047852 C11.9689482,0.0334249516 8,0.0974121094 8,0.0974121094 Z" id="time" fill-opacity="0.7"/>
                <path d="M7,13 L9,13 L9,15 L7,15 L7,13 Z M1,7 L3,7 L3,9 L1,9 L1,7 Z" id="Combined-Shape"/>
                <path d="M7.98525,0 C10.22325,0 12.1285,0.78125 13.69975,2.343 C14.45175,3.09525 15.0235,3.95475 15.4135,4.9215 C15.80425,5.88825 16,6.91425 16,8 C16,9.09525 15.80675,10.1215 15.4215,11.07825 C15.03575,12.03525 14.4665,12.881 13.7145,13.6145 C12.93375,14.3855 12.048,14.97625 11.05725,15.386 C10.067,15.795 9.043,16 7.98575,16 C6.9285,16 5.91675,15.79775 4.95,15.3925 C3.9835,14.98825 3.11675,14.40225 2.35,13.63575 C1.58325,12.86925 1,12.005 0.6,11.043 C0.2,10.081 0,9.067 0,8 C0,6.94275 0.20225,5.92625 0.607,4.95 C1.01175,3.974 1.6,3.1 2.37125,2.3285 C3.895,0.7765 5.76625,0 7.98525,0 Z M8.01375968,1.77777778 C6.27885381,1.77777778 4.81914155,2.38471368 3.63509735,3.59787228 C3.03844916,4.20480818 2.57987223,4.88639268 2.25912934,5.64238804 C1.93791199,6.39885887 1.77777778,7.18908799 1.77777778,8.01331313 C1.77777778,8.82850435 1.93791199,9.61397878 2.25912934,10.3699741 C2.58010947,11.1269204 3.03844916,11.8013729 3.63509735,12.3945202 C4.23150831,12.9879053 4.90454646,13.4405515 5.65516073,13.7531723 C6.40506329,14.0655553 7.19150018,14.2222222 8.01375968,14.2222222 C8.82700422,14.2222222 9.61510176,14.0638911 10.3797129,13.7467534 C11.1438497,13.4296158 11.8318337,12.9722148 12.4472235,12.3747883 C13.630556,11.2158331 14.2222222,9.76208731 14.2222222,8.01378859 C14.2222222,7.17149565 14.0689679,6.37437223 13.7617474,5.62265609 C13.4550014,4.87117768 13.0068629,4.20124216 12.4204158,3.61213634 C11.1993629,2.38923063 9.73111009,1.77777778 8.01375968,1.77777778 Z" id="Shape" fill-rule="nonzero"/>
            </g>
        </g>
    </g>
</svg>
