<?xml version="1.0" encoding="UTF-8"?>
<svg width="18px" height="18px" viewBox="0 0 18 18" version="1.1" xmlns="http://www.w3.org/2000/svg" xmlns:xlink="http://www.w3.org/1999/xlink">
    <!-- Generator: Sketch 43.1 (39012) - http://www.bohemiancoding.com/sketch -->
    <title>ic_copyright_18</title>
    <desc>Created with Sketch.</desc>
    <defs/>
    <g id="Page-1" stroke="none" stroke-width="1" fill="none" fill-rule="evenodd">
        <g id="ic_copyright_18-copy" fill-rule="nonzero" fill="rgb(153, 153, 153)">
            <g id="All_rights_reserved_logo" transform="translate(1.000000, 1.000000)">
                <path d="M7.98525,0 C10.22325,0 12.1285,0.78125 13.69975,2.343 C14.45175,3.09525 15.0235,3.95475 15.4135,4.9215 C15.80425,5.88825 16,6.91425 16,8 C16,9.09525 15.80675,10.1215 15.4215,11.07825 C15.03575,12.03525 14.4665,12.881 13.7145,13.6145 C12.93375,14.3855 12.048,14.97625 11.05725,15.386 C10.067,15.795 9.043,16 7.98575,16 C6.9285,16 5.91675,15.79775 4.95,15.3925 C3.9835,14.98825 3.11675,14.40225 2.35,13.63575 C1.58325,12.86925 1,12.005 0.6,11.043 C0.2,10.081 0,9.067 0,8 C0,6.94275 0.20225,5.92625 0.607,4.95 C1.01175,3.974 1.6,3.1 2.37125,2.3285 C3.895,0.7765 5.76625,0 7.98525,0 Z M8.014,1.443 C6.18575,1.443 4.6475,2.08125 3.39975,3.357 C2.771,3.99525 2.28775,4.712 1.94975,5.507 C1.61125,6.3025 1.4425,7.1335 1.4425,8.00025 C1.4425,8.8575 1.61125,9.6835 1.94975,10.4785 C2.288,11.2745 2.771,11.98375 3.39975,12.6075 C4.02825,13.2315 4.7375,13.7075 5.5285,14.03625 C6.31875,14.36475 7.1475,14.5295 8.014,14.5295 C8.871,14.5295 9.7015,14.363 10.50725,14.0295 C11.3125,13.696 12.0375,13.215 12.686,12.58675 C13.933,11.368 14.5565,9.83925 14.5565,8.00075 C14.5565,7.115 14.395,6.27675 14.07125,5.48625 C13.748,4.696 13.27575,3.9915 12.65775,3.372 C11.371,2.086 9.82375,1.443 8.014,1.443 Z" id="Shape"/>
                <path d="M10.40175,9.90975 L10.19475,9.78075 C9.7095,10.3165 9.01025,10.65375 8.2305,10.65375 C6.765,10.65375 5.57675,9.46625 5.57675,8.00025 C5.57675,6.5345 6.765,5.34625 8.2305,5.34625 C9.01025,5.34625 9.7095,5.684 10.19475,6.21925 L10.40175,6.09025 L11.8285,5.2055 C10.9935,4.133 9.69475,3.44025 8.23025,3.44025 C5.71275,3.44025 3.671,5.482 3.671,8 C3.671,10.51825 5.71275,12.55925 8.23025,12.55925 C9.6945,12.55925 10.994,11.86675 11.8285,10.794 L10.40175,9.90975 Z" id="Shape"/>
            </g>
        </g>
    </g>
</svg>