<svg width="16" height="16" viewBox="0 0 16 16" xmlns="http://www.w3.org/2000/svg"><title>sh-mixcloud-16-color</title><g fill="#52AAD8" fill-rule="evenodd"><path d="M13.478 11.556a.416.416 0 0 1-.35-.644 3.41 3.41 0 0 0 .587-1.93 3.41 3.41 0 0 0-.588-1.928.412.412 0 0 1 .113-.574.42.42 0 0 1 .58.11c.479.709.73 1.54.73 2.396 0 .856-.251 1.688-.73 2.396a.382.382 0 0 1-.337.187l-.005-.013z"/><path d="M12.28 10.886a.418.418 0 0 1-.233-.072.402.402 0 0 1-.112-.568c.256-.373.39-.8.39-1.26 0-.443-.134-.879-.39-1.26a.402.402 0 0 1 .112-.567.419.419 0 0 1 .579.116c.35.514.533 1.112.533 1.72 0 .621-.183 1.212-.533 1.718a.4.4 0 0 1-.345.187v-.014zM7.036 4.222A3.318 3.318 0 0 0 3.9 6.442C2.83 6.6 2 7.561 2 8.667a2.236 2.236 0 0 0 2.229 2.222h5.702c1.027 0 1.847-.889 1.847-1.907 0-.884-.61-1.622-1.449-1.804-.164-1.659-1.576-2.956-3.294-2.956zM4.23 10a1.39 1.39 0 0 1-1.396-1.378c0-.76.624-1.378 1.396-1.378.371 0 .722.148.986.405a.414.414 0 0 0 .588 0 .42.42 0 0 0 0-.584 2.253 2.253 0 0 0-1.027-.575 2.474 2.474 0 0 1 2.25-1.44c1.365 0 2.48 1.105 2.48 2.459 0 .264-.04.52-.126.77a.423.423 0 0 0 .392.552.412.412 0 0 0 .392-.28c.055-.164.094-.327.118-.498.384.148.658.521.658.949 0 .568-.462.998-1.027.998H4.229z"/></g></svg>