<?xml version="1.0" encoding="UTF-8"?>
<svg xmlns="http://www.w3.org/2000/svg" width="18px" height="18px" viewBox="0 0 18 18">
  <g fill-rule="evenodd">
    <path fill="rgb(255, 255, 255)" d="M10.713 6.92a2.35 2.35 0 0 0-.664-.589c-.264-.158-.586-.237-.968-.237-.359 0-.67.08-.934.237a.762.762 0 0 0-.395.694.81.81 0 0 0 .227.598c.152.152.331.275.539.369.207.093.429.164.664.21.236.047.438.088.606.124.325.082.631.181.917.298.286.117.533.27.74.457.208.187.37.416.488.685.118.27.177.598.177.984 0 .469-.095.87-.286 1.204-.19.334-.437.606-.74.817-.303.21-.648.363-1.035.457-.387.093-.777.14-1.17.14-.662 0-1.242-.105-1.741-.316-.5-.21-.945-.597-1.338-1.16l1.144-.984c.247.258.522.486.825.686.303.199.673.298 1.11.298.191 0 .385-.02.58-.061.197-.041.371-.106.522-.193.152-.088.275-.2.37-.334a.786.786 0 0 0 .144-.466.823.823 0 0 0-.21-.58 1.524 1.524 0 0 0-.505-.36 3.565 3.565 0 0 0-.623-.21 19.733 19.733 0 0 0-.58-.133 9.688 9.688 0 0 1-.926-.28 2.774 2.774 0 0 1-.774-.422 1.93 1.93 0 0 1-.539-.668c-.134-.27-.201-.603-.201-1.002 0-.433.086-.81.26-1.133.174-.322.404-.588.69-.8.286-.21.612-.368.976-.474a3.95 3.95 0 0 1 2.65.158c.494.211.887.563 1.178 1.055l-1.178.93z"/>
    <path fill="rgb(255, 255, 255)" d="M10.713 6.92a2.35 2.35 0 0 0-.664-.589c-.264-.158-.586-.237-.968-.237-.359 0-.67.08-.934.237a.762.762 0 0 0-.395.694.81.81 0 0 0 .227.598c.152.152.331.275.539.369.207.093.429.164.664.21.236.047.438.088.606.124.325.082.631.181.917.298.286.117.533.27.74.457.208.187.37.416.488.685.118.27.177.598.177.984 0 .469-.095.87-.286 1.204-.19.334-.437.606-.74.817-.303.21-.648.363-1.035.457-.387.093-.777.14-1.17.14-.662 0-1.242-.105-1.741-.316-.5-.21-.945-.597-1.338-1.16l1.144-.984c.247.258.522.486.825.686.303.199.673.298 1.11.298.191 0 .385-.02.58-.061.197-.041.371-.106.522-.193.152-.088.275-.2.37-.334a.786.786 0 0 0 .144-.466.823.823 0 0 0-.21-.58 1.524 1.524 0 0 0-.505-.36 3.565 3.565 0 0 0-.623-.21 19.733 19.733 0 0 0-.58-.133 9.688 9.688 0 0 1-.926-.28 2.774 2.774 0 0 1-.774-.422 1.93 1.93 0 0 1-.539-.668c-.134-.27-.201-.603-.201-1.002 0-.433.086-.81.26-1.133.174-.322.404-.588.69-.8.286-.21.612-.368.976-.474a3.95 3.95 0 0 1 2.65.158c.494.211.887.563 1.178 1.055l-1.178.93z" opacity=".35"/>
    <path fill="rgb(255, 255, 255)" d="M8 3.5h2v2H8zM8 12.5h2v2H8z"/>
  </g>
</svg>
