<svg width="125" height="20" xmlns="http://www.w3.org/2000/svg"><g fill-rule="nonzero" fill="none"><rect fill="transparent" width="125" height="20" rx="5"/><path fill="#FFF" transform="translate(22 3)" d="M3.146 11V8.275h1.16c2.29 0 3.434-.963 3.434-2.888 0-1.86-1.092-2.79-3.275-2.79H.85V11h2.296zm1.22-4.617h-1.22V4.496h1.26c.68 0 1.02.309 1.02.926 0 .316-.082.556-.246.718-.164.162-.436.243-.815.243zM11.295 11V8.17h.933l1.37 2.83h2.602L14.52 7.795c1.011-.465 1.517-1.285 1.517-2.461 0-.898-.271-1.58-.814-2.042-.543-.463-1.366-.694-2.467-.694H9V11h2.297zm1.366-4.67h-1.365V4.496h1.4c.324 0 .575.074.753.223.178.148.267.375.267.68 0 .3-.081.53-.243.69-.162.161-.433.241-.812.241zm8.461 4.805c.777 0 1.462-.175 2.054-.525a3.454 3.454 0 001.365-1.508c.318-.657.478-1.428.478-2.315s-.158-1.656-.472-2.308c-.315-.653-.765-1.15-1.35-1.495-.587-.343-1.27-.515-2.052-.515-.777 0-1.462.174-2.056.521a3.43 3.43 0 00-1.368 1.506c-.319.656-.478 1.428-.478 2.315 0 .886.158 1.657.475 2.311.316.654.767 1.153 1.353 1.497.586.344 1.27.516 2.051.516zm.023-2.033c-.472 0-.838-.196-1.098-.586-.26-.391-.39-.967-.39-1.729 0-.762.126-1.334.378-1.717s.614-.574 1.087-.574c.469 0 .833.195 1.093.586.26.39.39.967.39 1.729 0 .761-.127 1.334-.378 1.716-.252.383-.613.575-1.082.575zm12.803 2.033c1.196 0 2.113-.322 2.751-.967.639-.645.958-1.563.958-2.754V2.598H35.28v4.816c0 1.11-.431 1.664-1.295 1.664-.457 0-.79-.148-1.002-.445-.21-.297-.316-.703-.316-1.219V2.598h-2.379v4.816c0 1.2.313 2.12.938 2.76.625.64 1.533.96 2.724.96zM41.543 11V8.19c-.003-1.026-.027-1.67-.07-1.93.101.172.298.48.591.926.293.445.532.793.715 1.043L44.783 11h1.899V2.598h-2.233v2.54c.004 1.022.027 1.663.07 1.925-.085-.176-.283-.495-.591-.956-.309-.46-.547-.802-.715-1.025l-1.846-2.484h-2.056V11h2.232zm12.914 0V8.973h-3.72V2.598H48.38V11h6.076zm3.744 0V2.598h-2.373V11h2.373zm5.977.287c.937-1.973 1.494-3.16 1.67-3.56.175-.4.312-.721.41-.963a38.76 38.76 0 00-.053 2.232V11h2.186V2.598h-2.11L65.25 4.842c-.543 1.156-.896 2.002-1.06 2.537-.083-.313-.434-1.158-1.055-2.537l-1.031-2.244h-2.14V11h2.186V8.996c0-.965-.015-1.709-.046-2.232.175.457.422 1.025.74 1.705.32.68.763 1.619 1.334 2.818zM72.533 11V2.598H70.16V11h2.373zm6.1 0V4.63h2.35V2.599H73.95V4.63h2.35V11h2.332zm10.219 0V9.043h-4.207V7.602h2.484V5.674h-2.484v-1.12h4.125V2.599h-6.434V11h6.516zm4.212 0c1.598 0 2.753-.339 3.466-1.017.713-.677 1.07-1.754 1.07-3.231 0-1.414-.345-2.46-1.035-3.138-.689-.677-1.784-1.016-3.284-1.016H90.34V11h2.724zm.135-1.992h-.504V4.59h.575c.703 0 1.203.166 1.5.498.296.332.445.898.445 1.7 0 .812-.149 1.385-.445 1.719-.297.334-.82.5-1.57.5z"/><path d="M10 16a6 6 0 100-12 6 6 0 000 12z" fill="#F50"/><path d="M10 12.207l-2.193 1.288c-.24.14-.385.043-.323-.232l.56-2.462L6.13 9.135c-.21-.182-.16-.35.123-.375l2.54-.234L9.8 6.208c.11-.253.287-.258.4 0l1.008 2.318 2.54.234c.277.025.337.19.123.375l-1.916 1.666.56 2.462c.062.269-.077.376-.322.232L10 12.207z" fill="#FFF"/></g></svg>
