<svg width="16" height="16" viewBox="0 0 16 16" xmlns="http://www.w3.org/2000/svg"><title>sh-snapchat-gray</title><path d="M6.234 3.88a2.772 2.772 0 0 0-.839 1.093c-.174.44-.158.907-.135 1.337.015.307.048.6.02.877a.878.878 0 0 1-.436.01c-.104-.017-.211-.06-.333-.094a.414.414 0 0 0-.33.07c-.082.057-.181.137-.186.274.018.11.068.166.113.206.045.04.088.064.114.084.227.153.47.216.683.3.148.063.275.163.304.29.037.16-.03.343-.12.52a3.19 3.19 0 0 1-1.029 1.18 2.507 2.507 0 0 1-.756.346c-.066.024-.197.037-.28.16l-.013.027a.23.23 0 0 0 .043.213c.037.047.079.07.115.09.232.134.48.19.705.247.166.037.316.057.439.11.006.01.018.05.047.12.04.123.058.27.105.423.012.04.05.077.094.084.103.023.159-.014.168-.014.391-.066.769-.123 1.115-.036.365.093.68.343 1.037.56.238.146.511.293.827.303.241.013.475 0 .704-.017.2-.016.39-.083.555-.186.382-.217.714-.474 1.08-.634.119-.043.267-.04.431-.053.307-.007.61.007.91.047h.031a.163.163 0 0 0 .103-.057l.032-.063.013-.044c.055-.18.085-.343.174-.446.04-.04.108-.057.186-.057.278-.03.514-.123.737-.203.09-.04.214-.08.299-.197a.21.21 0 0 0-.062-.3c-.131-.083-.252-.093-.329-.12-.523-.167-.971-.523-1.306-.953-.186-.24-.343-.5-.447-.78-.042-.124-.044-.257.016-.337.096-.133.268-.22.452-.287.204-.07.426-.153.609-.313a.38.38 0 0 0 .09-.113.243.243 0 0 0 .004-.204.497.497 0 0 0-.213-.203.452.452 0 0 0-.364-.033c-.129.04-.23.083-.325.096-.141.024-.272.03-.373-.006-.001-.017-.002-.044-.006-.08-.006-.22.013-.45.016-.687.01-.36.025-.727-.028-1.1-.117-.63-.52-1.17-1.03-1.53a2.598 2.598 0 0 0-1.259-.447 4.09 4.09 0 0 0-.45-.02c-.606.004-1.232.164-1.722.547z" fill="#999" fill-rule="evenodd"/></svg>