<?xml version="1.0" encoding="UTF-8" standalone="no"?>
<svg width="18px" height="14px" viewBox="0 0 18 14" version="1.1" xmlns="http://www.w3.org/2000/svg" xmlns:xlink="http://www.w3.org/1999/xlink">
    <!-- Generator: sketchtool 3.8.3 (29802) - http://www.bohemiancoding.com/sketch -->
    <title>A517BF11-E369-4A74-B88A-688816190F04</title>
    <desc>Created with sketchtool.</desc>
    <defs/>
    <g id="Zeplin-/-Final" stroke="none" stroke-width="1" fill="none" fill-rule="evenodd">
        <g id="assets" transform="translate(-67.000000, -60.000000)">
            <g id="ic_station_menu_000" transform="translate(67.000000, 60.000000)">
                <circle id="Dot" fill="rgb(204, 204, 204)" cx="9" cy="7" r="2.5"/>
                <path d="M15.0280535,12.9927101 C16.5558779,11.4559314 17.5,9.33822148 17.5,7 C17.5,4.67572955 16.5671106,2.5693471 15.0553385,1.03485946" id="Path" stroke="rgb(204, 204, 204)"/>
                <path d="M12.9050789,10.8730301 C13.8909813,9.87902057 14.5,8.51063225 14.5,7 C14.5,5.50719644 13.905272,4.15329905 12.9398283,3.16232026" id="Path" stroke="rgb(204, 204, 204)"/>
                <path d="M3.01651987,0.962784209 C1.46250592,2.50305224 0.5,4.63912347 0.5,7 C0.5,9.36001315 1.46180206,11.4953854 3.01481517,13.0355257 L3.01481517,13.0355257" id="Path" stroke="rgb(204, 204, 204)"/>
                <path d="M5.10376612,3.11807236 C4.11266247,4.11280573 3.5,5.48485537 3.5,7 C3.5,8.53985684 4.13281066,9.93191282 5.15256221,10.9302982 L5.15256221,10.9302982" id="Path" stroke="rgb(204, 204, 204)"/>
            </g>
        </g>
    </g>
</svg>