<?xml version="1.0" encoding="UTF-8"?>
<svg width="18px" height="18px" viewBox="0 0 18 18" version="1.1" xmlns="http://www.w3.org/2000/svg" xmlns:xlink="http://www.w3.org/1999/xlink">
    <!-- Generator: Sketch 43.1 (39012) - http://www.bohemiancoding.com/sketch -->
    <title>Rectangle 243 Copy 27</title>
    <desc>Created with Sketch.</desc>
    <defs/>
    <g id="Page-1" stroke="none" stroke-width="1" fill="none" fill-rule="evenodd">
        <g id="ic_you_18">
            <rect id="Rectangle-243-Copy-27" fill="rgb(153, 153, 153)" opacity="0" x="0" y="0" width="18" height="18"/>
            <path d="M12.1009542,11.8591573 C11.2747008,11.4416108 10.8566896,10.3239198 10.8566896,9.53917736 C10.8566896,9.1402288 11.1249892,8.80523903 11.3639825,8.53284721 C12.0121269,7.78983672 12.5182838,6.90870248 12.5182838,5.02622779 C12.5182838,2.25105185 10.857144,1 8.98768018,1 C7.11821637,1 5.45707656,2.25105185 5.45707656,5.02622779 C5.45707656,6.90870248 5.96300631,7.78983672 6.61137789,8.53284721 C6.85014402,8.80523903 7.11867073,9.1402288 7.11867073,9.53917736 C7.11867073,10.3239198 6.70065962,11.4416108 5.87417895,11.8591573 C4.62991436,12.4889925 2.45080427,13.0274256 1.50914337,13.7409516 C0.252383882,14.6937559 0,16.9990933 0,16.9990933 L18,17 C18,17 17.7227493,14.6937559 16.4659898,13.7409516 C15.5243289,13.0274256 13.3452188,12.4889925 12.1009542,11.8591573 Z" id="ic" fill="rgb(153, 153, 153)"/>
        </g>
    </g>
</svg>