<svg viewBox="0 0 500 500" fill="none" xmlns="http://www.w3.org/2000/svg"><path d="M426.961 454.663c-4.738.011-9.101.034-13.463.045-22.05.057-44.089.125-66.14.137-3.257 0-6.526-.399-9.783-.388-3.406.012-6.811.319-10.217.467-1.002.046-2.027.148-2.995-.034-2.779-.512-5.524-.319-8.303-.057-1.333.126-2.7-.319-4.044-.296-4.51.057-9.009.308-13.508.296-5.911-.011-11.811-.239-17.722-.273-6.287-.046-12.574.068-18.861.023-2.973-.023-5.934-.262-8.896-.353-.717-.023-1.435.159-2.152.205-.991.068-1.993.136-2.984.136-3.429.012-6.868 0-10.297-.034-1.685-.023-3.371-.159-5.068-.193a418.93 418.93 0 0 0-8.463-.092c-5.17 0-10.341.035-15.512.046-5.012.011-10.023.057-15.035-.023-6.902-.102-13.815-.307-20.717-.467-6.174-.148-12.347-.364-18.531-.398-2.893-.023-5.832.706-8.679.41-6.914-.729-13.816-.399-20.718-.296-3.702.057-7.392.603-11.094.933-.546.046-1.093.08-1.64.08-12.665.069-25.33.125-37.984.171-.524 0-1.048-.114-1.834-.205.137-5.148-1.378-10.102-.296-15.215.387-1.834.137-3.816.137-5.729 0-3.28 0-6.56-.08-9.84-.034-1.537-.296-3.064-.41-4.59-.068-.911-.148-1.833-.034-2.722.672-5.25.66-10.5-.069-15.75-.125-.9-.045-1.823-.056-2.734-.058-10.933-.046-21.866-.183-32.788-.16-12.642-.341-25.283-.695-37.925-.193-6.89-.877-13.758-1.07-20.648-.114-4.077.319-8.154.421-12.243.034-1.628-.182-3.257-.296-4.874-.068-.991-.182-1.993-.182-2.984-.057-8.929-.046-17.858-.171-26.775-.091-6.902-.456-13.803-.501-20.705-.034-4.533.706-9.111.307-13.61-.649-7.186-.387-14.361-.421-21.536-.034-7.813-.148-15.671.535-23.438.866-9.897.855-19.783.911-29.68.023-4.532.297-9.076.479-13.609.17-4.077.307-8.166.558-12.243.25-4.157.706-8.303.911-12.46.091-1.833-.729-7.436.467-7.528 1.606-.125 3.223-.079 4.84-.079 2.005 0 4.01.011 6.014.045 9.978.148 19.966.285 29.944.467 3.793.069 7.574.274 11.367.422.364.011.729.022 1.093.011 7.893-.467 15.775.194 23.668.023 3.041-.069 6.093.25 9.146.398.182.012.364.035.546 0 4.34-.717 8.668.251 13.007.057 4.272-.193 8.565-.091 12.848-.034 8.816.114 17.642.285 26.458.444 7.905.137 15.82.274 23.725.456 2.54.057 5.068.387 7.608.41 6.264.068 12.517-.011 18.782.057 8.815.102 17.642.25 26.458.444 3.508.08 7.004.364 10.512.433 3.44.068 6.868-.069 10.308-.012 4.419.08 8.827.342 13.235.399 6.162.091 12.312.034 18.474.103 10.091.113 20.194.284 30.285.444 8.451.136 16.914.273 25.365.455 2.505.057 5.011.274 7.517.387.717.035 1.446-.045 2.175-.113.627-.069 1.253-.297 1.88-.285 3.508.08 7.004.262 10.512.319 1.515.022 3.03-.217 4.533-.239 2.7-.046 5.41-.035 8.394-.035 0 1.356.069 2.608 0 3.85-.102 2.084-.387 4.157-.421 6.241-.182 13.063-.182 26.126-.569 39.177-.08 2.722.182 5.399.125 8.098-.091 3.815-.433 7.619-.422 11.423.057 9.532 0 19.065-.022 28.586-.012 6.081-.296 12.175-.445 18.256-.159 6.72-.307 13.439-.478 20.17-.148 5.717-.114 11.457-.535 17.151-.923 12.642-.194 25.284-.274 37.925-.045 7.54.388 15.079.49 22.63.046 2.961-.296 5.933-.319 8.894-.034 3.417.126 6.834.126 10.262 0 2.801-.149 5.614-.171 8.427-.023 5.285.034 10.569-.023 15.854-.023 1.719-.49 3.439-.399 5.136.353 7.164-.171 14.316-.045 21.479.125 7.198.102 14.396.079 21.582-.011 1.709-.467 3.428-.432 5.137.125 8.074-.069 16.149-.046 24.224-.011 3.302-.342 6.605-.535 10.307z" fill="#C8AFF0"/><g fill="#1E1919"><path d="M350.654 172.459c-1.731.216-3.041.456-4.362.535-4.089.217-8.178.331-12.267.57-3.656.216-5.228 1.959-4.955 5.603.411 5.489 2.267 10.478 5.707 14.794.854 1.071 1.423 2.574 3.667 2.916-.752-.866-1.162-1.367-1.606-1.834-3.827-4.032-6.219-8.667-6.469-14.35-.137-3.234 1.344-6.332 5.421-6.366 3.087-.023 6.174-.091 9.26-.182 2.984-.092 5.968-.228 8.975-.353 2.426-8.371 5.957-16.047 9.784-23.598.604-1.196 1.401-2.392 2.38-3.28.82-.74 2.062-1.435 3.11-1.424 3.405.023 4.111.228 3.918 3.793-.399 7.551-.638 15.101-.934 22.652-.034.786 0 1.583 0 2.585 1.127.114 2.004.24 2.893.285 6.275.319 12.551.615 18.827.923 4.043.193 5.9 3.063 4.123 6.73-.945 1.948-2.153 3.838-3.588 5.444-3.383 3.781-7.471 6.594-12.289 8.348-2.984 1.094-5.855 2.54-9.18 2.312-.786-.057-1.686.16-1.686 1.697 1.321.217 2.699.649 4.078.627 1.731-.023 2.653.888 3.496 2.163 3.428 5.182 6.139 10.706 8.394 16.503 4.363 11.218 8.121 22.618 11.139 34.269 3.019 11.673 3.6 23.552 3.474 35.51-.091 8.599-1.184 17.095-3.326 25.397-2.027 7.836-3.963 15.728-7.129 23.222-4.579 10.831-9.659 21.343-16.914 30.761-9.317 12.072-19.864 22.835-32.369 31.502-9.716 6.742-19.636 13.199-30.684 17.755-4.021 1.651-7.802 3.918-12.005 5.17-10.125 3.018-20.33 5.684-30.866 6.902-15.683 1.822-31.014.41-46.196-3.986-8.235-2.38-16.242-5.398-24.374-8.018-6.834-2.198-12.916-5.888-18.918-9.692-4.921-3.12-9.636-6.548-14.477-9.794-1.583-1.059-3.416-1.799-4.852-3.018-3.815-3.234-7.756-6.378-11.127-10.034-4.875-5.284-9.294-10.967-13.884-16.502-7.244-8.735-13.178-18.347-18.417-28.37-3.201-6.127-5.934-12.504-8.736-18.825-2.312-5.205-3.531-10.717-3.964-16.389-.592-7.892-1.332-15.785-1.617-23.7-.228-6.549.342-13.086 1.868-19.52.706-3.007 1.002-6.105 1.606-9.146 1.378-6.935 4.408-13.29 7.175-19.725 4.738-10.979 10.695-21.343 16.88-31.524 4.612-7.597 9.783-14.931 16.014-21.4 12.528-13.006 26.253-24.406 42.585-32.435 10.046-4.943 20.627-8.212 31.493-10.649 4.613-1.036 9.317-1.674 13.975-2.483 1.253-.216 2.551-.273 3.77-.626 6.185-1.788 12.517-2.471 18.907-2.426 4.624.034 9.294.353 13.861 1.071 10.365 1.628 20.41 4.658 30.148 8.496 11.379 4.487 22.199 10.159 32.244 17.174 5.741 4.009 11.219 8.394 16.8 12.63.308.262.57.627 1.219 1.31zm-22.711 36.991c-1.492-1.321-2.904-2.893-4.613-4.02-7.984-5.251-15.854-10.694-24.135-15.444-7.779-4.464-16.344-7.277-25.307-8.177-8.873-.899-17.791-1.264-26.709-1.674-9.807-.455-19.271 1.401-28.178 5.444-14.101 6.4-26.344 15.534-36.789 26.935-6.947 7.584-13.701 15.42-17.722 25.1-1.64 3.952-3.075 7.984-4.522 12.004-3.268 9.066-5.307 18.359-5.182 28.051.125 8.94.581 17.835 2.517 26.604.57 2.563 1.139 5.137 1.891 7.654.649 2.175 1.731 4.225 2.346 6.4 1.811 6.366 5.467 11.662 9.533 16.708 3.417 4.248 7.096 8.291 10.627 12.459 8.052 9.487 17.574 17.129 28.702 22.732 1.788.9 3.565 1.947 5.467 2.46 7.551 2.039 15.068 4.487 22.768 5.694 15.808 2.495 31.401.775 46.595-4.339 6.162-2.073 11.788-5.136 17.198-8.792 5.479-3.701 10.592-7.801 14.841-12.801 5.011-5.888 9.715-12.038 14.282-18.279 2.574-3.508 4.488-7.494 6.914-11.127 4.727-7.072 7.415-14.999 9.749-23.051 1.037-3.553 1.527-7.266 2.233-10.797-1.492-1.23-2.893-2.141-3.987-3.325-4.555-4.954-9.02-9.999-13.519-15.022-.695-.774-.991-1.617-.752-2.745.137-.66-.159-1.628-.615-2.152-2.881-3.28-5.797-6.549-8.827-9.681-3.371-3.473-5.774-8.029-10.854-9.646-1.15-.364-1.173-1.48-.706-2.54 1.196-2.653 2.3-5.364 3.599-7.96.649-1.31.831-2.449.398-3.884-.922-3.086-.41-5.911 1.971-8.291 4.237-4.203 7.312-9.259 10.786-14.498zm22.711 64.495c.934-15.762-2.062-30.203-8.44-44.189-.957.706-1.651 1.617-2.38 1.652-1.629.068-2.392 1.207-3.337 2.129-.98.946-1.743 2.13-2.768 3.007-.854.74-1.891 1.446-2.961 1.72-1.743.432-3.577.489-5.365.74-.535.068-1.173.08-1.549.387-2.574 2.13-5.08 4.317-7.654 6.526 1.356 1.162 2.449 2.096 3.531 3.029 5.376 4.647 10.729 9.305 16.15 13.895.536.455 1.527.831 2.153.66 1.401-.376 2.221.148 3.098 1.082a332.872 332.872 0 0 0 6.845 7.061c.729.741 1.583 1.367 2.677 2.301zm-21.72-59.689a561.77 561.77 0 0 1-1.504 2.084c-2.562 3.519-5.136 7.038-7.699 10.569-.421.592-.843 1.196-1.15 1.845-1.299 2.722-.103 5.284 2.79 6.036 1.401.364 2.813.706 4.226 1.048 3.28.786 5.865-.319 7.927-2.904 1.139-1.413 2.437-2.699 3.474-4.191 1.321-1.891 3.405-3.258 4.157-5.854-.82-.274-1.469-.604-2.141-.706-4.568-.627-7.939-2.848-10.08-7.927zm39.397-32.094c-.342.08-.581.057-.661.16-4.305 5.296-8.611 10.591-12.848 15.944-.364.467-.444 1.355-.307 1.982 1.287 6.15 5.683 9.737 10.752 12.687 1.367.797 2.175.239 2.414-1.39.057-.353.046-.728.057-1.093.148-6.093.285-12.197.445-18.29.079-2.916.216-5.82.296-8.736.011-.41-.103-.831-.148-1.264zm2.289-35.043c-2.062.752-3.041 2.073-3.702 3.553-3.257 7.3-6.435 14.623-9.635 21.946-.137.308-.103.684-.183 1.299 3.941.695 7.757.524 11.652.364.638-9.179 1.241-18.006 1.868-27.162zm-19.773 53.117c-1.116 0-2.015.069-2.915-.011-1.025-.091-1.709.364-2.324 1.116-2.893 3.496-5.854 6.936-8.69 10.466-.444.547-.649 1.481-.592 2.21.136 1.628.956 2.95 2.562 3.553 1.914.718 3.474-.25 4.568-1.583 2.483-2.995 4.738-6.184 7.13-9.248 1.617-2.072 1.332-4.168.261-6.503zm-13.428 6.697c-2.916.433-4.943 3.291-5.205 6.719-.251 3.36 1.879 6.207 5.592 7.494 2.996 1.037 5.342.285 6.834-2.016-2.084-.227-4.396-.182-6.503-.785-4.192-1.219-5.342-5.365-2.677-8.884.592-.774 1.173-1.514 1.959-2.528zm-15.843 31.296c-1.298-.58-2.004-1.081-2.745-1.161-.581-.069-1.549.205-1.788.638-1.025 1.833-1.834 3.781-2.722 5.694.205.137.399.273.604.421 2.061-1.742 4.134-3.485 6.651-5.592z"/><path d="M250.63 336.242c-1.925.012-3.929.034-5.934.012-3.929-.046-7.733-.524-11.435-2.153-8.702-3.849-17.107-8.131-24.237-14.566-8.144-7.357-13.394-16.411-15.946-27.106-1.412-5.945-1.31-11.878-1.048-17.914.285-6.492 1.914-12.596 4.408-18.496 3.668-8.632 8.394-16.662 15.547-22.868 9.192-7.973 19.727-13.086 32.187-13.143a209.61 209.61 0 0 1 15.832.524c9.806.694 18.542 4.384 26.39 10.204 2.779 2.062 5.49 4.237 8.041 6.56 5.501 4.988 9.362 11.081 12.016 18.017 2.585 6.765 4.59 13.678 4.487 20.967-.136 10.045-1.981 19.737-7.175 28.54-.786 1.333-1.652 2.631-2.335 4.021-2.688 5.398-6.663 9.749-11.082 13.746-2.87 2.585-6.059 4.601-9.715 5.956-2.199.809-4.26 2.028-6.31 3.189-4.123 2.335-8.634 3.394-13.269 3.918-3.406.376-6.88.399-10.422.592zm3.155-76.111c-5.683.023-10.285 2.164-14.157 6.423-3.269 3.599-5.49 12.289-2.574 17.322 1.628 2.802 3.451 5.33 5.888 7.426 1.583 1.355 3.064 3.143 4.921 3.781 6.013 2.061 11.788.854 17.221-2.255.079-.046.125-.125.205-.182 3.53-2.597 5.239-6.401 6.879-10.284 1.834-4.351 1.002-8.587-.547-12.699-.581-1.537-1.788-3.041-3.086-4.077-4.271-3.439-9.146-5.467-14.75-5.455z"/></g><path d="M389.638 109.366c-.069 1.822-.991 2.243-2.062 2.027-1.583-.307-3.2-.706-4.67-1.355-11.776-5.137-23.519-10.341-35.273-15.512-18.679-8.211-37.37-16.377-56.026-24.645-12.654-5.604-25.251-11.355-37.882-17.027-.478-.216-.991-.375-1.617-.615-.24.513-.445.889-.604 1.287-1.663 4.1-5.137 4.51-8.702 2.21-.535-.342-1.013-.786-1.446-1.242-.797-.854-1.674-1.013-2.699-.455-.319.17-.672.285-1.003.433-16.025 7.22-32.039 14.44-48.064 21.65-13.292 5.979-26.538 12.026-39.875 17.903-8.588 3.781-17.301 7.243-25.923 10.945-2.472 1.059-4.966.82-7.677.558.638-.399 1.242-.854 1.914-1.185 9.02-4.373 18.223-8.29 27.494-12.106 11.948-4.931 23.725-10.284 35.536-15.557 6.071-2.71 12.05-5.626 18.075-8.428 6.515-3.04 13.042-6.081 19.568-9.1 5.364-2.482 10.74-4.954 16.139-7.38 1.241-.557 2.528-1.138 3.85-1.355 1.287-.205 1.811-.877 2.346-1.936 1.902-3.781 5.034-4.692 7.859-1.663 2.278 2.449 5.08 3.235 7.847 4.43 16.06 6.914 32.153 13.758 48.179 20.762 26.036 11.378 52.039 22.858 78.041 34.304 2.221.99 4.431 2.027 6.675 3.052z" fill="#1E1919"/></svg>