<?xml version="1.0" encoding="UTF-8" standalone="no"?>
<!-- Generator: Adobe Illustrator 16.0.0, SVG Export Plug-In . SVG Version: 6.00 Build 0)  -->

<svg
   xmlns:dc="http://purl.org/dc/elements/1.1/"
   xmlns:cc="http://creativecommons.org/ns#"
   xmlns:rdf="http://www.w3.org/1999/02/22-rdf-syntax-ns#"
   xmlns:svg="http://www.w3.org/2000/svg"
   xmlns="http://www.w3.org/2000/svg"
   xmlns:sodipodi="http://sodipodi.sourceforge.net/DTD/sodipodi-0.dtd"
   xmlns:inkscape="http://www.inkscape.org/namespaces/inkscape"
   version="1.1"
   id="Layer_1"
   x="0px"
   y="0px"
   width="45"
   height="45"
   viewBox="0 0 45 45"
   enable-background="new 0 0 45 45"
   xml:space="preserve"
   inkscape:version="0.91 r13725"
   sodipodi:docname="previous.svg"><metadata
     id="metadata15"><rdf:RDF><cc:Work
         rdf:about=""><dc:format>image/svg+xml</dc:format><dc:type
           rdf:resource="http://purl.org/dc/dcmitype/StillImage" /><dc:title></dc:title></cc:Work></rdf:RDF></metadata><defs
     id="defs13" /><sodipodi:namedview
     pagecolor="#ffffff"
     bordercolor="#666666"
     borderopacity="1"
     objecttolerance="10"
     gridtolerance="10"
     guidetolerance="10"
     inkscape:pageopacity="0"
     inkscape:pageshadow="2"
     inkscape:window-width="1120"
     inkscape:window-height="641"
     id="namedview11"
     showgrid="false"
     fit-margin-top="0"
     fit-margin-left="0"
     fit-margin-right="0"
     fit-margin-bottom="0"
     inkscape:zoom="5.2444444"
     inkscape:cx="20.508715"
     inkscape:cy="16.426554"
     inkscape:window-x="2125"
     inkscape:window-y="12"
     inkscape:window-maximized="1"
     inkscape:current-layer="Layer_1" /><g
     id="g3"><polygon
       points="18.954,27.531 14.499,23.075 32.702,23.075 32.702,21.925 14.499,21.925 18.955,17.469 18.143,16.655 12.299,22.5 18.142,28.346 "
       id="polygon5"
       style="fill:#797979" /></g><g
     id="g7"><path
       d="M 22.5,45 C 10.094,45 0,34.907 0,22.5 0,10.093 10.095,0 22.5,0 34.907,0 45,10.093 45,22.5 45,34.907 34.906,45 22.5,45 m 0,-44.129 c -11.926,0 -21.63,9.703 -21.63,21.629 0,11.926 9.705,21.629 21.63,21.629 11.927,0 21.63,-9.703 21.63,-21.629 C 44.13,10.574 34.426,0.871 22.5,0.871"
       id="path9"
       inkscape:connector-curvature="0"
       style="fill:#797979" /></g></svg>