<svg width="24" height="24" viewBox="0 0 24 24" fill="none" xmlns="http://www.w3.org/2000/svg">
    <circle cx="12" cy="12" r="9" fill="#F3FFF6"/>
    <path d="M11.52 3.092c-.067.007-.22.018-.34.027a8.65 8.65 0 0 0-3.326.908 8.634 8.634 0 0 0-3.208 2.86 9.486 9.486 0 0 0-1.604 4.592c-.008.12-.021.283-.028.364a3.77 3.77 0 0 0 0 .644c.007.082.02.241.028.357.054.706.172 1.298.383 1.907.627 1.81 1.832 3.413 3.439 4.57a8.772 8.772 0 0 0 3.815 1.566c.534.078 1.458.13 1.814.1l.383-.03a8.954 8.954 0 0 0 4.601-1.74c.616-.46 1.094-.93 1.727-1.702.993-1.208 1.623-2.838 1.752-4.53l.03-.394c.023-.293.008-.699-.051-1.28a9.07 9.07 0 0 0-.967-3.241 9.491 9.491 0 0 0-2.797-3.336c-.799-.592-1.796-1.08-2.663-1.306a10.116 10.116 0 0 0-1.788-.3l-.445-.036a6.19 6.19 0 0 0-.756 0zm1.32.315c.974.092 1.867.343 2.558.718.453.247.79.583.917.915.024.06.024.068 0 .147a3.683 3.683 0 0 1-.098.264c-.194.48-.477.93-.884 1.408-.236.275-.232.273-.35.3-.153.034-.282.047-.598.064-.157.008-.345.02-.42.028-.363.036-1.171.082-1.62.092l-.395.01-.261-.272c-.483-.5-.815-.861-1.194-1.294-.307-.351-.359-.448-.37-.679a.842.842 0 0 1 .101-.458c.171-.358.546-.739 1.039-1.057.239-.155.287-.176.432-.19.208-.021.907-.02 1.143.004zm4.226 1.981c.129.035.263.096.486.22.098.055.216.118.264.143.16.08.576.468.885.826a7.373 7.373 0 0 1 1.585 3.187c.1.444.109.6.047.888-.062.295-.204.586-.46.96-.115.165-.485.651-.518.678a.346.346 0 0 1-.097.032l-.08.017-.23-.104c-.9-.406-1.722-.873-2.314-1.316l-.164-.122-.068-.144c-.198-.417-.352-.844-.63-1.759l-.26-.84a1.167 1.167 0 0 1-.08-.45c0-.37.15-.685.606-1.289.237-.312.326-.44.412-.584l.117-.193c.102-.164.269-.214.5-.15zm-7.341.101c.168.035.343.161.487.354.041.054.193.227.338.385.565.612.767.887.906 1.226.073.18.107.329.116.504l.008.154-.256.735c-.287.829-.41 1.197-.518 1.56a2.871 2.871 0 0 1-.088.26c-.044.04-1.548.865-1.975 1.085a2.922 2.922 0 0 0-.31.18c-.226.176-.488.228-.736.144-.214-.073-.4-.205-.705-.498a15.516 15.516 0 0 1-.73-.78c-.225-.265-.372-.522-.427-.742l-.028-.118.172-.528c.234-.712.338-1.013.458-1.312.115-.287.304-.671.438-.892.283-.462.687-.875 1.098-1.12.153-.091.835-.432.97-.483.33-.13.556-.163.782-.114zm-3.44.549c.23.112.382.337.432.634l.015.098-.094.171c-.49.885-.909 1.997-1.188 3.164-.09.373-.15.48-.465.825-.094.104-.218.245-.276.314l-.333.396a2.834 2.834 0 0 0-.281.371c-.132.247-.307.352-.468.282-.171-.076-.266-.255-.266-.506 0-.252.044-.769.092-1.071.216-1.365.84-2.75 1.844-4.089.093-.123.19-.26.218-.306a.866.866 0 0 1 .268-.275.49.49 0 0 1 .285-.065.428.428 0 0 1 .217.057zm4.762 5.21c.646.265 1.295.734 2.17 1.571.12.115.138.136.132.17-.004.02-.03.22-.057.443-.132 1.066-.296 2.05-.442 2.655a1.09 1.09 0 0 1-.281.46c-.19.201-.413.345-.76.496-.204.09-1.002.379-1.152.416-.426.11-.925-.017-1.511-.386a14.2 14.2 0 0 1-.574-.406l-.513-.377a1.972 1.972 0 0 1-.57-.673 1.807 1.807 0 0 1-.204-.786 1.97 1.97 0 0 1 .058-.595c.018-.073.038-.185.042-.25.033-.428.149-.838.315-1.128.22-.38.509-.614.951-.77.137-.047.465-.207.72-.35.552-.308.952-.469 1.286-.516.217-.031.256-.028.39.026zm5.833.231c.517.252.81.409 1.124.595.383.228.811.532 1.022.724l.082.074-.021.252-.03.33a11.02 11.02 0 0 0-.021.258c-.053.639-.108 1.056-.187 1.4-.058.258-.258.56-.564.855-.227.218-.416.358-1.03.76-.275.18-.566.378-.647.438-.26.198-.57.381-.74.439a1.539 1.539 0 0 1-.157.036c-.083.012-.103.01-.265-.034-.6-.164-1.208-.462-1.913-.938-.276-.186-.389-.273-.389-.3 0-.051.075-.6.129-.947.07-.46.28-1.703.288-1.716.003-.005.023-.131.042-.281.04-.301.061-.386.12-.501.058-.11.084-.137.289-.289.1-.074.319-.246.486-.38.628-.508.94-.715 1.291-.859.212-.087.519-.16.603-.144.02.003.239.106.488.228zM3.69 12.73c.008.017.025.104.037.192a9.93 9.93 0 0 0 .598 2.15c.15.37.448.987.541 1.123.082.116.105.201.105.389 0 .185-.037.385-.071.385-.033 0-.504-.802-.71-1.211a6.725 6.725 0 0 1-.51-1.279c-.221-.742-.262-.94-.264-1.27 0-.217.003-.243.032-.305.048-.102.083-.144.148-.176.075-.037.079-.037.095.001zm15.815 3.064c.178.088.172.377-.014.718-.077.14-.417.649-.556.83-.73.953-1.771 1.786-2.993 2.392-.529.262-.713.326-.99.339a.626.626 0 0 1-.422-.094c-.06-.043-.148-.162-.137-.189.024-.063.592-.851.773-1.072.381-.468.662-.733.98-.924.373-.224.728-.467 1.618-1.105.842-.604 1.225-.861 1.328-.892.16-.05.318-.05.413-.003zm-12.432.11c.083.019.137.043.212.093.138.094.497.371.83.643.747.61 1.072.846 1.47 1.07.192.106.216.13.35.326.224.33.403.784.455 1.144.023.158.01.389-.028.508a.799.799 0 0 1-.09.18c-.055.083-.065.09-.156.12a2.946 2.946 0 0 1-.883.117H9.01l-.197-.064c-.795-.262-1.555-.695-2.323-1.32-.341-.28-.86-.765-.946-.886a1.617 1.617 0 0 1-.255-.695 7.469 7.469 0 0 1-.024-.804c.008-.028.027-.04.126-.067.065-.018.252-.083.414-.143.561-.207.712-.246.982-.248.127-.001.208.006.287.025zm5.294 4.173c.322.018.564.045.911.1l.4.061c.229.037.369.114.33.185-.022.04-.133.084-.286.11-.073.01-.19.03-.26.041a10.66 10.66 0 0 1-1.47.13c-.593.009-.905-.018-1.29-.11-.26-.063-.574-.18-.574-.216 0-.018.14-.063.41-.133a6.056 6.056 0 0 1 1.829-.168z" fill="#32A44D"/>
</svg>
