<svg width="24" height="24" viewBox="0 0 24 24" fill="none" xmlns="http://www.w3.org/2000/svg">
    <path d="M20.956 9.78a.913.913 0 0 0-.726-.642l-5.13-.781-2.293-4.873A.874.874 0 0 0 12 3v15.362l4.587 2.528c.44.243.985.066 1.216-.396a.984.984 0 0 0 .09-.598l-.876-5.356 3.711-3.793a.977.977 0 0 0 .228-.968z" fill="#EF669E"/>
    <path d="M11.193 3.484 8.899 8.357 3.77 9.14a.887.887 0 0 0-.514.275.977.977 0 0 0 .016 1.335l3.71 3.792-.875 5.356a.984.984 0 0 0 .09.599c.231.461.776.639 1.216.396L12 18.363V3.018a.915.915 0 0 0-.807.466z" fill="#FC93BE"/>
</svg>
