<svg width="24" height="24" viewBox="0 0 24 24" fill="none" xmlns="http://www.w3.org/2000/svg">
    <path fill-rule="evenodd" clip-rule="evenodd" d="m6.167 13.93 4.883 2.2c.38.154.95.367 1.783 0L17 13.95v3.758c0 1.155-2.425 2.09-5.417 2.09-2.991 0-5.416-.935-5.416-2.09V13.93z" fill="#005F89"/>
    <path d="M18.904 15.414a18.9 18.9 0 0 0 .447-1.084c.108-.282.415-.345.547-.077a6.14 6.14 0 0 1 .46 1.4c.024.118.002.247-.075.327-.326.343-.83.252-1.221.076-.21-.094-.265-.409-.158-.642z" fill="#0092D2"/>
    <path fill-rule="evenodd" clip-rule="evenodd" d="M19.64 14.304c-.04.007-.091.043-.12.118-.14.364-.305.778-.453 1.1a.347.347 0 0 0-.024.212c.014.062.044.101.084.12.184.082.385.14.571.142a.6.6 0 0 0 .462-.177c.014-.014.03-.052.017-.113a5.897 5.897 0 0 0-.44-1.34c-.026-.054-.06-.067-.096-.062zm-.05-.434c.178-.028.362.061.468.275l-.16.11m-.308-.385c-.172.029-.329.165-.408.372zm.468.275c.244.493.401 1.075.48 1.459.035.175.01.394-.131.542a.936.936 0 0 1-.712.288 1.797 1.797 0 0 1-.699-.171c-.348-.156-.398-.641-.255-.951.142-.307.303-.709.441-1.07M19.536 9.525c.154 0 .278.147.278.329v3.637c0 .181-.124.328-.278.328-.153 0-.278-.147-.278-.328V9.854c0-.182.125-.329.278-.329z" fill="#005F89"/>
    <path d="M20.3 13.619c0 .499-.342.904-.765.904-.422 0-.765-.405-.765-.904 0-.5.343-.904.765-.904.423 0 .765.405.765.904z" fill="#005F89"/>
    <path d="M3.25 11.362c-.67-.621-.702-1.248 0-1.834l7.202-2.904c.714-.346 1.592-.344 2.483.063l7.02 2.45c.67.62.702 1.271 0 1.858l-6.705 3.668c-.833.367-1.25.734-2.798 0L3.25 11.362z" fill="#0092D2"/>
</svg>
