<svg width="24" height="24" viewBox="0 0 24 24" fill="none" xmlns="http://www.w3.org/2000/svg">
    <path fill-rule="evenodd" clip-rule="evenodd" d="M9.698 3c-1.156 0-2.093.916-2.093 2.045v.147a.68.68 0 0 1-.688.672C4.754 5.864 3 7.577 3 9.692v3.772c0 1.312 0 2.34.08 3.162.081.837.25 1.523.63 2.128a4.76 4.76 0 0 0 1.589 1.553c.618.37 1.32.535 2.177.615.84.078 1.893.078 3.235.078h2.578c1.342 0 2.395 0 3.235-.078.857-.08 1.559-.245 2.177-.615a4.76 4.76 0 0 0 1.59-1.553c.379-.605.548-1.29.63-2.128.079-.822.079-1.85.079-3.162V9.692c0-2.115-1.754-3.828-3.917-3.828a.68.68 0 0 1-.688-.672v-.147c0-1.13-.937-2.045-2.093-2.045H9.698z" fill="#FFA9E0"/>
    <path fill-rule="evenodd" clip-rule="evenodd" d="M12 9.136c-2.197 0-3.977 1.74-3.977 3.887 0 2.146 1.78 3.886 3.977 3.886 2.196 0 3.976-1.74 3.976-3.886 0-2.147-1.78-3.887-3.976-3.887zm0 1.228c-1.503 0-2.721 1.19-2.721 2.659 0 1.468 1.218 2.659 2.72 2.659 1.503 0 2.722-1.19 2.722-2.66 0-1.468-1.219-2.659-2.721-2.659z" fill="#CA1D8C"/>
    <path d="M16.186 9.75c0 .452.375.818.837.818a.828.828 0 0 0 .837-.818.828.828 0 0 0-.837-.818.828.828 0 0 0-.837.818z" fill="#CA1D8C"/>
</svg>
