<svg width="24" height="24" viewBox="0 0 24 24" fill="none" xmlns="http://www.w3.org/2000/svg">
    <path d="M3.44 12.426v3.393l.792.14.024.005.918.156.026.004 1.024.174.03.004 1.147.195.033.007 1.296.22.038.005 1.476.251.044.007 1.71.286V11.29l-8.559 1.137z" fill="#AF965E"/>
    <path d="M3.44 15.852v2.13l8.558 2.576V17.28l-8.559-1.428z" fill="#5E4F2E"/>
    <path d="M20.562 11.313v4.53l-.793.14-.024.005-.918.154-.026.005-1.024.173-.03.006-1.145.194-.035.006-1.296.22-.038.007-1.476.25-.044.007-1.71.287v-5.985h8.559z" fill="#E2CD9D"/>
    <path d="M20.562 15.867v2.13l-8.558 2.575v-3.276l8.558-1.429z" fill="#6F603E"/>
    <path d="m11.998 5.555 8.57 2.62v.995l-8.57-2.114V5.555zm8.225 3.97.015 1.019.33.047v-1l-.345-.067zm-2.629-.588.015 1.177 1.887.308-.015-1.064-1.887-.42zM14 8.134l.008 1.392 2.602.426-.012-1.236L14 8.134zm-2.002-.45v1.512l.597.096V7.816l-.597-.133zm7.863 1.871-.205.367.218.45.2-.369-.213-.448zm-2.748-.596-.28.417.29.527.273-.419-.287-.527.004.002zm-3.798-.822-.401.482.406.64.39-.486-.395-.636z" fill="#E2CD9D"/>
    <path d="M11.998 5.555v1.501l-8.57 2.122v-.995l8.57-2.62v-.008zm-8.224 3.97-.346.066v1l.329-.047.017-1.02zm2.628-.588-1.886.421-.012 1.064 1.887-.309.013-1.176h-.002zm3.597-.803-2.6.58-.013 1.238 2.602-.424L10 8.134zM12 7.684l-.59.132v1.476l.597-.096V7.683H12zM4.135 9.554l-.213.448.2.368.218-.449-.205-.367zm2.758-.598-.283.525.272.42.29-.528-.28-.417zm3.794-.823-.394.637.39.486.405-.64-.4-.483z" fill="#AF965E"/>
    <path d="M11.998 3.43v2.126l-8.57 2.62V6.762l8.57-3.331zm-8.57 7.162.329-.047.017-1.02-.346.067v-.413l8.57-2.121v.63l-.59.132v1.477l.597-.097v5.973c-1.704 0-2.017-3.086-2.017-3.086s-.723 2.725-2.36 2.4c-1.32-.261-1.628-2.4-1.628-2.4-.307 2.203-2.171 3.555-2.572 1.286v-2.78zm6.859-1.817.39.485.405-.64-.4-.482-.395.637zm-2.9 1.178 2.601-.424L10 8.136l-2.6.58-.013 1.237zm-.783-.466.272.419.29-.528-.273-.42-.29.529zm-2.1.936 1.887-.308.013-1.177-1.888.422-.012 1.063zm-.582-.419.2.369.218-.45-.205-.367-.213.448z" fill="#5E4F2E"/>
    <path d="M20.568 6.761v1.416l-8.57-2.621V3.43l8.57 3.331zm-8.57 2.44.597.096V7.82l-.597-.132v-.63l8.57 2.121v.418l-.345-.066.015 1.02.33.047v2.346c-.403 2.269-2.524 1.43-2.825-.771 0 0-.31 1.753-1.629 2.014-1.636.32-2.106-2.014-2.106-2.014s-.306 3-2.01 3V9.2zm7.658.723.218.449.2-.369-.213-.448-.205.368zm-2.062-.986.015 1.177 1.887.308-.015-1.063-1.887-.422zm-.764.443.289.527.273-.419-.283-.53-.28.422zM14 8.136l.008 1.392 2.602.425-.012-1.236L14 8.136zm-1.086.484.406.64.39-.485-.395-.637-.401.482z" fill="#6F603E"/>
    <path d="M3.428 12.43V9.18l8.602-2.157v3.007L5.57 11.402 3.428 12.43z" fill="#5E4F2E"/>
    <path d="M20.572 12.602V9.18L12.03 7.023v3.373l8.542 2.206z" fill="#6F603E"/>
</svg>
