<svg width="24" height="24" viewBox="0 0 24 24" fill="none" xmlns="http://www.w3.org/2000/svg">
    <path fill-rule="evenodd" clip-rule="evenodd" d="M17.818 5.933c-1.634-1.851-3.526-1.07-4.697-.245a1.969 1.969 0 0 1-2.241 0c-1.172-.826-3.064-1.606-4.698.245-1.428 1.618-1.428 3.788-.707 5.885h3.783l2.648-2.854c.21-.227.537-.341.865-.303a.958.958 0 0 1 .75.49l2.297 4.457 1.373-1.48c.183-.196.454-.31.741-.31l.589.014c.726-2.101.728-4.277-.703-5.899zm-2.324 10.75a.952.952 0 0 1-.707-.485l-2.466-4.33-1.607 1.928c-.182.197-.454.311-.74.311H6.55c1.56 2.622 3.946 4.69 5.45 4.69.956 0 2.266-.834 3.494-2.113zm-6.137-9.76c.103.301-.034.638-.305.752a2.236 2.236 0 0 0-.78.58c-.338.37-.551.778-.67 1.207-.086.308-.38.48-.656.385-.278-.095-.433-.421-.347-.729a4.14 4.14 0 0 1 .933-1.692 3.279 3.279 0 0 1 1.147-.841c.271-.115.575.037.678.338z" fill="#96D356"/>
    <path d="M12.95 9.996a.496.496 0 0 0-.385-.23.554.554 0 0 0-.444.142L9.75 12.439l-6.257-.008c-.272 0-.493.18-.493.402 0 .222.22.402.493.402l6.49.009c.147 0 1.375-1.441 1.468-1.534l1.021-1.045 2.878 4.972c.07.126.216.214.384.232a.554.554 0 0 0 .444-.143l2.22-2.482h2.109c.272 0 .493-.18.493-.402 0-.223-.22-.403-.493-.403h-2.342a.543.543 0 0 0-.38.147l-2.042 2.176-2.794-4.766z" fill="#619B25"/>
    <path d="M6.215 6.943 9.3 6.086l.386 1.286-3.471 4.285-.772-1.714.772-3z" fill="#96D356"/>
</svg>
