<svg width="33" height="32" viewBox="0 0 33 32" fill="none" xmlns="http://www.w3.org/2000/svg">
    <path d="M16.01 0C9.328 0 7.374.007 6.994.038 5.623.152 4.77.368 3.84.831A6.389 6.389 0 0 0 2 2.177C.986 3.231.371 4.528.147 6.07c-.108.748-.14.9-.146 4.723-.002 1.275 0 2.951 0 5.2 0 6.677.007 8.63.04 9.008.11 1.334.32 2.174.763 3.092a6.742 6.742 0 0 0 4.37 3.57c.659.17 1.388.263 2.323.308.396.017 4.436.029 8.478.029 4.043 0 8.085-.005 8.471-.025 1.083-.05 1.712-.135 2.408-.315a6.701 6.701 0 0 0 4.37-3.577c.434-.896.654-1.767.754-3.032.022-.275.03-4.671.03-9.061 0-4.391-.01-8.78-.03-9.055-.102-1.285-.322-2.149-.77-3.062a6.344 6.344 0 0 0-1.37-1.877C28.777.985 27.483.369 25.94.146 25.193.04 25.044.007 21.219 0h-5.21z" fill="url(#ljbzijdxta)"/>
    <path d="M16.01 0C9.328 0 7.374.007 6.994.038 5.623.152 4.77.368 3.84.831A6.389 6.389 0 0 0 2 2.177C.986 3.231.371 4.528.147 6.07c-.108.748-.14.9-.146 4.723-.002 1.275 0 2.951 0 5.2 0 6.677.007 8.63.04 9.008.11 1.334.32 2.174.763 3.092a6.742 6.742 0 0 0 4.37 3.57c.659.17 1.388.263 2.323.308.396.017 4.436.029 8.478.029 4.043 0 8.085-.005 8.471-.025 1.083-.05 1.712-.135 2.408-.315a6.701 6.701 0 0 0 4.37-3.577c.434-.896.654-1.767.754-3.032.022-.275.03-4.671.03-9.061 0-4.391-.01-8.78-.03-9.055-.102-1.285-.322-2.149-.77-3.062a6.344 6.344 0 0 0-1.37-1.877C28.777.985 27.483.369 25.94.146 25.193.04 25.044.007 21.219 0h-5.21z" fill="url(#ya8a30aytb)"/>
    <path d="M16.002 4.184c-3.209 0-3.612.014-4.872.071-1.258.058-2.117.257-2.868.549a5.786 5.786 0 0 0-2.093 1.363A5.8 5.8 0 0 0 4.805 8.26c-.293.751-.492 1.61-.549 2.867-.056 1.26-.07 1.664-.07 4.873 0 3.21.013 3.61.07 4.871.058 1.258.257 2.117.55 2.868a5.79 5.79 0 0 0 1.362 2.093 5.786 5.786 0 0 0 2.093 1.364c.752.292 1.61.491 2.868.549 1.26.057 1.663.071 4.872.071 3.21 0 3.61-.014 4.871-.071 1.258-.058 2.118-.257 2.87-.549a5.78 5.78 0 0 0 2.091-1.364 5.8 5.8 0 0 0 1.364-2.093c.29-.751.49-1.61.55-2.868.056-1.26.07-1.662.07-4.871 0-3.21-.014-3.612-.07-4.872-.06-1.258-.26-2.117-.55-2.868a5.8 5.8 0 0 0-1.364-2.093 5.775 5.775 0 0 0-2.092-1.363c-.753-.292-1.613-.491-2.87-.549-1.26-.057-1.662-.071-4.872-.071h.003zm-1.06 2.129h1.06c3.155 0 3.53.011 4.775.068 1.152.053 1.777.245 2.194.407.551.214.945.47 1.358.884.413.413.67.807.884 1.359.162.416.354 1.04.407 2.193.057 1.246.069 1.62.069 4.773 0 3.154-.012 3.528-.069 4.774-.053 1.152-.245 1.777-.407 2.193-.214.551-.47.944-.884 1.357-.414.414-.806.67-1.358.884-.416.163-1.042.355-2.194.407-1.246.057-1.62.07-4.775.07-3.155 0-3.529-.013-4.775-.07-1.152-.053-1.777-.245-2.194-.407a3.66 3.66 0 0 1-1.359-.884 3.663 3.663 0 0 1-.884-1.358c-.162-.416-.354-1.041-.407-2.193-.056-1.246-.068-1.62-.068-4.776 0-3.155.012-3.527.068-4.773.053-1.152.245-1.777.407-2.194.214-.551.47-.945.884-1.359.414-.413.808-.67 1.36-.884.416-.163 1.041-.355 2.193-.407 1.09-.05 1.513-.064 3.715-.067v.003zm7.368 1.962a1.418 1.418 0 1 0 0 2.837 1.418 1.418 0 0 0 0-2.837zm-6.308 1.657a6.068 6.068 0 1 0 .001 12.137 6.068 6.068 0 0 0-.001-12.137zm0 2.13a3.939 3.939 0 1 1 0 7.877 3.939 3.939 0 0 1 0-7.878z" fill="#fff"/>
    <defs>
        <radialGradient id="ljbzijdxta" cx="0" cy="0" r="1" gradientUnits="userSpaceOnUse" gradientTransform="matrix(0 -31.7144 29.5049 0 8.502 34.465)">
            <stop stop-color="#FD5"/>
            <stop offset=".1" stop-color="#FD5"/>
            <stop offset=".5" stop-color="#FF543E"/>
            <stop offset="1" stop-color="#C837AB"/>
        </radialGradient>
        <radialGradient id="ya8a30aytb" cx="0" cy="0" r="1" gradientUnits="userSpaceOnUse" gradientTransform="matrix(2.78328 13.9007 -57.31372 11.47571 -5.362 2.305)">
            <stop stop-color="#3771C8"/>
            <stop offset=".128" stop-color="#3771C8"/>
            <stop offset="1" stop-color="#60F" stop-opacity="0"/>
        </radialGradient>
    </defs>
</svg>
