<svg width="24" height="24" viewBox="0 0 24 24" fill="none" xmlns="http://www.w3.org/2000/svg">
    <path d="M3.147 15.356s1.167-2.455 1.85-2.67c.404-.127.523.26.523.26l-1.663 2.712M20.856 15.342s-1.171-2.441-1.855-2.656c-.403-.127-.521.26-.521.26l1.662 2.712M13.614 14.783s1.501 4.027 1.571 4.5c.033.227-.33.804-.619.582-.103-.079-.202-.348-.318-.593-.269-.565-.555-.225-.48.242.034.23.087.456.16.677a.41.41 0 0 1-.025.331c-.153.255-.554.628-.733.41-.226-.278-1.697-4.722-1.697-4.722" fill="#32A44D"/>
    <path d="M12.52 16.212s-.456 1.38-.898 2.648c-.353 1.012-.696 1.951-.796 2.073-.178.22-.58-.154-.733-.408a.41.41 0 0 1-.023-.33c.072-.222.125-.45.159-.68.074-.467-.214-.81-.48-.242-.115.245-.215.514-.32.593-.289.222-.651-.356-.617-.582.012-.063.027-.125.045-.187.264-.928 1.524-4.314 1.524-4.314l2.139 1.429z" fill="#32A44D"/>
    <path d="M11.622 18.857c-.353 1.012-.696 1.951-.796 2.073-.178.22-.58-.154-.733-.408a.41.41 0 0 1-.023-.33c.072-.222.125-.45.159-.68.074-.466-.214-.808-.48-.24-.115.244-.215.514-.32.592-.289.222-.651-.355-.617-.582.012-.063.027-.125.045-.187.01.046.122.594.35.54.226-.054.403-.888.806-.814.404.073.306.646.237.983-.069.337-.145.512-.091.611.053.1.145.23.251.23.107 0 .71-1.82.71-1.82l.502.032zM12.375 18.857c.352 1.012.696 1.951.796 2.073.178.22.579-.154.733-.408a.41.41 0 0 0 .023-.33 4.167 4.167 0 0 1-.159-.68c-.074-.466.214-.808.48-.24.116.244.215.514.32.592.289.222.651-.355.617-.582a1.872 1.872 0 0 0-.045-.187c-.01.046-.122.594-.35.54-.227-.054-.403-.888-.806-.814-.404.073-.306.646-.237.983.068.337.145.512.091.611-.054.1-.145.23-.251.23-.023 0-.068-.085-.128-.217-.21-.483-.582-1.607-.582-1.607l-.502.036z" fill="#32A44D"/>
    <path d="M11.655 18.82c.262-.076.54-.076.803 0v-.634l-.404-.467-.513.488.114.613z" fill="#8AD19B"/>
    <path d="M4.282 13.89s-.68 1.06-.725 1.444c-.095.315 7.27 3.264 7.997 3.491a.055.055 0 0 0 .044-.003.057.057 0 0 0 .028-.035c.078-.278.372-1.066.372-1.066l-.653-1.652-2.864-.741M19.715 13.89s.682 1.06.724 1.444c.095.315-7.27 3.264-7.997 3.491a.055.055 0 0 1-.044-.003.056.056 0 0 1-.027-.035c-.08-.278-.373-1.066-.373-1.066l.654-1.652 2.863-.741" fill="#8AD19B"/>
    <path d="M11.998 14.379v3.34s-.516-.858-2.94-1.429c-1.766-.417-3.106-.277-4.53-1.374a.845.845 0 0 1-.205-1.104c.319-.53.795-1.207 1.153-1.2.086.001.17.026.243.072.336.193.615.702 1.659.522 1.33-.23 3.778-1.048 4.62 1.173zM18.52 12.611c-.497.008-.628.816-1.9.595-1.332-.23-3.778-1.048-4.622 1.173v3.339s.517-.857 2.94-1.428c1.766-.417 3.106-.277 4.53-1.375a.843.843 0 0 0 .206-1.103c-.318-.53-.795-1.206-1.153-1.2z" fill="#BFFFCE"/>
    <path d="M20.895 15.55c-.124.084-7.153 3.08-8.159 3.506a.263.263 0 0 0-.123.124c-.014.027-.048.052-.12.06-.165.01-.33.01-.495 0-.165.01-.33.01-.495 0a.14.14 0 0 1-.119-.058.278.278 0 0 0-.13-.128c-1.021-.436-8.028-3.422-8.153-3.505-.125-.083-.155-.231.034-.308.176-.067 7.13 2.991 8.296 3.505a.516.516 0 0 0 .307.03l.023-.004c.156-.013.314-.013.47 0l.025.004c.102.022.209.012.305-.03 1.16-.511 8.12-3.572 8.297-3.505.194.077.171.22.037.31zM16.99 8.669c-2.32 4.896-9.102 3.55-9.071-1.146.023-3.483 3.309-4.453 3.309-4.453.279-.087.448-.09.491-.027.044.063-.014.16-.17.302-.331.306-1.724 2.55-.349 4.54 1.278 1.852 4.373 1.657 5.267.9.37-.312.524-.39.579-.37.079.025-.056.254-.056.254z" fill="#32A44D"/>
</svg>
