<?xml version="1.0" encoding="UTF-8"?>
<svg width="24px" height="20px" viewBox="0 0 24 20" version="1.1" xmlns="http://www.w3.org/2000/svg" xmlns:xlink="http://www.w3.org/1999/xlink">
    <!-- Generator: Sketch 63.1 (92452) - https://sketch.com -->
    <title>Icon / Video Controls / cc / on</title>
    <desc>Created with Sketch.</desc>
    <g id="Icon-/-Video-Controls-/-cc-/-on" stroke="none" stroke-width="1" fill="none" fill-rule="evenodd">
        <g id="video-closed-caption" fill="#FFFFFF" fill-rule="nonzero">
            <path d="M24,0 L24,20 L0,20 L0,0 L24,0 Z M10.6970773,3.86493428 L6.55030855,3.86493428 L4.61677123,5.81588518 L4.61677123,14.1841148 L6.55030855,16.1350657 L10.6970773,16.1350657 L10.6970773,13.6810394 L7.54747874,13.6810394 L7.04889365,13.177964 L7.04889365,6.82203595 L7.54747874,6.31896057 L10.6970773,6.31896057 L10.6970773,3.86493428 Z M19.3832288,3.86493428 L15.23646,3.86493428 L13.3029227,5.81588518 L13.3029227,14.1841148 L15.23646,16.1350657 L19.3832288,16.1350657 L19.3832288,13.6810394 L16.2336302,13.6810394 L15.7350451,13.177964 L15.7350451,6.82203595 L16.2336302,6.31896057 L19.3832288,6.31896057 L19.3832288,3.86493428 Z" id="Combined-Shape"></path>
        </g>
    </g>
</svg>